<svg xml:space="preserve" version="1.1" id="svg59" viewBox="0 0 2069 400" xmlns="http://www.w3.org/2000/svg">
    <path d="M260.115 293.139c-2.853-.076-5.63-1.228-7.82-3.026-1.047-.805-1.57-2.058-1.783-3.33-.968-4.916-.995-9.95-1.165-14.94-.073-5.207-.216-10.427.143-15.625.063-.405.193-.822-.344-.59-2.128.286-4.295.756-6.442.42-2.316-.503-4.408-1.682-6.546-2.664a65.557 65.557 0 0 1-17.888-12.716c-2.421-2.365-4.908-4.784-6.427-7.86-4.52-8.65-7.66-17.98-9.773-27.495-1.595-7.365-2.493-14.99-1.49-22.506.797-6.253 2.088-12.434 3.395-18.597.856-3.59 1.632-7.291 3.472-10.533a9.027 9.027 0 0 1 7.411-4.563c4.323-.235 8.408 1.968 11.474 4.863 1.796 1.673 3.774 3.412 4.416 5.884.852 3.132.726 6.418.823 9.633.094 7.893-.084 15.793.283 23.68.162 3.74.818 7.45 2.02 10.995a49.518 49.518 0 0 0 4.214 9.82c1.31 2.262 2.635 4.597 4.574 6.387 1.375 1.112 2.623 2.438 4.2 3.257.383-.407.303-1.102.42-1.627.288-3.294.466-6.596.899-9.878.256-2.149.65-4.425.709-6.5.29-7.661-.038-15.339-.321-22.976-.504-12.89-1.612-25.785-1.014-38.692.227-5.04 1.343-9.987 2.432-14.897.97-3.985 1.918-8.005 3.477-11.807 1.485-3.179 3.424-6.33 6.379-8.34 1.955-1.327 4.414-1.304 6.682-1.484 3.051-.1 6.239-.185 9.092 1.08 2.214.813 4.34 2.155 5.514 4.264 1.362 2.344 2.162 4.96 2.959 7.533.827 3.214.667 6.567.764 9.855.088 8.574.121 17.147.195 25.72 3.584-.346 6.865-2.211 9.532-4.553 1.299-1.162 2.36-2.553 3.378-3.959.388-.56.907-1.35 1.28-2.042 2.573-4.57 2.94-9.941 3.154-15.073.189-5.41-.036-10.989.075-16.465.072-3.848.407-7.78 1.979-11.343.843-2.111 1.899-4.161 3.441-5.854 2.06-2.288 4.553-4.545 7.707-5.036 3.357-.537 7.071-.059 9.813 2.083 2.802 2.17 5.145 4.977 6.69 8.173 1.028 2.147 1.405 4.528 1.418 6.89.096 5.31.05 10.626-.042 15.937-.086 4.83-.535 9.668-1.7 14.366-.996 4.123-2.043 8.238-3.273 12.296-.703 2.4-1.997 4.574-3.598 6.48-3.588 4.527-7.331 9.06-12.128 12.364-3.752 2.63-7.734 4.91-11.746 7.113-2.925 1.622-6.198 2.405-9.444 3.085-3.215.749-6.446 1.729-9.258 3.502-.486.352-1.103.728-1.045 1.416-.514 5.32-.363 10.672-.51 16.01-.117 8.088-.43 16.173-.562 24.262-.092 5.13.447 10.243 1.005 15.302a221.393 221.393 0 0 1 1.454 24.487c.026 5.147.147 10.296.112 15.443-.028 1.957-.642 3.995-2.14 5.333-1.839 1.683-4.044 2.904-6.21 4.109-2.056 1.148-4.422 1.427-6.724 1.693-1.322.18-2.64.445-3.876.953-1.21.304-2.476.325-3.716.283z" id="path55"/>
    <path d="M317.775 90.002a15.72 15.72 0 0 0-1.412.092c-3.21.202-6.039 2.042-8.238 4.28a19.713 19.713 0 0 0-4.595 6.75c-1.406 3.018-2.098 6.346-2.295 9.67-.477 8.682.398 17.423-.726 26.072-.13.86-.332 2.014-.582 2.971-.797 3.464-2.685 6.568-5.008 9.222-2.275 2.482-5.231 4.44-8.525 5.233-.057-7.445-.103-14.89-.168-22.332-.11-3.772.113-7.595-.661-11.313-.713-2.65-1.574-5.288-2.818-7.743-1.181-2.564-3.508-4.438-6.11-5.443-2.822-1.33-5.997-1.523-9.069-1.416-2.58.14-5.304.097-7.675 1.272-3.42 1.917-5.697 5.323-7.37 8.779-1.489 3.244-2.37 6.733-3.251 10.184-1.238 5.164-2.451 10.366-2.942 15.666-.529 7.931-.283 15.892.073 23.825.533 11.22 1.196 22.418 1.242 33.644-.042 3.126.021 6.196-.381 9.274-.626 4.224-.972 8.483-1.293 12.726-1.385-1.209-2.902-2.308-3.987-3.82-2.094-2.878-3.779-6.046-5.182-9.315-1.589-3.9-2.873-7.967-3.347-12.166-.252-2.027-.273-3.913-.36-5.95-.183-6.234-.106-12.655-.154-18.962-.092-3.689.084-7.434-.724-11.058-.49-2.654-2.335-4.757-4.27-6.515-3.132-3.105-7.176-5.602-11.672-5.856-3.494-.315-7.092 1.225-9.21 4.033-2.301 3.22-3.225 7.16-4.137 10.948-1.354 6.077-2.608 12.183-3.483 18.347-1.154 7.166-.636 14.493.711 21.591 2.027 10.386 5.294 20.571 10.111 30.01 1.43 3.136 3.763 5.734 6.211 8.111 4.837 4.946 10.39 9.194 16.492 12.464 2.518 1.3 5.032 2.59 7.684 3.594 2.367.959 4.969.665 7.424.281-.22 3.785-.193 7.579-.137 11.368.103 5.162.137 10.34.75 15.473.362 2.245.461 4.746 2.058 6.527a14.23 14.23 0 0 0 9.343 3.974c.82.021 1.645.028 2.464-.052 1.185-.044 2.255-.55 3.384-.84 2.707-.6 5.577-.557 8.148-1.716 2.392-1.192 4.742-2.536 6.82-4.228 1.919-1.41 3.01-3.714 3.184-6.057.115-3.96-.004-7.923-.027-11.885-.03-6.672-.13-13.347-.65-20-.5-7.403-1.742-14.68-1.851-22.082.031-7.317.34-14.629.482-21.943.147-5.46.122-10.978.315-16.384.069-1.227.145-2.683.277-3.995 2.266-1.64 4.983-2.517 7.654-3.248 3.441-.847 6.987-1.452 10.204-3.009 4.11-2.159 8.145-4.477 11.998-7.073 4.853-3.126 8.76-7.455 12.335-11.934 1.78-2.151 3.54-4.39 4.522-7.036 1.297-3.82 2.251-7.75 3.242-11.662 1.1-4.098 1.81-8.3 2.062-12.539.292-5.126.244-10.265.265-15.397-.088-3.454.218-7.002-.869-10.338-1.347-3.907-3.974-7.293-7.11-9.937-2.483-2.245-5.86-3.21-9.166-3.137zm.722 2.715c1.615.059 3.231.397 4.477.999 2.917 1.412 6.77 5.776 8.125 9.211.997 2.518 1.118 3.674 1.112 10.47-.017 18.186-.172 19.606-3.462 32.024-2.035 7.694-2.298 8.277-5.468 12.228-6.782 8.45-9.377 10.653-19.36 16.444-5.43 3.15-6.707 3.651-12.366 4.868-5.476 1.175-10.493 3.43-11.401 5.126-.33.619-.58 4.853-.64 10.888a1370.978 1370.978 0 0 1-.479 22.445c-.35 11.672-.285 13.4.894 24.157.913 8.334 1.299 14.696 1.374 22.675l.143 14.881c.048 4.692-.587 5.678-5.588 8.712-2.966 1.798-4.175 2.23-7.207 2.568-2.006.227-4.081.642-4.616.928-1.1.587-4.61.62-6.459.058-2.257-.686-4.414-2.01-5.182-3.18-.464-.712-.944-3.282-1.24-6.673-.596-6.769-.737-23.25-.225-25.867l.378-1.92-1.425.346c-.782.191-2.688.47-4.236.621-2.526.248-3.227.084-6.901-1.611-7.676-3.54-13.475-7.49-19.136-13.03-4.984-4.879-5.466-5.529-8.039-10.848-4.926-10.18-8.852-23.962-9.798-34.403-.678-7.484-.177-12.323 2.805-26.941 1.928-9.457 3.294-13.29 5.476-15.364 3.702-3.518 10.135-2.496 15.351 2.434 4.954 4.686 4.811 3.991 4.847 23.264.034 18.082.246 20.128 2.917 28.143 1.825 5.485 5.9 12.667 8.445 14.887 4.257 3.714 4.99 4.142 6.014 3.5.784-.489.988-1.401 1.24-5.564a129.44 129.44 0 0 1 1.049-9.805c.772-5.003.545-18.385-.703-41.514-.638-11.813-.627-22.963.02-27.695 1.027-7.455 3.889-19.048 5.593-22.652 2.022-4.279 4.668-7.313 7.1-8.144.999-.34 3.813-.631 6.253-.644 3.653-.02 4.954.195 7.377 1.209 3.52 1.477 4.64 2.944 6.551 8.582 1.347 3.974 1.353 4.051 1.452 19.026.055 8.27.111 16.117.126 17.441l.02 2.407 2.1-.24c3.738-.43 8.535-3.189 11.33-6.519 5.671-6.756 6.859-11.867 6.68-28.777-.14-13.183.158-15.37 2.87-21.108 1.34-2.833 4.8-6.295 7.355-7.365 1.23-.514 2.841-.735 4.455-.678zm-1.484 5.399c-1.439 0-1.93.644-1.506 1.976.352 1.108 1.238 1.27 2.119.39 1.05-1.049.707-2.366-.613-2.366zm8.85 7.006c-.513-.006-1.036.461-1.157 1.324-.093.644.13 1.355.493 1.58.977.604 2.064-.705 1.653-1.994-.193-.616-.588-.906-.988-.91zm-17.377.636a2.744 2.744 0 0 0-.617.105c-1.303.34-1.538 1.321-.63 2.622.748 1.066.809 1.075 1.442.208.365-.497.661-1.27.661-1.716 0-.865-.235-1.234-.856-1.217zm8.806 5.251a2.029 2.029 0 0 0-.243.021c-1.07.156-1.588 1.39-1.108 2.644.386 1.005 1.112.882 1.964-.331.87-1.245.541-2.357-.613-2.331zm7.281 6.88a1.112 1.112 0 0 0-.99.515c-.617.971-.529 2.595.18 3.302.493.493.794.399 1.503-.478.487-.602.818-1.553.738-2.115-.107-.747-.787-1.213-1.43-1.223zm-15.755 1.192c-.336.01-.701.256-.987.783-.692 1.295-.216 2.528.894 2.317.51-.097.926-.693 1.014-1.45.121-1.041-.359-1.668-.921-1.65zm-35.2 1.713c-.98 0-1.249.25-1.249 1.152 0 1.892 1.305 2.463 2.461 1.072.875-1.056.24-2.224-1.212-2.224zm-11.37 3.071a2.17 2.17 0 0 0-.672.118c-1.15.365-1.368 1.706-.433 2.644.909.906 2.084.472 2.273-.84.172-1.214-.288-1.922-1.167-1.922zm55.034 3.83c-.852 0-1.987 1.49-1.702 2.232.357.934 1.364.93 2.14-.007.645-.776.36-2.224-.44-2.224zm-8.376 4.486a8.594 8.594 0 0 0-.672.044c-1.876.18-2.419 1.73-1.076 3.074.77.77.883.768 1.752-.017.51-.462.927-1.372.927-2.025 0-.848-.13-1.09-.931-1.078zm-52.318 1.922c-1.236 0-2.025 1.437-1.416 2.576.699 1.303 2.329 1.104 2.69-.329.373-1.49-.055-2.245-1.274-2.245zm15.844 2.967c-.327-.003-.743.096-1.255.293-1.022.39-.996 1.878.049 2.923.776.777.87.772 1.479-.058.357-.49.65-1.402.65-2.027 0-.754-.296-1.125-.923-1.131zm39.128 5.908c-1.452 0-1.651 1.186-.426 2.54 1.037 1.145 1.66.738 1.66-1.092 0-1.217-.197-1.448-1.234-1.448zm11.645.493c-1.242 0-1.693.703-1.28 2.004.458 1.448 1.927.995 2.117-.652.124-1.077-.046-1.352-.835-1.352zm-60.383 3.452c-1.534 0-2.06 1.351-.988 2.535 1.064 1.175 1.498 1.154 2.174-.11.749-1.401.251-2.427-1.186-2.427zm12.287 4.93c-1.512 0-1.951.679-1.267 1.96.671 1.251 1.305 1.266 1.958.043.793-1.482.615-2.004-.693-2.004zm30.014 1.971c-.762 0-1.261 1.246-.888 2.218.407 1.064.925.913 1.544-.445.563-1.236.363-1.773-.656-1.773zm10.875 2.837-1.173.953c-.869.709-1.083 1.231-.829 2.033.386 1.213 1.645 1.448 2.054.382.147-.384.195-1.301.107-2.034zm-21.545.655a3.714 3.714 0 0 0-.476.042c-1.305.186-1.763 1.59-.871 2.669.904 1.09 1.672.58 1.85-1.226.114-1.16.064-1.483-.503-1.485zm-38.135.453c-.831 0-1.205.273-1.205.885 0 1.92 2.17 2.79 2.711 1.091.422-1.334-.07-1.976-1.506-1.976zm-42.19 6.408c-1.076.033-1.666 1.09-1.23 2.23.242.626.456.644 1.287.126.55-.342.997-1.011.997-1.49 0-.543-.374-.866-1.001-.866zm54.775 1.48c-1.714 0-2.283.93-1.486 2.425.63 1.177.735 1.204 2.025.514.546-.294.955-1.028.955-1.725 0-1.024-.235-1.215-1.494-1.215zm-46.841 2.958c-.728 0-.966.337-.966 1.38 0 1.33.909 2.806 1.415 2.3.136-.136.306-1.02.382-1.964.11-1.423-.03-1.718-.83-1.718zm60.905.547a3.005 3.005 0 0 0-.365.034c-1.127.16-1.66 1.372-1.17 2.652.333.864.897.904 1.684.12.326-.326.59-1.119.59-1.76 0-.783-.162-1.054-.739-1.046zm15.273.733a1.87 1.87 0 0 0-.826.25c-1.224.654-1.112 2.198.22 3.132 1.018.713 1.16.707 1.729-.07.34-.463.476-1.3.302-1.856-.306-.986-.785-1.473-1.427-1.456zm-41.654 4.737a.802.802 0 0 0-.552.258c-.63.63-.241 2.103.558 2.103.288 0 .657-.346.819-.77.317-.82-.22-1.605-.825-1.59zm-46.843 3.84c-1.24 0-1.78 1.244-.965 2.224.782.944 1.294.93 1.668-.046.55-1.43.308-2.178-.703-2.178zm56.428.674c-.164.004-.33.105-.468.33-.413.67.07 1.955.734 1.955.28 0 .508-.43.508-.957 0-.791-.384-1.335-.774-1.328zm-9.75 6.76c-.429-.007-.897.206-1.318.716-.48.577-.496 1.04-.072 1.972.655 1.44 1.824 1.584 2.506.313.824-1.543-.017-2.984-1.117-3zm15.382 2.673c-.739.021-1.211.336-1.318.886-.17.887.688 2.318 1.391 2.318.206 0 .64-.32.965-.715.946-1.14.422-2.489-.965-2.489zm-49.767 2.862c-.218 0-.493.105-.874.309-1.159.62-1.375 1.978-.458 2.895.827.825 1.265.739 1.855-.365.615-1.147.627-1.55.071-2.423-.174-.277-.348-.414-.596-.416zm-12.652 6.022c-.518.003-1.106.485-1.106 1.192 0 1.538 1.289 2.09 1.794.77h.003c.156-.407.158-1.07.003-1.47a.71.71 0 0 0-.692-.494zm46.505 2.47a1.538 1.538 0 0 0-.79.241c-.542.336-.554.665-.068 1.731.495 1.087.726 1.211 1.326.714.399-.332.728-.997.728-1.477a1.156 1.156 0 0 0-1.196-1.21zm11.098 6.148c-1.741 0-2.104.782-1.194 2.587.756 1.496 1.156 1.647 2.04.766.325-.325.591-1.213.591-1.973 0-1.196-.193-1.38-1.437-1.38zm-53.329 5c-.279.01-.65.319-1.175.902-.84.923-.84 1.039-.03 2.277.76 1.158.934 1.219 1.595.558.519-.516.64-1.205.405-2.275-.22-1.007-.434-1.479-.797-1.462zm12.963 1.049c-.268-.004-.57.168-.854.552-.503.68-.552 1.185-.18 1.878.644 1.202 1.624.902 1.838-.565.163-1.118-.252-1.857-.804-1.867zm30.647 7.877c-.63.017-1.169.48-1.169 1.242 0 .854.86 2.086 1.46 2.086.152 0 .571-.472.93-1.05.554-.885.54-1.162-.09-1.791a1.549 1.549 0 0 0-1.13-.487zm13.372 2.45a2.78 2.78 0 0 0-.74.141c-1.197.378-1.249 1.104-.168 2.298.94 1.04 2.144.424 2.144-1.1 0-.898-.449-1.364-1.238-1.338zm-36.362 5.882c-1.033.013-1.224 1.332-.246 2.31.483.483.739.432 1.238-.252.346-.474.554-1.09.462-1.372-.093-.283-.65-.585-1.238-.671a1.368 1.368 0 0 0-.218-.013zm-10.24.913c-.537.016-.967.306-.967.656 0 1.511 1.595 1.65 1.884.164.105-.554-.174-.82-.862-.82zm19.069 5.487c-.888 0-1.051.702-.504 2.136.477 1.238 1.91.69 1.91-.729 0-.895-.296-1.269-1.108-1.384a2.18 2.18 0 0 0-.298-.021zm30.64 2.956a1.242 1.242 0 0 0-.215.021c-1.092.216-1.885 1.567-1.505 2.56.41 1.062.984 1.017 2.05-.16.944-1.045.699-2.446-.33-2.423zm-16.997.923c-.902.017-1.144.277-1.144 1.19 0 .655.277 1.292.617 1.414.867.313 1.847-.581 1.847-1.678 0-.66-.353-.926-1.23-.926zm-19.68 5.917c-1.15 0-1.384 1.427-.409 2.501.78.865.944.89 1.322.216.237-.421.29-1.206.12-1.741-.172-.54-.636-.978-1.033-.978zm30.116 3.169c-.814 0-1.72.707-1.72 1.475 0 .608.97 1.762 1.48 1.762.16 0 .561-.264.887-.59.843-.843.73-2.207-.21-2.57a1.217 1.217 0 0 0-.437-.077zm6.63 7.675c-.597 0-.956.34-.956.904 0 1.616.97 2.033 1.956.844.745-.898.26-1.748-.997-1.748zm-16.965 8.282c-.194.003-.426.18-.806.505-.926.794-1.249 2.564-.588 3.227.544.54 1.717.147 2.292-.767.38-.603.346-1.163-.126-2.044-.34-.636-.523-.923-.772-.921zm12.962 2.853a1.517 1.517 0 0 0-.373.053c-.64.168-1.016.671-1.016 1.36 0 1.884 1.148 2.247 2.139.677.65-1.032.2-2.09-.75-2.088zm-5.489 14.031c-.251.01-.59.105-1.036.275-.92.353-1.032 2.21-.189 3.053.751.751.986.743 2.1-.071.63-.462.735-.772.342-1.016-.312-.193-.566-.78-.566-1.307 0-.659-.168-.95-.65-.934z" fill="#fff" id="path57"/>
</svg>
