<svg viewBox="0 0 2351 400" xml:space="preserve" xmlns="http://www.w3.org/2000/svg">
    <path d="M367.5 83.12c-3.138-.113-6.043 1.554-8.21 3.706-2.986 2.952-4.56 6.967-5.835 10.89-2.007 6.465-3.734 13.11-3.916 19.92-.02 6.098.351 12.19.923 18.26a63.27 63.27 0 0 1 .383 4.394c.508 10.61.533 21.27 1.02 31.9.169 2.269.078 4.575.59 6.805.633 3.101 2.124 5.921 3.036 8.937a82.75 82.75 0 0 0 3.802 10.66c.927 2.261 2.162 4.37 3.326 6.51 1.914 3.47 3.618 7.069 5.838 10.36a53.73 53.73 0 0 0 10.64 10.87c2.214 1.824 4.842 3.016 7.406 4.254 5.556-.148 11.11-.268 16.66-.474.093.924.139 1.85.167 2.778.174 9.439.116 18.88.064 28.32-.082 9.965-.099 19.93-.39 29.89.013 2.727-.534 5.407-.928 8.095-.908 5.091-1.254 10.26-1.463 15.42-.468 12.62-.841 25.25-1.334 37.86-.128 4.075-.355 8.106-.425 12.18a25.03 25.03 0 0 0 1.43 9.263c.711 1.768 1.202 3.788 2.73 5.055.98.945 2.644.91 3.609-.04a8.99 8.99 0 0 0 1.547.797c3.159 1.027 6.52 1.16 9.812 1.285 1.696-.006 3.439.085 5.075-.443 3.148-1.232 5.863-3.46 7.905-6.134 2.878-3.73 4.267-8.454 4.327-13.13-.079-7.115-.592-14.21-1.075-21.31-.495-7.599-1.18-15.12-.986-22.73.041-1.527.134-3.171.253-4.588.42-4.71 1.473-9.342 2.868-13.85.852-2.828 2.682-5.625 5.56-6.682 1.535-.433 3.14-.594 4.664-1.08.821-.296 1.789-.469 2.58-.597 2.23-.346 4.486-.46 6.727-.712a47.96 47.96 0 0 0 9.964-2.108c3.193-1.044 6.426-2.063 9.401-3.647a115.7 115.7 0 0 0 5.45-3.685c2.487-1.68 4.073-4.34 5.164-7.076 2.125-5.42 3.679-11.04 5.385-16.6 1.244-4.31 2.704-8.551 3.746-12.92 1.647-7.61 2.517-15.38 2.717-23.16.178-4.139-.355-8.252-.577-12.38-.11-3.431-.145-6.876-.62-10.28-.27-2.394-.913-4.714-1.35-7.077a99.91 99.91 0 0 1-.94-6.709c-.166-2.529-1.089-4.94-2.353-7.117-1.69-2.804-3.346-5.675-5.595-8.08-1.692-1.767-3.796-3.236-6.18-3.869-3.745-.813-7.706.198-10.94 2.146-2.426 1.343-4.087 3.721-5.088 6.257-1.15 2.506-1.083 5.314-1.118 8.01-.041 11.08-.124 22.19.716 33.25.433 5.915.836 11.82.4 17.69-.29 4.246-1.18 8.473-2.95 12.36-1.172 2.47-2.403 5.007-4.408 6.921-2.54 2.296-5.845 3.992-9.34 3.9-2.017-.195-4.035-.393-6.065-.465-.757-.11-1.774.178-2.255-.604-.315-.76-.359-1.613-.507-2.422-.557-4.53-1.026-9.125-1.446-13.64a138.1 138.1 0 0 1-.527-13.59c.165-10.94.551-21.87.803-32.81.182-9.273.474-18.55.196-27.82-.171-4.017-.305-8.095-1.407-11.99-.635-2.453-1.958-4.675-3.666-6.53-1.692-1.763-3.392-3.624-5.605-4.738-2.3-1.197-5.071-.821-7.371.169-2.315 1.048-4.258 2.754-6.047 4.526-2.4 2.53-4.687 5.323-5.834 8.66-1.333 4.502-2.121 9.144-2.8 13.78a140.9 140.9 0 0 0-1.378 14.5c-.206 5.267-.833 10.55-.344 15.82-.516-.1-1.032-.301-1.53-.495-2.017-.852-4.036-1.822-5.724-3.24-2.696-2.623-4.5-5.986-6.255-9.273-3.202-6.42-6.185-12.98-8.29-19.85-.975-3.02-1.34-6.185-1.582-9.337-.612-7.627-.85-15.2-.887-22.85 0-3.46-.037-6.96.132-10.37.06-.95.139-2.014.248-2.888.287-2.358.701-4.776 1.083-7.165.697-4.725 1.597-9.472 1.362-14.27-.198-2.694-.62-5.411-1.605-7.939-.892-2.448-2.804-4.437-5.125-5.582-2.331-1.083-4.836-1.966-7.43-2.034z" fill="#fff"/>
    <path d="M366.6 85.25c-3.022.274-5.551 2.369-7.328 4.699-2.688 3.755-3.899 8.296-5.158 12.67-1.705 6.066-2.881 12.36-2.506 18.69.116 5.687.546 11.36 1.131 17.02.657 11.12.606 22.27 1.124 33.4.195 2.771.062 5.713.977 8.419.86 2.785 2.139 5.425 2.906 8.243a78.627 78.627 0 0 0 4.724 12.2c2.328 4.122 4.398 8.388 6.837 12.45 1.359 2.195 3.077 4.145 4.836 6.024a52.25 52.25 0 0 0 7.725 6.738c1.609 1.033 3.35 1.906 5.094 2.645 5.993-.156 11.99-.295 17.98-.523.639 4.495.417 9.05.506 13.58.043 14.47-.058 28.94-.275 43.41-.087 3.106-.054 6.222-.323 9.318-.631 4.797-1.603 9.553-1.886 14.39-.505 7.715-.625 15.49-.926 23.24-.347 10.77-.797 21.53-1.155 32.3-.07 2.268.038 4.431.603 6.655.521 2.02 1.17 4.04 2.19 5.865.302.467 1 1.28 1.503.59.21-.5.322-1.043.496-1.559 1.369 1.007 2.738 2.162 4.484 2.402 3.395.7 6.889.843 10.35.754 2.278-.07 4.211-1.482 5.937-2.833 3.442-2.838 5.698-7.141 6.34-11.44.57-3.532.147-7.117.07-10.67-.426-9.137-1.26-18.34-1.714-27.51-.348-7.506-.262-15.12 1.525-22.46.664-2.638 1.258-5.323 2.35-7.824 1.421-3.152 4.222-5.93 7.766-6.395 1.596-.25 3.131-.753 4.691-1.14 4.097-.795 8.31-.744 12.4-1.593 3.373-.698 6.591-1.78 9.746-2.914 2.283-.813 4.534-1.78 6.48-3.248 2.208-1.548 4.727-2.894 6.141-5.291 1.908-3.168 2.871-6.78 4.051-10.26 1.98-6.374 3.884-12.77 5.794-19.17 1.035-3.572 1.597-7.256 2.166-10.92.639-4.543 1.06-9.117 1.192-13.7.281-4.225-.221-8.375-.491-12.6-.162-3.8-.144-7.62-.728-11.39-.442-3.061-1.33-6.04-1.693-9.115-.369-2.155-.402-4.366-.916-6.494-.926-3.147-2.883-5.841-4.63-8.572-1.828-2.741-4.272-5.37-7.554-6.258-3.742-.725-7.682.57-10.65 2.865-1.843 1.644-2.942 3.995-3.517 6.36-.47 2.91-.266 5.876-.33 8.812-.03 10.41.003 20.83.853 31.19.518 7.595.96 15.34-.688 22.83-.925 3.976-2.553 7.77-4.71 11.23-1.89 2.979-4.854 5.178-8.12 6.444-2.291.896-4.81 1.07-7.226.672-1.947-.212-3.935-.199-5.86-.4-1.49-.306-2.493-1.727-2.598-3.197-.64-3.807-.918-7.666-1.347-11.5a149.256 149.256 0 0 1-.868-19.65c.335-17.26 1.048-34.52 1.087-51.78-.052-4.903-.08-9.95-.72-14.74-.408-2.643-1.07-5.458-2.767-7.673-1.528-1.953-3.284-3.767-5.307-5.21-1.449-1.046-3.343-1.222-5.029-.724-2.787.728-4.974 2.77-6.963 4.75-2.532 2.676-4.915 5.744-5.64 9.445-1.434 5.607-2.26 11.51-2.926 17.14-.577 5.618-.745 11.36-1.096 17.04-.166 3.302-.072 6.738.44 10.05-2.013-.337-4.055-.68-5.885-1.635-2.442-1.147-4.941-2.451-6.63-4.625-3.438-4.15-5.7-9.1-7.992-13.93-2.591-5.642-4.992-11.41-6.497-17.45-.914-4.385-1.054-8.883-1.348-13.34-.474-9.007-.617-18.04-.338-27.05.304-5.083 1.408-10.05 2.064-15.08.64-4.342 1.052-8.809.102-13.14-.506-2.567-1.395-5.327-3.66-6.882-1.844-1.319-4.067-2.011-6.26-2.496a9.996 9.996 0 0 0-2.402-.145z"/>
    <circle cx="364.2" cy="97.74" r=".799" fill="#fff"/>
    <circle cx="360.9" cy="108.8" r=".678" fill="#fff"/>
    <circle cx="361.6" cy="122.9" r=".858" fill="#fff"/>
    <circle cx="357.6" cy="139.6" r="1.12" fill="#fff"/>
    <circle cx="362.6" cy="154.4" r="1.057" fill="#fff"/>
    <circle cx="356.8" cy="170.5" r=".986" fill="#fff"/>
    <circle cx="360.2" cy="183.3" r=".989" fill="#fff"/>
    <circle cx="366.7" cy="190.8" r="1.107" fill="#fff"/>
    <circle cx="387.3" cy="221" r="1.292" fill="#fff"/>
    <circle cx="372.3" cy="94.71" r=".721" fill="#fff"/>
    <circle cx="373.9" cy="108.6" r=".609" fill="#fff"/>
    <circle cx="372.6" cy="122.4" r=".798" fill="#fff"/>
    <circle cx="372.5" cy="139.2" r="1.151" fill="#fff"/>
    <circle cx="374.1" cy="151.6" r="1.145" fill="#fff"/>
    <circle cx="370.7" cy="172.7" r=".866" fill="#fff"/>
    <circle cx="375.9" cy="187.3" r=".789" fill="#fff"/>
    <circle cx="371.6" cy="199.7" r=".891" fill="#fff"/>
    <circle cx="380.9" cy="210.3" r="1.145" fill="#fff"/>
    <circle cx="382.3" cy="186.9" r=".815" fill="#fff"/>
    <circle cx="387.9" cy="200.5" r=".93" fill="#fff"/>
    <circle cx="392" cy="212.5" r="1.182" fill="#fff"/>
    <circle cx="414.2" cy="161.1" r="1.173" fill="#fff"/>
    <circle cx="411.7" cy="183.1" r=".997" fill="#fff"/>
    <circle cx="403.4" cy="209.4" r="1.178" fill="#fff"/>
    <circle cx="421.2" cy="155.2" r="1.328" fill="#fff"/>
    <circle cx="416.5" cy="169.8" r="1.084" fill="#fff"/>
    <circle cx="421.1" cy="186.7" r=".862" fill="#fff"/>
    <circle cx="418.3" cy="199.3" r=".941" fill="#fff"/>
    <circle cx="412.8" cy="214.5" r="1.11" fill="#fff"/>
    <circle cx="422.9" cy="224" r="1.137" fill="#fff"/>
    <circle cx="415.2" cy="245.8" r="1.206" fill="#fff"/>
    <circle cx="425.3" cy="256.8" r=".946" fill="#fff"/>
    <circle cx="419.6" cy="273.5" r="1.042" fill="#fff"/>
    <circle cx="411.1" cy="282.8" r="1.238" fill="#fff"/>
    <circle cx="414.1" cy="300.3" r="1.308" fill="#fff"/>
    <circle cx="411.3" cy="313.7" r="1.305" fill="#fff"/>
    <circle cx="410.9" cy="329.7" r="1.296" fill="#fff"/>
    <circle cx="405.2" cy="343.9" r="1.362" fill="#fff"/>
    <circle cx="405.9" cy="355.8" r="1.418" fill="#fff"/>
    <circle cx="410.6" cy="371.2" r="1.441" fill="#fff"/>
    <circle cx="427.4" cy="154.8" r="1.404" fill="#fff"/>
    <circle cx="427" cy="166.7" r="1.096" fill="#fff"/>
    <circle cx="431.5" cy="186.4" r=".866" fill="#fff"/>
    <circle cx="428.9" cy="204.4" r=".901" fill="#fff"/>
    <circle cx="430.2" cy="248.9" r=".916" fill="#fff"/>
    <circle cx="433.4" cy="274.9" r="1.042" fill="#fff"/>
    <circle cx="428.3" cy="284.5" r="1.315" fill="#fff"/>
    <circle cx="424" cy="299.1" r="1.389" fill="#fff"/>
    <circle cx="421.8" cy="319.6" r="1.346" fill="#fff"/>
    <circle cx="424.2" cy="331.7" r="1.3" fill="#fff"/>
    <circle cx="419.4" cy="341.1" r="1.333" fill="#fff"/>
    <circle cx="421.8" cy="356" r="1.389" fill="#fff"/>
    <circle cx="423.7" cy="365.6" r="1.457" fill="#fff"/>
    <circle cx="441.3" cy="263.4" r=".904" fill="#fff"/>
    <circle cx="447.9" cy="275.6" r=".983" fill="#fff"/>
    <circle cx="466.8" cy="265.7" r="1.229" fill="#fff"/>
    <circle cx="470.4" cy="182.9" r="1.319" fill="#fff"/>
    <circle cx="473" cy="222.2" r="1.104" fill="#fff"/>
    <circle cx="467.4" cy="250.4" r="1.086" fill="#fff"/>
    <circle cx="457.7" cy="260.6" r=".956" fill="#fff"/>
    <circle cx="459.6" cy="277.6" r="1.044" fill="#fff"/>
    <circle cx="427.4" cy="236.4" r="1.241" fill="#fff"/>
    <circle cx="478.4" cy="173.1" r="1.439" fill="#fff"/>
    <circle cx="480.3" cy="181.4" r="1.425" fill="#fff"/>
    <circle cx="478" cy="195.2" r="1.263" fill="#fff"/>
    <circle cx="474.2" cy="207.2" r="1.184" fill="#fff"/>
    <circle cx="480.3" cy="227.7" r="1.183" fill="#fff"/>
    <circle cx="476.2" cy="246.8" r="1.265" fill="#fff"/>
    <circle cx="478.8" cy="260.3" r="1.306" fill="#fff"/>
    <circle cx="474.5" cy="273.6" r="1.271" fill="#fff"/>
    <circle cx="486.1" cy="193.2" r="1.291" fill="#fff"/>
    <circle cx="487.1" cy="218.4" r="1.232" fill="#fff"/>
    <circle cx="483.6" cy="236.2" r="1.413" fill="#fff"/>
    <circle cx="486.4" cy="209.6" r="1.539" fill="#fff"/>
</svg>
