<svg viewBox="0 0 210 105.83" xmlns="http://www.w3.org/2000/svg">
    <g>
        <path d="M39.038 45.13c-6.58-3.079-11.143 6.59-10.966 11.795-.873 5.887-5.678-.253-8.323 4.958-4.869 5.14-.765 14.175 5.765 15.115 3.539-2.009 6.318-2.392 7.477 2.481 5.7-.952 10.487 4.785 16.337 4.77 4.072-6.624 12.338-2.521 17.866-5.13 6.562-5.138 4.24-18.521-4.98-18.431-4.904-.14.617-9.95-6.752-9.701-3.849 1.65-6.018 5.332-7.63-.693-1.375-5.243-10.817-4.804-9.175-5.33zM179.39 2.853c-5.202-1.624-7.331 6.382-11.732 1.488-6.635-1.395-10.365 6.111-10.236 9.447-4.982-1.61-6.226 5.246-6.743 6.302-11.652-1.957-9.509 17.786 1.498 13.1 4.75-1.375 7.245 8.445 13.896 6.88 6.437.724 10.904-4.626 17.215-1.32 7.431 1.111 6.43-10.68 13.642-6.75 9.245-1.824 1.94-12.073-1.447-11.993 1.895-6.587-8.23-3.932-5.792-10.26-1.248-3.962-6.532-6.927-10.3-6.894z"/>
    </g>
</svg>
