<svg width="71.623" height="39.68" xmlns="http://www.w3.org/2000/svg">
    <path d="M4.45 39.49c-.951-.084-1.887-.237-2.08-.338a.451.451 0 0 0-.59.128c-.191.251-.35.2-.79-.253-.527-.542-.548-.782-.47-5.35.045-2.632-.084-6.972-.285-9.647-.316-4.18-.314-5.553.012-9.79.208-2.711.379-6.544.379-8.517 0-2.998.066-3.605.397-3.684 2.327-.55 3.954-.605 17.33-.57 8.054.021 17.683-.294 20.373-.665.873-.12 4.207-.232 7.408-.245 3.236-.014 6.35-.137 7.012-.275 1.387-.293 16.664-.4 17.82-.125.702.166.742.237.575 1.004-.563 2.58-.594 5.278-.242 20.784.313 13.808.296 15.238-.18 15.5-.208.113-2.82.195-5.803.181-3.181-.015-5.861.077-6.482.222-1.41.33-6.05.702-12.04.967a641.31 551.88 0 0 0-6.746.323c-2.121.122-30.21.587-32.411.536-.8-.018-2.234-.101-3.187-.186z"/>
    <path d="M23.778 37.522c16.491-.622 19.894-.777 20.176-.924.156-.081 2.279-.177 4.718-.213 2.438-.035 5.723-.223 7.298-.416a72.578 72.578 0 0 1 5.644-.429 183.25 183.25 0 0 0 5.424-.245l2.645-.168-.06-15.255c-.032-8.39-.062-15.827-.065-16.525l-.007-1.269-7.74.082c-4.256.047-7.917.137-8.135.202-.219.065-3.672.23-7.673.367-4.001.137-7.753.353-8.335.48-.65.143-6.612.255-15.478.293-9.11.038-15.394.16-17.065.327-1.455.147-2.684.3-2.732.34-.047.04.042 1.9.198 4.134.354 5.05.36 11.348.015 18.436-.383 7.892-.467 10.868-.31 11 .274.23 13.044.101 21.482-.217z" fill="#fff"/>
    <path d="m8.762 35.034-4.035-.059V7.165h3.139c1.726 0 3.78-.1 4.564-.22.784-.121 4.283-.317 7.775-.435 3.493-.118 7.839-.302 9.658-.41 7.922-.465 14.118-.687 21.034-.754 4.074-.038 9.432-.132 11.906-.208L67.3 5l.024 13.747.023 13.747-3.197-.106c-2.056-.067-4.094.002-5.711.193a203.45 163.31 0 0 1-3.442.39c-.51.05-1.7.19-2.645.312-1.786.227-4.822.566-6.88.766-.654.064-3.93.2-7.276.301-3.347.102-9.657.334-14.023.517-4.365.182-8.711.308-9.657.279a475.89 475.89 0 0 0-5.755-.111z"/>
    <path d="M43.116 28.793c-.431-1.505-.476-1.43.733-1.23.621.103 1.705.441 2.408.753 1.513.67 2.513.724 2.733.15.218-.566-.128-.835-1.308-1.017-.672-.12-1.33-.307-1.965-.558-.74-.309-.892-.476-.653-.714.455-.455.384-1.709-.107-1.897-.755-.29-1.552-.168-2.442.375-.8.488-.862.617-.721 1.52.309 1.978.895 3.556 1.241 3.342.135-.083.171-.409.08-.724zm-5.201-3.387c1.895-.459 1.995-.801.18-.613-1.973.204-2.322.311-2.115.647.21.338.414.334 1.935-.034zm-2.87-12.33c.065.488 1.639 2.192 2.024 2.192.445 0 .658-.857.657-2.646 0-1.528-.279-2.297-.731-2.018-.162.1-.212.826-.126 1.82.16 1.855.039 1.84-1.138-.149-.447-.755-1.03-1.415-1.297-1.466-.45-.087-.472.064-.303 2.091.226 2.705.511 3.226.716 1.31.085-.8.174-1.31.198-1.134zm-2.822-.809c-.048-1.114-.183-2.026-.3-2.026-.249 0-.497 3.277-.318 4.21.102.536.168.574.413.24.173-.236.257-1.224.205-2.424zm13.396 2.154c.372-.372.428-.84.075-.622-.312.193-1.67-.321-1.93-.73-.576-.905.17-2.442 1.026-2.114.29.112.386.045.302-.21-.184-.558-1.247-.61-1.823-.088-.774.7-.695 2.595.142 3.432.697.697 1.693.847 2.208.332zm4.286-.201c0-.151-.417-.275-.926-.275-.747 0-.926-.102-.926-.524 0-.339.234-.583.661-.69.954-.24.833-.739-.132-.546-.705.141-.794.088-.794-.475 0-.489.182-.673.794-.808.97-.213 1.048-.661.115-.661-1.282 0-1.738.447-1.567 1.535.085.538.208 1.335.274 1.772.11.732.212.8 1.31.87.697.045 1.191-.037 1.191-.198zm2.991-1.702c.268-.073.558-.27.793-.106.141.098.217.472.382.674l.239.7.355.027-.001-.662c-.002-.747-1.182-3.441-1.506-3.435-.852.016-1.37 1.613-1.158 3.568.018.998.491.961.575.666.065-.73-.118-1.312.321-1.432zm-15.021 7.624c.16-.745.358-1.625.441-1.955.086-.342.03-.6-.13-.6-.155 0-.358.405-.45.901l-.17.901-.938-.636c-1.628-1.105-2.004-.636-.443.554.875.668.942.817.857 1.892-.076.96-.036 1.09.225.733.174-.24.448-1.044.608-1.79zm-3.946 1.669c.585-.313.708-1.69.181-2.028-.182-.116-.33-.569-.33-1.005 0-.751-.056-.792-1.023-.761-.562.018-1.104.166-1.205.33-.101.163-.068 1.07.073 2.017.249 1.664.283 1.72 1.025 1.72.422 0 .998-.122 1.28-.273zm27.516-9.718c.494 0 .728.199.935.794.152.436.384.793.516.793.375 0 .279-1.772-.152-2.803-.349-.834-.485-.926-1.256-.852-.825.08-.875.149-1.087 1.488-.122.772-.129 1.605-.014 1.852.159.342.23.245.304-.412.08-.714.207-.86.754-.86zm-3.143-.127c-.75-.649-.89-.909-.685-1.275.562-1.004-.607-2.12-1.759-1.677-.502.192-.502 2.04 0 3.344.313.813.49.9.592.632.024-.061-.217-.37-.215-.456l.02-.749.145-.288.36-.101.248-.027.636 1.22c1.662.961 2.058.587.658-.623zm4.38-3.748c.278-.307.456-.607.396-.667-.173-.173-2.17 1.265-2.3 1.656-.16.486 1.216-.229 1.904-.989zm-54.93 6.14c.26-2.309.401-2.996.613-2.996.116 0 .534.744.93 1.654l.72 1.654.49-.597c.27-.327.572-1.072.67-1.653.098-.582.268-1.058.378-1.058.11 0 .347.863.53 1.918.386 2.242.69 3.11 1.087 3.11.314 0 .081-2.39-.413-4.234a55.088 55.088 0 0 1-.247-1.146c-.384-1.842-1.457-1.55-1.983.54l-.31 1.232-.772-1.352c-.907-1.588-1.144-1.78-1.567-1.271-.268.323-.792 4.195-.789 5.833.002.995.507-.25.663-1.634zm7.792 1.024c.006-1.047.351-1.427 1.206-1.329.618.072.788.249.935.972.099.487.311 1.017.472 1.178.691.69.145-2.938-.82-5.45-.47-1.22-1.295-.862-1.712.742-.522 2.01-.769 5.022-.392 4.788.169-.104.309-.51.311-.901zm7.297.63c.297-.208.756-.859 1.021-1.447.426-.943.443-1.214.144-2.279-.467-1.67-1.32-2.292-3.006-2.192-.758.045-1.363.218-1.426.409-.062.188.112.33.405.33.434 0 .54.252.683 1.627.267 2.554.233 2.792-.425 2.977-.583.164-.585.176-.082.56.651.498 1.986.505 2.686.015zm33.764 13.823c.153-.286.814-.888 1.469-1.338 1.497-1.03 2.086-1.901 1.87-2.763-.242-.962-1.037-1.301-2.173-.926-.412.136-.954.783-.954.783s-.26-.734-.443-.9c-.707-.64-2.497-.472-2.778.26-.187.489.448 2.237 1.447 3.983.58 1.014 1.153 1.365 1.153 1.365s.263-.192.409-.464zm-28.1-14.777c0-.286-.192-.374-1.39-.636-.553-.122-.727-.315-.727-.813 0-.46.137-.642.463-.614.255.021.701.018.993-.008.442-.038.463-.088.132-.302-.218-.141-.665-.258-.992-.26-.485-.004-.596-.153-.596-.798 0-.728.076-.794.91-.794.501 0 .983-.116 1.07-.257.192-.31-1.027-.654-1.574-.445-.214.083-.46.034-.548-.108-.4-.646-.651.23-.651 2.266 0 1.992.06 2.26.588 2.63.658.461 2.322.56 2.322.139z" fill="#fff"/>
    <path d="M38.883 29.848c.44-.322.337-.393-1.072-.728-2.1-.499-2.282-1.166-.388-1.427 1.997-.274 2.059-.778.073-.598-1.796.163-1.91.068-1.91-1.586 0-.522-.08-.87-.177-.772-.124.124-.393.164-.372.847.034 1.132.462 3.123.714 3.511.338.522.948.586 1.539.725.582.137 1.145.355 1.593.028zm-9.887-.834c-.04-1.125.04-1.72.233-1.72.338 0 1.158.792 2.163 2.09 1.025 1.324 1.445.993 1.606-1.268.148-2.061.007-3.275-.354-3.052-.129.08-.234.971-.234 1.981s-.075 1.837-.167 1.837c-.091 0-.674-.546-1.296-1.213-.835-.897-1.29-1.19-1.751-1.124-.343.048-.593.177-.557.286.037.11-.109 1.111-.109 2.227 0 .539-.124 1.341-.052 1.676.078.357.354.227.404.176.097-.097.148-.95.114-1.896zm-3.399 1.934c1.05-.743 1.019-2.1-.066-2.902-.471-.348-.794-.828-.794-1.18 0-.989-.74-1.5-1.938-1.34-1.069.143-2.596 1.239-1.727 1.239.294 0 .469.339.58 1.124.087.619.234 1.449.328 1.845.142.601.056.772-.52 1.035-.961.437-.864.708.3.836 1.53.168 3.036-.09 3.837-.657zm-10.535-.677c.151-.484.379-.595 1.223-.595.483 0 .838.009 1.035.147.185.13.22.375.389.779.1.239.137.68.244.844.12.187.308.082.376.082.316 0-.051-2.572-.606-4.24-.367-1.107-.545-1.332-1-1.265-.43.063-.775.643-1.545 2.594-.48 1.217-.759 2.195-.966 2.686-.18.427.206.687.548.192.199-.287.2-.897.302-1.224z" fill="#fff"/>
    <path d="M42.323 26.207c-.227-.715.09-1.012 1.289-1.206 1.413-.23 1.255.547-.27 1.328-.812.416-.85.411-1.019-.122zm13.554-15.879c-.212-.552.374-.949.835-.566.258.214.269.374.043.646-.4.481-.672.456-.878-.08zM32.1 19.157c.057-.402.265-.644.554-.644.689 0 .677.41-.025.876-.597.397-.616.388-.529-.232zm20.451-7.578c0-.244.32-.787.474-.799.126-.01.373.475.443.658.092.241-.292.39-.528.39-.214 0-.389-.112-.389-.249zm8.517-.3c.052-.156.223-.552.361-.552s.455.404.507.56-.225.307-.468.307c-.242 0-.452-.159-.4-.315zm-28.745 9.388c0-.242.218-.319.661-.234.364.07.662.232.662.36 0 .129-.298.234-.662.234-.381 0-.661-.152-.661-.36zm-16.582 8.201c0-.153.19-.646.424-1.097.327-.632.477-.735.657-.45.129.203.236.697.238 1.097.001.23.115.474.065.585-.082.178-.385.143-.723.143-.363 0-.661-.125-.661-.278zm.484-16.381c.233-1.287.304-1.342.63-.482.407 1.069.333 1.474-.268 1.474-.481 0-.521-.11-.362-.992zm6.299 17.336c0-.31-.15-.538-.078-.677.103-.203.52-.256 1.26-.395.725-.136 1.06-.067 1.42.292.45.45.444.49-.121.948-.344.278-1.022.478-1.62.478-.682 0-.766.167-.843-.09-.026-.089-.018-.41-.018-.556zm-.433-2.76c0-.382-.145-.407-.028-.519.109-.103.465-.308.789-.308 1.55 0 1.618 1.178.086 1.484-.507.102-.589.243-.67.053-.05-.113-.177-.416-.177-.71zm-.605-12.856c.004-.618-.084-1.63-.195-2.249-.18-1.006-.147-1.124.312-1.124 1.358 0 2.211 3.077 1.126 4.06-.854.772-1.25.553-1.243-.687z"/>
</svg>
