<svg xml:space="preserve" xmlns="http://www.w3.org/2000/svg" viewBox="0 0 194.945 176.736">
    <path d="M75.378 174.733c-5.183-.11-10.445-.176-15.493-1.473-4.894-1.51-9.698-3.427-14.136-5.996-3.848-2.411-6.417-6.272-9.275-9.699-8.536-10.869-16.32-22.345-23.107-34.388-3.024-5.36-5.66-10.953-7.496-16.835-1.654-5.325-3.4-10.705-3.85-16.294-.204-1.392.357-3.12 1.903-3.403 1.762-.126 3.059 1.329 4.476 2.154a150.784 150.784 0 0 1 15.202 12.04c5.242 4.508 11.134 8.163 16.52 12.487.606.412-.378-.705-.387-1.055-2.31-6.234-3.813-12.726-5.701-19.093-.581-2.103-1.437-4.3-1.766-6.534-1.369-6.716-2.436-13.492-3.099-20.315-.739-7.515-1.513-15.043-1.64-22.598-.014-1.124.065-2.428.829-3.269.774-.347 1.638-.603 2.41-.11 2.097 1.347 3.682 3.348 5.408 5.12 3.53 3.906 6.768 8.053 10.32 11.944 4.956 5.597 9.26 11.736 13.394 17.953a49.563 49.563 0 0 1 3.627 6.403c.45.765.985 1.64 1.444 2.302-.493-10.596-.224-21.211.035-31.811.22-9.113.806-18.23 2.24-27.24 1.036-6.656 1.88-13.35 3.282-19.942.262-1.35.943-2.989 2.53-3.062 1.638.02 2.394 1.774 3.076 3.027 1.72 3.58 3.304 7.231 4.81 10.906 2.288 6.277 4.049 12.73 6.533 18.938 1.826 5.517 3.101 11.2 4.713 16.708.776 2.623 1.762 5.176 2.398 7.842 1.14 4.187 2.099 8.42 3.24 12.606 1.261-7.764 2.076-15.606 3.703-23.306 1.563-4.543 1.993-9.385 3.55-13.934 2.009-6.805 5.422-13.061 8.58-19.378 2.182-4.161 4.245-8.404 6.773-12.37.533-.664 1.345-1.335 2.232-.958 1.878.4 2.341 2.574 2.724 4.18 1.346 6.789 1.724 13.724 2.202 20.616.775 12.268.905 24.562 1.166 36.849.215 7.117.374 14.2 1.11 21.304-.058 1.268.304.328.638-.383 3.43-6.916 6.922-13.811 10.821-20.476 4.785-7.892 9.99-15.56 15.92-22.641 3.657-4.105 7.568-7.978 11.328-11.988-.572 7.77-.98 15.565-2.263 23.26-.776 4.916-1.225 9.749-1.614 14.753-.476 7.492-1.13 15.154-2.217 22.654-.198 1.482-.348 2.97-.51 4.456 4.947-6.023 10.59-11.433 16.296-16.726 4.59-4.313 9.685-8.025 14.644-11.892-.078 3.86.175 7.736-.167 11.585-.13 1.023-.312 2.153-1.13 2.866-.594 2.524-.784 5.13-1.288 7.676-1.364 7.88-2.707 15.768-4.389 23.587-2.316 6.979-3.689 14.268-6.55 21.062-2.238 5.083-6.127 9.263-10.39 12.736-6.626 5.173-14.42 8.518-22.04 11.934-3.494 1.445-7.357 1.486-10.903 2.764-2.642.88-5.373 1.658-7.802 3.035-1.958 1.4-4.258 2.25-6.415 3.3-2.147.936-4.277 1.98-6.561 2.515-2.479 1.193-4.985 2.393-7.704 2.934-5.626 1.186-11.376 1.655-17.096 2.148-5.02.368-10.054.56-15.088.525z"/>
    <path d="M73.043.013c-1.974.01-3.701 1.688-4.197 3.579-1.4 5.78-2.14 11.705-3.05 17.574-1.301 7.95-2.196 15.968-2.55 24.02-.395 10.296-.63 20.605-.525 30.91-4.262-6.621-8.782-13.103-13.926-19.075-3.23-3.607-6.272-7.281-9.445-10.98-2.23-2.433-4.324-5.053-6.998-7.02-1.386-1.232-3.429-1.124-4.997-.314-1.185.832-1.689 2.427-1.79 3.846-.063 5.631.439 11.256.927 16.863.735 8.354 1.66 16.705 3.285 24.94.384 1.766.576 3.29 1.04 5.03 1.892 6.101 3.453 12.299 5.302 18.413-3.41-2.476-6.864-4.887-10.133-7.567-4.889-4.302-9.886-8.5-15.236-12.224-1.939-1.191-3.657-3.006-6.002-3.332-2.558-.44-4.746 2-4.748 4.447.136 4.818 1.462 9.516 2.82 14.113 1.695 5.94 3.916 11.73 6.793 17.201 6.997 13.093 15.289 25.474 24.383 37.198 3.061 3.718 5.803 7.835 9.754 10.693 3.837 2.49 8.097 4.271 12.395 5.803 6.11 2.385 12.764 2.463 19.23 2.601 7.628.048 15.247-.416 22.828-1.234 4.235-.514 8.529-.957 12.606-2.268 2.35-.723 4.43-2.122 6.822-2.709 3.456-1.296 6.816-2.856 10.103-4.531 2.317-1.613 4.993-2.554 7.664-3.398 3.73-1.47 7.804-1.621 11.573-2.946 6.378-2.767 12.783-5.58 18.681-9.293 6.09-3.846 11.614-8.95 14.942-15.416 3.34-7.09 4.704-14.884 7.154-22.289 1.474-6.403 2.559-12.895 3.715-19.363.72-3.876 1.293-7.776 1.95-11.662 1.032-1.44 1.351-3.258 1.4-5.01.227-4.88-.016-9.767.132-14.65-4.826 3.768-9.751 7.413-14.455 11.336-5.49 4.804-10.778 9.849-15.758 15.181.148-1.04.263-2.085.395-3.129 1.305-10.138 1.43-20.392 2.894-30.513 1.733-10.146 2.152-20.445 2.934-30.692-3.655 3.858-7.33 7.695-11.004 11.534-5.768 5.84-10.602 12.513-15.168 19.312-4.943 7.308-9.18 15.06-13.148 22.932-.492 1.314-.303-.67-.408-1.2-.744-14.837-.594-29.769-1.356-44.65-.505-8.48-.862-17.006-2.377-25.38-.434-2.412-1.16-5.33-3.69-6.329-1.623-.806-3.623-.219-4.718 1.184-2.197 3.14-3.882 6.62-5.678 10.002-3.572 7.074-7.473 14.049-9.924 21.617-1.687 4.738-2.23 9.778-3.736 14.566-1.127 4.659-1.754 9.433-2.453 14.174-.55-1.993-.994-4.016-1.635-5.982-2.401-6.94-3.869-14.152-6.125-21.135-1.723-4.524-3.252-9.111-4.732-13.713-1.653-5.394-3.919-10.569-6.301-15.674C77.504 3.31 76.424.67 73.9.115a3.52 3.52 0 0 0-.857-.102zm.059 4.045c.28 0 1.402 2.045 2.492 4.545s2.415 5.527 2.945 6.727c.53 1.2 2 5.455 3.268 9.455 1.267 4 2.756 8.275 3.306 9.5.55 1.225 2.008 6.135 3.24 10.91 1.233 4.775 2.55 9.335 2.924 10.135.376.8 1.882 6.365 3.348 12.365s3.02 11.137 3.453 11.416c.536.345 1.438-4.2 2.818-14.181 1.117-8.08 2.334-15.345 2.702-16.145.368-.8 1.196-4.188 1.841-7.53.646-3.34 2.395-8.904 3.89-12.363 2.861-6.627 12.322-24.834 12.903-24.834 2 0 3.936 22.606 4.33 50.604.164 11.632.633 24.111 1.043 27.732.502 4.426.508 7.843.018 10.424-.4 2.112-.563 4.003-.361 4.205.202.202.367-.08.367-.629 0-1.594 6.114-14.29 12.945-26.882 5.135-9.465 14.607-23.045 20.035-28.727l5.559-5.818-.424 5.818c-.233 3.2-.914 8.763-1.514 12.363-.6 3.6-1.367 11.129-1.705 16.729-.337 5.6-1.148 13.873-1.8 18.387-.653 4.513-1.085 9.085-.96 10.16.216 1.844.436 1.69 3.967-2.752 4.452-5.6 16.295-17.124 22.637-22.026l4.533-3.504v4.413c0 2.426-.284 4.412-.632 4.412-.348 0-.806 1.391-1.018 3.091-.62 4.974-4.882 28.444-5.38 29.637-.252.6-1.356 4.363-2.454 8.363-3.113 11.344-4.428 14.315-8.334 18.827-5.368 6.2-11.663 10.126-26.91 16.78-1.2.525-3.817 1.182-5.817 1.462-3.427.48-12.663 3.703-13.455 4.697-.48.603-10.471 5.143-11.332 5.148-.368 0-1.494.435-2.504.961-3.826 1.997-7.117 2.726-17.035 3.772-14.06 1.482-29.23 1.358-35.33-.29-2.61-.704-7.258-2.489-10.33-3.966-5.192-2.497-6.021-3.233-11.828-10.492-11.09-13.862-23.106-32.645-27.959-43.703-2.618-5.965-5.795-16.662-6.385-21.492-.36-2.95-.258-3.46.588-2.946 3.776 2.292 11.877 8.445 15.453 11.739 2.336 2.15 6.589 5.543 9.453 7.54 2.865 1.998 6.625 4.772 8.356 6.163 1.73 1.39 3.45 2.527 3.818 2.527.886 0 .867-3.878-.023-4.768-.382-.382-2.04-5.586-3.686-11.566-1.645-5.98-3.126-11.092-3.293-11.361-.166-.27-1.13-5.195-2.142-10.944-1.668-9.474-3.83-35.23-3.026-36.035.348-.347 5.403 4.89 8.9 9.219 1.132 1.4 4.39 5.165 7.243 8.365 4.742 5.321 14.3 18.991 15.39 22.014.51 1.41 6.171 9.747 6.418 9.449.088-.105-.16-2.646-.548-5.646-.41-3.164-.528-14.16-.278-26.182.348-16.687.789-23.136 2.256-33.09 2.557-17.344 3.435-22.182 4.024-22.182zm7.941 56.176a.428.428 0 0 0-.207.025c-2.127.703-1.021 16.918 1.412 20.707 1.253 1.95 2.896 2.24 2.063.364-.311-.7-.793-4.709-1.07-8.909-.57-8.593-1.19-12.091-2.198-12.187zm34.156 2.613c-1.197.2-2.082 13.467-.947 16.424.935 2.436 1.74.97 1.74-3.17 0-2.376.329-4.524.729-4.771 1.287-.796.495-5.97-1.278-8.342-.082-.11-.164-.154-.244-.14zm36.77 16.848c-1.495 0-5.378 5.135-6.324 8.363-.47 1.6-1.1 3.083-1.4 3.295-1.384.976-.777 7.256.7 7.248.277 0 1.894-2.955 3.594-6.564 3.602-7.645 4.907-12.342 3.43-12.342zm-102.99 1.453c-.305 0-1.413.392-2.461.87-1.694.771-1.853 1.155-1.428 3.421.263 1.404 1.065 3.713 1.783 5.131.718 1.419 1.544 3.725 1.834 5.125.705 3.405 3.958 11.604 5.4 13.613 1.854 2.583 2.976 2.044 2.979-1.431.004-4.767-6.657-26.729-8.107-26.729zm41.517 8.479a2.886 2.886 0 0 0-1.922.861c-.987.988-1.084 2.516-.676 10.592.263 5.19.691 11.254.952 13.478l.472 4.045-2.482-1.998c-4.794-3.855-14.99-10.509-17.38-11.341-1.326-.463-3.382-.842-4.567-.842h-2.157l.514 3.455c.282 1.9 1.256 5.09 2.164 7.09.908 2 1.9 4.455 2.205 5.455.305 1 2.324 5.706 4.488 10.459 2.165 4.752 3.843 8.727 3.729 8.832-.114.104-4.26-1.787-9.213-4.201-7.558-3.684-9.664-4.402-13.092-4.467l-4.084-.078.094 2.855c.052 1.57.544 3.207 1.092 3.637.548.43 2.261 2.744 3.808 5.144 2.958 4.59 17.27 19.183 21.118 21.534 2.105 1.286 2.312 1.295 3.162.146.5-.676.908-1.81.908-2.52 0-.709-.737-1.676-1.637-2.148-3.293-1.727-7.388-5.41-11.918-10.719-4.164-4.88-7.578-10.046-6.232-9.43.283.13 5.075 2.486 10.648 5.237l10.133 5.002 1.322-1.63c.727-.898 1.32-2.54 1.32-3.647 0-2.508-2.932-10.397-5.746-15.461-1.166-2.1-3.009-6.108-4.095-8.908-1.087-2.8-2.264-5.404-2.614-5.784-.35-.38-.636-1.126-.636-1.66 0-1.053 1.896-.328 3.761 1.44.532.503 2.275 1.782 3.875 2.843s5.618 4.415 8.928 7.453c7.083 6.501 8.435 6.921 7.848 2.434-.223-1.7-.58-5.824-.797-9.164-.216-3.34-.7-9.232-1.076-13.092-.376-3.86-.676-7.507-.668-8.107.021-1.702 6.102 5.506 8.182 9.699 1.024 2.065 3.188 6.62 4.808 10.12 1.62 3.5 3.217 6.362 3.55 6.362.335 0 1.317-.753 2.183-1.673 1.817-1.935 3.04-7.5 3.052-13.881l.008-4.446 2.52 4.528c1.39 2.498 3.354 7.821 4.383 11.879 2.272 8.965 5.545 15.257 7.65 14.707.81-.212 4.121-4.418 7.668-9.742 3.433-5.154 6.542-9.372 6.91-9.372.886 0 .85 2.881-.18 13.91-.694 7.45-.674 9.619.102 11.493.776 1.874 1.313 2.268 2.852 2.09 1.836-.214 1.924-.449 2.744-7.493.465-4 .874-12.084.908-17.966l.062-10.696-2.539-.476c-3.264-.613-4.33-.167-5.636 2.357-.585 1.13-2.913 4.968-5.172 8.53-2.26 3.56-4.119 6.832-4.133 7.27-.014.44-.812 1.76-1.772 2.935l-1.744 2.132-.33-1.77c-2.03-10.87-3.673-15.723-8.39-24.794-2.766-5.319-5.507-9.972-6.09-10.34-1.664-1.05-4.694.063-5.186 1.902-.242.905-.653 4.154-.914 7.221l-.474 5.576-3.446-5.213c-4.998-7.563-9.923-11.838-13.125-11.644zm85.45 17.777c-.237.01-.487.025-.75.057-2.303.273-5.005 4.715-8.325 13.688-1.11 3-2.866 7.171-3.902 9.27-1.89 3.825-2.327 6.046-1.375 6.997 1.025 1.025 2.673.036 4.082-2.449.793-1.4 3.244-6.145 5.445-10.545s4.732-8.982 5.625-10.182c3.11-4.178 2.737-6.921-.8-6.835zM26.431 121.133c-.391-.017-.621.228-.621.767 0 1.376 3.81 8.299 6.189 11.248 1.29 1.6 2.728 3.647 3.195 4.547.97 1.869 2.823 2.16 3.444.543.938-2.445-.25-4.414-8.668-14.361-1.458-1.723-2.793-2.712-3.54-2.744zm74.04 22.93c-1.084.027-1.51.34-2.126.956-1.26 1.26-1.203 1.547 1.55 7.733 3.54 7.95 4.701 9.435 6.588 8.426.76-.407 1.525-1.152 1.7-1.657.174-.504-.672-2.682-1.881-4.838l-2.2-3.918 2.49.495c1.37.272 4.469.68 6.886.904 3.513.326 4.59.172 5.373-.772.83-1 .788-1.39-.266-2.554-1.787-1.975-4.24-2.797-12.035-4.033-3.252-.516-4.994-.771-6.078-.743z" fill="#fff"/>
</svg>
