<svg version="1.1" viewBox="0 0 82.815 47.625" id="svg1912" xmlns="http://www.w3.org/2000/svg">
    <g transform="translate(81.4 -70.75)" id="g1910">
        <g transform="translate(-60.227 64.611) scale(.28596)" id="g1906">
            <path d="M-40.119 182.06c-.946-.097-2.077-.32-2.514-.496-.48-.193-3.254-.4-7.011-.525-3.42-.113-6.554-.337-6.966-.5-.412-.161-2.407-.33-4.434-.374-3.224-.071-3.776-.149-4.41-.622-1.12-.835-1.05-1.33.4-2.832.721-.747 2.07-2.37 2.997-3.606.927-1.237 3.236-4.11 5.131-6.383 1.895-2.273 4.145-5.31 5-6.747 2.104-3.535 8.178-12.26 11.057-15.883 2.596-3.267 7.312-7.929 9.832-9.721 2.335-1.66 6.256-3.692 9.175-4.755 1.382-.503 3.293-1.282 4.245-1.731 2.8-1.32 5.844-1.863 10.477-1.87 3.322-.005 4.318.089 5.821.547 3.471 1.059 8.957 4.148 12.41 6.988 4.778 3.93 5.927 4.899 8.304 7 1.392 1.23 4.08 3.676 5.971 5.435 3.223 2.996 6.995 5.986 9.135 7.24.514.302 2.228 1.034 3.81 1.628 3.933 1.478 4.24 1.659 6.502 3.831 2.126 2.042 2.563 2.296 11.245 6.52 2.765 1.346 5.735 2.92 6.6 3.499 1.958 1.31 5.521 2.812 6.23 2.627.357-.093.531-.009.531.257 0 .217.358.543.794.724 1.64.68.85 2.907-1.033 2.914-.523.003-1.7.18-2.614.396-.914.216-2.521.457-3.572.537-1.05.08-2.921.321-4.158.537-3.416.596-10.068 1.39-16.49 1.969-3.176.286-5.855.568-5.953.626-.177.105-6.589.906-11.952 1.494-4.683.513-24.347.826-29.421.47-3.406-.24-5.194-.24-7.805.004-1.863.174-5.675.316-8.47.315-2.796 0-6.249.114-7.674.255-3.405.337-9.032.454-11.189.232z" id="path1886"/>
            <path d="M-4.426 141.78c1.572-3.068 1.863-4.143.758-2.801-.69.836-1.924 3.442-2.432 5.132-.54 1.796-.197 1.32 1.674-2.331z" id="path1888" fill="#fff"/>
            <path d="M-19.749 142.28c1.804-4.262 2.126-5.16 1.855-5.16-.34 0-1.436 2.192-2.356 4.713-1.595 4.369-1.278 4.652.501.447z" id="path1890" fill="#fff"/>
            <path d="M6.57 148.8c.513-1.984.516-2.685.01-2.685-.272 0-.398.272-.398.86 0 .472-.298 1.97-.662 3.326-.363 1.356-.65 2.547-.639 2.646.05.407 1.311-2.692 1.688-4.147z" id="path1892" fill="#fff"/>
            <path d="M-32.467 160.1c.626-1.48 1.347-3.295 1.603-4.035a22.08 22.08 0 0 1 1.062-2.481c.604-1.153.582-1.556-.073-1.305-.862.331-4.159 8.218-4.159 9.948 0 1.123.452.508 1.567-2.127z" id="path1894" fill="#fff"/>
            <path d="M-12.216 160.55c.952-2.462 1.73-4.574 1.73-4.694 0-.12-.126-.218-.281-.218-.408 0-1.647 2.882-2.617 6.086-1.181 3.902-1.176 3.88-.846 3.569.156-.147 1.062-2.282 2.014-4.743z" id="path1896" fill="#fff"/>
            <path d="M8.846 165.09c1.838-4.742 2.085-5.48 1.838-5.48-.409 0-1.26 1.878-2.273 5.02-.516 1.6-1.05 2.976-1.187 3.06a.585.585 0 0 0-.239.469c.02.703 1.071-1.03 1.861-3.069z" id="path1898" fill="#fff"/>
            <path d="M27.758 170.7c.745-1.471 1.973-5.099 1.973-5.831 0-.696-.49-.616-1.248.202-.45.487-.511.646-.2.526.298-.114.406-.06.323.162-.07.184-.529 1.573-1.022 3.087-.62 1.906-1.038 2.79-1.36 2.875-.725.192-.54.531.212.388.481-.092.858-.494 1.322-1.409z" id="path1900" fill="#fff"/>
            <path d="M-27.165 171.82c.58-1.95.667-2.68.318-2.68-.122 0-.442.965-.711 2.145-.27 1.179-.646 2.204-.837 2.277-.191.073-.347.244-.347.379 0 .14.223.126.519-.033.327-.175.718-.946 1.058-2.088z" id="path1902" fill="#fff"/>
            <path d="M-46.753 175.45c.292-.314.97-1.891 1.505-3.506.536-1.614 1.075-2.975 1.199-3.023.315-.124.281-.574-.044-.574-.481 0-1.27 1.624-1.853 3.81-.313 1.18-.794 2.53-1.067 3.004-.577.998-.49 1.095.26.29z" id="path1904" fill="#fff"/>
        </g>
        <path d="M-44.291 112.07c5.684 1.665 11.601.55 17.395.55 4.711 0 9.381.488 14.099.488.91 0 8.78.024 8.484.915-.46 1.379-3.248 1.077-4.456.977-8.163-.68-16.313.732-24.475.732-3.358 0-6.711.183-10.07.183-1.474 0-2.923-.183-4.395-.183h-1.648c-.122 0-.453.086-.367 0 1.374-1.373 4.857-2.894 5.433-3.662z" id="path1908"/>
    </g>
    <path id="rect2043" d="m0 45.248 1.672-.294.689-.325 74.547-1.614 6.017 1.275.058 3.335-8.73.679c-6.92.884-8.76-.206-12.556-.103l-7.857.498-8.871-.046-10.373-.397-13.82-.512-5.344.32h-2.909l-9.482-.059L0 47.625z"/>
</svg>
