<svg viewBox="0 0 193.94 47.625" version="1.1" id="svg5" xmlns="http://www.w3.org/2000/svg">
    <g id="layer1" transform="translate(81.4 -70.75)">
        <g id="g1046" transform="translate(-84.119 67.195) scale(.28596)">
            <path d="M109.047 173.757c-.292-.3.03-.652.595-.652.326 0 .454-.132.362-.373-.207-.54.365-1.508 2.848-4.82 2.496-3.33 6.067-7.387 7.89-8.962 1.171-1.013 3.3-2.441 8.935-5.991 3.325-2.095 3.923-2.502 8.615-5.855 5.364-3.835 9.042-5.663 16.322-8.116 2.938-.99 5.943-2.564 9.724-5.092 2.9-1.94 4.661-3.394 9.061-7.488 1.528-1.421 3.969-3.547 5.424-4.725 5.5-4.448 12.065-10.028 16.485-14.01 2.518-2.27 6.495-5.65 8.838-7.513 4.73-3.762 7.533-6.08 11.416-9.443 2.775-2.403 6.206-4.372 9.431-5.411 2.779-.896 10.129-2.16 12.563-2.16 4.44 0 8.214 1.086 12.176 3.501 1.31.799 2.917 1.72 3.571 2.047 1.572.786 3.448 2.35 5.557 4.63.946 1.024 2.307 2.397 3.025 3.052 1.86 1.697 7.77 7.78 9.382 9.657.843.981 1.982 2.851 2.981 4.895.89 1.82 2.038 3.962 2.55 4.763.513.8 1.61 2.959 2.437 4.796.827 1.838 1.774 3.722 2.106 4.187.33.465 1.937 1.957 3.569 3.316 1.632 1.359 3.302 2.868 3.71 3.354.41.486 2.047 2.252 3.64 3.926 2.981 3.132 4.537 5.42 5.726 8.416.377.95 1.217 2.305 1.945 3.137 1.436 1.64 2.85 4.234 2.85 5.226 0 1.392 1.748 3.69 5.339 7.02 1.938 1.798 3.847 3.604 4.24 4.014.395.41 1.117.912 1.605 1.116.927.388 2.574 2.227 2.574 2.875 0 .205-.154.584-.341.84-.314.43-.475.438-2.05.101-2.746-.586-11.272-.257-12.741.492-1.046.533-4.21.936-4.628.59-.237-.198-.576-.197-1.143 0-18.83 1.146-38.985 1.703-49.945 1.854-15.542 2.441-14.639-.12-29.435 1.184-9.953.974-21.64.11-31.18.601-5.882.452-16.172-.643-20.098-.002-4.026.659-31.678 1.19-46.48.894-3.492-.07-7.005-.025-7.805.099-.8.124-1.541.137-1.646.029z" id="path274" fill="#000"/>
            <path d="M237.415 100.294c1.39-3.436 2.01-6.215 1.337-5.99-.19.063-.493.644-.673 1.292-.18.647-.743 2.308-1.252 3.69-1.082 2.937-1.64 5.404-1.366 6.036.141.327.248.162.395-.612.11-.582.812-2.569 1.559-4.416z" id="path312" fill="#fff"/>
            <path d="M249.314 111.358c1.394-2.357 2.931-5.777 2.931-6.521 0-.956-.837.373-2.961 4.702a942.464 942.464 0 0 0-2.554 5.226c-.065.145.133.04.44-.232.308-.273 1.272-1.701 2.144-3.175z" id="path310" fill="#fff"/>
            <path d="M215.674 114.302c1.393-2.443 2.204-4.292 3.048-6.947a86.94 86.94 0 0 1 .875-2.645c.175-.454.145-.482-.21-.194-.226.185-.744 1.256-1.15 2.382-.863 2.397-3.511 8.512-3.893 8.991-.158.198-.163.33-.014.33.137 0 .742-.862 1.344-1.917z" id="path308" fill="#fff"/>
            <path d="M229.725 126.102c.599-1.477 1.089-2.902 1.089-3.166 0-1.755-2.532 4.224-2.758 6.513l-.144 1.455.362-1.058c.2-.582.852-2.267 1.451-3.744z" id="path306" fill="#fff"/>
            <path d="M194.897 127.663c1.903-4.295 2.679-6.588 2.307-6.818-.133-.082-.434.303-.67.854-1.978 4.622-3.886 9.867-3.588 9.867.122 0 1-1.756 1.951-3.903z" id="path304" fill="#fff"/>
            <path d="M264.268 129.23c1.279-3.835 1.75-5.866 1.36-5.866-.393 0-.921.357-.805.545.076.124-.268 1.451-.765 2.949-.498 1.498-1.058 3.592-1.244 4.653-.187 1.062-.438 1.992-.56 2.067a.541.541 0 0 0-.22.417c0 .182.135.17.382-.035.21-.174 1.043-2.302 1.852-4.73z" id="path302" fill="#fff"/>
            <path d="M243.77 137.669c1.93-3.788 3.56-9.807 2.654-9.807-.145 0-.264.296-.264.658 0 .805-2.749 8.976-3.305 9.825-.22.336-.4.689-.4.784 0 .384.862-.574 1.314-1.46z" id="path300" fill="#fff"/>
            <path d="M207.636 138.22c1.042-3.231 1.517-5.543 1.182-5.75-.315-.195-.666.803-1.588 4.52-.433 1.746-.9 3.381-1.037 3.634-.343.63-.315.74.142.564.218-.083.796-1.402 1.301-2.968z" id="path298" fill="#fff"/>
            <path d="M178.368 138.577c.295-1.164.614-2.652.708-3.307.094-.655.346-1.459.56-1.786.221-.338.271-.595.115-.595-.597 0-1.307 1.8-1.858 4.71-.318 1.681-.642 3.244-.721 3.472-.128.37-.1.373.257.02.22-.219.643-1.35.938-2.514z" id="path296" fill="#fff"/>
            <path d="M277.232 146.647c1.212-3.65 2.029-6.675 1.85-6.853-.262-.262-.589.563-1.555 3.92-.527 1.832-1.176 3.925-1.442 4.653-.267.727-.571 1.56-.677 1.852-.156.425-.086.4.354-.132.301-.364.963-1.912 1.47-3.44z" id="path294" fill="#fff"/>
            <path d="M256.977 148.764c.57-2.588.71-4.235.361-4.232-.282.003-1.681 7.327-1.642 8.597l.033 1.059.348-1.456c.19-.8.596-2.586.9-3.968z" id="path292" fill="#fff"/>
            <path d="M219.566 153.268c.52-1.005 1.643-5.74 1.854-7.812.259-2.55-.262-1.191-1.053 2.746-.391 1.947-.868 4.06-1.06 4.697-.405 1.348-.315 1.478.259.369z" id="path290" fill="#fff"/>
            <path d="M195.246 150.305c.926-3.647 1.098-4.981.643-4.981-.146 0-.265.09-.265.2 0 .11-.287 1.51-.638 3.11-.731 3.333-1.081 5.635-.817 5.375.1-.098.584-1.765 1.077-3.704z" id="path288" fill="#fff"/>
            <path d="M156.55 155.194c1.334-3.225 2.35-6.2 2.178-6.374-.08-.08-.186-.095-.235-.034-.179.22-1.58 3.866-2.322 6.04-.417 1.224-.968 2.461-1.224 2.75-.45.508-.447.515.086.236.336-.176.93-1.2 1.516-2.618z" id="path286" fill="#fff"/>
            <path d="M233.2 153.828c1.452-4.152 1.412-4.006 1.088-4.006-.328 0-1.516 2.84-2.25 5.379-.344 1.189-.718 2.4-.83 2.69-.187.485-.167.495.235.118.242-.226 1.033-2.108 1.757-4.181z" id="path284" fill="#fff"/>
            <path d="M286.872 155.786c.872-2.41.992-3.054.57-3.054-.385 0-.919 1.183-1.703 3.77-.387 1.274-.825 2.316-.974 2.316-.15 0-.186.138-.082.308.341.551 1.322-.946 2.189-3.34z" id="path282" fill="#fff"/>
            <path d="M177.754 156.865c.461-2.658.528-4.102.171-3.723-.373.398-.808 2.843-.952 5.354-.154 2.693.134 2.091.78-1.631z" id="path280" fill="#fff"/>
            <path d="M204.494 160.967c.782-2.311 1.324-5.107 1.102-5.686-.186-.484-.86-.32-1.085.264-.092.24-.038.32.14.21.188-.115.236-.002.138.318-.083.273-.442 1.865-.797 3.539-.356 1.673-.734 3.28-.84 3.571-.179.487-.158.496.25.112.245-.229.737-1.277 1.092-2.328z" id="path278" fill="#fff"/>
            <path d="M140.343 162.32c.176-.544.541-1.43.812-1.968.935-1.862 1.538-3.629 1.29-3.782-.343-.212-1.206 1.572-2.13 4.401-.874 2.672-.88 2.7-.537 2.489.135-.084.389-.597.565-1.14z" id="path276" fill="#fff"/>
        </g>
        <path id="rect3676" d="m-81.4 116.239 22.958.285 6.99-1.193 56.973-.56 6.706.092 7.396-1.376 7.656.61 7.05-.685 8.692.61 6.446.523 5.757.005 3.943.955 9.382.005 6.274-.513 6.706.092 8.26.005 5.842.264 3.77.696 6.707.092 6.705.092V119l-34.871.718-10.758-.015-10.757-.015-10.757-.015-9.981 1.711-8.772-.705-12.052.589-12.052.416-27.59-.964-40.913-1.202L-81.4 119z"/>
    </g>
</svg>
