<svg viewBox="0 0 1123 888.74" xml:space="preserve" xmlns="http://www.w3.org/2000/svg">
    <path d="M737.08 143.35c123.17 39.602 306.18-5.813 373.82 104.48 39.235 63.976-28.106 147.46-44.29 220.75-21.457 97.163.262 219.73-69.999 290.19-75.805 76.02-207.93 53.782-312.87 76.41-82.544 17.799-168.69 72.755-248.99 46.65-80.03-26.015-106.01-133.07-173.37-183.51-65.842-49.304-171.7-45.42-219.82-112.13-40.735-56.474-52.21-140.1-31.353-206.53 25.3-80.584 116.2-122.61 174.4-183.82 45.849-48.224 80.241-110.96 137.7-144.52 56.443-32.965 126.06-61.065 190.11-48.064 60.73 12.326 93.793 82.58 148.21 112.23 23.821 12.979 50.634 19.574 76.46 27.877z"/>
    <path d="M305.47 640.17a.387.387 0 0 0-.16.037c-.196.087-.395.572-.648 1.579-.195.773-.215.825-.331.87-.069.028-.554.134-1.08.237-.524.103-.974.205-.998.228-.024.023-.005.115.042.205.085.161.1.167.737.326a26.08 26.08 0 0 1 .933.25l.284.086-.254.847c-.215.722-.245.87-.203 1 .088.271.2.23.63-.231.222-.237.458-.516.525-.618.203-.313.726-.779.805-.718.22.168.581.397.891.566.195.106.48.288.633.405.303.231.39.249.476.1.096-.168-.026-.561-.36-1.157l-.322-.573.289-.25c.158-.137.464-.412.68-.61.611-.562.612-.87 0-.73a8.168 8.168 0 0 1-.622.102 6.466 6.466 0 0 0-.802.165l-.395.113-.184-.626c-.305-1.038-.48-1.561-.536-1.595a.066.066 0 0 0-.03-.008zm500.81 136.37c-.243.01-.473.334-.657.992-.088.313-.34 1.029-.56 1.59a17.07 17.07 0 0 0-.638 2.093l-.24 1.072-1.705-.37c-2.83-.615-4.282-.872-4.433-.787-.078.045-.158.263-.176.485-.048.571.837 1.662 2.876 3.546 1.565 1.447 1.664 1.563 1.62 1.895-.025.194-.398 1.47-.829 2.834-.43 1.365-.765 2.551-.743 2.637.022.086.263.16.535.164.485.008.52-.02 1.71-1.31a69.987 69.987 0 0 1 1.78-1.873l.567-.555 1.664 1.68c1.42 1.432 1.728 1.692 2.087 1.76.75.141.797-.174.265-1.777-.273-.824-.623-1.733-.78-2.022-.472-.878-.896-2.703-.652-2.81.675-.3 1.678-.855 2.471-1.368a15.764 15.764 0 0 1 1.762-.966c.93-.415 1.085-.595.844-.988-.27-.442-1.35-.659-3.177-.638l-1.757.02-.217-.997a109.13 109.13 0 0 0-.56-2.378c-.318-1.282-.702-1.942-1.057-1.929zM148.3 481.16c-.169.006-.328.232-.456.689-.06.217-.236.714-.388 1.104a12.06 12.06 0 0 0-.445 1.453l-.166.745-1.185-.257c-1.965-.426-2.974-.606-3.079-.546-.054.03-.109.183-.122.338-.033.396.581 1.154 1.997 2.463 1.088 1.005 1.157 1.084 1.127 1.315-.018.135-.278 1.022-.577 1.97-.299.948-.531 1.772-.516 1.83.016.06.183.11.372.115.337.005.361-.014 1.187-.91a48.344 48.344 0 0 1 1.238-1.301l.393-.386 1.156 1.168c.986.995 1.2 1.175 1.45 1.222.52.098.553-.121.184-1.235-.19-.572-.434-1.204-.542-1.405-.328-.61-.623-1.876-.453-1.952a14.267 14.267 0 0 0 1.717-.95 10.92 10.92 0 0 1 1.224-.67c.646-.289.753-.414.586-.687-.188-.307-.937-.457-2.207-.443l-1.22.014-.152-.692a76.173 76.173 0 0 0-.389-1.652c-.22-.89-.487-1.35-.734-1.34zm376.38-171.61c-.56.03-4.803 7.38-5.988 10.373-.761 1.922-2.58 8.125-3.26 11.118-1.016 4.478-.051 10.44 2.553 15.783 1.264 2.59 5.383 7.88 8.12 10.426 3.756 3.496 7.248 5.955 10.907 7.68 6.467 3.051 12.624 3.954 17.553 2.574 1.297-.363 3.167-1.067 4.153-1.564 2.307-1.162 4.548-2.042 5.708-2.243 1.735-.3 4.496-1.421 5.93-2.409 1.746-1.2 3.563-2.773 3.563-3.081 0-.125-2.42-.408-5.378-.63-4.007-.3-6.415-.662-9.433-1.419-8.631-2.164-14.31-4.27-17.9-6.636-2.133-1.407-6.349-5.536-8.026-7.863-1.86-2.58-4.927-8.021-5.713-10.135-1.621-4.362-2.203-8.027-2.41-15.202-.106-3.73-.277-6.778-.38-6.772zm-159.47 114.4c-.25.009-.484.342-.673 1.017-.09.321-.348 1.056-.574 1.632s-.521 1.541-.656 2.146l-.246 1.1-1.75-.38c-2.902-.63-4.392-.894-4.546-.806-.08.045-.162.27-.181.497-.049.586.858 1.705 2.95 3.638 1.606 1.484 1.707 1.602 1.662 1.942-.026.2-.408 1.508-.85 2.908s-.785 2.618-.763 2.706c.023.088.27.163.55.168.497.008.533-.02 1.753-1.344a71.547 71.547 0 0 1 1.827-1.921l.581-.57 1.708 1.724c1.455 1.47 1.77 1.735 2.14 1.805.77.144.818-.178.272-1.823-.28-.845-.64-1.778-.8-2.074-.485-.9-.92-2.772-.67-2.883.694-.308 1.723-.878 2.536-1.404.512-.33 1.325-.776 1.807-.99.955-.426 1.113-.61.866-1.014-.277-.453-1.385-.675-3.259-.654l-1.802.02-.223-1.022a111.98 111.98 0 0 0-.575-2.44c-.325-1.314-.72-1.992-1.084-1.978zm105.26-151.87c-.346-.02-.838.286-1.458.947-.349.371-1.218 1.184-1.93 1.805a26.84 26.84 0 0 0-2.407 2.445l-1.11 1.317-2.102-1.75c-3.49-2.906-5.322-4.317-5.594-4.308-.141.005-.41.251-.597.546-.48.76-.041 2.918 1.427 7.017 1.128 3.146 1.181 3.378.88 3.808-.176.252-1.619 1.755-3.207 3.34-1.589 1.586-2.915 2.993-2.946 3.128-.031.134.25.412.625.615.669.363.737.35 3.327-.582 1.454-.523 3.179-1.114 3.834-1.312l1.19-.361 1.096 3.543c.934 3.02 1.175 3.605 1.625 3.96v-.001c.94.74 1.234.336 1.657-2.279.217-1.342.389-2.861.382-3.376-.02-1.563.714-4.408 1.132-4.381 1.156.073 2.953.028 4.428-.109.926-.086 2.343-.116 3.149-.066 1.594.099 1.94-.04 1.89-.762-.055-.81-1.4-1.894-3.955-3.19l-2.457-1.245.42-1.544c.231-.85.656-2.52.946-3.713.54-2.224.415-3.453-.245-3.492zm-239.96 96.25c-.817.025-1.158.984-.838 2.36.157.68.306 1.65.33 2.155l.044.92-1.987.648a268.22 268.22 0 0 1-2.86.917c-.48.148-1.162.528-1.517.843-.47.42-.601.704-.485 1.054.143.425.523.503 3.398.691 1.78.117 3.844.345 4.584.507l1.345.294-.225.99c-.124.545-.327 1.93-.453 3.078-.125 1.148-.336 2.59-.47 3.202-.34 1.576-.145 2.453.56 2.498.315.02.816-.167 1.163-.436.846-.655 3.3-3.79 3.53-4.51l.191-.594 1.79.764c2.751 1.176 5.186 1.825 5.984 1.597.623-.178.672-.262.524-.904-.163-.706-.751-1.564-3.5-5.104l-1.456-1.875.74-.962c.405-.53 1.147-1.798 1.646-2.817.802-1.638.869-1.91.573-2.334-.273-.393-.502-.45-1.243-.315-.964.177-6.155 1.756-6.713 2.043-.2.102-.467-.01-.676-.285-2.165-2.848-3.594-4.437-3.979-4.425zM540.6 589.56c-.142.005-.276.196-.384.58a12.96 12.96 0 0 1-.327.931 10.118 10.118 0 0 0-.375 1.226l-.14.627-.998-.216c-1.658-.36-2.507-.51-2.595-.46-.047.025-.093.153-.104.283-.028.334.49.973 1.684 2.076.916.847.974.915.948 1.11-.014.113-.233.86-.485 1.659s-.448 1.493-.435 1.543c.013.05.154.092.313.096.285.005.305-.011 1.001-.767.391-.424.86-.917 1.043-1.096l.331-.325.975.984c.83.838 1.01.99 1.221 1.03.44.082.467-.102.155-1.04-.16-.483-.365-1.015-.456-1.184-.277-.514-.524-1.583-.381-1.646.395-.175.982-.5 1.447-.8a9.224 9.224 0 0 1 1.03-.566c.546-.242.636-.348.495-.578-.158-.26-.79-.386-1.86-.373l-1.028.011-.128-.584a63.923 63.923 0 0 0-.328-1.392c-.186-.75-.41-1.137-.619-1.129zM203.42 394.05a.433.433 0 0 0-.173.046c-.226.103-.277.214-.277.604 0 .508.32 3.3.413 3.61.034.111-.048.237-.207.318-1.653.836-2.596 1.416-2.626 1.613-.063.419.393.682 1.124.648a7.71 7.71 0 0 1 1.13.033l.472.063.144 1.073c.079.59.169 1.284.2 1.542.03.258.16.642.288.852.17.279.302.372.492.345.23-.032.304-.22.668-1.666.226-.896.535-1.926.686-2.287l.276-.659.484.207c.266.115.952.348 1.525.519.573.171 1.288.413 1.588.538.77.321 1.235.303 1.324-.052.04-.158-.01-.43-.113-.632-.255-.492-1.623-2.035-1.968-2.22l-.285-.153.556-.84c.856-1.292 1.414-2.471 1.373-2.899-.033-.334-.07-.367-.412-.351-.374.017-.866.236-2.927 1.306l-1.09.566-.422-.466c-.232-.257-.808-.753-1.28-1.102-.57-.421-.788-.56-.963-.556zm614.6-163.6-.142 1.09a277 277 0 0 1-.487 3.434c-.19 1.288-.37 2.907-.401 3.596a43.89 43.89 0 0 1-.093 1.595c-.02.192-1.17.927-2.62 1.677-2.872 1.483-2.868 1.46-.337 2.125.867.228 1.916.673 2.33.989.735.56.757.625.896 2.666.079 1.15.208 2.69.288 3.42l.143 1.329.502-1.335a31.24 31.24 0 0 1 1.124-2.566c.867-1.713 2.266-3.73 2.703-3.898.202-.077.538-.141.748-.141.403 0 3.917 1.424 6.83 2.768.958.442 1.742.766 1.742.722 0-.335-2.365-3.939-3.315-5.053-.733-.86-1.18-1.592-1.18-1.939 0-.41.828-1.413 3.164-3.829 1.74-1.8 3.12-3.317 3.065-3.371-.162-.163-3.54 1.208-4.428 1.795-.765.507-4.81 1.94-5.475 1.94-.572 0-1.941-1.65-2.406-2.9-.59-1.586-1.357-2.905-2.085-3.585zM489.15 129.51a.659.659 0 0 0-.141.028c-.26.078-.553.217-.653.309-.205.189-.736 3.3-1.129 6.619l-.263 2.228-2.36.4c-3.56.605-5.412 1.027-5.68 1.296-.174.173-.121.377.184.715.518.571 4.038 2.775 4.823 3.018.308.095 1.091.37 1.74.61l1.18.437.016 1.613c.032 3.172.335 5.513.777 6.003.228.253.573.43.766.393.47-.09 1.357-1.76 2.605-4.9.566-1.426 1.107-2.716 1.2-2.867.176-.285 2.187.095 5.761 1.089 2.07.574 3.408.58 3.587.015.157-.494-.203-1.538-.737-2.14-.207-.233-1.047-1.005-1.867-1.714l-1.49-1.288 2.438-2.303c1.341-1.267 2.502-2.5 2.578-2.742.274-.862-.082-1.499-.99-1.77-.968-.291-2.773.093-6.315 1.342-1.044.367-1.972.623-2.062.568-.09-.056-.338-.632-.55-1.28-.489-1.495-1.046-2.613-2.183-4.383-.66-1.028-.918-1.319-1.235-1.296zm-136.14 349.4c-.215.008-.418.297-.581.879a19.64 19.64 0 0 1-.496 1.408c-.194.497-.45 1.332-.567 1.854l-.212.95-1.51-.328c-2.506-.544-3.792-.773-3.925-.697-.07.04-.14.233-.157.43-.042.506.741 1.472 2.547 3.14 1.387 1.282 1.474 1.383 1.436 1.678-.022.172-.353 1.302-.735 2.51-.381 1.209-.678 2.26-.658 2.336.019.076.232.141.474.146.43.007.46-.018 1.514-1.161a62.302 62.302 0 0 1 1.577-1.659l.502-.491 1.475 1.488c1.256 1.268 1.53 1.498 1.848 1.558.664.125.706-.154.235-1.574-.242-.729-.553-1.535-.691-1.79-.419-.778-.794-2.394-.578-2.49.598-.266 1.486-.757 2.189-1.211a14.01 14.01 0 0 1 1.56-.856c.824-.367.96-.527.748-.875-.24-.392-1.196-.583-2.814-.565l-1.556.018-.193-.883a96.937 96.937 0 0 0-.496-2.106c-.281-1.136-.621-1.721-.936-1.71zm300.69-337.9c-.159.004-.443.14-.68.334-.698.567-.97 2.753-.882 7.106.066 3.341.044 3.578-.379 3.89-.247.182-2.095 1.147-4.106 2.144-2.01.996-3.715 1.908-3.788 2.026-.072.118.107.47.398.783.518.556.587.567 3.338.508 1.545-.033 3.369-.043 4.053-.023l1.243.037-.09 3.708c-.076 3.16-.035 3.79.28 4.27.656 1.001 1.063.712 2.296-1.632.634-1.203 1.28-2.589 1.438-3.079.478-1.489 2.08-3.95 2.468-3.793 1.072.438 2.79.968 4.231 1.307.906.213 2.26.637 3.007.941 1.48.601 1.851.58 2.034-.12.205-.786-.723-2.241-2.732-4.283l-1.933-1.964.89-1.33c.49-.731 1.425-2.18 2.079-3.218 1.859-2.95 1.52-4.202-.803-2.955-.45.241-1.532.735-2.405 1.097a27.12 27.12 0 0 0-3.06 1.551l-1.473.894-1.435-2.329c-2.382-3.865-3.67-5.786-3.93-5.863a.194.194 0 0 0-.06-.007zM478.46 704.46c-.169.006-.328.232-.456.689-.06.217-.236.714-.388 1.104a12.06 12.06 0 0 0-.445 1.453l-.166.745-1.184-.257c-1.966-.426-2.975-.606-3.08-.546-.053.03-.109.183-.122.338-.033.396.581 1.154 1.997 2.463 1.088 1.005 1.157 1.084 1.127 1.315-.018.135-.278 1.022-.577 1.97-.299.948-.531 1.772-.516 1.83.015.06.183.11.372.115.337.005.361-.014 1.187-.91a48.055 48.055 0 0 1 1.238-1.301l.393-.386 1.156 1.168c.986.995 1.2 1.175 1.45 1.222.52.098.553-.121.184-1.235-.19-.572-.434-1.204-.542-1.405-.328-.61-.623-1.876-.453-1.952a14.267 14.267 0 0 0 1.717-.95c.346-.223.897-.526 1.224-.67.646-.289.753-.414.586-.687-.188-.307-.937-.457-2.207-.443l-1.22.014-.152-.692a76.173 76.173 0 0 0-.389-1.652c-.22-.89-.487-1.35-.734-1.34zM293.6 353.78a.383.383 0 0 0-.16.036c-.195.087-.395.573-.648 1.58-.194.773-.214.825-.331.87-.068.027-.554.133-1.08.236-.524.103-.973.206-.997.23-.024.022-.01.113.042.204.084.16.1.167.736.326.358.09.777.201.933.249l.284.087-.253.847c-.216.722-.246.87-.204 1 .088.271.2.23.63-.231.222-.237.458-.516.524-.618.204-.313.727-.779.806-.718.22.168.581.397.892.566.195.106.48.288.633.405.302.231.389.249.475.1.096-.168-.027-.561-.36-1.157l-.322-.573.288-.25c.16-.138.465-.412.68-.61.613-.562.613-.871 0-.73a8.185 8.185 0 0 1-.621.101 6.437 6.437 0 0 0-.801.166l-.395.112-.184-.625c-.306-1.038-.481-1.561-.536-1.595a.069.069 0 0 0-.031-.008zm178.48 7.65c-.25.009-.484.342-.673 1.017-.09.321-.348 1.056-.574 1.632s-.521 1.541-.656 2.146l-.246 1.1-1.75-.38c-2.902-.63-4.392-.894-4.546-.806-.08.045-.162.27-.181.497-.049.586.858 1.705 2.95 3.638 1.606 1.484 1.707 1.602 1.662 1.942-.026.2-.408 1.508-.85 2.908s-.785 2.618-.763 2.706c.023.088.27.163.55.168.497.008.533-.02 1.753-1.344a71.416 71.416 0 0 1 1.827-1.921l.581-.57 1.708 1.724c1.455 1.47 1.77 1.735 2.14 1.805.77.144.818-.178.272-1.823-.28-.845-.64-1.778-.8-2.074-.485-.9-.92-2.772-.67-2.883.694-.308 1.723-.877 2.536-1.404.512-.33 1.325-.776 1.807-.99.955-.426 1.113-.61.866-1.014-.277-.453-1.385-.675-3.259-.654l-1.802.02-.223-1.022a111.98 111.98 0 0 0-.575-2.44c-.325-1.314-.72-1.992-1.084-1.978zm561.52 41.23c-.142.005-.276.196-.384.58a12.84 12.84 0 0 1-.327.931 10.118 10.118 0 0 0-.375 1.226l-.14.627-.999-.216c-1.657-.36-2.507-.51-2.595-.46-.046.025-.092.153-.103.283-.028.334.49.973 1.684 2.076.916.847.974.915.948 1.11-.015.113-.233.86-.485 1.659s-.448 1.493-.435 1.543c.013.05.154.092.313.096.284.005.305-.011 1.001-.767.391-.424.86-.917 1.043-1.096l.331-.325.975.984c.83.838 1.01.99 1.221 1.03.44.082.467-.102.155-1.04-.16-.483-.365-1.015-.456-1.184-.277-.514-.524-1.583-.382-1.646.396-.175.983-.5 1.447-.8a9.22 9.22 0 0 1 1.031-.566c.545-.242.636-.348.495-.578-.158-.26-.79-.386-1.86-.373l-1.029.011-.127-.584a63.923 63.923 0 0 0-.328-1.392c-.186-.75-.411-1.137-.619-1.129zm-41.97 48.65c-.38.015-.74.524-1.03 1.556-.137.491-.531 1.613-.876 2.493a27.06 27.06 0 0 0-1.003 3.281l-.376 1.681-2.673-.58c-4.438-.963-6.715-1.367-6.95-1.233-.124.07-.248.412-.277.76-.075.896 1.311 2.607 4.509 5.562 2.455 2.268 2.609 2.449 2.541 2.97-.04.304-.624 2.304-1.3 4.444s-1.2 4.001-1.166 4.135c.035.135.413.25.84.257.76.012.815-.03 2.68-2.054 1.048-1.137 2.304-2.458 2.793-2.937l.888-.87 2.61 2.635c2.225 2.246 2.708 2.653 3.272 2.759 1.176.221 1.25-.273.416-2.787-.428-1.29-.979-2.717-1.222-3.17-.742-1.377-1.406-4.238-1.023-4.408 1.059-.47 2.631-1.34 3.875-2.144.782-.505 2.025-1.186 2.762-1.515 1.46-.65 1.7-.933 1.323-1.55-.423-.692-2.116-1.032-4.98-1l-2.755.032-.342-1.563c-.188-.86-.584-2.538-.879-3.73-.497-2.01-1.1-3.045-1.657-3.024zm-239.98-9.8a.433.433 0 0 0-.173.046c-.226.103-.277.214-.277.604 0 .508.32 3.3.413 3.61.034.111-.048.237-.207.318-1.653.836-2.596 1.416-2.626 1.613-.063.419.393.682 1.124.648.36-.017.869-.002 1.13.033l.472.063.144 1.073c.079.59.17 1.284.2 1.542s.16.642.288.852c.17.279.302.372.492.345.23-.032.304-.22.668-1.666.226-.896.535-1.926.686-2.287l.276-.659.484.207c.266.115.952.348 1.525.519.573.171 1.288.413 1.588.538.77.321 1.235.303 1.324-.052.04-.158-.01-.43-.113-.632-.255-.492-1.623-2.035-1.968-2.22l-.285-.153.556-.84c.856-1.292 1.414-2.471 1.373-2.899-.033-.334-.07-.367-.412-.351-.374.017-.866.236-2.927 1.306l-1.09.566-.422-.466c-.232-.257-.808-.753-1.28-1.102-.57-.421-.788-.56-.963-.556zm169.21-88.17c-.142.006-.277.196-.385.582-.051.184-.2.604-.328.933a10.126 10.126 0 0 0-.376 1.228l-.14.629-1-.217c-1.661-.36-2.513-.512-2.601-.462-.046.027-.093.155-.104.285-.028.336.49.976 1.687 2.082.919.848.977.916.952 1.11-.015.115-.234.863-.487 1.664s-.45 1.498-.436 1.548c.013.05.154.092.314.096.284.005.305-.012 1.003-.77.392-.424.862-.92 1.044-1.098l.333-.326.977.986c.833.84 1.014.993 1.225 1.033.44.083.467-.102.155-1.043-.16-.483-.366-1.017-.457-1.186-.278-.516-.526-1.586-.383-1.65a12.06 12.06 0 0 0 1.45-.802 9.2 9.2 0 0 1 1.034-.567c.546-.243.637-.349.495-.58-.158-.26-.792-.386-1.864-.374l-1.031.011-.128-.585a63.902 63.902 0 0 0-.328-1.395c-.186-.752-.412-1.14-.621-1.132zm-779.42 20.83-.142 1.09a277 277 0 0 1-.487 3.434c-.19 1.288-.37 2.907-.401 3.596a43.89 43.89 0 0 1-.093 1.595c-.02.192-1.17.927-2.62 1.677-2.872 1.483-2.868 1.46-.337 2.125.867.228 1.916.673 2.33.989.735.56.757.625.896 2.666.079 1.15.208 2.69.288 3.42l.143 1.329.502-1.335a31.24 31.24 0 0 1 1.124-2.566c.867-1.713 2.266-3.73 2.703-3.898.202-.077.538-.141.748-.141.403 0 3.917 1.424 6.83 2.768.958.442 1.742.766 1.742.722 0-.335-2.365-3.939-3.315-5.053-.733-.86-1.18-1.592-1.18-1.939 0-.41.828-1.413 3.164-3.829 1.74-1.8 3.12-3.317 3.065-3.371-.162-.162-3.54 1.208-4.428 1.795-.765.507-4.81 1.94-5.475 1.94-.572 0-1.941-1.65-2.406-2.9-.59-1.586-1.357-2.905-2.085-3.585zM431.6 201.6a.659.659 0 0 0-.141.028c-.26.078-.553.217-.653.309-.205.189-.735 3.3-1.129 6.619l-.263 2.228-2.36.4c-3.56.605-5.412 1.027-5.68 1.296-.174.173-.121.377.184.715.518.571 4.038 2.775 4.822 3.018.309.095 1.092.37 1.741.61l1.18.437.016 1.613c.031 3.172.334 5.513.776 6.003.229.253.574.43.767.393.47-.09 1.356-1.76 2.605-4.9.566-1.426 1.106-2.716 1.199-2.867.176-.285 2.187.095 5.762 1.089 2.07.574 3.408.58 3.587.015.157-.494-.203-1.538-.737-2.14-.208-.234-1.048-1.005-1.868-1.714l-1.49-1.289 2.438-2.302c1.342-1.267 2.502-2.5 2.58-2.742.273-.862-.083-1.499-.991-1.77-.968-.291-2.773.093-6.316 1.342-1.044.367-1.971.623-2.062.568-.09-.056-.337-.632-.549-1.28-.49-1.495-1.046-2.613-2.183-4.383-.66-1.028-.918-1.319-1.236-1.296zm-26.98 128.21c-.215.008-.418.297-.581.879a19.64 19.64 0 0 1-.496 1.408c-.194.497-.45 1.332-.566 1.854l-.213.95-1.51-.328c-2.506-.544-3.792-.773-3.925-.697-.07.04-.14.233-.157.43-.042.506.741 1.472 2.547 3.14 1.387 1.282 1.474 1.383 1.436 1.678-.023.172-.353 1.302-.735 2.51-.381 1.209-.678 2.26-.658 2.336.02.076.232.141.474.146.43.007.46-.018 1.514-1.161a62.17 62.17 0 0 1 1.577-1.659l.502-.491 1.474 1.488c1.257 1.268 1.53 1.498 1.849 1.558.664.125.705-.154.234-1.574-.242-.729-.552-1.535-.69-1.79-.419-.778-.794-2.394-.578-2.49.598-.266 1.486-.757 2.189-1.211a14.02 14.02 0 0 1 1.56-.856c.824-.367.96-.527.747-.875-.24-.392-1.195-.583-2.813-.565l-1.556.018-.193-.883a96.937 96.937 0 0 0-.496-2.106c-.281-1.136-.621-1.721-.936-1.71zm277.71 197.7c-.159.004-.443.14-.68.334-.698.567-.97 2.753-.882 7.106.067 3.341.044 3.578-.379 3.89-.247.182-2.095 1.147-4.106 2.144-2.01.996-3.715 1.908-3.788 2.026-.073.118.107.47.398.783.518.556.587.567 3.338.508 1.545-.033 3.369-.043 4.053-.023l1.243.037-.09 3.708c-.076 3.16-.035 3.79.28 4.27.656 1.001 1.063.712 2.296-1.632.634-1.203 1.28-2.589 1.438-3.079.478-1.489 2.08-3.95 2.468-3.793 1.072.438 2.79.968 4.231 1.307.906.213 2.26.637 3.007.941 1.48.601 1.851.58 2.034-.12.205-.786-.723-2.241-2.732-4.283l-1.933-1.964.89-1.33c.49-.73 1.425-2.18 2.079-3.218 1.859-2.95 1.52-4.202-.803-2.955-.45.241-1.532.735-2.405 1.097-.874.361-2.25 1.06-3.06 1.551l-1.473.894-1.435-2.329c-2.382-3.865-3.67-5.786-3.93-5.863a.194.194 0 0 0-.06-.007zm216.6-81.54a.387.387 0 0 0-.16.037c-.196.087-.395.572-.648 1.579-.195.773-.215.825-.332.87-.068.028-.553.134-1.078.237-.525.103-.975.205-1 .228-.023.023 0 .115.043.205.084.161.1.167.736.326a26.08 26.08 0 0 1 .934.25l.284.086-.254.847c-.216.722-.246.87-.203 1 .088.271.2.23.63-.231a6.73 6.73 0 0 0 .524-.618c.204-.313.727-.779.805-.718.22.168.582.397.892.566.195.106.48.288.633.405.303.231.39.249.476.1.096-.168-.026-.561-.36-1.157l-.322-.573.288-.25c.159-.137.464-.412.68-.61.612-.562.613-.87 0-.73a8.165 8.165 0 0 1-.622.102 6.465 6.465 0 0 0-.801.165l-.395.113-.184-.626c-.306-1.038-.481-1.561-.536-1.595a.066.066 0 0 0-.031-.008zM437.5 765.53c-.169.006-.328.232-.456.689-.06.217-.236.714-.388 1.104a12.06 12.06 0 0 0-.445 1.453l-.166.745-1.185-.257c-1.965-.426-2.974-.606-3.079-.546-.054.03-.109.183-.122.338-.033.396.581 1.154 1.997 2.463 1.088 1.005 1.157 1.084 1.127 1.315-.018.135-.278 1.022-.577 1.97-.299.948-.531 1.772-.516 1.83.016.06.183.11.372.115.337.005.361-.014 1.187-.91a48.344 48.344 0 0 1 1.238-1.301l.393-.386 1.156 1.168c.986.995 1.2 1.175 1.45 1.222.52.098.553-.121.184-1.235-.19-.572-.434-1.204-.542-1.405-.328-.61-.623-1.876-.453-1.952a14.267 14.267 0 0 0 1.717-.95 10.92 10.92 0 0 1 1.224-.67c.646-.289.753-.414.586-.687-.188-.307-.937-.457-2.207-.443l-1.22.014-.152-.692a76.173 76.173 0 0 0-.389-1.652c-.22-.89-.487-1.35-.734-1.34zM732.36 350.2a.383.383 0 0 0-.16.036c-.195.087-.395.573-.649 1.58-.194.773-.213.825-.33.87-.068.028-.554.133-1.08.236-.524.103-.973.206-.997.23-.024.022-.01.113.042.204.084.16.1.167.736.326.358.09.777.201.933.249l.284.087-.253.847c-.216.722-.246.87-.203 1 .088.271.199.23.63-.231a6.8 6.8 0 0 0 .523-.618c.204-.313.727-.779.806-.718.22.168.581.397.892.566.195.106.48.288.633.405.303.231.389.249.475.1.096-.168-.027-.561-.36-1.157l-.321-.573.288-.25c.158-.138.464-.412.68-.61.612-.562.612-.871 0-.73a8.173 8.173 0 0 1-.622.101 6.433 6.433 0 0 0-.801.166l-.395.112-.184-.625c-.306-1.038-.481-1.561-.536-1.595a.069.069 0 0 0-.031-.008zm16.49-67.66c-.25.009-.484.342-.673 1.017-.09.321-.348 1.056-.574 1.632s-.521 1.541-.656 2.146l-.246 1.1-1.75-.38c-2.902-.63-4.392-.894-4.546-.806-.08.045-.162.27-.181.497-.049.586.858 1.705 2.95 3.638 1.606 1.484 1.707 1.602 1.662 1.942-.026.2-.408 1.508-.85 2.908s-.785 2.618-.763 2.706c.023.088.27.163.55.168.497.008.533-.02 1.753-1.344a71.385 71.385 0 0 1 1.827-1.921l.581-.57 1.708 1.724c1.455 1.47 1.77 1.735 2.14 1.805.77.144.818-.178.272-1.823-.28-.845-.64-1.778-.8-2.074-.485-.9-.92-2.772-.67-2.883.694-.308 1.723-.877 2.536-1.404.512-.33 1.325-.776 1.807-.99.955-.426 1.113-.61.866-1.014-.277-.453-1.384-.675-3.259-.654l-1.802.02-.223-1.022a111.98 111.98 0 0 0-.575-2.44c-.325-1.314-.72-1.992-1.084-1.978zM173.9 619.81c-.142.005-.276.196-.384.58a12.96 12.96 0 0 1-.327.931 10.118 10.118 0 0 0-.375 1.226l-.14.627-.998-.216c-1.658-.36-2.507-.51-2.595-.46-.047.025-.093.153-.104.283-.028.334.49.973 1.684 2.076.916.847.974.915.948 1.11-.014.113-.233.86-.485 1.659s-.448 1.493-.435 1.543c.013.05.154.092.313.096.285.005.305-.011 1.001-.767.391-.424.86-.917 1.043-1.096l.331-.325.975.984c.83.838 1.01.99 1.221 1.03.44.082.467-.102.155-1.04-.16-.483-.365-1.015-.456-1.184-.277-.514-.524-1.583-.381-1.646.395-.175.982-.5 1.447-.8a9.224 9.224 0 0 1 1.03-.566c.546-.242.636-.348.495-.578-.158-.26-.79-.386-1.86-.373l-1.028.011-.128-.584a63.923 63.923 0 0 0-.328-1.392c-.186-.75-.41-1.137-.619-1.129zm799.32-54.61c-.38.015-.74.524-1.03 1.556-.137.491-.531 1.613-.876 2.493a27.06 27.06 0 0 0-1.003 3.281l-.376 1.681-2.673-.58c-4.438-.963-6.715-1.367-6.95-1.233-.124.07-.248.412-.277.76-.075.896 1.312 2.607 4.509 5.562 2.455 2.268 2.609 2.449 2.541 2.97-.04.304-.624 2.304-1.3 4.444-.675 2.14-1.2 4.001-1.166 4.135.035.135.413.25.84.257.76.012.815-.03 2.68-2.054 1.048-1.137 2.304-2.458 2.793-2.937l.888-.87 2.61 2.635c2.225 2.246 2.708 2.653 3.272 2.759 1.176.221 1.25-.273.416-2.787-.428-1.29-.979-2.717-1.222-3.17-.742-1.377-1.406-4.238-1.023-4.408 1.059-.47 2.631-1.34 3.875-2.144.782-.505 2.025-1.186 2.762-1.515 1.46-.65 1.7-.933 1.323-1.55-.423-.692-2.116-1.032-4.98-1l-2.755.032-.342-1.563c-.188-.86-.584-2.538-.879-3.73-.497-2.01-1.1-3.045-1.657-3.024zM799.21 353.93c-.142.006-.277.196-.385.582-.051.184-.2.604-.328.933a10.126 10.126 0 0 0-.376 1.228l-.14.629-1-.217c-1.661-.36-2.513-.512-2.601-.462-.046.027-.093.155-.104.285-.028.336.49.976 1.687 2.082.919.848.977.916.952 1.11-.015.115-.234.863-.487 1.664s-.45 1.498-.436 1.548c.013.05.154.092.314.096.284.005.305-.012 1.003-.77.392-.424.862-.92 1.044-1.098l.333-.326.977.986c.833.84 1.014.993 1.225 1.033.44.083.467-.102.155-1.043-.16-.483-.366-1.017-.457-1.186-.278-.516-.526-1.586-.383-1.65a12.06 12.06 0 0 0 1.45-.802c.293-.19.758-.444 1.034-.567.546-.243.637-.349.496-.58-.16-.26-.793-.386-1.865-.374l-1.031.011-.128-.585a63.902 63.902 0 0 0-.328-1.395c-.186-.752-.412-1.14-.621-1.132zM528.02 640.1l-.142 1.09a277 277 0 0 1-.487 3.434c-.19 1.289-.37 2.907-.401 3.596a43.89 43.89 0 0 1-.093 1.595c-.02.192-1.17.927-2.62 1.677-2.872 1.483-2.868 1.46-.337 2.125.867.228 1.916.673 2.33.989.735.56.757.625.896 2.666.079 1.15.208 2.69.288 3.42l.143 1.329.502-1.335a31.24 31.24 0 0 1 1.124-2.566c.867-1.713 2.266-3.73 2.703-3.898.202-.077.538-.141.748-.141.403 0 3.917 1.424 6.83 2.768.958.442 1.742.766 1.742.722 0-.335-2.365-3.939-3.315-5.053-.733-.86-1.18-1.592-1.18-1.939 0-.41.828-1.413 3.164-3.829 1.74-1.8 3.12-3.317 3.065-3.371-.162-.162-3.54 1.208-4.428 1.795-.765.507-4.81 1.94-5.475 1.94-.572 0-1.941-1.65-2.406-2.9-.59-1.586-1.357-2.905-2.085-3.585zm-118.56-6.01a.659.659 0 0 0-.141.028c-.26.078-.554.217-.653.309-.205.189-.736 3.3-1.129 6.619l-.263 2.228-2.36.4c-3.56.605-5.412 1.027-5.68 1.296-.174.173-.122.377.184.715.518.571 4.038 2.775 4.822 3.018.309.095 1.092.37 1.741.61l1.18.437.016 1.613c.032 3.172.335 5.513.777 6.003.228.253.573.43.766.393.47-.09 1.357-1.76 2.605-4.9.566-1.426 1.107-2.716 1.2-2.867.175-.285 2.187.095 5.761 1.089 2.07.574 3.408.58 3.587.015.157-.494-.203-1.538-.737-2.14-.208-.233-1.048-1.005-1.867-1.714l-1.49-1.288 2.438-2.303c1.341-1.267 2.502-2.5 2.578-2.742.274-.862-.082-1.499-.99-1.77-.968-.291-2.773.093-6.315 1.342-1.044.367-1.972.623-2.062.568-.09-.056-.338-.632-.55-1.28-.489-1.495-1.046-2.613-2.183-4.383-.66-1.028-.918-1.319-1.235-1.296zm336.36-74.51c-.215.008-.418.297-.581.879a19.64 19.64 0 0 1-.496 1.408 15.31 15.31 0 0 0-.567 1.854l-.212.95-1.51-.328c-2.506-.544-3.792-.773-3.925-.697-.07.04-.14.233-.157.43-.042.506.741 1.472 2.548 3.14 1.386 1.282 1.473 1.383 1.435 1.678-.022.172-.353 1.302-.735 2.51-.381 1.209-.678 2.26-.658 2.336.02.076.232.141.474.146.43.007.46-.018 1.514-1.161a62.138 62.138 0 0 1 1.577-1.659l.503-.491 1.474 1.488c1.256 1.268 1.53 1.498 1.848 1.558.664.125.706-.154.235-1.574-.242-.729-.553-1.535-.691-1.79-.419-.778-.794-2.394-.578-2.49.598-.266 1.486-.757 2.189-1.211a14.01 14.01 0 0 1 1.56-.856c.824-.367.96-.527.748-.875-.24-.392-1.196-.583-2.814-.565l-1.556.018-.193-.883a96.937 96.937 0 0 0-.496-2.106c-.281-1.136-.621-1.721-.936-1.71zm45.54 88.82c-.159.004-.443.14-.68.334-.698.567-.97 2.753-.882 7.106.067 3.341.044 3.578-.379 3.89-.247.182-2.095 1.147-4.106 2.144-2.01.996-3.715 1.908-3.788 2.026-.073.118.107.47.398.783.518.556.587.567 3.338.508 1.545-.033 3.369-.043 4.053-.023l1.243.037-.09 3.708c-.076 3.16-.035 3.79.28 4.27.656 1.001 1.063.712 2.296-1.632.634-1.203 1.28-2.589 1.438-3.079.478-1.489 2.08-3.95 2.468-3.793 1.072.438 2.79.968 4.231 1.307.906.213 2.26.637 3.007.941 1.48.601 1.851.58 2.034-.12.205-.786-.723-2.241-2.732-4.283l-1.933-1.964.89-1.33c.49-.73 1.425-2.18 2.079-3.218 1.859-2.95 1.52-4.202-.803-2.955-.45.241-1.532.735-2.405 1.097-.874.361-2.25 1.06-3.06 1.551l-1.473.894-1.435-2.329c-2.382-3.865-3.67-5.786-3.93-5.863a.194.194 0 0 0-.06-.007zm-509.34-76.34c-.169.006-.328.232-.456.689-.06.217-.236.714-.388 1.104a12.06 12.06 0 0 0-.445 1.453l-.166.745-1.185-.257c-1.965-.426-2.974-.606-3.079-.546-.054.03-.109.183-.122.338-.033.396.581 1.154 1.997 2.463 1.088 1.005 1.157 1.084 1.127 1.315-.018.135-.278 1.022-.577 1.97-.299.948-.531 1.772-.516 1.83.016.06.183.11.372.115.337.005.361-.014 1.187-.91a48.344 48.344 0 0 1 1.238-1.301l.393-.386 1.156 1.168c.986.995 1.2 1.175 1.45 1.222.52.098.553-.121.184-1.235-.19-.572-.434-1.204-.542-1.405-.328-.61-.623-1.876-.453-1.952a14.267 14.267 0 0 0 1.717-.95 10.92 10.92 0 0 1 1.224-.67c.646-.289.753-.414.586-.687-.188-.307-.937-.457-2.207-.443l-1.22.014-.152-.692a76.173 76.173 0 0 0-.389-1.652c-.22-.89-.487-1.35-.734-1.34zm692.93-161.18a.383.383 0 0 0-.16.036c-.195.087-.395.573-.648 1.58-.194.773-.214.825-.331.87-.068.028-.554.133-1.08.236-.524.103-.973.206-.997.23-.024.022 0 .113.042.204.084.16.1.167.736.326.358.09.777.201.933.249l.284.087-.253.847c-.216.722-.246.87-.203 1 .088.271.199.23.63-.231a6.8 6.8 0 0 0 .523-.618c.204-.313.727-.779.806-.718.22.168.581.397.892.566.195.106.48.288.633.405.303.231.389.249.475.1.096-.168-.027-.561-.36-1.157l-.321-.573.288-.25c.158-.138.464-.412.68-.61.612-.562.612-.871 0-.73a8.173 8.173 0 0 1-.622.101 6.433 6.433 0 0 0-.801.166l-.395.112-.184-.625c-.306-1.038-.481-1.561-.536-1.595a.069.069 0 0 0-.031-.008zM96.524 549.52c-.25.009-.484.342-.673 1.017-.09.321-.348 1.056-.574 1.632a17.674 17.674 0 0 0-.656 2.146l-.246 1.1-1.75-.38c-2.902-.63-4.392-.894-4.546-.806-.08.045-.162.27-.181.497-.05.586.858 1.705 2.95 3.638 1.605 1.484 1.707 1.602 1.662 1.942-.026.2-.408 1.508-.85 2.908s-.785 2.618-.763 2.706c.023.088.27.163.55.168.497.008.533-.02 1.753-1.344a71.305 71.305 0 0 1 1.827-1.921l.581-.57 1.708 1.724c1.455 1.47 1.77 1.735 2.14 1.805.77.144.818-.178.272-1.823-.28-.845-.64-1.778-.8-2.074-.485-.9-.92-2.772-.67-2.883.694-.308 1.723-.877 2.536-1.404.512-.33 1.325-.776 1.807-.99.955-.426 1.113-.61.866-1.014-.277-.453-1.385-.675-3.259-.654l-1.802.02-.223-1.022a111.98 111.98 0 0 0-.575-2.44c-.325-1.314-.72-1.992-1.084-1.978zM923.37 414.03c-.817.025-1.158.984-.838 2.36.157.68.306 1.65.33 2.155l.044.92-1.987.648a268.22 268.22 0 0 1-2.86.917c-.48.148-1.162.528-1.517.843-.47.42-.601.704-.485 1.054.143.425.523.503 3.398.691 1.78.117 3.844.345 4.584.507l1.345.294-.225.99c-.124.545-.327 1.93-.453 3.078-.125 1.148-.336 2.59-.47 3.202-.34 1.576-.145 2.453.56 2.498.315.02.816-.167 1.163-.436.846-.655 3.3-3.79 3.53-4.51l.191-.594 1.79.764c2.751 1.176 5.186 1.825 5.984 1.597.623-.178.672-.262.524-.904-.163-.706-.751-1.564-3.5-5.104l-1.456-1.875.74-.962c.405-.53 1.147-1.798 1.646-2.817.802-1.638.869-1.91.573-2.334-.273-.393-.502-.45-1.243-.315-.964.177-6.155 1.756-6.713 2.043-.2.102-.467-.01-.676-.285-2.165-2.848-3.594-4.437-3.979-4.425zm-.74 267.94c-.142.005-.276.196-.384.58-.05.184-.199.603-.327.931a10.118 10.118 0 0 0-.375 1.226l-.14.627-.998-.216c-1.658-.36-2.507-.51-2.596-.46-.046.025-.092.153-.103.283-.028.334.49.973 1.684 2.076.916.847.974.915.948 1.11-.015.113-.233.86-.485 1.659s-.448 1.493-.435 1.543c.013.05.154.092.313.096.284.005.305-.011 1.001-.767.391-.424.86-.917 1.043-1.096l.331-.325.975.984c.83.838 1.01.99 1.221 1.03.44.082.467-.102.155-1.04-.16-.483-.365-1.015-.456-1.184-.277-.514-.524-1.583-.381-1.646.395-.175.982-.5 1.446-.8a9.228 9.228 0 0 1 1.031-.566c.546-.242.636-.348.495-.578-.158-.26-.79-.386-1.86-.373l-1.028.011-.128-.584a63.923 63.923 0 0 0-.328-1.392c-.186-.75-.411-1.137-.619-1.129zM264.81 331.51c-.142.006-.277.196-.385.582-.051.184-.2.604-.328.933a10.126 10.126 0 0 0-.376 1.228l-.14.629-1-.217c-1.661-.36-2.513-.512-2.601-.462-.047.027-.093.155-.104.285-.028.336.49.976 1.687 2.082.919.848.977.916.952 1.11-.015.115-.235.863-.487 1.664s-.45 1.498-.436 1.548c.013.05.154.092.314.096.284.005.305-.012 1.003-.77.392-.424.862-.92 1.044-1.098l.333-.326.977.986c.833.84 1.014.993 1.225 1.033.44.083.467-.102.155-1.043-.16-.483-.366-1.017-.457-1.186-.278-.516-.526-1.586-.383-1.65.397-.176.985-.501 1.45-.802.293-.19.758-.444 1.034-.567.546-.243.637-.349.495-.58-.158-.26-.792-.386-1.864-.374l-1.031.011-.128-.585a63.902 63.902 0 0 0-.329-1.395c-.186-.752-.412-1.14-.62-1.132zm618.23-70.84c-.023-.003-.063.048-.09.113-.048.116-.045.127.152.535.11.23.236.502.28.606l.078.19-.562.239c-.479.204-.571.253-.621.333-.106.167-.035.209.4.234.224.013.476.015.56.006.256-.03.733.042.738.111.007.19.045.485.092.724.03.15.059.382.064.515.01.263.04.317.157.297.132-.023.286-.262.455-.702l.163-.424.26.043c.144.023.424.065.625.092.568.077.733-.059.388-.322a5.583 5.583 0 0 1-.329-.286 4.457 4.457 0 0 0-.44-.353l-.236-.16.252-.374c.417-.62.618-.944.612-.989-.004-.023-.048-.062-.1-.088-.133-.066-.479.042-1.126.351-.496.238-.533.25-.608.209a10.978 10.978 0 0 1-.602-.47c-.286-.233-.54-.426-.562-.43zm-25.89 79.12c-.215.008-.418.297-.581.879a19.64 19.64 0 0 1-.496 1.408 15.31 15.31 0 0 0-.567 1.854l-.212.95-1.51-.328c-2.506-.544-3.792-.773-3.925-.697-.07.04-.14.233-.157.43-.042.506.741 1.472 2.548 3.14 1.386 1.282 1.473 1.383 1.435 1.678-.022.172-.353 1.302-.735 2.51-.381 1.209-.678 2.26-.658 2.336.02.076.232.141.474.146.43.007.46-.018 1.514-1.161a62.138 62.138 0 0 1 1.577-1.659l.503-.491 1.474 1.488c1.256 1.268 1.53 1.498 1.848 1.558.664.125.706-.154.235-1.574-.242-.729-.553-1.535-.691-1.79-.419-.778-.794-2.394-.578-2.49.598-.266 1.486-.757 2.189-1.211a14.01 14.01 0 0 1 1.56-.856c.824-.367.96-.527.748-.875-.24-.392-1.196-.583-2.814-.565l-1.556.018-.193-.883a96.937 96.937 0 0 0-.496-2.106c-.281-1.136-.621-1.721-.936-1.71zM97.38 507.64c-.159.004-.443.14-.68.334-.698.567-.97 2.753-.882 7.106.067 3.341.044 3.578-.379 3.89-.247.182-2.095 1.147-4.105 2.144-2.011.996-3.716 1.908-3.789 2.026-.073.118.107.47.398.783.518.556.587.567 3.338.508 1.545-.033 3.369-.043 4.053-.023l1.243.037-.09 3.708c-.076 3.16-.035 3.79.28 4.27.656 1.001 1.063.712 2.296-1.632.634-1.203 1.28-2.589 1.438-3.079.478-1.489 2.08-3.95 2.468-3.793 1.072.438 2.79.968 4.231 1.307.906.213 2.26.637 3.007.941 1.48.601 1.85.58 2.034-.12.205-.786-.723-2.241-2.732-4.283l-1.933-1.964.89-1.33c.49-.73 1.425-2.18 2.079-3.218 1.859-2.95 1.52-4.202-.803-2.955-.45.241-1.532.735-2.405 1.097-.874.361-2.25 1.06-3.06 1.551l-1.473.894-1.435-2.329c-2.382-3.865-3.67-5.786-3.93-5.863a.194.194 0 0 0-.06-.007zm511.93-347.18a.387.387 0 0 0-.16.037c-.196.087-.395.572-.648 1.579-.195.773-.215.825-.331.87-.069.028-.554.134-1.08.237-.524.103-.974.205-.998.228-.024.023-.005.115.042.205.085.161.1.167.737.326a26.08 26.08 0 0 1 .933.25l.284.086-.254.847c-.215.722-.245.87-.203 1 .088.271.2.23.63-.231.222-.237.458-.516.525-.618.203-.313.726-.779.805-.718.22.168.581.397.891.566.195.106.48.288.633.405.303.231.39.249.476.1.096-.168-.026-.561-.36-1.157l-.322-.573.289-.25c.158-.137.464-.412.68-.61.611-.562.612-.87 0-.73a8.168 8.168 0 0 1-.622.102 6.466 6.466 0 0 0-.802.165l-.395.113-.184-.626c-.305-1.038-.48-1.561-.536-1.595a.066.066 0 0 0-.03-.008zM473.86 457.82c-.243.01-.473.334-.657.992-.088.313-.34 1.029-.56 1.59a17.07 17.07 0 0 0-.638 2.093l-.24 1.072-1.705-.37c-2.83-.615-4.282-.872-4.433-.787-.078.045-.158.263-.176.485-.048.571.837 1.662 2.876 3.546 1.565 1.447 1.664 1.563 1.62 1.895-.025.194-.398 1.47-.829 2.834-.43 1.365-.765 2.551-.743 2.637.022.086.263.16.535.164.485.008.52-.02 1.71-1.31a69.987 69.987 0 0 1 1.78-1.873l.567-.555 1.664 1.68c1.42 1.432 1.728 1.692 2.087 1.76.75.141.797-.174.265-1.777-.273-.824-.623-1.733-.78-2.022-.472-.878-.896-2.703-.652-2.81.675-.3 1.678-.855 2.471-1.368a15.764 15.764 0 0 1 1.762-.966c.93-.415 1.085-.595.844-.988-.27-.442-1.35-.659-3.177-.638l-1.757.02-.217-.997a109.13 109.13 0 0 0-.56-2.378c-.318-1.282-.702-1.942-1.057-1.929zm396.05 114.4c-.169.006-.328.232-.456.689-.06.217-.236.714-.388 1.104a12.06 12.06 0 0 0-.445 1.453l-.166.745-1.185-.257c-1.965-.426-2.974-.606-3.079-.546-.054.03-.109.183-.122.338-.033.396.581 1.154 1.997 2.463 1.088 1.005 1.157 1.084 1.127 1.315-.018.135-.278 1.022-.577 1.97-.299.948-.531 1.772-.516 1.83.016.06.183.11.372.115.337.005.361-.014 1.187-.91a48.344 48.344 0 0 1 1.238-1.301l.393-.386 1.156 1.168c.986.995 1.2 1.175 1.45 1.222.52.098.553-.121.184-1.235-.19-.572-.434-1.204-.542-1.405-.328-.61-.623-1.876-.453-1.952a14.267 14.267 0 0 0 1.717-.95 10.92 10.92 0 0 1 1.224-.67c.646-.289.753-.414.586-.687-.188-.307-.937-.457-2.207-.443l-1.22.014-.152-.692a76.173 76.173 0 0 0-.389-1.652c-.22-.89-.487-1.35-.734-1.34zm-367.7 31.48a.27.27 0 0 0-.11.025c-.135.06-.274.395-.449 1.09-.134.535-.148.571-.228.603-.047.018-.383.091-.746.163-.362.07-.673.142-.69.158-.017.015 0 .079.03.14.057.112.068.117.508.227.247.061.538.139.645.172l.196.06-.175.585c-.149.5-.17.6-.14.69.06.188.137.16.435-.159.153-.164.316-.356.362-.427.14-.216.502-.538.557-.496.151.116.401.275.615.391.135.074.332.2.437.28.21.16.27.173.33.07.066-.117-.019-.388-.25-.8l-.222-.395.2-.174a28.244 28.244 0 0 0 .47-.42c.422-.389.422-.603 0-.505a6.61 6.61 0 0 1-.43.07c-.155.02-.404.07-.554.114l-.273.078-.127-.432c-.211-.718-.332-1.079-.37-1.103a.049.049 0 0 0-.022-.005zm-80.26-173.23c-.25.009-.484.342-.673 1.017-.09.321-.348 1.056-.574 1.632s-.521 1.541-.656 2.146l-.246 1.1-1.75-.38c-2.902-.63-4.392-.894-4.546-.806-.08.045-.162.27-.181.497-.049.586.858 1.705 2.95 3.638 1.606 1.484 1.707 1.602 1.662 1.942-.026.2-.408 1.508-.85 2.908s-.785 2.618-.763 2.706c.023.088.27.163.55.168.497.008.533-.02 1.753-1.344a71.547 71.547 0 0 1 1.827-1.921l.581-.57 1.708 1.724c1.455 1.47 1.77 1.735 2.14 1.805.77.144.818-.178.272-1.823-.28-.845-.64-1.778-.8-2.074-.485-.9-.92-2.772-.67-2.883.694-.308 1.723-.877 2.536-1.404.512-.33 1.325-.776 1.807-.99.955-.426 1.113-.61.866-1.014-.277-.453-1.385-.675-3.259-.654l-1.802.02-.223-1.022a111.98 111.98 0 0 0-.575-2.44c-.325-1.314-.72-1.992-1.084-1.978zM579.1 283.24c-.345-.02-.838.286-1.458.947-.349.371-1.218 1.184-1.93 1.805a26.84 26.84 0 0 0-2.407 2.445l-1.11 1.317-2.102-1.75c-3.49-2.906-5.322-4.317-5.593-4.308-.142.005-.41.251-.598.546-.48.76-.042 2.918 1.427 7.017 1.128 3.146 1.181 3.378.88 3.808-.176.252-1.619 1.755-3.207 3.34-1.589 1.586-2.915 2.993-2.946 3.128-.031.134.25.412.625.615.669.363.737.35 3.326-.582 1.455-.523 3.18-1.114 3.835-1.312l1.19-.361 1.096 3.543c.934 3.02 1.174 3.605 1.625 3.96v-.001c.94.74 1.234.336 1.657-2.279.217-1.342.389-2.861.382-3.376-.02-1.563.714-4.408 1.132-4.381 1.156.073 2.953.028 4.428-.109.926-.086 2.343-.116 3.149-.066 1.594.099 1.94-.04 1.89-.762-.056-.81-1.4-1.894-3.955-3.19l-2.457-1.245.42-1.544c.231-.85.656-2.52.945-3.713.54-2.224.415-3.453-.244-3.492zm277.08 87.52c-.817.025-1.158.984-.838 2.36.157.68.306 1.65.33 2.155l.044.92-1.987.648a268.22 268.22 0 0 1-2.86.917c-.48.148-1.162.528-1.517.843-.47.42-.601.704-.485 1.054.143.425.523.503 3.398.691 1.78.117 3.844.345 4.584.507l1.345.294-.225.99c-.124.545-.327 1.93-.453 3.078-.125 1.148-.336 2.59-.47 3.202-.34 1.576-.145 2.453.56 2.498.315.02.816-.167 1.163-.436.846-.655 3.3-3.79 3.53-4.51l.191-.594 1.79.764c2.751 1.176 5.186 1.825 5.984 1.597.623-.178.672-.262.524-.904-.163-.706-.751-1.564-3.5-5.104l-1.456-1.875.74-.962c.405-.53 1.147-1.798 1.646-2.817.802-1.638.869-1.91.573-2.334-.273-.393-.502-.45-1.243-.315-.964.177-6.155 1.756-6.713 2.043-.2.102-.467-.01-.676-.285-2.165-2.848-3.594-4.437-3.979-4.425zM680.29 656.8c-.142.005-.276.196-.384.58a12.8 12.8 0 0 1-.327.931 10.118 10.118 0 0 0-.375 1.226l-.14.627-.998-.216c-1.658-.36-2.507-.51-2.595-.46-.046.025-.092.153-.104.283-.028.334.49.973 1.684 2.076.916.847.974.915.948 1.11-.015.113-.233.86-.485 1.659s-.448 1.493-.435 1.543c.013.05.154.092.313.096.284.005.305-.011 1.001-.767.391-.424.86-.917 1.043-1.096l.331-.325.975.984c.83.838 1.01.99 1.221 1.03.44.082.467-.102.155-1.04-.16-.483-.365-1.015-.456-1.184-.277-.514-.524-1.583-.382-1.646.396-.175.983-.5 1.447-.8a9.237 9.237 0 0 1 1.031-.566c.546-.242.636-.348.495-.578-.158-.26-.79-.386-1.86-.373l-1.028.011-.128-.584a63.923 63.923 0 0 0-.328-1.392c-.186-.75-.411-1.137-.619-1.129zm22.49-40.36a.433.433 0 0 0-.173.046c-.226.103-.277.214-.277.604 0 .508.32 3.3.414 3.61.033.111-.049.237-.208.318-1.653.836-2.596 1.416-2.626 1.613-.063.419.393.682 1.124.648.36-.017.869-.002 1.13.033l.472.063.144 1.073c.08.59.17 1.284.2 1.542s.16.642.288.852c.17.279.303.372.492.345.23-.032.304-.22.668-1.666.226-.896.535-1.926.687-2.287l.276-.659.483.207c.266.115.952.348 1.525.519.573.171 1.288.413 1.588.538.77.321 1.235.303 1.324-.052.04-.158-.009-.43-.113-.632-.255-.492-1.622-2.035-1.968-2.22l-.285-.153.556-.84c.856-1.292 1.415-2.471 1.373-2.899-.032-.334-.07-.367-.411-.351-.375.017-.867.236-2.927 1.306l-1.091.566-.422-.466c-.232-.257-.808-.753-1.28-1.102-.57-.42-.787-.56-.963-.556zM297.94 148.19c-.159.004-.443.14-.68.334-.698.567-.97 2.753-.882 7.106.067 3.341.044 3.578-.379 3.89-.247.182-2.095 1.147-4.106 2.144-2.01.996-3.715 1.908-3.788 2.026-.073.118.107.47.398.783.518.556.587.567 3.338.508 1.545-.033 3.369-.043 4.053-.023l1.243.037-.09 3.708c-.076 3.16-.035 3.79.28 4.27.656 1.001 1.063.712 2.296-1.632.634-1.203 1.28-2.589 1.438-3.079.478-1.489 2.08-3.95 2.468-3.793 1.072.438 2.79.968 4.231 1.307.906.213 2.26.637 3.007.941 1.48.601 1.851.58 2.034-.12.205-.786-.723-2.241-2.732-4.283l-1.933-1.964.89-1.33c.49-.731 1.425-2.18 2.079-3.218 1.859-2.95 1.52-4.202-.803-2.955-.45.241-1.532.735-2.405 1.097-.874.361-2.25 1.06-3.06 1.551l-1.473.894-1.435-2.329c-2.382-3.865-3.67-5.786-3.93-5.863a.194.194 0 0 0-.06-.007zm32.79 115.2c-.169.006-.328.232-.456.689-.06.217-.236.714-.388 1.104a12.06 12.06 0 0 0-.445 1.453l-.166.745-1.185-.257c-1.965-.426-2.974-.606-3.079-.546-.054.03-.109.183-.122.338-.033.396.581 1.154 1.997 2.463 1.088 1.005 1.157 1.084 1.127 1.315-.018.135-.278 1.022-.577 1.97-.299.948-.531 1.772-.516 1.83.016.06.183.11.372.115.337.005.361-.014 1.187-.91a48.344 48.344 0 0 1 1.238-1.301l.393-.386 1.156 1.168c.986.995 1.2 1.175 1.45 1.222.52.098.553-.121.184-1.235-.19-.572-.434-1.204-.542-1.405-.328-.61-.623-1.876-.453-1.952a14.267 14.267 0 0 0 1.717-.95 10.92 10.92 0 0 1 1.224-.67c.646-.289.753-.414.586-.687-.188-.307-.937-.457-2.207-.443l-1.22.014-.152-.692a76.173 76.173 0 0 0-.389-1.652c-.22-.89-.487-1.35-.734-1.34zm186.6 262.79a.383.383 0 0 0-.16.036c-.195.087-.395.573-.648 1.58-.195.773-.214.825-.331.87-.068.028-.554.133-1.08.236-.524.103-.973.206-.998.23-.024.022-.005.113.042.204.085.16.1.167.737.326.357.09.777.201.933.249l.284.087-.253.847c-.216.722-.246.87-.204 1 .089.271.2.23.63-.231.222-.237.458-.516.524-.618.204-.313.727-.779.806-.718.22.168.581.397.892.566.195.106.48.288.633.405.302.231.389.249.475.1.097-.168-.026-.561-.36-1.157l-.322-.573.289-.25c.158-.138.464-.412.68-.61.612-.562.612-.871 0-.73a8.183 8.183 0 0 1-.622.101 6.434 6.434 0 0 0-.801.166l-.395.112-.184-.625c-.306-1.038-.481-1.561-.536-1.595a.069.069 0 0 0-.032-.008zm-72.02 2.38a.27.27 0 0 0-.11.025c-.135.06-.274.395-.449 1.09-.134.535-.148.571-.228.603-.047.018-.383.091-.746.163-.362.07-.673.142-.69.158-.017.015 0 .079.03.14.057.112.068.117.508.227.247.061.538.139.645.172l.196.06-.175.585c-.149.5-.17.6-.14.69.06.188.137.16.435-.159.153-.164.316-.356.362-.427.14-.216.502-.538.557-.496.151.116.401.275.615.391.135.074.332.2.437.28.21.16.27.173.33.07.066-.117-.019-.388-.25-.8l-.222-.395.2-.174a28.244 28.244 0 0 0 .47-.42c.422-.389.423-.603 0-.505-.082.018-.276.05-.43.07s-.404.07-.554.114l-.273.078-.127-.432c-.211-.718-.332-1.079-.37-1.103a.049.049 0 0 0-.022-.005zm410.05 171.19c-.25.009-.484.342-.673 1.017-.09.321-.348 1.056-.574 1.632s-.521 1.541-.656 2.146l-.246 1.1-1.75-.38c-2.902-.63-4.392-.894-4.546-.806-.081.045-.162.27-.181.497-.05.586.858 1.705 2.95 3.638 1.606 1.484 1.707 1.602 1.662 1.942-.026.2-.408 1.508-.85 2.908s-.785 2.618-.763 2.706c.023.088.27.163.55.168.497.008.533-.02 1.753-1.344a71.224 71.224 0 0 1 1.827-1.921l.581-.57 1.708 1.724c1.455 1.47 1.77 1.735 2.14 1.805.77.144.818-.178.272-1.823-.28-.845-.64-1.778-.8-2.074-.485-.9-.92-2.772-.67-2.883.694-.308 1.723-.877 2.536-1.404.512-.33 1.325-.776 1.807-.99.955-.426 1.113-.61.866-1.014-.277-.453-1.384-.675-3.259-.654l-1.802.02-.223-1.022a111.98 111.98 0 0 0-.575-2.44c-.325-1.314-.72-1.992-1.084-1.978zM598.24 120.71c-.345-.02-.838.286-1.458.947-.349.371-1.218 1.184-1.93 1.805a26.84 26.84 0 0 0-2.407 2.445l-1.11 1.317-2.102-1.75c-3.49-2.906-5.322-4.317-5.593-4.308-.142.005-.41.251-.597.546-.481.76-.042 2.918 1.426 7.017 1.128 3.146 1.181 3.378.88 3.808-.176.252-1.619 1.755-3.207 3.34-1.589 1.585-2.915 2.993-2.946 3.128-.031.134.25.412.625.615.669.363.737.35 3.326-.582 1.455-.523 3.18-1.114 3.834-1.313l1.191-.36 1.096 3.543c.934 3.02 1.174 3.605 1.625 3.96v-.001c.94.74 1.234.336 1.657-2.279.217-1.342.389-2.862.382-3.376-.02-1.564.714-4.408 1.132-4.381 1.156.073 2.953.028 4.428-.109.926-.086 2.343-.116 3.149-.066 1.594.099 1.94-.04 1.89-.762-.056-.81-1.4-1.894-3.955-3.19l-2.457-1.245.42-1.544c.231-.85.656-2.52.945-3.714.54-2.223.415-3.452-.244-3.49zm-66.93 94.93c-.142.005-.276.196-.384.58a12.96 12.96 0 0 1-.327.931 10.118 10.118 0 0 0-.375 1.226l-.14.627-.998-.216c-1.658-.36-2.507-.51-2.595-.46-.047.025-.093.153-.104.283-.028.334.49.973 1.684 2.076.916.847.974.915.948 1.11-.014.113-.233.86-.485 1.659s-.448 1.493-.435 1.543c.013.05.154.092.313.096.285.005.305-.011 1.001-.767.391-.424.86-.917 1.043-1.096l.331-.325.975.984c.83.838 1.01.99 1.221 1.03.44.082.467-.102.155-1.04-.16-.483-.365-1.015-.456-1.184-.277-.514-.524-1.583-.381-1.646.395-.175.982-.5 1.447-.8a9.224 9.224 0 0 1 1.03-.566c.546-.242.636-.348.495-.578-.158-.26-.79-.386-1.86-.373l-1.028.011-.128-.584a63.923 63.923 0 0 0-.328-1.392c-.186-.75-.41-1.137-.619-1.129zm90.27 231.82a.433.433 0 0 0-.173.046c-.226.103-.277.214-.277.604 0 .508.32 3.3.414 3.61.033.111-.049.237-.208.318-1.653.836-2.596 1.416-2.626 1.613-.063.419.393.682 1.124.648.36-.017.869-.002 1.13.033l.472.063.144 1.073c.08.59.17 1.284.2 1.542s.16.642.288.852c.17.279.303.372.492.345.23-.032.304-.22.668-1.666.226-.896.535-1.926.687-2.287l.276-.659.483.207c.266.115.952.348 1.525.519.573.171 1.288.413 1.588.538.77.321 1.235.303 1.324-.052.04-.158-.009-.43-.113-.632-.255-.492-1.622-2.035-1.968-2.22l-.285-.153.556-.84c.856-1.292 1.415-2.471 1.373-2.899-.032-.334-.07-.367-.411-.351-.375.017-.867.236-2.927 1.306l-1.091.566-.422-.466c-.232-.257-.808-.753-1.28-1.102-.57-.421-.787-.56-.963-.556zM243.22 249.61l-.142 1.09a277 277 0 0 1-.487 3.434c-.19 1.289-.37 2.907-.401 3.596-.031.69-.073 1.407-.093 1.595-.02.192-1.17.927-2.621 1.677-2.871 1.483-2.867 1.46-.336 2.125.867.228 1.915.673 2.33.989.735.56.757.625.896 2.666.079 1.15.208 2.69.287 3.42l.144 1.329.502-1.335c.276-.735.782-1.89 1.124-2.566.867-1.713 2.266-3.73 2.703-3.898.201-.077.538-.141.747-.141.404 0 3.917 1.424 6.83 2.768.959.442 1.743.766 1.743.722 0-.335-2.365-3.939-3.315-5.053-.734-.86-1.18-1.592-1.18-1.939 0-.41.828-1.413 3.164-3.829 1.74-1.8 3.12-3.317 3.065-3.371-.162-.163-3.54 1.208-4.428 1.795-.766.507-4.81 1.94-5.475 1.94-.573 0-1.942-1.65-2.406-2.9-.59-1.586-1.357-2.905-2.086-3.585zm738.94 442.82a.659.659 0 0 0-.141.028c-.26.078-.553.217-.653.309-.205.189-.735 3.3-1.129 6.619l-.263 2.228-2.36.4c-3.56.605-5.412 1.027-5.681 1.296-.173.173-.12.377.185.715.518.571 4.038 2.775 4.822 3.018.309.095 1.092.37 1.741.61l1.18.437.016 1.613c.031 3.172.334 5.513.776 6.003.229.253.574.43.767.393.47-.09 1.356-1.76 2.605-4.9.566-1.426 1.106-2.716 1.199-2.867.176-.285 2.187.095 5.762 1.089 2.07.574 3.408.58 3.587.015.157-.494-.203-1.538-.737-2.14-.208-.233-1.048-1.005-1.868-1.714l-1.49-1.288 2.438-2.303c1.342-1.267 2.502-2.5 2.58-2.742.273-.862-.083-1.499-.991-1.77-.968-.291-2.773.093-6.316 1.342-1.044.367-1.971.623-2.062.568-.09-.056-.337-.632-.549-1.28-.49-1.495-1.046-2.613-2.183-4.383-.66-1.028-.918-1.319-1.236-1.296zM293.04 497.1a.27.27 0 0 0-.11.025c-.135.06-.274.395-.448 1.09-.135.535-.149.571-.23.603a11.11 11.11 0 0 1-.745.163c-.362.07-.673.142-.69.158-.016.015-.004.079.03.14.057.112.068.117.508.227.247.061.538.139.645.172l.196.06-.175.585c-.149.5-.17.6-.14.69.06.188.137.16.435-.159.153-.164.316-.356.362-.427.14-.216.502-.538.557-.496.151.116.401.275.615.391.135.074.332.2.437.28.21.16.27.173.33.07.066-.117-.018-.388-.25-.8l-.222-.395.2-.174a28.244 28.244 0 0 0 .47-.42c.422-.389.423-.603 0-.505-.083.018-.276.05-.43.07s-.404.07-.554.114l-.273.078-.127-.432c-.211-.718-.332-1.079-.37-1.103a.049.049 0 0 0-.022-.005zm501.23 52.95c-.25.009-.484.342-.673 1.017-.09.321-.348 1.056-.574 1.632a17.674 17.674 0 0 0-.656 2.146l-.246 1.1-1.75-.38c-2.902-.63-4.392-.894-4.546-.806-.08.045-.162.27-.181.497-.05.586.858 1.705 2.95 3.638 1.605 1.484 1.707 1.602 1.662 1.942-.026.2-.408 1.508-.85 2.908s-.785 2.618-.763 2.706c.023.088.27.163.55.168.497.008.533-.02 1.753-1.344a71.305 71.305 0 0 1 1.827-1.921l.581-.57 1.708 1.724c1.455 1.47 1.77 1.735 2.14 1.805.77.144.818-.178.272-1.823-.28-.845-.64-1.778-.8-2.074-.485-.9-.92-2.772-.67-2.883.694-.308 1.723-.878 2.536-1.404.512-.33 1.325-.776 1.807-.99.955-.426 1.113-.61.866-1.014-.277-.453-1.385-.675-3.259-.654l-1.802.02-.224-1.022a111.98 111.98 0 0 0-.574-2.44c-.325-1.314-.72-1.992-1.084-1.978zM651.5 343.02c-.345-.02-.838.286-1.458.947-.349.371-1.218 1.184-1.93 1.805a26.84 26.84 0 0 0-2.407 2.445l-1.11 1.317-2.102-1.75c-3.49-2.906-5.322-4.317-5.594-4.308-.141.005-.41.251-.597.546-.48.76-.041 2.918 1.427 7.017 1.128 3.146 1.181 3.378.88 3.808-.176.252-1.619 1.755-3.207 3.34-1.589 1.586-2.915 2.993-2.946 3.128-.031.134.25.412.625.615.669.363.737.35 3.327-.582 1.454-.523 3.179-1.114 3.834-1.312l1.19-.361 1.096 3.543c.934 3.02 1.175 3.605 1.625 3.96v-.001c.94.74 1.234.336 1.657-2.279.217-1.342.389-2.861.382-3.376-.02-1.563.714-4.408 1.132-4.381 1.156.073 2.953.028 4.428-.109.926-.086 2.343-.116 3.149-.066 1.594.099 1.94-.04 1.89-.762-.056-.81-1.4-1.894-3.955-3.19l-2.457-1.245.42-1.544c.231-.85.656-2.52.945-3.713.54-2.224.415-3.453-.244-3.492zm-147.64 76.66c-.38.015-.74.524-1.03 1.556-.137.491-.531 1.613-.876 2.493a27.06 27.06 0 0 0-1.003 3.281l-.376 1.681-2.673-.58c-4.438-.963-6.715-1.367-6.95-1.233-.124.07-.248.412-.277.76-.075.896 1.311 2.607 4.509 5.562 2.455 2.268 2.609 2.449 2.541 2.97-.04.304-.624 2.304-1.3 4.444s-1.2 4.001-1.166 4.135c.035.135.413.25.84.257.76.012.815-.03 2.68-2.054 1.048-1.137 2.304-2.458 2.793-2.937l.888-.87 2.61 2.635c2.225 2.246 2.708 2.653 3.272 2.759 1.176.221 1.25-.273.416-2.787-.428-1.29-.979-2.717-1.223-3.17-.74-1.377-1.405-4.238-1.022-4.408 1.059-.47 2.631-1.34 3.875-2.144.782-.505 2.025-1.186 2.762-1.515 1.46-.65 1.7-.933 1.323-1.55-.423-.692-2.116-1.032-4.98-1l-2.755.032-.342-1.563c-.188-.86-.584-2.538-.879-3.73-.497-2.01-1.1-3.045-1.657-3.024zm206.91 40.72-.142 1.09a277 277 0 0 1-.487 3.434c-.19 1.288-.37 2.907-.401 3.596a43.89 43.89 0 0 1-.093 1.595c-.02.192-1.17.927-2.62 1.677-2.872 1.483-2.868 1.46-.337 2.125.867.228 1.916.673 2.33.989.735.56.757.625.896 2.666.079 1.15.208 2.69.288 3.42l.143 1.329.502-1.335a31.24 31.24 0 0 1 1.124-2.566c.867-1.713 2.266-3.73 2.703-3.898.202-.077.538-.141.748-.141.403 0 3.917 1.424 6.83 2.768.958.442 1.742.766 1.742.722 0-.335-2.365-3.939-3.315-5.053-.733-.86-1.18-1.592-1.18-1.939 0-.41.828-1.413 3.164-3.829 1.74-1.8 3.12-3.317 3.065-3.371-.162-.162-3.54 1.208-4.428 1.795-.765.507-4.81 1.94-5.475 1.94-.572 0-1.941-1.65-2.406-2.9-.59-1.586-1.357-2.905-2.085-3.585zm93.43-202.46a.387.387 0 0 0-.16.037c-.196.087-.395.572-.648 1.579-.195.773-.215.825-.331.87-.068.028-.554.134-1.079.237-.525.103-.975.205-1 .228-.023.023-.01.115.043.205.084.161.1.167.736.326a26.08 26.08 0 0 1 .934.25l.284.086-.254.847c-.215.722-.245.87-.203 1 .088.271.2.23.63-.231a6.73 6.73 0 0 0 .524-.618c.204-.313.727-.779.805-.718.22.168.582.397.892.566.195.106.48.288.633.405.303.231.39.249.476.1.096-.168-.026-.561-.36-1.157l-.322-.573.288-.25c.159-.137.464-.412.68-.61.612-.562.613-.87 0-.73a8.165 8.165 0 0 1-.622.102 6.465 6.465 0 0 0-.801.165l-.395.113-.184-.626c-.306-1.038-.481-1.561-.536-1.595a.066.066 0 0 0-.031-.008zM614.05 594.02c-.243.01-.472.334-.657.992-.088.313-.34 1.029-.56 1.59a17.3 17.3 0 0 0-.638 2.093l-.24 1.072-1.705-.37c-2.83-.615-4.282-.872-4.433-.787-.078.045-.158.263-.176.485-.048.571.837 1.662 2.876 3.546 1.565 1.447 1.664 1.563 1.62 1.895-.026.194-.398 1.47-.829 2.834-.43 1.365-.765 2.551-.743 2.637.022.086.263.16.535.164.485.008.52-.02 1.71-1.31a69.922 69.922 0 0 1 1.78-1.873l.567-.555 1.664 1.68c1.42 1.432 1.728 1.692 2.087 1.76.75.141.797-.174.265-1.777-.273-.824-.623-1.733-.78-2.022-.472-.878-.896-2.703-.652-2.81.675-.3 1.678-.855 2.471-1.368a15.765 15.765 0 0 1 1.762-.966c.93-.415 1.085-.595.844-.988-.27-.442-1.35-.659-3.177-.638l-1.757.02-.217-.997a109.13 109.13 0 0 0-.56-2.378c-.318-1.282-.702-1.942-1.057-1.929zM116.67 323.13c-.169.006-.328.232-.456.689-.06.217-.236.714-.388 1.104a12.06 12.06 0 0 0-.445 1.453l-.166.745-1.185-.257c-1.965-.426-2.974-.606-3.078-.546-.054.03-.11.183-.123.338-.033.396.581 1.154 1.998 2.463 1.087 1.005 1.156 1.084 1.126 1.315-.018.135-.278 1.022-.577 1.97-.299.948-.531 1.772-.516 1.83.015.06.183.11.372.115.337.005.361-.014 1.187-.91a48.215 48.215 0 0 1 1.238-1.301l.393-.386 1.156 1.168c.986.995 1.2 1.175 1.45 1.222.52.098.553-.121.183-1.235-.19-.572-.433-1.204-.54-1.405-.33-.61-.624-1.876-.454-1.952a14.267 14.267 0 0 0 1.717-.95c.346-.223.897-.526 1.224-.67.646-.289.753-.414.585-.687-.187-.307-.937-.457-2.206-.443l-1.22.014-.152-.692a76.173 76.173 0 0 0-.389-1.652c-.22-.89-.487-1.35-.734-1.34zm229.91-78.77a.383.383 0 0 0-.16.036c-.195.087-.395.573-.648 1.58-.195.773-.214.825-.331.87-.068.028-.554.133-1.08.236-.524.103-.973.206-.998.23-.024.022-.005.113.042.204.085.16.1.167.737.326.357.09.777.201.933.249l.284.087-.253.847c-.216.722-.246.87-.204 1 .089.271.2.23.63-.231.222-.237.458-.516.524-.618.204-.313.727-.779.806-.718.22.168.581.397.892.566.195.106.48.288.633.405.302.231.389.249.475.1.097-.168-.026-.561-.36-1.157l-.322-.573.289-.25c.158-.138.464-.412.68-.61.612-.562.612-.871 0-.73a8.183 8.183 0 0 1-.622.101 6.434 6.434 0 0 0-.801.166l-.395.112-.184-.625c-.306-1.038-.481-1.561-.536-1.595a.069.069 0 0 0-.032-.008zm616.91 61.75a.27.27 0 0 0-.11.025c-.135.06-.274.395-.448 1.09-.135.535-.149.571-.23.603-.046.018-.382.091-.744.163-.363.07-.674.142-.69.158-.018.015 0 .079.028.14.058.112.07.117.51.227.246.061.537.139.644.172l.196.06-.175.585c-.149.5-.17.6-.14.69.06.188.137.16.435-.159.153-.164.316-.356.362-.427.14-.216.502-.538.557-.496.151.116.401.275.615.391.135.074.332.2.437.28.21.16.27.173.33.07.066-.117-.019-.388-.25-.8l-.222-.395.2-.174a28.244 28.244 0 0 0 .47-.42c.422-.389.423-.603 0-.505-.083.018-.276.05-.43.07s-.404.07-.554.114l-.273.078-.127-.432c-.211-.718-.332-1.079-.37-1.103a.049.049 0 0 0-.022-.005zM231.23 550.65c-.346-.02-.838.286-1.458.947-.349.371-1.218 1.184-1.93 1.805a26.84 26.84 0 0 0-2.407 2.445l-1.11 1.317-2.102-1.75c-3.49-2.906-5.322-4.317-5.594-4.308-.141.005-.41.251-.597.546-.48.76-.041 2.918 1.427 7.017 1.128 3.146 1.181 3.378.88 3.808-.176.252-1.619 1.755-3.207 3.34-1.589 1.586-2.915 2.993-2.946 3.128-.031.134.25.412.625.615.669.363.737.35 3.327-.582 1.454-.523 3.179-1.114 3.834-1.312l1.19-.361 1.096 3.543c.934 3.02 1.175 3.605 1.625 3.96v-.001c.94.74 1.234.336 1.657-2.279.217-1.342.389-2.861.382-3.376-.02-1.563.714-4.408 1.132-4.381 1.156.073 2.953.028 4.428-.109.926-.086 2.343-.116 3.149-.066 1.594.099 1.94-.04 1.89-.762-.055-.81-1.4-1.894-3.955-3.19l-2.457-1.245.42-1.544c.231-.85.656-2.52.946-3.713.54-2.224.415-3.453-.245-3.492zM59.61 467.66c-.38.015-.74.524-1.03 1.556-.137.491-.531 1.613-.876 2.493-.345.88-.796 2.357-1.003 3.281l-.376 1.681-2.673-.58c-4.438-.963-6.715-1.367-6.95-1.233-.124.07-.248.412-.277.76-.075.896 1.312 2.607 4.509 5.562 2.455 2.268 2.609 2.449 2.541 2.97-.04.304-.624 2.304-1.3 4.444s-1.2 4.001-1.166 4.135c.035.135.413.25.84.257.76.012.815-.03 2.68-2.054 1.048-1.137 2.304-2.458 2.793-2.937l.888-.87 2.61 2.635c2.225 2.246 2.708 2.653 3.272 2.759 1.176.221 1.25-.273.416-2.787-.428-1.29-.979-2.717-1.223-3.17-.741-1.377-1.405-4.238-1.023-4.408 1.06-.47 2.632-1.34 3.876-2.144.782-.505 2.024-1.186 2.761-1.515 1.46-.65 1.702-.933 1.324-1.55-.423-.692-2.116-1.032-4.98-1l-2.756.032-.341-1.563c-.188-.86-.584-2.538-.879-3.73-.498-2.01-1.1-3.045-1.657-3.024zm546.25-231.42a.433.433 0 0 0-.173.046c-.226.103-.277.214-.277.604 0 .508.32 3.3.414 3.61.034.111-.048.237-.208.318-1.653.836-2.596 1.416-2.626 1.613-.063.419.393.682 1.124.648.36-.017.869-.002 1.13.033l.472.063.144 1.073c.079.59.17 1.284.2 1.542s.16.642.288.852c.17.279.303.372.492.345.23-.032.304-.22.668-1.666.226-.896.535-1.926.687-2.287l.275-.659.484.207c.266.115.952.348 1.525.52.573.17 1.288.412 1.588.537.77.321 1.235.303 1.324-.052.04-.158-.01-.43-.113-.632-.255-.492-1.623-2.035-1.968-2.22l-.285-.153.556-.84c.856-1.292 1.415-2.471 1.373-2.899-.033-.334-.07-.367-.412-.351-.374.017-.866.236-2.927 1.306l-1.09.566-.422-.466c-.232-.257-.808-.753-1.28-1.102-.57-.42-.787-.56-.963-.556zM978.95 491.2c-.142.006-.277.196-.385.582-.051.184-.2.604-.328.933a10.126 10.126 0 0 0-.376 1.228l-.14.629-1-.217c-1.661-.36-2.513-.512-2.601-.462-.047.027-.093.155-.104.285-.028.336.49.976 1.687 2.082.919.848.977.916.952 1.11-.015.115-.235.863-.487 1.664s-.45 1.498-.436 1.548c.013.05.154.092.314.096.284.005.305-.012 1.003-.77.392-.424.862-.92 1.044-1.098l.333-.326.977.986c.833.84 1.014.993 1.225 1.033.44.083.467-.102.155-1.043-.16-.483-.366-1.017-.457-1.186-.278-.516-.526-1.586-.383-1.65.397-.176.985-.501 1.45-.802.293-.19.758-.444 1.034-.567.546-.243.637-.349.495-.58-.158-.26-.792-.386-1.864-.374l-1.031.011-.128-.585a63.902 63.902 0 0 0-.329-1.395c-.186-.752-.412-1.14-.62-1.132zM585.47 760.31l-.142 1.09c-.078.6-.297 2.145-.486 3.434-.19 1.289-.371 2.907-.402 3.596-.031.69-.073 1.407-.093 1.595-.02.192-1.17.927-2.621 1.677-2.871 1.483-2.867 1.46-.336 2.125.867.228 1.915.673 2.33.989.735.56.757.625.896 2.666.079 1.15.208 2.69.287 3.42l.144 1.329.502-1.335a31.45 31.45 0 0 1 1.124-2.566c.867-1.713 2.266-3.73 2.703-3.898.202-.077.538-.141.747-.141.404 0 3.918 1.424 6.83 2.768.959.442 1.743.766 1.743.722 0-.335-2.365-3.939-3.315-5.053-.734-.86-1.18-1.592-1.18-1.939 0-.41.828-1.413 3.164-3.829 1.74-1.8 3.12-3.317 3.065-3.371-.162-.163-3.54 1.208-4.428 1.795-.765.507-4.81 1.94-5.475 1.94-.573 0-1.941-1.65-2.406-2.9-.59-1.586-1.357-2.905-2.086-3.585zm90.35-33.02a.659.659 0 0 0-.141.028c-.26.078-.553.217-.653.309-.204.189-.735 3.3-1.129 6.619l-.263 2.228-2.36.4c-3.56.605-5.412 1.027-5.68 1.296-.174.173-.121.377.184.715.518.571 4.038 2.775 4.823 3.018.308.095 1.091.37 1.74.61l1.18.437.016 1.613c.032 3.172.335 5.513.777 6.003.228.253.573.43.766.393.47-.09 1.357-1.76 2.605-4.9.566-1.426 1.107-2.716 1.2-2.867.176-.285 2.187.095 5.762 1.089 2.069.574 3.407.58 3.586.015.157-.494-.203-1.538-.737-2.14-.207-.233-1.047-1.005-1.867-1.714l-1.49-1.288 2.438-2.303c1.341-1.267 2.502-2.5 2.578-2.742.274-.862-.082-1.499-.99-1.77-.968-.291-2.773.093-6.315 1.342-1.044.367-1.972.623-2.062.568-.09-.056-.338-.632-.55-1.28-.489-1.495-1.046-2.613-2.183-4.383-.66-1.028-.918-1.319-1.235-1.296zm-83.15-212.08c-.215.008-.418.297-.581.879a19.64 19.64 0 0 1-.496 1.408 15.31 15.31 0 0 0-.567 1.854l-.212.95-1.51-.328c-2.506-.544-3.792-.773-3.925-.697-.07.04-.14.233-.157.43-.042.506.741 1.472 2.547 3.14 1.387 1.282 1.474 1.383 1.435 1.678-.022.172-.352 1.302-.734 2.51-.382 1.209-.678 2.26-.658 2.336.019.076.232.141.473.146.43.007.461-.018 1.515-1.161a62.302 62.302 0 0 1 1.577-1.659l.502-.491 1.474 1.488c1.257 1.268 1.53 1.498 1.848 1.558.665.125.706-.154.235-1.574-.242-.729-.553-1.535-.69-1.79-.42-.778-.795-2.394-.579-2.49.599-.266 1.487-.757 2.19-1.211.441-.286 1.143-.67 1.56-.856.824-.367.96-.527.747-.875-.24-.392-1.195-.583-2.813-.565l-1.556.018-.193-.883a96.937 96.937 0 0 0-.496-2.106c-.282-1.136-.621-1.721-.936-1.71z" fill="#fff"/>
</svg>
