<svg xml:space="preserve" viewBox="0 0 266.435 535.568" xmlns="http://www.w3.org/2000/svg">
    <path d="M123.049 533.563c-5.443-.186-10.961-.458-16.23-1.938-1.747-.539-3.31-1.53-4.744-2.643-.413 1.71-2.518 2.769-4.066 1.8-2.268-1.395-3.132-4.118-4.086-6.46-2.007-5.057-3.265-10.441-3.271-15.9-.043-6.438.407-12.868.586-19.302.894-22.97 1.646-45.956 2.421-68.943.394-10.053.819-20.14 2.56-30.068.599-4.11 1.364-8.203 1.768-12.336.488-12.642.545-25.297.69-37.946.172-22.277.362-44.556.11-66.833-.057-3.604-.116-7.22-.603-10.795-10.43.418-20.87.614-31.304.903-3.898-1.914-7.924-3.659-11.373-6.347-6.793-5.035-12.883-11.021-18.13-17.648-3.502-4.371-5.98-9.43-8.668-14.313-2.355-4.502-4.81-8.953-7.246-13.41a148.368 148.368 0 0 1-7.742-19.73c-1.21-4.57-2.865-9.003-4.656-13.37-1.32-3.72-2.45-7.566-2.532-11.541-1.11-18.665-1.14-37.371-1.854-56.052-.222-5.294-.324-10.694-1.029-15.988A362.499 362.499 0 0 1 1.98 64.53c-.1-12.11 2.85-23.982 6.279-35.515 2.113-6.746 4.486-13.652 9.04-19.185 2.81-3.206 6.323-6.013 10.458-7.254 5.097-1.478 10.428.141 15.177 2.05 3.928 1.56 7.51 4.317 9.352 8.197 2.044 4.2 2.798 8.888 3.343 13.485.704 7.945-.645 15.875-1.786 23.713-.83 5.417-1.826 10.883-2.476 16.233a93.39 93.39 0 0 0-.485 5.77c-.138 2.663-.183 5.68-.2 8.524-.135 16.517.218 33.013 1.451 49.435.467 5.49.86 11.139 2.413 16.517a103.17 103.17 0 0 0 1.93 6.345c3.733 10.945 8.502 21.512 13.681 31.841 3.061 5.814 6.29 11.666 10.82 16.482.734.79 1.851 1.706 2.549 2.195 2.554 1.757 5.429 3.249 8.158 4.442 1.046.452 2.452 1.019 3.696 1.347 1.061.265 2.146.416 3.218.627-.977-7.054-.652-14.195-.193-21.276.568-9.681.84-19.392 2.106-29.017 1.237-9.714 2.712-19.433 5.244-28.905.949-3.85 2.897-7.362 5.27-10.511 3.673-4.88 7.998-9.377 13.165-12.684 2.886-1.769 6.29-2.813 9.687-2.732 4.34.204 7.8 3.24 10.754 6.129 3.479 3.338 6.782 7.082 8.401 11.705 2.319 6.405 2.695 13.293 3.08 20.033.607 14.31.25 28.64-.003 42.954-.431 21.442-1.166 42.877-1.61 64.32-.115 6.648-.111 13.357.213 19.917.445 8.861 1.428 17.611 2.37 26.453.471 3.89.747 7.83 1.594 11.721.365 1.814 2.056 3.227 3.917 3.214 4.03.188 8.067.355 12.073.877 5.942.52 11.812-1.71 16.533-5.217 3.679-2.467 6.403-6.07 8.46-9.946 3.79-6.687 6.369-14.053 7.466-21.665.397-2.589.66-5.214.82-7.647.749-11.625-.201-23.164-1.071-34.765-1.177-18.296-1.075-36.642-1.024-54.967.126-4.11-.137-8.326 1.023-12.317 1.533-4.528 3.85-9.09 7.945-11.806 5.223-3.51 11.685-5.506 17.992-4.694 3.683.51 6.945 2.58 9.76 4.907 4.427 3.98 7.46 9.193 10.57 14.2 2.31 3.81 4.365 7.914 4.827 12.407.63 5.72 1.333 11.438 2.56 17.066 2.03 8.073 2.613 16.42 2.704 24.719.054 2.636.253 5.3.443 8.013.472 5.266.862 10.545.72 15.836a226.923 226.923 0 0 1-4.157 38.895c-1.481 7.719-4.102 15.146-6.286 22.68-3.207 10.446-6.128 20.991-9.895 31.254-1.849 4.89-4.156 9.907-8.399 13.185-3.27 2.5-6.764 4.696-10.162 7.016-4.231 2.384-8.878 3.913-13.447 5.51-5.755 1.912-11.599 3.668-17.637 4.412-6.369 1.017-12.897.92-19.186 2.436-2.862 1.02-5.87 1.49-8.832 2.097-5.453 1.466-9.376 6.193-11.408 11.271-.868 2.094-1.334 4.076-1.994 6.265-2.08 7.34-3.634 15.118-4.193 22.835-.996 13.51.014 27.059.916 40.545.978 14.343 2.099 28.685 2.426 43.061.221 6.665-.887 13.457-3.917 19.444-3.383 6.819-9.091 12.56-16.078 15.647-2.888 1.11-6.064.888-9.097.91z"/>
    <path d="M32.289.01c-5.641-.208-10.86 2.793-14.758 6.658-5.368 5.31-8.199 12.526-10.49 19.577C3.43 37.87.33 49.82 0 62.055c-.036 10.962.634 21.92 1.657 32.832.341 2.603.553 5.382.691 7.899.909 19.08.956 38.246 1.832 57.359.301 4.08.145 8.223 1.059 12.234 1.14 5.573 3.821 10.647 5.459 16.067a148.765 148.765 0 0 0 6.838 19.156c1.664 4.065 3.885 7.855 5.976 11.707 3.444 6.237 6.506 12.707 10.498 18.623 5.378 7.392 11.888 13.953 19.12 19.537 3.977 3.28 8.703 5.423 13.314 7.647 9.987-.27 19.977-.479 29.96-.852.17 1.66.253 3.328.298 4.996.314 16.967.201 33.94.115 50.908-.147 17.913-.176 35.83-.7 53.737.023 4.904-.96 9.724-1.667 14.556-1.633 9.154-2.257 18.446-2.631 27.725-.842 22.689-1.513 45.39-2.4 68.062-.228 7.322-.642 14.57-.762 21.903a45.005 45.005 0 0 0 2.57 16.654c1.276 3.176 2.162 6.809 4.908 9.088 1.764 1.697 4.753 1.633 6.487-.072a16.163 16.163 0 0 0 2.785 1.43c5.677 1.848 11.715 2.083 17.636 2.312 3.05-.01 6.184.148 9.127-.799 5.659-2.213 10.537-6.22 14.211-11.025 5.174-6.707 7.67-15.2 7.776-23.612-.141-12.79-1.064-25.553-1.932-38.31-.889-13.662-2.122-27.181-1.771-40.865.071-2.748.24-5.703.449-8.25.758-8.466 2.649-16.795 5.156-24.905 1.534-5.086 4.82-10.114 9.996-12.013 2.76-.78 5.645-1.07 8.387-1.942 1.474-.535 3.213-.848 4.637-1.074 4.008-.625 8.065-.83 12.093-1.28 6.088-.608 12.091-1.914 17.912-3.79 5.743-1.877 11.554-3.708 16.905-6.557a208.057 208.057 0 0 0 9.797-6.625c4.468-3.02 7.322-7.806 9.285-12.72 3.817-9.744 6.611-19.845 9.676-29.84 2.24-7.748 4.867-15.373 6.738-23.227 2.961-13.68 4.524-27.653 4.885-41.64.32-7.44-.64-14.839-1.04-22.253-.193-6.17-.258-12.363-1.109-18.49-.487-4.3-1.645-8.475-2.43-12.72-.723-3.955-1.23-7.995-1.687-12.063-.298-4.547-1.96-8.882-4.234-12.793-3.037-5.042-6.015-10.206-10.057-14.53-3.04-3.177-6.823-5.817-11.113-6.954-6.733-1.461-13.854.355-19.674 3.86-4.364 2.413-7.349 6.687-9.147 11.245-2.07 4.507-1.947 9.556-2.01 14.402-.072 19.927-.224 39.887 1.286 59.77.784 10.634 1.504 21.243.717 31.812-.528 7.63-2.123 15.232-5.307 22.211-2.105 4.442-4.32 9.006-7.924 12.446-4.566 4.127-10.507 7.178-16.789 7.01-3.627-.347-7.257-.704-10.902-.833-1.362-.192-3.19.32-4.055-1.086-.571-1.366-.647-2.901-.912-4.353-1.003-8.144-1.846-16.406-2.602-24.516-.736-8.166-1.011-16.238-.945-24.437.29-19.666.99-39.323 1.441-58.985.333-16.67.849-33.349.358-50.021-.309-7.222-.55-14.552-2.53-21.55-1.142-4.407-3.52-8.404-6.591-11.737-3.039-3.17-6.099-6.518-10.076-8.518-4.138-2.153-9.117-1.478-13.254.301-4.16 1.883-7.655 4.953-10.871 8.139-4.312 4.548-8.425 9.565-10.489 15.57-2.393 8.091-3.812 16.438-5.031 24.777-1.305 8.64-2.072 17.349-2.477 26.075-.374 9.468-1.5 18.96-.619 28.433-.924-.175-1.853-.544-2.748-.889-3.628-1.535-7.258-3.275-10.29-5.826-4.85-4.715-8.092-10.761-11.247-16.672-5.758-11.54-11.118-23.342-14.902-35.693-1.755-5.428-2.413-11.12-2.846-16.785-1.099-13.713-1.528-27.33-1.596-41.088.001-6.22-.065-12.513.239-18.648.107-1.707.249-3.622.443-5.192.517-4.242 1.261-8.587 1.947-12.883 1.257-8.49 2.872-17.028 2.448-25.65-.353-4.845-1.111-9.728-2.885-14.273-1.6-4.4-5.039-7.977-9.211-10.036C41.456 1.72 36.955.131 32.289.01zm-.125 3.986c2.336.031 4.915.608 7.978 1.694C48.65 8.705 51.49 12.57 53.26 23.54c1.151 7.134.678 13.729-2.281 31.757-2.205 13.435-2.327 15.196-2.322 33.453.005 18.977 1.018 40.104 2.445 51.026 1.196 9.149 6.747 24.27 15.576 42.43 5.456 11.221 10.688 18.991 15.004 22.283 3.635 2.771 10.87 6.257 14.14 6.812 1.576.267 3.38.624 4.009.793 1.004.27 1.062-.326.48-4.97-.364-2.905-.462-8.719-.219-12.919.244-4.2.732-13.2 1.086-20 .853-16.384 4.998-40.982 7.961-47.26 3.558-7.535 13.221-17.327 19.045-19.298 6.199-2.099 9.326-1.119 15.28 4.789 12.125 12.033 12.357 15.005 9.417 121.043-.861 31.086-.676 36.385 2.211 62.898 1.31 12.018 1.573 13.228 3.246 14.9 1.533 1.534 2.567 1.841 6.53 1.942 2.589.066 6.27.335 8.18.598 6 .825 11.93-.595 17.48-4.186 5.825-3.768 8.366-6.784 12.406-14.732 7.021-13.81 8.623-28.563 6.27-57.783-.923-11.458-1.334-24.215-1.371-42.547-.053-25.786-.03-26.246 1.638-30.375 2.252-5.577 4.58-8.191 9.506-10.678 5.88-2.968 12.78-3.616 16.95-1.592 5.388 2.616 8.333 5.694 13.859 14.485 8.736 13.9 4.53 11.486 8.925 32.209 1.952 7.832 2.41 15.722 2.518 23.406-.003 2.1.374 8 .838 13.111 1.398 15.401-1.57 43.94-6.145 59.07-.967 3.2-3.63 12.037-5.914 19.637-9.222 30.68-10.561 33.492-18.498 38.815a824.728 824.728 0 0 0-6.73 4.562c-3 2.067-14.866 6.37-23.674 8.586-3.27.823-9.98 1.791-14.91 2.152-4.93.362-10.271 1.132-11.871 1.713-1.6.581-4.547 1.294-6.547 1.586-7.213 1.053-13.003 6.867-15.662 15.723-6.057 20.172-6.902 32.863-4.451 66.863 1.954 27.12 2.714 42.175 2.423 48-.616 12.355-6.984 22.817-17.207 28.272-2.423 1.293-4.033 1.531-9.818 1.449-3.806-.054-9.115-.496-11.799-.983-5.019-.909-5.634-1.217-10.695-5.345-1.635-1.334-2.973-2.282-2.973-2.108 0 .174.372 1.378.824 2.676.617 1.77.99 2.117 1.493 1.383.497-.726.612-.604.441.475-.443 2.789-2.366 1.502-4.033-2.7-3.247-8.182-3.952-12.468-3.606-21.908.179-4.866.684-18.337 1.125-29.937a8119.94 8119.94 0 0 0 1.563-45.455c.561-18.004 1.153-26.832 2.264-33.819.826-5.2 1.821-11.745 2.21-14.545.806-5.79 1.43-102.74.727-112.728-.42-5.976-.588-6.532-1.916-6.397-.8.082-8.186.32-16.412.532l-14.957.384-5.043-2.46c-7.497-3.659-19.498-14.847-25.62-23.887-1.146-1.694-4.062-6.844-6.48-11.444-2.417-4.6-5.074-9.51-5.904-10.91-2.414-4.073-7.278-16.248-8.936-22.367-.839-3.098-2.455-7.772-3.591-10.389-1.137-2.616-2.439-6.871-2.893-9.455-.454-2.583-1.13-18.77-1.502-35.97-.372-17.2-.972-33.564-1.332-36.364-1.299-10.109-2.386-31.417-1.94-37.996.582-8.557 1.95-15.73 5.172-27.117 3.669-12.963 7.166-19.947 12.1-24.162 3.695-3.156 6.92-4.622 10.815-4.57zM30.482 20.49c-.964-.03-1.977.78-1.977 1.912 0 .732.397 1.729.883 2.215.693.692 1.098.472 1.883-1.026.681-1.3.764-2.145.258-2.652a1.52 1.52 0 0 0-1.047-.45zm1.764 18.808c-.369 0-1.432.616-2.362 1.37-1.509 1.221-1.594 1.58-.797 3.33 1.062 2.33 2.33 2.116 3.66-.616.982-2.013.727-4.084-.501-4.084zM16.833 60.454c-.319.02-.755.227-1.343.6-1.255.793-.528 2.97.992 2.97.703 0 1.113-.67 1.113-1.819 0-1.237-.193-1.788-.762-1.751zm17.618 15.933c-1.495 0-2.625 1.812-1.881 3.016.763 1.234 2.835.3 3.076-1.387.173-1.213-.133-1.629-1.195-1.629zm-18.27 8.147c-.292-.001-.606.13-.898.421-.49.49-.45 1.258.123 2.327.93 1.738 1.623 1.492 1.957-.694.182-1.19-.435-2.051-1.182-2.054zm19.627 17.459c-1.141-.02-2.368 1.848-1.861 3.445.655 2.065 2.846 1.653 3.166-.596.134-.942-.114-2.07-.551-2.508-.232-.232-.49-.337-.754-.341zm-11.867 4.253c-.372 0-.878.14-1.559.4-1.353.52-1.512 2.544-.295 3.76 1.186 1.187 2.782-.232 2.782-2.472 0-1.171-.219-1.686-.928-1.688zm111.162 23.233c-2.039 0-2.362.67-.988 2.045 1.117 1.117 2.32.736 2.625-.832.17-.879-.28-1.213-1.637-1.213zm-96.78 4.363c-1.549 0-1.818.335-1.818 2.26 0 1.71.265 2.159 1.09 1.842.6-.23 1.115-.02 1.143.467.071 1.234 1.289-1.735 1.351-3.295.036-.887-.5-1.274-1.765-1.274zm-19.001 5.092c-1.914.059-2.395 1.949-.854 3.49 1.173 1.173 1.794 1.1 2.323-.277.865-2.255.454-3.213-1.377-3.213h-.092zm98.353 5.453c-2.76 0-3.924 1.804-2.783 4.309 1.034 2.27 3.425 2.47 4.543.38.44-.82.695-2.21.57-3.09-.174-1.225-.718-1.599-2.33-1.599zm22.08 6.182c-1.83 0-2.626 1.834-1.423 3.283 1.154 1.391 1.906 1.37 2.459-.068.81-2.112.456-3.215-1.036-3.215zm-93.088 12.365c-1.426.071-2.584 2.364-1.802 3.629.599.97 1.339.927 2.404-.139 1.382-1.382 1.06-3.49-.533-3.49h-.069zm176.202 2.182c-1.777 0-2.156 1.371-.764 2.763 1.437 1.437 2.618.992 2.506-.945-.08-1.369-.51-1.818-1.742-1.818zm-100.442 1.457c-.444.014-.904.252-1.215.756-.58.939 1.035 3.01 1.92 2.462.355-.219.645-1.034.645-1.81 0-.908-.656-1.43-1.35-1.408zm-98.226.724c-1.744 0-2.97 1.032-2.97 2.502 0 2.729 1.126 3.293 2.626 1.317 1.114-1.469 1.326-3.819.344-3.819zm215.27 3.637c-2.034 0-2.375.99-.95 2.746.678.836 1.274 1.46 1.324 1.387.05-.073.309-1.033.572-2.133.4-1.665.24-2-.947-2zm-97.96 4.363c-1.274.053-2.053 1.751-1.474 3.26.627 1.635 2.65.475 2.65-1.52 0-1.077-.423-1.74-1.113-1.74h-.063zm80.352 4.399c-.766-.021-1.557.36-1.864 1.16-.63 1.643 1.76 3.413 3.02 2.236.496-.464.75-1.425.564-2.137-.212-.813-.954-1.238-1.72-1.26zm-110.438 6.01c-.304-.006-.652.065-1.037.212-1.526.586-1.473 2.219.102 3.1 1.568.878 2.379.416 2.379-1.357 0-1.256-.53-1.94-1.444-1.956zm137.487 3.41c-1.779 0-2.45 1.052-1.86 2.914.373 1.175.724 1.306 1.865.695.774-.414 1.407-1.396 1.407-2.182 0-.93-.494-1.427-1.412-1.427zm-206.455.744a3.145 3.145 0 0 0-1.993.742c-1.46 1.212-1.312 2.615.463 4.39 1.455 1.456 1.57 1.463 2.944.22.875-.793 1.347-2.013 1.214-3.15-.16-1.38-1.338-2.21-2.628-2.202zm92.935 1.437c-2.035 0-2.728 2.149-1.08 3.354 1.674 1.224 2.557.68 2.557-1.578 0-1.3-.395-1.776-1.477-1.776zm96.334 3.637c-1.067.047-1.427 1.552-.555 2.424.922.922 1.698.478 1.698-.97 0-.809-.486-1.454-1.092-1.454h-.051zm-175.559 5.09c-1.884 0-2.685 1.821-1.453 3.306 1.277 1.539 2.475.944 2.748-1.363.185-1.562-.068-1.943-1.295-1.943zm161.483 4.363c-.83 0-1.508.437-1.508.97 0 2.228 2.355 2.433 2.78.243.158-.817-.255-1.213-1.272-1.213zM32.195 206.57c-1.662 0-1.71.083-1.055 1.79.554 1.444 2.006 1.083 2.328-.577.159-.818-.256-1.213-1.273-1.213zm82.449 4.365c-1.897 0-2.333 1.333-.902 2.764 1.137 1.137 1.668 1.1 2.736-.188 1.174-1.415.348-2.576-1.834-2.576zm133.844 0c-1.937 0-2.62 1.257-1.678 3.09.805 1.565 1.62 1.607 3.066.16 1.473-1.472.713-3.25-1.388-3.25zm-177.143 2.283c-.612-.002-1.22.167-1.592.54-.552.552-.38 1.218.598 2.298 1.305 1.442 1.424 1.454 2.32.229.52-.71.83-1.633.692-2.05-.215-.644-1.123-1.014-2.018-1.017zm160.123 1.352c-.83 0-1.508.437-1.508.97 0 2.228 2.355 2.433 2.78.243.158-.818-.255-1.213-1.272-1.213zm-92.752 4.443a4.543 4.543 0 0 0-.568.053c-2.02.288-2.472 2.208-.893 3.787 1.565 1.565 2.522.87 2.522-1.83 0-1.563-.177-2.023-1.06-2.01zm-53.455.904c-.347.007-.728.147-1.097.454-.862.714-.936 1.176-.307 1.933 1.089 1.312 2.047 1.257 2.586-.146.486-1.267-.221-2.26-1.182-2.24zm14.803 5.163c-.192 0-.536.145-1.07.431-1.738.93-2.447 2.442-1.862 3.969.665 1.733 1.851 1.268 2.328-.91.241-1.1.567-2.417.725-2.926.117-.379.097-.564-.121-.564zm-50.92 2.582c-1.404.021-1.73.394-1.73 1.869 0 1.522.304 1.826 1.636 1.636 1.052-.149 1.72-.817 1.87-1.869.189-1.332-.115-1.636-1.637-1.636h-.139zm170.459 2.289c-1.331.015-1.825 1.286-.77 2.341.848.848 2.762.152 2.762-1.003 0-.595-.735-1.187-1.635-1.315a2.351 2.351 0 0 0-.357-.023zm-147.098 2.074c-1.113 0-1.49 1.54-.595 2.435.488.489 1.654-.826 1.675-1.89.007-.3-.48-.545-1.08-.545zm177.912 2.181c-1.773 0-2.438.916-1.824 2.516.646 1.683 2.775 1.064 3.053-.887.175-1.224-.13-1.629-1.229-1.629zm-127.802 2.91c-1.239.024-1.746.415-1.746 1.333 0 2.819 3.108 3.082 3.505.297.19-1.325-.116-1.63-1.636-1.63h-.123zm110.254 3.635c-1.415 0-2.057 2.067-.977 3.147.656.655 2.432-.911 2.432-2.145 0-.55-.655-1.002-1.455-1.002zm-143.002 2.266c-.777.016-.998.427-.998 1.54 0 2.586 1.554 3.855 2.738 2.235.517-.707.846-1.782.73-2.39-.115-.608-.944-1.208-1.84-1.336a3.99 3.99 0 0 0-.63-.049zm-19.08 4.242c-.425 0-.872.248-1.213.801-.7 1.133.18 2.875 1.453 2.875.703 0 1.115-.67 1.115-1.818 0-1.155-.648-1.855-1.355-1.858zm175.043 2.965c-.957-.014-2.046.37-2.334 1.123-.241.628.125 1.888.812 2.799l1.25 1.656.928-1.79c.51-.985.928-2.243.928-2.798 0-.655-.74-.978-1.584-.99zM135.17 251.3c-.261.007-.524.11-.755.342-.755.755-.088 2.928.898 2.928.37 0 .882-.547 1.139-1.215.404-1.054-.427-2.077-1.282-2.055zm88.243 3.27c-1.402 0-1.97 1.424-.97 2.426 1.002 1 2.425.43 2.425-.971 0-.97-.486-1.455-1.455-1.455zm-108.364 1.455c-.925 0-1.455.485-1.455 1.334 0 2.351 1.704 3.146 2.469 1.152.738-1.922.507-2.486-1.014-2.486zm104.242 10.181c-.533 0-.968.656-.968 1.456 0 1.653 1.824 1.98 2.418.433.456-1.19-.082-1.889-1.45-1.889zm-84.722 2.84c-.948-.005-2.026.572-2.313 1.668-.23.88-.057 2.034.383 2.565.658.793 1.04.746 2.15-.258.743-.672 1.352-1.825 1.352-2.563 0-.95-.736-1.408-1.572-1.412zm112.77 4.434c-1.542.043-1.828 1.442-.536 2.734 1.092 1.092 2.065.47 2.065-1.322 0-.927-.5-1.412-1.455-1.412h-.075zm-8.819 2.437c-.25 0-.518.053-.803.163-1.428.547-1.568 1.845-.332 3.082 1.137 1.137 2.323.728 2.64-.91.268-1.38-.423-2.337-1.505-2.335zm-119.568 3.495c-1.046.021-1.414 1.405-.493 2.326.763.762 2.045.113 2.045-1.035 0-.562-.573-1.131-1.273-1.266a1.328 1.328 0 0 0-.28-.025zm98.005 12.228c-.353.015-.726.173-1.052.5-.55.55.825 2.43 1.779 2.43.351 0 .639-.653.639-1.453 0-.94-.642-1.508-1.366-1.477zm-75.384 2.93c-2.143 0-3.083 1.724-1.79 3.283 1.088 1.31 1.616 1.35 2.757.209 1.575-1.575 1.045-3.492-.967-3.492zm99.388 2.91c-1.773 0-2.436.916-1.822 2.516.646 1.682 2.775 1.064 3.053-.887.174-1.224-.132-1.63-1.23-1.63zm-117.185 2.908c-1.606 0-1.922 1.422-.61 2.734 1.092 1.092 2.065.47 2.065-1.322 0-.927-.5-1.412-1.455-1.412zm85.484 7.354a4.48 4.48 0 0 0-.566.05c-2.02.289-2.474 2.209-.895 3.788 1.565 1.564 2.524.87 2.524-1.83 0-1.563-.18-2.021-1.063-2.008zm-99.197.242c-.433.005-.83.111-1.068.35-1.157 1.156.888 3.204 2.152 2.156.547-.454.994-1.077.994-1.385 0-.653-1.126-1.133-2.078-1.121zm34.805 6.222c-1.415 0-2.057 2.067-.977 3.147.656.655 2.432-.911 2.432-2.145 0-.55-.655-1.002-1.455-1.002zm83.654 5.092c-1.64 0-2.235 1.366-1.348 3.09.879 1.708 2.58 1.613 3.147-.176.585-1.843-.077-2.914-1.8-2.914zm-101.066 2.182c-1.674 0-2.512 1.11-1.948 2.58.493 1.284 1.324 1.346 2.487.184 1.324-1.325 1.044-2.764-.54-2.764zm58.824.726c-.884 0-1.412.5-1.412 1.334 0 2.422 2.38 3.276 3.197 1.147.596-1.552-.072-2.48-1.785-2.48zm-23.63 1.456c-1.277 0-2.012 1.26-1.505 2.58.497 1.294 2.394 1.392 2.828.146.466-1.335-.21-2.726-1.322-2.726zm34.04 1.802a.546.546 0 0 0-.28.074c-.928.574-.04 1.76 1.317 1.76.925 0 .969-.203.238-1.084-.386-.465-.897-.753-1.275-.75zm-83.379 2.983c-.201.008-.462.22-.857.615-.573.573-1.041 1.555-1.041 2.184 0 1.266 1.838 1.562 2.55.41.25-.404.246-1.388-.008-2.186-.224-.708-.385-1.034-.644-1.023zm97.762.437c-.275.001-.57.122-.848.4-.89.891-.373 3.104.725 3.104.37 0 .88-.546 1.136-1.213.465-1.21-.188-2.294-1.013-2.29zm-40.899 10.082c-.38-.002-.907.14-1.611.41-1.35.518-1.513 2.54-.303 3.75 1 1 2.728-.824 2.766-2.92.015-.841-.217-1.237-.852-1.24zm-32.396.692a1.66 1.66 0 0 0-1.147.482c-.657.658.973 2.51 1.774 2.016.354-.22.644-.871.644-1.448 0-.668-.605-1.06-1.271-1.05zm13.635 2.912c-1.638 0-1.989 2.086-.586 3.488 1.011 1.011 2.01-.08 2.029-2.215.007-.791-.539-1.273-1.443-1.273zm73.507 0c-.829 0-1.507.437-1.507.97 0 2.228 2.356 2.433 2.78.243.16-.818-.256-1.213-1.273-1.213zm-32.142.498c-.778.04-1.53.932-1.13 1.974.504 1.311 1.637 1.53 2.308.444.245-.397.177-1.2-.15-1.785-.263-.468-.648-.653-1.028-.633zm-80.776 2.84c-.095.003-.208.03-.34.08-1.035.397-1.302 1.832-.492 2.642.712.712.769.65 1.135-1.265.195-1.02.111-1.469-.303-1.457zm92.414.707a2.96 2.96 0 0 0-.64.11c-1.626.424-1.883 1.67-.61 2.944 1.153 1.153 2.065.438 2.065-1.619 0-1.054-.185-1.454-.815-1.435zm-81.23 3.236c-.242.002-.46.074-.621.234-.232.233-.229.928.008 1.545.558 1.454 2.658 1.46 2.658.008 0-.907-1.179-1.793-2.045-1.787zm51.422 5.81c-1.58 0-1.867 2.128-.477 3.518.715.714 1.078.655 1.768-.289.478-.653.692-1.648.476-2.209-.215-.561-1.01-1.02-1.767-1.02zm-21.74 6.545c-1.402 0-1.97 1.423-.97 2.424 1.002 1.001 2.425.433 2.425-.968 0-.97-.486-1.456-1.455-1.456zm-41.12 4.051c-.202.017-.37.374-.562 1.106-.236.903-.263 1.911-.059 2.242.657 1.062 1.74.643 1.729-.67-.005-.7-.287-1.71-.625-2.244-.188-.296-.344-.445-.483-.434zm22.014 1.78c-.66.006-1.258.483-1.258 1.322 0 .733.226 1.56.502 1.836.742.742 2.662-1.442 2.086-2.373-.335-.543-.849-.79-1.33-.785zm-11.76 10.898c-1.428 0-2.046 1.179-1.507 2.877.612 1.93 2.554 1.067 2.554-1.137 0-1.03-.426-1.74-1.047-1.74zm20.924 8.314c-.143 0-.326.043-.55.13-1.345.515-1.572 2.728-.235 2.283.5-.167 1.014-.847 1.143-1.512.117-.607.009-.898-.358-.9zm-29.98 2.594c-1.048 0-1.533.461-1.533 1.455 0 .808.485 1.453 1.091 1.453.6 0 1.09-.135 1.09-.302 0-.168.199-.823.442-1.455.316-.825.009-1.15-1.09-1.15zm19.351 2.895c-.879-.008-1.852.942-1.5 1.861.408 1.062.559 1.067 1.58.045.622-.622.92-1.34.66-1.6v-.002a1.035 1.035 0 0 0-.74-.304zm-14.902 13.931c-.62.007-.89.432-.89 1.356 0 1.095.378 1.488 1.27 1.316.7-.135 1.274-.727 1.274-1.316 0-.59-.573-1.182-1.273-1.317a1.92 1.92 0 0 0-.381-.039zm19.533 3.95c-.556-.002-.787.31-.787.99 0 2.292 1.714 3.045 2.467 1.084.604-1.576.621-1.541-1.014-1.969a2.748 2.748 0 0 0-.666-.105zm-31.342 6.306a1.148 1.148 0 0 0-.806.352c-.985.985.01 3.096 1.238 2.625.567-.218 1.031-.832 1.031-1.365 0-.947-.735-1.622-1.463-1.612zm26.498 4.192a1.095 1.095 0 0 0-1.035 1.09c0 .6.492 1.091 1.092 1.091.6 0 1.09-.492 1.09-1.092 0-.6-.49-1.09-1.09-1.09h-.057zm-13.355 5.09c-1.674 0-2.513 1.11-1.95 2.58.54 1.406 2.367 1.347 2.92-.094.734-1.912.51-2.486-.97-2.486zm14.273 10.238a2.6 2.6 0 0 0-.818.19c-.64.244-.929.9-.682 1.544.552 1.437 1.653 1.435 2.205-.004.43-1.117.127-1.762-.705-1.73zm-26.316 5.035c-1.125 0-1.446.859-.627 1.678.581.58 1.717-.077 1.717-.994 0-.377-.49-.684-1.09-.684zm16.63.78c-1.907.004-2.455.534-1.956 1.835.51 1.33 2.416 1.323 2.416-.01 0-.567.41-1.195.91-1.396.5-.202.063-.393-.97-.424a13.96 13.96 0 0 0-.4-.006zm14.643 7.946c-1.095 0-1.496 1.536-.627 2.405.68.678 1.717-.14 1.717-1.356 0-.576-.49-1.049-1.09-1.049zm-34.183 12.364c-1.982 0-1.293 2.156.91 2.851.1.032.182-.596.182-1.396 0-.808-.486-1.455-1.092-1.455zm35.316 0c-.917 0-1.573 1.136-.992 1.717.82.819 1.676.5 1.676-.625 0-.6-.307-1.092-.684-1.092zm-19.316 1.455c-1.136 0-1.442.86-.606 1.697.837.837 1.698.53 1.698-.605 0-.6-.492-1.092-1.092-1.092zm6.914 17.455c-.406.02-.73.339-.73.726 0 .4.143.729.32.729.176 0 .522-.329.77-.729.247-.4.103-.726-.321-.726h-.04zm9.814 0c-2.03 0-2.139.224-1.08 2.203.9 1.682 2.899 1.112 2.899-.826 0-.984-.52-1.377-1.819-1.377zm-34.181.726c-1.096 0-1.496 1.536-.627 2.405.678.678 1.717-.14 1.717-1.356 0-.576-.49-1.049-1.09-1.049zm12.011 10.352c-1.312-.018-1.756 1.618-.273 3.102 1.193 1.193 1.29 1.171 1.873-.405.42-1.133.319-1.849-.316-2.252-.48-.304-.916-.44-1.284-.445zm-12.011 1.285c-.6 0-1.092.492-1.092 1.092 0 .6.492 1.09 1.092 1.09.6 0 1.09-.49 1.09-1.09 0-.6-.49-1.092-1.09-1.092zm31.925 10.213c-.958.019-1.186.661-.69 1.938.475 1.226.568 1.217 1.58-.15.958-1.298.948-1.482-.108-1.702a3.569 3.569 0 0 0-.782-.086zm-31.435.793c-1.244.036-1.08 1.881.418 2.754 1.7.99 1.663 1.013 1.379-.852-.137-.9-.79-1.741-1.451-1.87a1.56 1.56 0 0 0-.346-.032zm18.742 12.268c-.917.028-1.414.495-1.414 1.332 0 2.764 2.376 2.975 2.777.246.175-1.187-.142-1.578-1.273-1.578h-.09z" fill="#fff"/>
</svg>
