<?xml version="1.0" encoding="UTF-8" standalone="no"?>
<svg
   xml:space="preserve"
   version="1.1"
   id="svg235"
   viewBox="0 0 2207 400"
   sodipodi:docname="cactus_3.svg"
   inkscape:version="1.1 (c4e8f9e, 2021-05-24)"
   xmlns:inkscape="http://www.inkscape.org/namespaces/inkscape"
   xmlns:sodipodi="http://sodipodi.sourceforge.net/DTD/sodipodi-0.dtd"
   xmlns="http://www.w3.org/2000/svg"
   xmlns:svg="http://www.w3.org/2000/svg"><defs
   id="defs196" /><sodipodi:namedview
   id="namedview194"
   pagecolor="#505050"
   bordercolor="#ffffff"
   borderopacity="1"
   inkscape:pageshadow="0"
   inkscape:pageopacity="0"
   inkscape:pagecheckerboard="1"
   showgrid="false"
   inkscape:zoom="0.40658104"
   inkscape:cx="843.62026"
   inkscape:cy="-209.06041"
   inkscape:window-width="1435"
   inkscape:window-height="982"
   inkscape:window-x="246"
   inkscape:window-y="71"
   inkscape:window-maximized="0"
   inkscape:current-layer="svg235" />
    <path
   d="m 1129.1237,290.74186 c -1.6896,-0.23376 -3.4039,-0.64523 -4.9021,-1.47774 -1.3424,-0.79286 -1.9835,-2.32391 -2.0874,-3.82352 -0.2023,-2.71351 0.123,-5.43112 0.1558,-8.146 0.5044,-17.97752 0.4662,-35.97828 1.4026,-53.92846 0.2419,-6.32925 0.3745,-12.6913 -0.2365,-19.00551 -0.1272,-1.2098 -0.3828,-2.40047 -0.6781,-3.57883 -5.0347,-3.10174 -10.8171,-4.87885 -15.5483,-8.48638 -2.1653,-1.71833 -3.4995,-4.35666 -4.2705,-6.88972 -1.81,-5.42019 -3.0075,-11.02629 -4.045,-16.63922 a 83.019754,83.019754 0 0 1 -0.7792,-5.30809 c -0.038,-0.48666 -0.1299,-1.27679 -0.1641,-1.88374 -0.2419,-3.7251 0.4922,-7.41875 0.8476,-11.11377 0.9378,-7.71676 2.0737,-15.41438 3.6034,-23.03682 1.0007,-5.42839 1.7771,-10.90189 2.488,-16.36307 0.4771,-3.12772 0.9938,-6.32242 2.3649,-9.2027 0.8612,-1.80308 2.4059,-3.314995 4.3649,-3.849495 2.5672,-0.82568 5.5486,-0.082 7.3832,1.90971 2.7654,2.813305 3.8208,6.785825 4.4974,10.560135 0.6015,3.55832 0.7095,7.18362 0.5345,10.78158 a 86.151569,86.151569 0 0 1 -0.2146,2.97871 c -0.432,5.88634 -2.1448,11.58676 -2.611,17.46763 -0.5468,5.46666 -0.7108,10.96067 -1.1674,16.38769 -0.2666,3.26168 -0.2461,6.57531 0.5167,9.77411 0.622,2.8379 1.4436,5.66351 2.7094,8.28406 0.5673,1.22211 2.3021,1.43946 3.2631,0.56731 0.6972,-0.84754 2.0163,-0.79833 2.6069,-1.77574 2.41,-3.1988 3.237,-7.25061 3.6239,-11.15752 0.663,-7.30802 0.9542,-14.66116 0.5892,-21.99516 -0.2597,-6.08592 -0.8886,-12.14449 -1.475,-18.20444 -0.9569,-11.01671 -1.1702,-22.2166 -1.7963,-33.318075 -0.1435,-2.113397 -0.025,-4.301977 0.1422,-6.325148 0.4867,-5.414718 1.0758,-10.986643 2.1325,-16.390425 0.7656,-4.066848 2.1859,-8.281333 5.3368,-11.131545 2.7805,-2.569974 6.9089,-3.200165 10.4946,-2.265132 2.5043,0.515362 5.1631,1.563857 6.5178,3.878202 1.4409,2.189946 2.1804,4.770857 2.57,7.333997 0.391,0.822939 1.408,1.044394 2.2036,0.70811 1.2796,-0.04374 2.5044,0.447011 3.7566,0.656164 -0.4648,-1.971226 -1.3725,-3.916478 -1.203,-5.979293 0.283,-1.792147 1.8728,-2.934966 3.0635,-4.154337 1.1319,-1.241243 2.7969,-1.995831 4.4906,-1.863231 1.568,-0.112095 3.3177,0.341752 4.224,1.727898 1.4723,1.983528 1.8523,4.509759 2.2789,6.878783 0.079,0.757323 0.1421,1.516012 0.2159,2.271967 2.6698,-0.396432 5.5979,-1.107276 8.1378,0.191381 2.5481,1.454497 3.6828,4.537099 3.7128,7.346301 0.01,2.489321 -1.1291,4.873383 -2.8707,6.621786 -0.6644,0.464782 -0.421,0.813369 0.2242,1.11001 1.4777,0.992448 3.0348,2.128431 3.7552,3.813952 0.6397,1.960289 0.3486,4.070949 0.088,6.07362 -0.2967,1.76617 -0.9733,3.84812 -2.8297,4.50565 -1.1306,0.39097 -2.3294,0.69308 -3.5242,0.73545 -1.7757,-0.22145 -3.3259,-1.22484 -4.8829,-2.03684 -0.8366,-0.49349 -1.6049,-1.0936 -2.4101,-1.64041 -1.2658,2.81877 -2.2637,6.01757 -4.8187,7.969665 -2.0806,1.48867 -4.9485,1.85093 -7.334,0.94187 -1.5912,-0.76963 -2.8256,-2.228235 -3.4913,-3.848135 -0.2187,-0.76552 -0.309,-1.56112 -0.4744,-2.33758 -1.0826,0.35268 -2.153,0.93913 -3.33,0.71084 -0.7067,-0.19685 -0.976,0.0588 -0.7983,0.77373 0.1476,3.26715 -0.6138,6.476885 -0.9091,9.715325 -0.7204,5.83439 -1.2344,11.66877 -2.0478,17.47582 -0.4743,3.30816 -0.4606,6.6587 -0.6425,9.99009 -0.4101,10.89232 -0.7368,21.79284 -0.7299,32.69336 0.072,5.24111 0.1189,10.51366 0.961,15.69872 0.4374,1.99857 0.8981,4.20218 2.4866,5.63071 0.5358,0.45111 1.1264,0.83251 1.6841,1.25354 1.3342,-2.14073 2.447,-4.42637 3.1236,-6.86238 1.8865,-6.79539 2.7409,-13.82728 3.3629,-20.83593 0.5085,-5.20967 0.4812,-10.45898 1.0553,-15.66181 0.5468,-3.66768 2.6629,-7.30392 6.0941,-8.93203 2.3854,-1.15512 5.5829,-1.00338 7.4652,1.01979 1.7197,1.94115 2.4579,4.53437 2.9774,7.02369 1.0348,5.23564 1.1004,10.71734 1.084,16.10335 0.049,2.88165 -0.1996,5.76877 -0.8749,8.57661 a 415.50887,415.50887 0 0 1 -3.1796,12.75555 c -0.622,2.1667 -1.2754,4.39219 -2.7026,6.18434 -3.5241,4.5494 -6.8405,9.30659 -10.9784,13.33516 -6.1215,5.47624 -11.1015,12.05975 -16.9209,17.83399 -1.6199,1.82769 -1.6199,4.4127 -1.8112,6.71064 -0.391,6.51379 -0.242,13.04262 -0.2775,19.56461 0.037,11.77268 0.019,23.54808 0.38,35.31392 0.087,1.60487 0.637,3.45033 -0.4785,4.83374 -1.7798,2.40593 -4.7941,3.39018 -7.5992,4.00533 -1.9288,0.27204 -3.9041,0.19822 -5.8029,0.69171 -0.6835,0.0984 -1.3821,0.15584 -2.0724,0.0779 z"
   id="path231"
   style="stroke-width:1.36701" />
    <path
   d="m 1144.6707,52.393105 c -2.5222,0.05468 -5.0279,0.820205 -7.0538,2.351254 -3.3642,2.531698 -5.1714,6.579409 -6.1488,10.569705 -1.0376,4.550769 -1.6131,9.19176 -2.1312,13.825917 -0.3403,3.719628 -0.8393,7.459762 -0.5878,11.201264 0.7218,12.709075 0.8763,25.460515 2.2652,38.125845 0.5577,5.73596 1.0252,11.58129 1.1387,17.34733 0.051,2.21592 0.031,4.53436 -0.025,6.68603 -0.1627,4.11196 -0.3677,8.21435 -0.8011,12.22652 -0.4333,3.24938 -1.1606,6.63546 -3.192,9.29292 -0.3157,0.67394 -1.1018,0.62336 -1.6376,1.01979 -0.5004,0.16404 -0.7423,0.8161 -1.2754,0.84208 -0.689,0.15173 -0.8285,-0.62063 -1.0868,-1.07311 a 40.870801,40.870801 0 0 1 -2.5837,-9.0865 c -0.6561,-3.91784 -0.038,-7.91771 0.1682,-11.81231 0.3062,-4.43184 0.4702,-8.74749 0.9706,-13.14105 0.4538,-4.88022 1.7989,-9.61963 2.3061,-14.49028 0.7409,-6.57804 0.8052,-13.36249 -0.9747,-19.78743 -0.935,-3.31773 -2.5467,-6.681945 -5.4407,-8.711945 -2.533,-1.76618 -6.0011,-1.90835 -8.7256,-0.5058 -2.2364,1.0608 -3.6308,3.264425 -4.4592,5.517255 -1.613,4.55897 -1.9548,9.42688 -2.6506,14.17859 -0.1695,1.25218 -0.3964,2.68617 -0.5782,3.91101 -0.4429,2.69301 -0.8872,5.38602 -1.4081,8.06535 -1.4326,7.18909 -2.436,14.45201 -3.3286,21.72586 -0.3431,3.32866 -0.9132,6.65049 -0.8776,10.00649 0.205,3.93152 0.9049,7.82339 1.654,11.68245 1.0335,4.83921 2.0984,9.69209 3.7798,14.35359 0.8558,2.61508 2.3677,5.04015 4.5426,6.75712 4.5877,3.47766 10.1569,5.25204 15.0658,8.18837 0.5263,2.00677 0.6589,4.08599 0.7751,6.10506 0.2911,5.4858 0.1695,11.01125 -0.064,16.44784 -0.8517,16.24005 -0.8626,32.50745 -1.2577,48.76117 -0.072,2.50709 -0.098,4.91166 -0.2324,7.38731 -0.046,2.30067 -0.3527,4.67517 0.3021,6.91979 0.4922,1.78805 1.9562,3.15779 3.6787,3.76474 1.5296,0.55364 3.1318,1.00065 4.7613,1.08814 0.76,0.0137 1.5173,-0.0656 2.2624,-0.19958 2.1612,-0.58508 4.455,-0.22966 6.6012,-0.9077 2.9186,-0.74501 5.9875,-2.08605 7.6047,-4.76812 1.0294,-1.67185 0.4826,-3.67998 0.3759,-5.50357 -0.3349,-12.48489 -0.3322,-24.9766 -0.3595,-37.46559 0.048,-5.95058 -0.092,-11.9121 0.3377,-17.85312 0.1859,-1.74157 0.2187,-3.72783 1.4927,-5.07843 5.3341,-5.25888 9.9081,-11.24364 15.3707,-16.37812 3.8631,-3.39292 6.969,-7.51445 10.0775,-11.5813 1.4956,-2.06008 3.3137,-3.95065 4.2405,-6.36068 1.2987,-3.44076 2.0163,-7.06197 2.9609,-10.60798 0.9624,-4.08326 2.1941,-8.16104 2.246,-12.39056 0.085,-4.95951 0.051,-9.93678 -0.4893,-14.87168 -0.4717,-3.47767 -1.0567,-7.08657 -2.9405,-10.11586 -1.1346,-1.83179 -3.0744,-3.15232 -5.2397,-3.34917 -3.0867,-0.40737 -6.1734,1.0567 -8.1884,3.35737 -2.138,2.32118 -3.3191,5.40378 -3.5597,8.53013 -0.391,4.26507 -0.4374,8.55337 -0.7874,12.82253 -0.4183,5.46257 -1.0444,11.0591 -2.0874,16.5244 -0.7901,3.80301 -1.5721,7.72632 -3.6144,11.08916 -0.5495,-0.37182 -0.9788,-0.89949 -1.2959,-1.47773 -1.2768,-2.75862 -1.4531,-5.8549 -1.7265,-8.83907 -0.3144,-4.67927 -0.3664,-9.47064 -0.3418,-14.23876 0.1094,-10.11176 0.3869,-20.22761 0.7929,-30.31613 0.1886,-2.98828 0.1449,-6.00663 0.6876,-8.96074 0.7819,-6.06268 1.3506,-12.17456 2.1065,-18.20853 0.2598,-2.60825 0.8408,-5.200105 0.7574,-7.830225 0.5878,0.0465 1.1811,-0.0683 1.7251,-0.29254 0.087,0.65889 0.3158,1.29318 0.6206,1.88237 1.0376,1.760705 2.5536,3.422985 4.5713,4.013535 2.3937,0.64796 5.0716,0.34722 7.2356,-0.88445 2.7491,-1.61034 4.1284,-4.657405 5.3177,-7.473445 0.596,0.43745 1.2344,0.82021 1.8864,1.1688 1.6623,0.82567 3.3806,1.8687 5.2986,1.81265 1.7128,-0.31305 3.5747,-0.54407 4.9786,-1.67049 1.5898,-1.41211 2.1175,-3.62667 2.3731,-5.656673 0.1928,-2.183112 0.4334,-4.561705 -0.6274,-6.572574 -0.8612,-1.354705 -2.082,-2.486587 -3.4217,-3.362839 2.0588,-2.239159 3.0553,-5.390112 2.6384,-8.404365 -0.3828,-2.799632 -1.7607,-5.700422 -4.3293,-7.098872 -2.3158,-1.235775 -5.0744,-0.981511 -7.5705,-0.560473 a 18.636418,18.636418 0 0 0 -0.1682,-1.476368 c -0.5263,-2.627389 -1.0375,-5.489904 -2.9486,-7.507607 -1.2686,-1.449029 -3.2972,-1.801717 -5.1304,-1.678686 -1.7675,-0.07929 -3.4654,0.679403 -4.7435,1.870067 -1.326,1.330098 -2.909,2.556304 -3.6198,4.355287 -0.5961,1.737467 -0.072,3.6089 0.4114,5.309458 -0.637,-0.153105 -1.3014,-0.273401 -1.9589,-0.198216 -0.3554,-0.01914 -0.9555,0.444278 -0.8434,-0.190014 -0.5414,-3.075768 -1.6159,-6.170673 -3.6746,-8.571139 -1.9862,-2.099724 -4.9171,-2.917195 -7.6812,-3.395648 a 13.578489,13.578489 0 0 0 -2.5098,-0.177711 z m 0.2501,2.70941 c 2.7176,0 6.2035,1.074468 7.6129,2.348519 2.3253,2.105192 4.3197,8.89512 2.9459,10.035205 -2.2556,1.872801 -2.8598,7.299822 -1.1278,10.140464 1.3684,2.244627 1.2891,5.13995 -0.1845,6.731147 -2.4948,2.693006 -2.9063,8.349685 -0.8148,11.179385 1.0294,1.39435 1.0335,1.48594 0.2926,7.182265 a 658.85815,658.85815 0 0 0 -1.5256,13.15334 c -0.4265,4.06002 -0.8804,7.69079 -1.0089,8.07082 -0.4798,1.42715 -1.4312,32.21764 -1.3219,42.8557 0.1518,14.84843 1.2112,20.18523 4.4374,22.37791 2.3321,1.58437 3.2452,1.05807 5.1221,-2.95273 2.5768,-5.50631 4.652,-18.4177 5.2958,-32.95583 0.3199,-7.2178 0.5236,-8.68597 1.4901,-10.70504 1.9288,-4.02857 5.4543,-6.01893 8.7283,-4.92806 3.3082,1.10317 5.1071,7.84799 5.2179,19.57008 0.078,8.15831 0.034,8.55337 -1.7963,15.99126 -2.801,11.38718 -3.1277,12.36732 -4.8665,14.62699 l -5.1222,6.66826 c -1.9384,2.52623 -4.79,5.67308 -6.3361,6.99361 -1.5474,1.3219 -5.1235,5.03606 -7.9491,8.254 -2.8243,3.21793 -6.0928,6.77625 -7.2629,7.9054 -3.4394,3.315 -3.4804,3.7251 -3.3957,34.77532 0.041,14.75001 0.2324,28.03596 0.4265,29.52463 0.3281,2.5235 0.2597,2.79827 -1.0034,4.06001 -1.4859,1.48594 -5.3204,2.82971 -8.0763,2.82971 -0.9678,0 -2.4223,0.18181 -3.2316,0.40464 -0.8106,0.22282 -2.138,0.25016 -2.95,0.0615 -5.0784,-1.18109 -5.3559,-1.66501 -4.9964,-8.71194 0.1627,-3.17966 0.417,-14.41647 0.5673,-24.97113 0.149,-10.5533 0.4881,-23.01768 0.7519,-27.69558 0.8352,-14.83067 0.3691,-26.25339 -1.1483,-28.09475 -0.3226,-0.39096 -3.2959,-1.99173 -6.6095,-3.55695 -7.8493,-3.70733 -9.9463,-5.1919 -11.5881,-8.20615 -2.3923,-4.39766 -6.2595,-21.83932 -6.2527,-28.21504 0.01,-2.96641 2.2419,-20.27273 3.397,-26.26296 1.6732,-8.66956 2.4921,-13.63453 3.2535,-19.74368 1.2303,-9.8616 2.6725,-13.39121 5.9055,-14.458855 9.1097,-3.00741 13.64,13.337905 9.3435,33.710415 -0.7984,3.78661 -1.4163,8.90469 -1.7252,14.27019 -0.2638,4.59999 -0.6193,9.91628 -0.7901,11.81095 -0.1695,1.89468 -0.064,5.02102 0.2337,6.9485 0.6603,4.24866 2.6384,10.27033 3.7976,11.55122 1.0211,1.12778 3.7606,1.24398 4.63,0.19822 0.3363,-0.40601 0.9064,-0.73819 1.2659,-0.73819 0.9336,0 3.0115,-2.89259 3.9137,-5.44752 1.352,-3.81806 1.6787,-6.05175 2.1913,-15.03572 0.5277,-9.22731 0.1818,-17.82715 -1.2754,-31.67631 -0.4115,-3.9233 -0.9678,-12.7815 -1.233,-19.68353 -0.2666,-6.900655 -0.6015,-14.029605 -0.7464,-15.840889 -0.2734,-3.454429 1.2672,-17.300851 2.5508,-22.919253 1.7225,-7.536315 5.4599,-11.428186 10.9675,-11.428186 z m 24.7729,0.984245 c 1.8715,0 2.3472,0.218722 3.3055,1.513278 1.1619,1.573426 2.3895,7.760504 1.6431,8.29227 -0.2173,0.154472 -0.6849,1.719696 -1.0389,3.479035 -0.3527,1.759339 -0.6767,3.226138 -0.7204,3.25758 -0.045,0.03281 -0.8886,0.202317 -1.8742,0.380028 -1.7142,0.310311 -1.8728,0.217354 -3.5733,-2.099724 -2.0533,-2.796898 -3.4818,-5.895905 -3.9562,-8.58481 -0.3075,-1.752504 -0.1804,-2.030006 1.8482,-4.060013 1.9234,-1.92338 2.436,-2.177644 4.3662,-2.177644 z m -22.7565,9.008582 a 2.4975234,2.4975234 0 0 0 -0.6248,0.133967 c -1.408,0.433342 -1.4832,0.524931 -1.1455,1.406651 0.3746,0.974677 1.6322,0.485288 1.9589,-0.76279 0.1449,-0.555005 0.1258,-0.779195 -0.1886,-0.776461 z m 34.0877,1.32053 c 2.6041,-0.0014 3.9534,0.932299 4.9991,3.137283 1.2262,2.583645 1.0376,5.577392 -0.4921,7.787844 -1.1127,1.6035 -1.5557,1.865965 -3.0785,1.834524 -0.9774,-0.0205 -2.5536,-0.317146 -3.4995,-0.658898 -1.0335,-0.371826 -1.7799,-0.997915 -1.8646,-1.561123 -0.3691,-2.441476 -0.663,-3.109942 -1.4819,-3.369674 -0.8338,-0.265199 -0.8407,-0.455214 -0.123,-3.43119 0.7327,-3.029289 0.8311,-3.164623 2.4852,-3.439391 1.1825,-0.195483 2.1872,-0.300742 3.0553,-0.300742 z m -21.2023,0.988347 c 1.1948,0 3.8768,1.339667 3.8768,1.93705 0,0.239226 0.8339,1.506442 1.8537,2.816036 l 1.8564,2.381328 -0.8694,1.722429 c -0.4785,0.947337 -0.8708,2.405934 -0.8708,3.242543 0,1.881003 -1.3739,2.591847 -4.1844,2.170809 -3.0649,-0.456581 -4.544,-1.715595 -5.4708,-4.656029 -0.5058,-1.599399 -0.6944,-3.228873 -0.5003,-4.267799 0.3937,-2.099724 3.0115,-5.346367 4.3102,-5.346367 z m -21.2953,4.096922 c -0.6712,0.0082 -1.4011,0.59875 -1.4011,1.367008 0,1.155122 1.8659,1.284987 2.2965,0.161307 0.1627,-0.423773 0.082,-0.984246 -0.1777,-1.246711 a 0.97194259,0.97194259 0 0 0 -0.7177,-0.281604 z m 34.1247,3.332765 c 0.6383,0.01094 0.95,0.281604 1.4832,0.940502 1.5078,1.861864 0.3704,4.877484 -2.4538,6.511058 -1.419,0.821572 -1.5311,0.820205 -2.6083,-0.05195 -1.0526,-0.851646 -1.0963,-1.101809 -0.6671,-3.811218 l 0.4607,-2.899424 2.1626,-0.455213 c 0.7382,-0.154472 1.2385,-0.240594 1.6227,-0.235126 z m -23.7094,0.504426 c -0.283,0.0055 -0.6986,0.328082 -1.2754,0.967842 -0.9118,1.006118 -0.9132,1.043027 -0.01,1.706026 1.2166,0.889922 1.7675,0.489388 1.7675,-1.287722 0,-0.935033 -0.1463,-1.394348 -0.488,-1.387513 z m -7.4434,4.163906 a 1.7060258,1.7060258 0 0 0 -0.4361,0.06151 c -1.0908,0.284338 -1.3287,1.417588 -0.3691,1.749771 0.6562,0.226923 1.3342,-0.497591 1.3465,-1.438093 0,-0.236492 -0.2105,-0.371826 -0.5413,-0.373193 z m 35.0692,0.777828 1.8086,0.754588 c 0.9938,0.41557 2.8885,0.772359 4.2104,0.792864 1.9958,0.03008 2.682,0.300742 4.06,1.5994 1.501,1.41622 1.6541,1.822221 1.6541,4.348452 0,1.532416 -0.3172,3.547385 -0.7054,4.475585 -0.6835,1.63631 -0.9433,1.78258 -4.2952,2.43327 -0.4483,0.0889 -2.1079,-0.55227 -3.6895,-1.42305 -3.0812,-1.69919 -3.7073,-2.58091 -4.764,-6.706543 -0.6521,-2.550837 -0.6316,-2.718979 0.5235,-4.463281 z m -12.7651,2.996481 c 1.6227,-0.02461 2.9199,0.08475 3.099,0.373193 0.149,0.240593 -0.2843,1.05533 -0.961,1.812652 -0.6767,0.757323 -2.2556,2.768191 -3.5118,4.468749 -1.9959,2.706674 -4.2282,4.552134 -5.4735,4.528894 -0.216,-0.003 -0.946,-0.2857 -1.6227,-0.62609 -0.9391,-0.47298 -1.2658,-1.07173 -1.3861,-2.53716 -0.2051,-2.478388 1.1496,-6.001168 2.6985,-7.015487 0.842,-0.550905 4.4523,-0.962374 7.1576,-1.004751 z m 8.5903,1.566591 0.9159,3.45853 c 1.0704,4.051807 1.0635,4.129727 -0.6575,7.599197 -1.5666,3.15505 -3.4463,4.467385 -6.4072,4.470115 -1.6992,0 -2.4196,-0.2898 -3.5679,-1.436725 -0.7915,-0.79287 -1.4381,-1.90698 -1.4381,-2.47975 0,-1.08951 5.1085,-9.030456 6.7038,-10.419336 0.5072,-0.442911 1.717,-0.891289 2.6875,-0.997916 z m -35.5012,2.202249 c -0.4169,0.0041 -0.7491,0.274769 -0.7491,0.892657 0,1.079936 0.9008,2.101091 1.8523,2.101091 0.4442,0 0.6206,-0.460682 0.5181,-1.353338 -0.1162,-0.999283 -0.9706,-1.645878 -1.6213,-1.64041 z m 10.4439,3.513208 c -0.1394,0.0123 -0.3212,0.23649 -0.6479,0.68214 -0.3869,0.52493 -0.704,1.24398 -0.704,1.5994 0,0.88855 1.4422,0.812 1.7907,-0.0957 0.1559,-0.406 0.1326,-1.12505 -0.051,-1.5994 -0.1558,-0.40053 -0.2515,-0.60012 -0.3896,-0.58781 z m -7.755,7.94779 a 0.80380062,0.80380062 0 0 0 -0.5509,0.25699 c -0.6288,0.63019 -0.2392,2.099735 0.5577,2.099735 0.2871,0 0.6562,-0.34586 0.8189,-0.77099 0.3144,-0.818845 -0.2215,-1.599405 -0.8257,-1.585735 z m 7.1262,7.277955 c -0.8885,0 -1.4367,1.17015 -1.0362,2.21455 0.3691,0.96237 1.1141,0.94323 1.4901,-0.041 0.5099,-1.326 0.3321,-2.17354 -0.4539,-2.17354 z m -34.9434,0.98424 c -0.8243,0 -1.363,0.82567 -0.9611,1.47637 0.3363,0.5427 1.3944,0.65616 1.8523,0.19685 0.4689,-0.46888 -0.1722,-1.67322 -0.8912,-1.67322 z m 28.133,0.2488 c -0.098,-0.003 -0.2447,0.11346 -0.4593,0.33081 -0.8749,0.88446 -1.3917,2.35809 -1.0335,2.93907 0.4265,0.69034 1.6431,-1.10044 1.6609,-2.44694 0.01,-0.56048 -0.027,-0.81748 -0.1695,-0.82294 z m -23.2145,3.68818 c -0.9843,0 -1.4272,1.03346 -0.6535,1.52285 0.8066,0.51126 1.1524,0.54544 1.5461,0.15037 0.4703,-0.46888 -0.1722,-1.67458 -0.8926,-1.67458 z m 27.7092,5.69768 a 1.387513,1.387513 0 0 0 -0.3103,0.0465 c -1.2399,0.32535 -1.732,1.55156 -0.9843,2.45241 0.6699,0.80791 1.3917,0.66437 2.0697,-0.4101 0.6507,-1.03072 0.1832,-2.12023 -0.7737,-2.08879 z m -25.9773,0.90223 c -0.2734,0 -0.596,0.0889 -0.9473,0.2775 -0.8571,0.45795 -0.9542,0.71084 -0.4853,1.27542 0.782,0.94323 1.7635,0.88992 2.149,-0.1162 0.3362,-0.87488 -0.023,-1.43809 -0.7164,-1.43672 z m -6.3114,1.28225 a 0.91179424,0.91179424 0 0 0 -0.7833,0.44291 c -0.406,0.6548 1.244,2.16534 1.7798,1.62948 0.2433,-0.24197 0.3008,-0.81064 0.1272,-1.26175 -0.2024,-0.5263 -0.6767,-0.81611 -1.1237,-0.81201 z m 23.9978,3.43666 c -0.3062,0.0205 -0.4142,0.50169 -0.1463,1.19887 0.2557,0.66709 0.4129,0.71084 0.7286,0.19821 0.2229,-0.35952 0.1955,-0.86121 -0.059,-1.11548 -0.205,-0.20505 -0.3841,-0.29117 -0.5235,-0.2816 z m 6.373,2.58091 a 0.41420338,0.41420338 0 0 0 -0.1176,0.0205 c -0.827,0.27614 -0.9924,1.89467 -0.2406,2.35946 0.8175,0.50579 1.5324,-0.62472 1.1032,-1.74293 -0.1476,-0.3855 -0.4648,-0.64524 -0.745,-0.63703 z m -25.4619,2.23232 a 1.913811,1.913811 0 0 0 -0.3048,0.0287 c -1.2823,0.22146 -1.4081,0.37593 -1.0595,1.28499 0.16,0.4183 0.756,0.75869 1.326,0.75869 0.7902,0 0.9952,-0.25973 0.8749,-1.10454 -0.096,-0.67531 -0.3363,-0.96785 -0.8366,-0.96785 z m -9.1713,2.72992 c -0.1421,0.004 -0.2364,0.10936 -0.2364,0.29937 0,0.28571 0.2214,0.52083 0.4921,0.52083 0.2706,0 0.4921,-0.0984 0.4921,-0.21872 0,-0.11893 -0.2215,-0.35269 -0.4921,-0.51946 a 0.47298472,0.47298472 0 0 0 -0.2557,-0.082 z m 39.888,1.04303 a 1.2617483,1.2617483 0 0 0 -0.268,0.0232 c -2.0067,0.38549 -2.5576,1.42715 -1.3779,2.60688 0.8188,0.8202 1.7087,0.73818 2.0642,-0.18728 0.5632,-1.46543 0.3827,-2.42371 -0.4183,-2.44284 z m -33.3058,3.37651 c -0.3076,0.001 -0.6945,0.18181 -1.1729,0.53176 -0.9405,0.68761 -0.9419,0.71905 -0.027,1.7279 1.408,1.55839 2.3471,1.326 2.1626,-0.53313 -0.1148,-1.16606 -0.4128,-1.72927 -0.9624,-1.72653 z m 24.4134,0.33628 c -1.3164,0 -1.9234,0.69717 -1.5215,1.74704 0.3377,0.87625 1.5857,0.93503 2.1079,0.0984 0.7587,-1.21254 0.5578,-1.84546 -0.5878,-1.84546 z m -31.232,1.47637 c -1.1142,0 -1.2604,0.50989 -0.3937,1.37794 0.868,0.86668 1.3765,0.72178 1.3765,-0.3937 0,-0.65616 -0.3267,-0.98424 -0.9828,-0.98424 z m 35.3576,4.60408 a 0.91726228,0.91726228 0 0 0 -0.3103,0.0588 c -0.7833,0.30211 -0.7751,0.38276 0.1066,1.03073 1.0526,0.77509 1.4354,0.85574 1.8906,0.39916 0.5003,-0.49896 -0.7847,-1.51191 -1.6869,-1.48867 z m 28.8329,3.26852 c -0.8639,0 -1.3615,0.85301 -1.0197,1.74567 0.3362,0.87488 1.6199,0.94323 1.9138,0.0998 0.3144,-0.90223 -0.1408,-1.84546 -0.8941,-1.84546 z m -58.8018,2.9705 c -0.1777,0.0109 -0.3964,0.19139 -0.7546,0.55091 -0.4484,0.44701 -0.6562,1.069 -0.4648,1.38068 0.406,0.65616 1.825,0.49895 2.056,-0.22693 0.085,-0.27066 -0.055,-0.82294 -0.3117,-1.2303 -0.205,-0.32398 -0.3445,-0.48392 -0.5249,-0.47436 z m 25.8693,1.91928 c -0.3883,0.003 -0.7751,0.16404 -0.9966,0.52357 -0.4538,0.73408 0.1777,1.47637 1.2604,1.47637 0.6261,0 0.9542,-0.33766 0.9542,-0.98425 0,-0.63566 -0.6125,-1.01979 -1.2167,-1.01569 z m -32.0742,0.22009 a 0.34448598,0.34448598 0 0 0 -0.1681,0.0574 c -0.2707,0.16677 -0.4921,0.51262 -0.4921,0.76689 0,0.25563 0.2214,0.46341 0.4921,0.46341 0.2707,0 0.4921,-0.34585 0.4921,-0.76552 0,-0.33082 -0.1367,-0.5304 -0.324,-0.5222 z m 65.019,2.48522 c -0.6096,0.007 -1.3123,0.71085 -1.0061,1.20844 0.488,0.78876 1.7566,0.67256 1.7566,-0.16268 0,-0.38959 -0.1777,-0.81747 -0.3923,-0.95143 a 0.66163181,0.66163181 0 0 0 -0.3595,-0.0943 z m -58.7129,4.21312 c -0.2981,0.003 -0.607,0.15447 -0.8148,0.49212 -0.4128,0.6671 0.1436,1.47911 1.013,1.47911 0.3896,0 0.7081,-0.44292 0.7081,-0.98425 0,-0.62199 -0.4402,-0.98971 -0.9063,-0.98835 z m 32.841,0.98698 c -1.0513,0.0287 -1.2358,0.97741 -0.3432,1.87007 0.9159,0.91589 1.378,0.70264 1.378,-0.64113 0,-0.90223 -0.2625,-1.23031 -0.9843,-1.23031 z m 29.0284,2.11476 c -0.2543,0 -0.5605,0.10116 -0.8982,0.31441 -0.5919,0.37456 -0.6014,0.57551 -0.051,1.23988 0.8161,0.98288 1.7402,0.73135 1.7402,-0.47162 0,-0.69991 -0.3048,-1.07994 -0.7915,-1.08267 z m -69.6108,1.03893 c -0.6329,0.007 -1.2918,0.80106 -1.0348,1.4709 0.4265,1.11137 1.8099,0.98424 1.8099,-0.16814 0,-0.52494 -0.1777,-1.06354 -0.3923,-1.1975 a 0.70264204,0.70264204 0 0 0 -0.3828,-0.10526 z m 62.5365,3.01835 c -0.2789,0.007 -0.6302,0.16814 -1.0417,0.48666 -0.9159,0.70947 -0.9159,0.73408 0,1.44356 1.0964,0.84891 1.773,0.57414 1.773,-0.72178 0,-0.81064 -0.2638,-1.22074 -0.7313,-1.20844 z m -26.8863,0.22419 c -0.6152,0.0205 -0.9227,0.34859 -0.9227,0.98425 0,0.65616 0.328,0.98424 0.9842,0.98424 0.6562,0 0.9842,-0.32808 0.9842,-0.98424 0,-0.65617 -0.328,-0.98425 -0.9842,-0.98425 z m -27.362,4.16117 c -0.2065,0.003 -0.4539,0.14764 -0.8326,0.42377 -0.5768,0.42378 -0.8161,0.99519 -0.6247,1.49414 0.3787,0.98835 2.1025,1.07037 2.4675,0.11893 0.1462,-0.38002 0,-1.05259 -0.3199,-1.49277 -0.2707,-0.36909 -0.4552,-0.5468 -0.6903,-0.54407 z m 59.0547,1.97396 c -0.2023,-0.003 -0.4388,0.12577 -0.7874,0.38003 -0.5564,0.40737 -0.7614,0.9569 -0.5564,1.49277 0.391,1.01979 1.9767,1.12778 2.3485,0.15857 0.145,-0.37866 0,-1.05122 -0.3226,-1.49277 -0.2624,-0.35815 -0.4511,-0.5345 -0.6821,-0.5386 z m -66.4256,2.7887 a 1.0758352,1.0758352 0 0 0 -0.7314,0.32808 c -0.7655,0.76416 -0.096,2.06555 1.0663,2.06555 0.6766,0 0.9993,-0.32262 0.9993,-0.99792 0,-0.83524 -0.6712,-1.41759 -1.3342,-1.39435 z m 35.1526,0.0601 a 0.61105251,0.61105251 0 0 0 -0.3117,0.0889 c -0.5933,0.36909 -0.7273,1.89194 -0.2105,2.40867 0.5891,0.58781 1.6636,0.34448 1.9685,-0.44838 0.313,-0.81337 -0.6808,-2.06555 -1.4463,-2.05051 z m 23.9937,5.54185 c -0.2666,0.003 -0.5988,0.14216 -0.9829,0.42377 -1.0389,0.75869 -0.5974,1.78121 0.7724,1.78121 0.6151,0 0.9541,-0.33902 0.9541,-0.95691 0,-0.82704 -0.2693,-1.25354 -0.7436,-1.24807 z m -31.5642,1.19203 c -0.2174,0.007 -0.4716,0.19685 -0.5878,0.54407 -0.108,0.32534 0.068,0.50305 0.3937,0.39369 0.3253,-0.10799 0.5741,-0.35679 0.5536,-0.55363 -0.027,-0.26657 -0.1805,-0.3896 -0.3609,-0.38413 z m -14.9606,1.01158 c -1.3396,0 -1.654,0.9241 -0.6794,1.99993 0.9993,1.10455 1.527,1.20297 1.8182,0.33902 0.3745,-1.11138 -0.2229,-2.33758 -1.1374,-2.33758 z m -11.0782,1.67869 c -0.6329,0.007 -1.2918,0.80106 -1.0348,1.4709 0.4265,1.11138 1.8085,0.98424 1.8085,-0.16814 0,-0.52494 -0.1749,-1.06354 -0.3923,-1.1975 a 0.70264204,0.70264204 0 0 0 -0.3814,-0.10526 z m 61.7532,0.53723 c -0.3855,0.0219 -0.7641,0.40053 -0.853,0.85985 -0.1148,0.60422 0.1504,0.86121 0.8899,0.86121 0.7409,0 1.0075,-0.25699 0.8899,-0.86121 -0.09,-0.47435 -0.4921,-0.86122 -0.8885,-0.86122 z m -30.0195,1.28499 c -0.3486,0.008 -0.5358,0.39643 -0.2214,0.90359 0.1818,0.29391 0.5563,0.39233 0.8325,0.22282 0.3349,-0.20778 0.3267,-0.48255 -0.027,-0.83524 -0.2078,-0.20778 -0.4156,-0.29391 -0.5851,-0.29117 z m -11.2012,2.50162 c -0.3008,0.001 -0.6289,0.10253 -0.9528,0.31305 -0.9816,0.63292 -0.1463,2.05051 1.2111,2.05051 0.9733,0 1.1811,-0.21872 1.054,-1.10318 -0.1148,-0.80653 -0.6521,-1.26995 -1.3123,-1.26174 z m -7.7605,2.41551 c -0.3801,0.008 -0.8038,0.24332 -1.2167,0.73818 -0.5577,0.67394 -0.514,0.89539 0.2816,1.47637 1.2057,0.88309 2.2228,0.87488 2.2228,-0.0137 0,-1.40392 -0.5619,-2.21592 -1.2877,-2.20088 z m 24.9793,0.78739 c -0.2351,0.001 -0.5126,0.1121 -0.8202,0.33765 -0.7956,0.58235 -0.838,0.8038 -0.2802,1.47637 0.8707,1.0485 2.0163,1.00749 2.0067,-0.0697 -0.011,-1.13735 -0.3472,-1.74566 -0.9063,-1.74293 z m 18.2099,0.88172 c -0.1886,0.007 -0.4333,0.15447 -0.8161,0.43471 -0.8024,0.58781 -0.8462,0.80927 -0.2871,1.48184 0.8134,0.98014 1.4668,1.00885 1.8223,0.082 0.1503,-0.3896 0.078,-1.05533 -0.16,-1.48047 -0.1996,-0.35542 -0.3445,-0.5263 -0.5591,-0.5181 z m -5.7729,6.17888 c -0.3007,-0.004 -0.6835,0.13397 -1.1401,0.4224 -0.9473,0.60012 -0.3034,2.01087 0.9187,2.01087 0.7368,0 0.9979,-0.32124 0.9979,-1.2303 0,-0.78877 -0.2734,-1.19614 -0.7765,-1.20297 z m -25.1078,2.1462 a 1.0033838,1.0033838 0 0 0 -0.3308,0.067 c -1.1046,0.42378 -1.0936,2.05052 0.014,2.34169 1.4312,0.37319 1.4846,0.36226 1.7593,-0.35269 0.3568,-0.92956 -0.5399,-2.08332 -1.4422,-2.05598 z m 10.15,2.89942 a 1.8864708,1.8864708 0 0 0 -0.704,0.14491 c -0.9323,0.35679 -1.0362,1.4873 -0.1681,1.83726 1.2494,0.50579 1.8454,0.30074 1.8454,-0.62883 0,-0.86941 -0.354,-1.3424 -0.9733,-1.35334 z m 5.587,2.56725 c -0.1859,0.004 -0.4087,0.0889 -0.6972,0.24332 -1.1961,0.63976 -1.244,1.74704 -0.1039,2.41004 1.1825,0.68897 1.4491,0.65206 1.7908,-0.24196 0.164,-0.42651 0.068,-1.20297 -0.2132,-1.72927 -0.257,-0.47845 -0.4662,-0.6917 -0.7765,-0.6835 z m -19.1039,3.78524 c -0.5359,0.0137 -1.0513,0.42787 -1.1579,1.16469 -0.1927,1.34924 1.9548,2.45378 2.4223,1.24398 0.1695,-0.43744 0.1,-1.19613 -0.1544,-1.68552 -0.2639,-0.5058 -0.6931,-0.73409 -1.11,-0.72452 z m 9.8438,5.30399 c -0.8216,0 -1.378,0.70264 -0.9173,1.16196 0.5878,0.58781 1.6268,0.31851 1.6268,-0.42378 a 0.72724818,0.72724818 0 0 0 -0.7095,-0.73818 z m -7.8781,7.87397 c -1.7087,0 -2.2802,1.85639 -0.9733,3.16325 1.0294,1.02799 1.557,0.97468 1.9275,-0.19275 0.2652,-0.83797 -0.4183,-2.9705 -0.9542,-2.9705 z m 5.6266,11.58812 a 0.71631212,0.71631212 0 0 0 -0.246,0.0465 c -0.8777,0.33628 -0.9433,1.23988 -0.1504,2.03274 0.9022,0.90223 2.0027,-0.22146 1.3725,-1.39845 -0.2311,-0.42924 -0.6152,-0.68624 -0.9761,-0.68077 z m -5.8371,6.7872 c -0.2871,0.0137 -0.6193,0.18864 -0.9665,0.54133 -0.7573,0.76963 -0.7477,0.87489 0.1408,1.53515 1.3479,0.99792 1.7512,0.88582 1.7512,-0.49212 0,-1.04166 -0.3801,-1.60897 -0.9269,-1.58436 z m 5.0333,9.44602 c -0.1914,0.007 -0.406,0.0916 -0.6794,0.23649 -1.2002,0.6425 -1.259,2.23233 -0.108,2.90216 1.2467,0.72725 1.9439,0.64249 2.2966,-0.27477 0.1709,-0.44428 -0.035,-1.3342 -0.4566,-1.97669 -0.4128,-0.62883 -0.689,-0.89676 -1.0526,-0.88582 z m 1.7949,11.05226 c -0.6439,0.0273 -1.0895,0.90496 -0.7355,1.47637 0.514,0.83387 1.229,0.5468 1.229,-0.49213 0,-0.54133 -0.2078,-0.98424 -0.4634,-0.98424 z m -5.2698,1.54472 a 1.0758352,1.0758352 0 0 0 -0.7327,0.32534 c -0.7656,0.76553 -0.092,2.06692 1.0676,2.06692 0.6767,0 0.9993,-0.32398 0.9993,-1.00065 0,-0.83387 -0.6712,-1.41622 -1.3342,-1.39298 z m -3.1168,7.3709 c -0.1572,0 -0.3158,0.0957 -0.5017,0.27887 -0.3253,0.31988 -0.4579,0.92957 -0.2939,1.35334 0.3158,0.82431 1.5748,1.04439 2.004,0.35132 0.1422,-0.23239 -0.051,-0.84071 -0.4292,-1.35334 -0.3158,-0.42787 -0.5468,-0.63155 -0.7792,-0.63019 z m 8.8254,6.48235 c -0.2214,0.005 -0.4853,0.10937 -0.8448,0.30211 -1.3328,0.71358 -1.3424,1.24808 -0.055,2.53717 1.1756,1.17426 2.123,1.04303 2.3253,-0.31988 0.078,-0.52083 -0.16,-1.36154 -0.5291,-1.86733 -0.3335,-0.45522 -0.5714,-0.66027 -0.8967,-0.65207 z m -8.0599,3.81942 c -0.6452,-0.001 -1.3451,0.2529 -1.7702,0.76553 -0.5578,0.6712 -0.5168,0.89402 0.2788,1.47637 1.1825,0.86395 1.9535,0.86668 2.6657,0.007 0.3089,-0.37046 0.4238,-1.03482 0.2529,-1.47637 -0.1969,-0.51262 -0.7847,-0.77099 -1.4272,-0.77372 z"
   fill="#ffffff"
   id="path233"
   style="stroke-width:1.36701" />
    
    
<g
   id="g358"
   transform="matrix(0.39045243,0,0,0.39045243,1607.7425,221.36173)"><path
     d="m 75.378,174.733 c -5.183,-0.11 -10.445,-0.176 -15.493,-1.473 -4.894,-1.51 -9.698,-3.427 -14.136,-5.996 -3.848,-2.411 -6.417,-6.272 -9.275,-9.699 -8.536,-10.869 -16.32,-22.345 -23.107,-34.388 -3.024,-5.36 -5.66,-10.953 -7.496,-16.835 -1.654,-5.325 -3.4,-10.705 -3.85,-16.294 -0.204,-1.392 0.357,-3.12 1.903,-3.403 1.762,-0.126 3.059,1.329 4.476,2.154 a 150.784,150.784 0 0 1 15.202,12.04 c 5.242,4.508 11.134,8.163 16.52,12.487 0.606,0.412 -0.378,-0.705 -0.387,-1.055 -2.31,-6.234 -3.813,-12.726 -5.701,-19.093 -0.581,-2.103 -1.437,-4.3 -1.766,-6.534 -1.369,-6.716 -2.436,-13.492 -3.099,-20.315 -0.739,-7.515 -1.513,-15.043 -1.64,-22.598 -0.014,-1.124 0.065,-2.428 0.829,-3.269 0.774,-0.347 1.638,-0.603 2.41,-0.11 2.097,1.347 3.682,3.348 5.408,5.12 3.53,3.906 6.768,8.053 10.32,11.944 4.956,5.597 9.26,11.736 13.394,17.953 a 49.563,49.563 0 0 1 3.627,6.403 c 0.45,0.765 0.985,1.64 1.444,2.302 -0.493,-10.596 -0.224,-21.211 0.035,-31.811 0.22,-9.113 0.806,-18.23 2.24,-27.24 1.036,-6.656 1.88,-13.35 3.282,-19.942 0.262,-1.35 0.943,-2.989 2.53,-3.062 1.638,0.02 2.394,1.774 3.076,3.027 1.72,3.58 3.304,7.231 4.81,10.906 2.288,6.277 4.049,12.73 6.533,18.938 1.826,5.517 3.101,11.2 4.713,16.708 0.776,2.623 1.762,5.176 2.398,7.842 1.14,4.187 2.099,8.42 3.24,12.606 1.261,-7.764 2.076,-15.606 3.703,-23.306 1.563,-4.543 1.993,-9.385 3.55,-13.934 2.009,-6.805 5.422,-13.061 8.58,-19.378 2.182,-4.161 4.245,-8.404 6.773,-12.37 0.533,-0.664 1.345,-1.335 2.232,-0.958 1.878,0.4 2.341,2.574 2.724,4.18 1.346,6.789 1.724,13.724 2.202,20.616 0.775,12.268 0.905,24.562 1.166,36.849 0.215,7.117 0.374,14.2 1.11,21.304 -0.058,1.268 0.304,0.328 0.638,-0.383 3.43,-6.916 6.922,-13.811 10.821,-20.476 4.785,-7.892 9.99,-15.56 15.92,-22.641 3.657,-4.105 7.568,-7.978 11.328,-11.988 -0.572,7.77 -0.98,15.565 -2.263,23.26 -0.776,4.916 -1.225,9.749 -1.614,14.753 -0.476,7.492 -1.13,15.154 -2.217,22.654 -0.198,1.482 -0.348,2.97 -0.51,4.456 4.947,-6.023 10.59,-11.433 16.296,-16.726 4.59,-4.313 9.685,-8.025 14.644,-11.892 -0.078,3.86 0.175,7.736 -0.167,11.585 -0.13,1.023 -0.312,2.153 -1.13,2.866 -0.594,2.524 -0.784,5.13 -1.288,7.676 -1.364,7.88 -2.707,15.768 -4.389,23.587 -2.316,6.979 -3.689,14.268 -6.55,21.062 -2.238,5.083 -6.127,9.263 -10.39,12.736 -6.626,5.173 -14.42,8.518 -22.04,11.934 -3.494,1.445 -7.357,1.486 -10.903,2.764 -2.642,0.88 -5.373,1.658 -7.802,3.035 -1.958,1.4 -4.258,2.25 -6.415,3.3 -2.147,0.936 -4.277,1.98 -6.561,2.515 -2.479,1.193 -4.985,2.393 -7.704,2.934 -5.626,1.186 -11.376,1.655 -17.096,2.148 -5.02,0.368 -10.054,0.56 -15.088,0.525 z"
     id="path346" /><path
     d="m 73.043,0.013 c -1.974,0.01 -3.701,1.688 -4.197,3.579 -1.4,5.78 -2.14,11.705 -3.05,17.574 -1.301,7.95 -2.196,15.968 -2.55,24.02 -0.395,10.296 -0.63,20.605 -0.525,30.91 -4.262,-6.621 -8.782,-13.103 -13.926,-19.075 -3.23,-3.607 -6.272,-7.281 -9.445,-10.98 -2.23,-2.433 -4.324,-5.053 -6.998,-7.02 -1.386,-1.232 -3.429,-1.124 -4.997,-0.314 -1.185,0.832 -1.689,2.427 -1.79,3.846 -0.063,5.631 0.439,11.256 0.927,16.863 0.735,8.354 1.66,16.705 3.285,24.94 0.384,1.766 0.576,3.29 1.04,5.03 1.892,6.101 3.453,12.299 5.302,18.413 -3.41,-2.476 -6.864,-4.887 -10.133,-7.567 C 21.097,95.93 16.1,91.732 10.75,88.008 8.811,86.817 7.093,85.002 4.748,84.676 2.19,84.236 0.002,86.676 0,89.123 c 0.136,4.818 1.462,9.516 2.82,14.113 1.695,5.94 3.916,11.73 6.793,17.201 6.997,13.093 15.289,25.474 24.383,37.198 3.061,3.718 5.803,7.835 9.754,10.693 3.837,2.49 8.097,4.271 12.395,5.803 6.11,2.385 12.764,2.463 19.23,2.601 7.628,0.048 15.247,-0.416 22.828,-1.234 4.235,-0.514 8.529,-0.957 12.606,-2.268 2.35,-0.723 4.43,-2.122 6.822,-2.709 3.456,-1.296 6.816,-2.856 10.103,-4.531 2.317,-1.613 4.993,-2.554 7.664,-3.398 3.73,-1.47 7.804,-1.621 11.573,-2.946 6.378,-2.767 12.783,-5.58 18.681,-9.293 6.09,-3.846 11.614,-8.95 14.942,-15.416 3.34,-7.09 4.704,-14.884 7.154,-22.289 1.474,-6.403 2.559,-12.895 3.715,-19.363 0.72,-3.876 1.293,-7.776 1.95,-11.662 1.032,-1.44 1.351,-3.258 1.4,-5.01 0.227,-4.88 -0.016,-9.767 0.132,-14.65 -4.826,3.768 -9.751,7.413 -14.455,11.336 -5.49,4.804 -10.778,9.849 -15.758,15.181 0.148,-1.04 0.263,-2.085 0.395,-3.129 1.305,-10.138 1.43,-20.392 2.894,-30.513 1.733,-10.146 2.152,-20.445 2.934,-30.692 -3.655,3.858 -7.33,7.695 -11.004,11.534 -5.768,5.84 -10.602,12.513 -15.168,19.312 -4.943,7.308 -9.18,15.06 -13.148,22.932 -0.492,1.314 -0.303,-0.67 -0.408,-1.2 -0.744,-14.837 -0.594,-29.769 -1.356,-44.65 -0.505,-8.48 -0.862,-17.006 -2.377,-25.38 -0.434,-2.412 -1.16,-5.33 -3.69,-6.329 -1.623,-0.806 -3.623,-0.219 -4.718,1.184 -2.197,3.14 -3.882,6.62 -5.678,10.002 -3.572,7.074 -7.473,14.049 -9.924,21.617 -1.687,4.738 -2.23,9.778 -3.736,14.566 -1.127,4.659 -1.754,9.433 -2.453,14.174 C 96.745,59.915 96.301,57.892 95.66,55.926 93.259,48.986 91.791,41.774 89.535,34.791 87.812,30.267 86.283,25.68 84.803,21.078 83.15,15.684 80.884,10.509 78.502,5.404 77.504,3.31 76.424,0.67 73.9,0.115 A 3.52,3.52 0 0 0 73.043,0.013 Z m 0.059,4.045 c 0.28,0 1.402,2.045 2.492,4.545 1.09,2.5 2.415,5.527 2.945,6.727 0.53,1.2 2,5.455 3.268,9.455 1.267,4 2.756,8.275 3.306,9.5 0.55,1.225 2.008,6.135 3.24,10.91 1.233,4.775 2.55,9.335 2.924,10.135 0.376,0.8 1.882,6.365 3.348,12.365 1.466,6 3.02,11.137 3.453,11.416 0.536,0.345 1.438,-4.2 2.818,-14.181 1.117,-8.08 2.334,-15.345 2.702,-16.145 0.368,-0.8 1.196,-4.188 1.841,-7.53 0.646,-3.34 2.395,-8.904 3.89,-12.363 2.861,-6.627 12.322,-24.834 12.903,-24.834 2,0 3.936,22.606 4.33,50.604 0.164,11.632 0.633,24.111 1.043,27.732 0.502,4.426 0.508,7.843 0.018,10.424 -0.4,2.112 -0.563,4.003 -0.361,4.205 0.202,0.202 0.367,-0.08 0.367,-0.629 0,-1.594 6.114,-14.29 12.945,-26.882 5.135,-9.465 14.607,-23.045 20.035,-28.727 l 5.559,-5.818 -0.424,5.818 c -0.233,3.2 -0.914,8.763 -1.514,12.363 -0.6,3.6 -1.367,11.129 -1.705,16.729 -0.337,5.6 -1.148,13.873 -1.8,18.387 -0.653,4.513 -1.085,9.085 -0.96,10.16 0.216,1.844 0.436,1.69 3.967,-2.752 4.452,-5.6 16.295,-17.124 22.637,-22.026 l 4.533,-3.504 v 4.413 c 0,2.426 -0.284,4.412 -0.632,4.412 -0.348,0 -0.806,1.391 -1.018,3.091 -0.62,4.974 -4.882,28.444 -5.38,29.637 -0.252,0.6 -1.356,4.363 -2.454,8.363 -3.113,11.344 -4.428,14.315 -8.334,18.827 -5.368,6.2 -11.663,10.126 -26.91,16.78 -1.2,0.525 -3.817,1.182 -5.817,1.462 -3.427,0.48 -12.663,3.703 -13.455,4.697 -0.48,0.603 -10.471,5.143 -11.332,5.148 -0.368,0 -1.494,0.435 -2.504,0.961 -3.826,1.997 -7.117,2.726 -17.035,3.772 -14.06,1.482 -29.23,1.358 -35.33,-0.29 -2.61,-0.704 -7.258,-2.489 -10.33,-3.966 C 45.179,164.952 44.35,164.216 38.543,156.957 27.453,143.095 15.437,124.312 10.584,113.254 7.966,107.289 4.789,96.592 4.199,91.762 c -0.36,-2.95 -0.258,-3.46 0.588,-2.946 3.776,2.292 11.877,8.445 15.453,11.739 2.336,2.15 6.589,5.543 9.453,7.54 2.865,1.998 6.625,4.772 8.356,6.163 1.73,1.39 3.45,2.527 3.818,2.527 0.886,0 0.867,-3.878 -0.023,-4.768 -0.382,-0.382 -2.04,-5.586 -3.686,-11.566 -1.645,-5.98 -3.126,-11.092 -3.293,-11.361 -0.166,-0.27 -1.13,-5.195 -2.142,-10.944 -1.668,-9.474 -3.83,-35.23 -3.026,-36.035 0.348,-0.347 5.403,4.89 8.9,9.219 1.132,1.4 4.39,5.165 7.243,8.365 4.742,5.321 14.3,18.991 15.39,22.014 0.51,1.41 6.171,9.747 6.418,9.449 C 67.736,91.053 67.488,88.512 67.1,85.512 66.69,82.348 66.572,71.352 66.822,59.33 67.17,42.643 67.611,36.194 69.078,26.24 71.635,8.896 72.513,4.058 73.102,4.058 Z m 7.941,56.176 a 0.428,0.428 0 0 0 -0.207,0.025 c -2.127,0.703 -1.021,16.918 1.412,20.707 1.253,1.95 2.896,2.24 2.063,0.364 C 84,80.63 83.518,76.621 83.241,72.421 82.671,63.828 82.051,60.33 81.043,60.234 Z m 34.156,2.613 c -1.197,0.2 -2.082,13.467 -0.947,16.424 0.935,2.436 1.74,0.97 1.74,-3.17 0,-2.376 0.329,-4.524 0.729,-4.771 1.287,-0.796 0.495,-5.97 -1.278,-8.342 -0.082,-0.11 -0.164,-0.154 -0.244,-0.14 z m 36.77,16.848 c -1.495,0 -5.378,5.135 -6.324,8.363 -0.47,1.6 -1.1,3.083 -1.4,3.295 -1.384,0.976 -0.777,7.256 0.7,7.248 0.277,0 1.894,-2.955 3.594,-6.564 3.602,-7.645 4.907,-12.342 3.43,-12.342 z m -102.99,1.453 c -0.305,0 -1.413,0.392 -2.461,0.87 -1.694,0.771 -1.853,1.155 -1.428,3.421 0.263,1.404 1.065,3.713 1.783,5.131 0.718,1.419 1.544,3.725 1.834,5.125 0.705,3.405 3.958,11.604 5.4,13.613 1.854,2.583 2.976,2.044 2.979,-1.431 0.004,-4.767 -6.657,-26.729 -8.107,-26.729 z m 41.517,8.479 a 2.886,2.886 0 0 0 -1.922,0.861 c -0.987,0.988 -1.084,2.516 -0.676,10.592 0.263,5.19 0.691,11.254 0.952,13.478 l 0.472,4.045 -2.482,-1.998 c -4.794,-3.855 -14.99,-10.509 -17.38,-11.341 -1.326,-0.463 -3.382,-0.842 -4.567,-0.842 h -2.157 l 0.514,3.455 c 0.282,1.9 1.256,5.09 2.164,7.09 0.908,2 1.9,4.455 2.205,5.455 0.305,1 2.324,5.706 4.488,10.459 2.165,4.752 3.843,8.727 3.729,8.832 -0.114,0.104 -4.26,-1.787 -9.213,-4.201 -7.558,-3.684 -9.664,-4.402 -13.092,-4.467 l -4.084,-0.078 0.094,2.855 c 0.052,1.57 0.544,3.207 1.092,3.637 0.548,0.43 2.261,2.744 3.808,5.144 2.958,4.59 17.27,19.183 21.118,21.534 2.105,1.286 2.312,1.295 3.162,0.146 0.5,-0.676 0.908,-1.81 0.908,-2.52 0,-0.709 -0.737,-1.676 -1.637,-2.148 -3.293,-1.727 -7.388,-5.41 -11.918,-10.719 -4.164,-4.88 -7.578,-10.046 -6.232,-9.43 0.283,0.13 5.075,2.486 10.648,5.237 l 10.133,5.002 1.322,-1.63 c 0.727,-0.898 1.32,-2.54 1.32,-3.647 0,-2.508 -2.932,-10.397 -5.746,-15.461 -1.166,-2.1 -3.009,-6.108 -4.095,-8.908 -1.087,-2.8 -2.264,-5.404 -2.614,-5.784 -0.35,-0.38 -0.636,-1.126 -0.636,-1.66 0,-1.053 1.896,-0.328 3.761,1.44 0.532,0.503 2.275,1.782 3.875,2.843 1.6,1.061 5.618,4.415 8.928,7.453 7.083,6.501 8.435,6.921 7.848,2.434 -0.223,-1.7 -0.58,-5.824 -0.797,-9.164 -0.216,-3.34 -0.7,-9.232 -1.076,-13.092 -0.376,-3.86 -0.676,-7.507 -0.668,-8.107 0.021,-1.702 6.102,5.506 8.182,9.699 1.024,2.065 3.188,6.62 4.808,10.12 1.62,3.5 3.217,6.362 3.55,6.362 0.335,0 1.317,-0.753 2.183,-1.673 1.817,-1.935 3.04,-7.5 3.052,-13.881 l 0.008,-4.446 2.52,4.528 c 1.39,2.498 3.354,7.821 4.383,11.879 2.272,8.965 5.545,15.257 7.65,14.707 0.81,-0.212 4.121,-4.418 7.668,-9.742 3.433,-5.154 6.542,-9.372 6.91,-9.372 0.886,0 0.85,2.881 -0.18,13.91 -0.694,7.45 -0.674,9.619 0.102,11.493 0.776,1.874 1.313,2.268 2.852,2.09 1.836,-0.214 1.924,-0.449 2.744,-7.493 0.465,-4 0.874,-12.084 0.908,-17.966 l 0.062,-10.696 -2.539,-0.476 c -3.264,-0.613 -4.33,-0.167 -5.636,2.357 -0.585,1.13 -2.913,4.968 -5.172,8.53 -2.26,3.56 -4.119,6.832 -4.133,7.27 -0.014,0.44 -0.812,1.76 -1.772,2.935 l -1.744,2.132 -0.33,-1.77 c -2.03,-10.87 -3.673,-15.723 -8.39,-24.794 -2.766,-5.319 -5.507,-9.972 -6.09,-10.34 -1.664,-1.05 -4.694,0.063 -5.186,1.902 -0.242,0.905 -0.653,4.154 -0.914,7.221 l -0.474,5.576 -3.446,-5.213 C 98.623,93.708 93.698,89.433 90.496,89.627 Z m 85.45,17.777 c -0.237,0.01 -0.487,0.025 -0.75,0.057 -2.303,0.273 -5.005,4.715 -8.325,13.688 -1.11,3 -2.866,7.171 -3.902,9.27 -1.89,3.825 -2.327,6.046 -1.375,6.997 1.025,1.025 2.673,0.036 4.082,-2.449 0.793,-1.4 3.244,-6.145 5.445,-10.545 2.201,-4.4 4.732,-8.982 5.625,-10.182 3.11,-4.178 2.737,-6.921 -0.8,-6.835 z M 26.431,121.133 c -0.391,-0.017 -0.621,0.228 -0.621,0.767 0,1.376 3.81,8.299 6.189,11.248 1.29,1.6 2.728,3.647 3.195,4.547 0.97,1.869 2.823,2.16 3.444,0.543 0.938,-2.445 -0.25,-4.414 -8.668,-14.361 -1.458,-1.723 -2.793,-2.712 -3.54,-2.744 z m 74.04,22.93 c -1.084,0.027 -1.51,0.34 -2.126,0.956 -1.26,1.26 -1.203,1.547 1.55,7.733 3.54,7.95 4.701,9.435 6.588,8.426 0.76,-0.407 1.525,-1.152 1.7,-1.657 0.174,-0.504 -0.672,-2.682 -1.881,-4.838 l -2.2,-3.918 2.49,0.495 c 1.37,0.272 4.469,0.68 6.886,0.904 3.513,0.326 4.59,0.172 5.373,-0.772 0.83,-1 0.788,-1.39 -0.266,-2.554 -1.787,-1.975 -4.24,-2.797 -12.035,-4.033 -3.252,-0.516 -4.994,-0.771 -6.078,-0.743 z"
     fill="#ffffff"
     id="path348" /></g><g
   id="g364"
   transform="matrix(0.39045243,0,0,0.39045243,523.08788,259.01195)"><path
     d="m 75.378,174.733 c -5.183,-0.11 -10.445,-0.176 -15.493,-1.473 -4.894,-1.51 -9.698,-3.427 -14.136,-5.996 -3.848,-2.411 -6.417,-6.272 -9.275,-9.699 -8.536,-10.869 -16.32,-22.345 -23.107,-34.388 -3.024,-5.36 -5.66,-10.953 -7.496,-16.835 -1.654,-5.325 -3.4,-10.705 -3.85,-16.294 -0.204,-1.392 0.357,-3.12 1.903,-3.403 1.762,-0.126 3.059,1.329 4.476,2.154 a 150.784,150.784 0 0 1 15.202,12.04 c 5.242,4.508 11.134,8.163 16.52,12.487 0.606,0.412 -0.378,-0.705 -0.387,-1.055 -2.31,-6.234 -3.813,-12.726 -5.701,-19.093 -0.581,-2.103 -1.437,-4.3 -1.766,-6.534 -1.369,-6.716 -2.436,-13.492 -3.099,-20.315 -0.739,-7.515 -1.513,-15.043 -1.64,-22.598 -0.014,-1.124 0.065,-2.428 0.829,-3.269 0.774,-0.347 1.638,-0.603 2.41,-0.11 2.097,1.347 3.682,3.348 5.408,5.12 3.53,3.906 6.768,8.053 10.32,11.944 4.956,5.597 9.26,11.736 13.394,17.953 a 49.563,49.563 0 0 1 3.627,6.403 c 0.45,0.765 0.985,1.64 1.444,2.302 -0.493,-10.596 -0.224,-21.211 0.035,-31.811 0.22,-9.113 0.806,-18.23 2.24,-27.24 1.036,-6.656 1.88,-13.35 3.282,-19.942 0.262,-1.35 0.943,-2.989 2.53,-3.062 1.638,0.02 2.394,1.774 3.076,3.027 1.72,3.58 3.304,7.231 4.81,10.906 2.288,6.277 4.049,12.73 6.533,18.938 1.826,5.517 3.101,11.2 4.713,16.708 0.776,2.623 1.762,5.176 2.398,7.842 1.14,4.187 2.099,8.42 3.24,12.606 1.261,-7.764 2.076,-15.606 3.703,-23.306 1.563,-4.543 1.993,-9.385 3.55,-13.934 2.009,-6.805 5.422,-13.061 8.58,-19.378 2.182,-4.161 4.245,-8.404 6.773,-12.37 0.533,-0.664 1.345,-1.335 2.232,-0.958 1.878,0.4 2.341,2.574 2.724,4.18 1.346,6.789 1.724,13.724 2.202,20.616 0.775,12.268 0.905,24.562 1.166,36.849 0.215,7.117 0.374,14.2 1.11,21.304 -0.058,1.268 0.304,0.328 0.638,-0.383 3.43,-6.916 6.922,-13.811 10.821,-20.476 4.785,-7.892 9.99,-15.56 15.92,-22.641 3.657,-4.105 7.568,-7.978 11.328,-11.988 -0.572,7.77 -0.98,15.565 -2.263,23.26 -0.776,4.916 -1.225,9.749 -1.614,14.753 -0.476,7.492 -1.13,15.154 -2.217,22.654 -0.198,1.482 -0.348,2.97 -0.51,4.456 4.947,-6.023 10.59,-11.433 16.296,-16.726 4.59,-4.313 9.685,-8.025 14.644,-11.892 -0.078,3.86 0.175,7.736 -0.167,11.585 -0.13,1.023 -0.312,2.153 -1.13,2.866 -0.594,2.524 -0.784,5.13 -1.288,7.676 -1.364,7.88 -2.707,15.768 -4.389,23.587 -2.316,6.979 -3.689,14.268 -6.55,21.062 -2.238,5.083 -6.127,9.263 -10.39,12.736 -6.626,5.173 -14.42,8.518 -22.04,11.934 -3.494,1.445 -7.357,1.486 -10.903,2.764 -2.642,0.88 -5.373,1.658 -7.802,3.035 -1.958,1.4 -4.258,2.25 -6.415,3.3 -2.147,0.936 -4.277,1.98 -6.561,2.515 -2.479,1.193 -4.985,2.393 -7.704,2.934 -5.626,1.186 -11.376,1.655 -17.096,2.148 -5.02,0.368 -10.054,0.56 -15.088,0.525 z"
     id="path360" /><path
     d="m 73.043,0.013 c -1.974,0.01 -3.701,1.688 -4.197,3.579 -1.4,5.78 -2.14,11.705 -3.05,17.574 -1.301,7.95 -2.196,15.968 -2.55,24.02 -0.395,10.296 -0.63,20.605 -0.525,30.91 -4.262,-6.621 -8.782,-13.103 -13.926,-19.075 -3.23,-3.607 -6.272,-7.281 -9.445,-10.98 -2.23,-2.433 -4.324,-5.053 -6.998,-7.02 -1.386,-1.232 -3.429,-1.124 -4.997,-0.314 -1.185,0.832 -1.689,2.427 -1.79,3.846 -0.063,5.631 0.439,11.256 0.927,16.863 0.735,8.354 1.66,16.705 3.285,24.94 0.384,1.766 0.576,3.29 1.04,5.03 1.892,6.101 3.453,12.299 5.302,18.413 -3.41,-2.476 -6.864,-4.887 -10.133,-7.567 C 21.097,95.93 16.1,91.732 10.75,88.008 8.811,86.817 7.093,85.002 4.748,84.676 2.19,84.236 0.002,86.676 0,89.123 c 0.136,4.818 1.462,9.516 2.82,14.113 1.695,5.94 3.916,11.73 6.793,17.201 6.997,13.093 15.289,25.474 24.383,37.198 3.061,3.718 5.803,7.835 9.754,10.693 3.837,2.49 8.097,4.271 12.395,5.803 6.11,2.385 12.764,2.463 19.23,2.601 7.628,0.048 15.247,-0.416 22.828,-1.234 4.235,-0.514 8.529,-0.957 12.606,-2.268 2.35,-0.723 4.43,-2.122 6.822,-2.709 3.456,-1.296 6.816,-2.856 10.103,-4.531 2.317,-1.613 4.993,-2.554 7.664,-3.398 3.73,-1.47 7.804,-1.621 11.573,-2.946 6.378,-2.767 12.783,-5.58 18.681,-9.293 6.09,-3.846 11.614,-8.95 14.942,-15.416 3.34,-7.09 4.704,-14.884 7.154,-22.289 1.474,-6.403 2.559,-12.895 3.715,-19.363 0.72,-3.876 1.293,-7.776 1.95,-11.662 1.032,-1.44 1.351,-3.258 1.4,-5.01 0.227,-4.88 -0.016,-9.767 0.132,-14.65 -4.826,3.768 -9.751,7.413 -14.455,11.336 -5.49,4.804 -10.778,9.849 -15.758,15.181 0.148,-1.04 0.263,-2.085 0.395,-3.129 1.305,-10.138 1.43,-20.392 2.894,-30.513 1.733,-10.146 2.152,-20.445 2.934,-30.692 -3.655,3.858 -7.33,7.695 -11.004,11.534 -5.768,5.84 -10.602,12.513 -15.168,19.312 -4.943,7.308 -9.18,15.06 -13.148,22.932 -0.492,1.314 -0.303,-0.67 -0.408,-1.2 -0.744,-14.837 -0.594,-29.769 -1.356,-44.65 -0.505,-8.48 -0.862,-17.006 -2.377,-25.38 -0.434,-2.412 -1.16,-5.33 -3.69,-6.329 -1.623,-0.806 -3.623,-0.219 -4.718,1.184 -2.197,3.14 -3.882,6.62 -5.678,10.002 -3.572,7.074 -7.473,14.049 -9.924,21.617 -1.687,4.738 -2.23,9.778 -3.736,14.566 -1.127,4.659 -1.754,9.433 -2.453,14.174 C 96.745,59.915 96.301,57.892 95.66,55.926 93.259,48.986 91.791,41.774 89.535,34.791 87.812,30.267 86.283,25.68 84.803,21.078 83.15,15.684 80.884,10.509 78.502,5.404 77.504,3.31 76.424,0.67 73.9,0.115 A 3.52,3.52 0 0 0 73.043,0.013 Z m 0.059,4.045 c 0.28,0 1.402,2.045 2.492,4.545 1.09,2.5 2.415,5.527 2.945,6.727 0.53,1.2 2,5.455 3.268,9.455 1.267,4 2.756,8.275 3.306,9.5 0.55,1.225 2.008,6.135 3.24,10.91 1.233,4.775 2.55,9.335 2.924,10.135 0.376,0.8 1.882,6.365 3.348,12.365 1.466,6 3.02,11.137 3.453,11.416 0.536,0.345 1.438,-4.2 2.818,-14.181 1.117,-8.08 2.334,-15.345 2.702,-16.145 0.368,-0.8 1.196,-4.188 1.841,-7.53 0.646,-3.34 2.395,-8.904 3.89,-12.363 2.861,-6.627 12.322,-24.834 12.903,-24.834 2,0 3.936,22.606 4.33,50.604 0.164,11.632 0.633,24.111 1.043,27.732 0.502,4.426 0.508,7.843 0.018,10.424 -0.4,2.112 -0.563,4.003 -0.361,4.205 0.202,0.202 0.367,-0.08 0.367,-0.629 0,-1.594 6.114,-14.29 12.945,-26.882 5.135,-9.465 14.607,-23.045 20.035,-28.727 l 5.559,-5.818 -0.424,5.818 c -0.233,3.2 -0.914,8.763 -1.514,12.363 -0.6,3.6 -1.367,11.129 -1.705,16.729 -0.337,5.6 -1.148,13.873 -1.8,18.387 -0.653,4.513 -1.085,9.085 -0.96,10.16 0.216,1.844 0.436,1.69 3.967,-2.752 4.452,-5.6 16.295,-17.124 22.637,-22.026 l 4.533,-3.504 v 4.413 c 0,2.426 -0.284,4.412 -0.632,4.412 -0.348,0 -0.806,1.391 -1.018,3.091 -0.62,4.974 -4.882,28.444 -5.38,29.637 -0.252,0.6 -1.356,4.363 -2.454,8.363 -3.113,11.344 -4.428,14.315 -8.334,18.827 -5.368,6.2 -11.663,10.126 -26.91,16.78 -1.2,0.525 -3.817,1.182 -5.817,1.462 -3.427,0.48 -12.663,3.703 -13.455,4.697 -0.48,0.603 -10.471,5.143 -11.332,5.148 -0.368,0 -1.494,0.435 -2.504,0.961 -3.826,1.997 -7.117,2.726 -17.035,3.772 -14.06,1.482 -29.23,1.358 -35.33,-0.29 -2.61,-0.704 -7.258,-2.489 -10.33,-3.966 C 45.179,164.952 44.35,164.216 38.543,156.957 27.453,143.095 15.437,124.312 10.584,113.254 7.966,107.289 4.789,96.592 4.199,91.762 c -0.36,-2.95 -0.258,-3.46 0.588,-2.946 3.776,2.292 11.877,8.445 15.453,11.739 2.336,2.15 6.589,5.543 9.453,7.54 2.865,1.998 6.625,4.772 8.356,6.163 1.73,1.39 3.45,2.527 3.818,2.527 0.886,0 0.867,-3.878 -0.023,-4.768 -0.382,-0.382 -2.04,-5.586 -3.686,-11.566 -1.645,-5.98 -3.126,-11.092 -3.293,-11.361 -0.166,-0.27 -1.13,-5.195 -2.142,-10.944 -1.668,-9.474 -3.83,-35.23 -3.026,-36.035 0.348,-0.347 5.403,4.89 8.9,9.219 1.132,1.4 4.39,5.165 7.243,8.365 4.742,5.321 14.3,18.991 15.39,22.014 0.51,1.41 6.171,9.747 6.418,9.449 C 67.736,91.053 67.488,88.512 67.1,85.512 66.69,82.348 66.572,71.352 66.822,59.33 67.17,42.643 67.611,36.194 69.078,26.24 71.635,8.896 72.513,4.058 73.102,4.058 Z m 7.941,56.176 a 0.428,0.428 0 0 0 -0.207,0.025 c -2.127,0.703 -1.021,16.918 1.412,20.707 1.253,1.95 2.896,2.24 2.063,0.364 C 84,80.63 83.518,76.621 83.241,72.421 82.671,63.828 82.051,60.33 81.043,60.234 Z m 34.156,2.613 c -1.197,0.2 -2.082,13.467 -0.947,16.424 0.935,2.436 1.74,0.97 1.74,-3.17 0,-2.376 0.329,-4.524 0.729,-4.771 1.287,-0.796 0.495,-5.97 -1.278,-8.342 -0.082,-0.11 -0.164,-0.154 -0.244,-0.14 z m 36.77,16.848 c -1.495,0 -5.378,5.135 -6.324,8.363 -0.47,1.6 -1.1,3.083 -1.4,3.295 -1.384,0.976 -0.777,7.256 0.7,7.248 0.277,0 1.894,-2.955 3.594,-6.564 3.602,-7.645 4.907,-12.342 3.43,-12.342 z m -102.99,1.453 c -0.305,0 -1.413,0.392 -2.461,0.87 -1.694,0.771 -1.853,1.155 -1.428,3.421 0.263,1.404 1.065,3.713 1.783,5.131 0.718,1.419 1.544,3.725 1.834,5.125 0.705,3.405 3.958,11.604 5.4,13.613 1.854,2.583 2.976,2.044 2.979,-1.431 0.004,-4.767 -6.657,-26.729 -8.107,-26.729 z m 41.517,8.479 a 2.886,2.886 0 0 0 -1.922,0.861 c -0.987,0.988 -1.084,2.516 -0.676,10.592 0.263,5.19 0.691,11.254 0.952,13.478 l 0.472,4.045 -2.482,-1.998 c -4.794,-3.855 -14.99,-10.509 -17.38,-11.341 -1.326,-0.463 -3.382,-0.842 -4.567,-0.842 h -2.157 l 0.514,3.455 c 0.282,1.9 1.256,5.09 2.164,7.09 0.908,2 1.9,4.455 2.205,5.455 0.305,1 2.324,5.706 4.488,10.459 2.165,4.752 3.843,8.727 3.729,8.832 -0.114,0.104 -4.26,-1.787 -9.213,-4.201 -7.558,-3.684 -9.664,-4.402 -13.092,-4.467 l -4.084,-0.078 0.094,2.855 c 0.052,1.57 0.544,3.207 1.092,3.637 0.548,0.43 2.261,2.744 3.808,5.144 2.958,4.59 17.27,19.183 21.118,21.534 2.105,1.286 2.312,1.295 3.162,0.146 0.5,-0.676 0.908,-1.81 0.908,-2.52 0,-0.709 -0.737,-1.676 -1.637,-2.148 -3.293,-1.727 -7.388,-5.41 -11.918,-10.719 -4.164,-4.88 -7.578,-10.046 -6.232,-9.43 0.283,0.13 5.075,2.486 10.648,5.237 l 10.133,5.002 1.322,-1.63 c 0.727,-0.898 1.32,-2.54 1.32,-3.647 0,-2.508 -2.932,-10.397 -5.746,-15.461 -1.166,-2.1 -3.009,-6.108 -4.095,-8.908 -1.087,-2.8 -2.264,-5.404 -2.614,-5.784 -0.35,-0.38 -0.636,-1.126 -0.636,-1.66 0,-1.053 1.896,-0.328 3.761,1.44 0.532,0.503 2.275,1.782 3.875,2.843 1.6,1.061 5.618,4.415 8.928,7.453 7.083,6.501 8.435,6.921 7.848,2.434 -0.223,-1.7 -0.58,-5.824 -0.797,-9.164 -0.216,-3.34 -0.7,-9.232 -1.076,-13.092 -0.376,-3.86 -0.676,-7.507 -0.668,-8.107 0.021,-1.702 6.102,5.506 8.182,9.699 1.024,2.065 3.188,6.62 4.808,10.12 1.62,3.5 3.217,6.362 3.55,6.362 0.335,0 1.317,-0.753 2.183,-1.673 1.817,-1.935 3.04,-7.5 3.052,-13.881 l 0.008,-4.446 2.52,4.528 c 1.39,2.498 3.354,7.821 4.383,11.879 2.272,8.965 5.545,15.257 7.65,14.707 0.81,-0.212 4.121,-4.418 7.668,-9.742 3.433,-5.154 6.542,-9.372 6.91,-9.372 0.886,0 0.85,2.881 -0.18,13.91 -0.694,7.45 -0.674,9.619 0.102,11.493 0.776,1.874 1.313,2.268 2.852,2.09 1.836,-0.214 1.924,-0.449 2.744,-7.493 0.465,-4 0.874,-12.084 0.908,-17.966 l 0.062,-10.696 -2.539,-0.476 c -3.264,-0.613 -4.33,-0.167 -5.636,2.357 -0.585,1.13 -2.913,4.968 -5.172,8.53 -2.26,3.56 -4.119,6.832 -4.133,7.27 -0.014,0.44 -0.812,1.76 -1.772,2.935 l -1.744,2.132 -0.33,-1.77 c -2.03,-10.87 -3.673,-15.723 -8.39,-24.794 -2.766,-5.319 -5.507,-9.972 -6.09,-10.34 -1.664,-1.05 -4.694,0.063 -5.186,1.902 -0.242,0.905 -0.653,4.154 -0.914,7.221 l -0.474,5.576 -3.446,-5.213 C 98.623,93.708 93.698,89.433 90.496,89.627 Z m 85.45,17.777 c -0.237,0.01 -0.487,0.025 -0.75,0.057 -2.303,0.273 -5.005,4.715 -8.325,13.688 -1.11,3 -2.866,7.171 -3.902,9.27 -1.89,3.825 -2.327,6.046 -1.375,6.997 1.025,1.025 2.673,0.036 4.082,-2.449 0.793,-1.4 3.244,-6.145 5.445,-10.545 2.201,-4.4 4.732,-8.982 5.625,-10.182 3.11,-4.178 2.737,-6.921 -0.8,-6.835 z M 26.431,121.133 c -0.391,-0.017 -0.621,0.228 -0.621,0.767 0,1.376 3.81,8.299 6.189,11.248 1.29,1.6 2.728,3.647 3.195,4.547 0.97,1.869 2.823,2.16 3.444,0.543 0.938,-2.445 -0.25,-4.414 -8.668,-14.361 -1.458,-1.723 -2.793,-2.712 -3.54,-2.744 z m 74.04,22.93 c -1.084,0.027 -1.51,0.34 -2.126,0.956 -1.26,1.26 -1.203,1.547 1.55,7.733 3.54,7.95 4.701,9.435 6.588,8.426 0.76,-0.407 1.525,-1.152 1.7,-1.657 0.174,-0.504 -0.672,-2.682 -1.881,-4.838 l -2.2,-3.918 2.49,0.495 c 1.37,0.272 4.469,0.68 6.886,0.904 3.513,0.326 4.59,0.172 5.373,-0.772 0.83,-1 0.788,-1.39 -0.266,-2.554 -1.787,-1.975 -4.24,-2.797 -12.035,-4.033 -3.252,-0.516 -4.994,-0.771 -6.078,-0.743 z"
     fill="#ffffff"
     id="path362" /></g><g
   id="g370"
   transform="matrix(0.39045243,0,0,0.39045243,151.6982,203.52359)"><path
     d="m 75.378,174.733 c -5.183,-0.11 -10.445,-0.176 -15.493,-1.473 -4.894,-1.51 -9.698,-3.427 -14.136,-5.996 -3.848,-2.411 -6.417,-6.272 -9.275,-9.699 -8.536,-10.869 -16.32,-22.345 -23.107,-34.388 -3.024,-5.36 -5.66,-10.953 -7.496,-16.835 -1.654,-5.325 -3.4,-10.705 -3.85,-16.294 -0.204,-1.392 0.357,-3.12 1.903,-3.403 1.762,-0.126 3.059,1.329 4.476,2.154 a 150.784,150.784 0 0 1 15.202,12.04 c 5.242,4.508 11.134,8.163 16.52,12.487 0.606,0.412 -0.378,-0.705 -0.387,-1.055 -2.31,-6.234 -3.813,-12.726 -5.701,-19.093 -0.581,-2.103 -1.437,-4.3 -1.766,-6.534 -1.369,-6.716 -2.436,-13.492 -3.099,-20.315 -0.739,-7.515 -1.513,-15.043 -1.64,-22.598 -0.014,-1.124 0.065,-2.428 0.829,-3.269 0.774,-0.347 1.638,-0.603 2.41,-0.11 2.097,1.347 3.682,3.348 5.408,5.12 3.53,3.906 6.768,8.053 10.32,11.944 4.956,5.597 9.26,11.736 13.394,17.953 a 49.563,49.563 0 0 1 3.627,6.403 c 0.45,0.765 0.985,1.64 1.444,2.302 -0.493,-10.596 -0.224,-21.211 0.035,-31.811 0.22,-9.113 0.806,-18.23 2.24,-27.24 1.036,-6.656 1.88,-13.35 3.282,-19.942 0.262,-1.35 0.943,-2.989 2.53,-3.062 1.638,0.02 2.394,1.774 3.076,3.027 1.72,3.58 3.304,7.231 4.81,10.906 2.288,6.277 4.049,12.73 6.533,18.938 1.826,5.517 3.101,11.2 4.713,16.708 0.776,2.623 1.762,5.176 2.398,7.842 1.14,4.187 2.099,8.42 3.24,12.606 1.261,-7.764 2.076,-15.606 3.703,-23.306 1.563,-4.543 1.993,-9.385 3.55,-13.934 2.009,-6.805 5.422,-13.061 8.58,-19.378 2.182,-4.161 4.245,-8.404 6.773,-12.37 0.533,-0.664 1.345,-1.335 2.232,-0.958 1.878,0.4 2.341,2.574 2.724,4.18 1.346,6.789 1.724,13.724 2.202,20.616 0.775,12.268 0.905,24.562 1.166,36.849 0.215,7.117 0.374,14.2 1.11,21.304 -0.058,1.268 0.304,0.328 0.638,-0.383 3.43,-6.916 6.922,-13.811 10.821,-20.476 4.785,-7.892 9.99,-15.56 15.92,-22.641 3.657,-4.105 7.568,-7.978 11.328,-11.988 -0.572,7.77 -0.98,15.565 -2.263,23.26 -0.776,4.916 -1.225,9.749 -1.614,14.753 -0.476,7.492 -1.13,15.154 -2.217,22.654 -0.198,1.482 -0.348,2.97 -0.51,4.456 4.947,-6.023 10.59,-11.433 16.296,-16.726 4.59,-4.313 9.685,-8.025 14.644,-11.892 -0.078,3.86 0.175,7.736 -0.167,11.585 -0.13,1.023 -0.312,2.153 -1.13,2.866 -0.594,2.524 -0.784,5.13 -1.288,7.676 -1.364,7.88 -2.707,15.768 -4.389,23.587 -2.316,6.979 -3.689,14.268 -6.55,21.062 -2.238,5.083 -6.127,9.263 -10.39,12.736 -6.626,5.173 -14.42,8.518 -22.04,11.934 -3.494,1.445 -7.357,1.486 -10.903,2.764 -2.642,0.88 -5.373,1.658 -7.802,3.035 -1.958,1.4 -4.258,2.25 -6.415,3.3 -2.147,0.936 -4.277,1.98 -6.561,2.515 -2.479,1.193 -4.985,2.393 -7.704,2.934 -5.626,1.186 -11.376,1.655 -17.096,2.148 -5.02,0.368 -10.054,0.56 -15.088,0.525 z"
     id="path366" /><path
     d="m 73.043,0.013 c -1.974,0.01 -3.701,1.688 -4.197,3.579 -1.4,5.78 -2.14,11.705 -3.05,17.574 -1.301,7.95 -2.196,15.968 -2.55,24.02 -0.395,10.296 -0.63,20.605 -0.525,30.91 -4.262,-6.621 -8.782,-13.103 -13.926,-19.075 -3.23,-3.607 -6.272,-7.281 -9.445,-10.98 -2.23,-2.433 -4.324,-5.053 -6.998,-7.02 -1.386,-1.232 -3.429,-1.124 -4.997,-0.314 -1.185,0.832 -1.689,2.427 -1.79,3.846 -0.063,5.631 0.439,11.256 0.927,16.863 0.735,8.354 1.66,16.705 3.285,24.94 0.384,1.766 0.576,3.29 1.04,5.03 1.892,6.101 3.453,12.299 5.302,18.413 -3.41,-2.476 -6.864,-4.887 -10.133,-7.567 C 21.097,95.93 16.1,91.732 10.75,88.008 8.811,86.817 7.093,85.002 4.748,84.676 2.19,84.236 0.002,86.676 0,89.123 c 0.136,4.818 1.462,9.516 2.82,14.113 1.695,5.94 3.916,11.73 6.793,17.201 6.997,13.093 15.289,25.474 24.383,37.198 3.061,3.718 5.803,7.835 9.754,10.693 3.837,2.49 8.097,4.271 12.395,5.803 6.11,2.385 12.764,2.463 19.23,2.601 7.628,0.048 15.247,-0.416 22.828,-1.234 4.235,-0.514 8.529,-0.957 12.606,-2.268 2.35,-0.723 4.43,-2.122 6.822,-2.709 3.456,-1.296 6.816,-2.856 10.103,-4.531 2.317,-1.613 4.993,-2.554 7.664,-3.398 3.73,-1.47 7.804,-1.621 11.573,-2.946 6.378,-2.767 12.783,-5.58 18.681,-9.293 6.09,-3.846 11.614,-8.95 14.942,-15.416 3.34,-7.09 4.704,-14.884 7.154,-22.289 1.474,-6.403 2.559,-12.895 3.715,-19.363 0.72,-3.876 1.293,-7.776 1.95,-11.662 1.032,-1.44 1.351,-3.258 1.4,-5.01 0.227,-4.88 -0.016,-9.767 0.132,-14.65 -4.826,3.768 -9.751,7.413 -14.455,11.336 -5.49,4.804 -10.778,9.849 -15.758,15.181 0.148,-1.04 0.263,-2.085 0.395,-3.129 1.305,-10.138 1.43,-20.392 2.894,-30.513 1.733,-10.146 2.152,-20.445 2.934,-30.692 -3.655,3.858 -7.33,7.695 -11.004,11.534 -5.768,5.84 -10.602,12.513 -15.168,19.312 -4.943,7.308 -9.18,15.06 -13.148,22.932 -0.492,1.314 -0.303,-0.67 -0.408,-1.2 -0.744,-14.837 -0.594,-29.769 -1.356,-44.65 -0.505,-8.48 -0.862,-17.006 -2.377,-25.38 -0.434,-2.412 -1.16,-5.33 -3.69,-6.329 -1.623,-0.806 -3.623,-0.219 -4.718,1.184 -2.197,3.14 -3.882,6.62 -5.678,10.002 -3.572,7.074 -7.473,14.049 -9.924,21.617 -1.687,4.738 -2.23,9.778 -3.736,14.566 -1.127,4.659 -1.754,9.433 -2.453,14.174 C 96.745,59.915 96.301,57.892 95.66,55.926 93.259,48.986 91.791,41.774 89.535,34.791 87.812,30.267 86.283,25.68 84.803,21.078 83.15,15.684 80.884,10.509 78.502,5.404 77.504,3.31 76.424,0.67 73.9,0.115 A 3.52,3.52 0 0 0 73.043,0.013 Z m 0.059,4.045 c 0.28,0 1.402,2.045 2.492,4.545 1.09,2.5 2.415,5.527 2.945,6.727 0.53,1.2 2,5.455 3.268,9.455 1.267,4 2.756,8.275 3.306,9.5 0.55,1.225 2.008,6.135 3.24,10.91 1.233,4.775 2.55,9.335 2.924,10.135 0.376,0.8 1.882,6.365 3.348,12.365 1.466,6 3.02,11.137 3.453,11.416 0.536,0.345 1.438,-4.2 2.818,-14.181 1.117,-8.08 2.334,-15.345 2.702,-16.145 0.368,-0.8 1.196,-4.188 1.841,-7.53 0.646,-3.34 2.395,-8.904 3.89,-12.363 2.861,-6.627 12.322,-24.834 12.903,-24.834 2,0 3.936,22.606 4.33,50.604 0.164,11.632 0.633,24.111 1.043,27.732 0.502,4.426 0.508,7.843 0.018,10.424 -0.4,2.112 -0.563,4.003 -0.361,4.205 0.202,0.202 0.367,-0.08 0.367,-0.629 0,-1.594 6.114,-14.29 12.945,-26.882 5.135,-9.465 14.607,-23.045 20.035,-28.727 l 5.559,-5.818 -0.424,5.818 c -0.233,3.2 -0.914,8.763 -1.514,12.363 -0.6,3.6 -1.367,11.129 -1.705,16.729 -0.337,5.6 -1.148,13.873 -1.8,18.387 -0.653,4.513 -1.085,9.085 -0.96,10.16 0.216,1.844 0.436,1.69 3.967,-2.752 4.452,-5.6 16.295,-17.124 22.637,-22.026 l 4.533,-3.504 v 4.413 c 0,2.426 -0.284,4.412 -0.632,4.412 -0.348,0 -0.806,1.391 -1.018,3.091 -0.62,4.974 -4.882,28.444 -5.38,29.637 -0.252,0.6 -1.356,4.363 -2.454,8.363 -3.113,11.344 -4.428,14.315 -8.334,18.827 -5.368,6.2 -11.663,10.126 -26.91,16.78 -1.2,0.525 -3.817,1.182 -5.817,1.462 -3.427,0.48 -12.663,3.703 -13.455,4.697 -0.48,0.603 -10.471,5.143 -11.332,5.148 -0.368,0 -1.494,0.435 -2.504,0.961 -3.826,1.997 -7.117,2.726 -17.035,3.772 -14.06,1.482 -29.23,1.358 -35.33,-0.29 -2.61,-0.704 -7.258,-2.489 -10.33,-3.966 C 45.179,164.952 44.35,164.216 38.543,156.957 27.453,143.095 15.437,124.312 10.584,113.254 7.966,107.289 4.789,96.592 4.199,91.762 c -0.36,-2.95 -0.258,-3.46 0.588,-2.946 3.776,2.292 11.877,8.445 15.453,11.739 2.336,2.15 6.589,5.543 9.453,7.54 2.865,1.998 6.625,4.772 8.356,6.163 1.73,1.39 3.45,2.527 3.818,2.527 0.886,0 0.867,-3.878 -0.023,-4.768 -0.382,-0.382 -2.04,-5.586 -3.686,-11.566 -1.645,-5.98 -3.126,-11.092 -3.293,-11.361 -0.166,-0.27 -1.13,-5.195 -2.142,-10.944 -1.668,-9.474 -3.83,-35.23 -3.026,-36.035 0.348,-0.347 5.403,4.89 8.9,9.219 1.132,1.4 4.39,5.165 7.243,8.365 4.742,5.321 14.3,18.991 15.39,22.014 0.51,1.41 6.171,9.747 6.418,9.449 C 67.736,91.053 67.488,88.512 67.1,85.512 66.69,82.348 66.572,71.352 66.822,59.33 67.17,42.643 67.611,36.194 69.078,26.24 71.635,8.896 72.513,4.058 73.102,4.058 Z m 7.941,56.176 a 0.428,0.428 0 0 0 -0.207,0.025 c -2.127,0.703 -1.021,16.918 1.412,20.707 1.253,1.95 2.896,2.24 2.063,0.364 C 84,80.63 83.518,76.621 83.241,72.421 82.671,63.828 82.051,60.33 81.043,60.234 Z m 34.156,2.613 c -1.197,0.2 -2.082,13.467 -0.947,16.424 0.935,2.436 1.74,0.97 1.74,-3.17 0,-2.376 0.329,-4.524 0.729,-4.771 1.287,-0.796 0.495,-5.97 -1.278,-8.342 -0.082,-0.11 -0.164,-0.154 -0.244,-0.14 z m 36.77,16.848 c -1.495,0 -5.378,5.135 -6.324,8.363 -0.47,1.6 -1.1,3.083 -1.4,3.295 -1.384,0.976 -0.777,7.256 0.7,7.248 0.277,0 1.894,-2.955 3.594,-6.564 3.602,-7.645 4.907,-12.342 3.43,-12.342 z m -102.99,1.453 c -0.305,0 -1.413,0.392 -2.461,0.87 -1.694,0.771 -1.853,1.155 -1.428,3.421 0.263,1.404 1.065,3.713 1.783,5.131 0.718,1.419 1.544,3.725 1.834,5.125 0.705,3.405 3.958,11.604 5.4,13.613 1.854,2.583 2.976,2.044 2.979,-1.431 0.004,-4.767 -6.657,-26.729 -8.107,-26.729 z m 41.517,8.479 a 2.886,2.886 0 0 0 -1.922,0.861 c -0.987,0.988 -1.084,2.516 -0.676,10.592 0.263,5.19 0.691,11.254 0.952,13.478 l 0.472,4.045 -2.482,-1.998 c -4.794,-3.855 -14.99,-10.509 -17.38,-11.341 -1.326,-0.463 -3.382,-0.842 -4.567,-0.842 h -2.157 l 0.514,3.455 c 0.282,1.9 1.256,5.09 2.164,7.09 0.908,2 1.9,4.455 2.205,5.455 0.305,1 2.324,5.706 4.488,10.459 2.165,4.752 3.843,8.727 3.729,8.832 -0.114,0.104 -4.26,-1.787 -9.213,-4.201 -7.558,-3.684 -9.664,-4.402 -13.092,-4.467 l -4.084,-0.078 0.094,2.855 c 0.052,1.57 0.544,3.207 1.092,3.637 0.548,0.43 2.261,2.744 3.808,5.144 2.958,4.59 17.27,19.183 21.118,21.534 2.105,1.286 2.312,1.295 3.162,0.146 0.5,-0.676 0.908,-1.81 0.908,-2.52 0,-0.709 -0.737,-1.676 -1.637,-2.148 -3.293,-1.727 -7.388,-5.41 -11.918,-10.719 -4.164,-4.88 -7.578,-10.046 -6.232,-9.43 0.283,0.13 5.075,2.486 10.648,5.237 l 10.133,5.002 1.322,-1.63 c 0.727,-0.898 1.32,-2.54 1.32,-3.647 0,-2.508 -2.932,-10.397 -5.746,-15.461 -1.166,-2.1 -3.009,-6.108 -4.095,-8.908 -1.087,-2.8 -2.264,-5.404 -2.614,-5.784 -0.35,-0.38 -0.636,-1.126 -0.636,-1.66 0,-1.053 1.896,-0.328 3.761,1.44 0.532,0.503 2.275,1.782 3.875,2.843 1.6,1.061 5.618,4.415 8.928,7.453 7.083,6.501 8.435,6.921 7.848,2.434 -0.223,-1.7 -0.58,-5.824 -0.797,-9.164 -0.216,-3.34 -0.7,-9.232 -1.076,-13.092 -0.376,-3.86 -0.676,-7.507 -0.668,-8.107 0.021,-1.702 6.102,5.506 8.182,9.699 1.024,2.065 3.188,6.62 4.808,10.12 1.62,3.5 3.217,6.362 3.55,6.362 0.335,0 1.317,-0.753 2.183,-1.673 1.817,-1.935 3.04,-7.5 3.052,-13.881 l 0.008,-4.446 2.52,4.528 c 1.39,2.498 3.354,7.821 4.383,11.879 2.272,8.965 5.545,15.257 7.65,14.707 0.81,-0.212 4.121,-4.418 7.668,-9.742 3.433,-5.154 6.542,-9.372 6.91,-9.372 0.886,0 0.85,2.881 -0.18,13.91 -0.694,7.45 -0.674,9.619 0.102,11.493 0.776,1.874 1.313,2.268 2.852,2.09 1.836,-0.214 1.924,-0.449 2.744,-7.493 0.465,-4 0.874,-12.084 0.908,-17.966 l 0.062,-10.696 -2.539,-0.476 c -3.264,-0.613 -4.33,-0.167 -5.636,2.357 -0.585,1.13 -2.913,4.968 -5.172,8.53 -2.26,3.56 -4.119,6.832 -4.133,7.27 -0.014,0.44 -0.812,1.76 -1.772,2.935 l -1.744,2.132 -0.33,-1.77 c -2.03,-10.87 -3.673,-15.723 -8.39,-24.794 -2.766,-5.319 -5.507,-9.972 -6.09,-10.34 -1.664,-1.05 -4.694,0.063 -5.186,1.902 -0.242,0.905 -0.653,4.154 -0.914,7.221 l -0.474,5.576 -3.446,-5.213 C 98.623,93.708 93.698,89.433 90.496,89.627 Z m 85.45,17.777 c -0.237,0.01 -0.487,0.025 -0.75,0.057 -2.303,0.273 -5.005,4.715 -8.325,13.688 -1.11,3 -2.866,7.171 -3.902,9.27 -1.89,3.825 -2.327,6.046 -1.375,6.997 1.025,1.025 2.673,0.036 4.082,-2.449 0.793,-1.4 3.244,-6.145 5.445,-10.545 2.201,-4.4 4.732,-8.982 5.625,-10.182 3.11,-4.178 2.737,-6.921 -0.8,-6.835 z M 26.431,121.133 c -0.391,-0.017 -0.621,0.228 -0.621,0.767 0,1.376 3.81,8.299 6.189,11.248 1.29,1.6 2.728,3.647 3.195,4.547 0.97,1.869 2.823,2.16 3.444,0.543 0.938,-2.445 -0.25,-4.414 -8.668,-14.361 -1.458,-1.723 -2.793,-2.712 -3.54,-2.744 z m 74.04,22.93 c -1.084,0.027 -1.51,0.34 -2.126,0.956 -1.26,1.26 -1.203,1.547 1.55,7.733 3.54,7.95 4.701,9.435 6.588,8.426 0.76,-0.407 1.525,-1.152 1.7,-1.657 0.174,-0.504 -0.672,-2.682 -1.881,-4.838 l -2.2,-3.918 2.49,0.495 c 1.37,0.272 4.469,0.68 6.886,0.904 3.513,0.326 4.59,0.172 5.373,-0.772 0.83,-1 0.788,-1.39 -0.266,-2.554 -1.787,-1.975 -4.24,-2.797 -12.035,-4.033 -3.252,-0.516 -4.994,-0.771 -6.078,-0.743 z"
     fill="#ffffff"
     id="path368" /></g></svg>
