<svg xml:space="preserve" version="1.1" id="svg235" viewBox="0 0 2207 400" xmlns="http://www.w3.org/2000/svg">
    <path d="M1129.124 290.742c-1.69-.234-3.404-.645-4.902-1.478-1.343-.793-1.984-2.324-2.088-3.823-.202-2.714.123-5.432.156-8.146.504-17.978.466-35.979 1.403-53.929.242-6.33.374-12.691-.237-19.005-.127-1.21-.383-2.4-.678-3.58-5.035-3.1-10.817-4.878-15.548-8.486-2.166-1.718-3.5-4.356-4.27-6.89-1.81-5.42-3.008-11.026-4.046-16.639a83.02 83.02 0 0 1-.779-5.308c-.038-.486-.13-1.276-.164-1.883-.242-3.725.492-7.42.848-11.114.937-7.717 2.073-15.414 3.603-23.037 1-5.428 1.777-10.902 2.488-16.363.477-3.128.994-6.322 2.365-9.203.861-1.803 2.406-3.315 4.365-3.85 2.567-.825 5.548-.081 7.383 1.91 2.765 2.814 3.82 6.786 4.497 10.56.602 3.559.71 7.184.535 10.782a86.152 86.152 0 0 1-.215 2.979c-.432 5.886-2.145 11.587-2.61 17.468-.548 5.466-.712 10.96-1.168 16.387-.267 3.262-.246 6.576.517 9.774.621 2.838 1.443 5.664 2.709 8.284.567 1.223 2.302 1.44 3.263.568.697-.848 2.016-.799 2.607-1.776 2.41-3.199 3.237-7.25 3.624-11.158.663-7.308.954-14.66.589-21.995-.26-6.086-.889-12.144-1.475-18.204-.957-11.017-1.17-22.217-1.796-33.318-.144-2.114-.025-4.302.142-6.325.487-5.415 1.076-10.987 2.132-16.39.766-4.068 2.186-8.282 5.337-11.132 2.78-2.57 6.91-3.2 10.495-2.265 2.504.515 5.163 1.563 6.518 3.878 1.44 2.19 2.18 4.77 2.57 7.334.39.823 1.408 1.044 2.203.708 1.28-.044 2.505.447 3.757.656-.465-1.971-1.373-3.916-1.203-5.98.283-1.791 1.873-2.934 3.063-4.154 1.132-1.24 2.797-1.995 4.49-1.863 1.569-.112 3.319.342 4.225 1.728 1.472 1.984 1.852 4.51 2.279 6.879.079.757.142 1.516.216 2.272 2.67-.397 5.598-1.107 8.137.191 2.549 1.455 3.683 4.537 3.713 7.346.01 2.49-1.129 4.874-2.87 6.622-.665.465-.421.814.224 1.11 1.477.993 3.035 2.129 3.755 3.814.64 1.96.349 4.071.088 6.074-.297 1.766-.973 3.848-2.83 4.506-1.13.39-2.33.693-3.524.735-1.776-.221-3.326-1.225-4.883-2.037-.836-.493-1.605-1.093-2.41-1.64-1.266 2.818-2.264 6.017-4.819 7.97-2.08 1.488-4.948 1.85-7.334.941-1.59-.77-2.825-2.228-3.49-3.848-.22-.765-.31-1.561-.475-2.337-1.083.352-2.153.939-3.33.71-.707-.196-.976.06-.799.774.148 3.267-.613 6.477-.909 9.715-.72 5.835-1.234 11.67-2.048 17.476-.474 3.308-.46 6.659-.642 9.99-.41 10.893-.737 21.793-.73 32.694.072 5.24.119 10.513.961 15.698.437 1.999.898 4.203 2.487 5.631.535.451 1.126.833 1.684 1.254 1.334-2.141 2.447-4.427 3.123-6.863 1.887-6.795 2.741-13.827 3.363-20.836.509-5.21.481-10.459 1.056-15.661.546-3.668 2.662-7.304 6.094-8.932 2.385-1.156 5.583-1.004 7.465 1.02 1.72 1.94 2.458 4.534 2.977 7.023 1.035 5.236 1.1 10.717 1.084 16.103.05 2.882-.2 5.77-.875 8.577a415.509 415.509 0 0 1-3.18 12.756c-.621 2.166-1.275 4.392-2.702 6.184-3.524 4.55-6.84 9.306-10.978 13.335-6.122 5.476-11.102 12.06-16.921 17.834-1.62 1.828-1.62 4.413-1.811 6.71-.391 6.514-.242 13.043-.278 19.565.037 11.773.02 23.548.38 35.314.087 1.605.637 3.45-.478 4.834-1.78 2.406-4.794 3.39-7.6 4.005-1.928.272-3.904.198-5.802.692-.684.098-1.383.156-2.073.078z" id="path231"/>
    <path d="M1144.67 52.393c-2.522.055-5.027.82-7.053 2.351-3.364 2.532-5.171 6.58-6.149 10.57-1.038 4.55-1.613 9.192-2.131 13.826-.34 3.72-.84 7.46-.588 11.201.722 12.71.876 25.46 2.265 38.126.558 5.736 1.026 11.581 1.139 17.347a138.96 138.96 0 0 1-.025 6.686c-.163 4.112-.368 8.215-.801 12.227-.433 3.25-1.16 6.635-3.192 9.293-.316.674-1.102.623-1.638 1.02-.5.164-.742.816-1.275.842-.69.151-.829-.62-1.087-1.073a40.87 40.87 0 0 1-2.584-9.087c-.656-3.918-.038-7.918.169-11.812.306-4.432.47-8.748.97-13.141.454-4.88 1.8-9.62 2.306-14.49.741-6.579.806-13.363-.974-19.788-.935-3.318-2.547-6.682-5.441-8.712-2.533-1.766-6.001-1.908-8.726-.506-2.236 1.061-3.63 3.265-4.459 5.518-1.613 4.559-1.955 9.426-2.65 14.178-.17 1.252-.397 2.686-.579 3.911-.443 2.693-.887 5.386-1.408 8.066-1.432 7.189-2.436 14.452-3.328 21.725-.343 3.33-.914 6.65-.878 10.007.205 3.931.905 7.823 1.654 11.682 1.034 4.84 2.098 9.692 3.78 14.354.856 2.615 2.368 5.04 4.542 6.757 4.588 3.478 10.157 5.252 15.066 8.188.527 2.007.66 4.086.775 6.105.291 5.486.17 11.012-.064 16.448-.851 16.24-.862 32.508-1.257 48.761-.072 2.508-.098 4.912-.233 7.388-.046 2.3-.353 4.675.302 6.92.493 1.788 1.957 3.157 3.679 3.764 1.53.554 3.132 1.001 4.761 1.088.76.014 1.518-.065 2.263-.2 2.16-.584 4.455-.229 6.6-.907 2.92-.745 5.988-2.086 7.606-4.768 1.029-1.672.482-3.68.376-5.504-.335-12.484-.333-24.976-.36-37.465.048-5.95-.092-11.912.338-17.853.186-1.742.218-3.728 1.492-5.079 5.335-5.259 9.909-11.243 15.371-16.378 3.863-3.393 6.97-7.514 10.078-11.581 1.495-2.06 3.313-3.95 4.24-6.36 1.299-3.442 2.016-7.063 2.961-10.609.962-4.083 2.194-8.16 2.246-12.39.085-4.96.051-9.937-.49-14.872-.471-3.478-1.056-7.087-2.94-10.116-1.134-1.832-3.074-3.152-5.24-3.349-3.086-.407-6.173 1.057-8.188 3.357-2.138 2.322-3.319 5.404-3.56 8.53-.39 4.266-.437 8.554-.787 12.823-.418 5.463-1.044 11.06-2.087 16.524-.79 3.803-1.572 7.727-3.615 11.09-.55-.372-.979-.9-1.296-1.478-1.276-2.759-1.453-5.855-1.726-8.84-.315-4.678-.367-9.47-.342-14.238.11-10.112.387-20.228.793-30.316.189-2.988.145-6.007.688-8.96.781-6.064 1.35-12.175 2.106-18.21.26-2.608.84-5.2.757-7.83a3.773 3.773 0 0 0 1.726-.292c.087.659.315 1.293.62 1.882 1.038 1.76 2.554 3.423 4.571 4.014 2.394.648 5.072.347 7.236-.885 2.75-1.61 4.128-4.657 5.318-7.473.596.437 1.234.82 1.886 1.169 1.662.825 3.38 1.868 5.299 1.812 1.713-.313 3.574-.544 4.978-1.67 1.59-1.412 2.118-3.627 2.373-5.657.193-2.183.434-4.562-.627-6.572-.861-1.355-2.082-2.487-3.422-3.363 2.06-2.24 3.056-5.39 2.639-8.405-.383-2.8-1.761-5.7-4.33-7.098-2.315-1.236-5.074-.982-7.57-.561a18.636 18.636 0 0 0-.168-1.476c-.527-2.628-1.038-5.49-2.949-7.508-1.268-1.449-3.297-1.802-5.13-1.679-1.768-.079-3.466.68-4.744 1.87-1.326 1.33-2.909 2.557-3.62 4.356-.596 1.737-.072 3.609.412 5.31-.637-.154-1.302-.274-1.96-.199-.354-.02-.955.444-.842-.19-.542-3.076-1.616-6.17-3.675-8.571-1.986-2.1-4.917-2.917-7.681-3.396a13.578 13.578 0 0 0-2.51-.178zm.25 2.71c2.718 0 6.204 1.074 7.614 2.348 2.325 2.105 4.32 8.895 2.946 10.035-2.256 1.873-2.86 7.3-1.128 10.14 1.368 2.245 1.289 5.14-.185 6.732-2.495 2.693-2.906 8.35-.815 11.18 1.03 1.394 1.034 1.485.293 7.181a658.858 658.858 0 0 0-1.526 13.154c-.426 4.06-.88 7.69-1.008 8.07-.48 1.428-1.432 32.218-1.322 42.856.151 14.849 1.21 20.186 4.437 22.378 2.332 1.585 3.245 1.058 5.122-2.952 2.577-5.507 4.652-18.418 5.296-32.956.32-7.218.524-8.686 1.49-10.705 1.929-4.029 5.454-6.02 8.728-4.928 3.309 1.103 5.107 7.848 5.218 19.57.078 8.158.034 8.553-1.796 15.99-2.801 11.388-3.128 12.368-4.867 14.628l-5.122 6.668c-1.938 2.526-4.79 5.673-6.336 6.994-1.547 1.322-5.123 5.036-7.949 8.254-2.824 3.218-6.093 6.776-7.263 7.905-3.44 3.315-3.48 3.725-3.396 34.776.041 14.75.233 28.035.427 29.524.328 2.524.26 2.798-1.003 4.06-1.486 1.486-5.32 2.83-8.077 2.83-.968 0-2.422.182-3.231.405-.81.222-2.138.25-2.95.061-5.079-1.181-5.356-1.665-4.997-8.712.163-3.18.417-14.416.568-24.971.149-10.553.488-23.018.751-27.696.836-14.83.37-26.253-1.148-28.094-.322-.391-3.296-1.992-6.61-3.557-7.849-3.708-9.946-5.192-11.587-8.206-2.393-4.398-6.26-21.84-6.253-28.216.01-2.966 2.242-20.272 3.397-26.262 1.673-8.67 2.492-13.635 3.253-19.744 1.23-9.862 2.673-13.391 5.906-14.459 9.11-3.007 13.64 13.338 9.343 33.71-.798 3.787-1.416 8.905-1.725 14.27-.264 4.6-.62 9.917-.79 11.812-.17 1.894-.064 5.02.234 6.948.66 4.249 2.638 10.27 3.797 11.551 1.021 1.128 3.761 1.244 4.63.198.337-.406.907-.738 1.266-.738.934 0 3.012-2.892 3.914-5.447 1.352-3.818 1.679-6.052 2.191-15.036.528-9.227.182-17.827-1.275-31.676-.412-3.924-.968-12.782-1.233-19.684-.267-6.9-.602-14.03-.746-15.84-.274-3.455 1.267-17.302 2.55-22.92 1.723-7.536 5.46-11.428 10.968-11.428zm24.774.984c1.871 0 2.347.218 3.305 1.513 1.162 1.573 2.39 7.76 1.643 8.292-.217.155-.685 1.72-1.039 3.48-.352 1.759-.676 3.225-.72 3.257-.045.033-.889.202-1.874.38-1.714.31-1.873.217-3.574-2.1-2.053-2.797-3.481-5.896-3.956-8.585-.307-1.752-.18-2.03 1.848-4.06 1.924-1.923 2.436-2.177 4.367-2.177zm-22.757 9.008a2.498 2.498 0 0 0-.625.134c-1.408.434-1.483.525-1.145 1.407.374.975 1.632.485 1.959-.763.145-.555.126-.779-.189-.776zm34.088 1.32c2.604 0 3.953.933 4.999 3.138 1.226 2.584 1.038 5.578-.492 7.788-1.113 1.603-1.556 1.866-3.079 1.835-.977-.021-2.553-.318-3.5-.66-1.033-.371-1.779-.997-1.864-1.56-.369-2.442-.663-3.11-1.482-3.37-.833-.265-.84-.455-.123-3.431.733-3.03.831-3.165 2.486-3.44 1.182-.195 2.187-.3 3.055-.3zm-21.202.99c1.194 0 3.876 1.339 3.876 1.936 0 .24.834 1.507 1.854 2.816l1.856 2.382-.869 1.722c-.478.947-.87 2.406-.87 3.243 0 1.88-1.375 2.591-4.185 2.17-3.065-.456-4.544-1.715-5.47-4.656-.507-1.599-.695-3.228-.501-4.267.393-2.1 3.011-5.347 4.31-5.347zm-21.296 4.096c-.67.008-1.4.599-1.4 1.367 0 1.155 1.865 1.285 2.296.161.162-.423.082-.984-.178-1.246a.972.972 0 0 0-.718-.282zm34.125 3.333c.638.01.95.282 1.483.94 1.508 1.862.37 4.878-2.454 6.511-1.419.822-1.53.82-2.608-.051-1.053-.852-1.096-1.102-.667-3.812l.46-2.9 2.163-.454c.739-.155 1.239-.24 1.623-.235zm-23.71.504c-.282.006-.698.328-1.275.968-.912 1.006-.913 1.043-.01 1.706 1.217.89 1.768.49 1.768-1.288 0-.935-.147-1.394-.488-1.387zm-7.443 4.164a1.706 1.706 0 0 0-.436.062c-1.09.284-1.329 1.417-.369 1.75.656.226 1.334-.498 1.347-1.439 0-.236-.211-.371-.542-.373zm35.07.778 1.808.755c.994.415 2.889.772 4.21.793 1.996.03 2.682.3 4.06 1.599 1.501 1.416 1.654 1.822 1.654 4.348 0 1.533-.317 3.548-.705 4.476-.683 1.636-.943 1.783-4.295 2.433-.448.09-2.108-.552-3.69-1.423-3.08-1.699-3.707-2.58-4.764-6.706-.652-2.551-.631-2.72.524-4.464zm-12.766 2.997c1.623-.025 2.92.084 3.1.373.148.24-.285 1.055-.962 1.812-.676.758-2.255 2.769-3.512 4.47-1.995 2.706-4.228 4.551-5.473 4.528-.216-.003-.946-.286-1.623-.626-.939-.473-1.266-1.072-1.386-2.537-.205-2.479 1.15-6.001 2.699-7.016.842-.55 4.452-.962 7.157-1.004zm8.59 1.566.916 3.459c1.07 4.051 1.064 4.13-.657 7.599-1.567 3.155-3.446 4.467-6.407 4.47-1.7 0-2.42-.29-3.568-1.437-.792-.793-1.438-1.907-1.438-2.48 0-1.089 5.108-9.03 6.704-10.419.507-.443 1.717-.891 2.687-.998zm-35.5 2.202c-.418.004-.75.275-.75.893 0 1.08.901 2.101 1.853 2.101.444 0 .62-.46.518-1.353-.116-1-.97-1.646-1.622-1.64zm10.443 3.514c-.14.012-.32.236-.648.682-.387.525-.704 1.244-.704 1.6 0 .888 1.443.811 1.791-.097.156-.406.133-1.125-.05-1.599-.157-.4-.252-.6-.39-.588zm-7.755 7.947a.804.804 0 0 0-.55.257c-.63.63-.24 2.1.557 2.1.287 0 .656-.346.819-.77.314-.82-.222-1.6-.826-1.587zm7.126 7.278c-.888 0-1.436 1.17-1.036 2.215.37.962 1.114.943 1.49-.041.51-1.326.332-2.174-.454-2.174zm-34.943.985c-.824 0-1.363.825-.961 1.476.336.543 1.394.656 1.852.197.47-.47-.172-1.673-.89-1.673zm28.133.248c-.098-.003-.245.114-.46.331-.874.885-1.39 2.358-1.033 2.94.427.69 1.643-1.101 1.661-2.448.01-.56-.027-.817-.17-.823zm-23.214 3.689c-.985 0-1.428 1.033-.654 1.522.807.512 1.152.546 1.546.15.47-.468-.172-1.674-.892-1.674zm27.709 5.697a1.388 1.388 0 0 0-.31.047c-1.24.325-1.733 1.551-.985 2.452.67.808 1.392.665 2.07-.41.65-1.03.183-2.12-.774-2.089zm-25.978.902c-.273 0-.596.09-.947.278-.857.458-.954.71-.485 1.275.782.944 1.763.89 2.149-.116.336-.875-.023-1.438-.717-1.437zm-6.31 1.283a.912.912 0 0 0-.784.443c-.406.654 1.244 2.165 1.78 1.63.243-.243.3-.812.127-1.263-.203-.526-.677-.816-1.124-.812zm23.997 3.436c-.306.02-.414.502-.146 1.2.255.666.412.71.728.197.223-.36.196-.86-.059-1.115-.205-.205-.384-.291-.523-.282zm6.373 2.581a.414.414 0 0 0-.118.02c-.827.277-.992 1.895-.24 2.36.817.506 1.532-.624 1.103-1.743-.148-.385-.465-.645-.745-.637zm-25.462 2.233a1.914 1.914 0 0 0-.305.028c-1.282.222-1.408.376-1.06 1.285.16.419.757.759 1.327.759.79 0 .995-.26.875-1.105-.096-.675-.337-.967-.837-.967zm-9.171 2.73c-.142.004-.237.109-.237.299 0 .286.222.52.492.52.271 0 .492-.098.492-.218 0-.119-.221-.353-.492-.52a.473.473 0 0 0-.255-.081zm39.888 1.043a1.262 1.262 0 0 0-.268.023c-2.007.385-2.558 1.427-1.378 2.607.819.82 1.708.738 2.064-.188.563-1.465.383-2.423-.418-2.442zm-33.306 3.376c-.308.001-.695.182-1.173.532-.94.687-.942.719-.027 1.728 1.408 1.558 2.347 1.326 2.163-.533-.115-1.166-.413-1.73-.963-1.727zm24.413.336c-1.316 0-1.923.698-1.521 1.747.337.877 1.585.935 2.108.099.758-1.213.557-1.846-.588-1.846zm-31.232 1.477c-1.114 0-1.26.51-.393 1.378.868.866 1.376.721 1.376-.394 0-.656-.327-.984-.983-.984zm35.358 4.604a.917.917 0 0 0-.31.059c-.784.302-.776.382.106 1.03 1.053.775 1.436.856 1.89.4.501-.5-.784-1.512-1.686-1.49zm28.833 3.268c-.864 0-1.362.853-1.02 1.746.336.875 1.62.943 1.914.1.314-.902-.14-1.846-.894-1.846zm-58.802 2.97c-.178.012-.396.192-.755.552-.448.447-.656 1.069-.464 1.38.406.657 1.825.5 2.056-.227.085-.27-.055-.822-.312-1.23-.205-.324-.345-.484-.525-.474zm25.87 1.92c-.389.003-.776.164-.997.524-.454.734.177 1.476 1.26 1.476.626 0 .954-.338.954-.984 0-.636-.612-1.02-1.216-1.016zm-32.075.22a.344.344 0 0 0-.168.058c-.27.166-.492.512-.492.766 0 .256.221.464.492.464.27 0 .492-.346.492-.766 0-.33-.137-.53-.324-.522zm65.02 2.485c-.61.007-1.313.711-1.007 1.209.488.789 1.757.672 1.757-.163 0-.39-.178-.817-.393-.951a.662.662 0 0 0-.36-.095zm-58.714 4.214c-.298.003-.607.154-.815.492-.412.667.144 1.479 1.013 1.479.39 0 .708-.443.708-.984 0-.622-.44-.99-.906-.989zm32.841.987c-1.051.028-1.236.977-.343 1.87.916.915 1.378.702 1.378-.642 0-.902-.263-1.23-.984-1.23zm29.029 2.114c-.255 0-.56.101-.899.315-.592.374-.601.575-.05 1.24.815.982 1.74.73 1.74-.472 0-.7-.305-1.08-.792-1.083zm-69.611 1.04c-.633.006-1.292.8-1.035 1.47.426 1.111 1.81.984 1.81-.168 0-.525-.178-1.064-.392-1.198a.703.703 0 0 0-.383-.105zm62.536 3.018c-.279.007-.63.168-1.041.486-.916.71-.916.734 0 1.444 1.096.849 1.773.574 1.773-.722 0-.81-.264-1.22-.732-1.208zm-26.886.224c-.615.02-.923.348-.923.984 0 .656.328.984.984.984.657 0 .985-.328.985-.984 0-.656-.328-.984-.984-.984zm-27.362 4.16c-.207.004-.454.149-.833.425-.576.423-.816.995-.624 1.494.378.988 2.102 1.07 2.467.119.146-.38 0-1.053-.32-1.493-.27-.37-.455-.547-.69-.544zm59.055 1.975c-.203-.003-.44.126-.788.38-.556.407-.761.957-.556 1.493.39 1.02 1.977 1.127 2.348.158.145-.378 0-1.051-.322-1.493-.263-.358-.451-.534-.682-.538zm-66.426 2.789a1.076 1.076 0 0 0-.731.328c-.766.764-.096 2.065 1.066 2.065.677 0 1-.322 1-.998 0-.835-.672-1.417-1.335-1.394zm35.153.06a.611.611 0 0 0-.312.089c-.593.369-.727 1.892-.21 2.408.589.588 1.663.345 1.968-.448.313-.814-.68-2.066-1.446-2.05zm23.993 5.542c-.266.003-.598.142-.983.423-1.038.759-.597 1.781.773 1.781.615 0 .954-.339.954-.956 0-.827-.27-1.254-.744-1.248zm-31.564 1.192c-.217.007-.471.196-.588.544-.108.325.068.503.394.393.325-.108.574-.356.554-.553-.027-.267-.18-.39-.361-.384zm-14.96 1.011c-1.34 0-1.654.924-.68 2 1 1.105 1.527 1.203 1.818.34.375-1.112-.223-2.339-1.137-2.339zm-11.079 1.679c-.633.007-1.291.8-1.034 1.47.426 1.112 1.808.985 1.808-.167 0-.525-.175-1.064-.392-1.198a.703.703 0 0 0-.382-.105zm61.754.537c-.386.022-.765.4-.853.86-.115.604.15.861.89.861s1.007-.257.89-.861c-.09-.474-.493-.861-.89-.861zm-30.02 1.285c-.349.008-.536.396-.221.904.181.294.556.392.832.222.335-.207.327-.482-.027-.835-.208-.208-.415-.294-.585-.291zm-11.201 2.502c-.3 0-.629.102-.953.313-.982.633-.146 2.05 1.211 2.05.973 0 1.181-.219 1.054-1.103-.115-.806-.652-1.27-1.312-1.262zm-7.76 2.415c-.38.008-.804.243-1.217.738-.558.674-.514.896.281 1.477 1.206.883 2.223.875 2.223-.014 0-1.404-.562-2.216-1.288-2.2zm24.979.788c-.235 0-.513.112-.82.337-.796.583-.839.804-.28 1.477.87 1.048 2.016 1.007 2.006-.07-.011-1.137-.347-1.746-.906-1.743zm18.21.881c-.189.007-.434.155-.817.435-.802.588-.846.81-.287 1.482.814.98 1.467 1.009 1.823.082.15-.39.078-1.056-.16-1.48-.2-.356-.345-.527-.56-.519zm-5.773 6.18c-.301-.005-.684.133-1.14.422-.948.6-.304 2.01.918 2.01.737 0 .998-.32.998-1.23 0-.789-.273-1.196-.776-1.203zm-25.108 2.145a1.003 1.003 0 0 0-.33.067c-1.106.424-1.095 2.05.013 2.342 1.431.373 1.485.362 1.76-.353.356-.93-.54-2.083-1.443-2.056zm10.15 2.9a1.886 1.886 0 0 0-.704.145c-.932.356-1.036 1.487-.168 1.837 1.25.506 1.845.3 1.845-.629 0-.87-.354-1.342-.973-1.353zm5.587 2.567c-.186.004-.409.089-.697.243-1.196.64-1.244 1.747-.104 2.41 1.182.69 1.449.652 1.79-.242.165-.426.069-1.203-.213-1.729-.257-.478-.466-.692-.776-.683zm-19.104 3.785c-.536.014-1.051.428-1.158 1.165-.193 1.35 1.955 2.454 2.422 1.244.17-.438.1-1.196-.154-1.686-.264-.505-.693-.734-1.11-.724zm9.844 5.304c-.822 0-1.378.703-.918 1.162.588.588 1.627.319 1.627-.424a.727.727 0 0 0-.71-.738zm-7.878 7.874c-1.709 0-2.28 1.857-.974 3.163 1.03 1.028 1.557.975 1.928-.192.265-.838-.418-2.97-.954-2.97zm5.626 11.588a.716.716 0 0 0-.246.047c-.877.336-.943 1.24-.15 2.033.902.902 2.003-.222 1.372-1.399-.23-.43-.615-.686-.976-.68zm-5.837 6.788c-.287.013-.62.188-.966.54-.758.77-.748.876.14 1.536 1.348.998 1.752.886 1.752-.492 0-1.042-.38-1.61-.927-1.584zm5.033 9.446c-.19.007-.406.091-.679.236-1.2.643-1.259 2.232-.108 2.902 1.247.727 1.944.643 2.297-.275.17-.444-.035-1.334-.457-1.976-.413-.63-.689-.897-1.053-.886zm1.795 11.052c-.643.027-1.09.905-.735 1.476.514.834 1.229.547 1.229-.492 0-.541-.208-.984-.463-.984zm-5.27 1.545a1.076 1.076 0 0 0-.732.325c-.766.765-.092 2.067 1.068 2.067.676 0 .999-.324.999-1 0-.835-.671-1.417-1.334-1.394zm-3.116 7.37c-.157 0-.316.096-.502.28-.325.32-.458.929-.294 1.353.316.824 1.575 1.044 2.004.351.142-.232-.05-.84-.429-1.353-.316-.428-.547-.632-.78-.63zm8.825 6.483c-.221.005-.485.11-.845.302-1.332.713-1.342 1.248-.055 2.537 1.176 1.174 2.123 1.043 2.326-.32.078-.52-.16-1.361-.53-1.867-.333-.455-.57-.66-.896-.652zm-8.06 3.82c-.645-.002-1.345.252-1.77.765-.558.67-.517.894.279 1.476 1.182.864 1.953.867 2.666.007.309-.37.423-1.035.253-1.476-.197-.513-.785-.771-1.428-.774z" fill="#fff" id="path233"/>
    <g id="g358" transform="translate(1607.743 221.362) scale(.39045)">
        <path d="M75.378 174.733c-5.183-.11-10.445-.176-15.493-1.473-4.894-1.51-9.698-3.427-14.136-5.996-3.848-2.411-6.417-6.272-9.275-9.699-8.536-10.869-16.32-22.345-23.107-34.388-3.024-5.36-5.66-10.953-7.496-16.835-1.654-5.325-3.4-10.705-3.85-16.294-.204-1.392.357-3.12 1.903-3.403 1.762-.126 3.059 1.329 4.476 2.154a150.784 150.784 0 0 1 15.202 12.04c5.242 4.508 11.134 8.163 16.52 12.487.606.412-.378-.705-.387-1.055-2.31-6.234-3.813-12.726-5.701-19.093-.581-2.103-1.437-4.3-1.766-6.534-1.369-6.716-2.436-13.492-3.099-20.315-.739-7.515-1.513-15.043-1.64-22.598-.014-1.124.065-2.428.829-3.269.774-.347 1.638-.603 2.41-.11 2.097 1.347 3.682 3.348 5.408 5.12 3.53 3.906 6.768 8.053 10.32 11.944 4.956 5.597 9.26 11.736 13.394 17.953a49.563 49.563 0 0 1 3.627 6.403c.45.765.985 1.64 1.444 2.302-.493-10.596-.224-21.211.035-31.811.22-9.113.806-18.23 2.24-27.24 1.036-6.656 1.88-13.35 3.282-19.942.262-1.35.943-2.989 2.53-3.062 1.638.02 2.394 1.774 3.076 3.027 1.72 3.58 3.304 7.231 4.81 10.906 2.288 6.277 4.049 12.73 6.533 18.938 1.826 5.517 3.101 11.2 4.713 16.708.776 2.623 1.762 5.176 2.398 7.842 1.14 4.187 2.099 8.42 3.24 12.606 1.261-7.764 2.076-15.606 3.703-23.306 1.563-4.543 1.993-9.385 3.55-13.934 2.009-6.805 5.422-13.061 8.58-19.378 2.182-4.161 4.245-8.404 6.773-12.37.533-.664 1.345-1.335 2.232-.958 1.878.4 2.341 2.574 2.724 4.18 1.346 6.789 1.724 13.724 2.202 20.616.775 12.268.905 24.562 1.166 36.849.215 7.117.374 14.2 1.11 21.304-.058 1.268.304.328.638-.383 3.43-6.916 6.922-13.811 10.821-20.476 4.785-7.892 9.99-15.56 15.92-22.641 3.657-4.105 7.568-7.978 11.328-11.988-.572 7.77-.98 15.565-2.263 23.26-.776 4.916-1.225 9.749-1.614 14.753-.476 7.492-1.13 15.154-2.217 22.654-.198 1.482-.348 2.97-.51 4.456 4.947-6.023 10.59-11.433 16.296-16.726 4.59-4.313 9.685-8.025 14.644-11.892-.078 3.86.175 7.736-.167 11.585-.13 1.023-.312 2.153-1.13 2.866-.594 2.524-.784 5.13-1.288 7.676-1.364 7.88-2.707 15.768-4.389 23.587-2.316 6.979-3.689 14.268-6.55 21.062-2.238 5.083-6.127 9.263-10.39 12.736-6.626 5.173-14.42 8.518-22.04 11.934-3.494 1.445-7.357 1.486-10.903 2.764-2.642.88-5.373 1.658-7.802 3.035-1.958 1.4-4.258 2.25-6.415 3.3-2.147.936-4.277 1.98-6.561 2.515-2.479 1.193-4.985 2.393-7.704 2.934-5.626 1.186-11.376 1.655-17.096 2.148-5.02.368-10.054.56-15.088.525z" id="path346"/>
        <path d="M73.043.013c-1.974.01-3.701 1.688-4.197 3.579-1.4 5.78-2.14 11.705-3.05 17.574-1.301 7.95-2.196 15.968-2.55 24.02-.395 10.296-.63 20.605-.525 30.91-4.262-6.621-8.782-13.103-13.926-19.075-3.23-3.607-6.272-7.281-9.445-10.98-2.23-2.433-4.324-5.053-6.998-7.02-1.386-1.232-3.429-1.124-4.997-.314-1.185.832-1.689 2.427-1.79 3.846-.063 5.631.439 11.256.927 16.863.735 8.354 1.66 16.705 3.285 24.94.384 1.766.576 3.29 1.04 5.03 1.892 6.101 3.453 12.299 5.302 18.413-3.41-2.476-6.864-4.887-10.133-7.567-4.889-4.302-9.886-8.5-15.236-12.224-1.939-1.191-3.657-3.006-6.002-3.332-2.558-.44-4.746 2-4.748 4.447.136 4.818 1.462 9.516 2.82 14.113 1.695 5.94 3.916 11.73 6.793 17.201 6.997 13.093 15.289 25.474 24.383 37.198 3.061 3.718 5.803 7.835 9.754 10.693 3.837 2.49 8.097 4.271 12.395 5.803 6.11 2.385 12.764 2.463 19.23 2.601 7.628.048 15.247-.416 22.828-1.234 4.235-.514 8.529-.957 12.606-2.268 2.35-.723 4.43-2.122 6.822-2.709 3.456-1.296 6.816-2.856 10.103-4.531 2.317-1.613 4.993-2.554 7.664-3.398 3.73-1.47 7.804-1.621 11.573-2.946 6.378-2.767 12.783-5.58 18.681-9.293 6.09-3.846 11.614-8.95 14.942-15.416 3.34-7.09 4.704-14.884 7.154-22.289 1.474-6.403 2.559-12.895 3.715-19.363.72-3.876 1.293-7.776 1.95-11.662 1.032-1.44 1.351-3.258 1.4-5.01.227-4.88-.016-9.767.132-14.65-4.826 3.768-9.751 7.413-14.455 11.336-5.49 4.804-10.778 9.849-15.758 15.181.148-1.04.263-2.085.395-3.129 1.305-10.138 1.43-20.392 2.894-30.513 1.733-10.146 2.152-20.445 2.934-30.692-3.655 3.858-7.33 7.695-11.004 11.534-5.768 5.84-10.602 12.513-15.168 19.312-4.943 7.308-9.18 15.06-13.148 22.932-.492 1.314-.303-.67-.408-1.2-.744-14.837-.594-29.769-1.356-44.65-.505-8.48-.862-17.006-2.377-25.38-.434-2.412-1.16-5.33-3.69-6.329-1.623-.806-3.623-.219-4.718 1.184-2.197 3.14-3.882 6.62-5.678 10.002-3.572 7.074-7.473 14.049-9.924 21.617-1.687 4.738-2.23 9.778-3.736 14.566-1.127 4.659-1.754 9.433-2.453 14.174-.55-1.993-.994-4.016-1.635-5.982-2.401-6.94-3.869-14.152-6.125-21.135-1.723-4.524-3.252-9.111-4.732-13.713-1.653-5.394-3.919-10.569-6.301-15.674C77.504 3.31 76.424.67 73.9.115a3.52 3.52 0 0 0-.857-.102zm.059 4.045c.28 0 1.402 2.045 2.492 4.545s2.415 5.527 2.945 6.727c.53 1.2 2 5.455 3.268 9.455 1.267 4 2.756 8.275 3.306 9.5.55 1.225 2.008 6.135 3.24 10.91 1.233 4.775 2.55 9.335 2.924 10.135.376.8 1.882 6.365 3.348 12.365s3.02 11.137 3.453 11.416c.536.345 1.438-4.2 2.818-14.181 1.117-8.08 2.334-15.345 2.702-16.145.368-.8 1.196-4.188 1.841-7.53.646-3.34 2.395-8.904 3.89-12.363 2.861-6.627 12.322-24.834 12.903-24.834 2 0 3.936 22.606 4.33 50.604.164 11.632.633 24.111 1.043 27.732.502 4.426.508 7.843.018 10.424-.4 2.112-.563 4.003-.361 4.205.202.202.367-.08.367-.629 0-1.594 6.114-14.29 12.945-26.882 5.135-9.465 14.607-23.045 20.035-28.727l5.559-5.818-.424 5.818c-.233 3.2-.914 8.763-1.514 12.363-.6 3.6-1.367 11.129-1.705 16.729-.337 5.6-1.148 13.873-1.8 18.387-.653 4.513-1.085 9.085-.96 10.16.216 1.844.436 1.69 3.967-2.752 4.452-5.6 16.295-17.124 22.637-22.026l4.533-3.504v4.413c0 2.426-.284 4.412-.632 4.412-.348 0-.806 1.391-1.018 3.091-.62 4.974-4.882 28.444-5.38 29.637-.252.6-1.356 4.363-2.454 8.363-3.113 11.344-4.428 14.315-8.334 18.827-5.368 6.2-11.663 10.126-26.91 16.78-1.2.525-3.817 1.182-5.817 1.462-3.427.48-12.663 3.703-13.455 4.697-.48.603-10.471 5.143-11.332 5.148-.368 0-1.494.435-2.504.961-3.826 1.997-7.117 2.726-17.035 3.772-14.06 1.482-29.23 1.358-35.33-.29-2.61-.704-7.258-2.489-10.33-3.966-5.192-2.497-6.021-3.233-11.828-10.492-11.09-13.862-23.106-32.645-27.959-43.703-2.618-5.965-5.795-16.662-6.385-21.492-.36-2.95-.258-3.46.588-2.946 3.776 2.292 11.877 8.445 15.453 11.739 2.336 2.15 6.589 5.543 9.453 7.54 2.865 1.998 6.625 4.772 8.356 6.163 1.73 1.39 3.45 2.527 3.818 2.527.886 0 .867-3.878-.023-4.768-.382-.382-2.04-5.586-3.686-11.566-1.645-5.98-3.126-11.092-3.293-11.361-.166-.27-1.13-5.195-2.142-10.944-1.668-9.474-3.83-35.23-3.026-36.035.348-.347 5.403 4.89 8.9 9.219 1.132 1.4 4.39 5.165 7.243 8.365 4.742 5.321 14.3 18.991 15.39 22.014.51 1.41 6.171 9.747 6.418 9.449.088-.105-.16-2.646-.548-5.646-.41-3.164-.528-14.16-.278-26.182.348-16.687.789-23.136 2.256-33.09 2.557-17.344 3.435-22.182 4.024-22.182zm7.941 56.176a.428.428 0 0 0-.207.025c-2.127.703-1.021 16.918 1.412 20.707 1.253 1.95 2.896 2.24 2.063.364-.311-.7-.793-4.709-1.07-8.909-.57-8.593-1.19-12.091-2.198-12.187zm34.156 2.613c-1.197.2-2.082 13.467-.947 16.424.935 2.436 1.74.97 1.74-3.17 0-2.376.329-4.524.729-4.771 1.287-.796.495-5.97-1.278-8.342-.082-.11-.164-.154-.244-.14zm36.77 16.848c-1.495 0-5.378 5.135-6.324 8.363-.47 1.6-1.1 3.083-1.4 3.295-1.384.976-.777 7.256.7 7.248.277 0 1.894-2.955 3.594-6.564 3.602-7.645 4.907-12.342 3.43-12.342zm-102.99 1.453c-.305 0-1.413.392-2.461.87-1.694.771-1.853 1.155-1.428 3.421.263 1.404 1.065 3.713 1.783 5.131.718 1.419 1.544 3.725 1.834 5.125.705 3.405 3.958 11.604 5.4 13.613 1.854 2.583 2.976 2.044 2.979-1.431.004-4.767-6.657-26.729-8.107-26.729zm41.517 8.479a2.886 2.886 0 0 0-1.922.861c-.987.988-1.084 2.516-.676 10.592.263 5.19.691 11.254.952 13.478l.472 4.045-2.482-1.998c-4.794-3.855-14.99-10.509-17.38-11.341-1.326-.463-3.382-.842-4.567-.842h-2.157l.514 3.455c.282 1.9 1.256 5.09 2.164 7.09.908 2 1.9 4.455 2.205 5.455.305 1 2.324 5.706 4.488 10.459 2.165 4.752 3.843 8.727 3.729 8.832-.114.104-4.26-1.787-9.213-4.201-7.558-3.684-9.664-4.402-13.092-4.467l-4.084-.078.094 2.855c.052 1.57.544 3.207 1.092 3.637.548.43 2.261 2.744 3.808 5.144 2.958 4.59 17.27 19.183 21.118 21.534 2.105 1.286 2.312 1.295 3.162.146.5-.676.908-1.81.908-2.52 0-.709-.737-1.676-1.637-2.148-3.293-1.727-7.388-5.41-11.918-10.719-4.164-4.88-7.578-10.046-6.232-9.43.283.13 5.075 2.486 10.648 5.237l10.133 5.002 1.322-1.63c.727-.898 1.32-2.54 1.32-3.647 0-2.508-2.932-10.397-5.746-15.461-1.166-2.1-3.009-6.108-4.095-8.908-1.087-2.8-2.264-5.404-2.614-5.784-.35-.38-.636-1.126-.636-1.66 0-1.053 1.896-.328 3.761 1.44.532.503 2.275 1.782 3.875 2.843s5.618 4.415 8.928 7.453c7.083 6.501 8.435 6.921 7.848 2.434-.223-1.7-.58-5.824-.797-9.164-.216-3.34-.7-9.232-1.076-13.092-.376-3.86-.676-7.507-.668-8.107.021-1.702 6.102 5.506 8.182 9.699 1.024 2.065 3.188 6.62 4.808 10.12 1.62 3.5 3.217 6.362 3.55 6.362.335 0 1.317-.753 2.183-1.673 1.817-1.935 3.04-7.5 3.052-13.881l.008-4.446 2.52 4.528c1.39 2.498 3.354 7.821 4.383 11.879 2.272 8.965 5.545 15.257 7.65 14.707.81-.212 4.121-4.418 7.668-9.742 3.433-5.154 6.542-9.372 6.91-9.372.886 0 .85 2.881-.18 13.91-.694 7.45-.674 9.619.102 11.493.776 1.874 1.313 2.268 2.852 2.09 1.836-.214 1.924-.449 2.744-7.493.465-4 .874-12.084.908-17.966l.062-10.696-2.539-.476c-3.264-.613-4.33-.167-5.636 2.357-.585 1.13-2.913 4.968-5.172 8.53-2.26 3.56-4.119 6.832-4.133 7.27-.014.44-.812 1.76-1.772 2.935l-1.744 2.132-.33-1.77c-2.03-10.87-3.673-15.723-8.39-24.794-2.766-5.319-5.507-9.972-6.09-10.34-1.664-1.05-4.694.063-5.186 1.902-.242.905-.653 4.154-.914 7.221l-.474 5.576-3.446-5.213c-4.998-7.563-9.923-11.838-13.125-11.644zm85.45 17.777c-.237.01-.487.025-.75.057-2.303.273-5.005 4.715-8.325 13.688-1.11 3-2.866 7.171-3.902 9.27-1.89 3.825-2.327 6.046-1.375 6.997 1.025 1.025 2.673.036 4.082-2.449.793-1.4 3.244-6.145 5.445-10.545s4.732-8.982 5.625-10.182c3.11-4.178 2.737-6.921-.8-6.835zM26.431 121.133c-.391-.017-.621.228-.621.767 0 1.376 3.81 8.299 6.189 11.248 1.29 1.6 2.728 3.647 3.195 4.547.97 1.869 2.823 2.16 3.444.543.938-2.445-.25-4.414-8.668-14.361-1.458-1.723-2.793-2.712-3.54-2.744zm74.04 22.93c-1.084.027-1.51.34-2.126.956-1.26 1.26-1.203 1.547 1.55 7.733 3.54 7.95 4.701 9.435 6.588 8.426.76-.407 1.525-1.152 1.7-1.657.174-.504-.672-2.682-1.881-4.838l-2.2-3.918 2.49.495c1.37.272 4.469.68 6.886.904 3.513.326 4.59.172 5.373-.772.83-1 .788-1.39-.266-2.554-1.787-1.975-4.24-2.797-12.035-4.033-3.252-.516-4.994-.771-6.078-.743z" fill="#fff" id="path348"/>
    </g>
    <g id="g370" transform="translate(151.698 203.524) scale(.39045)">
        <path d="M75.378 174.733c-5.183-.11-10.445-.176-15.493-1.473-4.894-1.51-9.698-3.427-14.136-5.996-3.848-2.411-6.417-6.272-9.275-9.699-8.536-10.869-16.32-22.345-23.107-34.388-3.024-5.36-5.66-10.953-7.496-16.835-1.654-5.325-3.4-10.705-3.85-16.294-.204-1.392.357-3.12 1.903-3.403 1.762-.126 3.059 1.329 4.476 2.154a150.784 150.784 0 0 1 15.202 12.04c5.242 4.508 11.134 8.163 16.52 12.487.606.412-.378-.705-.387-1.055-2.31-6.234-3.813-12.726-5.701-19.093-.581-2.103-1.437-4.3-1.766-6.534-1.369-6.716-2.436-13.492-3.099-20.315-.739-7.515-1.513-15.043-1.64-22.598-.014-1.124.065-2.428.829-3.269.774-.347 1.638-.603 2.41-.11 2.097 1.347 3.682 3.348 5.408 5.12 3.53 3.906 6.768 8.053 10.32 11.944 4.956 5.597 9.26 11.736 13.394 17.953a49.563 49.563 0 0 1 3.627 6.403c.45.765.985 1.64 1.444 2.302-.493-10.596-.224-21.211.035-31.811.22-9.113.806-18.23 2.24-27.24 1.036-6.656 1.88-13.35 3.282-19.942.262-1.35.943-2.989 2.53-3.062 1.638.02 2.394 1.774 3.076 3.027 1.72 3.58 3.304 7.231 4.81 10.906 2.288 6.277 4.049 12.73 6.533 18.938 1.826 5.517 3.101 11.2 4.713 16.708.776 2.623 1.762 5.176 2.398 7.842 1.14 4.187 2.099 8.42 3.24 12.606 1.261-7.764 2.076-15.606 3.703-23.306 1.563-4.543 1.993-9.385 3.55-13.934 2.009-6.805 5.422-13.061 8.58-19.378 2.182-4.161 4.245-8.404 6.773-12.37.533-.664 1.345-1.335 2.232-.958 1.878.4 2.341 2.574 2.724 4.18 1.346 6.789 1.724 13.724 2.202 20.616.775 12.268.905 24.562 1.166 36.849.215 7.117.374 14.2 1.11 21.304-.058 1.268.304.328.638-.383 3.43-6.916 6.922-13.811 10.821-20.476 4.785-7.892 9.99-15.56 15.92-22.641 3.657-4.105 7.568-7.978 11.328-11.988-.572 7.77-.98 15.565-2.263 23.26-.776 4.916-1.225 9.749-1.614 14.753-.476 7.492-1.13 15.154-2.217 22.654-.198 1.482-.348 2.97-.51 4.456 4.947-6.023 10.59-11.433 16.296-16.726 4.59-4.313 9.685-8.025 14.644-11.892-.078 3.86.175 7.736-.167 11.585-.13 1.023-.312 2.153-1.13 2.866-.594 2.524-.784 5.13-1.288 7.676-1.364 7.88-2.707 15.768-4.389 23.587-2.316 6.979-3.689 14.268-6.55 21.062-2.238 5.083-6.127 9.263-10.39 12.736-6.626 5.173-14.42 8.518-22.04 11.934-3.494 1.445-7.357 1.486-10.903 2.764-2.642.88-5.373 1.658-7.802 3.035-1.958 1.4-4.258 2.25-6.415 3.3-2.147.936-4.277 1.98-6.561 2.515-2.479 1.193-4.985 2.393-7.704 2.934-5.626 1.186-11.376 1.655-17.096 2.148-5.02.368-10.054.56-15.088.525z" id="path366"/>
        <path d="M73.043.013c-1.974.01-3.701 1.688-4.197 3.579-1.4 5.78-2.14 11.705-3.05 17.574-1.301 7.95-2.196 15.968-2.55 24.02-.395 10.296-.63 20.605-.525 30.91-4.262-6.621-8.782-13.103-13.926-19.075-3.23-3.607-6.272-7.281-9.445-10.98-2.23-2.433-4.324-5.053-6.998-7.02-1.386-1.232-3.429-1.124-4.997-.314-1.185.832-1.689 2.427-1.79 3.846-.063 5.631.439 11.256.927 16.863.735 8.354 1.66 16.705 3.285 24.94.384 1.766.576 3.29 1.04 5.03 1.892 6.101 3.453 12.299 5.302 18.413-3.41-2.476-6.864-4.887-10.133-7.567-4.889-4.302-9.886-8.5-15.236-12.224-1.939-1.191-3.657-3.006-6.002-3.332-2.558-.44-4.746 2-4.748 4.447.136 4.818 1.462 9.516 2.82 14.113 1.695 5.94 3.916 11.73 6.793 17.201 6.997 13.093 15.289 25.474 24.383 37.198 3.061 3.718 5.803 7.835 9.754 10.693 3.837 2.49 8.097 4.271 12.395 5.803 6.11 2.385 12.764 2.463 19.23 2.601 7.628.048 15.247-.416 22.828-1.234 4.235-.514 8.529-.957 12.606-2.268 2.35-.723 4.43-2.122 6.822-2.709 3.456-1.296 6.816-2.856 10.103-4.531 2.317-1.613 4.993-2.554 7.664-3.398 3.73-1.47 7.804-1.621 11.573-2.946 6.378-2.767 12.783-5.58 18.681-9.293 6.09-3.846 11.614-8.95 14.942-15.416 3.34-7.09 4.704-14.884 7.154-22.289 1.474-6.403 2.559-12.895 3.715-19.363.72-3.876 1.293-7.776 1.95-11.662 1.032-1.44 1.351-3.258 1.4-5.01.227-4.88-.016-9.767.132-14.65-4.826 3.768-9.751 7.413-14.455 11.336-5.49 4.804-10.778 9.849-15.758 15.181.148-1.04.263-2.085.395-3.129 1.305-10.138 1.43-20.392 2.894-30.513 1.733-10.146 2.152-20.445 2.934-30.692-3.655 3.858-7.33 7.695-11.004 11.534-5.768 5.84-10.602 12.513-15.168 19.312-4.943 7.308-9.18 15.06-13.148 22.932-.492 1.314-.303-.67-.408-1.2-.744-14.837-.594-29.769-1.356-44.65-.505-8.48-.862-17.006-2.377-25.38-.434-2.412-1.16-5.33-3.69-6.329-1.623-.806-3.623-.219-4.718 1.184-2.197 3.14-3.882 6.62-5.678 10.002-3.572 7.074-7.473 14.049-9.924 21.617-1.687 4.738-2.23 9.778-3.736 14.566-1.127 4.659-1.754 9.433-2.453 14.174-.55-1.993-.994-4.016-1.635-5.982-2.401-6.94-3.869-14.152-6.125-21.135-1.723-4.524-3.252-9.111-4.732-13.713-1.653-5.394-3.919-10.569-6.301-15.674C77.504 3.31 76.424.67 73.9.115a3.52 3.52 0 0 0-.857-.102zm.059 4.045c.28 0 1.402 2.045 2.492 4.545s2.415 5.527 2.945 6.727c.53 1.2 2 5.455 3.268 9.455 1.267 4 2.756 8.275 3.306 9.5.55 1.225 2.008 6.135 3.24 10.91 1.233 4.775 2.55 9.335 2.924 10.135.376.8 1.882 6.365 3.348 12.365s3.02 11.137 3.453 11.416c.536.345 1.438-4.2 2.818-14.181 1.117-8.08 2.334-15.345 2.702-16.145.368-.8 1.196-4.188 1.841-7.53.646-3.34 2.395-8.904 3.89-12.363 2.861-6.627 12.322-24.834 12.903-24.834 2 0 3.936 22.606 4.33 50.604.164 11.632.633 24.111 1.043 27.732.502 4.426.508 7.843.018 10.424-.4 2.112-.563 4.003-.361 4.205.202.202.367-.08.367-.629 0-1.594 6.114-14.29 12.945-26.882 5.135-9.465 14.607-23.045 20.035-28.727l5.559-5.818-.424 5.818c-.233 3.2-.914 8.763-1.514 12.363-.6 3.6-1.367 11.129-1.705 16.729-.337 5.6-1.148 13.873-1.8 18.387-.653 4.513-1.085 9.085-.96 10.16.216 1.844.436 1.69 3.967-2.752 4.452-5.6 16.295-17.124 22.637-22.026l4.533-3.504v4.413c0 2.426-.284 4.412-.632 4.412-.348 0-.806 1.391-1.018 3.091-.62 4.974-4.882 28.444-5.38 29.637-.252.6-1.356 4.363-2.454 8.363-3.113 11.344-4.428 14.315-8.334 18.827-5.368 6.2-11.663 10.126-26.91 16.78-1.2.525-3.817 1.182-5.817 1.462-3.427.48-12.663 3.703-13.455 4.697-.48.603-10.471 5.143-11.332 5.148-.368 0-1.494.435-2.504.961-3.826 1.997-7.117 2.726-17.035 3.772-14.06 1.482-29.23 1.358-35.33-.29-2.61-.704-7.258-2.489-10.33-3.966-5.192-2.497-6.021-3.233-11.828-10.492-11.09-13.862-23.106-32.645-27.959-43.703-2.618-5.965-5.795-16.662-6.385-21.492-.36-2.95-.258-3.46.588-2.946 3.776 2.292 11.877 8.445 15.453 11.739 2.336 2.15 6.589 5.543 9.453 7.54 2.865 1.998 6.625 4.772 8.356 6.163 1.73 1.39 3.45 2.527 3.818 2.527.886 0 .867-3.878-.023-4.768-.382-.382-2.04-5.586-3.686-11.566-1.645-5.98-3.126-11.092-3.293-11.361-.166-.27-1.13-5.195-2.142-10.944-1.668-9.474-3.83-35.23-3.026-36.035.348-.347 5.403 4.89 8.9 9.219 1.132 1.4 4.39 5.165 7.243 8.365 4.742 5.321 14.3 18.991 15.39 22.014.51 1.41 6.171 9.747 6.418 9.449.088-.105-.16-2.646-.548-5.646-.41-3.164-.528-14.16-.278-26.182.348-16.687.789-23.136 2.256-33.09 2.557-17.344 3.435-22.182 4.024-22.182zm7.941 56.176a.428.428 0 0 0-.207.025c-2.127.703-1.021 16.918 1.412 20.707 1.253 1.95 2.896 2.24 2.063.364-.311-.7-.793-4.709-1.07-8.909-.57-8.593-1.19-12.091-2.198-12.187zm34.156 2.613c-1.197.2-2.082 13.467-.947 16.424.935 2.436 1.74.97 1.74-3.17 0-2.376.329-4.524.729-4.771 1.287-.796.495-5.97-1.278-8.342-.082-.11-.164-.154-.244-.14zm36.77 16.848c-1.495 0-5.378 5.135-6.324 8.363-.47 1.6-1.1 3.083-1.4 3.295-1.384.976-.777 7.256.7 7.248.277 0 1.894-2.955 3.594-6.564 3.602-7.645 4.907-12.342 3.43-12.342zm-102.99 1.453c-.305 0-1.413.392-2.461.87-1.694.771-1.853 1.155-1.428 3.421.263 1.404 1.065 3.713 1.783 5.131.718 1.419 1.544 3.725 1.834 5.125.705 3.405 3.958 11.604 5.4 13.613 1.854 2.583 2.976 2.044 2.979-1.431.004-4.767-6.657-26.729-8.107-26.729zm41.517 8.479a2.886 2.886 0 0 0-1.922.861c-.987.988-1.084 2.516-.676 10.592.263 5.19.691 11.254.952 13.478l.472 4.045-2.482-1.998c-4.794-3.855-14.99-10.509-17.38-11.341-1.326-.463-3.382-.842-4.567-.842h-2.157l.514 3.455c.282 1.9 1.256 5.09 2.164 7.09.908 2 1.9 4.455 2.205 5.455.305 1 2.324 5.706 4.488 10.459 2.165 4.752 3.843 8.727 3.729 8.832-.114.104-4.26-1.787-9.213-4.201-7.558-3.684-9.664-4.402-13.092-4.467l-4.084-.078.094 2.855c.052 1.57.544 3.207 1.092 3.637.548.43 2.261 2.744 3.808 5.144 2.958 4.59 17.27 19.183 21.118 21.534 2.105 1.286 2.312 1.295 3.162.146.5-.676.908-1.81.908-2.52 0-.709-.737-1.676-1.637-2.148-3.293-1.727-7.388-5.41-11.918-10.719-4.164-4.88-7.578-10.046-6.232-9.43.283.13 5.075 2.486 10.648 5.237l10.133 5.002 1.322-1.63c.727-.898 1.32-2.54 1.32-3.647 0-2.508-2.932-10.397-5.746-15.461-1.166-2.1-3.009-6.108-4.095-8.908-1.087-2.8-2.264-5.404-2.614-5.784-.35-.38-.636-1.126-.636-1.66 0-1.053 1.896-.328 3.761 1.44.532.503 2.275 1.782 3.875 2.843s5.618 4.415 8.928 7.453c7.083 6.501 8.435 6.921 7.848 2.434-.223-1.7-.58-5.824-.797-9.164-.216-3.34-.7-9.232-1.076-13.092-.376-3.86-.676-7.507-.668-8.107.021-1.702 6.102 5.506 8.182 9.699 1.024 2.065 3.188 6.62 4.808 10.12 1.62 3.5 3.217 6.362 3.55 6.362.335 0 1.317-.753 2.183-1.673 1.817-1.935 3.04-7.5 3.052-13.881l.008-4.446 2.52 4.528c1.39 2.498 3.354 7.821 4.383 11.879 2.272 8.965 5.545 15.257 7.65 14.707.81-.212 4.121-4.418 7.668-9.742 3.433-5.154 6.542-9.372 6.91-9.372.886 0 .85 2.881-.18 13.91-.694 7.45-.674 9.619.102 11.493.776 1.874 1.313 2.268 2.852 2.09 1.836-.214 1.924-.449 2.744-7.493.465-4 .874-12.084.908-17.966l.062-10.696-2.539-.476c-3.264-.613-4.33-.167-5.636 2.357-.585 1.13-2.913 4.968-5.172 8.53-2.26 3.56-4.119 6.832-4.133 7.27-.014.44-.812 1.76-1.772 2.935l-1.744 2.132-.33-1.77c-2.03-10.87-3.673-15.723-8.39-24.794-2.766-5.319-5.507-9.972-6.09-10.34-1.664-1.05-4.694.063-5.186 1.902-.242.905-.653 4.154-.914 7.221l-.474 5.576-3.446-5.213c-4.998-7.563-9.923-11.838-13.125-11.644zm85.45 17.777c-.237.01-.487.025-.75.057-2.303.273-5.005 4.715-8.325 13.688-1.11 3-2.866 7.171-3.902 9.27-1.89 3.825-2.327 6.046-1.375 6.997 1.025 1.025 2.673.036 4.082-2.449.793-1.4 3.244-6.145 5.445-10.545s4.732-8.982 5.625-10.182c3.11-4.178 2.737-6.921-.8-6.835zM26.431 121.133c-.391-.017-.621.228-.621.767 0 1.376 3.81 8.299 6.189 11.248 1.29 1.6 2.728 3.647 3.195 4.547.97 1.869 2.823 2.16 3.444.543.938-2.445-.25-4.414-8.668-14.361-1.458-1.723-2.793-2.712-3.54-2.744zm74.04 22.93c-1.084.027-1.51.34-2.126.956-1.26 1.26-1.203 1.547 1.55 7.733 3.54 7.95 4.701 9.435 6.588 8.426.76-.407 1.525-1.152 1.7-1.657.174-.504-.672-2.682-1.881-4.838l-2.2-3.918 2.49.495c1.37.272 4.469.68 6.886.904 3.513.326 4.59.172 5.373-.772.83-1 .788-1.39-.266-2.554-1.787-1.975-4.24-2.797-12.035-4.033-3.252-.516-4.994-.771-6.078-.743z" fill="#fff" id="path368"/>
    </g>
</svg>
