<svg xml:space="preserve" version="1.1" id="svg235" xmlns="http://www.w3.org/2000/svg" viewBox="0 0 2207 400">
    <path d="M60.827 266.36c-1.236-.171-2.49-.472-3.586-1.081-.982-.58-1.451-1.7-1.527-2.797-.148-1.985.09-3.973.114-5.959.369-13.151.341-26.319 1.026-39.45.177-4.63.274-9.284-.173-13.903-.093-.885-.28-1.756-.496-2.618-3.683-2.269-7.913-3.569-11.374-6.208-1.584-1.257-2.56-3.187-3.124-5.04-1.324-3.965-2.2-8.066-2.959-12.172a60.731 60.731 0 0 1-.57-3.883c-.028-.356-.095-.934-.12-1.378-.177-2.725.36-5.427.62-8.13.686-5.645 1.517-11.276 2.636-16.852.732-3.971 1.3-7.975 1.82-11.97.349-2.288.727-4.625 1.73-6.732.63-1.319 1.76-2.425 3.193-2.816 1.878-.604 4.059-.06 5.401 1.397 2.023 2.058 2.795 4.964 3.29 7.725.44 2.603.519 5.255.391 7.887a63.022 63.022 0 0 1-.157 2.179c-.316 4.306-1.569 8.476-1.91 12.778-.4 3.999-.52 8.018-.854 11.988-.195 2.386-.18 4.81.378 7.15.455 2.076 1.056 4.143 1.982 6.06.415.894 1.684 1.053 2.387.415.51-.62 1.475-.584 1.907-1.299 1.763-2.34 2.368-5.304 2.651-8.162.485-5.346.698-10.725.431-16.09-.19-4.452-.65-8.884-1.079-13.317-.7-8.059-.856-16.252-1.314-24.373-.105-1.546-.018-3.147.104-4.627.356-3.961.787-8.037 1.56-11.99.56-2.975 1.599-6.058 3.904-8.143 2.034-1.88 5.054-2.341 7.677-1.657 1.832.377 3.777 1.144 4.768 2.837 1.054 1.602 1.595 3.49 1.88 5.365.286.602 1.03.764 1.612.518.936-.032 1.832.327 2.748.48-.34-1.442-1.004-2.865-.88-4.374.207-1.311 1.37-2.147 2.241-3.039.828-.908 2.046-1.46 3.285-1.363 1.147-.082 2.427.25 3.09 1.264 1.077 1.451 1.355 3.299 1.667 5.032.058.554.104 1.109.158 1.662 1.953-.29 4.095-.81 5.953.14 1.864 1.064 2.694 3.319 2.716 5.374.005 1.821-.826 3.565-2.1 4.844-.486.34-.308.595.164.812 1.081.726 2.22 1.557 2.747 2.79.468 1.434.255 2.978.064 4.443-.217 1.292-.712 2.815-2.07 3.296-.827.286-1.704.507-2.578.538-1.299-.162-2.433-.896-3.572-1.49-.612-.361-1.174-.8-1.763-1.2-.926 2.062-1.656 4.402-3.525 5.83-1.522 1.089-3.62 1.354-5.365.689-1.164-.563-2.067-1.63-2.554-2.815-.16-.56-.226-1.142-.347-1.71-.792.258-1.575.687-2.436.52-.517-.144-.714.043-.584.566.108 2.39-.449 4.738-.665 7.107-.527 4.268-.903 8.536-1.498 12.784-.347 2.42-.337 4.871-.47 7.308-.3 7.968-.539 15.942-.534 23.916.053 3.834.087 7.691.703 11.484.32 1.462.657 3.074 1.819 4.119.392.33.824.609 1.232.917.976-1.566 1.79-3.238 2.285-5.02 1.38-4.971 2.005-10.115 2.46-15.242.372-3.811.352-7.651.772-11.457.4-2.683 1.948-5.343 4.458-6.534 1.745-.845 4.084-.734 5.461.746 1.258 1.42 1.798 3.317 2.178 5.138.757 3.83.805 7.84.793 11.78.036 2.108-.146 4.22-.64 6.274a303.955 303.955 0 0 1-2.326 9.331c-.455 1.585-.933 3.213-1.977 4.524-2.578 3.328-5.004 6.808-8.031 9.755-4.478 4.006-8.121 8.822-12.378 13.046-1.185 1.337-1.185 3.228-1.325 4.909-.286 4.765-.177 9.541-.203 14.312.027 8.612.014 17.226.278 25.833.064 1.174.466 2.524-.35 3.536-1.302 1.76-3.507 2.48-5.559 2.93-1.411.199-2.856.145-4.245.506-.5.072-1.011.114-1.516.057z" id="path231"/>
    <path d="M72.2 92.002c-1.845.04-3.678.6-5.16 1.72-2.461 1.852-3.783 4.813-4.498 7.732-.759 3.329-1.18 6.724-1.559 10.114-.249 2.721-.614 5.457-.43 8.194.528 9.297.641 18.625 1.657 27.89.408 4.196.75 8.472.833 12.69.037 1.621.023 3.317-.018 4.891-.119 3.008-.269 6.009-.586 8.944-.317 2.377-.849 4.854-2.335 6.798-.231.493-.806.456-1.198.746-.366.12-.543.597-.933.616-.504.111-.606-.454-.795-.785a29.898 29.898 0 0 1-1.89-6.647c-.48-2.866-.028-5.792.123-8.641.224-3.242.344-6.399.71-9.613.332-3.57 1.316-7.037 1.687-10.6.542-4.812.589-9.775-.713-14.475-.684-2.427-1.863-4.888-3.98-6.373-1.853-1.292-4.39-1.396-6.383-.37-1.636.776-2.656 2.388-3.262 4.036-1.18 3.335-1.43 6.896-1.939 10.372-.124.916-.29 1.965-.423 2.861-.324 1.97-.649 3.94-1.03 5.9-1.048 5.259-1.782 10.572-2.435 15.893-.251 2.435-.668 4.865-.642 7.32.15 2.876.662 5.723 1.21 8.546.756 3.54 1.535 7.09 2.765 10.5.626 1.913 1.732 3.687 3.323 4.943 3.356 2.544 7.43 3.842 11.021 5.99.385 1.468.482 2.989.567 4.466.213 4.013.124 8.055-.047 12.032-.623 11.88-.631 23.78-.92 35.67-.053 1.834-.072 3.593-.17 5.404-.034 1.683-.258 3.42.221 5.062.36 1.308 1.431 2.31 2.691 2.754 1.119.405 2.291.732 3.483.796.556.01 1.11-.048 1.655-.146 1.581-.428 3.259-.168 4.829-.664 2.135-.545 4.38-1.526 5.563-3.488.753-1.223.353-2.692.275-4.026-.245-9.133-.243-18.271-.263-27.407.035-4.353-.067-8.714.247-13.06.136-1.274.16-2.727 1.092-3.715 3.902-3.847 7.248-8.225 11.244-11.981 2.826-2.482 5.098-5.497 7.372-8.472 1.094-1.507 2.424-2.89 3.102-4.653.95-2.517 1.475-5.166 2.166-7.76.704-2.987 1.605-5.97 1.643-9.064.062-3.628.037-7.269-.358-10.879-.345-2.544-.773-5.184-2.151-7.4-.83-1.34-2.249-2.306-3.833-2.45-2.258-.298-4.516.773-5.99 2.456-1.564 1.698-2.428 3.953-2.604 6.24-.286 3.12-.32 6.257-.576 9.38-.306 3.996-.764 8.09-1.527 12.088-.578 2.782-1.15 5.652-2.644 8.112-.402-.272-.716-.658-.948-1.081-.934-2.018-1.063-4.283-1.263-6.466-.23-3.423-.268-6.928-.25-10.416.08-7.397.283-14.797.58-22.177.138-2.186.106-4.394.503-6.555.572-4.435.988-8.906 1.541-13.32.19-1.908.615-3.804.554-5.728.43.034.864-.05 1.262-.214.064.482.231.946.454 1.377.759 1.288 1.868 2.504 3.344 2.936 1.751.474 3.71.254 5.293-.647 2.011-1.178 3.02-3.407 3.89-5.467.436.32.903.6 1.38.855 1.216.604 2.473 1.367 3.876 1.326 1.253-.229 2.615-.398 3.642-1.222 1.163-1.033 1.549-2.653 1.736-4.138.141-1.597.317-3.337-.459-4.808-.63-.991-1.523-1.819-2.503-2.46 1.506-1.638 2.235-3.943 1.93-6.148-.28-2.048-1.288-4.17-3.167-5.193-1.694-.904-3.712-.718-5.538-.41a13.633 13.633 0 0 0-.123-1.08c-.385-1.922-.759-4.016-2.157-5.492-.928-1.06-2.412-1.318-3.753-1.228-1.293-.058-2.535.497-3.47 1.368-.97.973-2.128 1.87-2.648 3.186-.436 1.271-.053 2.64.301 3.884-.466-.112-.952-.2-1.433-.145-.26-.014-.699.325-.617-.139-.396-2.25-1.182-4.514-2.688-6.27-1.453-1.536-3.597-2.134-5.619-2.484a9.933 9.933 0 0 0-1.836-.13zm.183 1.982c1.988 0 4.538.786 5.569 1.718 1.701 1.54 3.16 6.507 2.155 7.341-1.65 1.37-2.092 5.34-.825 7.418 1.001 1.642.943 3.76-.135 4.924-1.825 1.97-2.126 6.108-.596 8.178.753 1.02.756 1.087.214 5.254a481.971 481.971 0 0 0-1.116 9.622c-.312 2.97-.644 5.626-.738 5.904-.351 1.044-1.047 23.568-.967 31.35.111 10.862.886 14.766 3.246 16.37 1.706 1.159 2.374.774 3.747-2.16 1.885-4.028 3.403-13.473 3.874-24.108.234-5.28.383-6.354 1.09-7.831 1.411-2.947 3.99-4.403 6.385-3.605 2.42.807 3.736 5.741 3.817 14.316.057 5.968.025 6.257-1.314 11.698-2.049 8.33-2.288 9.047-3.56 10.7l-3.747 4.878c-1.418 1.848-3.504 4.15-4.635 5.116-1.132.967-3.748 3.684-5.815 6.038-2.066 2.354-4.457 4.957-5.313 5.783-2.516 2.425-2.546 2.725-2.484 25.439.03 10.79.17 20.509.312 21.598.24 1.846.19 2.047-.734 2.97-1.087 1.087-3.892 2.07-5.908 2.07-.708 0-1.772.133-2.364.296-.593.163-1.564.183-2.158.045-3.715-.864-3.918-1.218-3.655-6.373.119-2.326.305-10.546.415-18.267.109-7.72.357-16.838.55-20.26.611-10.849.27-19.205-.84-20.552-.236-.286-2.411-1.457-4.835-2.602-5.742-2.712-7.276-3.798-8.477-6.003-1.75-3.217-4.579-15.976-4.574-20.64.005-2.17 1.64-14.83 2.485-19.212 1.224-6.342 1.823-9.974 2.38-14.443.9-7.214 1.955-9.796 4.32-10.577 6.664-2.2 9.978 9.757 6.835 24.66-.584 2.77-1.036 6.514-1.262 10.439-.193 3.365-.453 7.254-.578 8.64-.124 1.386-.047 3.673.171 5.083.483 3.108 1.93 7.513 2.778 8.45.747.825 2.751.91 3.387.145.246-.297.663-.54.926-.54.683 0 2.203-2.116 2.863-3.985.989-2.793 1.228-4.427 1.603-10.999.386-6.75.133-13.041-.933-23.172-.301-2.87-.708-9.35-.902-14.399-.195-5.048-.44-10.263-.546-11.588-.2-2.527.927-12.656 1.866-16.766 1.26-5.513 3.994-8.36 8.023-8.36zm18.122.72c1.369 0 1.717.16 2.418 1.107.85 1.151 1.748 5.677 1.202 6.066-.159.113-.501 1.258-.76 2.545-.258 1.287-.495 2.36-.527 2.383-.033.024-.65.148-1.371.278-1.254.227-1.37.159-2.614-1.536-1.502-2.046-2.547-4.313-2.894-6.28-.225-1.282-.132-1.485 1.352-2.97 1.407-1.407 1.782-1.593 3.194-1.593zm-16.647 6.59a1.827 1.827 0 0 0-.457.098c-1.03.317-1.085.384-.838 1.029.274.713 1.194.355 1.433-.558.106-.406.092-.57-.138-.568zm24.936.966c1.905-.001 2.892.682 3.657 2.295.897 1.89.759 4.08-.36 5.697-.814 1.173-1.138 1.365-2.252 1.342-.715-.015-1.868-.232-2.56-.482-.756-.272-1.302-.73-1.364-1.142-.27-1.786-.485-2.275-1.084-2.465-.61-.194-.615-.333-.09-2.51.536-2.216.608-2.315 1.818-2.516.865-.143 1.6-.22 2.235-.22zm-15.51.723c.874 0 2.836.98 2.836 1.417 0 .175.61 1.102 1.356 2.06l1.358 1.742-.636 1.26c-.35.693-.637 1.76-.637 2.372 0 1.376-1.005 1.896-3.061 1.588-2.242-.334-3.324-1.255-4.002-3.406-.37-1.17-.508-2.362-.366-3.122.288-1.536 2.203-3.911 3.153-3.911zm-15.578 2.997c-.491.006-1.025.438-1.025 1 0 .845 1.365.94 1.68.118.119-.31.06-.72-.13-.912a.711.711 0 0 0-.525-.206zm24.963 2.438c.467.008.695.206 1.085.688 1.103 1.362.271 3.568-1.795 4.763-1.038.601-1.12.6-1.908-.038-.77-.623-.802-.806-.488-2.788l.337-2.121 1.582-.333c.54-.113.906-.176 1.187-.172zm-17.344.369c-.207.004-.511.24-.933.708-.667.736-.668.763-.005 1.248.89.651 1.293.358 1.293-.942 0-.684-.107-1.02-.357-1.015zm-5.445 3.046a1.248 1.248 0 0 0-.319.045c-.798.208-.972 1.037-.27 1.28.48.166.976-.364.985-1.052 0-.173-.154-.272-.396-.273zm25.654.569 1.323.552c.727.304 2.113.565 3.08.58 1.46.022 1.962.22 2.97 1.17 1.098 1.036 1.21 1.333 1.21 3.181 0 1.121-.232 2.595-.516 3.274-.5 1.197-.69 1.304-3.142 1.78-.328.065-1.542-.404-2.699-1.041-2.254-1.243-2.712-1.888-3.485-4.906-.477-1.866-.462-1.989.383-3.265zm-9.338 2.192c1.187-.018 2.136.062 2.267.273.109.176-.208.772-.703 1.326s-1.65 2.025-2.569 3.269c-1.46 1.98-3.093 3.33-4.004 3.313-.158-.002-.692-.209-1.187-.458-.687-.346-.926-.784-1.014-1.856-.15-1.813.841-4.39 1.974-5.132.616-.403 3.257-.704 5.236-.735zm6.284 1.146.67 2.53c.783 2.964.778 3.021-.481 5.559-1.146 2.308-2.521 3.268-4.687 3.27-1.243 0-1.77-.212-2.61-1.051-.579-.58-1.052-1.395-1.052-1.814 0-.797 3.737-6.606 4.904-7.622.371-.324 1.256-.652 1.966-.73zm-25.97 1.611c-.305.003-.548.201-.548.653 0 .79.659 1.537 1.355 1.537.325 0 .454-.337.379-.99-.085-.731-.71-1.204-1.186-1.2zm7.64 2.57c-.102.009-.235.173-.474.499-.283.384-.515.91-.515 1.17 0 .65 1.055.594 1.31-.07.114-.297.097-.823-.037-1.17-.114-.293-.184-.439-.285-.43zm-5.673 5.814a.588.588 0 0 0-.403.188c-.46.461-.175 1.536.408 1.536.21 0 .48-.253.599-.564.23-.599-.162-1.17-.604-1.16zm5.213 5.324c-.65 0-1.051.856-.758 1.62.27.704.815.69 1.09-.03.373-.97.243-1.59-.332-1.59zm-25.562.72c-.603 0-.997.604-.703 1.08.246.397 1.02.48 1.355.144.343-.343-.126-1.224-.652-1.224zm20.58.182c-.072-.002-.179.083-.336.242-.64.647-1.018 1.725-.756 2.15.312.505 1.202-.805 1.215-1.79.005-.41-.02-.598-.124-.602zm-16.982 2.698c-.72 0-1.044.756-.478 1.114.59.374.843.399 1.131.11.344-.343-.126-1.225-.653-1.225zm20.27 4.168a1.015 1.015 0 0 0-.227.034c-.907.238-1.267 1.135-.72 1.794.49.591 1.018.486 1.514-.3.476-.754.134-1.551-.566-1.528zm-19.003.66c-.2 0-.436.065-.693.203-.627.335-.698.52-.355.933.572.69 1.29.651 1.572-.085.246-.64-.017-1.052-.524-1.051zm-4.617.938a.667.667 0 0 0-.573.324c-.297.479.91 1.584 1.302 1.192.178-.177.22-.593.093-.923-.148-.385-.495-.597-.822-.594zm17.555 2.514c-.224.015-.303.367-.107.877.187.488.302.52.533.145.163-.263.143-.63-.043-.816-.15-.15-.281-.213-.383-.206zm4.662 1.888a.303.303 0 0 0-.086.015c-.605.202-.726 1.386-.176 1.726.598.37 1.121-.457.807-1.275-.108-.282-.34-.472-.545-.466zm-18.626 1.633a1.4 1.4 0 0 0-.223.021c-.938.162-1.03.275-.775.94.117.306.553.555.97.555.578 0 .728-.19.64-.808-.07-.494-.246-.708-.612-.708zm-6.709 1.997c-.104.003-.173.08-.173.219 0 .209.162.381.36.381.198 0 .36-.072.36-.16 0-.087-.162-.258-.36-.38a.346.346 0 0 0-.187-.06zm29.179.763a.923.923 0 0 0-.196.017c-1.468.282-1.871 1.044-1.008 1.907.599.6 1.25.54 1.51-.137.412-1.072.28-1.773-.306-1.787zm-24.364 2.47c-.225.001-.508.133-.858.389-.688.503-.689.526-.02 1.264 1.03 1.14 1.717.97 1.582-.39-.084-.853-.302-1.265-.704-1.263zm17.859.246c-.963 0-1.407.51-1.113 1.278.247.641 1.16.684 1.542.072.555-.887.408-1.35-.43-1.35zm-22.847 1.08c-.815 0-.922.373-.288 1.008.635.634 1.007.528 1.007-.288 0-.48-.239-.72-.719-.72zm25.865 3.368a.671.671 0 0 0-.227.043c-.573.221-.567.28.078.754.77.567 1.05.626 1.383.292.366-.365-.574-1.106-1.234-1.089zm21.092 2.391c-.632 0-.996.624-.746 1.277.246.64 1.185.69 1.4.073.23-.66-.103-1.35-.654-1.35zm-43.015 2.173c-.13.008-.29.14-.552.403-.328.327-.48.782-.34 1.01.297.48 1.335.365 1.504-.166.062-.198-.04-.602-.228-.9-.15-.237-.252-.354-.384-.347zm18.924 1.404c-.284.002-.567.12-.729.383-.332.537.13 1.08.922 1.08.458 0 .698-.247.698-.72 0-.465-.448-.746-.89-.743zm-23.463.161a.252.252 0 0 0-.123.042c-.198.122-.36.375-.36.561 0 .187.162.339.36.339.198 0 .36-.253.36-.56 0-.242-.1-.388-.237-.382zm47.563 1.818c-.446.005-.96.52-.736.884.357.577 1.285.492 1.285-.119 0-.285-.13-.598-.287-.696a.484.484 0 0 0-.263-.069zm-42.95 3.082c-.218.002-.444.113-.596.36-.302.488.105 1.082.741 1.082.285 0 .518-.324.518-.72 0-.455-.322-.724-.663-.723zm24.024.722c-.769.021-.904.715-.251 1.368.67.67 1.008.514 1.008-.469 0-.66-.192-.9-.72-.9zm21.235 1.547c-.186 0-.41.074-.657.23-.433.274-.44.421-.037.907.597.719 1.273.535 1.273-.345 0-.512-.223-.79-.579-.792zm-50.922.76c-.463.005-.945.586-.757 1.076.312.813 1.324.72 1.324-.123 0-.384-.13-.778-.287-.876a.514.514 0 0 0-.28-.077zm45.747 2.208c-.204.005-.461.123-.762.356-.67.519-.67.537 0 1.056.802.621 1.297.42 1.297-.528 0-.593-.193-.893-.535-.884zm-19.668.164c-.45.015-.675.255-.675.72 0 .48.24.72.72.72s.72-.24.72-.72-.24-.72-.72-.72h-.045zm-20.016 3.044c-.151.002-.332.108-.609.31-.422.31-.597.728-.457 1.093.277.723 1.538.783 1.805.087.107-.278 0-.77-.234-1.092-.198-.27-.333-.4-.505-.398zm43.2 1.444c-.148-.002-.321.092-.576.278-.407.298-.557.7-.407 1.092.286.746 1.446.825 1.718.116.106-.277 0-.769-.236-1.092-.192-.262-.33-.391-.499-.394zm-48.592 2.04a.787.787 0 0 0-.535.24c-.56.559-.07 1.511.78 1.511.495 0 .731-.236.731-.73 0-.611-.491-1.037-.976-1.02zm25.715.044a.447.447 0 0 0-.228.065c-.434.27-.532 1.384-.154 1.762.431.43 1.217.252 1.44-.328.229-.595-.498-1.511-1.058-1.5zm17.552 4.054c-.195.002-.438.104-.719.31-.76.555-.437 1.303.565 1.303.45 0 .698-.248.698-.7 0-.605-.197-.917-.544-.913zm-23.09.872c-.159.005-.345.144-.43.398-.079.238.05.368.288.288.238-.079.42-.261.405-.405-.02-.195-.132-.285-.264-.281zm-10.944.74c-.98 0-1.21.676-.497 1.463.731.808 1.117.88 1.33.248.274-.813-.163-1.71-.832-1.71zm-8.104 1.228c-.463.005-.945.586-.757 1.076.312.813 1.323.72 1.323-.123 0-.384-.128-.778-.287-.876a.514.514 0 0 0-.279-.077zm45.174.393c-.282.016-.559.293-.624.629-.084.442.11.63.651.63.542 0 .737-.188.651-.63-.066-.347-.36-.63-.65-.63zm-21.96.94c-.255.006-.392.29-.162.661.133.215.407.287.609.163.245-.152.239-.353-.02-.611-.152-.152-.304-.215-.428-.213zm-8.194 1.83c-.22.001-.46.075-.697.229-.718.463-.107 1.5.886 1.5.712 0 .864-.16.771-.807-.084-.59-.477-.929-.96-.923zm-5.677 1.767c-.278.006-.588.178-.89.54-.408.493-.376.655.206 1.08.882.646 1.626.64 1.626-.01 0-1.027-.411-1.621-.942-1.61zm18.273.576c-.172.001-.375.082-.6.247-.582.426-.613.588-.205 1.08.637.767 1.475.737 1.468-.051-.008-.832-.254-1.277-.663-1.275zm13.321.645c-.138.005-.317.113-.597.318-.587.43-.619.592-.21 1.084.595.717 1.073.738 1.333.06.11-.285.057-.772-.117-1.083-.146-.26-.252-.385-.409-.379zm-4.223 4.52c-.22-.003-.5.098-.834.309-.693.439-.222 1.471.672 1.471.539 0 .73-.235.73-.9 0-.577-.2-.875-.568-.88zm-18.367 1.57a.734.734 0 0 0-.242.049c-.808.31-.8 1.5.01 1.713 1.047.273 1.086.265 1.287-.258.261-.68-.395-1.524-1.055-1.504zm7.425 2.121a1.38 1.38 0 0 0-.515.106c-.682.261-.758 1.088-.123 1.344.914.37 1.35.22 1.35-.46 0-.636-.259-.982-.712-.99zm4.087 1.878c-.136.003-.299.065-.51.178-.875.468-.91 1.278-.076 1.763.865.504 1.06.477 1.31-.177.12-.312.05-.88-.156-1.265-.188-.35-.341-.506-.568-.5zm-13.975 2.769c-.392.01-.769.313-.847.852-.141.987 1.43 1.795 1.772.91.124-.32.073-.875-.113-1.233-.193-.37-.507-.537-.812-.53zm7.201 3.88c-.601 0-1.008.514-.671.85.43.43 1.19.233 1.19-.31a.532.532 0 0 0-.519-.54zm-5.763 5.76c-1.25 0-1.668 1.358-.712 2.314.753.752 1.139.713 1.41-.141.194-.613-.306-2.173-.698-2.173zm4.116 8.477a.524.524 0 0 0-.18.034c-.642.246-.69.907-.11 1.487.66.66 1.465-.162 1.004-1.023-.169-.314-.45-.502-.714-.498zm-4.27 4.965c-.21.01-.453.138-.707.396-.554.563-.547.64.103 1.123.986.73 1.281.648 1.281-.36 0-.762-.278-1.177-.678-1.159zm3.682 6.91c-.14.005-.297.067-.497.173-.878.47-.921 1.633-.079 2.123.912.532 1.422.47 1.68-.201.125-.325-.026-.976-.334-1.446-.302-.46-.504-.656-.77-.648zm1.313 8.085c-.471.02-.797.662-.538 1.08.376.61.899.4.899-.36 0-.396-.152-.72-.339-.72zm-3.855 1.13a.787.787 0 0 0-.536.238c-.56.56-.067 1.512.781 1.512.495 0 .731-.237.731-.732 0-.61-.491-1.036-.976-1.019zm-2.28 5.392c-.115 0-.231.07-.367.204-.238.234-.335.68-.215.99.231.603 1.152.764 1.466.257.104-.17-.037-.615-.314-.99-.231-.313-.4-.462-.57-.461zm6.456 4.742c-.162.004-.355.08-.618.221-.975.522-.982.913-.04 1.856.86.859 1.553.763 1.701-.234.057-.381-.117-.996-.387-1.366-.244-.333-.418-.483-.656-.477zm-5.896 2.794c-.472-.001-.984.185-1.295.56-.408.491-.378.654.204 1.08.865.632 1.429.634 1.95.005.226-.271.31-.757.185-1.08-.144-.375-.574-.564-1.044-.566z" fill="#fff" id="path233"/>
    <path d="M1505.348 370.838c-1.236-.171-2.49-.472-3.587-1.081-.982-.58-1.45-1.7-1.527-2.798-.148-1.984.09-3.972.114-5.958.369-13.151.342-26.319 1.027-39.45.176-4.63.273-9.284-.173-13.903-.094-.885-.28-1.756-.497-2.618-3.682-2.269-7.913-3.569-11.374-6.208-1.584-1.257-2.56-3.187-3.124-5.04-1.323-3.965-2.2-8.066-2.959-12.172a60.731 60.731 0 0 1-.57-3.883c-.028-.357-.095-.934-.12-1.379-.176-2.724.36-5.426.621-8.128.686-5.646 1.516-11.277 2.636-16.853.732-3.971 1.299-7.975 1.82-11.97.348-2.289.726-4.625 1.728-6.732.631-1.32 1.76-2.425 3.194-2.816 1.878-.604 4.06-.06 5.402 1.397 2.022 2.058 2.794 4.964 3.288 7.725.44 2.603.52 5.255.392 7.887a60.67 60.67 0 0 1-.156 2.179c-.317 4.306-1.57 8.475-1.91 12.778-.4 3.999-.522 8.018-.855 11.987-.195 2.387-.18 4.81.378 7.15.455 2.077 1.056 4.144 1.983 6.06.414.895 1.683 1.054 2.387.416.509-.62 1.475-.584 1.906-1.299 1.764-2.34 2.369-5.304 2.652-8.162.485-5.346.697-10.725.43-16.09-.19-4.452-.65-8.884-1.079-13.317-.7-8.059-.856-16.252-1.313-24.373-.106-1.546-.02-3.147.104-4.627.355-3.961.787-8.038 1.56-11.99.56-2.975 1.598-6.058 3.903-8.143 2.034-1.88 5.054-2.342 7.677-1.657 1.832.377 3.777 1.144 4.768 2.837 1.054 1.602 1.595 3.49 1.88 5.365.287.602 1.031.764 1.612.518.936-.033 1.833.327 2.748.48-.34-1.442-1.003-2.865-.88-4.374.207-1.311 1.37-2.147 2.241-3.039.829-.908 2.047-1.46 3.285-1.363 1.148-.082 2.428.25 3.09 1.264 1.077 1.45 1.355 3.299 1.667 5.032.058.554.104 1.108.158 1.662 1.954-.29 4.095-.81 5.953.14 1.864 1.064 2.694 3.318 2.716 5.373 0 1.822-.826 3.566-2.099 4.845-.487.34-.308.594.163.812 1.081.726 2.22 1.557 2.747 2.79.469 1.434.255 2.978.064 4.443-.217 1.292-.712 2.814-2.07 3.296-.827.286-1.704.507-2.578.538-1.299-.162-2.433-.896-3.572-1.49-.612-.361-1.174-.801-1.763-1.2-.926 2.061-1.656 4.402-3.525 5.83-1.522 1.089-3.62 1.354-5.365.689-1.164-.563-2.067-1.63-2.554-2.815-.16-.56-.226-1.142-.347-1.71-.792.258-1.575.687-2.436.52-.517-.144-.714.043-.584.566.108 2.39-.449 4.738-.665 7.107-.527 4.268-.903 8.536-1.498 12.784-.347 2.42-.337 4.871-.47 7.308-.3 7.968-.539 15.942-.534 23.916.053 3.834.087 7.691.703 11.484.32 1.462.657 3.073 1.819 4.119.392.33.824.609 1.232.917.976-1.566 1.79-3.238 2.285-5.02 1.38-4.971 2.005-10.115 2.46-15.243.371-3.81.352-7.65.772-11.456.4-2.683 1.948-5.343 4.458-6.534 1.744-.845 4.084-.734 5.461.746 1.258 1.42 1.798 3.317 2.178 5.138.757 3.83.805 7.84.793 11.78.036 2.108-.146 4.22-.64 6.274a303.934 303.934 0 0 1-2.326 9.331c-.455 1.585-.933 3.212-1.977 4.524-2.578 3.328-5.004 6.808-8.031 9.755-4.478 4.006-8.121 8.822-12.378 13.046-1.185 1.337-1.185 3.228-1.325 4.908-.286 4.766-.177 9.542-.203 14.313.028 8.612.014 17.226.277 25.833.064 1.174.467 2.524-.35 3.535-1.301 1.76-3.506 2.48-5.558 2.93-1.411.2-2.856.146-4.245.507-.5.072-1.011.114-1.516.057z" id="path385"/>
    <path d="M1516.72 196.48c-1.845.04-3.678.599-5.16 1.72-2.46 1.852-3.782 4.813-4.498 7.732-.759 3.329-1.179 6.724-1.559 10.114-.249 2.72-.614 5.456-.43 8.193.528 9.298.641 18.626 1.657 27.89.408 4.197.75 8.473.833 12.69.037 1.622.023 3.318-.018 4.892-.118 3.008-.268 6.009-.586 8.944-.317 2.377-.848 4.854-2.335 6.797-.23.494-.805.457-1.197.747-.367.12-.544.597-.933.615-.505.112-.607-.453-.796-.785a29.898 29.898 0 0 1-1.89-6.647c-.48-2.865-.027-5.79.123-8.64.224-3.242.344-6.399.71-9.613.332-3.57 1.317-7.037 1.687-10.6.542-4.813.589-9.775-.713-14.475-.684-2.427-1.863-4.888-3.98-6.373-1.852-1.292-4.389-1.396-6.382-.37-1.637.776-2.657 2.388-3.263 4.035-1.18 3.336-1.429 6.896-1.938 10.373-.125.916-.29 1.965-.424 2.861-.323 1.97-.648 3.94-1.03 5.9-1.048 5.259-1.781 10.572-2.435 15.892-.251 2.436-.668 4.866-.642 7.32.15 2.877.662 5.724 1.211 8.547.755 3.54 1.534 7.09 2.764 10.5.626 1.912 1.732 3.687 3.323 4.943 3.356 2.544 7.431 3.842 11.021 5.99.385 1.468.482 2.989.567 4.466.214 4.013.124 8.055-.046 12.032-.624 11.88-.632 23.78-.92 35.67-.054 1.834-.073 3.593-.17 5.403-.035 1.684-.259 3.42.22 5.063.361 1.308 1.432 2.31 2.692 2.754 1.119.405 2.291.732 3.483.796a8.59 8.59 0 0 0 1.655-.146c1.58-.428 3.259-.168 4.829-.664 2.135-.545 4.38-1.526 5.563-3.488.753-1.223.353-2.692.274-4.027-.245-9.132-.242-18.27-.262-27.406.034-4.353-.067-8.714.247-13.06.135-1.275.16-2.727 1.091-3.716 3.903-3.846 7.249-8.224 11.244-11.98 2.827-2.482 5.099-5.497 7.373-8.472 1.093-1.507 2.423-2.89 3.102-4.653.95-2.517 1.475-5.166 2.165-7.76.705-2.987 1.606-5.97 1.644-9.065.062-3.627.037-7.268-.358-10.878-.345-2.544-.773-5.184-2.152-7.4-.829-1.34-2.248-2.306-3.832-2.45-2.258-.298-4.516.773-5.99 2.456-1.564 1.698-2.428 3.953-2.605 6.24-.285 3.12-.32 6.257-.575 9.38-.306 3.996-.765 8.089-1.527 12.088-.578 2.782-1.15 5.652-2.644 8.112-.402-.273-.716-.658-.949-1.081-.934-2.018-1.063-4.284-1.263-6.466-.229-3.423-.267-6.928-.25-10.416.08-7.397.284-14.798.58-22.177.139-2.186.106-4.394.503-6.555.573-4.435.988-8.906 1.542-13.321.19-1.907.615-3.803.553-5.727.43.034.865-.05 1.263-.214.064.482.231.946.454 1.377.759 1.288 1.868 2.504 3.344 2.936 1.75.474 3.71.254 5.293-.647 2.011-1.178 3.02-3.407 3.89-5.467.436.32.903.599 1.38.854 1.216.605 2.472 1.368 3.876 1.327 1.252-.229 2.615-.398 3.641-1.222 1.164-1.034 1.55-2.653 1.737-4.138.14-1.598.317-3.337-.46-4.808-.629-.992-1.523-1.819-2.502-2.461 1.506-1.637 2.235-3.942 1.93-6.147-.28-2.048-1.288-4.17-3.167-5.193-1.695-.904-3.712-.718-5.539-.41a13.633 13.633 0 0 0-.123-1.08c-.385-1.922-.758-4.016-2.156-5.492-.928-1.06-2.412-1.318-3.754-1.228-1.292-.058-2.534.497-3.47 1.368-.97.973-2.127 1.87-2.648 3.186-.435 1.271-.053 2.64.302 3.884-.466-.112-.952-.2-1.433-.145-.26-.015-.699.325-.618-.14-.396-2.249-1.181-4.513-2.687-6.269-1.453-1.536-3.598-2.134-5.62-2.484a9.933 9.933 0 0 0-1.836-.13zm.183 1.982c1.989 0 4.538.786 5.57 1.718 1.7 1.54 3.16 6.507 2.155 7.341-1.651 1.37-2.093 5.34-.826 7.418 1.001 1.642.943 3.76-.135 4.924-1.825 1.97-2.126 6.108-.595 8.178.753 1.02.755 1.087.213 5.254a481.218 481.218 0 0 0-1.116 9.622c-.311 2.97-.643 5.626-.737 5.904-.352 1.044-1.047 23.568-.968 31.35.112 10.862.886 14.765 3.247 16.37 1.706 1.159 2.374.774 3.746-2.16 1.885-4.028 3.403-13.473 3.875-24.108.233-5.281.383-6.354 1.09-7.831 1.41-2.947 3.99-4.403 6.385-3.605 2.42.807 3.735 5.741 3.816 14.316.057 5.968.026 6.257-1.313 11.698-2.05 8.33-2.288 9.047-3.56 10.7-.644.836-2.33 3.032-3.747 4.878-1.418 1.847-3.504 4.15-4.636 5.116-1.131.967-3.748 3.684-5.814 6.038s-4.457 4.957-5.314 5.783c-2.516 2.425-2.546 2.725-2.484 25.439.03 10.79.17 20.509.312 21.598.24 1.846.19 2.047-.734 2.97-1.086 1.087-3.892 2.069-5.907 2.069-.708 0-1.772.134-2.365.297-.592.163-1.564.183-2.158.045-3.714-.864-3.917-1.218-3.654-6.374.118-2.325.304-10.545.414-18.266.11-7.72.357-16.838.55-20.26.612-10.849.27-19.205-.84-20.552-.236-.286-2.411-1.457-4.834-2.602-5.743-2.712-7.277-3.798-8.477-6.003-1.751-3.217-4.58-15.976-4.574-20.64 0-2.17 1.64-14.83 2.485-19.212 1.224-6.342 1.823-9.974 2.38-14.443.9-7.214 1.954-9.796 4.32-10.577 6.664-2.2 9.977 9.757 6.834 24.66-.584 2.77-1.036 6.514-1.261 10.439-.193 3.365-.454 7.254-.578 8.64-.125 1.386-.048 3.673.17 5.083.483 3.108 1.931 7.513 2.778 8.45.747.825 2.751.91 3.387.145.247-.297.664-.54.926-.54.683 0 2.203-2.116 2.864-3.985.988-2.793 1.227-4.427 1.603-10.999.386-6.75.132-13.042-.933-23.172-.302-2.87-.708-9.35-.903-14.399-.194-5.048-.44-10.263-.545-11.588-.201-2.528.926-12.656 1.866-16.767 1.26-5.512 3.993-8.36 8.022-8.36zm18.122.72c1.369 0 1.718.16 2.418 1.107.85 1.151 1.748 5.677 1.203 6.066-.16.113-.502 1.258-.76 2.545-.259 1.287-.496 2.36-.528 2.383-.033.023-.649.148-1.371.278-1.254.227-1.37.158-2.614-1.536-1.502-2.046-2.547-4.313-2.893-6.28-.226-1.282-.133-1.485 1.351-2.97 1.407-1.407 1.782-1.593 3.194-1.593zm-16.647 6.59a1.826 1.826 0 0 0-.456.098c-1.03.317-1.086.384-.838 1.029.273.713 1.193.355 1.432-.558.106-.406.092-.57-.138-.568zm24.937.966c1.904-.001 2.892.682 3.657 2.294.897 1.891.758 4.082-.362 5.698-.813 1.173-1.136 1.365-2.25 1.341-.716-.014-1.868-.23-2.561-.48-.756-.273-1.302-.73-1.364-1.143-.27-1.786-.485-2.275-1.084-2.465-.61-.194-.615-.333-.089-2.51.536-2.216.607-2.315 1.818-2.516.864-.143 1.6-.22 2.235-.22zm-15.51.722c.873 0 2.836.981 2.836 1.417 0 .176.61 1.103 1.356 2.06l1.357 1.743-.636 1.26c-.35.693-.637 1.76-.637 2.371 0 1.376-1.004 1.897-3.06 1.59-2.243-.335-3.325-1.256-4.003-3.407-.37-1.17-.508-2.362-.365-3.122.288-1.536 2.202-3.912 3.152-3.912zm-15.579 2.998c-.491.006-1.024.438-1.024 1 0 .844 1.364.94 1.68.118.118-.31.06-.72-.132-.912a.711.711 0 0 0-.524-.206zm24.963 2.437c.467.008.695.207 1.086.69 1.102 1.36.27 3.566-1.796 4.762-1.037.601-1.12.6-1.908-.038-.77-.624-.801-.806-.487-2.788l.336-2.121 1.583-.333c.54-.113.906-.177 1.186-.172zm-17.344.37c-.206.004-.51.24-.933.707-.667.737-.667.764 0 1.25.89.65 1.293.356 1.293-.943 0-.684-.107-1.02-.357-1.015zm-5.444 3.046a1.248 1.248 0 0 0-.32.044c-.798.21-.972 1.038-.269 1.281.48.166.975-.364.984-1.052 0-.173-.153-.272-.396-.273zm25.653.569 1.323.552c.727.304 2.113.565 3.08.58 1.46.022 1.962.22 2.97 1.17 1.098 1.036 1.21 1.333 1.21 3.181 0 1.121-.232 2.595-.515 3.274-.5 1.197-.69 1.304-3.142 1.78-.329.065-1.543-.404-2.7-1.041-2.253-1.243-2.712-1.888-3.484-4.906-.478-1.866-.463-1.989.382-3.265zm-9.338 2.192c1.188-.018 2.137.062 2.267.273.11.176-.208.772-.703 1.326-.494.554-1.65 2.025-2.568 3.269-1.461 1.98-3.094 3.33-4.004 3.313-.159-.002-.692-.209-1.187-.458-.688-.346-.927-.784-1.015-1.856-.15-1.813.842-4.39 1.974-5.132.616-.404 3.258-.704 5.236-.735zm6.285 1.146.669 2.53c.784 2.964.779 3.021-.48 5.559-1.147 2.308-2.522 3.268-4.688 3.27-1.243 0-1.77-.212-2.61-1.051-.578-.58-1.052-1.395-1.052-1.814 0-.798 3.737-6.606 4.904-7.622.372-.324 1.257-.652 1.966-.73zm-25.97 1.611c-.305.003-.548.201-.548.653 0 .79.658 1.537 1.355 1.537.324 0 .453-.337.378-.99-.084-.731-.71-1.204-1.185-1.2zm7.639 2.57c-.102.009-.235.173-.474.499-.283.384-.515.91-.515 1.17 0 .65 1.056.594 1.31-.07.114-.297.097-.823-.037-1.17-.114-.293-.183-.439-.284-.43zm-5.673 5.814a.588.588 0 0 0-.402.188c-.461.461-.176 1.536.407 1.536.21 0 .48-.254.6-.564.23-.599-.163-1.17-.605-1.16zm5.214 5.324c-.651 0-1.052.856-.76 1.62.271.704.817.69 1.092-.03.373-.97.243-1.59-.332-1.59zm-25.563.72c-.603 0-.997.604-.703 1.08.246.397 1.02.48 1.355.144.344-.343-.125-1.224-.652-1.224zm20.58.182c-.071-.002-.179.083-.336.242-.64.647-1.018 1.725-.756 2.15.312.505 1.202-.805 1.215-1.79 0-.41-.02-.598-.123-.602zm-16.981 2.698c-.72 0-1.045.756-.479 1.114.591.374.843.399 1.132.11.343-.343-.127-1.225-.653-1.225zm20.27 4.168a1.018 1.018 0 0 0-.228.034c-.907.238-1.267 1.135-.72 1.794.49.591 1.019.486 1.515-.3.475-.754.133-1.551-.567-1.528zm-19.004.66c-.199 0-.435.065-.693.203-.627.335-.698.52-.355.933.573.69 1.29.651 1.572-.085.246-.64-.017-1.053-.524-1.051zm-4.617.938a.667.667 0 0 0-.573.323c-.297.48.91 1.585 1.302 1.193.178-.177.22-.593.093-.923-.148-.385-.495-.597-.822-.594zm17.555 2.514c-.223.015-.302.367-.107.877.187.488.302.52.534.145.162-.263.143-.63-.043-.816-.15-.15-.281-.213-.383-.206zm4.662 1.888a.303.303 0 0 0-.086.015c-.605.201-.726 1.386-.176 1.726.597.37 1.121-.457.807-1.275-.108-.282-.34-.472-.545-.466zm-18.625 1.633c-.068 0-.142.008-.224.021-.938.162-1.03.275-.775.94.117.306.554.555.97.555.578 0 .728-.19.64-.808-.07-.494-.246-.708-.611-.708zm-6.71 1.997c-.103.003-.172.08-.172.219 0 .209.161.381.36.381.197 0 .359-.072.359-.16 0-.087-.162-.258-.36-.38a.346.346 0 0 0-.186-.06zm29.179.762a.923.923 0 0 0-.196.018c-1.467.282-1.87 1.044-1.008 1.907.6.6 1.25.54 1.51-.137.412-1.072.28-1.773-.306-1.787zm-24.363 2.471c-.226.001-.508.133-.859.389-.688.503-.689.526-.02 1.264 1.031 1.14 1.717.97 1.583-.39-.084-.854-.302-1.265-.704-1.263zm17.858.246c-.963 0-1.407.51-1.113 1.278.247.641 1.16.684 1.543.072.554-.887.407-1.35-.43-1.35zm-22.846 1.08c-.816 0-.923.373-.289 1.008.635.634 1.008.528 1.008-.288 0-.48-.24-.72-.72-.72zm25.864 3.368a.671.671 0 0 0-.227.042c-.573.222-.567.28.078.755.77.567 1.05.626 1.383.292.366-.365-.574-1.106-1.234-1.09zm21.092 2.391c-.632 0-.996.624-.745 1.277.246.64 1.185.69 1.4.073.23-.66-.104-1.35-.655-1.35zm-43.014 2.173c-.131.008-.291.14-.553.402-.328.328-.48.782-.34 1.01.297.48 1.336.366 1.504-.165.062-.198-.039-.603-.228-.9-.15-.237-.252-.354-.383-.347zm18.924 1.404c-.285.002-.567.12-.73.383-.332.537.131 1.08.922 1.08.459 0 .699-.247.699-.72 0-.465-.448-.746-.891-.743zm-23.464.161a.252.252 0 0 0-.123.042c-.198.122-.36.375-.36.561 0 .187.162.339.36.339.198 0 .36-.253.36-.56 0-.242-.099-.388-.237-.382zm47.563 1.817c-.445.005-.96.52-.736.884.357.578 1.285.493 1.285-.118 0-.285-.129-.598-.287-.696a.484.484 0 0 0-.263-.07zm-42.95 3.082c-.218.002-.444.114-.596.362-.302.487.105 1.08.741 1.08.285 0 .518-.323.518-.72 0-.454-.322-.724-.663-.722zm24.024.723c-.769.021-.903.715-.251 1.368.671.67 1.008.514 1.008-.469 0-.66-.192-.9-.72-.9zm21.235 1.547c-.186 0-.41.074-.657.23-.433.274-.44.421-.037.907.597.719 1.273.535 1.273-.345 0-.513-.223-.79-.579-.792zm-50.922.76c-.462.005-.945.586-.757 1.076.312.813 1.324.72 1.324-.123 0-.384-.13-.778-.287-.876a.514.514 0 0 0-.28-.077zm45.748 2.208c-.205.005-.462.123-.763.356-.67.519-.67.537 0 1.056.802.621 1.297.42 1.297-.529 0-.592-.193-.892-.535-.883zm-19.668.164c-.45.015-.675.255-.675.72 0 .48.24.72.719.72.48 0 .72-.24.72-.72s-.24-.72-.72-.72h-.045zm-20.017 3.044c-.151.002-.331.108-.608.31-.423.31-.598.728-.458 1.093.277.722 1.538.783 1.806.087.107-.278 0-.77-.235-1.092-.198-.27-.333-.4-.505-.398zm43.2 1.443c-.148-.002-.32.093-.576.279-.407.298-.557.7-.407 1.092.286.746 1.447.824 1.718.116.107-.277 0-.769-.236-1.092-.192-.262-.33-.391-.499-.395zm-48.592 2.041a.787.787 0 0 0-.535.24c-.56.559-.069 1.511.78 1.511.495 0 .732-.236.732-.73 0-.611-.492-1.037-.976-1.02zm25.715.044a.447.447 0 0 0-.228.065c-.434.269-.531 1.384-.154 1.762.432.43 1.218.252 1.44-.328.229-.595-.498-1.511-1.058-1.5zm17.552 4.054c-.195.002-.437.104-.718.31-.76.555-.437 1.303.564 1.303.451 0 .698-.248.698-.7 0-.606-.197-.917-.544-.913zm-23.09.872c-.159.005-.345.144-.43.398-.078.238.05.367.289.288.237-.079.42-.261.405-.405-.02-.195-.133-.285-.264-.281zm-10.943.74c-.98 0-1.21.676-.498 1.463.732.808 1.117.88 1.33.248.274-.814-.163-1.71-.832-1.71zm-8.105 1.228c-.462.005-.945.586-.757 1.076.313.813 1.324.72 1.324-.123 0-.384-.129-.778-.287-.876a.514.514 0 0 0-.28-.077zm45.174.393c-.282.016-.558.293-.623.629-.085.442.109.63.65.63.542 0 .737-.188.652-.63-.066-.347-.36-.63-.652-.63zm-21.96.94c-.255.006-.391.29-.161.661.133.215.406.287.608.163.245-.152.24-.353-.02-.611-.151-.152-.304-.215-.428-.213zm-8.194 1.83c-.22.001-.459.075-.696.228-.72.464-.107 1.5.885 1.5.713 0 .864-.158.772-.806-.084-.59-.478-.929-.961-.923zm-5.677 1.767c-.277.006-.588.178-.889.54-.408.493-.377.654.205 1.08.882.646 1.627.64 1.627-.01 0-1.027-.412-1.621-.943-1.61zm18.273.576c-.172.001-.374.082-.6.247-.582.426-.613.588-.205 1.08.637.767 1.475.737 1.468-.051-.01-.832-.253-1.277-.662-1.275zm13.322.645c-.139.005-.317.113-.598.318-.586.43-.618.592-.21 1.084.596.717 1.073.738 1.333.06.11-.285.057-.772-.117-1.083-.146-.26-.252-.385-.408-.379zm-4.224 4.52c-.22-.003-.5.098-.833.309-.693.438-.222 1.47.67 1.47.54 0 .731-.234.731-.899 0-.577-.2-.875-.568-.88zm-18.367 1.57a.734.734 0 0 0-.242.048c-.807.31-.8 1.502.01 1.713 1.048.274 1.086.266 1.287-.257.262-.681-.395-1.524-1.054-1.504zm7.425 2.121a1.38 1.38 0 0 0-.515.106c-.682.261-.757 1.088-.123 1.344.914.37 1.35.22 1.35-.46 0-.636-.259-.982-.712-.99zm4.087 1.878c-.136.003-.298.065-.51.178-.874.468-.91 1.278-.076 1.763.865.504 1.06.477 1.31-.177.12-.312.05-.88-.156-1.265-.188-.35-.341-.506-.568-.5zm-13.975 2.769c-.392.01-.769.313-.846.852-.142.987 1.43 1.795 1.772.91.123-.32.073-.875-.114-1.233-.192-.37-.507-.538-.812-.53zm7.201 3.88c-.6 0-1.007.514-.671.85.43.43 1.19.233 1.19-.31a.532.532 0 0 0-.518-.54zm-5.763 5.76c-1.25 0-1.667 1.358-.711 2.314.752.752 1.138.713 1.41-.141.194-.613-.307-2.173-.699-2.173zm4.116 8.477a.524.524 0 0 0-.18.034c-.641.246-.69.907-.11 1.487.66.66 1.465-.162 1.004-1.023-.168-.314-.449-.502-.714-.498zm-4.27 4.965c-.21.01-.452.138-.707.396-.554.563-.547.64.104 1.122.986.731 1.28.649 1.28-.36 0-.761-.278-1.176-.678-1.158zm3.682 6.91c-.14.005-.297.066-.497.173-.878.47-.92 1.633-.078 2.123.912.532 1.422.47 1.68-.202.124-.324-.026-.975-.334-1.445-.302-.46-.504-.657-.77-.648zm1.313 8.085c-.47.02-.796.662-.538 1.08.376.609.9.4.9-.36 0-.396-.153-.72-.34-.72zm-3.855 1.13a.787.787 0 0 0-.535.238c-.56.56-.068 1.512.78 1.512.496 0 .732-.237.732-.732 0-.61-.492-1.036-.977-1.019zm-2.279 5.392c-.116 0-.232.07-.368.203-.237.235-.334.68-.215.99.232.604 1.153.765 1.466.258.104-.17-.037-.615-.314-.99-.23-.314-.4-.462-.569-.461zm6.456 4.742c-.163.004-.355.08-.619.221-.975.522-.982.913-.039 1.856.858.859 1.552.763 1.7-.234.057-.381-.117-.997-.387-1.366-.243-.333-.418-.483-.656-.477zm-5.897 2.794c-.471-.001-.983.185-1.295.56-.408.491-.378.654.204 1.08.866.632 1.429.634 1.95.005.226-.271.31-.757.186-1.08-.145-.375-.574-.564-1.045-.566z" fill="#fff" id="path387"/>
</svg>
