<?xml version="1.0" encoding="UTF-8" standalone="no"?>
<svg
   xml:space="preserve"
   viewBox="0 0 2351 400"
   version="1.1"
   id="svg39"
   sodipodi:docname="cactus_1.svg"
   width="2351"
   height="400"
   inkscape:version="1.1 (c4e8f9e, 2021-05-24)"
   xmlns:inkscape="http://www.inkscape.org/namespaces/inkscape"
   xmlns:sodipodi="http://sodipodi.sourceforge.net/DTD/sodipodi-0.dtd"
   xmlns="http://www.w3.org/2000/svg"
   xmlns:svg="http://www.w3.org/2000/svg"><defs
   id="defs43" /><sodipodi:namedview
   id="namedview41"
   pagecolor="#505050"
   bordercolor="#ffffff"
   borderopacity="1"
   inkscape:pageshadow="0"
   inkscape:pageopacity="0"
   inkscape:pagecheckerboard="1"
   showgrid="false"
   width="11px"
   fit-margin-top="0"
   fit-margin-left="0"
   fit-margin-right="0"
   fit-margin-bottom="0"
   inkscape:zoom="0.53901785"
   inkscape:cx="497.2006"
   inkscape:cy="-51.946331"
   inkscape:window-width="1465"
   inkscape:window-height="982"
   inkscape:window-x="0"
   inkscape:window-y="25"
   inkscape:window-maximized="0"
   inkscape:current-layer="svg39" />
    <path
   d="m 382.66958,226.97639 c -1.46763,-0.0503 -2.95533,-0.1245 -4.37598,-0.52249 -0.47105,-0.14604 -0.89246,-0.41257 -1.27918,-0.71264 -0.11258,0.46092 -0.67888,0.74662 -1.09623,0.48535 -0.61157,-0.37623 -0.84457,-1.11037 -1.10175,-1.74181 -0.54116,-1.36347 -0.88024,-2.81513 -0.88192,-4.287 -0.0115,-1.73583 0.11013,-3.4695 0.15805,-5.20427 0.24117,-6.19322 0.44375,-12.39078 0.65273,-18.5886 0.10539,-2.71054 0.22033,-5.43022 0.69009,-8.10702 0.16042,-1.1082 0.36782,-2.21163 0.47673,-3.32608 0.13168,-3.40858 0.14604,-6.82065 0.18678,-10.2311 0.0453,-6.0064 0.0982,-12.01332 0.0287,-18.01972 -0.0151,-0.97171 -0.0309,-1.94679 -0.16286,-2.91057 -2.81216,0.11257 -5.62703,0.16523 -8.44027,0.24353 -1.05098,-0.51602 -2.13644,-0.98657 -3.06642,-1.7114 -1.8316,-1.35749 -3.47354,-2.97152 -4.88825,-4.75831 -0.94418,-1.1786 -1.61227,-2.54255 -2.3371,-3.85911 -0.63506,-1.21381 -1.2969,-2.41394 -1.95374,-3.61566 a 40.00341,40.00341 0 0 1 -2.08735,-5.31966 c -0.32615,-1.23224 -0.77248,-2.42739 -1.25523,-3.60485 -0.35582,-1.00309 -0.66063,-2.03994 -0.68269,-3.11173 -0.29935,-5.0325 -0.30747,-10.07606 -0.5,-15.11288 -0.0596,-1.42741 -0.0862,-2.88335 -0.27751,-4.31073 a 97.738033,97.738033 0 0 1 -0.45022,-8.13534 c -0.0266,-3.26514 0.76842,-6.466089 1.69296,-9.57565 0.56969,-1.81892 1.2095,-3.680892 2.43742,-5.172735 0.75763,-0.864434 1.70469,-1.621124 2.8197,-1.955881 1.37424,-0.39842 2.81163,0.03807 4.09206,0.552659 1.05912,0.420476 2.02484,1.163997 2.52153,2.210185 0.55122,1.132395 0.75453,2.396421 0.90131,3.635871 0.18916,2.142188 -0.17478,4.280254 -0.48154,6.393556 -0.2227,1.460449 -0.49231,2.93431 -0.6676,4.376795 a 25.180081,25.180081 0 0 0 -0.13168,1.55575 c -0.0381,0.71789 -0.0503,1.53134 -0.0553,2.29831 -0.0359,4.45335 0.0596,8.90106 0.39131,13.32881 0.12694,1.48032 0.23226,3.00332 0.65058,4.45335 a 27.816995,27.816995 0 0 0 0.52033,1.71068 c 1.00644,2.95103 2.29232,5.80014 3.68872,8.58507 0.8254,1.56748 1.69584,3.14541 2.9173,4.44394 0.19878,0.21315 0.49907,0.45999 0.68722,0.59196 0.68865,0.47363 1.4638,0.87593 2.19965,1.19776 0.28211,0.12213 0.66114,0.27464 0.99662,0.36322 0.28614,0.0718 0.57852,0.11257 0.86755,0.17004 -0.26336,-1.90201 -0.17478,-3.82731 -0.0524,-5.73651 0.15324,-2.61022 0.22752,-5.22851 0.56775,-7.82363 0.33355,-2.61914 0.7313,-5.23959 1.414,-7.79347 0.25596,-1.03805 0.7811,-1.98486 1.42093,-2.834 0.9904,-1.31582 2.15632,-2.52826 3.54957,-3.4199 0.77824,-0.47701 1.69584,-0.75837 2.61186,-0.73658 1.17022,0.0553 2.10315,0.87355 2.89951,1.6525 0.93796,0.89988 1.8285,1.90943 2.26503,3.15593 0.62522,1.72696 0.72652,3.58409 0.83044,5.40136 0.16286,3.8583 0.0668,7.72199 -8.1e-4,11.58137 -0.11732,5.78126 -0.31445,11.56063 -0.43413,17.34215 -0.0309,1.79234 -0.0287,3.60134 0.0575,5.37007 0.11976,2.38906 0.38506,4.74833 0.63909,7.13235 0.12694,1.04882 0.20115,2.11105 0.42981,3.16026 0.0982,0.48894 0.55431,0.87019 1.056,0.86659 1.08666,0.0503 2.17499,0.0958 3.25516,0.23707 1.60221,0.14131 3.18481,-0.46099 4.45769,-1.40657 0.99183,-0.66523 1.72625,-1.63669 2.28107,-2.68165 1.022,-1.80288 1.71714,-3.78901 2.01311,-5.84137 0.10776,-0.69799 0.17723,-1.40585 0.22033,-2.06173 0.20115,-3.13435 -0.0553,-6.24554 -0.28879,-9.37343 -0.31731,-4.93301 -0.28973,-9.87952 -0.27608,-14.82035 0.0338,-1.10821 -0.0359,-2.24492 0.27586,-3.32094 0.4133,-1.22099 1.03805,-2.4509 2.14219,-3.18317 1.40825,-0.94634 3.15054,-1.48464 4.85104,-1.26554 0.99304,0.1365 1.87256,0.69562 2.63155,1.323 1.19368,1.07301 2.01143,2.47865 2.84989,3.82866 0.62285,1.02727 1.17693,2.1338 1.30145,3.34521 0.17004,1.54235 0.35941,3.08395 0.69009,4.60139 0.54741,2.17667 0.70445,4.42721 0.72915,6.66479 0.0151,0.7107 0.0668,1.42907 0.11975,2.16061 0.12694,1.41975 0.23226,2.84318 0.19397,4.26974 a 61.183634,61.183634 0 0 1 -1.1209,10.48701 c -0.39942,2.08111 -1.10605,4.0837 -1.69488,6.11504 -0.86468,2.81646 -1.65225,5.65964 -2.66791,8.42678 -0.49856,1.31845 -1.12066,2.67117 -2.26454,3.55498 -0.88168,0.67406 -1.82371,1.26625 -2.73992,1.89171 -1.14077,0.64267 -2.39361,1.05505 -3.62562,1.48559 -1.55168,0.51552 -3.12733,0.98896 -4.75533,1.18963 -1.71715,0.27421 -3.47733,0.24806 -5.17297,0.65682 -0.77178,0.27515 -1.58257,0.4018 -2.38141,0.56538 -1.47026,0.39533 -2.52797,1.66973 -3.07584,3.03892 -0.23471,0.56465 -0.35971,1.09887 -0.53758,1.68913 -0.56085,1.97912 -0.97986,4.07616 -1.13048,6.15685 -0.26846,3.6426 0.004,7.29571 0.24691,10.93184 0.26365,3.86721 0.56581,7.73414 0.65417,11.61025 0.0596,1.79712 -0.23944,3.6283 -1.05601,5.24256 -0.91208,1.83855 -2.45115,3.38645 -4.33501,4.21878 -0.77871,0.29935 -1.63501,0.23944 -2.45275,0.24547 z"
   id="path35"
   style="stroke-width:0.269624" />
    <path
   d="m 358.1986,83.118301 c -1.52103,-0.05532 -2.92811,0.753091 -3.97908,1.795213 -1.44729,1.431713 -2.21068,3.377299 -2.82836,5.278395 -0.97363,3.134375 -1.80933,6.356366 -1.89842,9.655202 -0.0101,2.955619 0.17005,5.910139 0.44684,8.852249 0.091,0.70187 0.1485,1.45111 0.18679,2.12974 0.24518,5.1444 0.25768,10.312 0.49396,15.46531 0.0814,1.10007 0.0381,2.21713 0.28542,3.29854 0.30747,1.5026 1.03014,2.87069 1.47194,4.33205 a 40.110449,40.110449 0 0 0 1.84359,5.1649 c 0.4487,1.09599 1.04738,2.11799 1.6113,3.15647 0.92861,1.68171 1.75426,3.42609 2.8305,5.02118 1.45016,1.993 3.20528,3.76204 5.1552,5.26762 1.07229,0.88432 2.34644,1.46213 3.58976,2.06173 2.69271,-0.0718 5.38624,-0.12931 8.07791,-0.22988 0.0453,0.44756 0.0668,0.89724 0.0814,1.34694 0.0838,4.57471 0.0553,9.15102 0.0309,13.72597 -0.0409,4.82975 -0.0481,9.66059 -0.18915,14.48872 0.006,1.32228 -0.25884,2.62182 -0.44943,3.92463 -0.44037,2.46813 -0.60848,4.97347 -0.70927,7.47529 -0.22751,6.11749 -0.40804,12.23821 -0.64698,18.3511 -0.0625,1.97408 -0.17242,3.92838 -0.20597,5.90553 a 12.134378,12.134378 0 0 0 0.69297,4.4903 c 0.34411,0.8563 0.58283,1.83593 1.32323,2.45034 0.47558,0.45762 1.28158,0.44038 1.749,-0.0194 a 4.3579147,4.3579147 0 0 0 0.75094,0.38556 c 1.53061,0.49828 3.15863,0.56178 4.75506,0.62328 0.8223,-0.003 1.66734,0.0409 2.46086,-0.21552 1.52582,-0.5967 2.84101,-1.67716 3.8316,-2.97257 1.39508,-1.80838 2.06795,-4.09829 2.09669,-6.36635 -0.0381,-3.4485 -0.28686,-6.88967 -0.52084,-10.32925 -0.23972,-3.68359 -0.57205,-7.32861 -0.47751,-11.01814 0.0194,-0.74088 0.0647,-1.5378 0.12212,-2.22432 0.20352,-2.28275 0.7143,-4.52833 1.39005,-6.71496 0.41351,-1.37137 1.29954,-2.72696 2.69514,-3.23899 0.74424,-0.21071 1.52199,-0.28858 2.26143,-0.52371 0.39749,-0.14368 0.86636,-0.22752 1.25021,-0.28951 1.08067,-0.1676 2.17451,-0.2227 3.26057,-0.34505 1.64148,-0.16286 3.25999,-0.51602 4.82946,-1.02176 1.54833,-0.50618 3.11522,-0.99974 4.55797,-1.76791 a 56.09693,56.09693 0 0 0 2.64153,-1.78611 c 1.2047,-0.81416 1.97408,-2.10459 2.50343,-3.42961 1.02918,-2.6272 1.78252,-5.35066 2.60888,-8.04554 0.60388,-2.08902 1.31223,-4.14493 1.81676,-6.26254 0.79836,-3.68844 1.2198,-7.45589 1.31702,-11.2271 0.0862,-2.00593 -0.17242,-4.00092 -0.28039,-5.99991 -0.0524,-1.6635 -0.0697,-3.33336 -0.29907,-4.98533 -0.13168,-1.15945 -0.44346,-2.28514 -0.65517,-3.42959 -0.19397,-1.06631 -0.33169,-2.1556 -0.45496,-3.25248 -0.0814,-1.22602 -0.52845,-2.39479 -1.14149,-3.44929 -0.81895,-1.3594 -1.62184,-2.75177 -2.71159,-3.91761 -0.81966,-0.85654 -1.83951,-1.56845 -2.99633,-1.87495 -1.81532,-0.39389 -3.73534,0.0958 -5.30455,1.04068 -1.17669,0.65057 -1.98151,1.80288 -2.46624,3.03191 -0.55819,1.21525 -0.52486,2.57654 -0.54188,3.88311 -0.0194,5.37277 -0.0596,10.75445 0.34676,16.11537 0.21071,2.86717 0.40539,5.7276 0.19397,8.57724 -0.14131,2.05717 -0.57234,4.1069 -1.43076,5.9886 -0.56753,1.19776 -1.16472,2.42822 -2.13644,3.35573 -1.23104,1.11276 -2.83292,1.93529 -4.5267,1.89004 -0.97794,-0.0934 -1.9566,-0.18916 -2.93943,-0.22508 -0.36731,-0.0524 -0.86012,0.0862 -1.09336,-0.29288 -0.15323,-0.36832 -0.17478,-0.78207 -0.2459,-1.17358 -0.27033,-2.19583 -0.49785,-4.42343 -0.70159,-6.61008 -0.19877,-2.2018 -0.27248,-4.37813 -0.25481,-6.58875 0.079,-5.30242 0.26703,-10.6024 0.38844,-15.90372 0.0886,-4.4946 0.22988,-8.99166 0.0958,-13.4868 -0.0838,-1.94726 -0.14849,-3.92353 -0.68219,-5.81035 -0.30797,-1.18819 -0.94896,-2.26598 -1.77701,-3.16457 -0.81942,-0.85463 -1.64435,-1.75738 -2.71671,-2.29664 -1.11563,-0.58046 -2.45815,-0.39842 -3.57359,0.0814 -1.12162,0.50769 -2.06388,1.33546 -2.93107,2.19439 -1.16256,1.22626 -2.27149,2.57895 -2.82806,4.19802 -0.64534,2.18145 -1.02775,4.43206 -1.35653,6.68045 -0.35173,2.32943 -0.55862,4.67769 -0.66782,7.03041 -0.10057,2.5528 -0.40445,5.11205 -0.1676,7.66619 -0.24907,-0.0481 -0.49971,-0.14605 -0.74088,-0.23965 -0.97818,-0.4138 -1.95685,-0.88312 -2.77442,-1.57085 -1.30768,-1.27127 -2.18169,-2.9014 -3.03244,-4.49513 -1.5524,-3.11146 -2.99767,-6.29353 -4.01792,-9.62366 -0.47321,-1.46357 -0.65058,-2.9982 -0.76746,-4.5256 -0.29619,-3.69736 -0.41186,-7.36881 -0.43032,-11.07827 2.7e-4,-1.67716 -0.0172,-3.37381 0.0647,-5.02793 0.0287,-0.4602 0.0668,-0.97651 0.11976,-1.39986 0.13886,-1.143654 0.34001,-2.315316 0.52493,-3.473544 0.33879,-2.289215 0.7744,-4.591139 0.65991,-6.915835 -0.0958,-1.306239 -0.29957,-2.622894 -0.77776,-3.848342 -0.43154,-1.186267 -1.35868,-2.150803 -2.4835,-2.705912 -1.13048,-0.524642 -2.34405,-0.953041 -3.60216,-0.985849 z m -0.0338,1.074679 c 0.62974,0.0086 1.32515,0.16286 2.15104,0.456683 2.294,0.812961 3.05967,1.855076 3.5369,4.812776 0.31035,1.923561 0.18197,3.701654 -0.61494,8.562412 -0.59454,3.622399 -0.62737,4.097189 -0.62594,9.019679 0.001,5.11665 0.27443,10.81298 0.6592,13.7578 0.32256,2.46677 1.81916,6.54374 4.19965,11.44009 1.47098,3.02545 2.88174,5.12041 4.04543,6.008 0.9801,0.74711 2.93079,1.68698 3.81248,1.83664 0.42478,0.0718 0.91137,0.1676 1.0809,0.21315 0.27084,0.0718 0.28635,-0.0886 0.12931,-1.34001 -0.0982,-0.78326 -0.12449,-2.35075 -0.0596,-3.48326 0.0647,-1.1324 0.19634,-3.55903 0.29289,-5.39246 0.22989,-4.41751 1.34766,-11.0497 2.14649,-12.74237 0.95927,-2.03156 3.5647,-4.67177 5.13497,-5.20319 1.67141,-0.56581 2.51452,-0.30173 4.11984,1.29115 3.26919,3.24438 3.33174,4.0457 2.53904,32.63597 -0.23226,8.38148 -0.18197,9.81023 0.59627,16.95874 0.35316,3.24031 0.42406,3.56657 0.87521,4.01737 0.41329,0.41358 0.69203,0.49641 1.76073,0.52371 0.69799,0.018 1.69057,0.091 2.2054,0.16042 1.61777,0.2227 3.21661,-0.16042 4.71299,-1.12856 1.5706,-1.01602 2.25569,-1.82922 3.34496,-3.97206 1.89315,-3.7235 2.32489,-7.70126 1.69057,-15.57964 -0.24878,-3.08933 -0.3597,-6.52892 -0.36969,-11.47162 -0.0144,-6.95252 -0.008,-7.07654 0.44153,-8.18982 0.60725,-1.50379 1.23488,-2.20851 2.56303,-2.87902 1.58544,-0.80026 3.44578,-0.97507 4.57011,-0.42931 1.45278,0.70546 2.24682,1.53516 3.7367,3.9055 2.3553,3.74775 1.22147,3.09688 2.40638,8.68427 0.52629,2.11178 0.64986,4.23901 0.67888,6.3108 -7.9e-4,0.56631 0.10057,2.15703 0.22507,3.53503 0.37687,4.15245 -0.42335,11.84722 -1.65681,15.92663 -0.26077,0.86277 -0.97865,3.24544 -1.59454,5.29456 -2.48645,8.27205 -2.84748,9.03022 -4.98749,10.46543 a 222.36555,222.36555 0 0 0 -1.8146,1.23009 c -0.80889,0.55719 -4.00821,1.71739 -6.38305,2.31508 -0.88167,0.2227 -2.69084,0.48297 -4.02007,0.58017 -1.32923,0.0982 -2.7693,0.30532 -3.2007,0.46193 -0.43147,0.15567 -1.22603,0.34892 -1.76528,0.42766 -1.94488,0.28376 -3.50593,1.85148 -4.22286,4.23927 -1.6331,5.43882 -1.86106,8.86061 -1.20016,18.02777 0.5268,7.31218 0.73178,11.37137 0.65323,12.94192 -0.16523,3.33118 -1.88309,6.15199 -4.63938,7.62278 -0.65324,0.34864 -1.08738,0.41286 -2.64716,0.3908 -1.02631,-0.0151 -2.45762,-0.13412 -3.18128,-0.26508 -1.35317,-0.24497 -1.51912,-0.32802 -2.88362,-1.44105 -0.4408,-0.35963 -0.80169,-0.61516 -0.80169,-0.56847 0,0.0481 0.10057,0.37163 0.2227,0.72148 0.16523,0.47723 0.26702,0.57084 0.40251,0.37285 0.13413,-0.19634 0.16523,-0.16286 0.11976,0.12694 -0.11976,0.75189 -0.63793,0.40489 -1.08738,-0.72796 -0.87546,-2.20611 -1.06559,-3.36166 -0.97219,-5.9069 0.0481,-1.31198 0.18441,-4.94407 0.30337,-8.07169 a 2189.3217,2189.3217 0 0 0 0.42148,-12.2557 c 0.15087,-4.8543 0.31078,-7.23453 0.61035,-9.11839 0.2227,-1.40202 0.49088,-3.16672 0.59605,-3.92166 0.21789,-1.56102 0.38549,-27.70105 0.19634,-30.39405 -0.11258,-1.61131 -0.15805,-1.76121 -0.51653,-1.72481 -0.21551,0.0223 -2.20707,0.0862 -4.42504,0.14368 l -4.03275,0.10294 -1.35964,-0.66329 c -2.02126,-0.98656 -5.25711,-4.00308 -6.90773,-6.44048 -0.30891,-0.45668 -1.09529,-1.84527 -1.74708,-3.08556 -0.65159,-1.24014 -1.36803,-2.5641 -1.59192,-2.94158 -0.65086,-1.09815 -1.96235,-4.38084 -2.40934,-6.03065 -0.22508,-0.83524 -0.66186,-2.0955 -0.96813,-2.80113 -0.30647,-0.70546 -0.65755,-1.85268 -0.77991,-2.54928 -0.12213,-0.69634 -0.3046,-5.06081 -0.40489,-9.69833 -0.10057,-4.63752 -0.26199,-9.04961 -0.35919,-9.80458 -0.35036,-2.72561 -0.64339,-8.47072 -0.52299,-10.244564 0.15804,-2.307168 0.52586,-4.241174 1.39436,-7.311368 0.9892,-3.495123 1.93218,-5.378187 3.26244,-6.514627 0.99638,-0.851029 1.86584,-1.24613 2.91596,-1.232244 z m -0.45352,4.447151 c -0.25985,-0.0079 -0.53305,0.210705 -0.53305,0.515519 0,0.196337 0.10776,0.466237 0.23707,0.5972 0.18678,0.186782 0.29598,0.126939 0.50761,-0.276582 0.18442,-0.350575 0.20597,-0.578305 0.0697,-0.715016 a 0.40982687,0.40982687 0 0 0 -0.28232,-0.122126 z m 0.47557,5.071082 c -0.10057,0 -0.38599,0.165231 -0.63692,0.36947 -0.40683,0.329239 -0.42982,0.426006 -0.21552,0.897724 0.28635,0.628091 0.62809,0.570404 0.9868,-0.16523 0.26487,-0.542602 0.19633,-1.10103 -0.13413,-1.10103 z m -4.1557,5.70413 c -0.0862,0.0054 -0.20353,0.0625 -0.36207,0.162859 -0.33837,0.213148 -0.14131,0.800748 0.26745,0.800748 0.18916,0 0.30008,-0.1796 0.30008,-0.490373 0,-0.33355 -0.0524,-0.482042 -0.20597,-0.4722 z m 4.7502,4.295917 c -0.40302,0 -0.70783,0.4885 -0.50718,0.81319 0.20596,0.33261 0.76434,0.0814 0.82924,-0.37407 0.0453,-0.32708 -0.0359,-0.43915 -0.32235,-0.43915 z m -4.92602,2.19653 c -0.079,-2.6e-4 -0.16286,0.0359 -0.24209,0.11257 -0.13169,0.13169 -0.12213,0.33908 0.0338,0.62738 0.25071,0.4686 0.43771,0.4023 0.52773,-0.18679 0.0481,-0.3209 -0.11732,-0.55287 -0.31868,-0.55388 z m 5.29191,4.70735 c -0.30769,-0.005 -0.63836,0.49827 -0.50194,0.92885 0.17723,0.55675 0.76746,0.44562 0.85367,-0.16042 0.0359,-0.25409 -0.0309,-0.55819 -0.14849,-0.67622 -0.0625,-0.0625 -0.13169,-0.091 -0.20353,-0.091 z m -3.19962,1.14676 c -0.10058,0 -0.23707,0.0381 -0.42026,0.10776 -0.36473,0.14131 -0.40755,0.68578 -0.079,1.01387 0.31968,0.32011 0.74998,-0.0625 0.74998,-0.66638 0,-0.31588 -0.0596,-0.45453 -0.25022,-0.45525 z m 29.97182,6.26415 c -0.54979,0 -0.63671,0.1796 -0.26631,0.55144 0.30122,0.30122 0.62543,0.19878 0.70783,-0.22507 0.0453,-0.23707 -0.0767,-0.32709 -0.44131,-0.32709 z m -26.09411,1.17646 c -0.4176,0 -0.49016,0.091 -0.49016,0.60941 0,0.46092 0.0718,0.58211 0.29383,0.49662 0.16286,-0.0625 0.3005,-0.005 0.30819,0.12694 0.0194,0.33283 0.34748,-0.46789 0.36422,-0.88838 0.009,-0.23944 -0.13412,-0.34339 -0.47579,-0.34339 z m -5.12311,1.3728 c -0.51602,0.0158 -0.64583,0.52536 -0.22988,0.94107 0.31631,0.3163 0.48369,0.29669 0.62644,-0.0742 0.23225,-0.60798 0.12212,-0.86636 -0.37112,-0.86636 z m 26.51823,1.47027 c -0.74424,0 -1.05792,0.48635 -0.75046,1.16184 0.27874,0.61207 0.92334,0.66595 1.22483,0.10295 0.11975,-0.22033 0.18678,-0.59598 0.15323,-0.83307 -0.0481,-0.33018 -0.19397,-0.43104 -0.62809,-0.43104 z m 5.95326,1.66686 c -0.49353,0 -0.70804,0.49447 -0.38362,0.88527 0.31107,0.375 0.51387,0.36947 0.66308,-0.018 0.21789,-0.5694 0.12213,-0.86683 -0.27946,-0.86683 z m -25.09865,3.33389 c -0.38456,0.0194 -0.69656,0.63743 -0.48585,0.97842 0.16042,0.2615 0.36106,0.25 0.6482,-0.0381 0.37256,-0.37263 0.28592,-0.94107 -0.14367,-0.94107 z m 47.50811,0.58836 c -0.47917,0 -0.5814,0.36976 -0.20596,0.74496 0.38743,0.38743 0.70589,0.26745 0.67572,-0.25482 -0.0216,-0.36925 -0.1365,-0.49016 -0.46954,-0.49016 z m -27.08149,0.39268 c -0.11975,0.004 -0.24375,0.0668 -0.32758,0.20352 -0.15568,0.25309 0.27895,0.81152 0.51767,0.66379 0.0958,-0.0596 0.17479,-0.27873 0.17479,-0.488 0,-0.24476 -0.17723,-0.38556 -0.36401,-0.37953 z m -26.48395,0.19633 c -0.47033,0 -0.80075,0.27824 -0.80075,0.67458 0,0.73584 0.30367,0.88791 0.70805,0.3551 0.30029,-0.39605 0.35754,-1.02967 0.0934,-1.02967 z m 58.04171,0.98058 c -0.54835,0 -0.64031,0.26696 -0.25625,0.74041 0.18197,0.22507 0.3436,0.39367 0.35704,0.37399 0.0136,-0.0194 0.0838,-0.27852 0.15323,-0.57522 0.10776,-0.44899 0.0647,-0.53922 -0.25524,-0.53922 z m -26.41225,1.17646 c -0.34339,0.0144 -0.55359,0.47219 -0.39748,0.87904 0.17004,0.44088 0.71451,0.12694 0.71451,-0.40991 0,-0.29045 -0.11494,-0.46911 -0.30007,-0.46911 z m 21.66472,1.18603 c -0.20596,-0.006 -0.41975,0.0982 -0.50259,0.31271 -0.17004,0.44303 0.47457,0.92023 0.8144,0.60295 0.13412,-0.1245 0.20115,-0.38434 0.15323,-0.57615 -0.0575,-0.22033 -0.25719,-0.33384 -0.46387,-0.3398 z m -29.7766,1.6204 c -0.0814,-0.002 -0.17478,0.0172 -0.27967,0.0575 -0.41135,0.15805 -0.39698,0.59842 0.0266,0.83571 0.42292,0.23707 0.64153,0.11257 0.64153,-0.36588 0,-0.33858 -0.14368,-0.52299 -0.38937,-0.5273 z m 37.06965,0.91952 c -0.4796,0 -0.66063,0.28376 -0.50165,0.78566 0.10057,0.31681 0.19633,0.35223 0.50287,0.18678 0.20834,-0.11257 0.37931,-0.37644 0.37931,-0.58836 0,-0.25072 -0.13412,-0.38477 -0.38075,-0.38477 z m -55.665,0.20115 a 0.84796401,0.84796401 0 0 0 -0.53736,0.20115 c -0.39367,0.32686 -0.35366,0.70495 0.1245,1.18363 0.39224,0.39245 0.42335,0.39439 0.7938,0.0596 0.23707,-0.21315 0.36322,-0.54289 0.3273,-0.84936 -0.0431,-0.37213 -0.36085,-0.59576 -0.70855,-0.59361 z m 25.05739,0.38742 c -0.54856,0 -0.73561,0.57946 -0.29116,0.90444 0.45137,0.32996 0.68937,0.18441 0.68937,-0.42551 0,-0.35057 -0.10539,-0.47895 -0.39821,-0.47895 z m 25.97385,0.98058 c -0.28757,0.0122 -0.38484,0.41854 -0.14849,0.65345 0.24856,0.24856 0.45783,0.12931 0.45783,-0.26149 0,-0.21789 -0.13168,-0.39203 -0.29454,-0.39203 z m -47.33471,1.37233 c -0.50791,0 -0.72389,0.49088 -0.39174,0.89126 0.34432,0.41494 0.66738,0.25453 0.74087,-0.36753 0.0503,-0.42119 -0.018,-0.52392 -0.34913,-0.52392 z m 43.53951,1.17646 c -0.2227,0 -0.40661,0.11731 -0.40661,0.26149 0,0.60079 0.63506,0.65589 0.7495,0.0647 0.0431,-0.22033 -0.0697,-0.32708 -0.34289,-0.32708 z m -50.00292,0.58857 c -0.44799,0 -0.46099,0.0223 -0.28448,0.48255 0.14849,0.38937 0.54095,0.29188 0.62758,-0.15568 0.0431,-0.22026 -0.0697,-0.32708 -0.3431,-0.32708 z m 22.23015,1.17693 c -0.51149,0 -0.62902,0.35941 -0.24332,0.7452 0.30647,0.30646 0.44972,0.29641 0.73777,-0.0503 0.3166,-0.38147 0.0934,-0.6944 -0.49447,-0.6944 z m 36.08741,0 c -0.52227,0 -0.70639,0.33887 -0.4523,0.83308 0.21789,0.42191 0.43679,0.43319 0.82661,0.0431 0.39727,-0.39677 0.1916,-0.87617 -0.37428,-0.87617 z m -47.76181,0.61566 c -0.16523,-5.5e-4 -0.32902,0.0453 -0.42938,0.14605 -0.14849,0.14849 -0.10295,0.32831 0.16041,0.61947 0.3518,0.38887 0.38384,0.39203 0.62544,0.0625 0.1413,-0.19159 0.2227,-0.44037 0.18678,-0.55266 -0.0575,-0.17478 -0.30288,-0.27349 -0.54404,-0.27421 z m 43.17281,0.36444 c -0.2227,0 -0.40661,0.11732 -0.40661,0.2615 0,0.60079 0.63506,0.65589 0.7495,0.0647 0.0431,-0.22026 -0.0697,-0.32709 -0.34289,-0.32709 z m -25.00785,1.19805 a 1.2248968,1.2248968 0 0 0 -0.15324,0.0144 c -0.54475,0.0767 -0.66638,0.59526 -0.24087,1.02105 0.42191,0.42192 0.68003,0.23463 0.68003,-0.49353 0,-0.42141 -0.0481,-0.54548 -0.28592,-0.54189 z m -14.41269,0.24375 c -0.0934,0.002 -0.19634,0.0409 -0.29576,0.12213 -0.23226,0.19159 -0.25237,0.31703 -0.0838,0.52105 0.29361,0.35366 0.55194,0.33879 0.69727,-0.0381 0.13168,-0.34167 -0.0596,-0.60941 -0.31868,-0.60388 z m 3.99122,1.39197 c -0.0524,0 -0.14367,0.0381 -0.28857,0.11731 -0.46861,0.25072 -0.6597,0.65848 -0.50216,1.07013 0.1796,0.46717 0.499,0.34196 0.62759,-0.24547 0.0647,-0.2967 0.15323,-0.6518 0.19633,-0.78901 0.0309,-0.10295 0.0266,-0.15324 -0.0338,-0.15324 z m -13.72917,0.69612 c -0.37859,0.006 -0.46645,0.10539 -0.46645,0.50381 0,0.41042 0.0814,0.49231 0.44109,0.44109 0.28376,-0.0409 0.46387,-0.22026 0.50431,-0.50381 0.0503,-0.35919 -0.0309,-0.44109 -0.44131,-0.44109 z m 45.95963,0.6171 c -0.35898,0.004 -0.4921,0.34677 -0.20833,0.63125 0.22751,0.22744 0.7447,0.041 0.7447,-0.27033 0,-0.16042 -0.19878,-0.32012 -0.4408,-0.35467 a 0.63388328,0.63388328 0 0 0 -0.0958,-0.006 z m -39.66098,0.55912 c -0.30007,0 -0.40179,0.41523 -0.16041,0.65661 0.13168,0.13169 0.44583,-0.2227 0.45158,-0.50955 0.002,-0.0814 -0.12931,-0.14605 -0.29117,-0.14605 z m 47.96914,0.58808 c -0.47795,0 -0.65733,0.24684 -0.49181,0.67838 0.17478,0.45373 0.7483,0.28685 0.82325,-0.23944 0.0481,-0.32996 -0.0359,-0.43916 -0.33139,-0.43916 z m -34.45834,0.7847 c -0.33406,0.006 -0.47077,0.11257 -0.47077,0.35941 0,0.76004 0.83811,0.83092 0.94514,0.079 0.0503,-0.35726 -0.0309,-0.43937 -0.44109,-0.43937 z m 29.727,0.9801 c -0.38147,0 -0.5546,0.55718 -0.26344,0.8484 0.17723,0.17722 0.65561,-0.2457 0.65561,-0.57831 0,-0.14849 -0.17723,-0.27012 -0.39224,-0.27012 z m -38.55661,0.61084 c -0.20833,0.004 -0.26911,0.11495 -0.26911,0.41524 0,0.69727 0.41904,1.03948 0.73825,0.60273 0.13887,-0.1916 0.22745,-0.48061 0.19634,-0.6444 -0.0309,-0.16286 -0.25453,-0.32565 -0.49612,-0.36013 a 1.0757952,1.0757952 0 0 0 -0.17005,-0.0137 z m -5.14442,1.14365 c -0.11494,0 -0.2347,0.0668 -0.32708,0.21552 -0.18916,0.30553 0.0481,0.77511 0.39174,0.77511 0.18915,0 0.3005,-0.17959 0.3005,-0.49016 0,-0.31128 -0.17478,-0.50021 -0.36545,-0.50093 z m 47.19562,0.79931 c -0.25812,-0.004 -0.55173,0.10058 -0.62931,0.30266 -0.0647,0.17004 0.0338,0.50912 0.21789,0.75477 l 0.33714,0.44634 0.25021,-0.48276 c 0.1365,-0.26559 0.25022,-0.6046 0.25022,-0.75429 0,-0.17723 -0.19878,-0.26365 -0.42694,-0.26703 z m -29.83648,0.29023 c -0.0697,0.002 -0.14131,0.0287 -0.20352,0.0934 -0.20353,0.20352 -0.0237,0.78949 0.24209,0.78949 0.10058,0 0.23707,-0.14849 0.30697,-0.32758 0.10776,-0.2842 -0.11494,-0.56006 -0.34554,-0.5541 z m 23.79234,0.88168 c -0.37809,0 -0.53111,0.38383 -0.26149,0.65417 0.27011,0.26961 0.65373,0.11494 0.65373,-0.26171 0,-0.2615 -0.13168,-0.39225 -0.39224,-0.39225 z m -29.21741,0.39224 c -0.2495,0 -0.39225,0.13168 -0.39225,0.3597 0,0.63384 0.45956,0.84815 0.66567,0.31056 0.19878,-0.51818 0.13649,-0.67026 -0.2735,-0.67026 z m 28.10602,2.74501 c -0.14368,0 -0.261,0.17723 -0.261,0.39246 0,0.44562 0.49189,0.53377 0.65202,0.11731 0.12212,-0.3209 -0.0223,-0.50934 -0.39102,-0.50934 z m -22.84299,0.76579 c -0.25554,-0.001 -0.5462,0.15323 -0.62357,0.44971 -0.0625,0.23707 -0.0151,0.54835 0.10295,0.69153 0.17715,0.21314 0.28038,0.20115 0.57974,-0.0697 0.20115,-0.18197 0.36444,-0.4921 0.36444,-0.6911 0,-0.25625 -0.19878,-0.37952 -0.42385,-0.38075 z m 30.40538,1.19561 c -0.41573,0.0115 -0.49282,0.38887 -0.14368,0.73705 0.29454,0.29454 0.55676,0.12694 0.55676,-0.35632 0,-0.25 -0.13413,-0.38075 -0.39225,-0.38075 h -0.0201 z m -2.37781,0.65704 c -0.0668,0 -0.13887,0.0144 -0.21552,0.0431 -0.38506,0.1485 -0.42292,0.49756 -0.0886,0.83092 0.30654,0.30654 0.62644,0.19633 0.71193,-0.24548 0.0718,-0.37212 -0.11494,-0.63003 -0.40589,-0.62952 z m -32.23826,0.94227 c -0.28211,0.006 -0.38125,0.37881 -0.13412,0.62716 0.20596,0.20596 0.55143,0.0309 0.55143,-0.27924 0,-0.15087 -0.15567,-0.30482 -0.34317,-0.34146 a 0.3580593,0.3580593 0 0 0 -0.0767,-0.007 z m 26.42439,3.29694 c -0.0958,0.004 -0.19634,0.0481 -0.28377,0.13412 -0.14849,0.14849 0.2227,0.65517 0.47967,0.65517 0.0958,0 0.17242,-0.17722 0.17242,-0.39173 0,-0.25331 -0.17242,-0.40661 -0.36832,-0.39821 z m -20.32527,0.78996 c -0.57781,0 -0.83116,0.4648 -0.48248,0.88528 0.29332,0.35323 0.43557,0.36401 0.74328,0.0575 0.42457,-0.42479 0.28183,-0.94155 -0.26078,-0.94155 z m 26.79729,0.7847 c -0.47795,0 -0.65683,0.24691 -0.49139,0.67838 0.17479,0.45352 0.74831,0.28686 0.82326,-0.23944 0.0481,-0.32996 -0.0359,-0.43937 -0.33168,-0.43937 z m -31.59575,0.78399 c -0.43298,0 -0.51818,0.38334 -0.16523,0.73705 0.29454,0.29425 0.55675,0.12694 0.55675,-0.35654 0,-0.25 -0.13412,-0.38075 -0.39224,-0.38075 z m 23.04844,1.9827 a 1.2079105,1.2079105 0 0 0 -0.15323,0.0136 c -0.54454,0.079 -0.6671,0.59555 -0.24138,1.02129 0.42191,0.42169 0.68053,0.2347 0.68053,-0.49354 0,-0.42141 -0.0481,-0.54504 -0.28664,-0.54138 z m -26.74578,0.0647 c -0.11731,0.001 -0.2227,0.0287 -0.28807,0.0934 -0.312,0.31178 0.23944,0.86396 0.58017,0.58118 0.14849,-0.12213 0.26796,-0.29045 0.26796,-0.37335 0,-0.17723 -0.30366,-0.30553 -0.56035,-0.30216 z m 9.3842,1.67764 c -0.38146,0 -0.5546,0.55718 -0.26336,0.84839 0.17723,0.17723 0.65561,-0.24569 0.65561,-0.57831 0,-0.14849 -0.17723,-0.27011 -0.39225,-0.27011 z m 22.55505,1.3728 c -0.44232,0 -0.60273,0.36825 -0.36351,0.83307 0.23707,0.46049 0.69562,0.43484 0.84839,-0.0481 0.15805,-0.49684 -0.0208,-0.78566 -0.48534,-0.78566 z m -27.24972,0.58836 c -0.45137,0 -0.67716,0.29936 -0.52514,0.69562 0.13412,0.34627 0.35704,0.36301 0.67047,0.0503 0.35704,-0.35726 0.28161,-0.74519 -0.14605,-0.74519 z m 15.8603,0.19634 c -0.23944,0 -0.38075,0.13412 -0.38075,0.3597 0,0.65302 0.64174,0.88336 0.86205,0.30912 0.16042,-0.41832 -0.0194,-0.66853 -0.48132,-0.66853 z m -6.37119,0.39246 c -0.34433,0 -0.54239,0.3398 -0.40589,0.69562 0.13412,0.34892 0.64555,0.37521 0.76243,0.0381 0.1245,-0.35991 -0.0575,-0.73489 -0.35654,-0.73489 z m 9.17797,0.48585 a 0.1472142,0.1472142 0 0 0 -0.0767,0.0194 c -0.25021,0.15568 -0.0108,0.47465 0.35511,0.47465 0.24949,0 0.26127,-0.0553 0.0647,-0.29239 -0.10294,-0.1245 -0.24188,-0.20352 -0.34389,-0.20115 z m -22.48089,0.80434 c -0.0553,0.002 -0.1245,0.0596 -0.22988,0.16523 -0.15568,0.15567 -0.28068,0.41925 -0.28068,0.58879 0,0.34124 0.49569,0.4212 0.6875,0.11013 0.0668,-0.10776 0.0668,-0.37428 -0.002,-0.58929 -0.0596,-0.1916 -0.10294,-0.27874 -0.17478,-0.27587 z m 26.35887,0.11731 c -0.0742,2.9e-4 -0.15323,0.0338 -0.22752,0.10776 -0.23994,0.24016 -0.10057,0.83691 0.19634,0.83691 0.10058,0 0.23707,-0.14605 0.30625,-0.32709 0.1245,-0.32615 -0.0503,-0.61853 -0.2732,-0.61753 z m -11.02729,2.71834 c -0.10294,-5.2e-4 -0.24447,0.0381 -0.43441,0.11013 -0.36394,0.13887 -0.40805,0.68484 -0.0814,1.01099 0.26961,0.26961 0.73561,-0.2227 0.74567,-0.78734 0.004,-0.22751 -0.0575,-0.33355 -0.22989,-0.33427 z m -8.7347,0.18678 a 0.44757416,0.44757416 0 0 0 -0.30913,0.12931 c -0.17722,0.17723 0.26243,0.67673 0.47845,0.54354 0.0958,-0.0596 0.17479,-0.2347 0.17479,-0.3903 0,-0.1796 -0.16286,-0.28592 -0.34268,-0.28305 z m 3.67628,0.78518 c -0.44152,0 -0.53635,0.56251 -0.15804,0.94035 0.27248,0.27249 0.54188,-0.0216 0.54713,-0.5972 0.002,-0.21314 -0.14605,-0.3431 -0.38916,-0.3431 z m 19.81918,0 c -0.2227,0 -0.40639,0.11732 -0.40639,0.2615 0,0.60079 0.63527,0.65589 0.7495,0.0647 0.0431,-0.22034 -0.0697,-0.32709 -0.34311,-0.32709 z m -8.66622,0.13413 c -0.2107,0.0108 -0.41257,0.25122 -0.3046,0.53233 0.1365,0.35345 0.44131,0.41257 0.62235,0.11975 0.0668,-0.10776 0.0481,-0.32349 -0.041,-0.48132 -0.0718,-0.12694 -0.17479,-0.17723 -0.2773,-0.17004 z m -21.77906,0.76578 c -0.0266,8.2e-4 -0.0553,0.008 -0.091,0.0216 -0.27895,0.10775 -0.351,0.49396 -0.13168,0.71235 0.1916,0.1916 0.20834,0.17479 0.30604,-0.34095 0.0524,-0.27514 0.0287,-0.39605 -0.0814,-0.39267 z m 24.91693,0.1916 a 0.79808387,0.79808387 0 0 0 -0.17241,0.0287 c -0.43843,0.11495 -0.50762,0.45015 -0.16523,0.7938 0.31085,0.31085 0.55675,0.11731 0.55675,-0.4365 0,-0.28426 -0.0503,-0.39202 -0.22033,-0.38699 z m -21.90147,0.87258 c -0.0647,5.2e-4 -0.1245,0.0194 -0.1676,0.0625 -0.0625,0.0625 -0.0625,0.25022 0.002,0.41667 0.15086,0.39195 0.71667,0.39368 0.71667,0.002 0,-0.24447 -0.31803,-0.48348 -0.55144,-0.48175 z m 13.86455,1.56653 c -0.42601,0 -0.50331,0.57378 -0.12932,0.94849 0.19397,0.1916 0.29074,0.17723 0.4768,-0.079 0.12931,-0.17723 0.18678,-0.44447 0.12931,-0.59555 -0.0575,-0.15086 -0.27227,-0.27514 -0.47651,-0.27514 z m -5.8616,1.76456 c -0.37809,0 -0.53111,0.38362 -0.26149,0.65344 0.27011,0.2699 0.65395,0.11732 0.65395,-0.26099 0,-0.26149 -0.13168,-0.39245 -0.39224,-0.39245 z m -11.08689,1.09216 c -0.0553,0.005 -0.10058,0.10057 -0.15086,0.29813 -0.0647,0.24354 -0.0718,0.51531 -0.0158,0.60439 0.17722,0.28635 0.46911,0.17241 0.46623,-0.1796 -10e-4,-0.18915 -0.0767,-0.46092 -0.1676,-0.6051 -0.0503,-0.079 -0.0934,-0.11976 -0.12931,-0.11732 z m 5.93549,0.47989 c -0.17722,0.002 -0.33908,0.12931 -0.33908,0.35632 0,0.19878 0.0596,0.42076 0.1365,0.49497 0.20115,0.20115 0.71767,-0.38886 0.5625,-0.6398 -0.091,-0.14605 -0.22989,-0.21315 -0.35848,-0.2107 z m -3.17077,2.93833 c -0.38505,0 -0.55172,0.31803 -0.40632,0.7756 0.16523,0.52033 0.68865,0.28757 0.68865,-0.30647 0,-0.2778 -0.11494,-0.46911 -0.28233,-0.46911 z m 5.64159,2.24156 c -0.0381,0 -0.0886,0.0115 -0.14849,0.0359 -0.36257,0.13886 -0.42385,0.73561 -0.0625,0.61566 0.13412,-0.0453 0.27349,-0.22752 0.30819,-0.40776 0.0309,-0.16286 0.002,-0.2421 -0.0958,-0.2426 z m -8.08331,0.69942 c -0.28254,0 -0.41329,0.1245 -0.41329,0.39225 0,0.21788 0.13168,0.39173 0.29404,0.39173 0.16286,0 0.29382,-0.0359 0.29382,-0.0814 0,-0.0453 0.0524,-0.2227 0.11976,-0.39224 0.0862,-0.2227 0.002,-0.31013 -0.29383,-0.31013 z m 5.21748,0.78064 c -0.23706,-0.002 -0.49928,0.25409 -0.40445,0.50187 0.11013,0.28642 0.15086,0.28786 0.42601,0.0115 0.1676,-0.1676 0.24806,-0.36135 0.17722,-0.43154 v -5.5e-4 a 0.27905976,0.27905976 0 0 0 -0.19878,-0.0814 z m -4.01791,3.7561 c -0.1676,0.002 -0.23995,0.11731 -0.23995,0.36566 0,0.29526 0.10295,0.40136 0.34239,0.35488 0.18915,-0.0359 0.34339,-0.19633 0.34339,-0.35488 0,-0.15805 -0.15568,-0.31868 -0.3431,-0.3551 a 0.51767597,0.51767597 0 0 0 -0.10295,-0.0101 z m 5.26655,1.0651 c -0.15087,-5.2e-4 -0.21315,0.0838 -0.21315,0.26695 0,0.61804 0.46214,0.82111 0.66523,0.29218 0.16286,-0.42479 0.1676,-0.41545 -0.27349,-0.5309 a 0.74092375,0.74092375 0 0 0 -0.1796,-0.0287 z m -8.45052,1.70015 a 0.30952707,0.30952707 0 0 0 -0.21789,0.0958 c -0.26559,0.26559 0.003,0.83474 0.33377,0.70783 0.15323,-0.0596 0.27801,-0.22507 0.27801,-0.36803 0,-0.25525 -0.19877,-0.43721 -0.39439,-0.43463 z m 7.14446,1.13023 a 0.29523703,0.29523703 0 0 0 -0.27895,0.29404 c 0,0.16286 0.13168,0.29404 0.29454,0.29404 0.16286,0 0.29383,-0.13168 0.29383,-0.29433 0,-0.16286 -0.13169,-0.29382 -0.29383,-0.29382 h -0.0151 z m -3.60081,1.37233 c -0.45137,0 -0.67766,0.29936 -0.52586,0.69562 0.14605,0.3791 0.63815,0.36322 0.78733,-0.0266 0.19878,-0.51552 0.1365,-0.67026 -0.26149,-0.67026 z m 3.84831,2.7604 a 0.70101942,0.70101942 0 0 0 -0.22025,0.0503 c -0.17242,0.0647 -0.25051,0.2426 -0.18442,0.41645 0.1485,0.38743 0.44562,0.387 0.59455,-0.001 0.11494,-0.30101 0.0338,-0.47508 -0.18916,-0.46646 z m -7.09539,1.35748 c -0.30338,0 -0.38987,0.23225 -0.17005,0.4523 0.15568,0.15567 0.46286,-0.0208 0.46286,-0.26796 0,-0.10058 -0.13168,-0.18441 -0.29382,-0.18441 z m 4.48383,0.2107 c -0.51408,0.001 -0.66186,0.14368 -0.5273,0.49476 0.13649,0.35869 0.65129,0.35675 0.65129,-0.003 0,-0.15323 0.11013,-0.32234 0.24548,-0.37643 0.13412,-0.0553 0.0172,-0.10539 -0.2615,-0.11495 a 3.7639357,3.7639357 0 0 0 -0.10776,-0.002 z m 3.9481,2.14243 c -0.29526,0 -0.40324,0.41429 -0.17005,0.64842 0.18442,0.18197 0.46286,-0.0381 0.46286,-0.36566 0,-0.15568 -0.13168,-0.28276 -0.29382,-0.28276 z m -9.21652,3.3336 c -0.53448,0 -0.34863,0.58139 0.24548,0.76866 0.0266,0.009 0.0481,-0.16042 0.0481,-0.37644 0,-0.21789 -0.13169,-0.39224 -0.29426,-0.39224 z m 9.52199,0 c -0.24734,0 -0.42406,0.30625 -0.26746,0.46286 0.22034,0.22026 0.45187,0.13412 0.45187,-0.1676 0,-0.16286 -0.0838,-0.29454 -0.18441,-0.29454 z m -5.20802,0.39224 c -0.30625,0 -0.38887,0.23226 -0.16286,0.45762 0.22507,0.22507 0.45783,0.14367 0.45783,-0.16286 0,-0.16286 -0.13168,-0.29433 -0.29425,-0.29433 z m 1.86417,4.70626 c -0.11013,0.005 -0.19634,0.091 -0.19634,0.19634 0,0.10776 0.0381,0.19633 0.0862,0.19633 0.0481,0 0.14131,-0.0886 0.20834,-0.19633 0.0668,-0.10776 0.0287,-0.19634 -0.0862,-0.19634 h -0.0108 z m 2.64608,0 c -0.54742,0 -0.57658,0.0596 -0.29117,0.59382 0.2426,0.45352 0.78159,0.29979 0.78159,-0.2227 0,-0.2653 -0.14131,-0.37119 -0.49037,-0.37119 z m -9.21599,0.19634 c -0.29548,0 -0.40324,0.41429 -0.17005,0.64842 0.18197,0.18197 0.46286,-0.0381 0.46286,-0.36566 0,-0.15568 -0.13168,-0.28284 -0.29382,-0.28284 z m 3.23844,2.79113 c -0.35367,-0.005 -0.47342,0.43628 -0.0742,0.83643 0.32162,0.32162 0.3477,0.31558 0.50503,-0.11013 0.11257,-0.30554 0.0862,-0.49857 -0.0862,-0.60726 -0.12931,-0.0814 -0.24691,-0.11976 -0.34627,-0.11976 z m -3.23852,0.34404 c -0.16285,0 -0.29454,0.13168 -0.29454,0.29454 0,0.16286 0.13169,0.29382 0.29454,0.29382 0.16286,0 0.29383,-0.13168 0.29383,-0.29382 0,-0.16286 -0.13168,-0.29454 -0.29383,-0.29454 z m 8.60773,2.75363 c -0.25841,0.005 -0.31969,0.17723 -0.18679,0.52249 0.12694,0.33046 0.15324,0.32802 0.42601,-0.0409 0.25833,-0.34986 0.25546,-0.39964 -0.0287,-0.45876 a 0.96228417,0.96228417 0 0 0 -0.2107,-0.0237 z m -8.47561,0.21315 c -0.33549,0.0101 -0.29117,0.50719 0.11257,0.74256 0.45833,0.26703 0.44849,0.2732 0.37184,-0.22989 -0.0359,-0.2426 -0.21315,-0.46932 -0.39131,-0.50431 a 0.42061174,0.42061174 0 0 0 -0.0934,-0.009 z m 5.05328,3.30774 c -0.24734,0.009 -0.38125,0.13413 -0.38125,0.3592 0,0.7452 0.64052,0.80219 0.74878,0.0668 0.0481,-0.32011 -0.0381,-0.4255 -0.3431,-0.4255 z"
   fill="#ffffff"
   id="path37"
   style="stroke-width:0.269624" />
</svg>
