<?xml version="1.0" encoding="UTF-8" standalone="no"?>
<svg
   xml:space="preserve"
   version="1.1"
   id="svg39"
   viewBox="0 0 2351 400"
   sodipodi:docname="cactus_1.svg"
   inkscape:version="1.1 (c4e8f9e, 2021-05-24)"
   xmlns:inkscape="http://www.inkscape.org/namespaces/inkscape"
   xmlns:sodipodi="http://sodipodi.sourceforge.net/DTD/sodipodi-0.dtd"
   xmlns="http://www.w3.org/2000/svg"
   xmlns:svg="http://www.w3.org/2000/svg"><defs
   id="defs7" /><sodipodi:namedview
   id="namedview5"
   pagecolor="#505050"
   bordercolor="#ffffff"
   borderopacity="1"
   inkscape:pageshadow="0"
   inkscape:pageopacity="0"
   inkscape:pagecheckerboard="1"
   showgrid="false"
   inkscape:zoom="0.32573218"
   inkscape:cx="999.28721"
   inkscape:cy="386.82085"
   inkscape:window-width="1792"
   inkscape:window-height="982"
   inkscape:window-x="0"
   inkscape:window-y="25"
   inkscape:window-maximized="1"
   inkscape:current-layer="svg39" />
    <path
   d="m 417.9381,379.90213 c -3.02852,-0.10321 -6.09828,-0.25581 -9.02776,-1.07689 -0.97168,-0.30121 -1.84228,-0.85203 -2.64066,-1.47094 -0.23107,0.95105 -1.39873,1.54108 -2.26107,1.00263 -1.2605,-0.77775 -1.74119,-2.28995 -2.27345,-3.59377 -1.11402,-2.81395 -1.81545,-5.80739 -1.81751,-8.84415 -0.0247,-3.5814 0.22693,-7.15867 0.32596,-10.73593 0.49512,-12.77832 0.91391,-25.56284 1.34508,-38.35147 0.21868,-5.59077 0.45387,-11.20217 1.42349,-16.7228 0.33008,-2.28583 0.75919,-4.56339 0.98405,-6.86159 0.27232,-7.03282 0.30121,-14.06977 0.38579,-21.10672 0.0929,-12.39253 0.20217,-24.78507 0.0598,-37.17553 -0.031,-2.00526 -0.0639,-4.0167 -0.33626,-6.00339 -5.80121,0.23106 -11.6086,0.3404 -17.41186,0.50132 -2.17029,-1.06451 -4.40867,-2.03619 -6.32727,-3.52982 a 53.708551,53.708551 0 0 1 -10.08402,-9.81789 c -1.94748,-2.43024 -3.32558,-5.24419 -4.82127,-7.96118 -1.31002,-2.5045 -2.67573,-4.98012 -4.03113,-7.45987 A 82.526817,82.526817 0 0 1 357.1245,189.7189 c -0.67461,-2.53958 -1.59471,-5.00693 -2.59114,-7.43511 -0.73237,-2.06921 -1.3616,-4.20855 -1.40698,-6.4201 -0.61891,-10.38109 -0.63541,-20.78695 -1.03151,-31.17835 -0.12385,-2.94394 -0.17948,-5.94768 -0.57351,-8.89161 a 201.63503,201.63503 0 0 1 -0.92836,-16.7847 c -0.0557,-6.73574 1.58439,-13.33945 3.49268,-19.753367 1.17592,-3.754689 2.49625,-7.593961 5.02757,-10.671981 1.56377,-1.784508 3.51745,-3.344148 5.81771,-4.035258 2.83458,-0.82108 5.80119,0.07839 8.44185,1.140847 2.18681,0.866466 4.17761,2.40135 5.20293,4.559265 1.13467,2.335333 1.55552,4.942985 1.85672,7.501125 0.39196,4.418979 -0.35897,8.829709 -0.99025,13.188859 -0.46006,3.012 -1.01706,6.05495 -1.37809,9.02982 a 51.946735,51.946735 0 0 0 -0.27233,3.21005 106.03901,106.03901 0 0 0 -0.11352,4.74082 c -0.0742,9.18866 0.12385,18.3629 0.80664,27.49793 0.262,3.05326 0.47861,6.19523 1.34095,9.1866 a 57.386908,57.386908 0 0 0 1.07484,3.52982 c 2.07539,6.08797 4.72843,11.9655 7.61047,17.711 1.70198,3.23481 3.49887,6.48818 6.01781,9.16804 0.41054,0.43942 1.03151,0.94898 1.41729,1.2213 a 27.726931,27.726931 0 0 0 4.53864,2.4715 c 0.58177,0.25168 1.36365,0.56526 2.05682,0.74887 0.59002,0.14854 1.19242,0.23312 1.78863,0.35071 -0.54256,-3.92385 -0.36102,-7.89516 -0.10731,-11.83551 0.31564,-5.38447 0.46831,-10.78545 1.16974,-16.13897 0.68904,-5.40511 1.51012,-10.81021 2.9171,-16.07915 0.52813,-2.14141 1.61327,-4.09303 2.93155,-5.84659 2.04238,-2.71286 4.44992,-5.21531 7.3237,-7.05552 1.60502,-0.98405 3.49888,-1.56376 5.3886,-1.51837 2.41373,0.11353 4.33852,1.80102 5.98274,3.4081 1.93305,1.85671 3.7712,3.94035 4.67067,6.51088 1.29145,3.56283 1.49982,7.39384 1.7123,11.14441 0.33834,7.95911 0.14029,15.93061 0,23.89179 -0.24137,11.92629 -0.64779,23.84845 -0.89535,35.77681 -0.0639,3.69899 -0.0598,7.43098 0.11763,11.0784 0.24757,4.93061 0.79426,9.79726 1.32033,14.71548 0.25995,2.16205 0.41261,4.35297 0.88709,6.51913 0.20012,1.00882 1.14292,1.79482 2.17649,1.78658 2.2425,0.10321 4.48706,0.19805 6.71512,0.491 3.30701,0.28882 6.5707,-0.95105 9.19692,-2.90266 2.04652,-1.37192 3.56076,-3.37716 4.70574,-5.53302 a 34.493622,34.493622 0 0 0 4.15285,-12.05008 49.429856,49.429856 0 0 0 0.45386,-4.25393 c 0.41673,-6.46549 -0.11352,-12.88353 -0.59414,-19.33665 -0.65398,-10.17685 -0.59828,-20.38259 -0.5694,-30.57389 0.0701,-2.28788 -0.0742,-4.63146 0.5694,-6.85127 0.85202,-2.51895 2.1414,-5.05645 4.41897,-6.56864 2.90472,-1.95162 6.4985,-3.06152 10.00563,-2.60972 2.05064,0.28057 3.86403,1.4338 5.42985,2.72938 2.46324,2.21361 4.15079,5.11214 5.8796,7.89721 1.28526,2.12079 2.42817,4.40248 2.68605,6.90285 0.35071,3.18118 0.74269,6.36234 1.42348,9.49194 1.12847,4.49119 1.45237,9.13297 1.50394,13.75 0.031,1.46474 0.13822,2.94805 0.24756,4.45611 0.262,2.92948 0.47861,5.86722 0.40023,8.80908 a 126.22355,126.22355 0 0 1 -2.31265,21.63484 c -0.82521,4.29314 -2.28169,8.42537 -3.49681,12.61535 -1.78451,5.81152 -3.40809,11.67667 -5.50412,17.38503 -1.02944,2.71905 -2.31058,5.51031 -4.67273,7.33402 -1.81752,1.39047 -3.76089,2.61178 -5.65266,3.90323 -2.35184,1.32445 -4.93681,2.17648 -7.47844,3.06358 -3.2018,1.06451 -6.45105,2.04238 -9.80964,2.45498 -3.54426,0.56528 -7.17516,0.51163 -10.67197,1.35541 -1.59266,0.56732 -3.26576,0.82933 -4.91411,1.16559 -3.03263,0.8149 -5.21531,3.44524 -6.34584,6.27158 -0.48274,1.16354 -0.74268,2.26518 -1.10784,3.48237 -1.15735,4.08476 -2.02176,8.40884 -2.33121,12.70199 -0.55701,7.51556 0.006,15.05176 0.5075,22.55288 0.54464,7.97768 1.16768,15.95536 1.34922,23.95162 0.12373,3.70724 -0.49512,7.48461 -2.17854,10.81638 -1.88147,3.79183 -5.05439,6.98538 -8.94318,8.70181 -1.60503,0.6189 -3.37303,0.49512 -5.05852,0.5075 z"
   id="path35"
   style="stroke-width:2.06302" />
    <path
   d="m 367.45403,83.120816 c -3.13784,-0.113467 -6.04256,1.553452 -8.2108,3.705177 -2.98518,2.952175 -4.55926,6.966804 -5.8342,10.888597 -2.00732,6.46549 -3.73406,13.11252 -3.91561,19.91841 -0.0206,6.09828 0.35071,12.19243 0.92218,18.26182 0.18566,1.44824 0.30532,2.99344 0.38371,4.39423 0.5075,10.61421 0.53226,21.27382 1.01913,31.90453 0.16917,2.26932 0.0785,4.57577 0.59003,6.80589 0.63334,3.10071 2.1249,5.92085 3.03676,8.93698 a 82.747559,82.747559 0 0 0 3.80213,10.65548 c 0.9263,2.26107 2.16204,4.36947 3.32558,6.51088 1.91448,3.46999 3.61853,7.0679 5.83833,10.36046 a 53.731243,53.731243 0 0 0 10.63486,10.86591 c 2.21361,1.82371 4.84189,3.01613 7.40622,4.25393 5.5557,-0.14853 11.11141,-0.26819 16.66504,-0.47448 0.0929,0.92422 0.13822,1.85051 0.16711,2.77887 0.17329,9.4383 0.11552,18.87866 0.0639,28.31695 -0.0826,9.96437 -0.099,19.92874 -0.38991,29.89105 0.0124,2.7273 -0.53433,5.40716 -0.92836,8.09527 -0.90773,5.09152 -1.25431,10.26144 -1.46268,15.4231 -0.4683,12.61947 -0.84171,25.24719 -1.33477,37.85634 -0.1279,4.07445 -0.35484,8.10559 -0.42498,12.18417 a 25.032632,25.032632 0 0 0 1.42967,9.26294 c 0.71174,1.768 1.20274,3.7877 2.73144,5.05439 0.97993,0.94485 2.64272,0.90979 3.60821,-0.0392 a 8.9906224,8.9906224 0 0 0 1.54726,0.79632 c 3.15848,1.02739 6.51913,1.15942 9.8117,1.28526 1.6958,-0.006 3.43905,0.0846 5.07502,-0.44355 3.14816,-1.23161 5.8631,-3.45968 7.90548,-6.13334 2.87791,-3.72993 4.26631,-8.45424 4.32615,-13.13316 -0.0783,-7.11534 -0.5921,-14.21418 -1.07484,-21.31095 -0.49513,-7.5981 -1.18005,-15.11779 -0.98613,-22.73031 0.0413,-1.52663 0.1341,-3.17085 0.25376,-4.58814 0.41879,-4.70987 1.473,-9.34134 2.8676,-13.85316 0.85201,-2.82839 2.68192,-5.62584 5.55982,-6.6821 1.53489,-0.43324 3.1399,-0.59416 4.66448,-1.08103 0.82108,-0.295 1.78863,-0.46831 2.57876,-0.59621 2.23013,-0.34658 4.48707,-0.46005 6.7275,-0.71174 a 47.965116,47.965116 0 0 0 9.96437,-2.10841 c 3.19355,-1.04388 6.42629,-2.06301 9.40116,-3.6474 a 115.72899,115.72899 0 0 0 5.45049,-3.68455 c 2.48593,-1.67929 4.07239,-4.34058 5.16372,-7.07614 2.12491,-5.41955 3.67836,-11.03713 5.38447,-16.59697 1.244,-4.30963 2.70462,-8.55119 3.74644,-12.92066 1.64629,-7.6084 2.51688,-15.37978 2.717,-23.16148 0.17742,-4.13841 -0.35484,-8.25206 -0.57765,-12.37809 -0.1093,-3.4308 -0.14442,-6.87603 -0.6189,-10.28414 -0.27026,-2.3931 -0.91392,-4.71399 -1.35128,-7.07614 a 99.913914,99.913914 0 0 1 -0.93867,-6.70893 c -0.1671,-2.52925 -1.08928,-4.94092 -2.35391,-7.1174 -1.68961,-2.80364 -3.34621,-5.67535 -5.59489,-8.08084 -1.69167,-1.76593 -3.79595,-3.2348 -6.1808,-3.86814 -3.74437,-0.81284 -7.70536,0.19804 -10.94429,2.14553 -2.42611,1.34302 -4.08684,3.72168 -5.0874,6.25713 -1.15116,2.50656 -1.08308,5.31432 -1.11815,8.01069 -0.0413,11.08458 -0.12385,22.18566 0.71586,33.24549 0.43324,5.91467 0.83553,11.81696 0.40022,17.69449 -0.29088,4.24568 -1.18004,8.47281 -2.95011,12.35746 -1.17179,2.46943 -2.40341,5.00695 -4.40866,6.92142 -2.53957,2.29614 -5.84452,3.99193 -9.33928,3.89909 -2.01762,-0.19392 -4.03525,-0.39196 -6.06526,-0.46417 -0.75712,-0.1093 -1.77419,0.17742 -2.25488,-0.60446 -0.31563,-0.75919 -0.35895,-1.61328 -0.5075,-2.42198 -0.55702,-4.53039 -1.02531,-9.12472 -1.44618,-13.63653 a 138.1024,138.1024 0 0 1 -0.52606,-13.59321 c 0.16504,-10.93811 0.55082,-21.8721 0.80251,-32.80815 0.18155,-9.27325 0.4745,-18.55063 0.19599,-27.82388 -0.17123,-4.0167 -0.30533,-8.09528 -1.40697,-11.98613 -0.63542,-2.45292 -1.95781,-4.67479 -3.66599,-6.52944 -1.69167,-1.76388 -3.39159,-3.62472 -5.60521,-4.73875 -2.30027,-1.19655 -5.0709,-0.82109 -7.37116,0.16917 -2.3147,1.048 -4.25806,2.75412 -6.04669,4.52626 -2.39929,2.52926 -4.68718,5.32258 -5.83421,8.66053 -1.33271,4.5015 -2.12079,9.14329 -2.79952,13.78095 a 140.85652,140.85652 0 0 0 -1.37809,14.50507 c -0.20631,5.26687 -0.83345,10.54613 -0.34452,15.81506 -0.51576,-0.099 -1.03151,-0.30119 -1.52869,-0.49511 -2.01763,-0.85203 -4.03733,-1.82165 -5.72487,-3.23894 -2.69637,-2.62416 -4.49944,-5.98687 -6.25507,-9.27325 -3.2018,-6.42012 -6.18492,-12.98463 -8.28919,-19.85447 -0.97581,-3.02026 -1.34097,-6.18492 -1.58234,-9.33721 -0.61271,-7.62697 -0.84997,-15.20029 -0.8871,-22.85408 0,-3.45968 -0.0372,-6.96062 0.13204,-10.37284 0.0598,-0.949 0.13822,-2.01352 0.24756,-2.88823 0.28676,-2.35803 0.70142,-4.77588 1.08308,-7.16485 0.69731,-4.72431 1.59678,-9.47131 1.3616,-14.26782 -0.19805,-2.694299 -0.61891,-5.411291 -1.60503,-7.938484 -0.89123,-2.4488 -2.80365,-4.437547 -5.12454,-5.582521 -2.33121,-1.083084 -4.83571,-1.966053 -7.43098,-2.034134 z m -0.0701,2.217742 c 1.29971,0.01856 2.7335,0.336273 4.43549,0.942799 4.73462,1.677232 6.31283,3.826893 7.29895,9.927232 0.63953,3.969241 0.37546,7.637281 -1.26876,17.665601 -1.22749,7.47225 -1.29557,8.45218 -1.29144,18.60841 0,10.55438 0.56526,22.30738 1.36158,28.3809 0.66429,5.08947 3.75057,13.50037 8.66261,23.6009 3.03263,6.24268 5.94355,10.56265 8.34489,12.3946 2.02176,1.54313 6.04465,3.48031 7.86629,3.78976 0.87471,0.14853 1.87941,0.34658 2.22805,0.43942 0.55908,0.14854 0.5921,-0.18155 0.2682,-2.76444 -0.20218,-1.61534 -0.25788,-4.84809 -0.12373,-7.18548 0.1341,-2.33534 0.4064,-7.34434 0.60445,-11.12584 0.4745,-9.11235 2.78095,-22.79633 4.42931,-26.28695 1.97843,-4.18999 7.35258,-9.63841 10.59358,-10.73387 3.4473,-1.16767 5.18642,-0.62304 8.49963,2.66335 6.744,6.69242 6.8719,8.34695 5.23593,67.32858 -0.47862,17.2922 -0.37547,20.23818 1.23162,34.98668 0.72824,6.68418 0.87472,7.35671 1.80514,8.28714 0.85202,0.85408 1.4276,1.02531 3.6309,1.08102 1.44205,0.0372 3.48857,0.18566 4.55102,0.33008 3.33795,0.46005 6.63672,-0.33008 9.72299,-2.32708 3.23893,-2.09603 4.65417,-3.77532 6.90079,-8.19431 3.90529,-7.68266 4.79651,-15.88934 3.48649,-32.14177 -0.51162,-6.37473 -0.74267,-13.46944 -0.76332,-23.66692 -0.0269,-14.34208 -0.0144,-14.5979 0.91186,-16.8961 1.25432,-3.10071 2.54782,-4.55514 5.28751,-5.93737 3.27194,-1.6504 7.10915,-2.0135 9.42799,-0.88709 2.99756,1.4565 4.63559,3.16674 7.70948,8.05814 4.86047,7.73218 2.521,6.38916 4.96568,17.91523 1.08514,4.35709 1.34096,8.74513 1.40079,13.01763 -0.002,1.16974 0.2063,4.45199 0.46418,7.29482 0.77569,8.56564 -0.87472,24.44055 -3.41842,32.85559 -0.53844,1.78039 -2.0197,6.69655 -3.29051,10.92367 -5.12866,17.06527 -5.87341,18.62903 -10.28825,21.58946 a 458.74455,458.74455 0 0 0 -3.74439,2.5375 c -1.66897,1.15117 -8.26856,3.54428 -13.16822,4.77795 -1.81958,0.45799 -5.54952,0.99644 -8.29333,1.19655 -2.7438,0.20218 -5.71455,0.62923 -6.60164,0.95312 a 22.713803,22.713803 0 0 1 -3.64329,0.8809 c -4.01257,0.5859 -7.23294,3.82071 -8.71212,8.74719 -3.3689,11.21868 -3.83721,18.27832 -2.47561,37.18999 1.08721,15.08683 1.51012,23.46061 1.34715,26.69954 -0.34041,6.87397 -3.88466,12.69168 -9.5724,15.72637 -1.34509,0.71999 -2.24043,0.85202 -5.45873,0.80457 -2.11873,-0.0288 -5.0709,-0.27437 -6.56452,-0.54463 -2.79126,-0.50543 -3.13372,-0.67666 -5.94768,-2.9728 -0.90979,-0.74268 -1.65454,-1.26876 -1.65454,-1.17386 0,0.099 0.2063,0.76744 0.46006,1.4895 0.34039,0.98405 0.55082,1.17592 0.82932,0.7695 0.27645,-0.40642 0.34247,-0.33627 0.24757,0.262 -0.24757,1.55139 -1.31621,0.83553 -2.2425,-1.50187 -1.8072,-4.55102 -2.19918,-6.93586 -2.00525,-12.18623 0.099,-2.70668 0.3796,-10.19956 0.62509,-16.65267 a 4516.6057,4516.6057 0 0 0 0.86853,-25.28431 c 0.31152,-10.01389 0.6416,-14.92386 1.25845,-18.81058 0.46005,-2.89235 1.015,-6.53358 1.23161,-8.09115 0.44974,-3.2183 0.79426,-57.14554 0.40436,-62.7033 -0.23107,-3.32352 -0.32596,-3.63091 -1.06452,-3.5587 -0.44561,0.0475 -4.55308,0.17947 -9.12885,0.29707 l -8.32013,0.2125 -2.80571,-1.36779 c -4.16936,-2.03619 -10.84527,-8.25824 -14.25131,-13.28582 -0.63542,-0.94279 -2.259,-3.80833 -3.60409,-6.36647 -1.34302,-2.55813 -2.8222,-5.28957 -3.28433,-6.06939 -1.34095,-2.26519 -4.04763,-9.036 -4.9698,-12.43998 a 50.741934,50.741934 0 0 0 -1.99699,-5.78057 c -0.63335,-1.45443 -1.35747,-3.82071 -1.60916,-5.25863 -0.25169,-1.43585 -0.62922,-10.43885 -0.83552,-20.00712 -0.2063,-9.56828 -0.54051,-18.6703 -0.74062,-20.22788 -0.72205,-5.62171 -1.32652,-17.47374 -1.07896,-21.13353 0.32596,-4.76143 1.08515,-8.75131 2.87584,-15.08477 2.04239,-7.210237 3.98781,-11.094897 6.73163,-13.438482 2.05476,-1.755626 3.84958,-2.570518 6.01575,-2.543699 z m -0.9366,9.174231 a 1.0892723,1.0892723 0 0 0 -1.09959,1.064516 2.0217553,2.0217553 0 0 0 0.48893,1.231621 c 0.38579,0.385784 0.61066,0.262003 1.04802,-0.571455 0.37959,-0.722056 0.42498,-1.192424 0.1444,-1.475057 a 0.84583643,0.84583643 0 0 0 -0.58382,-0.251688 z m 0.98199,10.461551 c -0.20629,0 -0.79632,0.3404 -1.31413,0.76332 -0.83966,0.67873 -0.8871,0.87884 -0.44562,1.85052 0.59209,1.29558 1.29557,1.17592 2.0362,-0.34039 0.54669,-1.11816 0.40642,-2.26932 -0.27645,-2.26932 z m -8.57389,11.76745 c -0.17742,0.0124 -0.41879,0.12997 -0.74681,0.33626 -0.6973,0.43943 -0.29088,1.65248 0.55289,1.65248 0.3899,0 0.6189,-0.37134 0.6189,-1.01088 0,-0.68904 -0.1093,-0.99437 -0.42498,-0.97581 z m 9.79932,8.86271 c -0.83139,0 -1.45855,1.00881 -1.04595,1.67723 0.42499,0.68698 1.57821,0.16917 1.71231,-0.77157 0.0929,-0.6746 -0.0742,-0.90566 -0.66636,-0.90566 z m -10.16242,4.53245 a 0.72411851,0.72411851 0 0 0 -0.49924,0.23105 c -0.27026,0.27232 -0.25169,0.70143 0.0701,1.29558 0.51575,0.96549 0.9036,0.82932 1.08928,-0.38579 0.099,-0.66016 -0.24344,-1.14084 -0.65811,-1.1429 z m 10.91749,9.71061 c -0.63334,-0.01 -1.31621,1.02738 -1.03563,1.91654 0.36721,1.14909 1.58439,0.92011 1.76181,-0.33008 0.0742,-0.52607 -0.0619,-1.15323 -0.30739,-1.39666 a 0.58383345,0.58383345 0 0 0 -0.41879,-0.18567 z m -6.60165,2.36628 c -0.2063,0 -0.48687,0.0783 -0.86647,0.2228 -0.75093,0.29089 -0.83964,1.41317 -0.16298,2.09191 0.66016,0.66016 1.54726,-0.12998 1.54726,-1.37604 0,-0.65191 -0.12373,-0.93661 -0.51574,-0.93867 z m 61.83271,12.92273 c -1.13466,0 -1.31208,0.37135 -0.54877,1.13672 0.62097,0.62303 1.29145,0.4126 1.46061,-0.46418 0.0929,-0.48893 -0.15884,-0.67461 -0.90979,-0.67461 z m -53.83234,2.42817 c -0.86027,0 -1.01087,0.18566 -1.01087,1.25637 0,0.94899 0.14853,1.20068 0.60652,1.02532 0.33627,-0.12996 0.6189,-0.01 0.63542,0.25994 0.0413,0.68699 0.71792,-0.96342 0.75093,-1.83195 0.0206,-0.49513 -0.27645,-0.70762 -0.97993,-0.70762 z m -10.56882,2.83045 c -1.06452,0.033 -1.33271,1.08515 -0.4745,1.94131 0.65397,0.65397 0.9985,0.61271 1.29352,-0.15266 0.47861,-1.25432 0.25167,-1.78658 -0.76539,-1.78658 z m 54.70705,3.03263 c -1.53489,0 -2.18061,1.0047 -1.54727,2.39723 0.57559,1.26256 1.90417,1.37397 2.5272,0.2125 0.24755,-0.45387 0.38578,-1.22957 0.31563,-1.7185 -0.099,-0.68079 -0.40022,-0.8871 -1.29556,-0.8871 z m 12.28319,3.43905 c -1.01913,0 -1.46061,1.0212 -0.79219,1.82784 0.64159,0.77363 1.06038,0.76332 1.36777,-0.0372 0.44974,-1.17592 0.25169,-1.78864 -0.57764,-1.78864 z m -51.77963,6.8781 c -0.79427,0.0413 -1.43792,1.31621 -1.00263,2.01969 0.33008,0.53845 0.74475,0.51576 1.33684,-0.0783 0.7695,-0.76951 0.59002,-1.9413 -0.29501,-1.9413 z m 98.00975,1.21511 c -0.98818,0 -1.19862,0.76332 -0.42499,1.53695 0.80045,0.79839 1.4565,0.55083 1.3946,-0.52606 -0.0454,-0.76332 -0.28263,-1.01089 -0.96961,-1.01089 z m -55.86854,0.80871 a 0.82520628,0.82520628 0 0 0 -0.67666,0.42085 c -0.32184,0.52194 0.57558,1.67312 1.06865,1.36984 0.19804,-0.12372 0.36101,-0.57558 0.36101,-1.00674 0,-0.50545 -0.36721,-0.79634 -0.75093,-0.78395 z m -54.6369,0.40642 c -0.96961,0 -1.65247,0.57351 -1.65247,1.39047 0,1.51837 0.62715,1.83195 1.46061,0.73237 0.61891,-0.81695 0.73855,-2.12491 0.19186,-2.12491 z m 119.7395,2.02174 c -1.13053,0 -1.32034,0.55084 -0.52813,1.52664 0.37547,0.46625 0.70968,0.81283 0.73649,0.77363 0.0288,-0.0413 0.1733,-0.57558 0.31564,-1.1883 0.22281,-0.92629 0.1341,-1.11197 -0.52607,-1.11197 z m -54.48837,2.42818 c -0.70762,0.0288 -1.14086,0.97374 -0.81902,1.81339 0.35071,0.90772 1.47299,0.262 1.47299,-0.84584 0,-0.59828 -0.23725,-0.96962 -0.61891,-0.96962 z m 44.69523,2.44674 a 1.052138,1.052138 0 0 0 -1.0377,0.64366 c -0.35071,0.91597 0.97994,1.89797 1.68136,1.244 0.27645,-0.25582 0.41261,-0.79221 0.31564,-1.1883 -0.11962,-0.45386 -0.53019,-0.68905 -0.95724,-0.70143 z m -61.43042,3.34208 a 1.5307576,1.5307576 0 0 0 -0.57765,0.11962 c -0.84582,0.32596 -0.81695,1.23368 0.0557,1.72262 0.87266,0.48893 1.32445,0.23311 1.32445,-0.75507 0,-0.6973 -0.29706,-1.0769 -0.80457,-1.08721 z m 76.47599,1.89797 c -0.99024,0 -1.36159,0.58384 -1.03563,1.61947 0.2063,0.65398 0.40641,0.72824 1.0377,0.38579 0.43116,-0.23107 0.78395,-0.7757 0.78395,-1.21305 0,-0.51782 -0.27852,-0.79427 -0.78602,-0.79427 z m -114.83777,0.41261 a 1.7494373,1.7494373 0 0 0 -1.10784,0.41673 c -0.81282,0.67461 -0.7303,1.45442 0.25582,2.44261 0.8087,0.8087 0.87265,0.81282 1.63804,0.12373 0.48893,-0.44149 0.74887,-1.12228 0.6746,-1.75357 -0.0887,-0.76744 -0.74268,-1.22955 -1.46062,-1.22542 z m 51.69299,0.80045 c -1.13054,0 -1.51631,1.19655 -0.59828,1.86702 0.92836,0.6808 1.42142,0.3796 1.42142,-0.87884 0,-0.72205 -0.21868,-0.98818 -0.82314,-0.98818 z m 53.58477,2.02175 c -0.59208,0.0269 -0.79426,0.86646 -0.30532,1.34922 0.51162,0.51368 0.94485,0.26819 0.94485,-0.53845 0,-0.44974 -0.27231,-0.80871 -0.60858,-0.80871 z m -97.65285,2.83253 c -1.04594,0 -1.49156,1.01293 -0.80664,1.83814 0.70968,0.85615 1.37604,0.52607 1.52663,-0.75713 0.10321,-0.86853 -0.0351,-1.08101 -0.71999,-1.08101 z m 89.8237,2.42816 c -0.46005,0 -0.83964,0.24137 -0.83964,0.53845 0,1.23781 1.31001,1.35334 1.54726,0.1341 0.0887,-0.45387 -0.14441,-0.67461 -0.70762,-0.67461 z m -103.15697,1.21306 c -0.92423,0 -0.94899,0.0475 -0.5859,0.99644 0.30533,0.80456 1.11403,0.60239 1.29352,-0.32184 0.0887,-0.45386 -0.14442,-0.6746 -0.70762,-0.6746 z m 45.86084,2.42816 c -1.0542,0 -1.29764,0.7427 -0.50132,1.53696 0.63129,0.63334 0.92836,0.61271 1.52252,-0.10321 0.6519,-0.78601 0.19185,-1.43173 -1.0212,-1.43173 z m 74.45012,0 c -1.07897,0 -1.45857,0.69937 -0.93455,1.7185 0.44973,0.87059 0.90153,0.89328 1.70611,0.0887 0.81902,-0.81696 0.3961,-1.80721 -0.77156,-1.80721 z m -98.53376,1.27083 c -0.3404,0 -0.68081,0.0929 -0.8871,0.30119 -0.30533,0.30532 -0.21043,0.67668 0.33008,1.27908 0.72825,0.80044 0.79426,0.80663 1.29145,0.1279 0.29294,-0.39609 0.46005,-0.90772 0.38578,-1.14085 -0.11763,-0.36103 -0.6251,-0.5632 -1.12228,-0.56526 z m 89.06657,0.75093 c -0.46005,0 -0.83965,0.24344 -0.83965,0.54052 0,1.2378 1.31002,1.35334 1.54727,0.13203 0.0887,-0.45387 -0.14442,-0.67461 -0.70762,-0.67461 z m -51.59189,2.47149 a 2.5271942,2.5271942 0 0 0 -0.31565,0.031 c -1.12434,0.15679 -1.37603,1.2275 -0.49718,2.10428 0.87059,0.87266 1.40284,0.4848 1.40284,-1.01707 0,-0.86853 -0.099,-1.12434 -0.59001,-1.11816 z m -29.73425,0.50338 a 1.0129407,1.0129407 0 0 0 -0.61066,0.25168 c -0.47861,0.39611 -0.51987,0.65398 -0.17122,1.07484 0.60446,0.73031 1.13672,0.69936 1.43792,-0.0785 0.27025,-0.70555 -0.12373,-1.25844 -0.6581,-1.24606 z m 8.23349,2.87171 c -0.10731,0 -0.295,0.0785 -0.59415,0.24138 -0.96755,0.51782 -1.36158,1.35953 -1.03563,2.20743 0.37134,0.96548 1.02944,0.70555 1.29352,-0.50544 0.1341,-0.61272 0.31563,-1.34509 0.4064,-1.62772 0.0619,-0.21249 0.0536,-0.31565 -0.0701,-0.31565 z m -28.32313,1.43587 c -0.77982,0.0124 -0.96137,0.21868 -0.96137,1.03976 0,0.84584 0.1671,1.015 0.90772,0.90979 a 1.1490997,1.1490997 0 0 0 1.04183,-1.03976 c 0.10321,-0.74063 -0.0619,-0.90774 -0.90979,-0.90774 z m 94.81619,1.27288 c -0.74268,0.009 -1.015,0.71587 -0.43116,1.30175 0.47036,0.47037 1.53694,0.0846 1.53694,-0.557 0,-0.33009 -0.41054,-0.66017 -0.90773,-0.73237 a 1.3079519,1.3079519 0 0 0 -0.19805,-0.0124 z m -81.82126,1.15529 c -0.61891,0 -0.82933,0.85614 -0.33009,1.35333 0.27026,0.27233 0.91805,-0.46005 0.93042,-1.05214 0.004,-0.1671 -0.26818,-0.30119 -0.60033,-0.30119 z m 98.9608,1.21098 c -0.98612,0 -1.35541,0.50957 -1.01501,1.40079 0.36104,0.93661 1.54314,0.59209 1.69786,-0.49511 0.099,-0.68081 -0.0742,-0.90568 -0.68285,-0.90568 z m -71.08739,1.61947 c -0.68905,0.0124 -0.97168,0.23313 -0.97168,0.74269 0,1.56789 1.72881,1.71231 1.94955,0.16298 0.10308,-0.73856 -0.0619,-0.90774 -0.90979,-0.90774 z m 61.32726,2.02176 c -0.78807,0 -1.14497,1.14909 -0.54463,1.7515 0.36514,0.36516 1.35334,-0.5075 1.35334,-1.19449 0,-0.30532 -0.36516,-0.55701 -0.80871,-0.55701 z m -79.5437,1.2605 c -0.42911,0.009 -0.55701,0.23725 -0.55701,0.85616 0,1.43998 0.86647,2.14553 1.52663,1.244 0.2847,-0.3961 0.4683,-0.99026 0.40229,-1.32859 -0.0619,-0.33627 -0.524,-0.67254 -1.02326,-0.74269 a 2.2198048,2.2198048 0 0 0 -0.35071,-0.0289 z m -10.61214,2.36009 c -0.23726,0 -0.48481,0.13823 -0.67668,0.44355 -0.3899,0.63129 0.1011,1.59884 0.80871,1.59884 0.39197,0 0.6189,-0.37134 0.6189,-1.01089 0,-0.64159 -0.35896,-1.0315 -0.753,-1.0315 z m 97.36401,1.64836 c -0.53225,-0.009 -1.13877,0.20629 -1.29969,0.62508 -0.13203,0.35072 0.0722,1.05008 0.4518,1.55551 l 0.69523,0.92218 0.51576,-0.99644 c 0.28263,-0.54877 0.51576,-1.24812 0.51576,-1.55551 0,-0.36516 -0.40849,-0.54464 -0.88092,-0.55082 z m -61.55213,0.59827 a 0.59414853,0.59414853 0 0 0 -0.42085,0.19392 c -0.41879,0.41879 -0.0495,1.62978 0.49924,1.62978 0.20631,0 0.48894,-0.30946 0.63336,-0.67667 0.2228,-0.58796 -0.23726,-1.15529 -0.71175,-1.14497 z m 49.08328,1.81958 c -0.77983,0 -1.09547,0.79219 -0.53845,1.34921 0.55701,0.55702 1.34714,0.23724 1.34714,-0.54051 0,-0.53846 -0.27026,-0.8087 -0.80869,-0.8087 z m -60.27514,0.8087 c -0.51575,0 -0.81076,0.27232 -0.81076,0.74269 0,1.30795 0.94898,1.74943 1.37396,0.63953 0.41055,-1.06864 0.28263,-1.38222 -0.5632,-1.38222 z m 57.98312,5.66298 c -0.29708,0 -0.53845,0.36515 -0.53845,0.81076 0,0.91804 1.015,1.09959 1.3451,0.24137 0.25168,-0.66223 -0.0475,-1.05213 -0.80665,-1.05213 z m -47.12547,1.58027 c -0.52813,-0.002 -1.12846,0.31563 -1.28732,0.92836 -0.1279,0.48893 -0.031,1.13053 0.21249,1.42553 0.36516,0.43943 0.57764,0.41468 1.19655,-0.1444 0.41261,-0.37341 0.75094,-1.015 0.75094,-1.42349 0,-0.53019 -0.41054,-0.78395 -0.87472,-0.786 z m 62.72599,2.46736 c -0.85821,0.0226 -1.01706,0.80045 -0.29707,1.52045 0.60859,0.60652 1.1491,0.262 1.1491,-0.7365 0,-0.51576 -0.27645,-0.78395 -0.80871,-0.78395 h -0.0413 z m -4.90584,1.3554 a 1.2749437,1.2749437 0 0 0 -0.44355,0.0887 c -0.79427,0.30532 -0.87266,1.02532 -0.18361,1.71231 0.63334,0.63334 1.29351,0.40642 1.46887,-0.50544 0.14853,-0.76745 -0.23726,-1.29971 -0.8376,-1.29971 z m -66.5075,1.94337 c -0.58177,0.0124 -0.78602,0.78187 -0.27645,1.2935 0.42498,0.42499 1.13672,0.0619 1.13672,-0.57764 0,-0.30945 -0.31977,-0.62715 -0.70761,-0.70142 a 0.73855962,0.73855962 0 0 0 -0.15885,-0.0165 z m 54.51313,6.80176 a 0.89741183,0.89741183 0 0 0 -0.58384,0.27644 c -0.30739,0.30533 0.45798,1.35127 0.99024,1.35127 0.19599,0 0.35484,-0.36515 0.35484,-0.80869 0,-0.52195 -0.3569,-0.83759 -0.76124,-0.82108 z m -41.93081,1.62978 c -1.19242,0 -1.71435,0.9593 -0.99437,1.82577 0.60447,0.72824 0.89742,0.75093 1.53282,0.11962 0.87473,-0.87679 0.58178,-1.94337 -0.53638,-1.94337 z m 55.28263,1.6174 c -0.98611,0 -1.35334,0.50956 -1.01293,1.40079 0.36103,0.93455 1.54314,0.59209 1.69787,-0.49512 0.099,-0.6808 -0.0742,-0.90567 -0.68287,-0.90567 z m -65.18097,1.6174 c -0.89329,0 -1.07071,0.79221 -0.34246,1.52252 0.60859,0.60651 1.14909,0.25993 1.14909,-0.7365 0,-0.51576 -0.27643,-0.78395 -0.80869,-0.78395 z m 47.54839,4.09097 a 2.492123,2.492123 0 0 0 -0.31565,0.0289 c -1.12435,0.16297 -1.37603,1.22748 -0.49925,2.10634 0.87059,0.87058 1.40492,0.4848 1.40492,-1.01707 0,-0.8706 -0.099,-1.12642 -0.59209,-1.11816 z m -55.17742,0.13409 c -0.24138,0 -0.458,0.0598 -0.59416,0.19186 -0.64366,0.64366 0.49513,1.78245 1.19655,1.19861 0.3074,-0.25168 0.55289,-0.59827 0.55289,-0.7695 0,-0.36516 -0.62509,-0.62922 -1.15528,-0.62303 z m 19.35934,3.46175 c -0.78602,0 -1.14292,1.14909 -0.54258,1.74943 0.36516,0.36516 1.35334,-0.5075 1.35334,-1.19242 0,-0.30739 -0.36515,-0.55701 -0.8087,-0.55701 z m 46.53337,2.83045 c -0.9139,0 -1.244,0.76126 -0.75093,1.7185 0.48893,0.94898 1.43585,0.8974 1.74943,-0.099 0.32597,-1.02532 -0.0413,-1.61947 -1.00056,-1.61947 z m -56.21717,1.21511 c -0.93249,0 -1.39667,0.61685 -1.08309,1.43381 0.27645,0.71587 0.7365,0.74887 1.38223,0.10321 0.7365,-0.7365 0.58177,-1.53695 -0.30121,-1.53695 z m 32.71943,0.40436 c -0.49513,0 -0.78395,0.27645 -0.78395,0.74269 0,1.34714 1.3224,1.82164 1.77626,0.63747 0.33008,-0.86234 -0.0392,-1.38016 -0.99025,-1.38016 z m -13.14347,0.80871 c -0.70968,0 -1.11816,0.70142 -0.83759,1.43585 0.27645,0.72 1.33271,0.77363 1.57201,0.0783 0.25789,-0.74268 -0.11763,-1.51631 -0.73442,-1.51631 z m 18.93436,1.00262 a 0.30326331,0.30326331 0 0 0 -0.15886,0.0413 c -0.51576,0.31976 -0.0206,0.97787 0.73237,0.97787 0.51576,0 0.54052,-0.11353 0.1341,-0.60241 -0.2125,-0.25788 -0.49926,-0.42085 -0.70968,-0.41467 z m -46.37866,1.66073 c -0.11353,0.004 -0.25581,0.12373 -0.4745,0.34039 -0.32183,0.32184 -0.57764,0.86647 -0.57764,1.21513 0,0.70142 1.02119,0.86645 1.4173,0.22692 0.13821,-0.22281 0.13821,-0.77157 -0.004,-1.21718 -0.12372,-0.39403 -0.21249,-0.57352 -0.36103,-0.56732 z m 54.37903,0.24137 a 0.67460614,0.67460614 0 0 0 -0.47037,0.22281 c -0.49512,0.49511 -0.2063,1.72674 0.40642,1.72674 0.2063,0 0.48893,-0.30121 0.63127,-0.67461 0.25582,-0.6746 -0.10321,-1.277 -0.56319,-1.27494 z m -22.74887,5.60728 c -0.2125,0 -0.50544,0.0783 -0.89742,0.22693 -0.75094,0.28882 -0.84171,1.41316 -0.1671,2.08571 0.55702,0.55702 1.51631,-0.458 1.53695,-1.6236 0.009,-0.4683 -0.11763,-0.68698 -0.4745,-0.68904 z m -18.02045,0.38578 a 0.92423104,0.92423104 0 0 0 -0.63954,0.26819 c -0.36308,0.36515 0.54258,1.3946 0.99026,1.12022 0.19598,-0.12373 0.35895,-0.48481 0.35895,-0.80458 0,-0.37134 -0.33626,-0.59002 -0.70761,-0.58383 z m 7.58364,1.61946 c -0.90979,0 -1.10577,1.16148 -0.32595,1.93924 0.56321,0.56321 1.11816,-0.0433 1.12847,-1.23161 0.004,-0.43944 -0.3012,-0.70763 -0.80252,-0.70763 z m 40.88898,0 c -0.46006,0 -0.83964,0.24345 -0.83964,0.54051 0,1.23781 1.31,1.35334 1.54726,0.13204 0.0887,-0.45386 -0.14442,-0.6746 -0.70968,-0.6746 z m -17.88016,0.27645 c -0.43324,0.0226 -0.84996,0.51989 -0.62716,1.09958 0.28058,0.72826 0.90773,0.84997 1.2832,0.24757 0.13822,-0.22281 0.099,-0.66842 -0.0846,-0.99438 -0.14853,-0.262 -0.36103,-0.36514 -0.57145,-0.35071 z m -44.93042,1.58027 a 0.58177043,0.58177043 0 0 0 -0.18567,0.0454 c -0.57765,0.22281 -0.72618,1.01913 -0.27438,1.46886 0.3961,0.39611 0.43117,0.36103 0.63128,-0.70142 0.1093,-0.56939 0.0619,-0.81902 -0.1671,-0.81076 z m 51.40416,0.3961 a 1.6462866,1.6462866 0 0 0 -0.35483,0.0577 c -0.90567,0.23725 -1.04802,0.92835 -0.34247,1.63803 0.64161,0.64161 1.14911,0.24344 1.14911,-0.89947 0,-0.5859 -0.10321,-0.80871 -0.45387,-0.79839 z m -45.18211,1.79895 a 0.48274567,0.48274567 0 0 0 -0.34658,0.12997 c -0.12997,0.1279 -0.12997,0.51576 0.004,0.86027 0.30945,0.80665 1.47918,0.81078 1.47918,0.004 0,-0.50543 -0.65603,-0.99849 -1.13879,-0.99437 z m 28.60166,3.23274 c -0.87885,0 -1.03771,1.18418 -0.26819,1.95575 0.40229,0.39609 0.6024,0.36721 0.98611,-0.16299 0.26613,-0.36514 0.38373,-0.91598 0.26613,-1.22748 -0.11962,-0.31152 -0.56113,-0.56734 -0.98405,-0.56734 z m -12.0934,3.63916 c -0.77982,0 -1.0934,0.7922 -0.53845,1.34922 0.55701,0.55701 1.34921,0.24137 1.34921,-0.53846 0,-0.5405 -0.27231,-0.81076 -0.8087,-0.81076 z m -22.8706,2.25488 c -0.11551,0.01 -0.20835,0.2063 -0.31151,0.61478 -0.1341,0.50131 -0.14854,1.06246 -0.0329,1.24606 0.36514,0.59003 0.96755,0.3569 0.96135,-0.37134 a 2.7850713,2.7850713 0 0 0 -0.34451,-1.24813 c -0.10321,-0.16297 -0.19392,-0.24755 -0.2682,-0.24137 z m 12.244,0.99025 a 0.69523629,0.69523629 0 0 0 -0.69935,0.73443 c 0,0.41054 0.12372,0.86646 0.28263,1.02119 0.4126,0.41261 1.47918,-0.80457 1.15942,-1.32033 a 0.86027754,0.86027754 0 0 0 -0.73857,-0.43322 z m -6.53975,6.06113 c -0.79633,0 -1.13879,0.65605 -0.83965,1.59884 0.3404,1.07278 1.42142,0.59415 1.42142,-0.63127 0,-0.57352 -0.23724,-0.96963 -0.58384,-0.96963 z m 11.6354,4.62323 a 0.85615151,0.85615151 0 0 0 -0.30532,0.0742 c -0.74681,0.28883 -0.87265,1.51839 -0.12791,1.27083 0.27644,-0.0929 0.56321,-0.47037 0.63541,-0.84171 0.0639,-0.33628 0.004,-0.49925 -0.19805,-0.49925 z m -16.67329,1.44411 c -0.58383,0 -0.85408,0.25581 -0.85408,0.8087 0,0.44974 0.27231,0.8087 0.60651,0.8087 0.33628,0 0.60654,-0.0742 0.60654,-0.16917 0,-0.0929 0.1093,-0.45799 0.24756,-0.8087 0.17742,-0.46005 0.004,-0.63953 -0.60653,-0.63953 z m 10.76276,1.60915 c -0.48894,-0.004 -1.03152,0.52606 -0.83347,1.03563 0.22693,0.59209 0.30946,0.59416 0.87885,0.0247 0.34452,-0.34658 0.51163,-0.7468 0.36515,-0.89121 a 0.5776444,0.5776444 0 0 0 -0.41053,-0.16917 z m -8.2892,7.75075 c -0.34453,0.004 -0.49513,0.24138 -0.49513,0.753 0,0.60859 0.21249,0.82933 0.70762,0.73237 0.38991,-0.0742 0.70761,-0.40435 0.70761,-0.73237 0,-0.32596 -0.32182,-0.65604 -0.70761,-0.73237 a 1.0686421,1.0686421 0 0 0 -0.21249,-0.0206 z m 10.8659,2.19712 c -0.31151,0 -0.43942,0.17122 -0.43942,0.55082 0,1.27494 0.95312,1.69166 1.37191,0.6024 0.33627,-0.87679 0.34452,-0.85822 -0.56527,-1.09546 a 1.5266316,1.5266316 0 0 0 -0.37134,-0.0598 z m -17.43248,3.50711 a 0.63953487,0.63953487 0 0 0 -0.4518,0.19805 c -0.5467,0.54671 0.006,1.72056 0.68904,1.45856 0.31565,-0.12372 0.57352,-0.46417 0.57352,-0.75919 0,-0.52607 -0.41053,-0.90153 -0.81282,-0.89535 z m 14.73818,2.33121 a 0.60858963,0.60858963 0 0 0 -0.57765,0.60653 0.60652661,0.60652661 0 1 0 0.6086,-0.60653 z m -7.42892,2.83047 c -0.93248,0 -1.39872,0.6189 -1.08514,1.43585 0.3012,0.78395 1.3162,0.74887 1.62359,-0.0557 0.4126,-1.06245 0.28263,-1.38221 -0.53845,-1.38221 z m 7.93848,5.69392 a 1.446174,1.446174 0 0 0 -0.45385,0.1052 0.64572391,0.64572391 0 0 0 -0.38166,0.86027 c 0.30738,0.79839 0.9201,0.79839 1.2275,-0.002 0.23724,-0.62096 0.0701,-0.98198 -0.39199,-0.96342 z m -14.63709,2.80158 c -0.62715,0 -0.80457,0.47861 -0.35071,0.93453 0.31977,0.31977 0.95517,-0.0433 0.95517,-0.55289 0,-0.20835 -0.27232,-0.38164 -0.60653,-0.38164 z m 9.25056,0.43322 c -1.06039,0.004 -1.36571,0.29915 -1.08927,1.02326 0.28263,0.73857 1.34509,0.73444 1.34509,-0.006 0,-0.31769 0.22692,-0.66635 0.50544,-0.77775 0.27644,-0.11353 0.0351,-0.21662 -0.53845,-0.23725 a 7.7651911,7.7651911 0 0 0 -0.22281,-0.004 z m 8.14479,4.42105 c -0.61066,0 -0.83346,0.85615 -0.35071,1.33889 0.3796,0.37547 0.95518,-0.0783 0.95518,-0.75506 a 0.59621154,0.59621154 0 0 0 -0.60653,-0.58383 z m -19.01482,6.8781 c -1.10165,0 -0.71792,1.19861 0.5075,1.58645 0.0536,0.0185 0.099,-0.33008 0.099,-0.77776 0,-0.44974 -0.27232,-0.80869 -0.60653,-0.80869 z m 19.64403,0 c -0.50956,0 -0.87471,0.63127 -0.55082,0.95516 0.45387,0.45387 0.93248,0.27645 0.93248,-0.34658 0,-0.33627 -0.17329,-0.60653 -0.38166,-0.60653 z m -10.74418,0.80869 c -0.63128,0 -0.80251,0.47863 -0.33627,0.94486 0.46418,0.46419 0.94487,0.29708 0.94487,-0.33626 a 0.60652661,0.60652661 0 0 0 -0.60653,-0.60653 z m 3.84547,9.70855 a 0.41260314,0.41260314 0 0 0 -0.40435,0.40642 c 0,0.22281 0.0783,0.40435 0.17742,0.40435 0.099,0 0.29088,-0.18154 0.43116,-0.40435 0.13616,-0.22281 0.0578,-0.40642 -0.17948,-0.40642 h -0.0206 z m 5.45873,0 c -1.12847,0 -1.18829,0.12373 -0.59828,1.22544 0.49926,0.93661 1.60916,0.6189 1.60916,-0.45799 0,-0.54877 -0.28882,-0.76745 -1.01088,-0.76745 z m -19.01275,0.40642 c -0.60859,0 -0.8314,0.85408 -0.35071,1.33684 0.37547,0.37547 0.95517,-0.0783 0.95517,-0.753 a 0.59621154,0.59621154 0 0 0 -0.60652,-0.58384 z m 6.6821,5.75581 c -0.7303,-0.009 -0.97785,0.90154 -0.15266,1.72675 0.66223,0.66429 0.71587,0.65191 1.04183,-0.22693 0.23106,-0.62923 0.17741,-1.02739 -0.17949,-1.25226 a 1.3842835,1.3842835 0 0 0 -0.71379,-0.24756 z m -6.6821,0.71174 a 0.607565,0.607565 0 1 0 0,1.21513 0.607565,0.607565 0 0 0 0,-1.21513 z m 17.75844,5.68155 c -0.53226,0.01 -0.66016,0.36516 -0.38579,1.0769 0.26202,0.68079 0.31771,0.67666 0.87885,-0.0826 0.53433,-0.72205 0.52813,-0.82519 -0.0578,-0.94898 a 1.9846211,1.9846211 0 0 0 -0.43529,-0.0475 z m -17.48613,0.43942 c -0.6911,0.0206 -0.59827,1.04595 0.23313,1.53076 0.94486,0.55082 0.92629,0.56527 0.76744,-0.47449 -0.0742,-0.49926 -0.43942,-0.96756 -0.80663,-1.03976 a 0.86646659,0.86646659 0 0 0 -0.19394,-0.0185 z m 10.42649,6.82446 c -0.51163,0.0185 -0.78807,0.27644 -0.78807,0.74062 0,1.53695 1.32239,1.65454 1.54726,0.13822 0.097,-0.66016 -0.0804,-0.87884 -0.70968,-0.87884 z"
   fill="#ffffff"
   id="path37"
   style="stroke-width:2.06302" />
<path
   d="m 2080.9149,361.48209 c 3.0285,-0.10321 6.0983,-0.25581 9.0278,-1.07689 0.9716,-0.30121 1.8422,-0.85203 2.6406,-1.47094 0.2311,0.95105 1.3988,1.54108 2.2611,1.00263 1.2605,-0.77775 1.7412,-2.28995 2.2734,-3.59377 1.1141,-2.81395 1.8155,-5.80739 1.8176,-8.84415 0.025,-3.5814 -0.227,-7.15867 -0.326,-10.73593 -0.4951,-12.77832 -0.9139,-25.56284 -1.3451,-38.35147 -0.2187,-5.59077 -0.4539,-11.20217 -1.4235,-16.7228 -0.3301,-2.28583 -0.7592,-4.56339 -0.984,-6.86159 -0.2723,-7.03282 -0.3012,-14.06977 -0.3858,-21.10672 -0.093,-12.39253 -0.2022,-24.78507 -0.06,-37.17553 0.031,-2.00526 0.064,-4.0167 0.3362,-6.00339 5.8013,0.23106 11.6086,0.3404 17.4119,0.50132 2.1703,-1.06451 4.4087,-2.03619 6.3273,-3.52982 a 53.708551,53.708551 0 0 0 10.084,-9.81789 c 1.9475,-2.43024 3.3256,-5.24419 4.8213,-7.96118 1.31,-2.5045 2.6757,-4.98012 4.0311,-7.45987 a 82.526817,82.526817 0 0 0 4.3055,-10.97524 c 0.6746,-2.53958 1.5947,-5.00693 2.5911,-7.43511 0.7324,-2.06921 1.3616,-4.20855 1.407,-6.4201 0.6189,-10.38109 0.6354,-20.78695 1.0315,-31.17835 0.1239,-2.94394 0.1795,-5.94768 0.5735,-8.89161 a 201.63503,201.63503 0 0 0 0.9284,-16.7847 c 0.056,-6.735737 -1.5844,-13.339451 -3.4927,-19.753368 -1.1759,-3.754689 -2.4962,-7.593961 -5.0275,-10.671981 -1.5638,-1.784508 -3.5175,-3.344148 -5.8178,-4.035258 -2.8345,-0.82108 -5.8011,0.07839 -8.4418,1.140847 -2.1868,0.866466 -4.1776,2.40135 -5.2029,4.559265 -1.1347,2.335333 -1.5556,4.942985 -1.8568,7.501125 -0.3919,4.418979 0.359,8.829713 0.9903,13.188863 0.4601,3.012 1.0171,6.05495 1.3781,9.029817 a 51.946735,51.946735 0 0 1 0.2723,3.21005 106.03901,106.03901 0 0 1 0.1135,4.74082 c 0.074,9.18866 -0.1238,18.3629 -0.8066,27.49793 -0.262,3.05326 -0.4786,6.19523 -1.341,9.1866 a 57.386908,57.386908 0 0 1 -1.0748,3.52982 c -2.0754,6.08797 -4.7284,11.9655 -7.6105,17.711 -1.7019,3.23481 -3.4988,6.48818 -6.0178,9.16804 -0.4105,0.43942 -1.0315,0.94898 -1.4173,1.2213 a 27.726931,27.726931 0 0 1 -4.5386,2.4715 c -0.5818,0.25168 -1.3637,0.56526 -2.0568,0.74887 -0.59,0.14854 -1.1924,0.23312 -1.7887,0.35071 0.5426,-3.92385 0.3611,-7.89516 0.1074,-11.83551 -0.3157,-5.38447 -0.4684,-10.78545 -1.1698,-16.13897 -0.689,-5.40511 -1.5101,-10.81021 -2.9171,-16.07915 -0.5281,-2.14141 -1.6133,-4.09303 -2.9315,-5.84659 -2.0424,-2.71286 -4.45,-5.21531 -7.3237,-7.05552 -1.6051,-0.98405 -3.4989,-1.56376 -5.3886,-1.51837 -2.4138,0.11353 -4.3386,1.80102 -5.9828,3.4081 -1.933,1.85671 -3.7712,3.94035 -4.6706,6.51088 -1.2915,3.56283 -1.4999,7.39384 -1.7123,11.14441 -0.3384,7.95911 -0.1403,15.93061 0,23.89179 0.2413,11.92629 0.6477,23.84845 0.8953,35.77681 0.064,3.69899 0.06,7.43098 -0.1176,11.0784 -0.2476,4.93061 -0.7943,9.79726 -1.3204,14.71548 -0.2599,2.16205 -0.4126,4.35297 -0.887,6.51913 -0.2002,1.00882 -1.143,1.79482 -2.1765,1.78658 -2.2425,0.10321 -4.4871,0.19805 -6.7152,0.491 -3.307,0.28882 -6.5707,-0.95105 -9.1969,-2.90266 -2.0465,-1.37192 -3.5607,-3.37716 -4.7057,-5.53302 a 34.493622,34.493622 0 0 1 -4.1529,-12.05008 49.429856,49.429856 0 0 1 -0.4538,-4.25393 c -0.4168,-6.46549 0.1135,-12.88353 0.5941,-19.33665 0.654,-10.17685 0.5983,-20.38259 0.5694,-30.57389 -0.07,-2.28788 0.074,-4.63146 -0.5694,-6.85127 -0.852,-2.51895 -2.1414,-5.05645 -4.419,-6.56864 -2.9047,-1.95162 -6.4985,-3.06152 -10.0056,-2.60972 -2.0506,0.28057 -3.864,1.4338 -5.4298,2.72938 -2.4633,2.21361 -4.1508,5.11214 -5.8796,7.89721 -1.2853,2.12079 -2.4282,4.40248 -2.6861,6.90285 -0.3507,3.18118 -0.7427,6.36234 -1.4235,9.49194 -1.1284,4.49119 -1.4523,9.13297 -1.5039,13.75 -0.031,1.46474 -0.1382,2.94805 -0.2476,4.45611 -0.262,2.92948 -0.4786,5.86722 -0.4002,8.80908 a 126.22355,126.22355 0 0 0 2.3127,21.63484 c 0.8252,4.29314 2.2816,8.42537 3.4968,12.61535 1.7845,5.81152 3.4081,11.67667 5.5041,17.38503 1.0294,2.71905 2.3106,5.51031 4.6727,7.33402 1.8175,1.39047 3.7609,2.61178 5.6527,3.90323 2.3518,1.32445 4.9368,2.17648 7.4784,3.06358 3.2018,1.06451 6.4511,2.04238 9.8097,2.45498 3.5442,0.56528 7.1751,0.51163 10.6719,1.35541 1.5927,0.56732 3.2658,0.82933 4.9141,1.16559 3.0327,0.8149 5.2153,3.44524 6.3459,6.27158 0.4827,1.16354 0.7427,2.26518 1.1078,3.48237 1.1574,4.08476 2.0218,8.40884 2.3312,12.70199 0.557,7.51556 -0.01,15.05176 -0.5075,22.55288 -0.5446,7.97768 -1.1677,15.95536 -1.3492,23.95162 -0.1237,3.70724 0.4951,7.48461 2.1785,10.81638 1.8815,3.79183 5.0544,6.98538 8.9432,8.70181 1.6051,0.6189 3.3731,0.49512 5.0585,0.5075 z"
   id="path19"
   style="stroke-width:2.06302" /><path
   d="m 2131.399,64.700775 c 3.1378,-0.113467 6.0425,1.553452 8.2108,3.705177 2.9852,2.952175 4.5592,6.966804 5.8342,10.888597 2.0073,6.46549 3.734,13.112524 3.9156,19.918414 0.021,6.098277 -0.3507,12.192427 -0.9222,18.261817 -0.1857,1.44824 -0.3053,2.99344 -0.3837,4.39423 -0.5075,10.61421 -0.5323,21.27382 -1.0191,31.90453 -0.1692,2.26932 -0.079,4.57577 -0.5901,6.80589 -0.6333,3.10071 -2.1249,5.92085 -3.0367,8.93698 a 82.747559,82.747559 0 0 1 -3.8022,10.65548 c -0.9263,2.26107 -2.162,4.36947 -3.3255,6.51088 -1.9145,3.46999 -3.6186,7.0679 -5.8384,10.36046 a 53.731243,53.731243 0 0 1 -10.6348,10.86591 c -2.2136,1.82371 -4.8419,3.01613 -7.4062,4.25393 -5.5557,-0.14853 -11.1115,-0.26819 -16.6651,-0.47448 -0.093,0.92422 -0.1382,1.85051 -0.1671,2.77887 -0.1733,9.4383 -0.1155,18.87866 -0.064,28.31695 0.083,9.96437 0.099,19.92874 0.3899,29.89105 -0.012,2.7273 0.5343,5.40716 0.9284,8.09527 0.9077,5.09152 1.2543,10.26144 1.4627,15.4231 0.4683,12.61947 0.8417,25.24719 1.3347,37.85634 0.1279,4.07445 0.3549,8.10559 0.425,12.18417 a 25.032632,25.032632 0 0 1 -1.4297,9.26294 c -0.7117,1.768 -1.2027,3.7877 -2.7314,5.05439 -0.9799,0.94485 -2.6427,0.90979 -3.6082,-0.0392 a 8.9906224,8.9906224 0 0 1 -1.5473,0.79632 c -3.1585,1.02739 -6.5191,1.15942 -9.8117,1.28526 -1.6958,-0.006 -3.439,0.0846 -5.075,-0.44355 -3.1482,-1.23161 -5.8631,-3.45968 -7.9055,-6.13334 -2.8779,-3.72993 -4.2663,-8.45424 -4.3261,-13.13316 0.078,-7.11534 0.5921,-14.21418 1.0748,-21.31095 0.4951,-7.5981 1.1801,-15.11779 0.9861,-22.73031 -0.041,-1.52663 -0.1341,-3.17085 -0.2537,-4.58814 -0.4188,-4.70987 -1.473,-9.34134 -2.8676,-13.85316 -0.852,-2.82839 -2.6819,-5.62584 -5.5598,-6.6821 -1.5349,-0.43324 -3.1399,-0.59416 -4.6645,-1.08103 -0.8211,-0.295 -1.7886,-0.46831 -2.5788,-0.59621 -2.2301,-0.34658 -4.487,-0.46005 -6.7275,-0.71174 a 47.965116,47.965116 0 0 1 -9.9643,-2.10841 c -3.1936,-1.04388 -6.4263,-2.06301 -9.4012,-3.6474 a 115.72899,115.72899 0 0 1 -5.4505,-3.68455 c -2.4859,-1.67929 -4.0724,-4.34058 -5.1637,-7.07614 -2.1249,-5.41955 -3.6784,-11.03713 -5.3845,-16.59697 -1.244,-4.30963 -2.7046,-8.55119 -3.7464,-12.92066 -1.6463,-7.6084 -2.5169,-15.37978 -2.717,-23.16148 -0.1774,-4.13841 0.3548,-8.25206 0.5776,-12.37809 0.1093,-3.4308 0.1444,-6.87603 0.6189,-10.28414 0.2703,-2.3931 0.9139,-4.71399 1.3513,-7.07614 a 99.913914,99.913914 0 0 0 0.9387,-6.70893 c 0.1671,-2.52925 1.0893,-4.94092 2.3539,-7.1174 1.6896,-2.80364 3.3462,-5.67535 5.5949,-8.08084 1.6916,-1.76593 3.7959,-3.2348 6.1808,-3.86814 3.7443,-0.81284 7.7053,0.19804 10.9443,2.14553 2.4261,1.34302 4.0868,3.72168 5.0874,6.25713 1.1511,2.50656 1.083,5.31432 1.1181,8.01069 0.041,11.08458 0.1239,22.18566 -0.7158,33.24549 -0.4333,5.91467 -0.8356,11.81696 -0.4003,17.69449 0.2909,4.24568 1.1801,8.47281 2.9501,12.35746 1.1718,2.46943 2.4035,5.00695 4.4087,6.92142 2.5396,2.29614 5.8445,3.99193 9.3393,3.89909 2.0176,-0.19392 4.0352,-0.39196 6.0652,-0.46417 0.7572,-0.1093 1.7742,0.17742 2.2549,-0.60446 0.3157,-0.75919 0.359,-1.61328 0.5075,-2.42198 0.557,-4.53039 1.0253,-9.12472 1.4462,-13.63653 a 138.1024,138.1024 0 0 0 0.5261,-13.59321 c -0.1651,-10.93811 -0.5509,-21.8721 -0.8025,-32.80815 -0.1816,-9.27325 -0.4745,-18.55063 -0.196,-27.82388 0.1712,-4.0167 0.3053,-8.09528 1.4069,-11.98613 0.6355,-2.45292 1.9578,-4.67479 3.666,-6.52944 1.6917,-1.76388 3.3916,-3.62472 5.6052,-4.73875 2.3003,-1.19655 5.0709,-0.82109 7.3712,0.16917 2.3147,1.048 4.2581,2.75412 6.0467,4.52626 2.3993,2.52926 4.6872,5.32258 5.8342,8.66053 1.3327,4.5015 2.1208,9.14329 2.7995,13.78095 a 140.85652,140.85652 0 0 1 1.3781,14.50507 c 0.2063,5.26687 0.8335,10.54613 0.3445,15.81506 0.5158,-0.099 1.0315,-0.30119 1.5287,-0.49511 2.0176,-0.85203 4.0373,-1.82165 5.7249,-3.23894 2.6964,-2.62416 4.4994,-5.98687 6.2551,-9.27325 3.2018,-6.42012 6.1849,-12.98463 8.2891,-19.85447 0.9759,-3.02026 1.341,-6.18492 1.5824,-9.33721 0.6127,-7.62697 0.85,-15.20029 0.8871,-22.85408 0,-3.45968 0.037,-6.96062 -0.1321,-10.37284 -0.06,-0.949 -0.1382,-2.01352 -0.2475,-2.88823 -0.2868,-2.358027 -0.7014,-4.775877 -1.0831,-7.164847 -0.6973,-4.72431 -1.5968,-9.471314 -1.3616,-14.267824 0.1981,-2.694299 0.6189,-5.411291 1.605,-7.938484 0.8913,-2.4488 2.8037,-4.437547 5.1246,-5.582521 2.3312,-1.083084 4.8357,-1.966053 7.431,-2.034134 z m 0.07,2.217742 c -1.2997,0.01856 -2.7335,0.336273 -4.4355,0.942799 -4.7346,1.677232 -6.3128,3.826893 -7.299,9.927232 -0.6395,3.969241 -0.3754,7.637281 1.2688,17.665605 1.2275,7.472247 1.2956,8.452177 1.2914,18.608407 0,10.55438 -0.5652,22.30738 -1.3615,28.3809 -0.6643,5.08947 -3.7506,13.50037 -8.6627,23.6009 -3.0326,6.24268 -5.9435,10.56265 -8.3448,12.3946 -2.0218,1.54313 -6.0447,3.48031 -7.8663,3.78976 -0.8747,0.14853 -1.8794,0.34658 -2.2281,0.43942 -0.5591,0.14854 -0.5921,-0.18155 -0.2682,-2.76444 0.2022,-1.61534 0.2579,-4.84809 0.1237,-7.18548 -0.1341,-2.33534 -0.4064,-7.34434 -0.6044,-11.12584 -0.4745,-9.11235 -2.781,-22.79633 -4.4293,-26.28695 -1.9784,-4.18999 -7.3526,-9.63841 -10.5936,-10.73387 -3.4473,-1.16767 -5.1864,-0.62304 -8.4996,2.66335 -6.744,6.69242 -6.8719,8.34695 -5.236,67.32858 0.4787,17.2922 0.3755,20.23818 -1.2316,34.98668 -0.7282,6.68418 -0.8747,7.35671 -1.8051,8.28714 -0.852,0.85408 -1.4276,1.02531 -3.6309,1.08102 -1.4421,0.0372 -3.4886,0.18566 -4.551,0.33008 -3.338,0.46005 -6.6368,-0.33008 -9.723,-2.32708 -3.239,-2.09603 -4.6542,-3.77532 -6.9008,-8.19431 -3.9053,-7.68266 -4.7965,-15.88934 -3.4865,-32.14177 0.5116,-6.37473 0.7427,-13.46944 0.7633,-23.66692 0.027,-14.34208 0.014,-14.5979 -0.9118,-16.8961 -1.2544,-3.10071 -2.5479,-4.55514 -5.2876,-5.93737 -3.2719,-1.6504 -7.1091,-2.0135 -9.4279,-0.88709 -2.9976,1.4565 -4.6356,3.16674 -7.7095,8.05814 -4.8605,7.73218 -2.521,6.38916 -4.9657,17.91523 -1.0851,4.35709 -1.341,8.74513 -1.4008,13.01763 0,1.16974 -0.2063,4.45199 -0.4642,7.29482 -0.7757,8.56564 0.8747,24.44055 3.4184,32.85559 0.5385,1.78039 2.0197,6.69655 3.2906,10.92367 5.1286,17.06527 5.8734,18.62903 10.2882,21.58946 a 458.74455,458.74455 0 0 1 3.7444,2.5375 c 1.669,1.15117 8.2686,3.54428 13.1682,4.77795 1.8196,0.45799 5.5495,0.99644 8.2933,1.19655 2.7438,0.20218 5.7146,0.62923 6.6017,0.95312 a 22.713803,22.713803 0 0 0 3.6433,0.8809 c 4.0125,0.5859 7.2329,3.82071 8.7121,8.74719 3.3689,11.21868 3.8372,18.27832 2.4756,37.18999 -1.0872,15.08683 -1.5101,23.46061 -1.3471,26.69954 0.3404,6.87397 3.8846,12.69168 9.5724,15.72637 1.345,0.71999 2.2404,0.85202 5.4587,0.80457 2.1187,-0.0288 5.0709,-0.27437 6.5645,-0.54463 2.7913,-0.50543 3.1337,-0.67666 5.9477,-2.9728 0.9098,-0.74268 1.6545,-1.26876 1.6545,-1.17386 0,0.099 -0.2063,0.76744 -0.46,1.4895 -0.3404,0.98405 -0.5509,1.17592 -0.8294,0.7695 -0.2764,-0.40642 -0.3424,-0.33627 -0.2475,0.262 0.2475,1.55139 1.3162,0.83553 2.2425,-1.50187 1.8072,-4.55102 2.1992,-6.93586 2.0052,-12.18623 -0.099,-2.70668 -0.3796,-10.19956 -0.6251,-16.65267 a 4516.6057,4516.6057 0 0 1 -0.8685,-25.28431 c -0.3115,-10.01389 -0.6416,-14.92386 -1.2584,-18.81058 -0.4601,-2.89235 -1.015,-6.53358 -1.2317,-8.09115 -0.4497,-3.2183 -0.7942,-57.14554 -0.4043,-62.7033 0.2311,-3.32352 0.3259,-3.63091 1.0645,-3.5587 0.4456,0.0475 4.5531,0.17947 9.1289,0.29707 l 8.3201,0.2125 2.8057,-1.36779 c 4.1694,-2.03619 10.8453,-8.25824 14.2513,-13.28582 0.6354,-0.94279 2.259,-3.80833 3.6041,-6.36647 1.343,-2.55813 2.8222,-5.28957 3.2843,-6.06939 1.341,-2.26519 4.0477,-9.036 4.9698,-12.43998 a 50.741934,50.741934 0 0 1 1.997,-5.78057 c 0.6334,-1.45443 1.3575,-3.82071 1.6092,-5.25863 0.2517,-1.43585 0.6292,-10.43885 0.8355,-20.00712 0.2063,-9.56828 0.5405,-18.6703 0.7406,-20.22788 0.7221,-5.62171 1.3265,-17.47374 1.079,-21.133527 -0.326,-4.76143 -1.0852,-8.75131 -2.8759,-15.084774 -2.0424,-7.210237 -3.9878,-11.094897 -6.7316,-13.438482 -2.0548,-1.755626 -3.8496,-2.570518 -6.0157,-2.543699 z m 0.9366,9.174231 a 1.0892723,1.0892723 0 0 1 1.0996,1.064516 2.0217553,2.0217553 0 0 1 -0.489,1.231621 c -0.3858,0.385784 -0.6106,0.262003 -1.048,-0.571455 -0.3796,-0.722056 -0.425,-1.192424 -0.1444,-1.475057 a 0.84583643,0.84583643 0 0 1 0.5838,-0.251688 z m -0.982,10.461551 c 0.2063,0 0.7963,0.3404 1.3141,0.76332 0.8397,0.678734 0.8871,0.878844 0.4456,1.850524 -0.5921,1.29558 -1.2955,1.17592 -2.0362,-0.34039 -0.5467,-1.118164 -0.4064,-2.269324 0.2765,-2.269324 z m 8.5739,11.767454 c 0.1774,0.0124 0.4188,0.12997 0.7468,0.33626 0.6973,0.43943 0.2909,1.652477 -0.5529,1.652477 -0.3899,0 -0.6189,-0.371337 -0.6189,-1.010877 0,-0.68904 0.1093,-0.99437 0.425,-0.97581 z m -9.7993,8.862707 c 0.8313,0 1.4585,1.00881 1.0459,1.67723 -0.425,0.68698 -1.5782,0.16917 -1.7123,-0.77157 -0.093,-0.6746 0.074,-0.90566 0.6664,-0.90566 z m 10.1624,4.53245 a 0.72411851,0.72411851 0 0 1 0.4992,0.23105 c 0.2703,0.27232 0.2517,0.70143 -0.07,1.29558 -0.5157,0.96549 -0.9036,0.82932 -1.0893,-0.38579 -0.099,-0.66016 0.2435,-1.14084 0.6581,-1.1429 z m -10.9175,9.71061 c 0.6333,-0.01 1.3162,1.02738 1.0356,1.91654 -0.3672,1.14909 -1.5844,0.92011 -1.7618,-0.33008 -0.074,-0.52607 0.062,-1.15323 0.3074,-1.39666 a 0.58383345,0.58383345 0 0 1 0.4188,-0.18567 z m 6.6016,2.36628 c 0.2063,0 0.4869,0.0783 0.8665,0.2228 0.7509,0.29089 0.8396,1.41317 0.163,2.09191 -0.6602,0.66016 -1.5473,-0.12998 -1.5473,-1.37604 0,-0.65191 0.1238,-0.93661 0.5158,-0.93867 z m -61.8327,12.92273 c 1.1347,0 1.3121,0.37135 0.5488,1.13672 -0.621,0.62303 -1.2915,0.4126 -1.4606,-0.46418 -0.093,-0.48893 0.1588,-0.67461 0.9098,-0.67461 z m 53.8324,2.42817 c 0.8602,0 1.0108,0.18566 1.0108,1.25637 0,0.94899 -0.1485,1.20068 -0.6065,1.02532 -0.3363,-0.12996 -0.6189,-0.01 -0.6354,0.25994 -0.041,0.68699 -0.7179,-0.96342 -0.7509,-1.83195 -0.021,-0.49513 0.2764,-0.70762 0.9799,-0.70762 z m 10.5688,2.83045 c 1.0645,0.033 1.3327,1.08515 0.4745,1.94131 -0.654,0.65397 -0.9985,0.61271 -1.2935,-0.15266 -0.4786,-1.25432 -0.2517,-1.78658 0.7654,-1.78658 z m -54.7071,3.03263 c 1.5349,0 2.1806,1.0047 1.5473,2.39723 -0.5756,1.26256 -1.9042,1.37397 -2.5272,0.2125 -0.2475,-0.45387 -0.3858,-1.22957 -0.3156,-1.7185 0.099,-0.68079 0.4002,-0.8871 1.2955,-0.8871 z m -12.2832,3.43905 c 1.0192,0 1.4607,1.0212 0.7922,1.82784 -0.6416,0.77363 -1.0603,0.76332 -1.3677,-0.0372 -0.4498,-1.17592 -0.2517,-1.78864 0.5776,-1.78864 z m 51.7797,6.8781 c 0.7942,0.0413 1.4379,1.31621 1.0026,2.01969 -0.3301,0.53845 -0.7447,0.51576 -1.3368,-0.0783 -0.7695,-0.76951 -0.5901,-1.9413 0.295,-1.9413 z m -98.0098,1.21511 c 0.9882,0 1.1986,0.76332 0.425,1.53695 -0.8004,0.79839 -1.4565,0.55083 -1.3946,-0.52606 0.045,-0.76332 0.2826,-1.01089 0.9696,-1.01089 z m 55.8686,0.80871 a 0.82520628,0.82520628 0 0 1 0.6766,0.42085 c 0.3219,0.52194 -0.5756,1.67312 -1.0686,1.36984 -0.1981,-0.12372 -0.361,-0.57558 -0.361,-1.00674 0,-0.50545 0.3672,-0.79634 0.7509,-0.78395 z m 54.6369,0.40642 c 0.9696,0 1.6524,0.57351 1.6524,1.39047 0,1.51837 -0.6271,1.83195 -1.4606,0.73237 -0.6189,-0.81695 -0.7385,-2.12491 -0.1918,-2.12491 z m -119.7395,2.02174 c 1.1305,0 1.3203,0.55084 0.5281,1.52664 -0.3755,0.46625 -0.7097,0.81283 -0.7365,0.77363 -0.029,-0.0413 -0.1733,-0.57558 -0.3156,-1.1883 -0.2228,-0.92629 -0.1341,-1.11197 0.526,-1.11197 z m 54.4883,2.42818 c 0.7077,0.0288 1.1409,0.97374 0.8191,1.81339 -0.3508,0.90772 -1.473,0.262 -1.473,-0.84584 0,-0.59828 0.2372,-0.96962 0.6189,-0.96962 z m -44.6952,2.44674 a 1.052138,1.052138 0 0 1 1.0377,0.64366 c 0.3507,0.91597 -0.9799,1.89797 -1.6814,1.244 -0.2764,-0.25582 -0.4126,-0.79221 -0.3156,-1.1883 0.1196,-0.45386 0.5302,-0.68905 0.9572,-0.70143 z m 61.4304,3.34208 a 1.5307576,1.5307576 0 0 1 0.5777,0.11962 c 0.8458,0.32596 0.8169,1.23368 -0.056,1.72262 -0.8727,0.48893 -1.3245,0.23311 -1.3245,-0.75507 0,-0.6973 0.2971,-1.0769 0.8046,-1.08721 z m -76.476,1.89797 c 0.9903,0 1.3616,0.58384 1.0357,1.61947 -0.2063,0.65398 -0.4064,0.72824 -1.0377,0.38579 -0.4312,-0.23107 -0.784,-0.7757 -0.784,-1.21305 0,-0.51782 0.2785,-0.79427 0.786,-0.79427 z m 114.8378,0.41261 a 1.7494373,1.7494373 0 0 1 1.1078,0.41673 c 0.8129,0.67461 0.7303,1.45442 -0.2558,2.44261 -0.8087,0.8087 -0.8726,0.81282 -1.638,0.12373 -0.4889,-0.44149 -0.7489,-1.12228 -0.6746,-1.75357 0.089,-0.76744 0.7427,-1.22955 1.4606,-1.22542 z m -51.693,0.80045 c 1.1306,0 1.5163,1.19655 0.5983,1.86702 -0.9284,0.6808 -1.4214,0.3796 -1.4214,-0.87884 0,-0.72205 0.2187,-0.98818 0.8231,-0.98818 z m -53.5848,2.02175 c 0.5921,0.0269 0.7943,0.86646 0.3054,1.34922 -0.5117,0.51368 -0.9449,0.26819 -0.9449,-0.53845 0,-0.44974 0.2723,-0.80871 0.6086,-0.80871 z m 97.6529,2.83253 c 1.0459,0 1.4916,1.01293 0.8066,1.83814 -0.7096,0.85615 -1.376,0.52607 -1.5266,-0.75713 -0.1032,-0.86853 0.035,-1.08101 0.72,-1.08101 z m -89.8237,2.42816 c 0.46,0 0.8396,0.24137 0.8396,0.53845 0,1.23781 -1.31,1.35334 -1.5472,0.1341 -0.089,-0.45387 0.1444,-0.67461 0.7076,-0.67461 z m 103.157,1.21306 c 0.9242,0 0.949,0.0475 0.5859,0.99644 -0.3054,0.80456 -1.1141,0.60239 -1.2936,-0.32184 -0.089,-0.45386 0.1445,-0.6746 0.7077,-0.6746 z m -45.8609,2.42816 c 1.0542,0 1.2977,0.7427 0.5013,1.53696 -0.6312,0.63334 -0.9283,0.61271 -1.5225,-0.10321 -0.6519,-0.78601 -0.1918,-1.43173 1.0212,-1.43173 z m -74.4501,0 c 1.079,0 1.4586,0.69937 0.9346,1.7185 -0.4498,0.87059 -0.9016,0.89328 -1.7062,0.0887 -0.819,-0.81696 -0.3961,-1.80721 0.7716,-1.80721 z m 98.5338,1.27083 c 0.3404,0 0.6808,0.0929 0.8871,0.30119 0.3053,0.30532 0.2104,0.67668 -0.3301,1.27908 -0.7283,0.80044 -0.7943,0.80663 -1.2915,0.1279 -0.2929,-0.39609 -0.46,-0.90772 -0.3857,-1.14085 0.1176,-0.36103 0.6251,-0.5632 1.1222,-0.56526 z m -89.0666,0.75093 c 0.46,0 0.8396,0.24344 0.8396,0.54052 0,1.2378 -1.31,1.35334 -1.5472,0.13203 -0.089,-0.45387 0.1444,-0.67461 0.7076,-0.67461 z m 51.5919,2.47149 a 2.5271942,2.5271942 0 0 1 0.3156,0.031 c 1.1244,0.15679 1.3761,1.2275 0.4972,2.10428 -0.8706,0.87266 -1.4028,0.4848 -1.4028,-1.01707 0,-0.86853 0.099,-1.12434 0.59,-1.11816 z m 29.7342,0.50338 a 1.0129407,1.0129407 0 0 1 0.6107,0.25168 c 0.4786,0.39611 0.5199,0.65398 0.1712,1.07484 -0.6044,0.73031 -1.1367,0.69936 -1.4379,-0.0785 -0.2703,-0.70555 0.1237,-1.25844 0.6581,-1.24606 z m -8.2335,2.87171 c 0.1074,0 0.295,0.0785 0.5942,0.24138 0.9675,0.51782 1.3616,1.35953 1.0356,2.20743 -0.3713,0.96548 -1.0294,0.70555 -1.2935,-0.50544 -0.1341,-0.61272 -0.3156,-1.34509 -0.4064,-1.62772 -0.062,-0.21249 -0.054,-0.31565 0.07,-0.31565 z m 28.3232,1.43587 c 0.7798,0.0124 0.9613,0.21868 0.9613,1.03976 0,0.84584 -0.1671,1.015 -0.9077,0.90979 a 1.1490997,1.1490997 0 0 1 -1.0418,-1.03976 c -0.1032,-0.74063 0.062,-0.90774 0.9098,-0.90774 z m -94.8162,1.27288 c 0.7427,0.009 1.015,0.71587 0.4311,1.30175 -0.4703,0.47037 -1.5369,0.0846 -1.5369,-0.557 0,-0.33009 0.4105,-0.66017 0.9077,-0.73237 a 1.3079519,1.3079519 0 0 1 0.1981,-0.0124 z m 81.8212,1.15529 c 0.619,0 0.8294,0.85614 0.3301,1.35333 -0.2702,0.27233 -0.918,-0.46005 -0.9304,-1.05214 0,-0.1671 0.2682,-0.30119 0.6003,-0.30119 z m -98.9608,1.21098 c 0.9862,0 1.3555,0.50957 1.0151,1.40079 -0.3611,0.93661 -1.5432,0.59209 -1.6979,-0.49511 -0.099,-0.68081 0.074,-0.90568 0.6828,-0.90568 z m 71.0874,1.61947 c 0.6891,0.0124 0.9717,0.23313 0.9717,0.74269 0,1.56789 -1.7288,1.71231 -1.9495,0.16298 -0.1031,-0.73856 0.062,-0.90774 0.9098,-0.90774 z m -61.3272,2.02176 c 0.788,0 1.1449,1.14909 0.5446,1.7515 -0.3651,0.36516 -1.3533,-0.5075 -1.3533,-1.19449 0,-0.30532 0.3651,-0.55701 0.8087,-0.55701 z m 79.5437,1.2605 c 0.4291,0.009 0.557,0.23725 0.557,0.85616 0,1.43998 -0.8665,2.14553 -1.5266,1.244 -0.2847,-0.3961 -0.4683,-0.99026 -0.4023,-1.32859 0.062,-0.33627 0.524,-0.67254 1.0232,-0.74269 a 2.2198048,2.2198048 0 0 1 0.3507,-0.0289 z m 10.6121,2.36009 c 0.2373,0 0.4848,0.13823 0.6767,0.44355 0.3899,0.63129 -0.1011,1.59884 -0.8087,1.59884 -0.392,0 -0.6189,-0.37134 -0.6189,-1.01089 0,-0.64159 0.3589,-1.0315 0.753,-1.0315 z m -97.364,1.64836 c 0.5323,-0.009 1.1388,0.20629 1.2997,0.62508 0.132,0.35072 -0.072,1.05008 -0.4518,1.55551 l -0.6952,0.92218 -0.5158,-0.99644 c -0.2826,-0.54877 -0.5158,-1.24812 -0.5158,-1.55551 0,-0.36516 0.4085,-0.54464 0.881,-0.55082 z m 61.5521,0.59827 a 0.59414853,0.59414853 0 0 1 0.4209,0.19392 c 0.4188,0.41879 0.05,1.62978 -0.4993,1.62978 -0.2063,0 -0.4889,-0.30946 -0.6333,-0.67667 -0.2228,-0.58796 0.2372,-1.15529 0.7117,-1.14497 z m -49.0832,1.81958 c 0.7798,0 1.0954,0.79219 0.5384,1.34921 -0.557,0.55702 -1.3471,0.23724 -1.3471,-0.54051 0,-0.53846 0.2702,-0.8087 0.8087,-0.8087 z m 60.2751,0.8087 c 0.5157,0 0.8108,0.27232 0.8108,0.74269 0,1.30795 -0.949,1.74943 -1.374,0.63953 -0.4106,-1.06864 -0.2826,-1.38222 0.5632,-1.38222 z m -57.9831,5.66298 c 0.2971,0 0.5384,0.36515 0.5384,0.81076 0,0.91804 -1.015,1.09959 -1.3451,0.24137 -0.2517,-0.66223 0.047,-1.05213 0.8067,-1.05213 z m 47.1254,1.58027 c 0.5282,-0.002 1.1285,0.31563 1.2874,0.92836 0.1279,0.48893 0.031,1.13053 -0.2125,1.42553 -0.3652,0.43943 -0.5777,0.41468 -1.1966,-0.1444 -0.4126,-0.37341 -0.7509,-1.015 -0.7509,-1.42349 0,-0.53019 0.4105,-0.78395 0.8747,-0.786 z m -62.7259,2.46736 c 0.8582,0.0226 1.017,0.80045 0.297,1.52045 -0.6086,0.60652 -1.1491,0.262 -1.1491,-0.7365 0,-0.51576 0.2765,-0.78395 0.8087,-0.78395 h 0.041 z m 4.9058,1.3554 a 1.2749437,1.2749437 0 0 1 0.4435,0.0887 c 0.7943,0.30532 0.8727,1.02532 0.1837,1.71231 -0.6334,0.63334 -1.2936,0.40642 -1.4689,-0.50544 -0.1485,-0.76745 0.2372,-1.29971 0.8376,-1.29971 z m 66.5075,1.94337 c 0.5818,0.0124 0.786,0.78187 0.2764,1.2935 -0.4249,0.42499 -1.1367,0.0619 -1.1367,-0.57764 0,-0.30945 0.3198,-0.62715 0.7076,-0.70142 a 0.73855962,0.73855962 0 0 1 0.1589,-0.0165 z m -54.5131,6.80176 a 0.89741183,0.89741183 0 0 1 0.5838,0.27644 c 0.3074,0.30533 -0.458,1.35127 -0.9902,1.35127 -0.196,0 -0.3549,-0.36515 -0.3549,-0.80869 0,-0.52195 0.3569,-0.83759 0.7613,-0.82108 z m 41.9308,1.62978 c 1.1924,0 1.7143,0.9593 0.9943,1.82577 -0.6044,0.72824 -0.8974,0.75093 -1.5328,0.11962 -0.8747,-0.87679 -0.5818,-1.94337 0.5364,-1.94337 z m -55.2827,1.6174 c 0.9862,0 1.3534,0.50956 1.013,1.40079 -0.3611,0.93455 -1.5432,0.59209 -1.6979,-0.49512 -0.099,-0.6808 0.074,-0.90567 0.6829,-0.90567 z m 65.181,1.6174 c 0.8933,0 1.0707,0.79221 0.3425,1.52252 -0.6086,0.60651 -1.1491,0.25993 -1.1491,-0.7365 0,-0.51576 0.2764,-0.78395 0.8087,-0.78395 z m -47.5484,4.09097 a 2.492123,2.492123 0 0 1 0.3157,0.0289 c 1.1243,0.16297 1.376,1.22748 0.4992,2.10634 -0.8706,0.87058 -1.4049,0.4848 -1.4049,-1.01707 0,-0.8706 0.099,-1.12642 0.5921,-1.11816 z m 55.1774,0.13409 c 0.2414,0 0.458,0.0598 0.5942,0.19186 0.6437,0.64366 -0.4951,1.78245 -1.1965,1.19861 -0.3074,-0.25168 -0.5529,-0.59827 -0.5529,-0.7695 0,-0.36516 0.6251,-0.62922 1.1552,-0.62303 z m -19.3593,3.46175 c 0.786,0 1.1429,1.14909 0.5426,1.74943 -0.3652,0.36516 -1.3534,-0.5075 -1.3534,-1.19242 0,-0.30739 0.3652,-0.55701 0.8087,-0.55701 z m -46.5334,2.83045 c 0.9139,0 1.244,0.76126 0.751,1.7185 -0.489,0.94898 -1.4359,0.8974 -1.7495,-0.099 -0.3259,-1.02532 0.041,-1.61947 1.0006,-1.61947 z m 56.2172,1.21511 c 0.9325,0 1.3967,0.61685 1.0831,1.43381 -0.2765,0.71587 -0.7365,0.74887 -1.3822,0.10321 -0.7365,-0.7365 -0.5818,-1.53695 0.3012,-1.53695 z m -32.7194,0.40436 c 0.4951,0 0.7839,0.27645 0.7839,0.74269 0,1.34714 -1.3224,1.82164 -1.7762,0.63747 -0.3301,-0.86234 0.039,-1.38016 0.9902,-1.38016 z m 13.1434,0.80871 c 0.7097,0 1.1182,0.70142 0.8376,1.43585 -0.2764,0.72 -1.3327,0.77363 -1.572,0.0783 -0.2579,-0.74268 0.1177,-1.51631 0.7344,-1.51631 z m -18.9343,1.00262 a 0.30326331,0.30326331 0 0 1 0.1588,0.0413 c 0.5158,0.31976 0.021,0.97787 -0.7323,0.97787 -0.5158,0 -0.5405,-0.11353 -0.1341,-0.60241 0.2125,-0.25788 0.4992,-0.42085 0.7097,-0.41467 z m 46.3786,1.66073 c 0.1136,0.004 0.2559,0.12373 0.4745,0.34039 0.3219,0.32184 0.5777,0.86647 0.5777,1.21513 0,0.70142 -1.0212,0.86645 -1.4173,0.22692 -0.1382,-0.22281 -0.1382,-0.77157 0,-1.21718 0.1237,-0.39403 0.2125,-0.57352 0.361,-0.56732 z m -54.379,0.24137 a 0.67460614,0.67460614 0 0 1 0.4704,0.22281 c 0.4951,0.49511 0.2063,1.72674 -0.4064,1.72674 -0.2063,0 -0.489,-0.30121 -0.6313,-0.67461 -0.2558,-0.6746 0.1032,-1.277 0.5632,-1.27494 z m 22.7489,5.60728 c 0.2125,0 0.5054,0.0783 0.8974,0.22693 0.7509,0.28882 0.8417,1.41316 0.1671,2.08571 -0.557,0.55702 -1.5163,-0.458 -1.5369,-1.6236 -0.01,-0.4683 0.1176,-0.68698 0.4745,-0.68904 z m 18.0204,0.38578 a 0.92423104,0.92423104 0 0 1 0.6396,0.26819 c 0.3631,0.36515 -0.5426,1.3946 -0.9903,1.12022 -0.196,-0.12373 -0.3589,-0.48481 -0.3589,-0.80458 0,-0.37134 0.3362,-0.59002 0.7076,-0.58383 z m -7.5836,1.61946 c 0.9098,0 1.1058,1.16148 0.3259,1.93924 -0.5632,0.56321 -1.1181,-0.0433 -1.1284,-1.23161 0,-0.43944 0.3012,-0.70763 0.8025,-0.70763 z m -40.889,0 c 0.4601,0 0.8397,0.24345 0.8397,0.54051 0,1.23781 -1.31,1.35334 -1.5473,0.13204 -0.089,-0.45386 0.1444,-0.6746 0.7097,-0.6746 z m 17.8802,0.27645 c 0.4332,0.0226 0.8499,0.51989 0.6271,1.09958 -0.2805,0.72826 -0.9077,0.84997 -1.2832,0.24757 -0.1382,-0.22281 -0.099,-0.66842 0.085,-0.99438 0.1486,-0.262 0.3611,-0.36514 0.5715,-0.35071 z m 44.9304,1.58027 a 0.58177043,0.58177043 0 0 1 0.1857,0.0454 c 0.5776,0.22281 0.7261,1.01913 0.2743,1.46886 -0.3961,0.39611 -0.4311,0.36103 -0.6312,-0.70142 -0.1093,-0.56939 -0.062,-0.81902 0.1671,-0.81076 z m -51.4042,0.3961 a 1.6462866,1.6462866 0 0 1 0.3549,0.0577 c 0.9056,0.23725 1.048,0.92835 0.3424,1.63803 -0.6416,0.64161 -1.1491,0.24344 -1.1491,-0.89947 0,-0.5859 0.1032,-0.80871 0.4539,-0.79839 z m 45.1821,1.79895 a 0.48274567,0.48274567 0 0 1 0.3466,0.12997 c 0.13,0.1279 0.13,0.51576 0,0.86027 -0.3094,0.80665 -1.4792,0.81078 -1.4792,0.004 0,-0.50543 0.6561,-0.99849 1.1388,-0.99437 z m -28.6016,3.23274 c 0.8788,0 1.0377,1.18418 0.2682,1.95575 -0.4023,0.39609 -0.6024,0.36721 -0.9861,-0.16299 -0.2662,-0.36514 -0.3838,-0.91598 -0.2662,-1.22748 0.1197,-0.31152 0.5612,-0.56734 0.9841,-0.56734 z m 12.0934,3.63916 c 0.7798,0 1.0934,0.7922 0.5384,1.34922 -0.557,0.55701 -1.3492,0.24137 -1.3492,-0.53846 0,-0.5405 0.2723,-0.81076 0.8087,-0.81076 z m 22.8706,2.25488 c 0.1155,0.01 0.2083,0.2063 0.3115,0.61478 0.1341,0.50131 0.1485,1.06246 0.033,1.24606 -0.3651,0.59003 -0.9676,0.3569 -0.9614,-0.37134 a 2.7850713,2.7850713 0 0 1 0.3446,-1.24813 c 0.1032,-0.16297 0.1939,-0.24755 0.2682,-0.24137 z m -12.244,0.99025 a 0.69523629,0.69523629 0 0 1 0.6993,0.73443 c 0,0.41054 -0.1237,0.86646 -0.2826,1.02119 -0.4126,0.41261 -1.4792,-0.80457 -1.1594,-1.32033 a 0.86027754,0.86027754 0 0 1 0.7386,-0.43322 z m 6.5397,6.06113 c 0.7964,0 1.1388,0.65605 0.8397,1.59884 -0.3404,1.07278 -1.4214,0.59415 -1.4214,-0.63127 0,-0.57352 0.2372,-0.96963 0.5838,-0.96963 z m -11.6354,4.62323 a 0.85615151,0.85615151 0 0 1 0.3054,0.0742 c 0.7468,0.28883 0.8726,1.51839 0.1279,1.27083 -0.2765,-0.0929 -0.5632,-0.47037 -0.6354,-0.84171 -0.064,-0.33628 0,-0.49925 0.198,-0.49925 z m 16.6733,1.44411 c 0.5839,0 0.8541,0.25581 0.8541,0.8087 0,0.44974 -0.2723,0.8087 -0.6065,0.8087 -0.3363,0 -0.6065,-0.0742 -0.6065,-0.16917 0,-0.0929 -0.1093,-0.45799 -0.2476,-0.8087 -0.1774,-0.46005 0,-0.63953 0.6065,-0.63953 z m -10.7627,1.60915 c 0.4889,-0.004 1.0315,0.52606 0.8334,1.03563 -0.2269,0.59209 -0.3094,0.59416 -0.8788,0.0247 -0.3445,-0.34658 -0.5116,-0.7468 -0.3652,-0.89121 a 0.5776444,0.5776444 0 0 1 0.4106,-0.16917 z m 8.2892,7.75075 c 0.3445,0.004 0.4951,0.24138 0.4951,0.753 0,0.60859 -0.2125,0.82933 -0.7076,0.73237 -0.3899,-0.0742 -0.7076,-0.40435 -0.7076,-0.73237 0,-0.32596 0.3218,-0.65604 0.7076,-0.73237 a 1.0686421,1.0686421 0 0 1 0.2125,-0.0206 z m -10.8659,2.19712 c 0.3115,0 0.4394,0.17122 0.4394,0.55082 0,1.27494 -0.9531,1.69166 -1.3719,0.6024 -0.3363,-0.87679 -0.3445,-0.85822 0.5652,-1.09546 a 1.5266316,1.5266316 0 0 1 0.3714,-0.0598 z m 17.4324,3.50711 a 0.63953487,0.63953487 0 0 1 0.4518,0.19805 c 0.5467,0.54671 -0.01,1.72056 -0.689,1.45856 -0.3156,-0.12372 -0.5735,-0.46417 -0.5735,-0.75919 0,-0.52607 0.4105,-0.90153 0.8128,-0.89535 z m -14.7381,2.33121 a 0.60858963,0.60858963 0 0 1 0.5776,0.60653 0.60652661,0.60652661 0 1 1 -0.6086,-0.60653 z m 7.4289,2.83047 c 0.9325,0 1.3987,0.6189 1.0851,1.43585 -0.3012,0.78395 -1.3162,0.74887 -1.6236,-0.0557 -0.4126,-1.06245 -0.2826,-1.38221 0.5385,-1.38221 z m -7.9385,5.69392 a 1.446174,1.446174 0 0 1 0.4539,0.1052 0.64572391,0.64572391 0 0 1 0.3816,0.86027 c -0.3074,0.79839 -0.9201,0.79839 -1.2275,-0.002 -0.2372,-0.62096 -0.07,-0.98198 0.392,-0.96342 z m 14.6371,2.80158 c 0.6271,0 0.8046,0.47861 0.3507,0.93453 -0.3198,0.31977 -0.9552,-0.0433 -0.9552,-0.55289 0,-0.20835 0.2724,-0.38164 0.6066,-0.38164 z m -9.2506,0.43322 c 1.0604,0.004 1.3657,0.29915 1.0893,1.02326 -0.2826,0.73857 -1.3451,0.73444 -1.3451,-0.006 0,-0.31769 -0.2269,-0.66635 -0.5054,-0.77775 -0.2765,-0.11353 -0.035,-0.21662 0.5384,-0.23725 a 7.7651911,7.7651911 0 0 1 0.2228,-0.004 z m -8.1448,4.42105 c 0.6107,0 0.8335,0.85615 0.3508,1.33889 -0.3796,0.37547 -0.9552,-0.0783 -0.9552,-0.75506 a 0.59621154,0.59621154 0 0 1 0.6065,-0.58383 z m 19.0149,6.8781 c 1.1016,0 0.7179,1.19861 -0.5075,1.58645 -0.054,0.0185 -0.099,-0.33008 -0.099,-0.77776 0,-0.44974 0.2723,-0.80869 0.6065,-0.80869 z m -19.6441,0 c 0.5096,0 0.8747,0.63127 0.5509,0.95516 -0.4539,0.45387 -0.9325,0.27645 -0.9325,-0.34658 0,-0.33627 0.1733,-0.60653 0.3816,-0.60653 z m 10.7442,0.80869 c 0.6313,0 0.8025,0.47863 0.3363,0.94486 -0.4642,0.46419 -0.9449,0.29708 -0.9449,-0.33626 a 0.60652661,0.60652661 0 0 1 0.6065,-0.60653 z m -3.8455,9.70855 a 0.41260314,0.41260314 0 0 1 0.4044,0.40642 c 0,0.22281 -0.078,0.40435 -0.1774,0.40435 -0.099,0 -0.2909,-0.18154 -0.4312,-0.40435 -0.1361,-0.22281 -0.058,-0.40642 0.1795,-0.40642 h 0.021 z m -5.4587,0 c 1.1285,0 1.1883,0.12373 0.5983,1.22544 -0.4993,0.93661 -1.6092,0.6189 -1.6092,-0.45799 0,-0.54877 0.2889,-0.76745 1.0109,-0.76745 z m 19.0128,0.40642 c 0.6086,0 0.8314,0.85408 0.3507,1.33684 -0.3755,0.37547 -0.9552,-0.0783 -0.9552,-0.753 a 0.59621154,0.59621154 0 0 1 0.6065,-0.58384 z m -6.6821,5.75581 c 0.7303,-0.009 0.9778,0.90154 0.1526,1.72675 -0.6622,0.66429 -0.7158,0.65191 -1.0418,-0.22693 -0.2311,-0.62923 -0.1774,-1.02739 0.1795,-1.25226 a 1.3842835,1.3842835 0 0 1 0.7138,-0.24756 z m 6.6821,0.71174 a 0.607565,0.607565 0 1 1 0,1.21513 0.607565,0.607565 0 0 1 0,-1.21513 z m -17.7585,5.68155 c 0.5323,0.01 0.6602,0.36516 0.3858,1.0769 -0.262,0.68079 -0.3177,0.67666 -0.8788,-0.0826 -0.5344,-0.72205 -0.5282,-0.82519 0.058,-0.94898 a 1.9846211,1.9846211 0 0 1 0.4353,-0.0475 z m 17.4862,0.43942 c 0.6911,0.0206 0.5982,1.04595 -0.2332,1.53076 -0.9448,0.55082 -0.9263,0.56527 -0.7674,-0.47449 0.074,-0.49926 0.4394,-0.96756 0.8066,-1.03976 a 0.86646659,0.86646659 0 0 1 0.194,-0.0185 z m -10.4265,6.82446 c 0.5116,0.0185 0.788,0.27644 0.788,0.74062 0,1.53695 -1.3224,1.65454 -1.5472,0.13822 -0.097,-0.66016 0.08,-0.87884 0.7097,-0.87884 z"
   fill="#ffffff"
   id="path21"
   style="stroke-width:2.06302" /></svg>
