<?xml version="1.0" encoding="UTF-8" standalone="no"?>
<svg
   xml:space="preserve"
   viewBox="0 0 2206.9999 400"
   version="1.1"
   id="svg235"
   sodipodi:docname="cactus_3.svg"
   width="2207"
   height="400"
   inkscape:version="1.1 (c4e8f9e, 2021-05-24)"
   xmlns:inkscape="http://www.inkscape.org/namespaces/inkscape"
   xmlns:sodipodi="http://sodipodi.sourceforge.net/DTD/sodipodi-0.dtd"
   xmlns="http://www.w3.org/2000/svg"
   xmlns:svg="http://www.w3.org/2000/svg"><defs
   id="defs239" /><sodipodi:namedview
   id="namedview237"
   pagecolor="#505050"
   bordercolor="#ffffff"
   borderopacity="1"
   inkscape:pageshadow="0"
   inkscape:pageopacity="0"
   inkscape:pagecheckerboard="1"
   showgrid="false"
   fit-margin-top="0"
   fit-margin-left="0"
   fit-margin-right="0"
   fit-margin-bottom="0"
   inkscape:zoom="0.22014228"
   inkscape:cx="1828.363"
   inkscape:cy="127.19047"
   inkscape:window-width="1792"
   inkscape:window-height="982"
   inkscape:window-x="0"
   inkscape:window-y="25"
   inkscape:window-maximized="1"
   inkscape:current-layer="svg235" />
    <path
   d="m 60.82728,266.35987 c -1.235868,-0.17124 -2.490049,-0.47218 -3.586348,-1.08095 -0.981967,-0.57909 -1.451169,-1.70062 -1.526893,-2.79741 -0.148504,-1.98472 0.09011,-3.9724 0.113814,-5.95811 0.368739,-13.15159 0.341512,-26.31902 1.026505,-39.44983 0.176215,-4.63117 0.273236,-9.28461 -0.173244,-13.90341 -0.09357,-0.88495 -0.280147,-1.75605 -0.496443,-2.61824 -3.682368,-2.26881 -7.913131,-3.56853 -11.373759,-6.20756 -1.583814,-1.25715 -2.559844,-3.18693 -3.124078,-5.03949 -1.323471,-3.96597 -2.200511,-8.06656 -2.95876,-12.17309 a 60.731335,60.731335 0 0 1 -0.570177,-3.88282 c -0.02764,-0.35637 -0.09502,-0.93396 -0.120793,-1.37842 -0.175732,-2.72416 0.361275,-5.42653 0.621658,-8.12892 0.685511,-5.6458 1.516009,-11.27626 2.635562,-16.85277 0.732025,-3.97091 1.299223,-7.975 1.819907,-11.97016 0.348422,-2.28811 0.726572,-4.62424 1.728828,-6.73121 0.631057,-1.31951 1.760015,-2.42521 3.193859,-2.81622 1.877809,-0.60382 4.059019,-0.0594 5.401301,1.39673 2.022824,2.05797 2.794936,4.96426 3.288891,7.72504 0.439984,2.6034 0.519661,5.2548 0.392026,7.88739 -0.0387,0.64737 -0.08811,1.46454 -0.156866,2.17824 -0.316288,4.306 -1.56897,8.47588 -1.909486,12.77841 -0.399905,3.99864 -0.521666,8.01757 -0.854767,11.98749 -0.195495,2.38612 -0.180154,4.81034 0.378136,7.15043 0.454842,2.07628 1.055708,4.14266 1.982239,6.05908 0.414278,0.89485 1.683793,1.05422 2.387106,0.41621 0.508812,-0.61965 1.474926,-0.58455 1.906515,-1.29922 1.763476,-2.34058 2.368295,-5.3038 2.651407,-8.16159 0.48504,-5.34636 0.697369,-10.72539 0.430586,-16.09056 -0.190519,-4.45148 -0.650821,-8.88418 -1.078975,-13.31688 -0.69985,-8.05863 -0.856253,-16.25189 -1.313575,-24.3734 -0.105453,-1.5452 -0.01866,-3.14684 0.103932,-4.62621 0.355401,-3.96152 0.786962,-8.03786 1.560553,-11.98997 0.559258,-2.97559 1.597676,-6.058085 3.902616,-8.143773 2.034213,-1.879295 5.054344,-2.341075 7.677536,-1.657064 1.831779,0.377653 3.776903,1.144797 4.767777,2.837007 1.054229,1.602126 1.595195,3.490329 1.879295,5.36517 0.287058,0.60182 1.031459,0.76468 1.612519,0.51821 0.935937,-0.0325 1.832768,0.32665 2.747918,0.47958 -0.340061,-1.44128 -1.003251,-2.864235 -0.880502,-4.373314 0.207865,-1.311592 1.37049,-2.147051 2.242084,-3.038941 0.828038,-0.908212 2.046091,-1.460076 3.284433,-1.363068 1.147775,-0.08216 2.42769,0.248981 3.090418,1.263586 1.076501,1.451169 1.354658,3.298786 1.666966,5.032567 0.05805,0.55332 0.103932,1.10817 0.157902,1.66201 1.953534,-0.29003 4.09465,-0.80972 5.953157,0.14008 1.86346,1.06313 2.69347,3.31808 2.71574,5.37308 0.005,1.82139 -0.82605,3.56556 -2.09904,4.84449 -0.48656,0.33951 -0.30834,0.59443 0.16336,0.8122 1.08095,0.72559 2.21981,1.55709 2.74693,2.789 0.46818,1.43434 0.25492,2.97905 0.0643,4.44358 -0.21726,1.2918 -0.71272,2.81474 -2.07034,3.29632 -0.82705,0.2856 -1.70409,0.5068 -2.57766,0.53797 -1.299222,-0.16184 -2.433625,-0.89584 -3.571994,-1.48928 -0.612745,-0.36183 -1.174498,-0.80181 -1.76298,-1.20122 -0.926531,2.06192 -1.656573,4.40201 -3.525475,5.83041 -1.521447,1.08888 -3.619013,1.35417 -5.365166,0.68897 -1.164104,-0.56327 -2.06638,-1.63084 -2.553901,-2.81523 -0.16039,-0.55926 -0.226177,-1.14133 -0.346487,-1.71052 -0.791904,0.25838 -1.574906,0.688 -2.4361,0.5207 -0.517243,-0.14353 -0.714701,0.0428 -0.583997,0.56575 0.107387,2.39057 -0.4489,4.73857 -0.665195,7.10737 -0.527125,4.26837 -0.903271,8.53626 -1.498194,12.78434 -0.346487,2.41878 -0.337019,4.87072 -0.469699,7.30732 -0.300464,7.96856 -0.539011,15.94208 -0.534519,23.91658 0.05321,3.83382 0.08714,7.6909 0.703312,11.48364 0.320712,1.46205 0.656764,3.07358 1.818912,4.1189 0.392027,0.32963 0.824078,0.60881 1.232407,0.91762 0.975533,-1.56649 1.789218,-3.2384 2.285149,-5.02118 1.378906,-4.9707 2.005009,-10.11463 2.459858,-15.24173 0.371226,-3.81105 0.351393,-7.65081 0.771614,-11.45691 0.399421,-2.68259 1.948095,-5.34291 4.45844,-6.53324 1.744169,-0.84536 4.083759,-0.734 5.460689,0.74588 1.25814,1.42048 1.797628,3.3171 2.177748,5.1375 0.756764,3.83085 0.805268,7.83988 0.793389,11.77962 0.03593,2.10845 -0.146017,4.22135 -0.640455,6.27437 -0.720637,3.12308 -1.506107,6.2328 -2.325237,9.33164 -0.455326,1.5843 -0.933953,3.21216 -1.977789,4.52376 -2.577659,3.32799 -5.003863,6.80792 -8.030926,9.7548 -4.477741,4.00606 -8.121003,8.82234 -12.377501,13.04617 -1.185388,1.33684 -1.18489,3.22801 -1.324964,4.90834 -0.28609,4.7653 -0.177182,9.54198 -0.203442,14.31273 0.02764,8.61149 0.01382,17.22546 0.27766,25.83299 0.06427,1.174 0.466728,2.5242 -0.349942,3.53536 -1.301697,1.75953 -3.506658,2.47967 -5.558195,2.93006 -1.411572,0.19895 -2.856804,0.14505 -4.245607,0.50681 -0.500381,0.0718 -1.01117,0.11381 -1.515518,0.0567 z"
   id="path231"
   style="stroke-width:0.494942" />
    <path
   d="m 72.200052,92.002286 c -1.845144,0.03939 -3.677912,0.598855 -5.16026,1.71943 -2.460853,1.852566 -3.782348,4.813309 -4.498036,7.732474 -0.758741,3.32849 -1.178948,6.72428 -1.55857,10.11364 -0.248982,2.72119 -0.61468,5.45673 -0.430103,8.19377 0.528092,9.29747 0.640939,18.62514 1.657064,27.88995 0.407367,4.19662 0.749839,8.47291 0.832494,12.69031 0.03732,1.62144 0.0235,3.3176 -0.01797,4.89152 -0.118305,3.00726 -0.268261,6.00859 -0.586001,8.94359 -0.316772,2.37671 -0.848333,4.8539 -2.334641,6.79753 -0.231153,0.49396 -0.805766,0.45637 -1.197758,0.74637 -0.366251,0.12031 -0.543433,0.59741 -0.932965,0.61572 -0.504804,0.11188 -0.606802,-0.45339 -0.795372,-0.78498 a 29.898443,29.898443 0 0 1 -1.890684,-6.64707 c -0.479097,-2.86571 -0.02695,-5.79132 0.123765,-8.64069 0.224174,-3.24188 0.343516,-6.39862 0.710244,-9.61277 0.331629,-3.57001 1.316049,-7.03708 1.686757,-10.60066 0.541982,-4.81182 0.588489,-9.77411 -0.713207,-14.47407 -0.683991,-2.42719 -1.862966,-4.88855 -3.979827,-6.37337 -1.852572,-1.2918 -4.389149,-1.39573 -6.38277,-0.36922 -1.636277,0.77557 -2.656355,2.3876 -3.262659,4.03476 -1.180433,3.33542 -1.428896,6.89603 -1.938192,10.3725 -0.124249,0.91564 -0.290029,1.96491 -0.423676,2.86125 -0.323199,1.96987 -0.648402,3.93974 -1.029476,5.89971 -1.048292,5.25876 -1.781796,10.57245 -2.435118,15.89258 -0.2514,2.43512 -0.668166,4.86578 -0.641907,7.3202 0.149956,2.8766 0.66174,5.72301 1.210625,8.54665 0.755278,3.53883 1.533824,7.09004 2.763756,10.4992 0.626566,1.91295 1.732297,3.68732 3.323533,4.94347 3.355707,2.54401 7.430558,3.84224 11.020866,5.99078 0.384563,1.46701 0.482069,2.98796 0.566721,4.46487 0.213808,4.01348 0.124249,8.05567 -0.0463,12.03203 -0.623594,11.88009 -0.631541,23.77998 -0.920589,35.67045 -0.05321,1.83426 -0.07228,3.59328 -0.170272,5.40329 -0.03386,1.68379 -0.257896,3.42004 0.221755,5.06276 0.360307,1.30763 1.430872,2.3089 2.690996,2.75385 1.118572,0.40537 2.291085,0.73152 3.482907,0.79587 0.555319,0.01 1.109166,-0.0484 1.65508,-0.14602 1.580849,-0.4281 3.2587,-0.16827 4.828658,-0.66423 2.13518,-0.54447 4.380235,-1.5259 5.563142,-3.48785 0.753302,-1.22251 0.353397,-2.6915 0.274688,-4.02636 -0.244973,-9.13266 -0.242555,-18.27077 -0.262318,-27.40641 0.03455,-4.35301 -0.06703,-8.71444 0.246977,-13.06002 0.135098,-1.27448 0.16039,-2.72713 1.091344,-3.71553 3.902617,-3.84669 7.248428,-8.22445 11.244093,-11.98105 2.826116,-2.48164 5.098391,-5.49683 7.372159,-8.47143 1.093818,-1.5066 2.42373,-2.89046 3.102296,-4.65344 0.950283,-2.51629 1.474927,-5.16571 2.165365,-7.7597 0.704307,-2.98697 1.605594,-5.96998 1.643204,-9.06436 0.0622,-3.62792 0.0373,-7.26822 -0.357816,-10.87833 -0.344967,-2.54397 -0.773121,-5.18399 -2.151537,-7.39935 -0.829026,-1.3413 -2.248517,-2.30693 -3.832331,-2.45095 -2.257929,-0.29798 -4.516342,0.7731 -5.989292,2.45639 -1.56501,1.69815 -2.428678,3.95261 -2.605377,6.23973 -0.285054,3.11962 -0.319744,6.25657 -0.575083,9.37915 -0.306337,3.99715 -0.76469,8.08983 -1.52739,12.08896 -0.577571,2.78206 -1.14926,5.65223 -2.643985,8.1116 -0.401909,-0.2722 -0.716179,-0.6578 -0.948306,-1.08096 -0.93395,-2.01738 -1.063133,-4.28322 -1.263085,-6.46591 -0.229148,-3.42253 -0.267294,-6.9282 -0.249465,-10.41605 0.07919,-7.39642 0.283119,-14.79728 0.579091,-22.17686 0.138553,-2.18616 0.10642,-4.3936 0.503353,-6.55501 0.572664,-4.43468 0.987903,-8.90599 1.541743,-13.32086 0.190036,-1.90701 0.614748,-3.80313 0.553315,-5.72747 0.430587,0.0345 0.864172,-0.0504 1.262107,-0.21381 0.06427,0.48255 0.231637,0.94633 0.454358,1.37743 0.758741,1.28783 1.867907,2.50341 3.343822,2.93599 1.751107,0.47364 3.709595,0.2534 5.292911,-0.64736 2.011443,-1.17796 3.020629,-3.40718 3.889749,-5.46664 0.43653,0.32023 0.903265,0.59886 1.380393,0.85427 1.21607,0.60432 2.472725,1.36753 3.876385,1.32645 1.2522,-0.22867 2.61477,-0.39797 3.64128,-1.22201 1.16311,-1.03344 1.54917,-2.65289 1.73625,-4.13821 0.14105,-1.59717 0.31726,-3.3364 -0.45878,-4.80737 -0.62953,-0.99186 -1.52343,-1.81891 -2.50292,-2.46134 1.50611,-1.63727 2.23466,-3.94172 1.93027,-6.14718 -0.28063,-2.04807 -1.28833,-4.16989 -3.16762,-5.19293 -1.69419,-0.90426 -3.712065,-0.71816 -5.538399,-0.40978 a 13.633171,13.633171 0 0 0 -0.122729,-1.079967 c -0.385047,-1.922354 -0.75874,-4.015954 -2.156457,-5.492366 -0.928017,-1.060165 -2.412349,-1.318033 -3.753642,-1.227459 -1.292292,-0.05874 -2.534594,0.496443 -3.469542,1.367525 -0.970088,0.97355 -2.128249,1.870878 -2.648429,3.18594 -0.435562,1.271505 -0.05321,2.640516 0.301432,3.884307 -0.466245,-0.11188 -0.952266,-0.20096 -1.432856,-0.14505 -0.260315,-0.0145 -0.698862,0.3252 -0.61772,-0.13911 -0.395966,-2.249504 -1.181422,-4.514357 -2.687528,-6.269915 -1.453152,-1.536305 -3.597239,-2.133694 -5.619075,-2.483623 a 9.9334816,9.9334816 0 0 0 -1.836236,-0.131159 z m 0.182641,1.981749 c 1.988673,0 4.538124,0.786465 5.569085,1.718442 1.701608,1.539262 3.160206,6.506993 2.155469,7.340973 -1.65063,1.37049 -2.092612,5.33893 -0.825564,7.41769 1.001268,1.64222 0.942868,3.76057 -0.135098,4.92418 -1.824848,1.96887 -2.125775,6.10807 -0.595399,8.17792 0.753302,1.01958 0.755776,1.08689 0.213324,5.25381 -0.301915,2.32226 -0.803783,6.65201 -1.1156,9.62166 -0.311797,2.96965 -0.643427,5.6265 -0.737464,5.90465 -0.351877,1.04334 -1.04729,23.56765 -0.967607,31.34962 0.111327,10.86199 0.885947,14.7656 3.246323,16.3697 1.706065,1.15916 2.374238,0.77459 3.746711,-2.15894 1.885224,-4.02881 3.403209,-13.4733 3.874395,-24.1086 0.23364,-5.28104 0.383112,-6.35407 1.090363,-7.83147 1.410584,-2.94639 3.990219,-4.403 6.384746,-3.60466 2.419771,0.80675 3.735323,5.74132 3.816492,14.3157 0.05667,5.9685 0.02557,6.25705 -1.313575,11.69844 -2.049056,8.32987 -2.288114,9.04654 -3.56011,10.69965 -0.643427,0.83645 -2.329196,3.03201 -3.746711,4.87864 -1.418013,1.84712 -3.504191,4.1491 -4.63563,5.11572 -1.131431,0.96662 -3.748189,3.68385 -5.814576,6.03828 -2.065883,2.35395 -4.456948,4.95635 -5.313691,5.78241 -2.515791,2.42522 -2.545485,2.72515 -2.483616,25.43902 0.02972,10.78973 0.169788,20.5089 0.311797,21.59777 0.239583,1.84613 0.189552,2.04708 -0.734001,2.97065 -1.086397,1.08639 -3.891726,2.06885 -5.907626,2.06885 -0.707769,0 -1.771893,0.13365 -2.364335,0.29694 -0.592428,0.16281 -1.564015,0.18313 -2.15795,0.0449 -3.714536,-0.86417 -3.91746,-1.21756 -3.65465,-6.37337 0.118789,-2.32523 0.304886,-10.54523 0.414761,-18.26631 0.108908,-7.72109 0.356853,-16.83793 0.549376,-20.25995 0.611777,-10.84913 0.27075,-19.20573 -0.839419,-20.55246 -0.236059,-0.28609 -2.411353,-1.45711 -4.834593,-2.60141 -5.742806,-2.71214 -7.276629,-3.79804 -8.476861,-6.00301 -1.7511,-3.21761 -4.579199,-15.97672 -4.574251,-20.64055 0.0049,-2.17032 1.639739,-14.82945 2.485101,-19.21166 1.22399,-6.34219 1.822872,-9.97457 2.380174,-14.44339 0.899809,-7.21378 1.954031,-9.79589 4.319362,-10.57691 6.664389,-2.19902 9.978026,9.75679 6.835145,24.66047 -0.584066,2.77019 -1.036407,6.51344 -1.26161,10.43833 -0.193007,3.3656 -0.453391,7.25387 -0.578123,8.6402 -0.124733,1.38583 -0.04768,3.67296 0.171239,5.08305 0.482553,3.10824 1.930273,7.51322 2.777121,8.44964 0.747359,0.82508 2.75138,0.91119 3.387378,0.14505 0.246493,-0.29694 0.66319,-0.54046 0.926041,-0.54046 0.682539,0 2.202487,-2.11489 2.863238,-3.98379 0.988393,-2.79349 1.227451,-4.42779 1.603114,-10.99913 0.386084,-6.75101 0.13268,-13.04172 -0.932965,-23.17219 -0.301915,-2.87066 -0.70826,-9.35044 -0.902774,-14.39884 -0.194527,-5.0484 -0.440468,-10.26311 -0.545437,-11.58856 -0.200954,-2.52717 0.926532,-12.65567 1.86593,-16.76616 1.259627,-5.512167 3.993682,-8.360058 8.02251,-8.360058 z m 18.122297,0.720139 c 1.368513,0 1.717446,0.159353 2.417787,1.106692 0.850808,1.151237 1.748136,5.677474 1.202705,6.066004 -0.159353,0.11333 -0.501901,1.25814 -0.760226,2.54499 -0.258379,1.28685 -0.495406,2.35988 -0.527608,2.38315 -0.03248,0.0235 -0.648886,0.14795 -1.370987,0.27814 -1.253691,0.22666 -1.369999,0.15839 -2.613787,-1.5358 -1.502154,-2.04609 -2.546977,-4.31342 -2.893437,-6.280818 -0.225693,-1.281401 -0.13261,-1.484822 1.351196,-2.969644 1.407122,-1.406631 1.782287,-1.592728 3.194357,-1.592728 z m -16.64737,6.590646 c -0.104416,9.9e-4 -0.253404,0.0359 -0.456363,0.0975 -1.029973,0.31677 -1.085408,0.38408 -0.83794,1.02849 0.273721,0.71321 1.193805,0.35533 1.432365,-0.55781 0.10642,-0.40584 0.09205,-0.56969 -0.138069,-0.56817 z m 24.936655,0.96514 c 1.904535,-9.9e-4 2.891945,0.68254 3.657125,2.29455 0.89683,1.89068 0.75825,4.08128 -0.36128,5.69776 -0.81318,1.17252 -1.13688,1.36505 -2.250994,1.3413 -0.715191,-0.0145 -1.867907,-0.23116 -2.560825,-0.4811 -0.755286,-0.2722 -1.301697,-0.73005 -1.363566,-1.14282 -0.270265,-1.78526 -0.48504,-2.27476 -1.083923,-2.46482 -0.61074,-0.19404 -0.615232,-0.33259 -0.08907,-2.51034 0.535556,-2.21536 0.607286,-2.31485 1.817427,-2.51529 0.864663,-0.14353 1.600143,-0.21927 2.235159,-0.21976 z m -15.509498,0.72261 c 0.873073,0 2.83552,0.98098 2.83552,1.41702 0,0.17518 0.609773,1.10224 1.356144,2.06044 l 1.357125,1.7422 -0.636032,1.26012 c -0.349943,0.69292 -0.637,1.75952 -0.637,2.37126 0,1.37594 -1.004239,1.89613 -3.060724,1.58877 -2.242083,-0.33412 -3.324023,-1.25518 -4.002091,-3.40619 -0.37019,-1.16955 -0.507776,-2.36186 -0.365283,-3.12209 0.288025,-1.53631 2.202494,-3.91153 3.152286,-3.91153 z m -15.578789,2.99787 c -0.491467,0.006 -1.024527,0.43804 -1.024527,1.00027 0,0.84388 1.364056,0.9389 1.679335,0.11727 0.11879,-0.31034 0.06012,-0.72063 -0.130675,-0.91168 a 0.71123133,0.71123133 0 0 0 -0.524153,-0.20593 z m 24.962887,2.43709 c 0.467212,0.008 0.694896,0.2069 1.085402,0.68897 1.102235,1.36108 0.270749,3.56704 -1.795154,4.76282 -1.037893,0.60086 -1.12005,0.59941 -1.908001,-0.0387 -0.769631,-0.62311 -0.801806,-0.80575 -0.488012,-2.78799 l 0.336536,-2.12082 1.582826,-0.3326 c 0.539494,-0.11285 0.905738,-0.1767 1.186376,-0.17172 z m -17.344248,0.36922 c -0.206414,0.004 -0.510747,0.24104 -0.932965,0.70776 -0.666715,0.73648 -0.667199,0.76321 -0.0049,1.24875 0.890397,0.65082 1.292782,0.35733 1.292782,-0.94237 0,-0.68399 -0.106904,-1.01958 -0.356369,-1.01464 z m -5.44436,3.04587 a 1.2482432,1.2482432 0 0 0 -0.31926,0.0449 c -0.797846,0.20883 -0.972064,1.0374 -0.269229,1.28091 0.479098,0.16578 0.975036,-0.3648 0.983943,-1.05274 0,-0.1722 -0.15341,-0.27123 -0.395965,-0.2722 z m 25.653823,0.56921 1.322483,0.55234 c 0.72707,0.30392 2.113405,0.56521 3.080024,0.58006 1.460073,0.0221 1.962443,0.21975 2.969653,1.16955 1.09877,1.03592 1.21112,1.33288 1.21112,3.18149 0,1.12104 -0.2326,2.59448 -0.51621,3.27404 -0.49989,1.19676 -0.68944,1.30368 -3.14188,1.78031 -0.32866,0.0643 -1.54274,-0.4044 -2.698924,-1.04186 -2.253963,-1.24231 -2.712281,-1.88771 -3.484883,-4.90586 -0.477647,-1.86593 -0.462789,-1.98868 0.382075,-3.26464 z m -9.338068,2.19259 c 1.187364,-0.018 2.136168,0.0615 2.266836,0.2722 0.108908,0.17621 -0.207864,0.77261 -0.702821,1.32645 -0.494923,0.55435 -1.65063,2.0253 -2.568745,3.26859 -1.461071,1.97977 -3.093389,3.33096 -4.004082,3.31364 -0.158386,-0.002 -0.69193,-0.20883 -1.186867,-0.45781 -0.687445,-0.34649 -0.926531,-0.78399 -1.014632,-1.85604 -0.149472,-1.81347 0.841403,-4.39013 1.973829,-5.13254 0.6162,-0.40336 3.257704,-0.70381 5.236482,-0.7345 z m 6.284276,1.14579 0.669133,2.52915 c 0.783991,2.96471 0.779043,3.02212 -0.480549,5.55969 -1.145791,2.30791 -2.521236,3.2676 -4.687105,3.26958 -1.242792,0.001 -1.76991,-0.21132 -2.609329,-1.05076 -0.579091,-0.57909 -1.052743,-1.39475 -1.052743,-1.81347 0,-0.79784 3.736815,-6.60599 4.903884,-7.6221 0.37171,-0.32416 1.256655,-0.65234 1.966407,-0.73004 z m -25.969593,1.61104 c -0.30537,0.003 -0.548409,0.20095 -0.548409,0.65283 0,0.79041 0.658284,1.53678 1.355149,1.53678 0.324166,0 0.453391,-0.33702 0.378136,-0.98988 -0.08417,-0.73103 -0.709255,-1.20369 -1.185388,-1.19973 z m 7.638437,2.56973 c -0.101445,0.009 -0.234125,0.17325 -0.473639,0.49893 -0.282635,0.38408 -0.514755,0.9107 -0.514755,1.16955 0,0.65034 1.055708,0.59492 1.310107,-0.0691 0.113814,-0.29694 0.09702,-0.82309 -0.03732,-1.16955 -0.113814,-0.29348 -0.183126,-0.4395 -0.284087,-0.43058 z m -5.672037,5.81408 c -0.135098,0.003 -0.275172,0.0608 -0.402876,0.1881 -0.460785,0.46127 -0.175178,1.53631 0.407852,1.53631 0.210352,0 0.480065,-0.25389 0.598854,-0.56424 0.230116,-0.59885 -0.162325,-1.17004 -0.60383,-1.16015 z m 5.213221,5.3236 c -0.650821,0 -1.051748,0.85625 -0.75874,1.61994 0.270265,0.7043 0.815661,0.68993 1.091344,-0.029 0.372194,-0.97011 0.242486,-1.59127 -0.332597,-1.59127 z m -25.56275,0.72014 c -0.602863,0 -0.996811,0.60432 -0.702815,1.07947 0.24601,0.3979 1.01958,0.48109 1.355149,0.14505 0.343515,-0.34352 -0.1257,-1.22449 -0.652341,-1.22449 z m 20.57968,0.18264 c -0.07076,-0.002 -0.17815,0.0822 -0.335569,0.24152 -0.639487,0.64688 -1.018101,1.72537 -0.755776,2.15003 0.311797,0.50536 1.201718,-0.80478 1.215082,-1.7902 0.0049,-0.40979 -0.02073,-0.59789 -0.123765,-0.60135 z m -16.980955,2.69744 c -0.720146,0 -1.044334,0.75577 -0.478614,1.11411 0.590977,0.3742 0.842881,0.39894 1.131431,0.11036 0.343516,-0.34352 -0.126183,-1.22498 -0.652824,-1.22498 z m 20.270336,4.1679 c -0.07228,0.002 -0.148504,0.0138 -0.227697,0.0345 -0.907224,0.23758 -1.267048,1.13493 -0.719642,1.79419 0.490016,0.59098 1.018095,0.48601 1.514026,-0.30046 0.475642,-0.75429 0.133647,-1.55115 -0.566721,-1.52838 z M 52.992851,139.487 c -0.19895,5e-4 -0.435562,0.065 -0.692919,0.20289 -0.627118,0.33557 -0.697867,0.52022 -0.354848,0.93297 0.57218,0.68993 1.289327,0.65137 1.571443,-0.0851 0.24601,-0.64046 -0.01658,-1.05225 -0.523669,-1.05076 z m -4.616812,0.93792 a 0.66718152,0.66718152 0 0 0 -0.573148,0.32368 c -0.29694,0.4791 0.910195,1.58481 1.301697,1.19281 0.178149,-0.17767 0.21975,-0.59291 0.09308,-0.92307 -0.147952,-0.38504 -0.494923,-0.5974 -0.821605,-0.59394 z m 17.554594,2.5143 c -0.223206,0.0152 -0.302399,0.36673 -0.106904,0.87654 0.187064,0.4885 0.301915,0.51966 0.533551,0.14505 0.162325,-0.26232 0.143045,-0.62954 -0.04353,-0.81566 -0.148988,-0.14947 -0.281115,-0.21284 -0.383112,-0.20593 z m 4.662352,1.88771 a 0.30339932,0.30339932 0 0 0 -0.08562,0.0152 c -0.605834,0.20144 -0.726573,1.38583 -0.176215,1.72635 0.597403,0.36922 1.121045,-0.45733 0.80676,-1.27498 -0.107871,-0.28208 -0.339507,-0.47267 -0.544469,-0.46624 z m -18.62565,1.63281 c -0.06772,0 -0.142078,0.008 -0.223689,0.0214 -0.937913,0.16184 -1.030471,0.27469 -0.775077,0.94039 0.117339,0.30586 0.553868,0.55484 0.96959,0.55484 0.578607,0 0.729047,-0.18955 0.640939,-0.80874 -0.07028,-0.49395 -0.246493,-0.70727 -0.611777,-0.70777 z m -6.708934,1.9971 c -0.103932,0.003 -0.173243,0.0806 -0.173243,0.21878 0,0.20938 0.161841,0.38159 0.359824,0.38159 0.197983,0 0.35934,-0.0723 0.35934,-0.15935 0,-0.0876 -0.161357,-0.25887 -0.35934,-0.38111 a 0.34645922,0.34645922 0 0 0 -0.186581,-0.0594 z m 29.178303,0.7627 a 0.92257144,0.92257144 0 0 0 -0.195979,0.0173 c -1.467505,0.28256 -1.870878,1.0443 -1.007701,1.90748 0.598854,0.59885 1.250221,0.53949 1.510066,-0.13759 0.41179,-1.07204 0.279663,-1.77238 -0.306338,-1.78673 z m -24.363514,2.47075 c -0.22521,9.9e-4 -0.507776,0.13267 -0.85823,0.3885 -0.687998,0.50287 -0.688966,0.52615 -0.02004,1.26458 1.030989,1.13935 1.716977,0.97058 1.582356,-0.38954 -0.08417,-0.85427 -0.301915,-1.26556 -0.70381,-1.26359 z m 17.858492,0.24545 c -0.962659,0 -1.406624,0.51075 -1.112629,1.27794 0.246494,0.64142 1.160145,0.68448 1.542234,0.0728 0.554352,-0.88743 0.407368,-1.35069 -0.429619,-1.35069 z m -22.84651,1.08096 c -0.815669,0 -0.922572,0.37268 -0.288095,1.0072 0.634513,0.63452 1.007204,0.5281 1.007204,-0.28802 0,-0.48007 -0.239031,-0.71915 -0.719144,-0.71915 z m 25.864665,3.36709 a 0.67114103,0.67114103 0 0 0 -0.227144,0.0428 c -0.573148,0.22175 -0.566722,0.28015 0.07823,0.75478 0.770129,0.56672 1.049274,0.62608 1.383364,0.29203 0.365283,-0.36528 -0.574115,-1.10668 -1.234383,-1.08936 z m 21.091941,2.39156 c -0.632024,0 -0.995822,0.62366 -0.745383,1.27695 0.24601,0.64045 1.184891,0.68993 1.400191,0.0732 0.230116,-0.66077 -0.103932,-1.3502 -0.654829,-1.3502 z m -43.0144,2.17279 c -0.13116,0.008 -0.290997,0.14055 -0.552832,0.40239 -0.327621,0.32714 -0.480065,0.78201 -0.339507,1.00968 0.296939,0.48007 1.335357,0.36577 1.503632,-0.16481 0.06219,-0.19798 -0.03939,-0.60286 -0.227697,-0.8998 -0.149956,-0.23758 -0.252437,-0.35485 -0.383596,-0.34746 z m 18.924102,1.40366 c -0.28457,0.002 -0.567205,0.12079 -0.729053,0.38311 -0.332597,0.53749 0.130192,1.07946 0.921086,1.07946 0.458781,0 0.698862,-0.24649 0.698862,-0.71914 0,-0.46528 -0.447932,-0.74638 -0.890895,-0.7434 z m -23.463705,0.16135 a 0.25242032,0.25242032 0 0 0 -0.122728,0.0415 c -0.197983,0.12273 -0.360308,0.37565 -0.360308,0.56175 0,0.18658 0.162325,0.33854 0.360308,0.33854 0.197982,0 0.359824,-0.25244 0.359824,-0.56078 0,-0.24103 -0.09896,-0.38705 -0.237096,-0.38111 z m 47.562917,1.81743 c -0.445443,0.005 -0.960192,0.51966 -0.735486,0.88396 0.356852,0.57758 1.284372,0.49251 1.284372,-0.1183 0,-0.28506 -0.128671,-0.59837 -0.287058,-0.69589 a 0.48405308,0.48405308 0 0 0 -0.262318,-0.0693 z m -42.949567,3.082 c -0.218299,0.002 -0.443992,0.11382 -0.596436,0.36128 -0.301915,0.48753 0.105453,1.08095 0.741423,1.08095 0.285054,0 0.517727,-0.32417 0.517727,-0.72014 0,-0.45436 -0.322232,-0.7241 -0.66319,-0.72261 z m 24.023979,0.72212 c -0.76914,0.0214 -0.903762,0.71569 -0.2514,1.36803 0.671138,0.67065 1.008199,0.51475 1.008199,-0.46825 0,-0.65974 -0.19204,-0.8998 -0.720139,-0.8998 z m 21.234986,1.54769 c -0.18658,-0.001 -0.41027,0.0737 -0.657247,0.23012 -0.433074,0.27372 -0.439985,0.4207 -0.03663,0.90673 0.596436,0.71866 1.272991,0.53507 1.272991,-0.34545 0,-0.51227 -0.222722,-0.78994 -0.579091,-0.79191 z m -50.922086,0.75974 c -0.462789,0.005 -0.945342,0.58551 -0.757262,1.076 0.312281,0.81319 1.323969,0.71915 1.323969,-0.12273 0,-0.38456 -0.129155,-0.77854 -0.287058,-0.87604 a 0.51374952,0.51374952 0 0 0 -0.279663,-0.0772 z m 45.747467,2.20792 c -0.204409,0.005 -0.461752,0.12273 -0.762707,0.35589 -0.670653,0.51869 -0.670653,0.53749 0,1.0562 0.802304,0.62118 1.296749,0.41919 1.296749,-0.52857 0,-0.59243 -0.193007,-0.89288 -0.534519,-0.88348 z m -19.667999,0.16433 c -0.45042,0.0145 -0.675076,0.25437 -0.675076,0.71915 0,0.48007 0.239583,0.72014 0.71915,0.72014 0.480065,0 0.720637,-0.24007 0.720637,-0.72014 0,-0.48006 -0.240551,-0.71915 -0.720637,-0.71915 h -0.04492 z m -20.016435,3.04389 c -0.151476,0.002 -0.33163,0.10739 -0.608806,0.31035 -0.422156,0.30882 -0.597403,0.72756 -0.45733,1.09233 0.277176,0.72262 1.538281,0.78349 1.805548,0.0871 0.106903,-0.27766 0,-0.76914 -0.234608,-1.09234 -0.197983,-0.27027 -0.333081,-0.39991 -0.504873,-0.39742 z m 43.200006,1.44325 c -0.148504,-0.002 -0.321195,0.0925 -0.576119,0.27863 -0.407368,0.29797 -0.557323,0.70034 -0.406815,1.09233 0.28609,0.74588 1.446221,0.82408 1.717447,0.11582 0.106904,-0.27718 0,-0.76914 -0.235575,-1.09234 -0.19204,-0.26231 -0.33011,-0.39099 -0.498931,-0.39444 z m -48.591902,2.04064 a 0.78695741,0.78695741 0 0 0 -0.535486,0.23903 c -0.560295,0.55982 -0.06931,1.51205 0.780024,1.51205 0.494922,0 0.731527,-0.23605 0.731527,-0.73103 0,-0.61025 -0.491467,-1.0364 -0.976031,-1.01958 z m 25.714703,0.0435 a 0.44693239,0.44693239 0 0 0 -0.227697,0.0657 c -0.434595,0.26875 -0.532032,1.38337 -0.154448,1.7615 0.431554,0.43107 1.217556,0.25243 1.440278,-0.32762 0.228665,-0.59492 -0.497894,-1.51156 -1.058181,-1.49968 z m 17.55212,4.05457 c -0.195011,0.002 -0.437566,0.10393 -0.718653,0.30931 -0.760233,0.5558 -0.437013,1.30318 0.564233,1.30318 0.451387,0 0.698365,-0.24746 0.698365,-0.69935 0,-0.60584 -0.197016,-0.91763 -0.544401,-0.91317 z m -23.090516,0.8716 c -0.158386,0.005 -0.344483,0.1445 -0.429135,0.39846 -0.07919,0.23758 0.05045,0.36722 0.288025,0.28802 0.237579,-0.0792 0.420221,-0.26135 0.40488,-0.40488 -0.02004,-0.19501 -0.132127,-0.28505 -0.26377,-0.2816 z m -10.943166,0.74093 c -0.980481,0 -1.209637,0.67508 -0.49741,1.46256 0.731527,0.80774 1.117086,0.88 1.330402,0.24746 0.273237,-0.81319 -0.163361,-1.71003 -0.832488,-1.71003 z m -8.104176,1.22746 c -0.462789,0.005 -0.945342,0.58552 -0.757262,1.076 0.312281,0.81318 1.323478,0.71915 1.323478,-0.12273 0,-0.38456 -0.128671,-0.77854 -0.287057,-0.87604 a 0.51374952,0.51374952 0 0 0 -0.27918,-0.0772 z m 45.173828,0.39251 c -0.282151,0.0166 -0.558774,0.29348 -0.623663,0.62905 -0.08465,0.44199 0.108908,0.63058 0.650821,0.63058 0.541982,0 0.736475,-0.18811 0.651374,-0.63058 -0.06634,-0.34649 -0.359824,-0.62905 -0.651374,-0.62905 z m -21.960563,0.94039 c -0.254372,0.006 -0.39099,0.28954 -0.160874,0.66124 0.13268,0.21429 0.406331,0.28706 0.608253,0.16233 0.245457,-0.15196 0.23903,-0.35243 -0.02004,-0.61073 -0.151476,-0.15148 -0.303919,-0.21533 -0.428099,-0.21284 z m -8.193763,1.82929 c -0.220234,0.002 -0.458781,0.0757 -0.696381,0.22915 -0.71866,0.46376 -0.106903,1.49968 0.885947,1.49968 0.71222,0 0.863668,-0.15838 0.771117,-0.80576 -0.08417,-0.59098 -0.477093,-0.92902 -0.960683,-0.92309 z m -5.676984,1.76794 c -0.277176,0.006 -0.588005,0.17815 -0.888911,0.54046 -0.408335,0.49195 -0.377169,0.65379 0.204893,1.07946 0.881987,0.64544 1.626872,0.64046 1.626872,-0.01 0,-1.0275 -0.41179,-1.62143 -0.94237,-1.61005 z m 18.273254,0.57612 c -0.172276,9.9e-4 -0.374681,0.0817 -0.599891,0.24649 -0.582062,0.42568 -0.613228,0.58801 -0.204893,1.07996 0.636516,0.76716 1.474429,0.73747 1.467498,-0.0511 -0.0076,-0.8315 -0.253404,-1.27695 -0.662223,-1.27497 z m 13.321357,0.64487 c -0.138553,0.005 -0.316772,0.11285 -0.597403,0.31774 -0.586485,0.42914 -0.618688,0.59195 -0.209869,1.08393 0.595399,0.71716 1.073032,0.73796 1.332876,0.0594 0.109392,-0.28457 0.05736,-0.77113 -0.116785,-1.08244 -0.146017,-0.26031 -0.251953,-0.38505 -0.408819,-0.37862 z m -4.223341,4.51883 c -0.220718,-0.002 -0.500382,0.099 -0.833477,0.30986 -0.692919,0.43853 -0.222238,1.47097 0.671138,1.47097 0.539494,0 0.730532,-0.23509 0.730532,-0.89981 0,-0.57708 -0.200955,-0.87555 -0.568173,-0.88099 z m -18.367284,1.57094 a 0.73399865,0.73399865 0 0 0 -0.241518,0.0484 c -0.807749,0.31035 -0.800818,1.50116 0.0097,1.713 1.047291,0.27372 1.085899,0.26577 1.286846,-0.25735 0.261351,-0.68102 -0.394998,-1.52442 -1.054719,-1.50413 z m 7.425113,2.12132 c -0.150923,-0.003 -0.323199,0.0318 -0.514755,0.10539 -0.682056,0.26135 -0.757753,1.08838 -0.123213,1.34426 0.914162,0.36922 1.34971,0.22072 1.34971,-0.4603 0,-0.63603 -0.258379,-0.98147 -0.711729,-0.98989 z m 4.087227,1.87731 c -0.136135,0.003 -0.29846,0.065 -0.510263,0.17815 -0.874559,0.46818 -0.909207,1.27794 -0.07574,1.76348 0.86516,0.50384 1.059176,0.47709 1.310114,-0.17767 0.119273,-0.31131 0.04906,-0.8805 -0.156383,-1.26457 -0.188101,-0.35043 -0.341027,-0.50584 -0.567688,-0.4999 z m -13.97517,2.76921 c -0.392026,0.011 -0.768649,0.31331 -0.84635,0.85179 -0.141525,0.98741 1.430375,1.79515 1.771887,0.91069 0.123765,-0.31974 0.07277,-0.87506 -0.113814,-1.23339 -0.19204,-0.36971 -0.506808,-0.53749 -0.811702,-0.52913 z m 7.201403,3.88034 c -0.601342,0 -1.007708,0.51372 -0.671621,0.84981 0.430587,0.43059 1.190827,0.23261 1.190827,-0.30931 0,-0.29694 -0.233641,-0.54046 -0.519178,-0.54046 z m -5.763108,5.75963 c -1.249724,0 -1.667948,1.35812 -0.711722,2.31435 0.752314,0.75182 1.138363,0.71272 1.409596,-0.14152 0.194527,-0.61275 -0.306407,-2.1728 -0.697874,-2.1728 z m 4.11594,8.47687 a 0.52414331,0.52414331 0 0 0 -0.17967,0.0339 c -0.641975,0.24649 -0.690417,0.90722 -0.110359,1.48779 0.659251,0.65926 1.465024,-0.16232 1.003741,-1.02354 -0.168268,-0.31428 -0.448899,-0.5019 -0.713705,-0.49789 z m -4.27085,4.96525 c -0.209385,0.01 -0.451871,0.13759 -0.706284,0.39597 -0.554352,0.56327 -0.546888,0.64046 0.103449,1.12252 0.985919,0.73103 1.28091,0.64841 1.28091,-0.3603 0,-0.76123 -0.278143,-1.17599 -0.678048,-1.15817 z m 3.682361,6.91088 c -0.140073,0.004 -0.296939,0.0656 -0.496926,0.17221 -0.87753,0.46921 -0.920589,1.6333 -0.07823,2.1233 0.911681,0.53155 1.421972,0.47018 1.679834,-0.20192 0.124732,-0.32465 -0.02626,-0.97504 -0.334049,-1.44523 -0.301915,-0.4603 -0.503836,-0.65676 -0.770626,-0.6484 z m 1.313576,8.08438 c -0.471151,0.02 -0.796858,0.66174 -0.538527,1.07996 0.376133,0.60881 0.899312,0.39942 0.899312,-0.35982 0,-0.39597 -0.15196,-0.72014 -0.338541,-0.72014 z m -3.855101,1.12896 a 0.78695741,0.78695741 0 0 0 -0.535555,0.23903 c -0.559742,0.55926 -0.06772,1.51156 0.781019,1.51156 0.494923,0 0.73103,-0.23661 0.73103,-0.73153 0,-0.61025 -0.491951,-1.03591 -0.976521,-1.01908 z m -2.279206,5.39239 c -0.115818,0 -0.23212,0.0703 -0.367771,0.20393 -0.237579,0.23412 -0.334601,0.67956 -0.215328,0.98987 0.231637,0.60335 1.152723,0.76469 1.46651,0.25735 0.103932,-0.16924 -0.03732,-0.61468 -0.314285,-0.98988 -0.231152,-0.31332 -0.400388,-0.46175 -0.569209,-0.46127 z m 6.455523,4.74253 c -0.162809,0.004 -0.354849,0.0797 -0.618688,0.22127 -0.974538,0.52119 -0.98196,0.91268 -0.0387,1.85604 0.858229,0.85823 1.551646,0.76221 1.700129,-0.23413 0.05667,-0.38159 -0.116785,-0.99681 -0.387534,-1.36653 -0.243039,-0.33259 -0.417734,-0.48255 -0.655313,-0.47661 z m -5.896735,2.79345 c -0.47115,-10e-4 -0.983445,0.18513 -1.294765,0.55981 -0.407852,0.49195 -0.378137,0.65435 0.203925,1.07997 0.865651,0.6325 1.428897,0.63451 1.950071,0.006 0.225694,-0.27172 0.30931,-0.75726 0.185614,-1.07947 -0.144497,-0.37613 -0.574116,-0.5652 -1.044824,-0.56672 z"
   fill="#ffffff"
   id="path233"
   style="stroke-width:0.494942" />
<path
   d="m 1505.3476,370.83776 c -1.2358,-0.17124 -2.49,-0.47218 -3.5863,-1.08095 -0.982,-0.57909 -1.4512,-1.70062 -1.5269,-2.79741 -0.1485,-1.98472 0.09,-3.9724 0.1138,-5.95811 0.3687,-13.15159 0.3415,-26.31902 1.0265,-39.44983 0.1762,-4.63117 0.2732,-9.28461 -0.1732,-13.90341 -0.094,-0.88495 -0.2802,-1.75605 -0.4965,-2.61824 -3.6824,-2.26881 -7.9131,-3.56853 -11.3737,-6.20756 -1.5839,-1.25715 -2.5599,-3.18693 -3.1241,-5.03949 -1.3235,-3.96597 -2.2005,-8.06656 -2.9588,-12.17309 a 60.731335,60.731335 0 0 1 -0.5702,-3.88282 c -0.028,-0.35637 -0.095,-0.93396 -0.1208,-1.37842 -0.1757,-2.72416 0.3613,-5.42653 0.6217,-8.12892 0.6855,-5.6458 1.516,-11.27626 2.6356,-16.85277 0.732,-3.97091 1.2992,-7.975 1.8199,-11.97016 0.3484,-2.28811 0.7265,-4.62424 1.7288,-6.73121 0.6311,-1.31951 1.76,-2.42521 3.1939,-2.81622 1.8778,-0.60382 4.059,-0.0594 5.4013,1.39673 2.0228,2.05797 2.7949,4.96426 3.2889,7.72504 0.4399,2.6034 0.5196,5.2548 0.392,7.88739 -0.039,0.64737 -0.088,1.46454 -0.1569,2.17824 -0.3163,4.306 -1.569,8.47588 -1.9095,12.77841 -0.3999,3.99864 -0.5216,8.01757 -0.8547,11.98749 -0.1955,2.38612 -0.1802,4.81034 0.3781,7.15043 0.4548,2.07628 1.0557,4.14266 1.9822,6.05908 0.4143,0.89485 1.6838,1.05422 2.3871,0.41621 0.5089,-0.61965 1.475,-0.58455 1.9066,-1.29922 1.7634,-2.34058 2.3682,-5.3038 2.6514,-8.16159 0.485,-5.34636 0.6973,-10.72539 0.4305,-16.09056 -0.1905,-4.45148 -0.6508,-8.88418 -1.0789,-13.31688 -0.6999,-8.05863 -0.8563,-16.25189 -1.3136,-24.3734 -0.1055,-1.5452 -0.019,-3.14684 0.1039,-4.62621 0.3554,-3.96152 0.787,-8.03786 1.5606,-11.98997 0.5592,-2.97559 1.5977,-6.05809 3.9026,-8.14378 2.0342,-1.87929 5.0543,-2.34107 7.6775,-1.65706 1.8318,0.37765 3.7769,1.1448 4.7678,2.83701 1.0542,1.60212 1.5952,3.49033 1.8793,5.36517 0.2871,0.60182 1.0315,0.76468 1.6125,0.51821 0.936,-0.0325 1.8328,0.32665 2.7479,0.47958 -0.34,-1.44128 -1.0032,-2.86424 -0.8805,-4.37332 0.2079,-1.31159 1.3705,-2.14705 2.2421,-3.03894 0.8281,-0.90821 2.0461,-1.46007 3.2845,-1.36307 1.1477,-0.0822 2.4276,0.24898 3.0904,1.26359 1.0765,1.45117 1.3546,3.29879 1.6669,5.03257 0.058,0.55332 0.104,1.10817 0.1579,1.66201 1.9536,-0.29003 4.0947,-0.80972 5.9532,0.14008 1.8635,1.06313 2.6935,3.31808 2.7157,5.37308 0,1.82139 -0.826,3.56556 -2.099,4.84449 -0.4866,0.33951 -0.3083,0.59443 0.1634,0.8122 1.0809,0.72559 2.2198,1.55709 2.7469,2.789 0.4682,1.43434 0.2549,2.97905 0.064,4.44358 -0.2173,1.2918 -0.7127,2.81474 -2.0703,3.29632 -0.8271,0.2856 -1.7041,0.5068 -2.5777,0.53797 -1.2992,-0.16184 -2.4336,-0.89584 -3.572,-1.48928 -0.6127,-0.36183 -1.1745,-0.80181 -1.763,-1.20122 -0.9265,2.06192 -1.6566,4.40201 -3.5255,5.83041 -1.5214,1.08888 -3.619,1.35417 -5.3651,0.68897 -1.1641,-0.56327 -2.0664,-1.63084 -2.5539,-2.81523 -0.1604,-0.55926 -0.2262,-1.14133 -0.3465,-1.71052 -0.7919,0.25838 -1.5749,0.688 -2.4361,0.5207 -0.5173,-0.14353 -0.7147,0.0428 -0.584,0.56575 0.1074,2.39057 -0.4489,4.73857 -0.6652,7.10737 -0.5271,4.26837 -0.9033,8.53626 -1.4982,12.78434 -0.3465,2.41878 -0.337,4.87072 -0.4697,7.30732 -0.3005,7.96856 -0.539,15.94208 -0.5345,23.91658 0.053,3.83382 0.087,7.6909 0.7033,11.48364 0.3207,1.46205 0.6568,3.07358 1.8189,4.1189 0.392,0.32963 0.8241,0.60881 1.2324,0.91762 0.9755,-1.56649 1.7892,-3.2384 2.2852,-5.02118 1.3789,-4.9707 2.005,-10.11463 2.4598,-15.24173 0.3712,-3.81105 0.3514,-7.65081 0.7716,-11.45691 0.3995,-2.68259 1.9481,-5.34291 4.4585,-6.53324 1.7441,-0.84536 4.0837,-0.734 5.4607,0.74588 1.2581,1.42048 1.7976,3.3171 2.1777,5.1375 0.7568,3.83085 0.8053,7.83988 0.7934,11.77962 0.036,2.10845 -0.146,4.22135 -0.6405,6.27437 -0.7206,3.12308 -1.5061,6.2328 -2.3252,9.33164 -0.4553,1.5843 -0.9339,3.21216 -1.9778,4.52376 -2.5776,3.32799 -5.0038,6.80792 -8.0309,9.7548 -4.4777,4.00606 -8.121,8.82234 -12.3775,13.04617 -1.1854,1.33684 -1.1849,3.22801 -1.325,4.90834 -0.2861,4.7653 -0.1772,9.54198 -0.2034,14.31273 0.028,8.61149 0.014,17.22546 0.2776,25.83299 0.064,1.174 0.4668,2.5242 -0.3499,3.53536 -1.3017,1.75953 -3.5067,2.47967 -5.5582,2.93006 -1.4116,0.19895 -2.8568,0.14505 -4.2456,0.50681 -0.5004,0.0718 -1.0112,0.11381 -1.5155,0.0567 z"
   id="path385"
   style="stroke-width:0.494942" /><path
   d="m 1516.7204,196.48017 c -1.8452,0.0394 -3.6779,0.59886 -5.1603,1.71943 -2.4608,1.85257 -3.7823,4.81331 -4.498,7.73248 -0.7587,3.32849 -1.179,6.72428 -1.5586,10.11364 -0.249,2.72119 -0.6147,5.45673 -0.4301,8.19377 0.5281,9.29747 0.641,18.62514 1.6571,27.88995 0.4074,4.19662 0.7498,8.47291 0.8325,12.69031 0.037,1.62144 0.023,3.3176 -0.018,4.89152 -0.1183,3.00726 -0.2682,6.00859 -0.586,8.94359 -0.3168,2.37671 -0.8483,4.8539 -2.3346,6.79753 -0.2312,0.49396 -0.8058,0.45637 -1.1978,0.74637 -0.3662,0.12031 -0.5434,0.59741 -0.933,0.61572 -0.5048,0.11188 -0.6068,-0.45339 -0.7953,-0.78498 a 29.898443,29.898443 0 0 1 -1.8907,-6.64707 c -0.4791,-2.86571 -0.027,-5.79132 0.1238,-8.64069 0.2241,-3.24188 0.3435,-6.39862 0.7102,-9.61277 0.3316,-3.57001 1.316,-7.03708 1.6868,-10.60066 0.5419,-4.81182 0.5884,-9.77411 -0.7132,-14.47407 -0.684,-2.42719 -1.863,-4.88855 -3.9799,-6.37337 -1.8525,-1.2918 -4.3891,-1.39573 -6.3827,-0.36922 -1.6363,0.77557 -2.6564,2.3876 -3.2627,4.03476 -1.1804,3.33542 -1.4289,6.89603 -1.9382,10.3725 -0.1242,0.91564 -0.29,1.96491 -0.4237,2.86125 -0.3232,1.96987 -0.6484,3.93974 -1.0294,5.89971 -1.0483,5.25876 -1.7818,10.57245 -2.4352,15.89258 -0.2514,2.43512 -0.6681,4.86578 -0.6419,7.3202 0.15,2.8766 0.6618,5.72301 1.2107,8.54665 0.7552,3.53883 1.5338,7.09004 2.7637,10.4992 0.6266,1.91295 1.7323,3.68732 3.3235,4.94347 3.3557,2.54401 7.4306,3.84224 11.0209,5.99078 0.3846,1.46701 0.4821,2.98796 0.5667,4.46487 0.2138,4.01348 0.1243,8.05567 -0.046,12.03203 -0.6236,11.88009 -0.6315,23.77998 -0.9206,35.67045 -0.053,1.83426 -0.072,3.59328 -0.1702,5.40329 -0.034,1.68379 -0.2579,3.42004 0.2217,5.06276 0.3603,1.30763 1.4309,2.3089 2.691,2.75385 1.1186,0.40537 2.2911,0.73152 3.4829,0.79587 0.5553,0.01 1.1092,-0.0484 1.6551,-0.14602 1.5809,-0.4281 3.2587,-0.16827 4.8287,-0.66423 2.1351,-0.54447 4.3802,-1.5259 5.5631,-3.48785 0.7533,-1.22251 0.3534,-2.6915 0.2747,-4.02636 -0.245,-9.13266 -0.2426,-18.27077 -0.2623,-27.40641 0.034,-4.35301 -0.067,-8.71444 0.247,-13.06002 0.135,-1.27448 0.1603,-2.72713 1.0913,-3.71553 3.9026,-3.84669 7.2484,-8.22445 11.2441,-11.98105 2.8261,-2.48164 5.0984,-5.49683 7.3721,-8.47143 1.0939,-1.5066 2.4238,-2.89046 3.1023,-4.65344 0.9503,-2.51629 1.475,-5.16571 2.1654,-7.7597 0.7043,-2.98697 1.6056,-5.96998 1.6432,-9.06436 0.062,-3.62792 0.037,-7.26822 -0.3578,-10.87833 -0.345,-2.54397 -0.7731,-5.18399 -2.1515,-7.39935 -0.8291,-1.3413 -2.2486,-2.30693 -3.8324,-2.45095 -2.2579,-0.29798 -4.5163,0.7731 -5.9893,2.45639 -1.565,1.69815 -2.4286,3.95261 -2.6053,6.23973 -0.2851,3.11962 -0.3198,6.25657 -0.5751,9.37915 -0.3064,3.99715 -0.7647,8.08983 -1.5274,12.08896 -0.5776,2.78206 -1.1493,5.65223 -2.644,8.1116 -0.4019,-0.2722 -0.7162,-0.6578 -0.9483,-1.08096 -0.934,-2.01738 -1.0631,-4.28322 -1.2631,-6.46591 -0.2291,-3.42253 -0.2673,-6.9282 -0.2495,-10.41605 0.079,-7.39642 0.2832,-14.79728 0.5791,-22.17686 0.1386,-2.18616 0.1065,-4.3936 0.5034,-6.55501 0.5727,-4.43468 0.9879,-8.90599 1.5417,-13.32086 0.1901,-1.90701 0.6148,-3.80313 0.5533,-5.72747 0.4306,0.0345 0.8642,-0.0504 1.2622,-0.21381 0.064,0.48255 0.2316,0.94633 0.4543,1.37743 0.7588,1.28783 1.8679,2.50341 3.3438,2.93599 1.7511,0.47364 3.7096,0.2534 5.2929,-0.64736 2.0115,-1.17796 3.0207,-3.40718 3.8898,-5.46664 0.4365,0.32023 0.9033,0.59886 1.3804,0.85427 1.2161,0.60432 2.4727,1.36753 3.8764,1.32645 1.2522,-0.22867 2.6147,-0.39797 3.6413,-1.22201 1.1631,-1.03344 1.5491,-2.65289 1.7362,-4.13821 0.1411,-1.59717 0.3173,-3.3364 -0.4588,-4.80737 -0.6295,-0.99186 -1.5234,-1.81891 -2.5029,-2.46134 1.5061,-1.63727 2.2347,-3.94172 1.9303,-6.14718 -0.2807,-2.04807 -1.2884,-4.16989 -3.1676,-5.19293 -1.6942,-0.90426 -3.7121,-0.71816 -5.5384,-0.40978 a 13.633171,13.633171 0 0 0 -0.1228,-1.07997 c -0.385,-1.92235 -0.7587,-4.01595 -2.1564,-5.49237 -0.9281,-1.06016 -2.4124,-1.31803 -3.7537,-1.22746 -1.2923,-0.0587 -2.5346,0.49645 -3.4695,1.36753 -0.9701,0.97355 -2.1283,1.87088 -2.6484,3.18594 -0.4356,1.2715 -0.053,2.64052 0.3014,3.88431 -0.4663,-0.11188 -0.9523,-0.20096 -1.4329,-0.14505 -0.2603,-0.0145 -0.6988,0.3252 -0.6177,-0.13911 -0.396,-2.24951 -1.1814,-4.51436 -2.6875,-6.26992 -1.4532,-1.5363 -3.5973,-2.13369 -5.6191,-2.48362 a 9.9334816,9.9334816 0 0 0 -1.8362,-0.13116 z m 0.1826,1.98175 c 1.9887,0 4.5382,0.78647 5.5691,1.71844 1.7016,1.53927 3.1602,6.507 2.1555,7.34098 -1.6506,1.37049 -2.0926,5.33893 -0.8256,7.41769 1.0013,1.64222 0.9429,3.76057 -0.1351,4.92418 -1.8248,1.96887 -2.1257,6.10807 -0.5954,8.17792 0.7533,1.01958 0.7558,1.08689 0.2134,5.25381 -0.302,2.32226 -0.8038,6.65201 -1.1156,9.62166 -0.3118,2.96965 -0.6435,5.6265 -0.7375,5.90465 -0.3519,1.04334 -1.0473,23.56765 -0.9676,31.34962 0.1113,10.86199 0.8859,14.7656 3.2463,16.3697 1.7061,1.15916 2.3742,0.77459 3.7467,-2.15894 1.8852,-4.02881 3.4032,-13.4733 3.8744,-24.1086 0.2336,-5.28104 0.3831,-6.35407 1.0904,-7.83147 1.4106,-2.94639 3.9902,-4.403 6.3847,-3.60466 2.4198,0.80675 3.7353,5.74132 3.8165,14.3157 0.057,5.9685 0.026,6.25705 -1.3136,11.69844 -2.049,8.32987 -2.2881,9.04654 -3.5601,10.69965 -0.6434,0.83645 -2.3292,3.03201 -3.7467,4.87864 -1.418,1.84712 -3.5042,4.1491 -4.6356,5.11572 -1.1314,0.96662 -3.7482,3.68385 -5.8146,6.03828 -2.0659,2.35395 -4.4569,4.95635 -5.3137,5.78241 -2.5158,2.42522 -2.5455,2.72515 -2.4836,25.43902 0.03,10.78973 0.1698,20.5089 0.3118,21.59777 0.2396,1.84613 0.1896,2.04708 -0.734,2.97065 -1.0864,1.08639 -3.8917,2.06885 -5.9076,2.06885 -0.7078,0 -1.7719,0.13365 -2.3644,0.29694 -0.5924,0.16281 -1.564,0.18313 -2.1579,0.0449 -3.7145,-0.86417 -3.9175,-1.21756 -3.6547,-6.37337 0.1188,-2.32523 0.3049,-10.54523 0.4148,-18.26631 0.1089,-7.72109 0.3569,-16.83793 0.5494,-20.25995 0.6118,-10.84913 0.2707,-19.20573 -0.8394,-20.55246 -0.2361,-0.28609 -2.4114,-1.45711 -4.8346,-2.60141 -5.7428,-2.71214 -7.2767,-3.79804 -8.4769,-6.00301 -1.7511,-3.21761 -4.5792,-15.97672 -4.5743,-20.64055 0,-2.17032 1.6398,-14.82945 2.4852,-19.21166 1.2239,-6.34219 1.8228,-9.97457 2.3801,-14.44339 0.8998,-7.21378 1.9541,-9.79589 4.3194,-10.57691 6.6644,-2.19902 9.978,9.75679 6.8351,24.66047 -0.584,2.77019 -1.0364,6.51344 -1.2616,10.43833 -0.193,3.3656 -0.4534,7.25387 -0.5781,8.6402 -0.1247,1.38583 -0.048,3.67296 0.1712,5.08305 0.4826,3.10824 1.9303,7.51322 2.7772,8.44964 0.7473,0.82508 2.7513,0.91119 3.3873,0.14505 0.2465,-0.29694 0.6632,-0.54046 0.9261,-0.54046 0.6825,0 2.2025,-2.11489 2.8632,-3.98379 0.9884,-2.79349 1.2275,-4.42779 1.6031,-10.99913 0.3861,-6.75101 0.1327,-13.04172 -0.9329,-23.17219 -0.302,-2.87066 -0.7083,-9.35044 -0.9028,-14.39884 -0.1945,-5.0484 -0.4405,-10.26311 -0.5454,-11.58856 -0.201,-2.52717 0.9265,-12.65567 1.8659,-16.76616 1.2596,-5.51217 3.9937,-8.36006 8.0225,-8.36006 z m 18.1223,0.72014 c 1.3685,0 1.7175,0.15935 2.4178,1.10669 0.8508,1.15124 1.7482,5.67748 1.2027,6.06601 -0.1593,0.11333 -0.5019,1.25814 -0.7602,2.54499 -0.2584,1.28685 -0.4954,2.35988 -0.5276,2.38315 -0.033,0.0235 -0.6489,0.14795 -1.371,0.27814 -1.2537,0.22666 -1.37,0.15839 -2.6138,-1.5358 -1.5021,-2.04609 -2.547,-4.31342 -2.8934,-6.28082 -0.2257,-1.2814 -0.1326,-1.48482 1.3512,-2.96965 1.4071,-1.40663 1.7823,-1.59272 3.1943,-1.59272 z m -16.6473,6.59065 c -0.1045,9.9e-4 -0.2534,0.0359 -0.4564,0.0975 -1.03,0.31677 -1.0854,0.38408 -0.8379,1.02849 0.2737,0.71321 1.1938,0.35533 1.4323,-0.55781 0.1064,-0.40584 0.092,-0.56969 -0.138,-0.56817 z m 24.9366,0.96514 c 1.9046,-9.9e-4 2.892,0.68254 3.6571,2.29455 0.8969,1.89068 0.7583,4.08128 -0.3612,5.69776 -0.8132,1.17252 -1.1369,1.36505 -2.251,1.3413 -0.7152,-0.0145 -1.8679,-0.23116 -2.5609,-0.4811 -0.7552,-0.2722 -1.3017,-0.73005 -1.3635,-1.14282 -0.2703,-1.78526 -0.4851,-2.27476 -1.0839,-2.46482 -0.6108,-0.19404 -0.6153,-0.33259 -0.089,-2.51034 0.5355,-2.21536 0.6073,-2.31485 1.8174,-2.51529 0.8647,-0.14353 1.6002,-0.21927 2.2352,-0.21976 z m -15.5095,0.72261 c 0.8731,0 2.8355,0.98098 2.8355,1.41702 0,0.17518 0.6098,1.10224 1.3562,2.06044 l 1.3571,1.7422 -0.636,1.26012 c -0.35,0.69292 -0.637,1.75952 -0.637,2.37126 0,1.37594 -1.0043,1.89613 -3.0607,1.58877 -2.2421,-0.33412 -3.3241,-1.25518 -4.0021,-3.40619 -0.3702,-1.16955 -0.5078,-2.36186 -0.3653,-3.12209 0.288,-1.53631 2.2025,-3.91153 3.1523,-3.91153 z m -15.5788,2.99787 c -0.4914,0.006 -1.0245,0.43804 -1.0245,1.00027 0,0.84388 1.3641,0.9389 1.6793,0.11727 0.1188,-0.31034 0.06,-0.72063 -0.1306,-0.91168 a 0.71123133,0.71123133 0 0 0 -0.5242,-0.20593 z m 24.9629,2.43709 c 0.4672,0.008 0.6949,0.2069 1.0854,0.68897 1.1023,1.36108 0.2708,3.56704 -1.7951,4.76282 -1.0379,0.60086 -1.1201,0.59941 -1.908,-0.0387 -0.7697,-0.62311 -0.8018,-0.80575 -0.488,-2.78799 l 0.3365,-2.12082 1.5828,-0.3326 c 0.5395,-0.11285 0.9058,-0.1767 1.1864,-0.17172 z m -17.3442,0.36922 c -0.2064,0.004 -0.5108,0.24104 -0.933,0.70776 -0.6667,0.73648 -0.6672,0.76321 -0,1.24875 0.8904,0.65082 1.2928,0.35733 1.2928,-0.94237 0,-0.68399 -0.1069,-1.01958 -0.3564,-1.01464 z m -5.4444,3.04587 a 1.2482432,1.2482432 0 0 0 -0.3193,0.0449 c -0.7978,0.20883 -0.972,1.0374 -0.2692,1.28091 0.4791,0.16578 0.9751,-0.3648 0.984,-1.05274 0,-0.1722 -0.1534,-0.27123 -0.396,-0.2722 z m 25.6538,0.56921 1.3225,0.55234 c 0.7271,0.30392 2.1134,0.56521 3.08,0.58006 1.4601,0.0221 1.9625,0.21975 2.9697,1.16955 1.0988,1.03592 1.2111,1.33288 1.2111,3.18149 0,1.12104 -0.2326,2.59448 -0.5162,3.27404 -0.4999,1.19676 -0.6894,1.30368 -3.1419,1.78031 -0.3286,0.0643 -1.5427,-0.4044 -2.6989,-1.04186 -2.254,-1.24231 -2.7123,-1.88771 -3.4849,-4.90586 -0.4776,-1.86593 -0.4628,-1.98868 0.3821,-3.26464 z m -9.338,2.19259 c 1.1873,-0.018 2.1361,0.0615 2.2668,0.2722 0.1089,0.17621 -0.2079,0.77261 -0.7028,1.32645 -0.4949,0.55435 -1.6507,2.0253 -2.5688,3.26859 -1.461,1.97977 -3.0934,3.33096 -4.004,3.31364 -0.1584,-0.002 -0.692,-0.20883 -1.1869,-0.45781 -0.6875,-0.34649 -0.9265,-0.78399 -1.0146,-1.85604 -0.1495,-1.81347 0.8414,-4.39013 1.9738,-5.13254 0.6162,-0.40336 3.2577,-0.70381 5.2365,-0.7345 z m 6.2842,1.14579 0.6692,2.52915 c 0.784,2.96471 0.779,3.02212 -0.4806,5.55969 -1.1458,2.30791 -2.5212,3.2676 -4.6871,3.26958 -1.2428,0.001 -1.7699,-0.21132 -2.6093,-1.05076 -0.5791,-0.57909 -1.0528,-1.39475 -1.0528,-1.81347 0,-0.79784 3.7369,-6.60599 4.9039,-7.6221 0.3717,-0.32416 1.2567,-0.65234 1.9664,-0.73004 z m -25.9696,1.61104 c -0.3053,0.003 -0.5484,0.20095 -0.5484,0.65283 0,0.79041 0.6583,1.53678 1.3552,1.53678 0.3242,0 0.4534,-0.33702 0.3781,-0.98988 -0.084,-0.73103 -0.7092,-1.20369 -1.1854,-1.19973 z m 7.6385,2.56973 c -0.1015,0.009 -0.2341,0.17325 -0.4737,0.49893 -0.2826,0.38408 -0.5147,0.9107 -0.5147,1.16955 0,0.65034 1.0557,0.59492 1.3101,-0.0691 0.1138,-0.29694 0.097,-0.82309 -0.037,-1.16955 -0.1138,-0.29348 -0.1831,-0.4395 -0.2841,-0.43058 z m -5.6721,5.81408 c -0.1351,0.003 -0.2751,0.0608 -0.4028,0.1881 -0.4608,0.46127 -0.1752,1.53631 0.4078,1.53631 0.2104,0 0.4801,-0.25389 0.5989,-0.56424 0.2301,-0.59885 -0.1623,-1.17004 -0.6039,-1.16015 z m 5.2133,5.3236 c -0.6509,0 -1.0518,0.85625 -0.7588,1.61994 0.2703,0.7043 0.8157,0.68993 1.0914,-0.029 0.3722,-0.97011 0.2425,-1.59127 -0.3326,-1.59127 z m -25.5628,0.72014 c -0.6028,0 -0.9968,0.60432 -0.7028,1.07947 0.246,0.3979 1.0196,0.48109 1.3552,0.14505 0.3435,-0.34352 -0.1257,-1.22449 -0.6524,-1.22449 z m 20.5797,0.18264 c -0.071,-0.002 -0.1782,0.0822 -0.3356,0.24152 -0.6395,0.64688 -1.0181,1.72537 -0.7557,2.15003 0.3117,0.50536 1.2017,-0.80478 1.215,-1.7902 0,-0.40979 -0.021,-0.59789 -0.1237,-0.60135 z m -16.981,2.69744 c -0.7201,0 -1.0443,0.75577 -0.4786,1.11411 0.591,0.3742 0.8429,0.39894 1.1315,0.11036 0.3435,-0.34352 -0.1262,-1.22498 -0.6529,-1.22498 z m 20.2704,4.1679 c -0.072,0.002 -0.1485,0.0138 -0.2277,0.0345 -0.9072,0.23758 -1.2671,1.13493 -0.7197,1.79419 0.4901,0.59098 1.0181,0.48601 1.5141,-0.30046 0.4756,-0.75429 0.1336,-1.55115 -0.5668,-1.52838 z m -19.0038,0.66022 c -0.199,5e-4 -0.4356,0.065 -0.6929,0.20289 -0.6271,0.33557 -0.6979,0.52022 -0.3549,0.93297 0.5722,0.68993 1.2894,0.65137 1.5715,-0.0851 0.246,-0.64046 -0.017,-1.05225 -0.5237,-1.05076 z m -4.6168,0.93792 a 0.66718152,0.66718152 0 0 0 -0.5732,0.32368 c -0.2969,0.4791 0.9102,1.58481 1.3017,1.19281 0.1782,-0.17767 0.2198,-0.59291 0.093,-0.92307 -0.1479,-0.38504 -0.4949,-0.5974 -0.8216,-0.59394 z m 17.5546,2.5143 c -0.2232,0.0152 -0.3024,0.36673 -0.1069,0.87654 0.187,0.4885 0.3019,0.51966 0.5335,0.14505 0.1623,-0.26232 0.1431,-0.62954 -0.043,-0.81566 -0.149,-0.14947 -0.2811,-0.21284 -0.3831,-0.20593 z m 4.6623,1.88771 a 0.30339932,0.30339932 0 0 0 -0.086,0.0152 c -0.6058,0.20144 -0.7266,1.38583 -0.1762,1.72635 0.5974,0.36922 1.121,-0.45733 0.8068,-1.27498 -0.1079,-0.28208 -0.3396,-0.47267 -0.5445,-0.46624 z m -18.6256,1.63281 c -0.068,0 -0.1421,0.008 -0.2237,0.0214 -0.9379,0.16184 -1.0305,0.27469 -0.7751,0.94039 0.1173,0.30586 0.5539,0.55484 0.9696,0.55484 0.5786,0 0.729,-0.18955 0.6409,-0.80874 -0.07,-0.49395 -0.2465,-0.70727 -0.6117,-0.70777 z m -6.709,1.9971 c -0.1039,0.003 -0.1732,0.0806 -0.1732,0.21878 0,0.20938 0.1618,0.38159 0.3598,0.38159 0.198,0 0.3594,-0.0723 0.3594,-0.15935 0,-0.0876 -0.1614,-0.25887 -0.3594,-0.38111 a 0.34645922,0.34645922 0 0 0 -0.1866,-0.0594 z m 29.1783,0.7627 a 0.92257144,0.92257144 0 0 0 -0.1959,0.0173 c -1.4675,0.28256 -1.8709,1.0443 -1.0077,1.90748 0.5988,0.59885 1.2502,0.53949 1.51,-0.13759 0.4118,-1.07204 0.2797,-1.77238 -0.3063,-1.78673 z m -24.3635,2.47075 c -0.2252,9.9e-4 -0.5077,0.13267 -0.8582,0.3885 -0.688,0.50287 -0.689,0.52615 -0.02,1.26458 1.031,1.13935 1.7169,0.97058 1.5823,-0.38954 -0.084,-0.85427 -0.3019,-1.26556 -0.7038,-1.26359 z m 17.8585,0.24545 c -0.9626,0 -1.4066,0.51075 -1.1126,1.27794 0.2465,0.64142 1.1601,0.68448 1.5422,0.0728 0.5544,-0.88743 0.4074,-1.35069 -0.4296,-1.35069 z m -22.8465,1.08096 c -0.8157,0 -0.9226,0.37268 -0.2881,1.0072 0.6345,0.63452 1.0072,0.5281 1.0072,-0.28802 0,-0.48007 -0.239,-0.71915 -0.7191,-0.71915 z m 25.8647,3.36709 a 0.67114103,0.67114103 0 0 0 -0.2272,0.0428 c -0.5731,0.22175 -0.5667,0.28015 0.078,0.75478 0.7701,0.56672 1.0492,0.62608 1.3833,0.29203 0.3653,-0.36528 -0.5741,-1.10668 -1.2344,-1.08936 z m 21.0919,2.39156 c -0.632,0 -0.9958,0.62366 -0.7454,1.27695 0.246,0.64045 1.1849,0.68993 1.4002,0.0732 0.2301,-0.66077 -0.1039,-1.3502 -0.6548,-1.3502 z m -43.0144,2.17279 c -0.1311,0.008 -0.291,0.14055 -0.5528,0.40239 -0.3276,0.32714 -0.4801,0.78201 -0.3395,1.00968 0.2969,0.48007 1.3353,0.36577 1.5036,-0.16481 0.062,-0.19798 -0.039,-0.60286 -0.2277,-0.8998 -0.1499,-0.23758 -0.2524,-0.35485 -0.3836,-0.34746 z m 18.9241,1.40366 c -0.2845,0.002 -0.5672,0.12079 -0.729,0.38311 -0.3326,0.53749 0.1302,1.07946 0.9211,1.07946 0.4587,0 0.6988,-0.24649 0.6988,-0.71914 0,-0.46528 -0.4479,-0.74638 -0.8909,-0.7434 z m -23.4637,0.16135 a 0.25242032,0.25242032 0 0 0 -0.1227,0.0415 c -0.198,0.12273 -0.3603,0.37565 -0.3603,0.56175 0,0.18658 0.1623,0.33854 0.3603,0.33854 0.198,0 0.3598,-0.25244 0.3598,-0.56078 0,-0.24103 -0.099,-0.38705 -0.2371,-0.38111 z m 47.5629,1.81743 c -0.4454,0.005 -0.9602,0.51966 -0.7355,0.88396 0.3569,0.57758 1.2844,0.49251 1.2844,-0.1183 0,-0.28506 -0.1287,-0.59837 -0.287,-0.69589 a 0.48405308,0.48405308 0 0 0 -0.2624,-0.0693 z m -42.9495,3.082 c -0.2183,0.002 -0.444,0.11382 -0.5965,0.36128 -0.3019,0.48753 0.1055,1.08095 0.7415,1.08095 0.285,0 0.5177,-0.32417 0.5177,-0.72014 0,-0.45436 -0.3223,-0.7241 -0.6632,-0.72261 z m 24.0239,0.72212 c -0.7691,0.0214 -0.9037,0.71569 -0.2514,1.36803 0.6712,0.67065 1.0082,0.51475 1.0082,-0.46825 0,-0.65974 -0.192,-0.8998 -0.7201,-0.8998 z m 21.235,1.54769 c -0.1865,-10e-4 -0.4102,0.0737 -0.6572,0.23012 -0.4331,0.27372 -0.44,0.4207 -0.037,0.90673 0.5964,0.71866 1.2729,0.53507 1.2729,-0.34545 0,-0.51227 -0.2227,-0.78994 -0.579,-0.79191 z m -50.9221,0.75974 c -0.4627,0.005 -0.9453,0.58551 -0.7572,1.076 0.3123,0.81319 1.324,0.71915 1.324,-0.12273 0,-0.38456 -0.1292,-0.77854 -0.2871,-0.87604 a 0.51374952,0.51374952 0 0 0 -0.2797,-0.0772 z m 45.7475,2.20792 c -0.2044,0.005 -0.4617,0.12273 -0.7627,0.35589 -0.6706,0.51869 -0.6706,0.53749 0,1.0562 0.8023,0.62118 1.2968,0.41919 1.2968,-0.52857 0,-0.59243 -0.1931,-0.89288 -0.5346,-0.88348 z m -19.668,0.16433 c -0.4504,0.0145 -0.6751,0.25437 -0.6751,0.71915 0,0.48007 0.2396,0.72014 0.7192,0.72014 0.4801,0 0.7206,-0.24007 0.7206,-0.72014 0,-0.48006 -0.2405,-0.71915 -0.7206,-0.71915 h -0.045 z m -20.0164,3.04389 c -0.1515,0.002 -0.3317,0.10739 -0.6088,0.31035 -0.4222,0.30882 -0.5974,0.72756 -0.4574,1.09233 0.2772,0.72262 1.5383,0.78349 1.8056,0.0871 0.1069,-0.27766 0,-0.76914 -0.2346,-1.09234 -0.198,-0.27027 -0.3331,-0.39991 -0.5049,-0.39742 z m 43.2,1.44325 c -0.1485,-0.002 -0.3212,0.0925 -0.5761,0.27863 -0.4074,0.29797 -0.5574,0.70034 -0.4068,1.09233 0.286,0.74588 1.4462,0.82408 1.7174,0.11582 0.1069,-0.27718 0,-0.76914 -0.2356,-1.09234 -0.192,-0.26231 -0.3301,-0.39099 -0.4989,-0.39444 z m -48.5919,2.04064 a 0.78695741,0.78695741 0 0 0 -0.5355,0.23903 c -0.5603,0.55982 -0.069,1.51205 0.78,1.51205 0.4949,0 0.7315,-0.23605 0.7315,-0.73103 0,-0.61025 -0.4914,-1.0364 -0.976,-1.01958 z m 25.7147,0.0435 a 0.44693239,0.44693239 0 0 0 -0.2277,0.0657 c -0.4346,0.26875 -0.532,1.38337 -0.1545,1.7615 0.4316,0.43107 1.2176,0.25243 1.4403,-0.32762 0.2287,-0.59492 -0.4979,-1.51156 -1.0582,-1.49968 z m 17.5521,4.05457 c -0.195,0.002 -0.4376,0.10393 -0.7186,0.30931 -0.7603,0.5558 -0.4371,1.30318 0.5642,1.30318 0.4514,0 0.6984,-0.24746 0.6984,-0.69935 0,-0.60584 -0.1971,-0.91763 -0.5445,-0.91317 z m -23.0905,0.8716 c -0.1584,0.005 -0.3445,0.1445 -0.4291,0.39846 -0.079,0.23758 0.05,0.36722 0.288,0.28802 0.2376,-0.0792 0.4202,-0.26135 0.4049,-0.40488 -0.02,-0.19501 -0.1322,-0.28505 -0.2638,-0.2816 z m -10.9432,0.74093 c -0.9805,0 -1.2096,0.67508 -0.4974,1.46256 0.7315,0.80774 1.1171,0.88 1.3304,0.24746 0.2733,-0.81319 -0.1633,-1.71003 -0.8325,-1.71003 z m -8.1042,1.22746 c -0.4627,0.005 -0.9453,0.58552 -0.7572,1.076 0.3123,0.81318 1.3235,0.71915 1.3235,-0.12273 0,-0.38456 -0.1287,-0.77854 -0.2871,-0.87604 a 0.51374952,0.51374952 0 0 0 -0.2792,-0.0772 z m 45.1739,0.39251 c -0.2822,0.0166 -0.5588,0.29348 -0.6237,0.62905 -0.085,0.44199 0.1089,0.63058 0.6508,0.63058 0.542,0 0.7365,-0.18811 0.6514,-0.63058 -0.066,-0.34649 -0.3598,-0.62905 -0.6514,-0.62905 z m -21.9606,0.94039 c -0.2544,0.006 -0.391,0.28954 -0.1609,0.66124 0.1327,0.21429 0.4064,0.28706 0.6083,0.16233 0.2454,-0.15196 0.239,-0.35243 -0.02,-0.61073 -0.1515,-0.15148 -0.304,-0.21533 -0.4281,-0.21284 z m -8.1938,1.82929 c -0.2202,0.002 -0.4587,0.0757 -0.6963,0.22915 -0.7187,0.46376 -0.1069,1.49968 0.8859,1.49968 0.7122,0 0.8637,-0.15838 0.7711,-0.80576 -0.084,-0.59098 -0.4771,-0.92902 -0.9607,-0.92309 z m -5.6769,1.76794 c -0.2772,0.006 -0.588,0.17815 -0.8889,0.54046 -0.4084,0.49195 -0.3772,0.65379 0.2048,1.07946 0.882,0.64544 1.6269,0.64046 1.6269,-0.01 0,-1.0275 -0.4118,-1.62143 -0.9424,-1.61005 z m 18.2732,0.57612 c -0.1723,9.9e-4 -0.3747,0.0817 -0.5999,0.24649 -0.582,0.42568 -0.6132,0.58801 -0.2049,1.07996 0.6366,0.76716 1.4745,0.73747 1.4675,-0.0511 -0.01,-0.8315 -0.2534,-1.27695 -0.6622,-1.27497 z m 13.3214,0.64487 c -0.1386,0.005 -0.3168,0.11285 -0.5974,0.31774 -0.5865,0.42914 -0.6187,0.59195 -0.2099,1.08393 0.5954,0.71716 1.073,0.73796 1.3329,0.0594 0.1094,-0.28457 0.057,-0.77113 -0.1168,-1.08244 -0.146,-0.26031 -0.252,-0.38505 -0.4088,-0.37862 z m -4.2234,4.51883 c -0.2207,-0.002 -0.5003,0.099 -0.8334,0.30986 -0.693,0.43853 -0.2223,1.47097 0.6711,1.47097 0.5395,0 0.7305,-0.23509 0.7305,-0.89981 0,-0.57708 -0.2009,-0.87555 -0.5681,-0.88099 z m -18.3672,1.57094 a 0.73399865,0.73399865 0 0 0 -0.2416,0.0484 c -0.8077,0.31035 -0.8008,1.50116 0.01,1.713 1.0473,0.27372 1.0859,0.26577 1.2869,-0.25735 0.2613,-0.68102 -0.395,-1.52442 -1.0547,-1.50413 z m 7.4251,2.12132 c -0.151,-0.003 -0.3232,0.0318 -0.5148,0.10539 -0.682,0.26135 -0.7577,1.08838 -0.1232,1.34426 0.9142,0.36922 1.3497,0.22072 1.3497,-0.4603 0,-0.63603 -0.2584,-0.98147 -0.7117,-0.98989 z m 4.0872,1.87731 c -0.1361,0.003 -0.2985,0.065 -0.5103,0.17815 -0.8745,0.46818 -0.9092,1.27794 -0.076,1.76348 0.8651,0.50384 1.0592,0.47709 1.3101,-0.17767 0.1193,-0.31131 0.049,-0.8805 -0.1564,-1.26457 -0.1881,-0.35043 -0.341,-0.50584 -0.5677,-0.4999 z m -13.9752,2.76921 c -0.392,0.011 -0.7686,0.31331 -0.8463,0.85179 -0.1416,0.98741 1.4303,1.79515 1.7719,0.91069 0.1237,-0.31974 0.073,-0.87506 -0.1139,-1.23339 -0.192,-0.36971 -0.5068,-0.53749 -0.8117,-0.52913 z m 7.2014,3.88034 c -0.6013,0 -1.0077,0.51372 -0.6716,0.84981 0.4306,0.43059 1.1908,0.23261 1.1908,-0.30931 0,-0.29694 -0.2336,-0.54046 -0.5191,-0.54046 z m -5.7631,5.75963 c -1.2497,0 -1.6679,1.35812 -0.7117,2.31435 0.7523,0.75182 1.1384,0.71272 1.4096,-0.14152 0.1945,-0.61275 -0.3064,-2.1728 -0.6979,-2.1728 z m 4.116,8.47687 a 0.52414331,0.52414331 0 0 0 -0.1797,0.0339 c -0.642,0.24649 -0.6904,0.90722 -0.1104,1.48779 0.6593,0.65926 1.4651,-0.16232 1.0038,-1.02354 -0.1683,-0.31428 -0.4489,-0.5019 -0.7137,-0.49789 z m -4.2709,4.96525 c -0.2094,0.01 -0.4519,0.13759 -0.7063,0.39597 -0.5543,0.56327 -0.5469,0.64046 0.1035,1.12252 0.9859,0.73103 1.2809,0.64841 1.2809,-0.3603 0,-0.76123 -0.2782,-1.17599 -0.6781,-1.15817 z m 3.6824,6.91088 c -0.1401,0.004 -0.297,0.0656 -0.497,0.17221 -0.8775,0.46921 -0.9205,1.6333 -0.078,2.1233 0.9117,0.53155 1.422,0.47018 1.6798,-0.20192 0.1248,-0.32465 -0.026,-0.97504 -0.334,-1.44523 -0.3019,-0.4603 -0.5038,-0.65676 -0.7706,-0.6484 z m 1.3135,8.08438 c -0.4711,0.02 -0.7968,0.66174 -0.5385,1.07996 0.3761,0.60881 0.8993,0.39942 0.8993,-0.35982 0,-0.39597 -0.1519,-0.72014 -0.3385,-0.72014 z m -3.8551,1.12896 a 0.78695741,0.78695741 0 0 0 -0.5355,0.23903 c -0.5598,0.55926 -0.068,1.51156 0.781,1.51156 0.4949,0 0.731,-0.23661 0.731,-0.73153 0,-0.61025 -0.4919,-1.03591 -0.9765,-1.01908 z m -2.2792,5.39239 c -0.1158,0 -0.2321,0.0703 -0.3677,0.20393 -0.2376,0.23412 -0.3346,0.67956 -0.2154,0.98987 0.2317,0.60335 1.1528,0.76469 1.4665,0.25735 0.104,-0.16924 -0.037,-0.61468 -0.3142,-0.98988 -0.2312,-0.31332 -0.4004,-0.46175 -0.5692,-0.46127 z m 6.4556,4.74253 c -0.1628,0.004 -0.3549,0.0797 -0.6187,0.22127 -0.9746,0.52119 -0.982,0.91268 -0.039,1.85604 0.8582,0.85823 1.5516,0.76221 1.7001,-0.23413 0.057,-0.38159 -0.1168,-0.99681 -0.3875,-1.36653 -0.2431,-0.33259 -0.4178,-0.48255 -0.6553,-0.47661 z m -5.8968,2.79345 c -0.4711,-0.001 -0.9834,0.18513 -1.2947,0.55981 -0.4079,0.49195 -0.3782,0.65435 0.2039,1.07997 0.8656,0.6325 1.4289,0.63451 1.9501,0.006 0.2256,-0.27172 0.3093,-0.75726 0.1856,-1.07947 -0.1445,-0.37613 -0.5741,-0.5652 -1.0449,-0.56672 z"
   fill="#ffffff"
   id="path387"
   style="stroke-width:0.494942" /></svg>
