<svg xml:space="preserve" version="1.1" id="svg39" xmlns="http://www.w3.org/2000/svg" viewBox="0 0 2351 400">
    <path d="M382.67 226.976c-1.468-.05-2.956-.124-4.376-.522-.471-.146-.893-.413-1.28-.713-.112.461-.678.747-1.096.486-.611-.377-.844-1.11-1.102-1.742-.54-1.364-.88-2.815-.881-4.287-.012-1.736.11-3.47.158-5.204.24-6.194.443-12.391.652-18.59.106-2.71.22-5.43.69-8.106.16-1.108.368-2.212.477-3.326.132-3.409.146-6.82.187-10.231.045-6.007.098-12.014.029-18.02-.015-.972-.031-1.947-.163-2.91-2.812.112-5.627.165-8.44.243-1.052-.516-2.137-.987-3.067-1.711a26.034 26.034 0 0 1-4.888-4.759c-.944-1.178-1.612-2.542-2.337-3.859-.635-1.214-1.297-2.414-1.954-3.616a40.003 40.003 0 0 1-2.087-5.32c-.327-1.231-.773-2.427-1.256-3.604-.355-1.003-.66-2.04-.682-3.112-.3-5.032-.308-10.076-.5-15.113-.06-1.427-.087-2.883-.278-4.31a97.738 97.738 0 0 1-.45-8.136c-.027-3.265.768-6.466 1.693-9.575.57-1.82 1.21-3.681 2.437-5.173.758-.865 1.705-1.621 2.82-1.956 1.374-.398 2.812.038 4.092.553 1.06.42 2.025 1.164 2.522 2.21.55 1.132.754 2.396.9 3.636.19 2.142-.174 4.28-.48 6.393-.223 1.46-.493 2.935-.668 4.377a25.18 25.18 0 0 0-.132 1.556 51.4 51.4 0 0 0-.055 2.298c-.036 4.454.06 8.901.391 13.329.127 1.48.232 3.003.65 4.453a27.817 27.817 0 0 0 .521 1.711c1.006 2.951 2.292 5.8 3.689 8.585.825 1.568 1.696 3.145 2.917 4.444.199.213.5.46.687.592a13.44 13.44 0 0 0 2.2 1.198c.282.122.661.274.997.363.286.072.578.113.867.17-.263-1.902-.175-3.827-.052-5.737.153-2.61.227-5.228.567-7.823.334-2.62.732-5.24 1.414-7.794.256-1.038.782-1.984 1.421-2.834.99-1.315 2.157-2.528 3.55-3.42.778-.477 1.696-.758 2.612-.736 1.17.055 2.103.873 2.9 1.652.937.9 1.828 1.91 2.264 3.156.626 1.727.727 3.584.83 5.402.164 3.858.068 7.722 0 11.581-.117 5.781-.314 11.56-.434 17.342-.031 1.793-.029 3.602.057 5.37.12 2.39.385 4.749.64 7.133.126 1.048.2 2.11.43 3.16.097.489.554.87 1.055.866 1.087.05 2.175.096 3.255.238 1.603.14 3.185-.461 4.458-1.407.992-.665 1.726-1.637 2.281-2.682a16.72 16.72 0 0 0 2.013-5.841 23.96 23.96 0 0 0 .22-2.062c.202-3.134-.055-6.245-.288-9.373-.317-4.933-.29-9.88-.276-14.82.034-1.109-.036-2.245.276-3.321.413-1.221 1.038-2.451 2.142-3.184 1.408-.946 3.15-1.484 4.85-1.265.994.136 1.873.695 2.632 1.323 1.194 1.073 2.012 2.478 2.85 3.828.623 1.028 1.177 2.134 1.302 3.346.17 1.542.36 3.084.69 4.601.547 2.177.704 4.427.729 6.665.015.71.067 1.429.12 2.16.127 1.42.232 2.844.194 4.27a61.184 61.184 0 0 1-1.121 10.487c-.4 2.081-1.106 4.084-1.695 6.115-.865 2.817-1.652 5.66-2.668 8.427-.499 1.318-1.12 2.671-2.265 3.555-.881.674-1.823 1.266-2.74 1.892-1.14.642-2.393 1.055-3.625 1.485-1.552.516-3.127.99-4.755 1.19-1.718.274-3.478.248-5.173.657-.772.275-1.583.402-2.382.565-1.47.395-2.528 1.67-3.076 3.04-.234.564-.36 1.098-.537 1.688-.561 1.98-.98 4.076-1.13 6.157-.27 3.643.003 7.296.246 10.932.264 3.867.566 7.734.654 11.61.06 1.797-.24 3.628-1.056 5.243-.912 1.838-2.45 3.386-4.335 4.218-.778.3-1.635.24-2.452.246z" id="path35"/>
    <path d="M358.199 83.118c-1.521-.055-2.929.753-3.98 1.796-1.447 1.431-2.21 3.377-2.828 5.278-.973 3.134-1.81 6.356-1.898 9.655-.01 2.956.17 5.91.447 8.852.09.702.148 1.451.186 2.13.246 5.145.258 10.312.494 15.465.082 1.1.038 2.218.286 3.299.307 1.503 1.03 2.87 1.472 4.332a40.11 40.11 0 0 0 1.843 5.165c.449 1.096 1.048 2.118 1.612 3.156.928 1.682 1.754 3.426 2.83 5.022a26.045 26.045 0 0 0 5.155 5.267c1.073.884 2.347 1.462 3.59 2.062 2.693-.072 5.386-.13 8.078-.23.045.448.067.897.081 1.347.084 4.575.056 9.151.031 13.726-.04 4.83-.048 9.66-.189 14.489.006 1.322-.259 2.621-.45 3.924-.44 2.468-.608 4.974-.709 7.476-.227 6.117-.408 12.238-.647 18.35-.062 1.975-.172 3.929-.206 5.906a12.134 12.134 0 0 0 .693 4.49c.345.857.583 1.836 1.324 2.45.475.458 1.281.441 1.749-.019a4.358 4.358 0 0 0 .75.386c1.531.498 3.16.562 4.756.623.822-.003 1.667.041 2.46-.215 1.526-.597 2.842-1.677 3.832-2.973 1.395-1.808 2.068-4.098 2.097-6.366-.038-3.449-.287-6.89-.521-10.33-.24-3.683-.572-7.328-.478-11.018.02-.74.065-1.537.123-2.224.203-2.283.714-4.528 1.39-6.715.413-1.371 1.3-2.727 2.695-3.239.744-.21 1.522-.288 2.261-.524.398-.143.867-.227 1.25-.289 1.081-.168 2.175-.223 3.261-.345a23.25 23.25 0 0 0 4.83-1.022c1.548-.506 3.115-1 4.557-1.768a56.097 56.097 0 0 0 2.642-1.786c1.205-.814 1.974-2.104 2.503-3.43 1.03-2.627 1.783-5.35 2.61-8.045.603-2.089 1.311-4.145 1.816-6.263.798-3.688 1.22-7.455 1.317-11.227.086-2.006-.172-4-.28-6-.053-1.663-.07-3.333-.3-4.985-.131-1.16-.443-2.285-.655-3.43a48.431 48.431 0 0 1-.455-3.252c-.081-1.226-.528-2.395-1.141-3.45-.819-1.359-1.622-2.751-2.712-3.917-.82-.856-1.84-1.568-2.996-1.875-1.815-.394-3.735.096-5.305 1.04-1.176.651-1.981 1.804-2.466 3.033-.558 1.215-.525 2.576-.542 3.883-.02 5.373-.06 10.754.347 16.115.21 2.867.405 5.728.194 8.577-.141 2.058-.572 4.107-1.43 5.99-.568 1.197-1.165 2.427-2.137 3.355-1.231 1.113-2.833 1.935-4.527 1.89-.978-.094-1.956-.19-2.94-.225-.367-.053-.86.086-1.093-.293-.153-.368-.174-.782-.246-1.174-.27-2.196-.497-4.423-.701-6.61a66.942 66.942 0 0 1-.255-6.589c.08-5.302.267-10.602.389-15.903.088-4.495.23-8.992.095-13.487-.083-1.947-.148-3.924-.682-5.81-.308-1.189-.949-2.266-1.777-3.165-.82-.855-1.644-1.757-2.717-2.297-1.115-.58-2.458-.398-3.573.082-1.122.508-2.064 1.335-2.931 2.194-1.163 1.226-2.272 2.58-2.828 4.198-.646 2.182-1.028 4.432-1.357 6.68a68.277 68.277 0 0 0-.668 7.031c-.1 2.553-.404 5.112-.167 7.666-.25-.048-.5-.146-.741-.24-.978-.413-1.957-.883-2.775-1.57-1.307-1.272-2.181-2.902-3.032-4.495-1.552-3.112-2.998-6.294-4.018-9.624-.473-1.464-.65-2.998-.767-4.526-.297-3.697-.412-7.368-.43-11.078 0-1.677-.018-3.374.064-5.028.029-.46.067-.976.12-1.4.139-1.143.34-2.315.525-3.473.338-2.29.774-4.591.66-6.916-.096-1.306-.3-2.623-.778-3.848-.432-1.187-1.359-2.151-2.484-2.706-1.13-.525-2.344-.953-3.602-.986zm-.034 1.075c.63.009 1.325.163 2.15.457 2.295.813 3.06 1.855 3.538 4.812.31 1.924.182 3.702-.615 8.563-.595 3.622-.628 4.097-.626 9.02 0 5.116.274 10.813.66 13.757.322 2.467 1.818 6.544 4.199 11.44 1.47 3.026 2.881 5.12 4.045 6.008.98.748 2.93 1.687 3.813 1.837.424.072.911.168 1.08.213.271.072.287-.088.13-1.34-.098-.783-.125-2.35-.06-3.483.065-1.132.197-3.56.293-5.393.23-4.417 1.348-11.05 2.147-12.742.959-2.031 3.564-4.672 5.135-5.203 1.671-.566 2.514-.302 4.12 1.291 3.269 3.244 3.331 4.046 2.538 32.636-.232 8.382-.182 9.81.597 16.959.353 3.24.424 3.566.875 4.017.413.414.692.497 1.76.524.699.018 1.691.09 2.206.16 1.618.223 3.217-.16 4.713-1.128 1.57-1.016 2.256-1.83 3.345-3.972 1.893-3.724 2.325-7.702 1.69-15.58-.248-3.09-.36-6.529-.37-11.472-.013-6.952-.007-7.076.442-8.19.608-1.503 1.235-2.208 2.563-2.878 1.586-.8 3.446-.976 4.57-.43 1.453.706 2.247 1.535 3.737 3.906 2.356 3.748 1.222 3.097 2.407 8.684.526 2.112.65 4.239.679 6.31-.001.567.1 2.158.225 3.536.376 4.152-.424 11.847-1.657 15.926-.261.863-.979 3.246-1.595 5.295-2.486 8.272-2.847 9.03-4.987 10.465a222.366 222.366 0 0 0-1.815 1.23c-.809.558-4.008 1.718-6.383 2.316-.882.222-2.69.483-4.02.58-1.33.098-2.77.305-3.2.462a11.01 11.01 0 0 1-1.766.427c-1.945.284-3.506 1.852-4.223 4.24-1.633 5.438-1.86 8.86-1.2 18.027.527 7.313.732 11.372.653 12.942-.165 3.332-1.883 6.152-4.64 7.623-.652.349-1.086.413-2.646.39-1.027-.014-2.458-.133-3.182-.264-1.353-.245-1.519-.328-2.883-1.441-.441-.36-.802-.615-.802-.569 0 .048.1.372.223.722.165.477.267.57.402.373.134-.197.166-.163.12.127-.12.752-.638.405-1.087-.728-.876-2.206-1.066-3.362-.972-5.907.048-1.312.184-4.944.303-8.072a2189.322 2189.322 0 0 0 .421-12.256c.151-4.854.311-7.234.61-9.118.223-1.402.492-3.167.597-3.922.218-1.56.385-27.7.196-30.394-.112-1.611-.158-1.76-.516-1.725-.216.023-2.207.087-4.425.144l-4.033.103-1.36-.663c-2.021-.987-5.257-4.003-6.908-6.44-.308-.457-1.095-1.846-1.747-3.086-.651-1.24-1.368-2.564-1.592-2.942-.65-1.098-1.962-4.38-2.409-6.03a24.596 24.596 0 0 0-.968-2.802c-.307-.705-.658-1.852-.78-2.549-.122-.696-.305-5.06-.405-9.698-.1-4.638-.262-9.05-.359-9.805-.35-2.725-.643-8.47-.523-10.244.158-2.308.526-4.242 1.394-7.312.99-3.495 1.933-5.378 3.263-6.514.996-.851 1.866-1.246 2.916-1.233zm-.454 4.447a.528.528 0 0 0-.533.516.98.98 0 0 0 .237.597c.187.187.296.127.508-.277.184-.35.206-.578.07-.715a.41.41 0 0 0-.283-.122zm.476 5.071c-.1 0-.386.165-.637.37-.407.329-.43.426-.216.897.287.628.628.57.987-.165.265-.542.197-1.1-.134-1.1zm-4.156 5.704c-.086.006-.203.063-.362.163-.338.213-.141.801.268.801.189 0 .3-.18.3-.49 0-.334-.053-.482-.206-.473zm4.75 4.296c-.403 0-.707.489-.507.813.206.333.765.082.83-.374.045-.327-.036-.439-.323-.439zm-4.926 2.197a.351.351 0 0 0-.242.112c-.131.132-.122.34.034.628.25.468.438.402.528-.187.048-.32-.118-.553-.319-.554zm5.292 4.707c-.307-.005-.638.498-.502.929.178.557.768.446.854-.16.036-.255-.03-.559-.149-.677a.283.283 0 0 0-.203-.09zm-3.2 1.147c-.1 0-.236.038-.42.108-.364.141-.407.685-.079 1.014.32.32.75-.063.75-.667 0-.316-.06-.454-.25-.455zm29.972 6.264c-.55 0-.636.18-.266.551.301.302.626.2.708-.225.045-.237-.077-.327-.441-.327zm-26.094 1.177c-.417 0-.49.09-.49.609 0 .46.072.582.294.497.163-.063.3-.005.308.126.02.333.348-.467.364-.888.01-.24-.134-.343-.475-.343zm-5.123 1.372c-.516.016-.646.526-.23.941.317.317.484.297.627-.074.232-.608.122-.866-.371-.866zm26.518 1.47c-.744 0-1.057.487-.75 1.162.279.612.923.666 1.225.103.12-.22.187-.596.153-.833-.048-.33-.194-.43-.628-.43zm5.954 1.667c-.494 0-.708.495-.384.886.311.375.514.37.663-.018.218-.57.122-.867-.28-.867zm-25.099 3.334c-.385.02-.697.638-.486.979.16.261.361.25.648-.038.373-.373.286-.941-.143-.941zm47.508.589c-.479 0-.581.37-.206.745.388.387.706.267.676-.255-.022-.37-.137-.49-.47-.49zm-27.081.392a.4.4 0 0 0-.328.204c-.156.253.279.811.518.664.096-.06.175-.279.175-.488 0-.245-.178-.386-.364-.38zm-26.484.197c-.47 0-.801.278-.801.674 0 .736.304.888.708.355.3-.396.358-1.03.093-1.03zm58.041.98c-.548 0-.64.267-.256.74.182.226.344.394.357.375.014-.02.084-.279.153-.576.108-.449.065-.539-.255-.539zm-26.412 1.177c-.343.014-.553.472-.397.879.17.44.714.127.714-.41 0-.29-.115-.47-.3-.47zm21.665 1.186a.51.51 0 0 0-.503.312c-.17.444.475.92.815.603.134-.124.2-.384.153-.576-.058-.22-.257-.334-.464-.34zm-29.777 1.62a.742.742 0 0 0-.28.058c-.41.158-.396.598.027.835.423.237.642.113.642-.366 0-.338-.144-.522-.39-.527zm37.07.92c-.48 0-.66.283-.502.785.1.317.197.353.503.187.209-.112.38-.376.38-.588 0-.251-.135-.385-.381-.385zm-55.665.2a.848.848 0 0 0-.537.202c-.394.327-.354.705.124 1.184.392.392.423.394.794.06.237-.214.363-.544.327-.85-.043-.372-.36-.596-.708-.594zm25.057.388c-.548 0-.735.58-.29.905.45.33.689.184.689-.426 0-.35-.106-.479-.399-.479zm25.974.98c-.287.013-.385.42-.148.654.248.249.458.13.458-.261 0-.218-.132-.392-.295-.392zm-47.335 1.373c-.507 0-.723.491-.391.891.344.415.667.255.74-.367.05-.421-.017-.524-.349-.524zm43.54 1.177c-.223 0-.407.117-.407.261 0 .6.635.656.75.065.043-.22-.07-.327-.343-.327zm-50.003.588c-.448 0-.46.023-.284.483.148.39.54.292.627-.156.043-.22-.07-.327-.343-.327zm22.23 1.177c-.511 0-.629.36-.243.745.306.307.45.297.738-.05.316-.381.093-.694-.495-.694zm36.088 0c-.523 0-.707.339-.453.833.218.422.437.433.827.043.397-.396.192-.876-.374-.876zm-47.762.616c-.165 0-.33.045-.43.146-.148.148-.102.328.16.62.353.388.385.391.626.062.142-.192.223-.44.187-.553-.057-.175-.303-.273-.544-.274zm43.173.364c-.223 0-.407.118-.407.262 0 .6.635.656.75.064.043-.22-.07-.327-.343-.327zm-25.008 1.198a1.225 1.225 0 0 0-.153.015c-.545.076-.667.595-.241 1.02.422.423.68.235.68-.493 0-.421-.048-.545-.286-.542zm-14.413.244a.491.491 0 0 0-.296.122c-.232.192-.252.317-.083.521.293.354.551.339.697-.038.131-.342-.06-.61-.319-.604zm3.991 1.392c-.052 0-.143.038-.288.117-.469.251-.66.659-.502 1.07.18.468.499.342.627-.245.065-.297.153-.652.197-.789.03-.103.026-.153-.034-.153zm-13.729.696c-.378.006-.466.106-.466.504 0 .41.081.492.44.441a.557.557 0 0 0 .505-.504c.05-.359-.03-.44-.441-.44zm45.96.617c-.36.004-.492.347-.209.631.228.228.745.041.745-.27 0-.16-.199-.32-.44-.355a.634.634 0 0 0-.096-.006zm-39.661.56c-.3 0-.402.415-.16.656.131.132.445-.223.451-.51.002-.081-.13-.146-.291-.146zm47.969.587c-.478 0-.657.247-.492.679.175.454.748.287.823-.24.048-.33-.036-.439-.331-.439zm-34.458.785c-.334.006-.471.113-.471.36 0 .76.838.83.945.079.05-.358-.03-.44-.441-.44zm29.727.98c-.382 0-.555.557-.264.849.177.177.656-.246.656-.579 0-.148-.177-.27-.392-.27zm-38.557.611c-.208.004-.27.115-.27.415 0 .698.42 1.04.74.603.138-.192.227-.48.195-.644-.03-.163-.254-.326-.496-.36a1.076 1.076 0 0 0-.17-.014zm-5.144 1.144c-.115 0-.235.067-.328.215-.189.306.049.775.392.775.19 0 .3-.18.3-.49 0-.311-.174-.5-.365-.5zm47.195.799c-.258-.004-.552.1-.63.303-.064.17.035.509.219.754l.337.447.25-.483c.137-.266.25-.605.25-.754 0-.177-.198-.264-.427-.267zm-29.836.29a.288.288 0 0 0-.204.094c-.203.203-.024.79.242.79.1 0 .237-.15.307-.328.108-.285-.115-.56-.345-.555zm23.792.882c-.378 0-.531.384-.261.654s.653.115.653-.262c0-.261-.131-.392-.392-.392zm-29.217.392c-.25 0-.393.132-.393.36 0 .634.46.848.666.31.199-.518.137-.67-.273-.67zm28.106 2.745c-.144 0-.261.177-.261.393 0 .445.492.533.652.117.122-.321-.023-.51-.391-.51zm-22.843.766c-.256-.001-.547.153-.624.45-.062.237-.015.548.103.691.177.213.28.201.58-.07.2-.181.364-.492.364-.69 0-.257-.199-.38-.424-.381zm30.405 1.196c-.416.011-.493.388-.144.737.295.294.557.127.557-.357 0-.25-.134-.38-.392-.38h-.02zm-2.378.657a.618.618 0 0 0-.215.043c-.385.148-.423.497-.089.83.307.307.627.197.712-.245.072-.372-.115-.63-.406-.63zm-32.238.942c-.282.006-.381.379-.134.627.206.206.551.03.551-.28 0-.15-.155-.304-.343-.34a.358.358 0 0 0-.077-.008zm26.424 3.297a.435.435 0 0 0-.283.134c-.149.148.222.655.48.655.095 0 .172-.177.172-.392 0-.253-.173-.406-.369-.398zm-20.325.79c-.578 0-.831.465-.482.885.293.353.435.364.743.058.424-.425.282-.942-.26-.942zm26.797.784c-.478 0-.656.247-.491.679.175.453.748.287.823-.24.048-.33-.036-.439-.331-.439zm-31.595.784c-.433 0-.519.384-.166.738.295.294.557.126.557-.357 0-.25-.134-.38-.392-.38zm23.048 1.983a1.208 1.208 0 0 0-.153.014c-.545.079-.667.595-.242 1.021.422.422.681.235.681-.493 0-.422-.048-.546-.287-.542zm-26.746.065c-.117 0-.222.029-.288.093-.312.312.24.864.58.581.149-.122.268-.29.268-.373 0-.177-.303-.305-.56-.302zm9.384 1.678c-.381 0-.554.557-.263.848.177.177.656-.246.656-.578 0-.149-.177-.27-.392-.27zm22.556 1.372c-.443 0-.603.369-.364.833.237.46.696.435.848-.048.158-.497-.02-.785-.485-.785zm-27.25.589c-.452 0-.677.299-.525.695.134.347.357.363.67.05.357-.357.282-.745-.146-.745zm15.86.196c-.24 0-.38.134-.38.36 0 .653.641.883.861.309.16-.418-.019-.669-.48-.669zm-6.371.392c-.344 0-.542.34-.406.696.134.349.646.375.762.038.125-.36-.057-.735-.356-.735zm9.178.486a.147.147 0 0 0-.077.02c-.25.155-.01.474.355.474.25 0 .262-.055.065-.292-.103-.125-.242-.204-.344-.201zm-22.481.805c-.055.002-.124.06-.23.165-.156.156-.28.42-.28.589 0 .34.495.42.687.11.067-.108.067-.374-.002-.59-.06-.191-.103-.278-.175-.275zm26.359.117a.327.327 0 0 0-.228.108c-.24.24-.1.837.197.837.1 0 .237-.146.306-.327.124-.327-.05-.619-.273-.618zm-11.027 2.718c-.103 0-.245.038-.435.11-.364.14-.408.685-.081 1.011.27.27.735-.222.745-.787.004-.227-.057-.333-.23-.334zm-8.735.187a.448.448 0 0 0-.31.13c-.176.177.263.676.48.543.095-.06.174-.235.174-.39 0-.18-.163-.286-.343-.283zm3.676.785c-.441 0-.536.563-.158.94.273.273.542-.021.547-.597.002-.213-.146-.343-.389-.343zm19.82 0c-.223 0-.407.118-.407.262 0 .6.635.656.75.064.043-.22-.07-.327-.344-.327zm-8.667.134c-.21.011-.412.252-.304.533.136.353.44.412.622.12.067-.108.048-.324-.041-.482-.072-.127-.175-.177-.277-.17zm-21.779.766a.282.282 0 0 0-.09.022c-.28.108-.352.494-.133.712.192.192.209.175.306-.34.053-.276.03-.397-.081-.393zm24.917.192a.798.798 0 0 0-.172.028c-.439.115-.508.45-.166.794.311.311.557.118.557-.436 0-.284-.05-.392-.22-.387zm-21.901.872a.234.234 0 0 0-.168.063c-.063.062-.063.25.002.417.15.391.717.393.717.002 0-.245-.318-.484-.552-.482zm13.864 1.567c-.426 0-.503.574-.13.948.195.192.292.178.478-.079.129-.177.186-.444.129-.595-.058-.151-.272-.275-.477-.275zm-5.862 1.764c-.378 0-.53.384-.261.654.27.27.654.117.654-.261 0-.262-.132-.393-.392-.393zm-11.086 1.093c-.056.005-.101.1-.151.298-.065.243-.072.515-.016.604.177.286.469.173.466-.18a1.35 1.35 0 0 0-.167-.605c-.05-.079-.094-.12-.13-.117zm5.935.48a.337.337 0 0 0-.339.356c0 .199.06.42.137.495.2.2.717-.39.562-.64a.417.417 0 0 0-.358-.21zm-3.17 2.938c-.386 0-.552.318-.407.775.165.52.689.288.689-.306 0-.278-.115-.47-.283-.47zm5.64 2.241a.415.415 0 0 0-.148.036c-.362.14-.423.736-.062.616.134-.045.273-.228.308-.408.031-.163.002-.242-.096-.242zm-8.082.7c-.283 0-.414.124-.414.392 0 .218.132.392.294.392.163 0 .294-.036.294-.082 0-.045.053-.222.12-.392.086-.223.002-.31-.294-.31zm5.217.78c-.237-.002-.5.255-.404.502.11.287.15.288.426.012.167-.168.248-.362.177-.432a.28.28 0 0 0-.199-.082zm-4.018 3.757c-.167.002-.24.117-.24.365 0 .295.103.402.343.355.189-.036.343-.196.343-.355 0-.158-.156-.318-.343-.355a.518.518 0 0 0-.103-.01zm5.267 1.065c-.151 0-.213.083-.213.267 0 .618.462.82.665.292.163-.425.167-.416-.274-.531a.74.74 0 0 0-.18-.029zm-8.45 1.7a.31.31 0 0 0-.219.096c-.265.265.003.834.334.707.153-.06.278-.225.278-.368 0-.255-.199-.437-.394-.434zm7.144 1.13a.295.295 0 0 0-.28.294.294.294 0 1 0 .295-.294h-.015zm-3.601 1.372c-.452 0-.678.3-.526.696.146.38.638.363.787-.027.2-.515.137-.67-.261-.67zm3.848 2.76a.701.701 0 0 0-.22.051.313.313 0 0 0-.185.417c.149.387.446.387.595-.001.115-.301.034-.476-.19-.467zm-7.095 1.358c-.304 0-.39.232-.17.453.155.155.463-.021.463-.268 0-.101-.132-.185-.294-.185zm4.484.21c-.514.002-.662.145-.528.496.137.358.652.356.652-.003 0-.154.11-.323.245-.377.134-.055.017-.105-.261-.115a3.764 3.764 0 0 0-.108-.002zm3.948 2.143c-.296 0-.404.415-.17.649.184.182.463-.038.463-.366a.289.289 0 0 0-.294-.283zm-9.217 3.334c-.534 0-.348.581.246.769.026.009.048-.16.048-.377 0-.218-.132-.392-.294-.392zm9.522 0c-.247 0-.424.306-.267.463.22.22.452.134.452-.168 0-.163-.084-.294-.185-.294zm-5.208.392c-.306 0-.389.232-.163.458.225.225.458.144.458-.163a.294.294 0 0 0-.294-.294zm1.864 4.706a.2.2 0 0 0-.196.197c0 .108.038.196.086.196.048 0 .141-.088.209-.196.066-.108.028-.197-.087-.197h-.01zm2.646 0c-.547 0-.576.06-.29.594.242.454.78.3.78-.222 0-.266-.14-.372-.49-.372zm-9.216.197c-.295 0-.403.414-.17.648.182.182.463-.038.463-.365a.289.289 0 0 0-.294-.283zm3.239 2.79c-.354-.004-.474.437-.074.837.321.322.347.316.505-.11.112-.305.086-.498-.087-.607a.671.671 0 0 0-.346-.12zm-3.239.345a.294.294 0 1 0 0 .589.294.294 0 0 0 0-.589zm8.608 2.754c-.258.005-.32.177-.187.522.127.33.154.328.426-.04.259-.35.256-.4-.028-.46a.962.962 0 0 0-.211-.023zm-8.476.213c-.335.01-.29.507.113.742.458.267.449.274.372-.23-.036-.242-.213-.469-.391-.504a.42.42 0 0 0-.094-.009zm5.054 3.308c-.248.009-.382.134-.382.359 0 .745.641.802.75.067.047-.32-.039-.426-.344-.426z" fill="#fff" id="path37"/>
</svg>
