<svg viewBox="0 0 2069 400" xml:space="preserve" xmlns="http://www.w3.org/2000/svg">
    <path d="M260.115 293.139c-2.853-.076-5.63-1.228-7.82-3.026-1.047-.805-1.57-2.058-1.783-3.33-.968-4.916-.995-9.95-1.165-14.94-.073-5.207-.216-10.427.143-15.625.063-.405.193-.822-.344-.59-2.128.286-4.295.756-6.442.42-2.316-.503-4.408-1.682-6.546-2.664a65.557 65.557 0 0 1-17.888-12.716c-2.421-2.365-4.908-4.784-6.427-7.86-4.52-8.65-7.66-17.98-9.773-27.495-1.595-7.365-2.493-14.99-1.49-22.506.797-6.253 2.088-12.434 3.395-18.597.856-3.59 1.632-7.291 3.472-10.533a9.027 9.027 0 0 1 7.411-4.563c4.323-.235 8.408 1.968 11.474 4.863 1.796 1.673 3.774 3.412 4.416 5.884.852 3.132.726 6.418.823 9.633.094 7.893-.084 15.793.283 23.68.162 3.74.818 7.45 2.02 10.995a49.518 49.518 0 0 0 4.214 9.82c1.31 2.262 2.635 4.597 4.574 6.387 1.375 1.112 2.623 2.438 4.2 3.257.383-.407.303-1.102.42-1.627.288-3.294.466-6.596.899-9.878.256-2.149.65-4.425.709-6.5.29-7.661-.038-15.339-.321-22.976-.504-12.89-1.612-25.785-1.014-38.692.227-5.04 1.343-9.987 2.432-14.897.97-3.985 1.918-8.005 3.477-11.807 1.485-3.179 3.424-6.33 6.379-8.34 1.955-1.327 4.414-1.304 6.682-1.484 3.051-.1 6.239-.185 9.092 1.08 2.214.813 4.34 2.155 5.514 4.264 1.362 2.344 2.162 4.96 2.959 7.533.827 3.214.667 6.567.764 9.855.088 8.574.121 17.147.195 25.72 3.584-.346 6.865-2.211 9.532-4.553 1.299-1.162 2.36-2.553 3.378-3.959.388-.56.907-1.35 1.28-2.042 2.573-4.57 2.94-9.941 3.154-15.073.189-5.41-.036-10.989.075-16.465.072-3.848.407-7.78 1.979-11.343.843-2.111 1.899-4.161 3.441-5.854 2.06-2.288 4.553-4.545 7.707-5.036 3.357-.537 7.071-.059 9.813 2.083 2.802 2.17 5.145 4.977 6.69 8.173 1.028 2.147 1.405 4.528 1.418 6.89.096 5.31.05 10.626-.042 15.937-.086 4.83-.535 9.668-1.7 14.366-.996 4.123-2.043 8.238-3.273 12.296-.703 2.4-1.997 4.574-3.598 6.48-3.588 4.527-7.331 9.06-12.128 12.364-3.752 2.63-7.734 4.91-11.746 7.113-2.925 1.622-6.198 2.405-9.444 3.085-3.215.749-6.446 1.729-9.258 3.502-.486.352-1.103.728-1.045 1.416-.514 5.32-.363 10.672-.51 16.01-.117 8.088-.43 16.173-.562 24.262-.092 5.13.447 10.243 1.005 15.302a221.393 221.393 0 0 1 1.454 24.487c.026 5.147.147 10.296.112 15.443-.028 1.957-.642 3.995-2.14 5.333-1.839 1.683-4.044 2.904-6.21 4.109-2.056 1.148-4.422 1.427-6.724 1.693-1.322.18-2.64.445-3.876.953-1.21.304-2.476.325-3.716.283z"/>
    <path d="M317.8 90a15.72 15.72 0 0 0-1.412.092c-3.21.202-6.039 2.04-8.238 4.279a19.71 19.71 0 0 0-4.596 6.75c-1.406 3.018-2.098 6.348-2.295 9.672-.477 8.682.4 17.42-.725 26.07-.13.86-.332 2.016-.582 2.973-.797 3.464-2.685 6.567-5.008 9.22-2.275 2.483-5.23 4.442-8.525 5.235-.057-7.445-.103-14.89-.168-22.33-.11-3.772.112-7.596-.662-11.31-.713-2.65-1.574-5.287-2.818-7.742-1.18-2.564-3.507-4.438-6.109-5.443-2.822-1.33-5.996-1.523-9.068-1.416-2.58.14-5.305.096-7.676 1.27-3.42 1.918-5.696 5.324-7.369 8.78-1.489 3.244-2.37 6.733-3.252 10.18-1.238 5.164-2.45 10.37-2.94 15.67-.53 7.93-.284 15.89.072 23.83.533 11.22 1.196 22.42 1.242 33.64-.042 3.126.02 6.197-.381 9.275-.626 4.224-.972 8.482-1.293 12.72-1.385-1.21-2.901-2.306-3.986-3.818-2.094-2.878-3.78-6.047-5.182-9.316-1.59-3.9-2.874-7.967-3.348-12.17-.252-2.027-.273-3.912-.36-5.95-.183-6.233-.106-12.66-.154-18.96-.092-3.688.083-7.432-.725-11.06-.49-2.653-2.335-4.757-4.27-6.515-3.132-3.105-7.176-5.601-11.67-5.855-3.494-.315-7.093 1.225-9.21 4.033-2.302 3.22-3.226 7.159-4.138 10.95-1.354 6.077-2.607 12.18-3.482 18.35-1.154 7.166-.636 14.49.711 21.59 2.027 10.39 5.294 20.57 10.11 30.01 1.43 3.136 3.763 5.734 6.211 8.11 4.837 4.947 10.39 9.196 16.49 12.46 2.518 1.3 5.032 2.59 7.684 3.595 2.367.959 4.97.665 7.424.281-.22 3.785-.192 7.578-.136 11.37.103 5.162.137 10.34.75 15.47.362 2.245.46 4.746 2.057 6.527a14.23 14.23 0 0 0 9.344 3.975c.82.021 1.646.027 2.465-.053 1.185-.044 2.254-.55 3.383-.84 2.707-.6 5.577-.555 8.148-1.715 2.392-1.192 4.742-2.537 6.82-4.229 1.919-1.41 3.01-3.714 3.184-6.057.115-3.96-.005-7.923-.028-11.88-.03-6.672-.13-13.35-.65-20-.5-7.403-1.741-14.68-1.85-22.08.03-7.317.34-14.63.482-21.94.147-5.46.122-10.98.315-16.38.069-1.227.145-2.682.277-3.994 2.266-1.64 4.983-2.517 7.654-3.248 3.44-.847 6.986-1.453 10.2-3.01 4.11-2.159 8.145-4.476 12-7.072 4.853-3.126 8.759-7.455 12.33-11.93 1.78-2.15 3.54-4.39 4.523-7.037 1.297-3.82 2.25-7.75 3.242-11.66 1.1-4.098 1.809-8.3 2.06-12.54.293-5.126.246-10.26.267-15.4-.088-3.454.217-7.002-.87-10.34-1.347-3.907-3.973-7.293-7.109-9.937-2.483-2.245-5.86-3.21-9.166-3.137zm.719 2.715h.002c1.615.059 3.233.398 4.479 1 2.917 1.412 6.77 5.776 8.125 9.211.997 2.518 1.117 3.673 1.11 10.47-.016 18.19-.172 19.61-3.462 32.03-2.035 7.694-2.297 8.276-5.467 12.23-6.782 8.45-9.376 10.65-19.36 16.45-5.43 3.15-6.708 3.65-12.37 4.867-5.476 1.175-10.49 3.431-11.4 5.127-.33.619-.58 4.852-.64 10.89a1371 1371 0 0 1-.48 22.45c-.35 11.67-.284 13.4.895 24.16.913 8.334 1.298 14.7 1.373 22.68l.143 14.88c.048 4.692-.587 5.679-5.588 8.713-2.966 1.798-4.175 2.228-7.207 2.566-2.006.227-4.08.644-4.615.93-1.1.587-4.61.618-6.46.056-2.256-.686-4.413-2.01-5.181-3.18-.464-.712-.944-3.28-1.24-6.672-.596-6.769-.737-23.25-.225-25.87l.377-1.92-1.424.346c-.782.191-2.688.47-4.236.621-2.526.248-3.228.084-6.902-1.61-7.676-3.54-13.47-7.49-19.13-13.03-4.984-4.88-5.466-5.532-8.039-10.85-4.926-10.18-8.853-23.96-9.799-34.4-.678-7.485-.177-12.32 2.805-26.94 1.928-9.458 3.295-13.29 5.477-15.36 3.702-3.519 10.14-2.497 15.35 2.433 4.954 4.686 4.812 3.991 4.848 23.26.034 18.08.245 20.13 2.916 28.14 1.825 5.485 5.9 12.67 8.445 14.89 4.257 3.714 4.99 4.142 6.014 3.5.784-.489.988-1.4 1.24-5.564a129.4 129.4 0 0 1 1.05-9.805c.771-5.003.544-18.39-.704-41.52-.638-11.81-.627-22.96.02-27.69 1.027-7.455 3.89-19.05 5.594-22.65 2.022-4.279 4.668-7.314 7.1-8.145.999-.34 3.814-.631 6.254-.644 3.653-.02 4.954.195 7.377 1.209 3.52 1.477 4.64 2.944 6.55 8.582 1.348 3.974 1.353 4.052 1.452 19.03.055 8.27.112 16.12.127 17.44l.02 2.408 2.1-.24c3.737-.43 8.534-3.19 11.33-6.52 5.67-6.757 6.858-11.87 6.68-28.78-.14-13.18.158-15.37 2.87-21.11 1.34-2.834 4.8-6.296 7.354-7.366 1.23-.514 2.841-.734 4.455-.677z" fill="#fff"/>
    <circle cx="325.3" cy="109.7" r="1.735" fill="#fff"/>
    <circle cx="276.1" cy="118.1" r="1.445" fill="#fff"/>
    <circle cx="267.8" cy="131.1" r="1.354" fill="#fff"/>
    <circle cx="257.1" cy="138.6" r="1.493" fill="#fff"/>
    <circle cx="275.2" cy="141.3" r="1.389" fill="#fff"/>
    <circle cx="314.3" cy="102.6" r="1.71" fill="#fff"/>
    <circle cx="261.9" cy="116.6" r="1.466" fill="#fff"/>
    <circle cx="309.3" cy="134.5" r="1.291" fill="#fff"/>
    <circle cx="314.2" cy="120.4" r="1.332" fill="#fff"/>
    <circle cx="214.2" cy="165.2" r="1.557" fill="#fff"/>
    <circle cx="298.1" cy="158.9" r="1.513" fill="#fff"/>
    <circle cx="235.7" cy="227.9" r="1.528" fill="#fff"/>
    <circle cx="242.4" cy="240.9" r="1.538" fill="#fff"/>
    <circle cx="273.2" cy="187.2" r="1.546" fill="#fff"/>
    <circle cx="322.2" cy="133.5" r="1.272" fill="#fff"/>
    <circle cx="316" cy="150.2" r="1.53" fill="#fff"/>
    <circle cx="259.4" cy="203.6" r="1.582" fill="#fff"/>
    <circle cx="213.6" cy="212.4" r="1.495" fill="#fff"/>
    <circle cx="260.6" cy="255.6" r="1.198" fill="#fff"/>
    <circle cx="272.5" cy="205.2" r="1.407" fill="#fff"/>
    <circle cx="218.7" cy="200.2" r="1.445" fill="#fff"/>
    <circle cx="272.3" cy="157.3" r="1.342" fill="#fff"/>
    <circle cx="223.4" cy="232.2" r="1.505" fill="#fff"/>
    <circle cx="273.1" cy="255.8" r="1.412" fill="#fff"/>
    <circle cx="268.1" cy="221.1" r="1.259" fill="#fff"/>
    <circle cx="227.5" cy="213.6" r="1.42" fill="#fff"/>
    <circle cx="285.1" cy="174.9" r="1.559" fill="#fff"/>
    <circle cx="257.2" cy="160.6" r="1.208" fill="#fff"/>
    <circle cx="253.9" cy="234.6" r="1.402" fill="#fff"/>
    <circle cx="308.9" cy="161.6" r="1.533" fill="#fff"/>
    <circle cx="224.9" cy="163.7" r="1.455" fill="#fff"/>
    <circle cx="265.4" cy="173.7" r="1.175" fill="#fff"/>
    <circle cx="258.6" cy="273.5" r="1.691" fill="#fff"/>
    <circle cx="270.2" cy="269.4" r="1.57" fill="#fff"/>
    <circle cx="220.7" cy="182.2" r="1.171" fill="#fff"/>
    <circle cx="210.8" cy="189.2" r="1.281" fill="#fff"/>
    <circle cx="257.3" cy="188.3" r="1.477" fill="#fff"/>
    <circle cx="270.5" cy="238.4" r="1.63" fill="#fff"/>
    <circle cx="256.1" cy="219" r="1.248" fill="#fff"/>
</svg>
