<?xml version="1.0" encoding="UTF-8" standalone="no"?>
<svg
   xml:space="preserve"
   viewBox="0 0 2069 400"
   version="1.1"
   id="svg59"
   sodipodi:docname="cactus_2.svg"
   width="2069"
   height="400"
   inkscape:version="1.1 (c4e8f9e, 2021-05-24)"
   xmlns:inkscape="http://www.inkscape.org/namespaces/inkscape"
   xmlns:sodipodi="http://sodipodi.sourceforge.net/DTD/sodipodi-0.dtd"
   xmlns="http://www.w3.org/2000/svg"
   xmlns:svg="http://www.w3.org/2000/svg"><defs
   id="defs63" /><sodipodi:namedview
   id="namedview61"
   pagecolor="#505050"
   bordercolor="#ffffff"
   borderopacity="1"
   inkscape:pageshadow="0"
   inkscape:pageopacity="0"
   inkscape:pagecheckerboard="1"
   showgrid="false"
   fit-margin-top="0"
   fit-margin-left="0"
   fit-margin-right="0"
   fit-margin-bottom="0"
   inkscape:zoom="0.28837757"
   inkscape:cx="977.88465"
   inkscape:cy="731.67965"
   inkscape:window-width="1465"
   inkscape:window-height="982"
   inkscape:window-x="0"
   inkscape:window-y="25"
   inkscape:window-maximized="0"
   inkscape:current-layer="svg59" />
    <path
   d="m 236.3435,147.2911 c -1.35879,-0.0357 -2.68204,-0.58473 -3.72681,-1.44214 -0.49846,-0.38441 -0.74789,-0.98145 -0.8503,-1.58687 -0.4607,-2.34315 -0.47361,-4.74251 -0.55404,-7.12088 -0.0357,-2.48109 -0.10341,-4.96865 0.0675,-7.44587 0.0292,-0.19318 0.0924,-0.39253 -0.16412,-0.28173 -1.01408,0.13636 -2.0469,0.35957 -3.07067,0.20097 -1.10325,-0.24034 -2.10053,-0.80281 -3.11817,-1.27092 -3.15403,-1.52614 -6.05284,-3.5753 -8.52554,-6.0593 -1.15462,-1.1278 -2.33895,-2.28015 -3.06325,-3.7462 -2.15416,-4.12289 -3.65122,-8.56915 -4.6582,-13.10394 -0.7608,-3.51101 -1.18821,-7.144457 -0.71073,-10.726542 0.37995,-2.980547 0.996,-5.925233 1.61886,-8.862487 0.40835,-1.711574 0.77793,-3.474835 1.65471,-5.019704 0.7062,-1.268982 2.08147,-2.117329 3.53265,-2.175486 2.05951,-0.112416 4.00691,0.937518 5.46811,2.317955 0.85513,0.797312 1.79814,1.626287 2.10441,2.804157 0.40576,1.492534 0.34569,3.058406 0.39252,4.591327 0.0448,3.761705 -0.0402,7.526637 0.13473,11.285753 0.0772,1.781357 0.38961,3.550107 0.96272,5.239697 0.4788,1.59657 1.17917,3.20024 2.00814,4.67952 0.62417,1.07837 1.25573,2.19196 2.18066,3.04419 0.65387,0.5305 1.24894,1.16205 2.00135,1.5523 0.18221,-0.19383 0.14407,-0.52498 0.19999,-0.77534 0.13732,-1.56942 0.22192,-3.14401 0.42807,-4.7073 0.12215,-1.0241 0.31079,-2.10925 0.33758,-3.09814 0.13856,-3.65122 -0.0175,-7.309542 -0.15251,-10.949454 -0.24066,-6.143298 -0.76791,-12.289185 -0.48328,-18.440237 0.10821,-2.402915 0.64001,-4.7606 1.15914,-7.100847 0.46233,-1.898623 0.91361,-3.814365 1.65729,-5.626406 0.70816,-1.515148 1.6321,-3.017049 3.03903,-3.975241 0.933,-0.631892 2.10473,-0.620929 3.18537,-0.70718 1.45441,-0.048 2.97343,-0.0879 4.33287,0.515582 1.05544,0.386686 2.06887,1.026688 2.62841,2.031404 0.6487,1.116811 1.03023,2.364145 1.4108,3.591123 0.39318,1.531307 0.31721,3.128832 0.36281,4.695991 0.0422,4.086056 0.0584,8.17244 0.0937,12.258494 1.70801,-0.165738 3.27194,-1.054785 4.54286,-2.17096 0.61866,-0.55308 1.12457,-1.216639 1.60915,-1.886664 0.18547,-0.26687 0.4323,-0.642919 0.60997,-0.97241 1.22634,-2.178718 1.40208,-4.738639 1.50352,-7.183875 0.0902,-2.578661 -0.0168,-5.23776 0.0363,-7.84776 0.0337,-1.833683 0.19383,-3.708077 0.943,-5.405754 0.40187,-1.006331 0.90521,-1.982615 1.63985,-2.789298 0.98243,-1.09 2.16934,-2.167079 3.67319,-2.400972 1.60011,-0.25552 3.37016,-0.02789 4.67693,0.993404 1.3352,1.034439 2.45235,2.371903 3.18763,3.895126 0.49009,1.022809 0.67002,2.157718 0.67649,3.283578 0.0454,2.531171 0.024,5.063956 -0.0201,7.595127 -0.0415,2.301799 -0.25519,4.608444 -0.8099,6.847574 -0.47556,1.964522 -0.9737,3.925815 -1.56038,5.860297 -0.33467,1.143627 -0.95174,2.179359 -1.7148,3.087477 -1.7106,2.15772 -3.49389,4.318012 -5.7805,5.893256 -1.78749,1.252496 -3.68547,2.340241 -5.59734,3.389536 -1.39367,0.773085 -2.95405,1.145897 -4.50119,1.469277 -1.53162,0.357623 -3.07229,0.824768 -4.41169,1.669247 -0.23262,0.168008 -0.52629,0.347309 -0.49781,0.675515 -0.24553,2.534724 -0.17346,5.08625 -0.24326,7.62905 -0.0564,3.85539 -0.20479,7.70852 -0.26784,11.56359 -0.0448,2.44492 0.21225,4.88208 0.47815,7.29307 0.4426,3.87413 0.6823,7.77055 0.69361,11.6702 0.0123,2.45299 0.0705,4.90662 0.0532,7.35929 -0.0136,0.93397 -0.30625,1.90476 -1.02087,2.5428 -0.87549,0.80216 -1.92607,1.38431 -2.95825,1.95807 -0.98114,0.54659 -2.10828,0.68004 -3.20475,0.80668 -0.63059,0.0859 -1.25831,0.21193 -1.84757,0.45389 -0.57734,0.14537 -1.17917,0.15504 -1.77102,0.13538 z"
   id="path55"
   style="stroke-width:0.32306" />
    <path
   d="m 263.82391,50.477603 c -0.22517,0.0048 -0.45033,0.02011 -0.67261,0.04476 -1.53034,0.09529 -2.87846,0.973053 -3.92679,2.040122 -0.94947,0.902307 -1.68896,2.007493 -2.19002,3.216055 -0.67002,1.438906 -0.99858,3.024482 -1.09356,4.608444 -0.22743,4.138393 0.19059,8.304246 -0.34568,12.42648 -0.0623,0.409649 -0.15828,0.960132 -0.27687,1.415328 -0.37994,1.651477 -1.27964,3.131088 -2.38708,4.395549 -1.08387,1.182391 -2.49305,2.116037 -4.06344,2.49337 -0.0266,-3.547842 -0.0487,-7.095353 -0.0808,-10.643196 -0.0512,-1.797822 0.0551,-3.619231 -0.31435,-5.391216 -0.33921,-1.263487 -0.75048,-2.519539 -1.34264,-3.68966 -0.56339,-1.223105 -1.67248,-2.115714 -2.91206,-2.594171 -1.34457,-0.634812 -2.85778,-0.726557 -4.32157,-0.675835 -1.23053,0.0672 -2.52825,0.04606 -3.65832,0.606399 -1.6308,0.914255 -2.71531,2.536665 -3.51198,4.18362 -0.71105,1.546811 -1.13071,3.208952 -1.54972,4.853968 -0.59024,2.461715 -1.16882,4.94055 -1.40207,7.466232 -0.25202,3.780436 -0.13506,7.574451 0.035,11.355539 0.2539,5.346957 0.56923,10.683571 0.59122,16.034079 -0.0201,1.48931 0.01,2.95212 -0.18189,4.42043 -0.29723,2.01169 -0.46298,4.04244 -0.61574,6.06447 -0.66066,-0.57668 -1.38334,-1.10098 -1.90057,-1.82044 -0.99728,-1.37235 -1.80073,-2.88233 -2.46881,-4.43948 -0.7579,-1.85921 -1.36913,-3.79724 -1.59591,-5.79892 -0.11956,-0.96595 -0.13052,-1.864047 -0.17158,-2.835495 -0.0872,-2.971171 -0.0506,-6.031514 -0.0734,-9.037263 -0.0441,-1.758088 0.0409,-3.542351 -0.34504,-5.270068 -0.2336,-1.264775 -1.11262,-2.266911 -2.03495,-3.104928 -1.49254,-1.479286 -3.41959,-2.670087 -5.56309,-2.791231 -1.66472,-0.149264 -3.37888,0.584734 -4.38844,1.922203 -1.09743,1.53518 -1.53711,3.412797 -1.97195,5.218377 -0.64545,2.895909 -1.24314,5.805385 -1.66053,8.743936 -0.54918,3.414737 -0.30268,6.906999 0.3392,10.290089 0.96596,4.94927 2.5231,9.80421 4.81876,14.30184 0.68166,1.4948 1.79298,2.73276 2.96116,3.86573 2.30439,2.35769 4.95154,4.38262 7.8594,5.94009 1.20017,0.61931 2.39775,1.23506 3.66156,1.71287 1.12812,0.45745 2.36802,0.31753 3.53782,0.1344 -0.10464,1.80364 -0.0911,3.61181 -0.0649,5.41771 0.0493,2.46009 0.0653,4.92827 0.35762,7.37415 0.17249,1.06998 0.21965,2.26207 0.98113,3.11139 1.18143,1.14621 2.80448,1.84241 4.45208,1.89409 0.39188,0.0104 0.78407,0.013 1.17497,-0.0253 0.56404,-0.0214 1.07417,-0.262 1.61207,-0.39992 1.29062,-0.2862 2.65813,-0.26622 3.88317,-0.8183 1.14073,-0.56793 2.25981,-1.20889 3.25127,-2.01493 0.91362,-0.67228 1.43439,-1.76972 1.51742,-2.88653 0.0545,-1.88731 -0.002,-3.77689 -0.0136,-5.66485 -0.0136,-3.17923 -0.0623,-6.36104 -0.30981,-9.53154 -0.23775,-3.52781 -0.83027,-6.99618 -0.88195,-10.52399 0.0149,-3.48678 0.16217,-6.97162 0.22937,-10.45808 0.0711,-2.60192 0.0584,-5.23163 0.15057,-7.807701 0.0331,-0.585382 0.0688,-1.279316 0.13246,-1.904111 1.07902,-0.781805 2.37417,-1.200169 3.64734,-1.547776 1.63985,-0.404785 3.3301,-0.692646 4.86334,-1.434386 1.95871,-1.028622 3.8822,-2.134455 5.71815,-3.371126 2.31311,-1.489301 4.17522,-3.552689 5.87839,-5.687788 0.84868,-1.024745 1.68702,-2.091809 2.15546,-3.352716 0.61833,-1.821409 1.07255,-3.694179 1.54518,-5.557908 0.52337,-1.953865 0.86257,-3.95619 0.98243,-5.976604 0.13889,-2.442975 0.11631,-4.891768 0.12598,-7.337972 -0.0415,-1.645665 0.10437,-3.337205 -0.41413,-4.927303 -0.6413,-1.861783 -1.89313,-3.475143 -3.38857,-4.735724 -1.18304,-1.069002 -2.7922,-1.529684 -4.36809,-1.495116 z m 0.34374,1.2945 c 0.76952,0.02789 1.54066,0.188641 2.13413,0.475882 1.3898,0.672929 3.22575,2.753433 3.87219,4.389088 0.47491,1.20081 0.53303,1.752271 0.52985,4.991588 -0.008,8.666069 -0.0814,9.342883 -1.64922,15.261333 -0.97144,3.667045 -1.09517,3.944551 -2.60709,5.828312 -3.23188,4.026944 -4.46856,5.076886 -9.22658,7.83678 -2.58771,1.500932 -3.19602,1.740644 -5.8926,2.319565 -2.60967,0.560214 -5.00161,1.635651 -5.43418,2.443623 -0.15764,0.294636 -0.27654,2.312455 -0.3056,5.188336 -0.0259,2.58836 -0.12793,7.40194 -0.22711,10.69714 -0.16704,5.56308 -0.13668,6.38624 0.42548,11.51288 0.43514,3.97201 0.61898,7.00425 0.65484,10.8073 0.0273,2.90754 0.0584,6.09936 0.0682,7.09212 0.0227,2.2359 -0.27913,2.70628 -2.6633,4.15197 -1.41403,0.85739 -1.98875,1.06254 -3.43509,1.22439 -0.95529,0.10723 -1.94482,0.30593 -2.19907,0.44196 -0.52401,0.28043 -2.19777,0.29561 -3.07843,0.0279 -1.07643,-0.32759 -2.10409,-0.95852 -2.46946,-1.51644 -0.22192,-0.33856 -0.45033,-1.56361 -0.59187,-3.17923 -0.28335,-3.22672 -0.35081,-11.08159 -0.10626,-12.3286 l 0.1793,-0.91522 -0.67842,0.16542 c -0.37313,0.0908 -1.28158,0.22386 -2.01912,0.29593 -1.20405,0.11793 -1.53874,0.0395 -3.28907,-0.76791 -3.65768,-1.68702 -6.4221,-3.56981 -9.11997,-6.21051 -2.37546,-2.32505 -2.60483,-2.63454 -3.83149,-5.16894 -2.348,-4.85236 -4.21851,-11.42016 -4.66982,-16.39721 -0.32337,-3.566575 -0.084,-5.872251 1.33714,-12.840321 0.91878,-4.506677 1.57007,-6.333264 2.60967,-7.321177 1.76391,-1.676996 4.83103,-1.190793 7.31665,1.160108 2.36093,2.232664 2.29244,1.901531 2.30955,11.08708 0.0162,8.61729 0.11696,9.59325 1.38916,13.41246 0.87097,2.61452 2.81321,6.03733 4.02565,7.09536 2.02881,1.77036 2.37804,1.97356 2.8665,1.66828 0.37411,-0.2336 0.47102,-0.66874 0.59122,-2.652 0.0795,-1.30484 0.30398,-3.40763 0.49911,-4.67305 0.36826,-2.38419 0.26006,-8.762349 -0.3344,-19.785459 -0.30366,-5.629318 -0.29918,-10.943967 0.0104,-13.1986 0.48847,-3.553329 1.85242,-9.078617 2.66459,-10.796643 0.96434,-2.038507 2.22524,-3.484841 3.38341,-3.88059 0.4762,-0.162498 1.81721,-0.301059 2.98022,-0.307221 1.74161,-0.0091 2.36156,0.09302 3.51585,0.576688 1.67733,0.703301 2.21167,1.402723 3.1227,4.089288 0.64195,1.893777 0.6448,1.93157 0.692,9.06796 0.0259,3.941322 0.0525,7.681702 0.059,8.312318 l 0.011,1.146864 0.9989,-0.114365 c 1.78296,-0.204795 4.06893,-1.51935 5.4009,-3.106543 2.70272,-3.219285 3.26839,-5.656125 3.18343,-13.714846 -0.0662,-6.283507 0.0753,-7.324725 1.36848,-10.060714 0.63773,-1.349095 2.28662,-3.000254 3.50455,-3.50907 0.58636,-0.244882 1.35427,-0.350489 2.12379,-0.323049 z m -0.70653,2.573167 c -0.68586,0 -0.91975,0.306898 -0.71816,0.942046 0.16768,0.527842 0.58992,0.605102 1.00956,0.185462 0.5004,-0.500078 0.3379,-1.127482 -0.29139,-1.127482 z m 4.21786,3.338496 c -0.24455,-0.0026 -0.49365,0.220686 -0.5521,0.631568 -0.0435,0.306898 0.0623,0.6461 0.23489,0.752732 0.46615,0.288149 0.98404,-0.335959 0.78859,-0.950765 -0.0927,-0.293015 -0.28108,-0.43164 -0.47135,-0.433522 z m -8.28195,0.303654 a 1.3083908,1.3083908 0 0 0 -0.29398,0.04865 c -0.62126,0.162498 -0.73335,0.631568 -0.29983,1.250558 0.356,0.508187 0.38506,0.512079 0.68714,0.09919 0.17346,-0.237098 0.31468,-0.605102 0.31468,-0.817335 0,-0.412894 -0.11177,-0.588625 -0.40803,-0.58084 z m 4.19654,2.503062 a 0.96691696,0.96691696 0 0 0 -0.11566,0.0097 c -0.51046,0.07369 -0.75725,0.662277 -0.5279,1.259938 0.18383,0.478801 0.53043,0.419965 0.93557,-0.158281 0.41549,-0.593166 0.25877,-1.123278 -0.29204,-1.111329 z m 3.47031,3.278408 c -0.18416,-0.003 -0.36282,0.07239 -0.47167,0.244882 -0.29398,0.463297 -0.25202,1.236994 0.0856,1.574269 0.23489,0.234892 0.37799,0.189289 0.71623,-0.227756 0.2323,-0.286853 0.39025,-0.740776 0.35211,-1.008271 -0.0512,-0.355679 -0.37507,-0.578311 -0.6823,-0.583111 z m -7.50855,0.567931 c -0.16056,0.0055 -0.33466,0.121825 -0.4694,0.373453 -0.33018,0.617038 -0.10372,1.20469 0.42515,1.104213 0.24262,-0.04606 0.44131,-0.330509 0.48328,-0.691987 0.0577,-0.495278 -0.17151,-0.794728 -0.43936,-0.785685 z m -16.77648,0.816375 c -0.46647,0 -0.59504,0.118581 -0.59504,0.548535 0,0.902625 0.62255,1.174318 1.1727,0.511431 0.4177,-0.503322 0.1147,-1.059635 -0.57766,-1.059635 z m -5.41836,1.463784 c -0.0969,0 -0.20414,0.01816 -0.3211,0.05579 -0.54691,0.173784 -0.65128,0.813462 -0.20511,1.259607 0.43287,0.432874 0.99308,0.22581 1.08225,-0.39992 0.0821,-0.57831 -0.13604,-0.915553 -0.556,-0.915229 z m 26.22824,1.825281 c -0.40544,0 -0.94657,0.710411 -0.81088,1.064157 0.1706,0.444225 0.64935,0.442603 1.01989,-0.0039 0.3069,-0.369886 0.17126,-1.059959 -0.209,-1.059959 z m -3.99205,2.137362 a 4.0963938,4.0963938 0 0 0 -0.3198,0.02141 c -0.89424,0.08595 -1.15301,0.825091 -0.51299,1.465075 0.36696,0.366967 0.42158,0.366058 0.83478,-0.0078 0.24294,-0.219712 0.44228,-0.654203 0.44228,-0.9653 0,-0.403814 -0.0616,-0.519151 -0.44423,-0.513702 z m -24.93372,0.916843 c -0.58895,0 -0.96499,0.684883 -0.67455,1.227629 0.33245,0.621252 1.11035,0.525636 1.28158,-0.156985 0.17832,-0.709764 -0.0259,-1.070615 -0.60705,-1.070615 z m 7.5515,1.414031 c -0.15601,-0.0017 -0.3547,0.04541 -0.59861,0.138885 -0.48652,0.186435 -0.47491,0.895521 0.0234,1.393681 0.37021,0.370533 0.41484,0.368263 0.70491,-0.02853 0.17028,-0.232623 0.30982,-0.667445 0.30982,-0.965945 0,-0.358275 -0.14148,-0.535305 -0.43936,-0.538224 z m 18.64796,2.815466 c -0.69198,0 -0.78729,0.565011 -0.20382,1.209537 0.49431,0.546589 0.79149,0.352107 0.79149,-0.518828 0,-0.580192 -0.0943,-0.690697 -0.58797,-0.690697 z m 5.55049,0.234567 c -0.59316,0 -0.8083,0.33596 -0.61184,0.955289 0.21867,0.689726 0.91877,0.474258 1.00955,-0.310792 0.059,-0.512985 -0.022,-0.644476 -0.39732,-0.644476 z m -28.77878,1.645015 c -0.73109,0 -0.9821,0.644481 -0.47134,1.208894 0.50689,0.559887 0.71396,0.549186 1.03605,-0.05254 0.35762,-0.668084 0.11955,-1.15655 -0.56469,-1.15655 z m 5.85545,2.349936 c -0.72107,0 -0.93041,0.323697 -0.6038,0.934294 0.31948,0.596666 0.6219,0.603478 0.93364,0.02077 v -8.26e-4 c 0.378,-0.706208 0.29269,-0.954644 -0.32953,-0.954644 z m 14.30443,0.939455 c -0.36347,0 -0.60121,0.594073 -0.42321,1.057378 0.19383,0.506566 0.44131,0.434821 0.73593,-0.21193 0.26849,-0.589271 0.17346,-0.845448 -0.31274,-0.845448 z m 5.18285,1.35201 -0.5586,0.45454 c -0.41419,0.337252 -0.5159,0.587 -0.39479,0.968529 0.18319,0.577599 0.78375,0.689082 0.97855,0.181571 0.0701,-0.182868 0.093,-0.618659 0.0512,-0.968533 z m -10.26749,0.312409 c -0.0623,0 -0.137,0.0078 -0.22775,0.02011 -0.62191,0.08855 -0.84028,0.7579 -0.41445,1.271245 0.43132,0.519476 0.79699,0.277188 0.88163,-0.584082 0.0545,-0.55308 0.0305,-0.706209 -0.23905,-0.707501 z m -18.17564,0.215171 c -0.39577,0 -0.57377,0.131165 -0.57377,0.422886 0,0.914253 1.03444,1.330033 1.2916,0.519149 0.20161,-0.635137 -0.0325,-0.942039 -0.71784,-0.942039 z m -20.1069,3.054526 c -0.51305,0.01556 -0.79375,0.519472 -0.58538,1.062865 0.11437,0.297881 0.21679,0.307546 0.6125,0.06033 0.26168,-0.163146 0.47523,-0.482628 0.47523,-0.709764 0,-0.259087 -0.17865,-0.413542 -0.4775,-0.413542 z m 26.10482,0.704916 c -0.81637,0 -1.08806,0.444226 -0.7075,1.15591 0.30041,0.561184 0.35056,0.574416 0.96498,0.245529 0.26071,-0.139534 0.45486,-0.490088 0.45486,-0.82218 0,-0.488143 -0.11177,-0.579222 -0.71234,-0.579222 z m -22.32341,1.409506 c -0.34698,0 -0.45973,0.161527 -0.45973,0.658076 0,0.634489 0.43229,1.337465 0.67391,1.096143 0.0649,-0.06487 0.14602,-0.485546 0.18156,-0.935904 0.0532,-0.677778 -0.0143,-0.818315 -0.39544,-0.818315 z m 29.02689,0.261685 a 1.4317995,1.4317995 0 0 0 -0.17411,0.01557 c -0.53659,0.07655 -0.79149,0.654517 -0.55761,1.263809 0.15828,0.412572 0.42742,0.431642 0.80248,0.05709 0.15503,-0.155036 0.2814,-0.532382 0.2814,-0.838657 0,-0.37313 -0.0769,-0.502024 -0.35211,-0.497548 z m 7.27854,0.348544 c -0.11956,0.0029 -0.2504,0.04281 -0.39318,0.119228 -0.58311,0.312088 -0.53141,1.048007 0.10464,1.493501 0.48457,0.339527 0.55307,0.336934 0.82347,-0.03307 0.16218,-0.221591 0.22711,-0.620278 0.14441,-0.885823 -0.14635,-0.469717 -0.37443,-0.701684 -0.67973,-0.693934 z m -19.85201,2.258188 c -0.0882,0.0021 -0.17897,0.03955 -0.26233,0.122733 -0.3008,0.301056 -0.11502,1.002777 0.26557,1.002777 0.13733,0 0.31339,-0.165094 0.39091,-0.367615 0.15023,-0.390904 -0.10594,-0.764365 -0.39415,-0.757895 z m -22.32437,1.830455 c -0.59155,0 -0.84836,0.592843 -0.46006,1.060603 0.3728,0.44935 0.61672,0.442277 0.79473,-0.02271 0.262,-0.682303 0.14699,-1.03799 -0.33466,-1.03799 z m 26.89275,0.321105 c -0.0785,0.0017 -0.15698,0.04995 -0.22289,0.156659 -0.19707,0.31916 0.0325,0.931705 0.34952,0.931705 0.13344,0 0.24229,-0.204465 0.24229,-0.45551 0,-0.377346 -0.18319,-0.636434 -0.36892,-0.632867 z m -4.64656,3.221869 c -0.20447,-0.0033 -0.42775,0.09789 -0.62898,0.340824 -0.22808,0.274591 -0.23586,0.496186 -0.0337,0.940098 0.31241,0.685532 0.86903,0.754671 1.19403,0.148291 0.39285,-0.734639 -0.008,-1.421463 -0.53141,-1.429213 z m 7.33054,1.273825 c -0.35211,0.0091 -0.57734,0.159904 -0.62767,0.422233 -0.0814,0.422237 0.32791,1.104871 0.66227,1.104871 0.0979,0 0.30527,-0.15374 0.46102,-0.341472 0.45032,-0.542762 0.20032,-1.185624 -0.4607,-1.185624 z m -23.71838,1.364281 c -0.1034,-8.26e-4 -0.23424,0.0493 -0.41672,0.146994 -0.5521,0.295284 -0.65484,0.942365 -0.21841,1.37882 0.39415,0.39382 0.60315,0.35276 0.88453,-0.17314 0.29269,-0.546911 0.29853,-0.738833 0.0344,-1.155257 -0.0834,-0.131817 -0.16606,-0.197075 -0.28399,-0.197397 z m -6.02958,2.868764 c -0.24682,0.002 -0.52661,0.23197 -0.52661,0.56923 0,0.73237 0.6138,0.99534 0.85482,0.36664 h 8.2e-4 c 0.0743,-0.19383 0.0749,-0.50916 0.001,-0.70104 -0.0629,-0.16444 -0.19156,-0.23547 -0.32986,-0.23456 z m 22.16382,1.17756 a 0.73334497,0.73334497 0 0 0 -0.37735,0.11566 c -0.25714,0.15893 -0.2633,0.31662 -0.0318,0.82445 0.23613,0.5185 0.34634,0.57759 0.63222,0.34017 0.19058,-0.15828 0.34731,-0.47491 0.34731,-0.70362 0,-0.3547 -0.25909,-0.58019 -0.57053,-0.57669 z m 5.2888,2.93014 c -0.83058,0 -1.00277,0.37313 -0.56858,1.23312 0.36022,0.71331 0.55113,0.78536 0.97177,0.36476 0.15504,-0.15504 0.28205,-0.57825 0.28205,-0.9401 0,-0.5702 -0.0915,-0.65743 -0.68521,-0.65743 z m -25.41573,2.38289 c -0.13344,0.005 -0.30917,0.15218 -0.5608,0.43034 -0.39901,0.44066 -0.39933,0.49463 -0.013,1.08451 0.36216,0.55243 0.44519,0.58149 0.75983,0.26687 0.24715,-0.24683 0.30528,-0.57409 0.19318,-1.0845 -0.10535,-0.47946 -0.20738,-0.7046 -0.37929,-0.69717 z m 6.17851,0.50008 c -0.12824,-0.002 -0.27232,0.0795 -0.4077,0.26265 -0.23904,0.32435 -0.26233,0.56534 -0.0856,0.8952 0.3069,0.57377 0.7734,0.43067 0.87549,-0.26875 0.0782,-0.53303 -0.11923,-0.88486 -0.38221,-0.88906 z m 14.60584,3.75459 c -0.29982,0.008 -0.55729,0.22841 -0.55729,0.59187 0,0.40705 0.4103,0.99373 0.69554,0.99373 0.0724,0 0.272,-0.22484 0.44358,-0.49976 0.26363,-0.42256 0.25682,-0.55437 -0.0428,-0.85449 -0.16412,-0.16412 -0.35893,-0.23586 -0.53887,-0.23132 z m 6.37235,1.16721 a 1.3245438,1.3245438 0 0 0 -0.35276,0.0669 c -0.56955,0.18093 -0.59446,0.52694 -0.0795,1.09583 0.44806,0.4956 1.02152,0.20129 1.02152,-0.52434 0,-0.42775 -0.21355,-0.65097 -0.58927,-0.63838 z m -17.33053,2.80352 c -0.49105,0.006 -0.58213,0.63481 -0.1163,1.10099 0.231,0.23067 0.35243,0.20576 0.59089,-0.11988 0.16477,-0.22581 0.26363,-0.52012 0.21971,-0.65452 -0.0441,-0.13441 -0.31014,-0.27848 -0.59089,-0.31981 a 0.65225702,0.65225702 0 0 0 -0.10341,-0.006 z m -4.87851,0.43449 c -0.2565,0.008 -0.46201,0.14602 -0.46201,0.31306 0,0.71945 0.76049,0.786 0.89811,0.0782 0.0512,-0.26395 -0.0827,-0.39091 -0.41095,-0.39091 -0.008,0 -0.0168,-8.2e-4 -0.0253,0 z m 9.08701,2.61549 c -0.42288,-8.2e-4 -0.50105,0.33531 -0.23904,1.01829 0.22614,0.58927 0.91006,0.32823 0.91006,-0.34764 0,-0.42677 -0.14213,-0.60445 -0.52823,-0.65904 a 1.0389593,1.0389593 0 0 0 -0.14278,-0.0117 z m 14.60358,1.40854 a 0.59216801,0.59216801 0 0 0 -0.10308,0.011 c -0.52012,0.10242 -0.8981,0.74593 -0.71687,1.21921 0.19448,0.50657 0.46842,0.48555 0.97694,-0.0762 0.45032,-0.49748 0.3331,-1.16592 -0.15699,-1.15429 z m -8.10136,0.44033 c -0.4297,0.008 -0.54438,0.13214 -0.54438,0.56696 0,0.31241 0.13181,0.61607 0.29334,0.67391 0.41289,0.14861 0.88097,-0.27654 0.88097,-0.7999 0,-0.31403 -0.16898,-0.44098 -0.587,-0.44098 z m -9.37841,2.81903 c -0.54821,0 -0.65969,0.68004 -0.19578,1.19273 0.3728,0.41192 0.45065,0.42418 0.62995,0.1034 0.11307,-0.20129 0.1383,-0.57507 0.0571,-0.83091 -0.0814,-0.25584 -0.30242,-0.46517 -0.49171,-0.46517 z m 14.35255,1.51127 c -0.38765,-8.3e-4 -0.81959,0.33628 -0.81959,0.70297 0,0.28945 0.462,0.84028 0.70459,0.84028 0.0775,0 0.26784,-0.12695 0.42288,-0.28205 0.40187,-0.40154 0.34861,-1.05188 -0.10016,-1.22407 a 0.57956869,0.57956869 0 0 0 -0.20771,-0.037 z m 3.1605,3.65767 c -0.28556,0 -0.45617,0.16153 -0.45617,0.431 0,0.76952 0.46136,0.96852 0.93139,0.40186 0.35535,-0.42807 0.12468,-0.83284 -0.47491,-0.83284 z m -8.08618,3.94747 c -0.0921,0.001 -0.20356,0.0856 -0.38441,0.24099 -0.44099,0.37734 -0.59447,1.22181 -0.27914,1.53712 0.25779,0.25746 0.81734,0.0701 1.09162,-0.36541 0.18092,-0.2875 0.16477,-0.55438 -0.0603,-0.9737 -0.1625,-0.30366 -0.2491,-0.44066 -0.36761,-0.43937 z m 6.17754,1.36008 a 0.72300706,0.72300706 0 0 0 -0.17735,0.024 c -0.30528,0.0798 -0.48458,0.31981 -0.48458,0.64805 0,0.8981 0.54691,1.07159 1.01893,0.32305 0.31014,-0.49204 0.0966,-0.996 -0.35697,-0.99503 z m -2.61613,6.68669 c -0.1202,0.005 -0.28108,0.0499 -0.49333,0.13116 -0.43807,0.16801 -0.49236,1.0522 -0.0895,1.45506 0.3573,0.35762 0.46972,0.35373 1.00051,-0.0344 0.30015,-0.21965 0.34958,-0.36827 0.16218,-0.48393 -0.14862,-0.0921 -0.27006,-0.37248 -0.27006,-0.62353 0,-0.3137 -0.0801,-0.45259 -0.30981,-0.44422 z"
   fill="#ffffff"
   id="path57"
   style="stroke-width:0.32306" />
<path
   d="m 973.67887,350.69381 c -1.35879,-0.0357 -2.68204,-0.58473 -3.72681,-1.44214 -0.49846,-0.38441 -0.74789,-0.98145 -0.8503,-1.58687 -0.4607,-2.34315 -0.47361,-4.74251 -0.55404,-7.12088 -0.0357,-2.48109 -0.10341,-4.96865 0.0675,-7.44587 0.0292,-0.19318 0.0924,-0.39253 -0.16412,-0.28173 -1.01408,0.13636 -2.0469,0.35957 -3.07067,0.20097 -1.10325,-0.24034 -2.10053,-0.80281 -3.11817,-1.27092 -3.15403,-1.52614 -6.05284,-3.5753 -8.52554,-6.0593 -1.15462,-1.1278 -2.33895,-2.28015 -3.06325,-3.7462 -2.15416,-4.12289 -3.65122,-8.56915 -4.6582,-13.10394 -0.7608,-3.51101 -1.18821,-7.14446 -0.71073,-10.72655 0.37995,-2.98054 0.996,-5.92523 1.61886,-8.86248 0.40835,-1.71158 0.77793,-3.47484 1.65471,-5.01971 0.7062,-1.26898 2.08147,-2.11733 3.53265,-2.17548 2.05951,-0.11242 4.00691,0.93751 5.46811,2.31795 0.85513,0.79731 1.79814,1.62629 2.10441,2.80416 0.40576,1.49253 0.34569,3.0584 0.39252,4.59133 0.0448,3.7617 -0.0402,7.52663 0.13473,11.28575 0.0772,1.78136 0.38961,3.55011 0.96272,5.2397 0.4788,1.59657 1.17917,3.20024 2.00814,4.67952 0.62417,1.07837 1.25573,2.19196 2.18066,3.04419 0.65387,0.5305 1.24894,1.16205 2.00135,1.5523 0.18221,-0.19383 0.14407,-0.52498 0.19999,-0.77534 0.13732,-1.56942 0.22192,-3.14401 0.42807,-4.7073 0.12215,-1.0241 0.31079,-2.10925 0.33758,-3.09814 0.13856,-3.65122 -0.0175,-7.30955 -0.15251,-10.94946 -0.24066,-6.1433 -0.76791,-12.28918 -0.48328,-18.44024 0.10821,-2.40291 0.64001,-4.7606 1.15914,-7.10084 0.46233,-1.89863 0.91361,-3.81437 1.65729,-5.62641 0.70816,-1.51515 1.6321,-3.01705 3.03903,-3.97524 0.933,-0.63189 2.10473,-0.62093 3.18537,-0.70718 1.45441,-0.048 2.97343,-0.0879 4.33287,0.51558 1.05544,0.38669 2.06887,1.02669 2.62841,2.03141 0.6487,1.11681 1.03023,2.36414 1.4108,3.59112 0.39318,1.53131 0.31721,3.12883 0.36281,4.69599 0.0422,4.08606 0.0584,8.17244 0.0937,12.25849 1.70801,-0.16573 3.27194,-1.05478 4.54286,-2.17096 0.61866,-0.55308 1.12457,-1.21663 1.60915,-1.88666 0.18547,-0.26687 0.4323,-0.64292 0.60997,-0.97241 1.22634,-2.17872 1.40208,-4.73864 1.50352,-7.18387 0.0902,-2.57867 -0.0168,-5.23776 0.0363,-7.84776 0.0337,-1.83369 0.19383,-3.70808 0.943,-5.40576 0.40187,-1.00633 0.90521,-1.98261 1.63985,-2.7893 0.98243,-1.09 2.16934,-2.16708 3.67318,-2.40097 1.6001,-0.25552 3.3702,-0.0279 4.6769,0.99341 1.3352,1.03443 2.4524,2.3719 3.1877,3.89512 0.4901,1.02281 0.67,2.15772 0.6765,3.28358 0.045,2.53117 0.024,5.06396 -0.02,7.59513 -0.041,2.3018 -0.2552,4.60844 -0.8099,6.84757 -0.4756,1.96452 -0.9737,3.92582 -1.5604,5.8603 -0.3347,1.14362 -0.9518,2.17936 -1.7148,3.08747 -1.7106,2.15772 -3.4939,4.31802 -5.78052,5.89326 -1.78749,1.2525 -3.68547,2.34024 -5.59734,3.38954 -1.39367,0.77308 -2.95405,1.14589 -4.50119,1.46927 -1.53162,0.35763 -3.07229,0.82477 -4.41169,1.66925 -0.23262,0.16801 -0.52629,0.34731 -0.49781,0.67552 -0.24553,2.53472 -0.17346,5.08625 -0.24326,7.62905 -0.0564,3.85539 -0.20479,7.70852 -0.26784,11.56359 -0.0448,2.44492 0.21225,4.88208 0.47815,7.29307 0.4426,3.87413 0.6823,7.77055 0.69361,11.6702 0.0123,2.45299 0.0705,4.90662 0.0532,7.35929 -0.0136,0.93397 -0.30625,1.90476 -1.02087,2.5428 -0.87549,0.80216 -1.92607,1.38431 -2.95825,1.95807 -0.98114,0.54659 -2.10828,0.68004 -3.20475,0.80668 -0.63059,0.0859 -1.25831,0.21193 -1.84757,0.45389 -0.57734,0.14537 -1.17917,0.15504 -1.77102,0.13538 z"
   id="path363"
   style="stroke-width:0.32306" /><path
   d="m 1001.1593,253.88031 c -0.2252,0.005 -0.4504,0.0201 -0.6726,0.0448 -1.53037,0.0953 -2.87849,0.97305 -3.92682,2.04012 -0.94947,0.90231 -1.68896,2.00749 -2.19002,3.21606 -0.67002,1.4389 -0.99858,3.02448 -1.09356,4.60844 -0.22743,4.13839 0.19059,8.30425 -0.34568,12.42648 -0.0623,0.40965 -0.15828,0.96013 -0.27687,1.41533 -0.37994,1.65147 -1.27964,3.13109 -2.38708,4.39555 -1.08387,1.18239 -2.49305,2.11603 -4.06344,2.49337 -0.0266,-3.54785 -0.0487,-7.09536 -0.0808,-10.6432 -0.0512,-1.79782 0.0551,-3.61923 -0.31435,-5.39122 -0.33921,-1.26348 -0.75048,-2.51953 -1.34264,-3.68966 -0.56339,-1.2231 -1.67248,-2.11571 -2.91206,-2.59417 -1.34457,-0.63481 -2.85778,-0.72655 -4.32157,-0.67583 -1.23053,0.0672 -2.52825,0.0461 -3.65832,0.6064 -1.6308,0.91425 -2.71531,2.53666 -3.51198,4.18362 -0.71105,1.54681 -1.13071,3.20895 -1.54972,4.85397 -0.59024,2.46171 -1.16882,4.94055 -1.40207,7.46623 -0.25202,3.78043 -0.13506,7.57445 0.035,11.35554 0.2539,5.34695 0.56923,10.68357 0.59122,16.03408 -0.0201,1.48931 0.01,2.95212 -0.18189,4.42043 -0.29723,2.01169 -0.46298,4.04244 -0.61574,6.06447 -0.66066,-0.57668 -1.38334,-1.10098 -1.90057,-1.82044 -0.99728,-1.37235 -1.80073,-2.88233 -2.46881,-4.43948 -0.7579,-1.85921 -1.36913,-3.79724 -1.59591,-5.79892 -0.11956,-0.96595 -0.13052,-1.86405 -0.17158,-2.8355 -0.0872,-2.97117 -0.0506,-6.03151 -0.0734,-9.03726 -0.0441,-1.75809 0.0409,-3.54235 -0.34504,-5.27007 -0.2336,-1.26478 -1.11262,-2.26691 -2.03495,-3.10493 -1.49254,-1.47928 -3.41959,-2.67009 -5.56309,-2.79123 -1.66472,-0.14926 -3.37888,0.58473 -4.38844,1.9222 -1.09743,1.53518 -1.53711,3.4128 -1.97195,5.21838 -0.64545,2.89591 -1.24314,5.80539 -1.66053,8.74394 -0.54918,3.41473 -0.30268,6.907 0.3392,10.29009 0.96596,4.94927 2.5231,9.80421 4.81876,14.30184 0.68166,1.4948 1.79298,2.73276 2.96116,3.86573 2.30439,2.35769 4.95154,4.38262 7.8594,5.94009 1.20017,0.61931 2.39775,1.23506 3.66156,1.71287 1.12812,0.45745 2.36802,0.31753 3.53782,0.1344 -0.10464,1.80364 -0.0911,3.61181 -0.0649,5.41771 0.0493,2.46009 0.0653,4.92827 0.35762,7.37415 0.17249,1.06998 0.21965,2.26207 0.98113,3.11139 1.18143,1.14621 2.80448,1.84241 4.45208,1.89409 0.39188,0.0104 0.78407,0.013 1.17497,-0.0253 0.56404,-0.0214 1.07417,-0.262 1.61207,-0.39992 1.29062,-0.2862 2.65813,-0.26622 3.88317,-0.8183 1.14073,-0.56793 2.25981,-1.20889 3.25127,-2.01493 0.91362,-0.67228 1.43439,-1.76972 1.51742,-2.88653 0.0545,-1.88731 -0.002,-3.77689 -0.0136,-5.66485 -0.0136,-3.17923 -0.0623,-6.36104 -0.30981,-9.53154 -0.23775,-3.52781 -0.83027,-6.99618 -0.88195,-10.52399 0.0149,-3.48678 0.16217,-6.97162 0.22937,-10.45808 0.0711,-2.60192 0.0584,-5.23163 0.15057,-7.80771 0.0331,-0.58538 0.0688,-1.27931 0.13246,-1.90411 1.07902,-0.7818 2.37417,-1.20017 3.64734,-1.54777 1.63985,-0.40479 3.3301,-0.69265 4.86334,-1.43439 1.95871,-1.02862 3.8822,-2.13445 5.71815,-3.37112 2.31306,-1.48931 4.17526,-3.55269 5.87836,-5.68779 0.8487,-1.02475 1.687,-2.09181 2.1555,-3.35272 0.6183,-1.82141 1.0725,-3.69418 1.5452,-5.55791 0.5233,-1.95386 0.8625,-3.95619 0.9824,-5.9766 0.1389,-2.44298 0.1163,-4.89177 0.126,-7.33797 -0.042,-1.64567 0.1043,-3.33721 -0.4142,-4.92731 -0.6413,-1.86178 -1.8931,-3.47514 -3.3885,-4.73572 -1.1831,-1.069 -2.7922,-1.52968 -4.3681,-1.49512 z m 0.3437,1.2945 c 0.7695,0.0279 1.5407,0.18864 2.1341,0.47588 1.3898,0.67293 3.2258,2.75343 3.8722,4.38909 0.4749,1.20081 0.5331,1.75227 0.5299,4.99159 -0.01,8.66607 -0.081,9.34288 -1.6492,15.26133 -0.9715,3.66704 -1.0952,3.94455 -2.6071,5.82831 -3.2319,4.02695 -4.46858,5.07689 -9.2266,7.83678 -2.58771,1.50093 -3.19602,1.74065 -5.8926,2.31957 -2.60967,0.56021 -5.00161,1.63565 -5.43418,2.44362 -0.15764,0.29464 -0.27654,2.31245 -0.3056,5.18834 -0.0259,2.58836 -0.12793,7.40194 -0.22711,10.69714 -0.16704,5.56308 -0.13668,6.38624 0.42548,11.51288 0.43514,3.97201 0.61898,7.00425 0.65484,10.8073 0.0273,2.90754 0.0584,6.09936 0.0682,7.09212 0.0227,2.2359 -0.27913,2.70628 -2.6633,4.15197 -1.41403,0.85739 -1.98875,1.06254 -3.43509,1.22439 -0.95529,0.10723 -1.94482,0.30593 -2.19907,0.44196 -0.52401,0.28043 -2.19777,0.29561 -3.07843,0.0279 -1.07643,-0.32759 -2.10409,-0.95852 -2.46946,-1.51644 -0.22192,-0.33856 -0.45033,-1.56361 -0.59187,-3.17923 -0.28335,-3.22672 -0.35081,-11.08159 -0.10626,-12.3286 l 0.1793,-0.91522 -0.67842,0.16542 c -0.37313,0.0908 -1.28158,0.22386 -2.01912,0.29593 -1.20405,0.11793 -1.53874,0.0395 -3.28907,-0.76791 -3.65768,-1.68702 -6.4221,-3.56981 -9.11997,-6.21051 -2.37546,-2.32505 -2.60483,-2.63454 -3.83149,-5.16894 -2.348,-4.85236 -4.21851,-11.42016 -4.66982,-16.39721 -0.32337,-3.56658 -0.084,-5.87226 1.33714,-12.84033 0.91878,-4.50667 1.57007,-6.33326 2.60967,-7.32117 1.76391,-1.677 4.83103,-1.1908 7.31665,1.16011 2.36093,2.23266 2.29244,1.90153 2.30955,11.08708 0.0162,8.61729 0.11696,9.59325 1.38916,13.41246 0.87097,2.61452 2.81321,6.03733 4.02565,7.09536 2.02881,1.77036 2.37804,1.97356 2.8665,1.66828 0.37411,-0.2336 0.47102,-0.66874 0.59122,-2.652 0.0795,-1.30484 0.30398,-3.40763 0.49911,-4.67305 0.36826,-2.38419 0.26006,-8.76235 -0.3344,-19.78546 -0.30366,-5.62932 -0.29918,-10.94397 0.0104,-13.1986 0.48847,-3.55333 1.85242,-9.07862 2.66459,-10.79665 0.96434,-2.0385 2.22524,-3.48484 3.38341,-3.88059 0.4762,-0.16249 1.81721,-0.30106 2.98022,-0.30722 1.74161,-0.009 2.36156,0.093 3.51585,0.57669 1.67733,0.7033 2.21167,1.40272 3.1227,4.08929 0.64195,1.89378 0.6448,1.93157 0.692,9.06796 0.0259,3.94132 0.0525,7.6817 0.059,8.31232 l 0.011,1.14686 0.9989,-0.11436 c 1.78296,-0.2048 4.06893,-1.51935 5.4009,-3.10655 2.70272,-3.21928 3.26839,-5.65612 3.18343,-13.71484 -0.0662,-6.28351 0.0753,-7.32473 1.36848,-10.06072 0.63773,-1.34909 2.28662,-3.00025 3.50455,-3.50907 0.58636,-0.24488 1.35426,-0.35049 2.12376,-0.32305 z m -0.7065,2.57317 c -0.6859,0 -0.91976,0.30689 -0.7182,0.94204 0.1677,0.52784 0.5899,0.6051 1.0096,0.18546 0.5004,-0.50007 0.3379,-1.12748 -0.2914,-1.12748 z m 4.2178,3.33849 c -0.2445,-0.003 -0.4936,0.22069 -0.5521,0.63157 -0.044,0.3069 0.062,0.6461 0.2349,0.75273 0.4662,0.28815 0.9841,-0.33596 0.7886,-0.95076 -0.093,-0.29302 -0.2811,-0.43164 -0.4713,-0.43353 z m -8.2819,0.30366 a 1.3083908,1.3083908 0 0 0 -0.29398,0.0487 c -0.62126,0.16249 -0.73335,0.63156 -0.29983,1.25055 0.356,0.50819 0.38506,0.51208 0.68714,0.0992 0.17346,-0.23709 0.31468,-0.6051 0.31468,-0.81733 0,-0.4129 -0.11177,-0.58863 -0.40803,-0.58084 z m 4.1965,2.50306 a 0.96691696,0.96691696 0 0 0 -0.1156,0.01 c -0.5105,0.0737 -0.7573,0.66227 -0.5279,1.25994 0.1838,0.4788 0.5304,0.41996 0.9355,-0.15829 0.4155,-0.59316 0.2588,-1.12327 -0.292,-1.11132 z m 3.4703,3.27841 c -0.1841,-0.003 -0.3628,0.0724 -0.4716,0.24488 -0.294,0.46329 -0.252,1.23699 0.086,1.57427 0.2349,0.23489 0.378,0.18929 0.7162,-0.22776 0.2323,-0.28685 0.3903,-0.74078 0.3521,-1.00827 -0.051,-0.35568 -0.3751,-0.57831 -0.6823,-0.58311 z m -7.5085,0.56793 c -0.16056,0.006 -0.33466,0.12182 -0.4694,0.37345 -0.33018,0.61704 -0.10372,1.20469 0.42515,1.10421 0.24262,-0.0461 0.44131,-0.33051 0.48328,-0.69198 0.0577,-0.49528 -0.17151,-0.79473 -0.43936,-0.78569 z m -16.77648,0.81637 c -0.46647,0 -0.59504,0.11858 -0.59504,0.54854 0,0.90262 0.62255,1.17431 1.1727,0.51143 0.4177,-0.50332 0.1147,-1.05964 -0.57766,-1.05964 z m -5.41836,1.46379 c -0.0969,0 -0.20414,0.0182 -0.3211,0.0558 -0.54691,0.17378 -0.65128,0.81346 -0.20511,1.2596 0.43287,0.43288 0.99308,0.22581 1.08225,-0.39992 0.0821,-0.57831 -0.13604,-0.91555 -0.556,-0.91523 z m 26.22824,1.82528 c -0.4054,0 -0.94657,0.71041 -0.8109,1.06415 0.1706,0.44423 0.6494,0.44261 1.0199,-0.004 0.3069,-0.36988 0.1713,-1.05996 -0.209,-1.05996 z m -3.99205,2.13736 a 4.0963938,4.0963938 0 0 0 -0.3198,0.0214 c -0.89424,0.0859 -1.15301,0.82509 -0.51299,1.46507 0.36696,0.36697 0.42158,0.36606 0.83478,-0.008 0.24294,-0.21971 0.44228,-0.6542 0.44228,-0.9653 0,-0.40381 -0.0616,-0.51915 -0.44423,-0.5137 z m -24.93372,0.91684 c -0.58895,0 -0.96499,0.68488 -0.67455,1.22763 0.33245,0.62125 1.11035,0.52564 1.28158,-0.15698 0.17832,-0.70977 -0.0259,-1.07062 -0.60705,-1.07062 z m 7.5515,1.41403 c -0.15601,-0.002 -0.3547,0.0454 -0.59861,0.13889 -0.48652,0.18643 -0.47491,0.89552 0.0234,1.39368 0.37021,0.37053 0.41484,0.36826 0.70491,-0.0285 0.17028,-0.23262 0.30982,-0.66745 0.30982,-0.96595 0,-0.35827 -0.14148,-0.5353 -0.43936,-0.53822 z m 18.64796,2.81547 c -0.69198,0 -0.78729,0.56501 -0.20382,1.20954 0.49431,0.54658 0.79149,0.3521 0.79149,-0.51883 0,-0.58019 -0.0943,-0.6907 -0.58797,-0.6907 z m 5.55051,0.23457 c -0.5932,0 -0.8083,0.33596 -0.6119,0.95528 0.2187,0.68973 0.9188,0.47426 1.0096,-0.31079 0.059,-0.51298 -0.022,-0.64447 -0.3973,-0.64447 z m -28.7788,1.64501 c -0.73109,0 -0.9821,0.64448 -0.47134,1.20889 0.50689,0.55989 0.71396,0.54919 1.03605,-0.0525 0.35762,-0.66808 0.11955,-1.15655 -0.56469,-1.15655 z m 5.85545,2.34994 c -0.72107,0 -0.93041,0.32369 -0.6038,0.93429 0.31948,0.59667 0.6219,0.60348 0.93364,0.0208 v -8.3e-4 c 0.378,-0.7062 0.29269,-0.95464 -0.32953,-0.95464 z m 14.30443,0.93945 c -0.36347,0 -0.60121,0.59407 -0.42321,1.05738 0.19383,0.50657 0.44131,0.43482 0.73593,-0.21193 0.26849,-0.58927 0.17346,-0.84545 -0.31274,-0.84545 z m 5.18282,1.35201 -0.55857,0.45454 c -0.41419,0.33725 -0.5159,0.587 -0.39479,0.96853 0.18319,0.5776 0.78376,0.68908 0.97856,0.18157 0.07,-0.18287 0.093,-0.61866 0.051,-0.96853 z m -10.26746,0.31241 c -0.0623,0 -0.137,0.008 -0.22775,0.0201 -0.62191,0.0885 -0.84028,0.7579 -0.41445,1.27125 0.43132,0.51947 0.79699,0.27718 0.88163,-0.58409 0.0545,-0.55308 0.0305,-0.70621 -0.23905,-0.7075 z m -18.17564,0.21517 c -0.39577,0 -0.57377,0.13117 -0.57377,0.42289 0,0.91425 1.03444,1.33003 1.2916,0.51915 0.20161,-0.63514 -0.0325,-0.94204 -0.71784,-0.94204 z m -20.1069,3.05453 c -0.51305,0.0156 -0.79375,0.51947 -0.58538,1.06286 0.11437,0.29788 0.21679,0.30755 0.6125,0.0603 0.26168,-0.16314 0.47523,-0.48263 0.47523,-0.70976 0,-0.25909 -0.17865,-0.41354 -0.4775,-0.41354 z m 26.10482,0.70491 c -0.81637,0 -1.08806,0.44423 -0.7075,1.15591 0.30041,0.56119 0.35056,0.57442 0.96498,0.24553 0.26071,-0.13953 0.45486,-0.49009 0.45486,-0.82218 0,-0.48814 -0.11177,-0.57922 -0.71234,-0.57922 z m -22.32341,1.40951 c -0.34698,0 -0.45973,0.16153 -0.45973,0.65808 0,0.63448 0.43229,1.33746 0.67391,1.09614 0.0649,-0.0649 0.14602,-0.48555 0.18156,-0.93591 0.0532,-0.67777 -0.0143,-0.81831 -0.39544,-0.81831 z m 29.02689,0.26168 a 1.4317995,1.4317995 0 0 0 -0.17411,0.0156 c -0.53659,0.0765 -0.79149,0.65452 -0.55761,1.26381 0.15828,0.41258 0.42742,0.43165 0.80248,0.0571 0.15503,-0.15503 0.2814,-0.53238 0.2814,-0.83865 0,-0.37313 -0.0769,-0.50203 -0.35211,-0.49755 z m 7.27854,0.34855 c -0.11956,0.003 -0.2504,0.0428 -0.39318,0.11923 -0.58311,0.31208 -0.53141,1.048 0.10464,1.4935 0.48457,0.33952 0.55307,0.33693 0.82347,-0.0331 0.16218,-0.22159 0.22711,-0.62028 0.14441,-0.88583 -0.14635,-0.46971 -0.37443,-0.70168 -0.67973,-0.69393 z m -19.85201,2.25819 c -0.0882,0.002 -0.17897,0.0396 -0.26233,0.12273 -0.3008,0.30106 -0.11502,1.00278 0.26557,1.00278 0.13733,0 0.31339,-0.1651 0.39091,-0.36762 0.15023,-0.3909 -0.10594,-0.76436 -0.39415,-0.75789 z m -22.32437,1.83045 c -0.59155,0 -0.84836,0.59284 -0.46006,1.0606 0.3728,0.44935 0.61672,0.44228 0.79473,-0.0227 0.262,-0.6823 0.14699,-1.03799 -0.33466,-1.03799 z m 26.89275,0.32111 c -0.0785,0.002 -0.15698,0.0499 -0.22289,0.15666 -0.19707,0.31916 0.0325,0.9317 0.34952,0.9317 0.13344,0 0.24229,-0.20446 0.24229,-0.45551 0,-0.37735 -0.18319,-0.63643 -0.36892,-0.63287 z m -4.64656,3.22187 c -0.20447,-0.003 -0.42775,0.0979 -0.62898,0.34082 -0.22808,0.27459 -0.23586,0.49619 -0.0337,0.9401 0.31241,0.68553 0.86903,0.75467 1.19403,0.14829 0.39285,-0.73464 -0.008,-1.42146 -0.53141,-1.42921 z m 7.33054,1.27382 c -0.35211,0.009 -0.57734,0.1599 -0.62767,0.42223 -0.0814,0.42224 0.32791,1.10487 0.66227,1.10487 0.0979,0 0.30527,-0.15374 0.46102,-0.34147 0.45032,-0.54276 0.20032,-1.18562 -0.4607,-1.18562 z m -23.71838,1.36428 c -0.1034,-8.2e-4 -0.23424,0.0493 -0.41672,0.147 -0.5521,0.29528 -0.65484,0.94236 -0.21841,1.37882 0.39415,0.39382 0.60315,0.35276 0.88453,-0.17314 0.29269,-0.54692 0.29853,-0.73884 0.0344,-1.15526 -0.0834,-0.13182 -0.16606,-0.19708 -0.28399,-0.1974 z m -6.02958,2.86877 c -0.24682,0.002 -0.52661,0.23197 -0.52661,0.56923 0,0.73237 0.6138,0.99534 0.85482,0.36664 h 8.2e-4 c 0.0743,-0.19383 0.0749,-0.50916 10e-4,-0.70104 -0.0629,-0.16444 -0.19156,-0.23547 -0.32986,-0.23456 z m 22.16382,1.17756 a 0.73334497,0.73334497 0 0 0 -0.37735,0.11566 c -0.25714,0.15893 -0.2633,0.31662 -0.0318,0.82445 0.23613,0.5185 0.34634,0.57759 0.63222,0.34017 0.19058,-0.15828 0.34731,-0.47491 0.34731,-0.70362 0,-0.3547 -0.25909,-0.58019 -0.57053,-0.57669 z m 5.2888,2.93014 c -0.83058,0 -1.00277,0.37313 -0.56858,1.23312 0.36022,0.71331 0.55113,0.78536 0.97177,0.36476 0.15504,-0.15504 0.28205,-0.57825 0.28205,-0.9401 0,-0.5702 -0.0915,-0.65743 -0.68521,-0.65743 z m -25.41573,2.38289 c -0.13344,0.005 -0.30917,0.15218 -0.5608,0.43034 -0.39901,0.44066 -0.39933,0.49463 -0.013,1.08451 0.36216,0.55243 0.44519,0.58149 0.75983,0.26687 0.24715,-0.24683 0.30528,-0.57409 0.19318,-1.0845 -0.10535,-0.47946 -0.20738,-0.7046 -0.37929,-0.69717 z m 6.17851,0.50008 c -0.12824,-0.002 -0.27232,0.0795 -0.4077,0.26265 -0.23904,0.32435 -0.26233,0.56534 -0.0856,0.8952 0.3069,0.57377 0.7734,0.43067 0.87549,-0.26875 0.0782,-0.53303 -0.11923,-0.88486 -0.38221,-0.88906 z m 14.60584,3.75459 c -0.29982,0.008 -0.55729,0.22841 -0.55729,0.59187 0,0.40705 0.4103,0.99373 0.69554,0.99373 0.0724,0 0.272,-0.22484 0.44358,-0.49976 0.26363,-0.42256 0.25682,-0.55437 -0.0428,-0.85449 -0.16412,-0.16412 -0.35893,-0.23586 -0.53887,-0.23132 z m 6.37235,1.16721 a 1.3245438,1.3245438 0 0 0 -0.35276,0.0669 c -0.56955,0.18093 -0.59446,0.52694 -0.0795,1.09583 0.44806,0.4956 1.02152,0.20129 1.02152,-0.52434 0,-0.42775 -0.21355,-0.65097 -0.58927,-0.63838 z m -17.33053,2.80352 c -0.49105,0.006 -0.58213,0.63481 -0.1163,1.10099 0.231,0.23067 0.35243,0.20576 0.59089,-0.11988 0.16477,-0.22581 0.26363,-0.52012 0.21971,-0.65452 -0.0441,-0.13441 -0.31014,-0.27848 -0.59089,-0.31981 a 0.65225702,0.65225702 0 0 0 -0.10341,-0.006 z m -4.87851,0.43449 c -0.2565,0.008 -0.46201,0.14602 -0.46201,0.31306 0,0.71945 0.76049,0.786 0.89811,0.0782 0.0512,-0.26395 -0.0827,-0.39091 -0.41095,-0.39091 -0.008,0 -0.0168,-8.2e-4 -0.0253,0 z m 9.08701,2.61549 c -0.42288,-8.2e-4 -0.50105,0.33531 -0.23904,1.01829 0.22614,0.58927 0.91006,0.32823 0.91006,-0.34764 0,-0.42677 -0.14213,-0.60445 -0.52823,-0.65904 a 1.0389593,1.0389593 0 0 0 -0.14278,-0.0117 z m 14.60358,1.40854 a 0.59216801,0.59216801 0 0 0 -0.10308,0.011 c -0.52012,0.10242 -0.8981,0.74593 -0.71687,1.21921 0.19448,0.50657 0.46842,0.48555 0.97694,-0.0762 0.45032,-0.49748 0.3331,-1.16592 -0.15699,-1.15429 z m -8.10136,0.44033 c -0.4297,0.008 -0.54438,0.13214 -0.54438,0.56696 0,0.31241 0.13181,0.61607 0.29334,0.67391 0.41289,0.14861 0.88097,-0.27654 0.88097,-0.7999 0,-0.31403 -0.16898,-0.44098 -0.587,-0.44098 z m -9.37841,2.81903 c -0.54821,0 -0.65969,0.68004 -0.19578,1.19273 0.3728,0.41192 0.45065,0.42418 0.62995,0.1034 0.11307,-0.20129 0.1383,-0.57507 0.0571,-0.83091 -0.0814,-0.25584 -0.30242,-0.46517 -0.49171,-0.46517 z m 14.35255,1.51127 c -0.38765,-8.3e-4 -0.81959,0.33628 -0.81959,0.70297 0,0.28945 0.462,0.84028 0.70459,0.84028 0.0775,0 0.26784,-0.12695 0.42288,-0.28205 0.40187,-0.40154 0.34861,-1.05188 -0.10016,-1.22407 a 0.57956869,0.57956869 0 0 0 -0.20771,-0.037 z m 3.1605,3.65767 c -0.28556,0 -0.45617,0.16153 -0.45617,0.431 0,0.76952 0.46136,0.96852 0.93139,0.40186 0.35535,-0.42807 0.12468,-0.83284 -0.47491,-0.83284 z m -8.08618,3.94747 c -0.0921,0.001 -0.20356,0.0856 -0.38441,0.24099 -0.44099,0.37734 -0.59447,1.22181 -0.27914,1.53712 0.25779,0.25746 0.81734,0.0701 1.09162,-0.36541 0.18092,-0.2875 0.16477,-0.55438 -0.0603,-0.9737 -0.1625,-0.30366 -0.2491,-0.44066 -0.36761,-0.43937 z m 6.17754,1.36008 a 0.72300706,0.72300706 0 0 0 -0.17735,0.024 c -0.30528,0.0798 -0.48458,0.31981 -0.48458,0.64805 0,0.8981 0.54691,1.07159 1.01893,0.32305 0.31014,-0.49204 0.0966,-0.996 -0.35697,-0.99503 z m -2.61613,6.68669 c -0.1202,0.005 -0.28108,0.0499 -0.49333,0.13116 -0.43807,0.16801 -0.49236,1.0522 -0.0895,1.45506 0.3573,0.35762 0.46972,0.35373 1.00051,-0.0344 0.30015,-0.21965 0.34958,-0.36827 0.16218,-0.48393 -0.14862,-0.0921 -0.27006,-0.37248 -0.27006,-0.62353 0,-0.3137 -0.0801,-0.45259 -0.30981,-0.44422 z"
   fill="#ffffff"
   id="path365"
   style="stroke-width:0.32306" /><path
   d="m 1681.0848,194.64839 c -1.3588,-0.0357 -2.6821,-0.58473 -3.7268,-1.44214 -0.4985,-0.38441 -0.7479,-0.98145 -0.8503,-1.58687 -0.4607,-2.34315 -0.4736,-4.74251 -0.5541,-7.12088 -0.036,-2.48109 -0.1034,-4.96865 0.067,-7.44587 0.029,-0.19318 0.092,-0.39253 -0.1641,-0.28173 -1.0141,0.13636 -2.0469,0.35957 -3.0707,0.20097 -1.1032,-0.24034 -2.1005,-0.80281 -3.1181,-1.27092 -3.1541,-1.52614 -6.0529,-3.5753 -8.5256,-6.0593 -1.1546,-1.1278 -2.3389,-2.28015 -3.0632,-3.7462 -2.1542,-4.12289 -3.6512,-8.56915 -4.6582,-13.10394 -0.7608,-3.51101 -1.1882,-7.14446 -0.7107,-10.72655 0.3799,-2.98054 0.996,-5.92523 1.6188,-8.86248 0.4084,-1.71158 0.7779,-3.47484 1.6547,-5.01971 0.7062,-1.26898 2.0815,-2.11733 3.5327,-2.17548 2.0595,-0.11242 4.0069,0.93751 5.4681,2.31795 0.8551,0.79731 1.7981,1.62629 2.1044,2.80416 0.4058,1.49253 0.3457,3.0584 0.3925,4.59133 0.045,3.7617 -0.04,7.52663 0.1347,11.28575 0.077,1.78136 0.3897,3.55011 0.9628,5.2397 0.4788,1.59657 1.1791,3.20024 2.0081,4.67952 0.6242,1.07837 1.2557,2.19196 2.1807,3.04419 0.6538,0.5305 1.2489,1.16205 2.0013,1.5523 0.1822,-0.19383 0.1441,-0.52498 0.2,-0.77534 0.1373,-1.56942 0.2219,-3.14401 0.4281,-4.7073 0.1221,-1.0241 0.3108,-2.10925 0.3376,-3.09814 0.1385,-3.65122 -0.017,-7.30955 -0.1526,-10.94946 -0.2406,-6.1433 -0.7679,-12.28918 -0.4832,-18.44024 0.1082,-2.40291 0.64,-4.7606 1.1591,-7.10084 0.4623,-1.89863 0.9136,-3.81437 1.6573,-5.62641 0.7082,-1.51515 1.6321,-3.01705 3.039,-3.97524 0.933,-0.63189 2.1048,-0.62093 3.1854,-0.70718 1.4544,-0.048 2.9734,-0.0879 4.3329,0.51558 1.0554,0.38669 2.0688,1.02669 2.6284,2.03141 0.6487,1.11681 1.0302,2.36414 1.4108,3.59112 0.3932,1.53131 0.3172,3.12883 0.3628,4.69599 0.042,4.08606 0.058,8.17244 0.094,12.25849 1.708,-0.16573 3.2719,-1.05478 4.5428,-2.17096 0.6187,-0.55308 1.1246,-1.21663 1.6092,-1.88666 0.1855,-0.26687 0.4323,-0.64292 0.61,-0.97241 1.2263,-2.17872 1.402,-4.73864 1.5035,-7.18387 0.09,-2.57867 -0.017,-5.23776 0.036,-7.84776 0.034,-1.83369 0.1938,-3.70808 0.943,-5.40576 0.4019,-1.00633 0.9052,-1.98261 1.6398,-2.7893 0.9825,-1.090003 2.1694,-2.167083 3.6732,-2.400973 1.6001,-0.25552 3.3702,-0.0279 4.6769,0.99341 1.3352,1.034433 2.4524,2.371903 3.1877,3.895123 0.4901,1.02281 0.67,2.15772 0.6765,3.28358 0.045,2.53117 0.024,5.06396 -0.02,7.59513 -0.041,2.3018 -0.2552,4.60844 -0.8099,6.84757 -0.4756,1.96452 -0.9737,3.92582 -1.5604,5.8603 -0.3347,1.14362 -0.9518,2.17936 -1.7148,3.08747 -1.7106,2.15772 -3.4939,4.31802 -5.7805,5.89326 -1.7875,1.2525 -3.6855,2.34024 -5.5973,3.38954 -1.3937,0.77308 -2.9541,1.14589 -4.5012,1.46927 -1.5317,0.35763 -3.0723,0.82477 -4.4117,1.66925 -0.2326,0.16801 -0.5263,0.34731 -0.4978,0.67552 -0.2456,2.53472 -0.1735,5.08625 -0.2433,7.62905 -0.056,3.85539 -0.2048,7.70852 -0.2678,11.56359 -0.045,2.44492 0.2122,4.88208 0.4781,7.29307 0.4426,3.87413 0.6823,7.77055 0.6936,11.6702 0.012,2.45299 0.071,4.90662 0.053,7.35929 -0.014,0.93397 -0.3062,1.90476 -1.0208,2.5428 -0.8755,0.80216 -1.9261,1.38431 -2.9583,1.95807 -0.9811,0.54659 -2.1083,0.68004 -3.2047,0.80668 -0.6306,0.0859 -1.2584,0.21193 -1.8476,0.45389 -0.5774,0.14537 -1.1792,0.15504 -1.771,0.13538 z"
   id="path367"
   style="stroke-width:0.32306" /><path
   d="m 1708.5652,97.834887 c -0.2252,0.005 -0.4504,0.0201 -0.6726,0.0448 -1.5304,0.0953 -2.8785,0.97305 -3.9268,2.04012 -0.9495,0.902313 -1.689,2.007493 -2.19,3.216063 -0.67,1.4389 -0.9986,3.02448 -1.0936,4.60844 -0.2274,4.13839 0.1906,8.30425 -0.3457,12.42648 -0.062,0.40965 -0.1582,0.96013 -0.2768,1.41533 -0.38,1.65147 -1.2797,3.13109 -2.3871,4.39555 -1.0839,1.18239 -2.4931,2.11603 -4.0635,2.49337 -0.027,-3.54785 -0.049,-7.09536 -0.081,-10.6432 -0.051,-1.79782 0.055,-3.61923 -0.3143,-5.39122 -0.3392,-1.26348 -0.7505,-2.51953 -1.3426,-3.68966 -0.5634,-1.2231 -1.6725,-2.11571 -2.9121,-2.59417 -1.3446,-0.63481 -2.8578,-0.72655 -4.3216,-0.67583 -1.2305,0.0672 -2.5282,0.0461 -3.6583,0.6064 -1.6308,0.91425 -2.7153,2.53666 -3.512,4.18362 -0.711,1.54681 -1.1307,3.20895 -1.5497,4.85397 -0.5902,2.46171 -1.1688,4.94055 -1.4021,7.46623 -0.252,3.78043 -0.135,7.57445 0.035,11.35554 0.2539,5.34695 0.5693,10.68357 0.5913,16.03408 -0.02,1.48931 0.01,2.95212 -0.1819,4.42043 -0.2973,2.01169 -0.463,4.04244 -0.6158,6.06447 -0.6606,-0.57668 -1.3833,-1.10098 -1.9005,-1.82044 -0.9973,-1.37235 -1.8008,-2.88233 -2.4689,-4.43948 -0.7579,-1.85921 -1.3691,-3.79724 -1.5959,-5.79892 -0.1195,-0.96595 -0.1305,-1.86405 -0.1715,-2.8355 -0.087,-2.97117 -0.051,-6.03151 -0.073,-9.03726 -0.044,-1.75809 0.041,-3.54235 -0.3451,-5.27007 -0.2336,-1.26478 -1.1126,-2.26691 -2.0349,-3.10493 -1.4926,-1.47928 -3.4196,-2.67009 -5.5631,-2.79123 -1.6647,-0.14926 -3.3789,0.58473 -4.3885,1.9222 -1.0974,1.53518 -1.5371,3.4128 -1.9719,5.21838 -0.6455,2.89591 -1.2432,5.80539 -1.6605,8.74394 -0.5492,3.41473 -0.3027,6.907 0.3392,10.29009 0.9659,4.94927 2.5231,9.80421 4.8187,14.30184 0.6817,1.4948 1.793,2.73276 2.9612,3.86573 2.3044,2.35769 4.9515,4.38262 7.8594,5.94009 1.2001,0.61931 2.3977,1.23506 3.6615,1.71287 1.1282,0.45745 2.3681,0.31753 3.5379,0.1344 -0.1047,1.80364 -0.091,3.61181 -0.065,5.41771 0.049,2.46009 0.065,4.92827 0.3576,7.37415 0.1725,1.06998 0.2196,2.26207 0.9811,3.11139 1.1814,1.14621 2.8045,1.84241 4.4521,1.89409 0.3919,0.0104 0.7841,0.013 1.175,-0.0253 0.564,-0.0214 1.0741,-0.262 1.612,-0.39992 1.2906,-0.2862 2.6582,-0.26622 3.8832,-0.8183 1.1407,-0.56793 2.2598,-1.20889 3.2513,-2.01493 0.9136,-0.67228 1.4344,-1.76972 1.5174,-2.88653 0.054,-1.88731 -0,-3.77689 -0.014,-5.66485 -0.014,-3.17923 -0.062,-6.36104 -0.3098,-9.53154 -0.2378,-3.52781 -0.8303,-6.99618 -0.882,-10.52399 0.015,-3.48678 0.1622,-6.97162 0.2294,-10.45808 0.071,-2.60192 0.058,-5.23163 0.1506,-7.80771 0.033,-0.58538 0.069,-1.27931 0.1324,-1.90411 1.079,-0.7818 2.3742,-1.20017 3.6474,-1.54777 1.6398,-0.40479 3.3301,-0.69265 4.8633,-1.43439 1.9587,-1.02862 3.8822,-2.13445 5.7182,-3.37112 2.313,-1.48931 4.1752,-3.55269 5.8783,-5.68779 0.8487,-1.02475 1.687,-2.09181 2.1555,-3.35272 0.6183,-1.82141 1.0725,-3.69418 1.5452,-5.55791 0.5233,-1.95386 0.8625,-3.95619 0.9824,-5.9766 0.1389,-2.44298 0.1163,-4.89177 0.126,-7.33797 -0.042,-1.64567 0.1043,-3.33721 -0.4142,-4.92731 -0.6413,-1.86178 -1.8931,-3.47514 -3.3885,-4.735723 -1.1831,-1.069 -2.7922,-1.52968 -4.3681,-1.49512 z m 0.3437,1.2945 c 0.7695,0.0279 1.5407,0.18864 2.1341,0.47588 1.3898,0.672933 3.2258,2.753433 3.8722,4.389093 0.4749,1.20081 0.5331,1.75227 0.5299,4.99159 -0.01,8.66607 -0.081,9.34288 -1.6492,15.26133 -0.9715,3.66704 -1.0952,3.94455 -2.6071,5.82831 -3.2319,4.02695 -4.4686,5.07689 -9.2266,7.83678 -2.5877,1.50093 -3.196,1.74065 -5.8926,2.31957 -2.6097,0.56021 -5.0016,1.63565 -5.4342,2.44362 -0.1576,0.29464 -0.2765,2.31245 -0.3056,5.18834 -0.026,2.58836 -0.1279,7.40194 -0.2271,10.69714 -0.167,5.56308 -0.1367,6.38624 0.4255,11.51288 0.4351,3.97201 0.619,7.00425 0.6548,10.8073 0.027,2.90754 0.058,6.09936 0.068,7.09212 0.023,2.2359 -0.2791,2.70628 -2.6633,4.15197 -1.414,0.85739 -1.9887,1.06254 -3.435,1.22439 -0.9553,0.10723 -1.9449,0.30593 -2.1991,0.44196 -0.524,0.28043 -2.1978,0.29561 -3.0784,0.0279 -1.0765,-0.32759 -2.1041,-0.95852 -2.4695,-1.51644 -0.2219,-0.33856 -0.4503,-1.56361 -0.5919,-3.17923 -0.2833,-3.22672 -0.3508,-11.08159 -0.1062,-12.3286 l 0.1793,-0.91522 -0.6785,0.16542 c -0.3731,0.0908 -1.2815,0.22386 -2.0191,0.29593 -1.204,0.11793 -1.5387,0.0395 -3.289,-0.76791 -3.6577,-1.68702 -6.4221,-3.56981 -9.12,-6.21051 -2.3755,-2.32505 -2.6048,-2.63454 -3.8315,-5.16894 -2.348,-4.85236 -4.2185,-11.42016 -4.6698,-16.39721 -0.3234,-3.56658 -0.084,-5.87226 1.3371,-12.84033 0.9188,-4.50667 1.5701,-6.33326 2.6097,-7.32117 1.7639,-1.677 4.831,-1.1908 7.3166,1.16011 2.361,2.23266 2.2925,1.90153 2.3096,11.08708 0.016,8.61729 0.1169,9.59325 1.3891,13.41246 0.871,2.61452 2.8133,6.03733 4.0257,7.09536 2.0288,1.77036 2.378,1.97356 2.8665,1.66828 0.3741,-0.2336 0.471,-0.66874 0.5912,-2.652 0.08,-1.30484 0.304,-3.40763 0.4991,-4.67305 0.3683,-2.38419 0.2601,-8.76235 -0.3344,-19.78546 -0.3036,-5.62932 -0.2992,-10.94397 0.01,-13.1986 0.4885,-3.55333 1.8524,-9.07862 2.6646,-10.79665 0.9644,-2.0385 2.2253,-3.48484 3.3834,-3.88059 0.4762,-0.16249 1.8172,-0.30106 2.9802,-0.30722 1.7417,-0.009 2.3616,0.093 3.5159,0.57669 1.6773,0.7033 2.2117,1.40272 3.1227,4.08929 0.6419,1.89378 0.6448,1.93157 0.692,9.06796 0.026,3.94132 0.053,7.6817 0.059,8.31232 l 0.011,1.14686 0.9989,-0.11436 c 1.783,-0.2048 4.0689,-1.51935 5.4009,-3.10655 2.7027,-3.21928 3.2684,-5.65612 3.1834,-13.71484 -0.066,-6.28351 0.075,-7.32473 1.3685,-10.06072 0.6377,-1.34909 2.2866,-3.000253 3.5046,-3.509073 0.5863,-0.24488 1.3542,-0.35049 2.1237,-0.32305 z m -0.7065,2.573173 c -0.6859,0 -0.9197,0.30689 -0.7182,0.94204 0.1677,0.52784 0.5899,0.6051 1.0096,0.18546 0.5004,-0.50007 0.3379,-1.12748 -0.2914,-1.12748 z m 4.2178,3.33849 c -0.2445,-0.003 -0.4936,0.22069 -0.5521,0.63157 -0.044,0.3069 0.062,0.6461 0.2349,0.75273 0.4662,0.28815 0.9841,-0.33596 0.7886,-0.95076 -0.093,-0.29302 -0.2811,-0.43164 -0.4713,-0.43353 z m -8.2819,0.30366 a 1.3083908,1.3083908 0 0 0 -0.294,0.0487 c -0.6212,0.16249 -0.7333,0.63156 -0.2998,1.25055 0.356,0.50819 0.3851,0.51208 0.6871,0.0992 0.1735,-0.23709 0.3147,-0.6051 0.3147,-0.81733 0,-0.4129 -0.1117,-0.58863 -0.408,-0.58084 z m 4.1965,2.50306 a 0.96691696,0.96691696 0 0 0 -0.1156,0.01 c -0.5105,0.0737 -0.7573,0.66227 -0.5279,1.25994 0.1838,0.4788 0.5304,0.41996 0.9355,-0.15829 0.4155,-0.59316 0.2588,-1.12327 -0.292,-1.11132 z m 3.4703,3.27841 c -0.1841,-0.003 -0.3628,0.0724 -0.4716,0.24488 -0.294,0.46329 -0.252,1.23699 0.086,1.57427 0.2349,0.23489 0.378,0.18929 0.7162,-0.22776 0.2323,-0.28685 0.3903,-0.74078 0.3521,-1.00827 -0.051,-0.35568 -0.3751,-0.57831 -0.6823,-0.58311 z m -7.5085,0.56793 c -0.1605,0.006 -0.3346,0.12182 -0.4694,0.37345 -0.3302,0.61704 -0.1037,1.20469 0.4252,1.10421 0.2426,-0.0461 0.4413,-0.33051 0.4832,-0.69198 0.058,-0.49528 -0.1715,-0.79473 -0.4393,-0.78569 z m -16.7765,0.81637 c -0.4664,0 -0.595,0.11858 -0.595,0.54854 0,0.90262 0.6225,1.17431 1.1727,0.51143 0.4177,-0.50332 0.1147,-1.05964 -0.5777,-1.05964 z m -5.4183,1.46379 c -0.097,0 -0.2042,0.0182 -0.3211,0.0558 -0.5469,0.17378 -0.6513,0.81346 -0.2051,1.2596 0.4328,0.43288 0.993,0.22581 1.0822,-0.39992 0.082,-0.57831 -0.136,-0.91555 -0.556,-0.91523 z m 26.2282,1.82528 c -0.4054,0 -0.9466,0.71041 -0.8109,1.06415 0.1706,0.44423 0.6494,0.44261 1.0199,-0.004 0.3069,-0.36988 0.1713,-1.05996 -0.209,-1.05996 z m -3.992,2.13736 a 4.0963938,4.0963938 0 0 0 -0.3198,0.0214 c -0.8943,0.0859 -1.153,0.82509 -0.513,1.46507 0.3669,0.36697 0.4216,0.36606 0.8348,-0.008 0.2429,-0.21971 0.4422,-0.6542 0.4422,-0.9653 0,-0.40381 -0.062,-0.51915 -0.4442,-0.5137 z m -24.9338,0.91684 c -0.5889,0 -0.9649,0.68488 -0.6745,1.22763 0.3324,0.62125 1.1103,0.52564 1.2816,-0.15698 0.1783,-0.70977 -0.026,-1.07062 -0.6071,-1.07062 z m 7.5515,1.41403 c -0.156,-0.002 -0.3547,0.0454 -0.5986,0.13889 -0.4865,0.18643 -0.4749,0.89552 0.023,1.39368 0.3702,0.37053 0.4149,0.36826 0.7049,-0.0285 0.1703,-0.23262 0.3099,-0.66745 0.3099,-0.96595 0,-0.35827 -0.1415,-0.5353 -0.4394,-0.53822 z m 18.648,2.81547 c -0.692,0 -0.7873,0.56501 -0.2038,1.20954 0.4943,0.54658 0.7915,0.3521 0.7915,-0.51883 0,-0.58019 -0.094,-0.6907 -0.588,-0.6907 z m 5.5505,0.23457 c -0.5932,0 -0.8083,0.33596 -0.6119,0.95528 0.2187,0.68973 0.9188,0.47426 1.0096,-0.31079 0.059,-0.51298 -0.022,-0.64447 -0.3973,-0.64447 z m -28.7788,1.64501 c -0.7311,0 -0.9821,0.64448 -0.4713,1.20889 0.5069,0.55989 0.7139,0.54919 1.036,-0.0525 0.3576,-0.66808 0.1196,-1.15655 -0.5647,-1.15655 z m 5.8555,2.34994 c -0.7211,0 -0.9304,0.32369 -0.6038,0.93429 0.3194,0.59667 0.6219,0.60348 0.9336,0.0208 v -8.3e-4 c 0.378,-0.7062 0.2927,-0.95464 -0.3295,-0.95464 z m 14.3044,0.93945 c -0.3635,0 -0.6012,0.59407 -0.4232,1.05738 0.1938,0.50657 0.4413,0.43482 0.7359,-0.21193 0.2685,-0.58927 0.1735,-0.84545 -0.3127,-0.84545 z m 5.1828,1.35201 -0.5586,0.45454 c -0.4141,0.33725 -0.5159,0.587 -0.3947,0.96853 0.1831,0.5776 0.7837,0.68908 0.9785,0.18157 0.07,-0.18287 0.093,-0.61866 0.051,-0.96853 z m -10.2674,0.31241 c -0.062,0 -0.137,0.008 -0.2278,0.0201 -0.6219,0.0885 -0.8403,0.7579 -0.4144,1.27125 0.4313,0.51947 0.7969,0.27718 0.8816,-0.58409 0.054,-0.55308 0.031,-0.70621 -0.2391,-0.7075 z m -18.1757,0.21517 c -0.3958,0 -0.5738,0.13117 -0.5738,0.42289 0,0.91425 1.0345,1.33003 1.2916,0.51915 0.2017,-0.63514 -0.033,-0.94204 -0.7178,-0.94204 z m -20.1069,3.05453 c -0.513,0.0156 -0.7937,0.51947 -0.5854,1.06286 0.1144,0.29788 0.2168,0.30755 0.6125,0.0603 0.2617,-0.16314 0.4753,-0.48263 0.4753,-0.70976 0,-0.25909 -0.1787,-0.41354 -0.4775,-0.41354 z m 26.1048,0.70491 c -0.8163,0 -1.088,0.44423 -0.7075,1.15591 0.3004,0.56119 0.3506,0.57442 0.965,0.24553 0.2607,-0.13953 0.4549,-0.49009 0.4549,-0.82218 0,-0.48814 -0.1118,-0.57922 -0.7124,-0.57922 z m -22.3234,1.40951 c -0.347,0 -0.4597,0.16153 -0.4597,0.65808 0,0.63448 0.4323,1.33746 0.6739,1.09614 0.065,-0.0649 0.146,-0.48555 0.1816,-0.93591 0.053,-0.67777 -0.014,-0.81831 -0.3955,-0.81831 z m 29.0269,0.26168 a 1.4317995,1.4317995 0 0 0 -0.1741,0.0156 c -0.5366,0.0765 -0.7915,0.65452 -0.5576,1.26381 0.1583,0.41258 0.4274,0.43165 0.8025,0.0571 0.155,-0.15503 0.2814,-0.53238 0.2814,-0.83865 0,-0.37313 -0.077,-0.50203 -0.3521,-0.49755 z m 7.2786,0.34855 c -0.1196,0.003 -0.2504,0.0428 -0.3932,0.11923 -0.5831,0.31208 -0.5314,1.048 0.1046,1.4935 0.4846,0.33952 0.5531,0.33693 0.8235,-0.0331 0.1622,-0.22159 0.2271,-0.62028 0.1444,-0.88583 -0.1464,-0.46971 -0.3744,-0.70168 -0.6797,-0.69393 z m -19.8521,2.25819 c -0.088,0.002 -0.1789,0.0396 -0.2623,0.12273 -0.3008,0.30106 -0.115,1.00278 0.2656,1.00278 0.1373,0 0.3134,-0.1651 0.3909,-0.36762 0.1502,-0.3909 -0.1059,-0.76436 -0.3942,-0.75789 z m -22.3243,1.83045 c -0.5916,0 -0.8484,0.59284 -0.4601,1.0606 0.3728,0.44935 0.6167,0.44228 0.7947,-0.0227 0.262,-0.6823 0.147,-1.03799 -0.3346,-1.03799 z m 26.8927,0.32111 c -0.078,0.002 -0.157,0.0499 -0.2229,0.15666 -0.197,0.31916 0.033,0.9317 0.3496,0.9317 0.1334,0 0.2422,-0.20446 0.2422,-0.45551 0,-0.37735 -0.1831,-0.63643 -0.3689,-0.63287 z m -4.6465,3.22187 c -0.2045,-0.003 -0.4278,0.0979 -0.629,0.34082 -0.2281,0.27459 -0.2359,0.49619 -0.034,0.9401 0.3124,0.68553 0.869,0.75467 1.194,0.14829 0.3929,-0.73464 -0.01,-1.42146 -0.5314,-1.42921 z m 7.3305,1.27382 c -0.3521,0.009 -0.5773,0.1599 -0.6277,0.42223 -0.081,0.42224 0.3279,1.10487 0.6623,1.10487 0.098,0 0.3053,-0.15374 0.461,-0.34147 0.4503,-0.54276 0.2003,-1.18562 -0.4607,-1.18562 z m -23.7184,1.36428 c -0.1034,-8.2e-4 -0.2342,0.0493 -0.4167,0.147 -0.5521,0.29528 -0.6548,0.94236 -0.2184,1.37882 0.3941,0.39382 0.6031,0.35276 0.8845,-0.17314 0.2927,-0.54692 0.2986,-0.73884 0.034,-1.15526 -0.083,-0.13182 -0.166,-0.19708 -0.284,-0.1974 z m -6.0296,2.86877 c -0.2468,0.002 -0.5266,0.23197 -0.5266,0.56923 0,0.73237 0.6138,0.99534 0.8549,0.36664 h 8e-4 c 0.074,-0.19383 0.075,-0.50916 10e-4,-0.70104 -0.063,-0.16444 -0.1916,-0.23547 -0.3299,-0.23456 z m 22.1639,1.17756 a 0.73334497,0.73334497 0 0 0 -0.3774,0.11566 c -0.2571,0.15893 -0.2633,0.31662 -0.032,0.82445 0.2361,0.5185 0.3464,0.57759 0.6322,0.34017 0.1906,-0.15828 0.3473,-0.47491 0.3473,-0.70362 0,-0.3547 -0.259,-0.58019 -0.5705,-0.57669 z m 5.2888,2.93014 c -0.8306,0 -1.0028,0.37313 -0.5686,1.23312 0.3602,0.71331 0.5511,0.78536 0.9718,0.36476 0.155,-0.15504 0.282,-0.57825 0.282,-0.9401 0,-0.5702 -0.091,-0.65743 -0.6852,-0.65743 z m -25.4158,2.38289 c -0.1334,0.005 -0.3091,0.15218 -0.5608,0.43034 -0.399,0.44066 -0.3993,0.49463 -0.013,1.08451 0.3622,0.55243 0.4452,0.58149 0.7599,0.26687 0.2471,-0.24683 0.3052,-0.57409 0.1931,-1.0845 -0.1053,-0.47946 -0.2073,-0.7046 -0.3792,-0.69717 z m 6.1785,0.50008 c -0.1282,-0.002 -0.2723,0.0795 -0.4077,0.26265 -0.239,0.32435 -0.2623,0.56534 -0.086,0.8952 0.3069,0.57377 0.7734,0.43067 0.8755,-0.26875 0.078,-0.53303 -0.1192,-0.88486 -0.3822,-0.88906 z m 14.6059,3.75459 c -0.2998,0.008 -0.5573,0.22841 -0.5573,0.59187 0,0.40705 0.4103,0.99373 0.6955,0.99373 0.072,0 0.272,-0.22484 0.4436,-0.49976 0.2636,-0.42256 0.2568,-0.55437 -0.043,-0.85449 -0.1641,-0.16412 -0.3589,-0.23586 -0.5389,-0.23132 z m 6.3723,1.16721 a 1.3245438,1.3245438 0 0 0 -0.3527,0.0669 c -0.5696,0.18093 -0.5945,0.52694 -0.08,1.09583 0.448,0.4956 1.0215,0.20129 1.0215,-0.52434 0,-0.42775 -0.2136,-0.65097 -0.5893,-0.63838 z m -17.3305,2.80352 c -0.491,0.006 -0.5821,0.63481 -0.1163,1.10099 0.231,0.23067 0.3524,0.20576 0.5909,-0.11988 0.1648,-0.22581 0.2636,-0.52012 0.2197,-0.65452 -0.044,-0.13441 -0.3101,-0.27848 -0.5909,-0.31981 a 0.65225702,0.65225702 0 0 0 -0.1034,-0.006 z m -4.8785,0.43449 c -0.2565,0.008 -0.462,0.14602 -0.462,0.31306 0,0.71945 0.7605,0.786 0.8981,0.0782 0.051,-0.26395 -0.083,-0.39091 -0.411,-0.39091 -0.01,0 -0.017,-8.2e-4 -0.025,0 z m 9.087,2.61549 c -0.4229,-8.2e-4 -0.501,0.33531 -0.239,1.01829 0.2261,0.58927 0.91,0.32823 0.91,-0.34764 0,-0.42677 -0.1421,-0.60445 -0.5282,-0.65904 a 1.0389593,1.0389593 0 0 0 -0.1428,-0.0117 z m 14.6036,1.40854 a 0.59216801,0.59216801 0 0 0 -0.1031,0.011 c -0.5201,0.10242 -0.8981,0.74593 -0.7169,1.21921 0.1945,0.50657 0.4685,0.48555 0.977,-0.0762 0.4503,-0.49748 0.3331,-1.16592 -0.157,-1.15429 z m -8.1014,0.44033 c -0.4297,0.008 -0.5444,0.13214 -0.5444,0.56696 0,0.31241 0.1319,0.61607 0.2934,0.67391 0.4129,0.14861 0.881,-0.27654 0.881,-0.7999 0,-0.31403 -0.169,-0.44098 -0.587,-0.44098 z m -9.3784,2.81903 c -0.5482,0 -0.6597,0.68004 -0.1958,1.19273 0.3728,0.41192 0.4507,0.42418 0.63,0.1034 0.1131,-0.20129 0.1383,-0.57507 0.057,-0.83091 -0.081,-0.25584 -0.3024,-0.46517 -0.4917,-0.46517 z m 14.3526,1.51127 c -0.3877,-8.3e-4 -0.8196,0.33628 -0.8196,0.70297 0,0.28945 0.462,0.84028 0.7046,0.84028 0.077,0 0.2678,-0.12695 0.4228,-0.28205 0.4019,-0.40154 0.3487,-1.05188 -0.1001,-1.22407 a 0.57956869,0.57956869 0 0 0 -0.2077,-0.037 z m 3.1605,3.65767 c -0.2856,0 -0.4562,0.16153 -0.4562,0.431 0,0.76952 0.4614,0.96852 0.9314,0.40186 0.3553,-0.42807 0.1247,-0.83284 -0.4749,-0.83284 z m -8.0862,3.94747 c -0.092,0.001 -0.2036,0.0856 -0.3844,0.24099 -0.441,0.37734 -0.5945,1.22181 -0.2792,1.53712 0.2578,0.25746 0.8174,0.0701 1.0917,-0.36541 0.1809,-0.2875 0.1647,-0.55438 -0.06,-0.9737 -0.1625,-0.30366 -0.2491,-0.44066 -0.3677,-0.43937 z m 6.1775,1.36008 a 0.72300706,0.72300706 0 0 0 -0.1773,0.024 c -0.3053,0.0798 -0.4846,0.31981 -0.4846,0.64805 0,0.8981 0.5469,1.07159 1.0189,0.32305 0.3102,-0.49204 0.097,-0.996 -0.3569,-0.99503 z m -2.6161,6.68669 c -0.1202,0.005 -0.2811,0.0499 -0.4933,0.13116 -0.4381,0.16801 -0.4924,1.0522 -0.09,1.45506 0.3573,0.35762 0.4697,0.35373 1.0005,-0.0344 0.3001,-0.21965 0.3496,-0.36827 0.1622,-0.48393 -0.1487,-0.0921 -0.2701,-0.37248 -0.2701,-0.62353 0,-0.3137 -0.08,-0.45259 -0.3098,-0.44422 z"
   fill="#ffffff"
   id="path369"
   style="stroke-width:0.32306" /></svg>
