<svg xml:space="preserve" version="1.1" id="svg39" viewBox="0 0 2351 400" xmlns="http://www.w3.org/2000/svg">
    <path d="M417.938 379.902c-3.028-.103-6.098-.256-9.028-1.077-.971-.301-1.842-.852-2.64-1.47-.231.95-1.399 1.54-2.261 1.002-1.26-.778-1.742-2.29-2.274-3.594-1.114-2.814-1.815-5.807-1.817-8.844-.025-3.581.227-7.159.326-10.736.495-12.778.914-25.563 1.345-38.351.218-5.591.454-11.203 1.423-16.723.33-2.286.76-4.564.984-6.862.273-7.033.301-14.07.386-21.106.093-12.393.202-24.786.06-37.176-.031-2.005-.064-4.017-.336-6.003-5.802.23-11.609.34-17.412.5-2.17-1.064-4.409-2.035-6.328-3.529a53.709 53.709 0 0 1-10.084-9.818c-1.947-2.43-3.325-5.244-4.82-7.961-1.31-2.504-2.677-4.98-4.032-7.46a82.527 82.527 0 0 1-4.305-10.975c-.675-2.54-1.595-5.007-2.592-7.435-.732-2.07-1.361-4.209-1.407-6.42-.619-10.381-.635-20.787-1.031-31.179-.124-2.944-.18-5.947-.574-8.891a201.635 201.635 0 0 1-.928-16.785c-.056-6.736 1.584-13.34 3.493-19.753 1.176-3.755 2.496-7.594 5.027-10.672 1.564-1.785 3.518-3.344 5.818-4.036 2.835-.82 5.801.079 8.442 1.141 2.187.867 4.177 2.402 5.203 4.56 1.134 2.335 1.555 4.943 1.856 7.5.392 4.42-.359 8.83-.99 13.19-.46 3.012-1.017 6.054-1.378 9.03a51.947 51.947 0 0 0-.272 3.21 106.039 106.039 0 0 0-.114 4.74c-.074 9.189.124 18.363.807 27.498.262 3.053.479 6.195 1.34 9.187a57.387 57.387 0 0 0 1.076 3.53c2.075 6.088 4.728 11.965 7.61 17.71 1.702 3.235 3.499 6.489 6.018 9.169.41.439 1.031.949 1.417 1.22a27.727 27.727 0 0 0 4.539 2.472c.582.252 1.364.566 2.057.75.59.148 1.192.232 1.788.35-.542-3.924-.36-7.895-.107-11.836.316-5.384.468-10.785 1.17-16.138.689-5.406 1.51-10.81 2.917-16.08.528-2.141 1.613-4.093 2.931-5.846 2.043-2.713 4.45-5.216 7.324-7.056 1.605-.984 3.499-1.564 5.389-1.518 2.413.113 4.338 1.8 5.982 3.408 1.934 1.857 3.772 3.94 4.671 6.51 1.292 3.564 1.5 7.395 1.712 11.145.339 7.96.14 15.93 0 23.892-.24 11.926-.647 23.848-.895 35.777-.064 3.699-.06 7.43.118 11.078.247 4.93.794 9.798 1.32 14.716.26 2.162.413 4.353.887 6.519.2 1.009 1.143 1.795 2.177 1.786 2.242.104 4.487.199 6.715.491 3.307.29 6.57-.95 9.197-2.902 2.046-1.372 3.56-3.377 4.705-5.533a34.494 34.494 0 0 0 4.153-12.05 49.43 49.43 0 0 0 .454-4.254c.417-6.466-.113-12.884-.594-19.337-.654-10.177-.598-20.382-.57-30.574.07-2.288-.074-4.631.57-6.851.852-2.519 2.141-5.057 4.419-6.569 2.905-1.951 6.498-3.061 10.006-2.61 2.05.281 3.864 1.434 5.43 2.73 2.463 2.214 4.15 5.112 5.879 7.897 1.285 2.121 2.428 4.403 2.686 6.903.35 3.181.743 6.362 1.424 9.492 1.128 4.491 1.452 9.133 1.504 13.75.03 1.465.138 2.948.247 4.456.262 2.93.479 5.867.4 8.81a126.224 126.224 0 0 1-2.312 21.634c-.826 4.293-2.282 8.425-3.497 12.615-1.785 5.812-3.408 11.677-5.504 17.385-1.03 2.72-2.31 5.51-4.673 7.334-1.818 1.39-3.76 2.612-5.653 3.904-2.352 1.324-4.936 2.176-7.478 3.063-3.202 1.065-6.451 2.043-9.81 2.455-3.544.565-7.175.512-10.672 1.356-1.592.567-3.265.829-4.914 1.165-3.032.815-5.215 3.445-6.346 6.272-.482 1.163-.742 2.265-1.108 3.482-1.157 4.085-2.021 8.409-2.33 12.702-.558 7.516.005 15.052.507 22.553.544 7.978 1.167 15.955 1.349 23.952.124 3.707-.495 7.484-2.179 10.816-1.881 3.792-5.054 6.985-8.943 8.702-1.605.619-3.373.495-5.058.507z" id="path35"/>
    <path d="M367.454 83.12c-3.138-.113-6.043 1.554-8.21 3.706-2.986 2.952-4.56 6.967-5.835 10.889-2.007 6.465-3.734 13.112-3.916 19.918-.02 6.098.351 12.192.923 18.262a63.27 63.27 0 0 1 .383 4.394c.508 10.614.533 21.274 1.02 31.905.169 2.269.078 4.575.59 6.805.633 3.101 2.124 5.921 3.036 8.937a82.748 82.748 0 0 0 3.802 10.656c.927 2.261 2.162 4.37 3.326 6.51 1.914 3.47 3.618 7.069 5.838 10.361a53.731 53.731 0 0 0 10.635 10.866c2.214 1.824 4.842 3.016 7.406 4.254 5.556-.148 11.112-.268 16.665-.474.093.924.139 1.85.167 2.778.174 9.439.116 18.88.064 28.317-.082 9.965-.099 19.93-.39 29.892.013 2.727-.534 5.407-.928 8.095-.908 5.091-1.254 10.261-1.463 15.423-.468 12.62-.841 25.247-1.334 37.856-.128 4.075-.355 8.106-.425 12.184a25.033 25.033 0 0 0 1.43 9.263c.711 1.768 1.202 3.788 2.73 5.055.98.945 2.644.91 3.609-.04a8.99 8.99 0 0 0 1.547.797c3.159 1.027 6.52 1.16 9.812 1.285 1.696-.006 3.439.085 5.075-.443 3.148-1.232 5.863-3.46 7.905-6.134 2.878-3.73 4.267-8.454 4.327-13.133-.079-7.115-.592-14.214-1.075-21.31-.495-7.599-1.18-15.119-.986-22.731.041-1.527.134-3.171.253-4.588.42-4.71 1.473-9.342 2.868-13.854.852-2.828 2.682-5.625 5.56-6.682 1.535-.433 3.14-.594 4.664-1.08.821-.296 1.789-.469 2.58-.597 2.23-.346 4.486-.46 6.727-.712a47.965 47.965 0 0 0 9.964-2.108c3.193-1.044 6.426-2.063 9.401-3.647a115.729 115.729 0 0 0 5.45-3.685c2.487-1.68 4.073-4.34 5.164-7.076 2.125-5.42 3.679-11.037 5.385-16.597 1.244-4.31 2.704-8.551 3.746-12.92 1.647-7.61 2.517-15.38 2.717-23.162.178-4.139-.355-8.252-.577-12.378-.11-3.431-.145-6.876-.62-10.284-.27-2.394-.913-4.714-1.35-7.077a99.914 99.914 0 0 1-.94-6.709c-.166-2.529-1.089-4.94-2.353-7.117-1.69-2.804-3.346-5.675-5.595-8.08-1.692-1.767-3.796-3.236-6.18-3.869-3.745-.813-7.706.198-10.945 2.146-2.426 1.343-4.087 3.721-5.088 6.257-1.15 2.506-1.083 5.314-1.118 8.01-.041 11.085-.124 22.186.716 33.246.433 5.915.836 11.817.4 17.694-.29 4.246-1.18 8.473-2.95 12.358-1.172 2.47-2.403 5.007-4.408 6.921-2.54 2.296-5.845 3.992-9.34 3.9-2.017-.195-4.035-.393-6.065-.465-.757-.11-1.774.178-2.255-.604-.315-.76-.359-1.613-.507-2.422-.557-4.53-1.026-9.125-1.446-13.637a138.102 138.102 0 0 1-.527-13.593c.165-10.938.551-21.872.803-32.808.182-9.273.474-18.55.196-27.824-.171-4.017-.305-8.095-1.407-11.986-.635-2.453-1.958-4.675-3.666-6.53-1.692-1.763-3.392-3.624-5.605-4.738-2.3-1.197-5.071-.821-7.371.169-2.315 1.048-4.258 2.754-6.047 4.526-2.4 2.53-4.687 5.323-5.834 8.66-1.333 4.502-2.121 9.144-2.8 13.782a140.857 140.857 0 0 0-1.378 14.505c-.206 5.267-.833 10.546-.344 15.815-.516-.1-1.032-.301-1.53-.495-2.017-.852-4.036-1.822-5.724-3.24-2.696-2.623-4.5-5.986-6.255-9.273-3.202-6.42-6.185-12.984-8.29-19.854-.975-3.02-1.34-6.185-1.582-9.337-.612-7.627-.85-15.2-.887-22.854 0-3.46-.037-6.96.132-10.373.06-.95.139-2.014.248-2.888.287-2.358.701-4.776 1.083-7.165.697-4.725 1.597-9.472 1.362-14.268-.198-2.694-.62-5.411-1.605-7.939-.892-2.448-2.804-4.437-5.125-5.582-2.331-1.083-4.836-1.966-7.43-2.034zm-.07 2.219c1.3.018 2.733.336 4.435.942 4.735 1.678 6.313 3.827 7.3 9.928.639 3.969.375 7.637-1.27 17.665-1.227 7.472-1.295 8.452-1.29 18.609 0 10.554.564 22.307 1.36 28.38.665 5.09 3.751 13.5 8.663 23.601 3.033 6.243 5.944 10.563 8.345 12.395 2.022 1.543 6.045 3.48 7.867 3.79.874.148 1.879.346 2.228.44.559.148.592-.182.268-2.765-.202-1.616-.258-4.848-.124-7.186.134-2.335.406-7.344.605-11.126.474-9.112 2.78-22.796 4.429-26.287 1.978-4.19 7.352-9.638 10.593-10.733 3.448-1.168 5.187-.623 8.5 2.663 6.744 6.692 6.872 8.347 5.236 67.329-.479 17.292-.376 20.238 1.232 34.986.728 6.684.874 7.357 1.805 8.287.852.854 1.427 1.026 3.63 1.081 1.443.038 3.49.186 4.552.33 3.338.46 6.636-.33 9.723-2.327 3.239-2.096 4.654-3.775 6.9-8.194 3.906-7.683 4.797-15.89 3.487-32.142-.512-6.374-.743-13.47-.763-23.667-.027-14.342-.015-14.598.911-16.896 1.255-3.1 2.548-4.555 5.288-5.937 3.272-1.65 7.11-2.014 9.428-.887 2.998 1.456 4.636 3.167 7.71 8.058 4.86 7.732 2.52 6.39 4.965 17.915 1.085 4.357 1.341 8.745 1.4 13.018-.001 1.17.207 4.452.465 7.295.776 8.565-.875 24.44-3.418 32.855-.539 1.78-2.02 6.697-3.29 10.924-5.13 17.065-5.874 18.629-10.29 21.59a458.745 458.745 0 0 0-3.743 2.537c-1.67 1.151-8.27 3.544-13.169 4.778-1.82.458-5.55.996-8.293 1.196-2.744.203-5.715.63-6.602.953a22.714 22.714 0 0 1-3.643.881c-4.013.586-7.233 3.821-8.712 8.748-3.369 11.218-3.837 18.278-2.476 37.19 1.088 15.086 1.51 23.46 1.347 26.7-.34 6.873-3.884 12.69-9.572 15.725-1.345.72-2.24.852-5.459.805-2.118-.029-5.07-.274-6.564-.545-2.791-.505-3.134-.676-5.948-2.972-.91-.743-1.654-1.27-1.654-1.174 0 .099.206.767.46 1.49.34.983.55 1.175.829.769.276-.407.342-.337.248.262-.248 1.551-1.317.835-2.243-1.502-1.807-4.551-2.2-6.936-2.005-12.186.099-2.707.38-10.2.625-16.653a4516.606 4516.606 0 0 0 .868-25.284c.312-10.014.642-14.924 1.259-18.81a552.27 552.27 0 0 0 1.231-8.092c.45-3.218.795-57.146.405-62.703-.231-3.324-.326-3.631-1.065-3.56-.445.048-4.553.18-9.129.298l-8.32.212-2.805-1.367c-4.17-2.036-10.846-8.259-14.252-13.286-.635-.943-2.259-3.808-3.604-6.367-1.343-2.558-2.822-5.29-3.284-6.069-1.341-2.265-4.048-9.036-4.97-12.44a50.742 50.742 0 0 0-1.997-5.78c-.633-1.455-1.357-3.821-1.61-5.26-.25-1.435-.628-10.438-.835-20.006-.206-9.569-.54-18.67-.74-20.228-.722-5.622-1.327-17.474-1.08-21.134.327-4.761 1.086-8.751 2.877-15.084 2.042-7.21 3.987-11.095 6.731-13.439 2.055-1.756 3.85-2.57 6.016-2.544zm-.937 9.174a1.09 1.09 0 0 0-1.1 1.064 2.022 2.022 0 0 0 .49 1.232c.385.386.61.262 1.048-.572.38-.722.425-1.192.144-1.475a.846.846 0 0 0-.584-.251zm.982 10.461c-.206 0-.796.34-1.314.764-.84.678-.887.879-.445 1.85.592 1.296 1.295 1.176 2.036-.34.546-1.118.406-2.27-.277-2.27zm-8.574 11.768c-.177.012-.418.13-.746.336-.698.44-.291 1.653.553 1.653.39 0 .618-.372.618-1.011 0-.69-.109-.995-.425-.976zm9.8 8.863c-.832 0-1.459 1.008-1.046 1.677.425.687 1.578.169 1.712-.772.093-.674-.074-.906-.666-.906zm-10.163 4.532a.724.724 0 0 0-.499.231c-.27.272-.252.701.07 1.296.516.965.904.829 1.09-.386.098-.66-.244-1.141-.659-1.143zm10.918 9.71c-.634-.01-1.316 1.028-1.036 1.917.367 1.15 1.585.92 1.762-.33.074-.526-.062-1.153-.307-1.397a.584.584 0 0 0-.42-.185zm-6.602 2.367c-.206 0-.487.078-.866.223-.751.29-.84 1.413-.163 2.092.66.66 1.547-.13 1.547-1.376 0-.652-.124-.937-.516-.94zm61.833 12.923c-1.135 0-1.312.37-.549 1.136.621.623 1.292.413 1.46-.464.094-.489-.158-.674-.91-.674zm-53.832 2.428c-.86 0-1.011.185-1.011 1.256 0 .95.148 1.2.606 1.025.336-.13.62-.01.636.26.04.687.718-.963.75-1.832.021-.495-.276-.707-.98-.707zm-10.57 2.83c-1.064.033-1.332 1.085-.474 1.942.654.653.999.612 1.294-.153.478-1.254.251-1.787-.766-1.787zm54.708 3.033c-1.535 0-2.18 1.005-1.548 2.397.576 1.263 1.905 1.374 2.528.213.247-.454.385-1.23.315-1.719-.099-.68-.4-.887-1.295-.887zm12.283 3.439c-1.02 0-1.46 1.021-.792 1.828.641.773 1.06.763 1.368-.037.45-1.176.251-1.79-.578-1.79zm-51.78 6.878c-.794.041-1.438 1.316-1.002 2.02.33.538.744.515 1.337-.079.769-.77.59-1.94-.295-1.94zm98.01 1.215c-.988 0-1.199.763-.425 1.537.8.798 1.457.55 1.395-.526-.046-.763-.283-1.01-.97-1.01zm-55.868.809a.825.825 0 0 0-.677.42c-.322.523.575 1.674 1.069 1.37.198-.123.36-.575.36-1.006 0-.506-.367-.797-.75-.784zm-54.637.406c-.97 0-1.653.574-1.653 1.39 0 1.52.627 1.833 1.46.733.62-.817.74-2.125.193-2.125zm119.74 2.022c-1.131 0-1.321.55-.529 1.527.375.466.71.812.736.773.03-.041.174-.575.316-1.188.223-.926.134-1.112-.526-1.112zm-54.49 2.428c-.707.029-1.14.974-.818 1.814.35.907 1.473.262 1.473-.846 0-.599-.238-.97-.62-.97zm44.696 2.447a1.052 1.052 0 0 0-1.038.644c-.35.916.98 1.898 1.682 1.244.276-.256.412-.793.315-1.189-.12-.454-.53-.689-.957-.701zm-61.43 3.342a1.53 1.53 0 0 0-.578.12c-.846.326-.817 1.233.056 1.722.872.49 1.324.233 1.324-.755 0-.697-.297-1.077-.804-1.087zm76.476 1.898c-.99 0-1.362.584-1.036 1.62.206.653.406.728 1.038.385.43-.23.784-.776.784-1.213 0-.518-.279-.794-.786-.794zm-114.838.413a1.75 1.75 0 0 0-1.108.416c-.813.675-.73 1.455.256 2.443.808.809.872.813 1.638.124a2.093 2.093 0 0 0 .674-1.754c-.088-.767-.742-1.23-1.46-1.225zm51.693.8c-1.13 0-1.517 1.197-.598 1.867.928.68 1.42.38 1.42-.879 0-.722-.218-.988-.822-.988zm53.585 2.022c-.593.027-.795.866-.306 1.349.512.514.945.268.945-.538 0-.45-.272-.81-.608-.81zm-97.653 2.832c-1.046 0-1.492 1.013-.807 1.838.71.857 1.376.526 1.527-.757.103-.868-.035-1.08-.72-1.08zm89.823 2.428c-.46 0-.84.242-.84.539 0 1.238 1.31 1.353 1.548.134.089-.454-.144-.675-.708-.675zM367.4 198.02c-.924 0-.949.048-.585.997.305.804 1.114.602 1.293-.322.089-.454-.144-.675-.708-.675zm45.861 2.429c-1.054 0-1.297.742-.501 1.537.631.633.928.612 1.522-.104.652-.786.192-1.431-1.02-1.431zm74.45 0c-1.079 0-1.458.699-.934 1.718.45.87.901.893 1.706.089.819-.817.396-1.807-.772-1.807zm-98.533 1.27c-.34 0-.681.093-.887.302-.306.305-.21.676.33 1.279.728.8.794.806 1.291.128.293-.396.46-.908.386-1.141-.118-.361-.625-.563-1.122-.565zm89.066.751c-.46 0-.84.244-.84.54 0 1.239 1.31 1.354 1.548.133.089-.454-.145-.675-.708-.675zm-51.592 2.472a2.527 2.527 0 0 0-.315.03c-1.125.158-1.376 1.228-.498 2.105.871.873 1.403.485 1.403-1.017 0-.868-.099-1.124-.59-1.118zm-29.734.503a1.013 1.013 0 0 0-.61.252c-.48.396-.52.654-.172 1.075.605.73 1.137.7 1.438-.079.27-.705-.124-1.258-.658-1.246zm8.234 2.872c-.108 0-.295.078-.595.241-.967.518-1.361 1.36-1.035 2.208.371.965 1.03.705 1.293-.506a23.91 23.91 0 0 1 .407-1.627c.062-.213.053-.316-.07-.316zm-28.324 1.436c-.78.012-.96.219-.96 1.04 0 .845.166 1.015.907.91a1.15 1.15 0 0 0 1.042-1.04c.103-.741-.062-.908-.91-.908zm94.817 1.273c-.743.009-1.015.716-.432 1.301.47.47 1.537.085 1.537-.557 0-.33-.41-.66-.907-.732a1.308 1.308 0 0 0-.198-.012zm-81.822 1.155c-.619 0-.829.856-.33 1.353.27.273.918-.46.93-1.052.005-.167-.267-.301-.6-.301zm98.961 1.211c-.986 0-1.355.51-1.015 1.4.361.937 1.543.593 1.698-.494.099-.681-.074-.906-.683-.906zm-71.087 1.62c-.69.012-.972.233-.972.742 0 1.568 1.729 1.712 1.95.163.103-.738-.062-.908-.91-.908zm61.327 2.021c-.788 0-1.145 1.15-.545 1.752.366.365 1.354-.508 1.354-1.195 0-.305-.365-.557-.809-.557zm-79.544 1.26c-.429.01-.557.238-.557.857 0 1.44.867 2.145 1.527 1.244.285-.396.468-.99.402-1.329-.062-.336-.524-.672-1.023-.742a2.22 2.22 0 0 0-.35-.03zm-10.612 2.36c-.237 0-.485.14-.676.444-.39.632.1 1.6.808 1.6.392 0 .62-.372.62-1.012 0-.641-.36-1.031-.754-1.031zm97.364 1.65c-.532-.01-1.139.205-1.3.624-.132.351.073 1.05.452 1.556l.696.922.515-.996c.283-.55.516-1.249.516-1.556 0-.365-.408-.545-.88-.55zm-61.552.597a.594.594 0 0 0-.42.194c-.42.42-.05 1.63.498 1.63.207 0 .49-.31.634-.677.223-.587-.237-1.155-.712-1.144zm49.083 1.82c-.78 0-1.095.792-.538 1.35.557.556 1.347.236 1.347-.541 0-.539-.27-.809-.809-.809zm-60.275.809c-.516 0-.81.272-.81.742 0 1.308.948 1.75 1.373.64.411-1.069.283-1.382-.563-1.382zm57.983 5.663c-.297 0-.538.365-.538.81 0 .919 1.015 1.1 1.345.242.252-.662-.048-1.052-.807-1.052zm-47.125 1.58c-.528-.002-1.129.316-1.287.928-.128.49-.031 1.13.212 1.426.365.44.578.415 1.197-.145.412-.373.75-1.015.75-1.423 0-.53-.41-.784-.874-.786zm62.726 2.467c-.858.023-1.017.8-.297 1.52.608.607 1.149.263 1.149-.736 0-.515-.277-.784-.809-.784h-.041zm-4.906 1.356a1.275 1.275 0 0 0-.444.088c-.794.306-.872 1.026-.183 1.713.633.633 1.293.406 1.469-.506.148-.767-.238-1.3-.838-1.3zm-66.507 1.943c-.582.013-.787.782-.277 1.294.425.425 1.137.062 1.137-.578 0-.31-.32-.627-.708-.701a.739.739 0 0 0-.159-.017zm54.513 6.802a.897.897 0 0 0-.584.276c-.308.306.458 1.352.99 1.352.196 0 .355-.366.355-.81 0-.521-.357-.837-.761-.82zm-41.931 1.63c-1.193 0-1.715.959-.995 1.825.605.729.898.751 1.533.12.875-.877.582-1.943-.536-1.943zm55.282 1.617c-.986 0-1.353.51-1.012 1.4.36.935 1.543.593 1.697-.494.1-.681-.074-.906-.682-.906zm-65.18 1.617c-.894 0-1.071.793-.343 1.523.609.606 1.15.26 1.15-.737 0-.515-.277-.783-.81-.783zm47.548 4.091a2.492 2.492 0 0 0-.316.03c-1.124.162-1.376 1.227-.499 2.106.87.87 1.405.484 1.405-1.017 0-.871-.1-1.127-.592-1.119zm-55.178.135c-.24 0-.458.06-.594.191-.643.644.495 1.783 1.197 1.199.307-.252.553-.598.553-.77 0-.365-.625-.629-1.156-.623zm19.36 3.461c-.786 0-1.143 1.15-.543 1.75.365.365 1.354-.508 1.354-1.193 0-.307-.366-.557-.81-.557zm46.533 2.83c-.914 0-1.244.762-.75 1.72.488.948 1.435.897 1.749-.1.326-1.025-.042-1.62-1-1.62zm-56.217 1.216c-.932 0-1.397.617-1.083 1.434.276.716.736.749 1.382.103.737-.737.582-1.537-.301-1.537zm32.72.404c-.496 0-.785.277-.785.743 0 1.347 1.323 1.822 1.777.637.33-.862-.04-1.38-.99-1.38zm-13.144.809c-.71 0-1.118.701-.838 1.436.277.72 1.333.773 1.572.078.258-.743-.117-1.516-.734-1.516zm18.934 1.003a.303.303 0 0 0-.159.04c-.515.32-.02.979.733.979.516 0 .54-.114.134-.603-.213-.258-.5-.42-.71-.414zm-46.378 1.66c-.114.004-.256.124-.475.34-.322.322-.577.867-.577 1.216 0 .701 1.02.866 1.417.227.138-.223.138-.772-.004-1.217-.124-.395-.213-.574-.361-.568zm54.379.242a.675.675 0 0 0-.47.222c-.496.496-.207 1.727.406 1.727.206 0 .489-.301.631-.674.256-.675-.103-1.277-.563-1.275zm-22.75 5.607c-.212 0-.505.078-.897.227-.75.289-.841 1.413-.167 2.086.557.557 1.517-.458 1.537-1.624.01-.468-.117-.687-.474-.69zm-18.02.386a.924.924 0 0 0-.64.268c-.362.365.543 1.394.991 1.12.196-.124.359-.485.359-.804 0-.372-.336-.59-.708-.584zm7.584 1.62c-.91 0-1.106 1.16-.326 1.938.563.564 1.118-.043 1.129-1.231.004-.44-.302-.708-.803-.708zm40.889 0c-.46 0-.84.243-.84.54 0 1.237 1.31 1.353 1.548.132.088-.454-.145-.675-.71-.675zm-17.88.276c-.433.022-.85.52-.627 1.1.28.727.907.85 1.283.247.138-.223.099-.669-.085-.995-.148-.262-.36-.365-.571-.35zm-44.93 1.58a.582.582 0 0 0-.186.045c-.578.223-.726 1.02-.275 1.47.396.395.432.36.632-.702.109-.57.062-.82-.167-.811zm51.404.396a1.646 1.646 0 0 0-.355.058c-.906.237-1.048.928-.343 1.638.642.641 1.15.243 1.15-.9 0-.586-.104-.808-.454-.798zm-45.183 1.799a.483.483 0 0 0-.346.13c-.13.128-.13.516.004.86.31.807 1.48.81 1.48.004 0-.505-.657-.998-1.14-.994zm28.602 3.233c-.879 0-1.038 1.184-.268 1.955.402.396.602.368.986-.163.266-.365.384-.916.266-1.227-.12-.312-.561-.567-.984-.567zm-12.093 3.639c-.78 0-1.094.792-.539 1.349.557.557 1.35.241 1.35-.538 0-.54-.273-.811-.81-.811zm-22.87 2.255c-.116.01-.21.206-.312.614-.134.502-.149 1.063-.033 1.247.365.59.967.356.961-.372a2.785 2.785 0 0 0-.344-1.248c-.104-.163-.194-.247-.269-.241zm12.243.99a.695.695 0 0 0-.7.734c0 .41.124.867.283 1.022.413.412 1.48-.805 1.16-1.32a.86.86 0 0 0-.739-.434zm-6.54 6.061c-.796 0-1.138.656-.84 1.599.341 1.073 1.422.594 1.422-.631 0-.574-.237-.97-.584-.97zm11.636 4.623a.856.856 0 0 0-.306.074c-.746.29-.872 1.519-.127 1.271.276-.093.563-.47.635-.841.064-.337.004-.5-.198-.5zm-16.674 1.444c-.583 0-.854.256-.854.81 0 .449.273.808.607.808.336 0 .606-.074.606-.17 0-.092.11-.457.248-.808.177-.46.004-.64-.607-.64zm10.763 1.61c-.489-.004-1.031.526-.833 1.035.227.592.31.594.879.025.344-.347.511-.747.365-.891a.578.578 0 0 0-.41-.17zm-8.289 7.75c-.344.004-.495.242-.495.753 0 .609.212.83.708.733.39-.075.707-.405.707-.733 0-.326-.322-.656-.707-.732a1.069 1.069 0 0 0-.213-.02zm10.866 2.197c-.312 0-.44.172-.44.551 0 1.275.954 1.692 1.372.603.337-.877.345-.859-.565-1.096a1.527 1.527 0 0 0-.371-.06zm-17.433 3.508a.64.64 0 0 0-.451.198c-.547.546.006 1.72.689 1.458.315-.124.573-.464.573-.76 0-.525-.41-.9-.813-.894zm14.739 2.33a.609.609 0 0 0-.578.607.607.607 0 1 0 .609-.606zm-7.43 2.831c-.932 0-1.398.62-1.084 1.436.3.784 1.316.749 1.623-.056.413-1.062.283-1.382-.538-1.382zm7.94 5.694a1.446 1.446 0 0 0-.455.105.646.646 0 0 0-.381.86c.307.799.92.799 1.227-.001.237-.621.07-.982-.392-.964zm-14.638 2.802c-.627 0-.804.478-.35.934.32.32.955-.043.955-.553 0-.208-.273-.381-.607-.381zm9.25.433c-1.06.004-1.365.3-1.089 1.023.283.739 1.345.735 1.345-.006 0-.318.227-.666.506-.778.276-.113.035-.216-.539-.237a7.765 7.765 0 0 0-.222-.004zm8.145 4.421c-.61 0-.833.856-.35 1.339.38.375.955-.078.955-.755a.596.596 0 0 0-.607-.584zm-19.014 6.878c-1.102 0-.718 1.199.507 1.587.054.018.1-.33.1-.778 0-.45-.273-.809-.607-.809zm19.644 0c-.51 0-.875.631-.551.955.454.454.932.277.932-.346 0-.337-.173-.607-.381-.607zm-10.745.809c-.63 0-.802.478-.336.945.464.464.945.297.945-.337a.607.607 0 0 0-.606-.606zm3.846 9.708a.413.413 0 0 0-.404.407c0 .223.078.404.177.404.099 0 .29-.181.431-.404.136-.223.058-.407-.18-.407h-.02zm5.459 0c-1.129 0-1.189.124-.599 1.226.5.936 1.61.619 1.61-.458 0-.549-.29-.768-1.011-.768zm-19.013.407c-.609 0-.831.854-.35 1.337.375.375.954-.079.954-.753a.596.596 0 0 0-.606-.584zm6.682 5.756c-.73-.01-.978.901-.153 1.726.663.665.716.652 1.042-.227.231-.629.178-1.027-.18-1.252a1.384 1.384 0 0 0-.713-.247zm-6.682.711a.608.608 0 1 0 0 1.215.608.608 0 0 0 0-1.215zm17.758 5.682c-.532.01-.66.365-.385 1.077.262.68.317.676.878-.083.535-.722.529-.825-.057-.949a1.985 1.985 0 0 0-.436-.047zm-17.486.44c-.69.02-.598 1.045.233 1.53.945.55.927.565.768-.474-.074-.5-.44-.968-.807-1.04a.866.866 0 0 0-.194-.019zm10.427 6.824c-.512.018-.788.276-.788.74 0 1.537 1.322 1.655 1.547.139.097-.66-.08-.88-.71-.88z" fill="#fff" id="path37"/>
</svg>
