<svg viewBox="0 0 2207 400" xml:space="preserve" xmlns="http://www.w3.org/2000/svg">
    <path d="M1129.124 290.742c-1.69-.234-3.404-.645-4.902-1.478-1.343-.793-1.984-2.324-2.088-3.823-.202-2.714.123-5.432.156-8.146.504-17.978.466-35.979 1.403-53.929.242-6.33.374-12.691-.237-19.005-.127-1.21-.383-2.4-.678-3.58-5.035-3.1-10.817-4.878-15.548-8.486-2.166-1.718-3.5-4.356-4.27-6.89-1.81-5.42-3.008-11.026-4.046-16.639a83.02 83.02 0 0 1-.779-5.308c-.038-.486-.13-1.276-.164-1.883-.242-3.725.492-7.42.848-11.114.937-7.717 2.073-15.414 3.603-23.037 1-5.428 1.777-10.902 2.488-16.363.477-3.128.994-6.322 2.365-9.203.861-1.803 2.406-3.315 4.365-3.85 2.567-.825 5.548-.081 7.383 1.91 2.765 2.814 3.82 6.786 4.497 10.56.602 3.559.71 7.184.535 10.782a86.152 86.152 0 0 1-.215 2.979c-.432 5.886-2.145 11.587-2.61 17.468-.548 5.466-.712 10.96-1.168 16.387-.267 3.262-.246 6.576.517 9.774.621 2.838 1.443 5.664 2.709 8.284.567 1.223 2.302 1.44 3.263.568.697-.848 2.016-.799 2.607-1.776 2.41-3.199 3.237-7.25 3.624-11.158.663-7.308.954-14.66.589-21.995-.26-6.086-.889-12.144-1.475-18.204-.957-11.017-1.17-22.217-1.796-33.318-.144-2.114-.025-4.302.142-6.325.487-5.415 1.076-10.987 2.132-16.39.766-4.068 2.186-8.282 5.337-11.132 2.78-2.57 6.91-3.2 10.495-2.265 2.504.515 5.163 1.563 6.518 3.878 1.44 2.19 2.18 4.77 2.57 7.334.39.823 1.408 1.044 2.203.708 1.28-.044 2.505.447 3.757.656-.465-1.971-1.373-3.916-1.203-5.98.283-1.791 1.873-2.934 3.063-4.154 1.132-1.24 2.797-1.995 4.49-1.863 1.569-.112 3.319.342 4.225 1.728 1.472 1.984 1.852 4.51 2.279 6.879.079.757.142 1.516.216 2.272 2.67-.397 5.598-1.107 8.137.191 2.549 1.455 3.683 4.537 3.713 7.346.01 2.49-1.129 4.874-2.87 6.622-.665.465-.421.814.224 1.11 1.477.993 3.035 2.129 3.755 3.814.64 1.96.349 4.071.088 6.074-.297 1.766-.973 3.848-2.83 4.506-1.13.39-2.33.693-3.524.735-1.776-.221-3.326-1.225-4.883-2.037-.836-.493-1.605-1.093-2.41-1.64-1.266 2.818-2.264 6.017-4.819 7.97-2.08 1.488-4.948 1.85-7.334.941-1.59-.77-2.825-2.228-3.49-3.848-.22-.765-.31-1.561-.475-2.337-1.083.352-2.153.939-3.33.71-.707-.196-.976.06-.799.774.148 3.267-.613 6.477-.909 9.715-.72 5.835-1.234 11.67-2.048 17.476-.474 3.308-.46 6.659-.642 9.99-.41 10.893-.737 21.793-.73 32.694.072 5.24.119 10.513.961 15.698.437 1.999.898 4.203 2.487 5.631.535.451 1.126.833 1.684 1.254 1.334-2.141 2.447-4.427 3.123-6.863 1.887-6.795 2.741-13.827 3.363-20.836.509-5.21.481-10.459 1.056-15.661.546-3.668 2.662-7.304 6.094-8.932 2.385-1.156 5.583-1.004 7.465 1.02 1.72 1.94 2.458 4.534 2.977 7.023 1.035 5.236 1.1 10.717 1.084 16.103.05 2.882-.2 5.77-.875 8.577a415.509 415.509 0 0 1-3.18 12.756c-.621 2.166-1.275 4.392-2.702 6.184-3.524 4.55-6.84 9.306-10.978 13.335-6.122 5.476-11.102 12.06-16.921 17.834-1.62 1.828-1.62 4.413-1.811 6.71-.391 6.514-.242 13.043-.278 19.565.037 11.773.02 23.548.38 35.314.087 1.605.637 3.45-.478 4.834-1.78 2.406-4.794 3.39-7.6 4.005-1.928.272-3.904.198-5.802.692-.684.098-1.383.156-2.073.078z"/>
    <path d="M1145 52.39c-2.522.055-5.027.82-7.053 2.351-3.364 2.532-5.171 6.58-6.149 10.57-1.038 4.55-1.613 9.192-2.131 13.83-.34 3.72-.84 7.46-.588 11.2.722 12.71.876 25.46 2.265 38.13.558 5.736 1.026 11.58 1.139 17.35.045 2.229.037 4.458-.025 6.686-.163 4.112-.368 8.215-.801 12.23-.433 3.25-1.16 6.635-3.192 9.293-.316.674-1.102.623-1.638 1.02-.5.164-.742.816-1.275.842-.69.151-.829-.62-1.087-1.073a40.84 40.84 0 0 1-2.584-9.087c-.656-3.918-.038-7.918.169-11.81.306-4.432.47-8.748.97-13.14.454-4.88 1.8-9.62 2.306-14.49.741-6.579.806-13.36-.974-19.79-.935-3.318-2.547-6.682-5.441-8.712-2.533-1.766-6.001-1.908-8.726-.506-2.236 1.061-3.63 3.265-4.459 5.518-1.613 4.559-1.955 9.426-2.65 14.18-.17 1.252-.397 2.686-.579 3.911-.443 2.693-.887 5.386-1.408 8.066-1.432 7.189-2.436 14.45-3.328 21.72-.343 3.33-.914 6.65-.878 10.01.205 3.931.905 7.823 1.654 11.68 1.034 4.84 2.098 9.692 3.78 14.35.856 2.615 2.368 5.04 4.542 6.757 4.588 3.478 10.16 5.252 15.07 8.188.527 2.007.66 4.086.775 6.105.291 5.486.17 11.01-.064 16.45-.851 16.24-.862 32.51-1.257 48.76-.072 2.508-.098 4.912-.233 7.388-.046 2.3-.353 4.675.302 6.92.493 1.788 1.957 3.157 3.679 3.764 1.53.554 3.132 1.001 4.761 1.088.76.014 1.518-.065 2.263-.2 2.16-.584 4.455-.229 6.6-.907 2.92-.745 5.988-2.086 7.606-4.768 1.029-1.672.482-3.68.376-5.504-.335-12.48-.333-24.98-.36-37.46.048-5.95-.092-11.91.338-17.85.186-1.742.218-3.728 1.492-5.079 5.335-5.259 9.909-11.24 15.37-16.38 3.863-3.393 6.97-7.514 10.08-11.58 1.495-2.06 3.313-3.95 4.24-6.36 1.299-3.442 2.016-7.063 2.961-10.61.962-4.083 2.194-8.16 2.246-12.39.085-4.96.051-9.937-.49-14.87-.471-3.478-1.056-7.087-2.94-10.12-1.134-1.832-3.074-3.152-5.24-3.349-3.086-.407-6.173 1.057-8.188 3.357-2.138 2.322-3.319 5.404-3.56 8.53-.39 4.266-.437 8.554-.787 12.82-.418 5.463-1.044 11.06-2.087 16.52-.79 3.803-1.572 7.727-3.615 11.09-.55-.372-.979-.9-1.296-1.478-1.276-2.759-1.453-5.855-1.726-8.84-.315-4.678-.367-9.47-.342-14.24.11-10.11.387-20.23.793-30.32.189-2.988.145-6.007.688-8.96.781-6.064 1.35-12.18 2.106-18.21.26-2.608.84-5.2.757-7.83.59.04 1.182-.06 1.726-.292.087.659.315 1.293.62 1.882 1.038 1.76 2.554 3.423 4.571 4.014 2.394.648 5.072.347 7.236-.885 2.75-1.61 4.128-4.657 5.318-7.473.596.437 1.234.82 1.886 1.169 1.662.825 3.38 1.868 5.299 1.812 1.713-.313 3.574-.544 4.978-1.67 1.59-1.412 2.118-3.627 2.373-5.657.193-2.183.434-4.562-.627-6.572-.861-1.355-2.082-2.487-3.422-3.363 2.06-2.24 3.056-5.39 2.639-8.405-.383-2.8-1.761-5.7-4.33-7.098-2.315-1.236-5.074-.982-7.57-.561a18.287 18.287 0 0 0-.168-1.476c-.527-2.628-1.038-5.49-2.949-7.508-1.268-1.449-3.297-1.802-5.13-1.679-1.768-.079-3.466.68-4.744 1.87-1.326 1.33-2.909 2.557-3.62 4.356-.596 1.737-.072 3.609.412 5.31-.637-.154-1.302-.274-1.96-.199-.354-.02-.955.444-.842-.19-.542-3.076-1.616-6.17-3.675-8.571-1.986-2.1-4.917-2.917-7.681-3.396a13.58 13.58 0 0 0-2.51-.178zm.25 2.71c2.718 0 6.204 1.074 7.614 2.348 2.325 2.105 4.32 8.895 2.946 10.04-2.256 1.873-2.86 7.3-1.128 10.14 1.368 2.245 1.289 5.14-.185 6.732-2.495 2.693-2.906 8.35-.815 11.18 1.03 1.394 1.034 1.485.293 7.181a664.433 664.433 0 0 0-1.526 13.15c-.426 4.06-.88 7.69-1.008 8.07-.48 1.428-1.432 32.22-1.322 42.86.151 14.85 1.21 20.19 4.437 22.38 2.332 1.585 3.245 1.058 5.122-2.952 2.577-5.507 4.652-18.42 5.296-32.96.32-7.218.524-8.686 1.49-10.7 1.929-4.029 5.454-6.02 8.728-4.928 3.309 1.103 5.107 7.848 5.218 19.57.078 8.158.034 8.553-1.796 15.99-2.801 11.39-3.128 12.37-4.867 14.63l-5.122 6.668c-1.938 2.526-4.79 5.673-6.336 6.994-1.547 1.322-5.123 5.036-7.949 8.254-2.824 3.218-6.093 6.776-7.263 7.905-3.44 3.315-3.48 3.725-3.396 34.78.041 14.75.233 28.04.427 29.52.328 2.524.26 2.798-1.003 4.06-1.486 1.486-5.32 2.83-8.077 2.83-.968 0-2.422.182-3.231.405-.81.222-2.138.25-2.95.061-5.079-1.181-5.356-1.665-4.997-8.712.163-3.18.417-14.42.568-24.97.149-10.55.488-23.02.751-27.7.836-14.83.37-26.25-1.148-28.09-.322-.391-3.296-1.992-6.61-3.557-7.849-3.708-9.946-5.192-11.59-8.206-2.393-4.398-6.26-21.84-6.253-28.22.01-2.966 2.242-20.27 3.397-26.26 1.673-8.67 2.492-13.64 3.253-19.74 1.23-9.862 2.673-13.39 5.906-14.46 9.11-3.007 13.64 13.34 9.343 33.71-.798 3.787-1.416 8.905-1.725 14.27-.264 4.6-.62 9.917-.79 11.81-.17 1.894-.064 5.02.234 6.948.66 4.249 2.638 10.27 3.797 11.55 1.021 1.128 3.761 1.244 4.63.198.337-.406.907-.738 1.266-.738.934 0 3.012-2.892 3.914-5.447 1.352-3.818 1.679-6.052 2.191-15.04.528-9.227.182-17.83-1.275-31.68-.412-3.924-.968-12.78-1.233-19.68-.267-6.9-.602-14.03-.746-15.84-.274-3.455 1.267-17.3 2.55-22.92 1.723-7.536 5.46-11.43 10.97-11.43zm24.77.984c1.871 0 2.347.218 3.305 1.513 1.162 1.573 2.39 7.76 1.643 8.292-.217.155-.685 1.72-1.039 3.48-.352 1.759-.676 3.225-.72 3.257-.045.033-.889.202-1.874.38-1.714.31-1.873.217-3.574-2.1-2.053-2.797-3.481-5.896-3.956-8.585-.307-1.752-.18-2.03 1.848-4.06 1.924-1.923 2.436-2.177 4.367-2.177zm11.33 10.33c2.604 0 3.953.933 4.999 3.138 1.226 2.584 1.038 5.578-.492 7.788-1.113 1.603-1.556 1.866-3.079 1.835-.977-.021-2.553-.318-3.5-.66-1.033-.371-1.779-.997-1.864-1.56-.369-2.442-.663-3.11-1.482-3.37-.833-.265-.84-.455-.123-3.431.733-3.03.831-3.165 2.486-3.44 1.182-.195 2.187-.3 3.055-.3zm-21.2.99c1.194 0 3.876 1.339 3.876 1.936 0 .24.834 1.507 1.854 2.816l1.856 2.382-.869 1.722c-.478.947-.87 2.406-.87 3.243 0 1.88-1.375 2.591-4.185 2.17-3.065-.456-4.544-1.715-5.47-4.656-.507-1.599-.695-3.228-.501-4.267.393-2.1 3.011-5.347 4.31-5.347zm12.83 7.429c.638.01.95.282 1.483.94 1.508 1.862.37 4.878-2.454 6.511-1.419.822-1.53.82-2.608-.051-1.053-.852-1.096-1.102-.667-3.812l.46-2.9 2.163-.454c.739-.155 1.239-.24 1.623-.235zm3.917 5.446 1.808.755c.994.415 2.889.772 4.21.793 1.996.03 2.682.3 4.06 1.599 1.501 1.416 1.654 1.822 1.654 4.348 0 1.533-.317 3.548-.705 4.476-.683 1.636-.943 1.783-4.295 2.433-.448.09-2.108-.552-3.69-1.423-3.08-1.699-3.707-2.58-4.764-6.706-.652-2.551-.631-2.72.524-4.464zm-12.77 2.997c1.623-.025 2.92.084 3.1.373.148.24-.285 1.055-.962 1.812-.676.758-2.255 2.769-3.512 4.47-1.995 2.706-4.228 4.551-5.473 4.528-.216-.003-.946-.286-1.623-.626-.939-.473-1.266-1.072-1.386-2.537-.205-2.479 1.15-6.001 2.699-7.016.842-.55 4.452-.962 7.157-1.004zm8.59 1.566.916 3.459c1.07 4.051 1.064 4.13-.657 7.599-1.567 3.155-3.446 4.467-6.407 4.47-1.7 0-2.42-.29-3.568-1.437-.792-.793-1.438-1.907-1.438-2.48 0-1.089 5.108-9.03 6.704-10.42.507-.443 1.717-.891 2.687-.998z" fill="#fff"/>
    <g>
        <path d="M1637.428 289.616c-2.024-.043-4.078-.069-6.049-.575-1.91-.59-3.786-1.338-5.519-2.341-1.502-.941-2.505-2.449-3.62-3.787-3.333-4.243-6.372-8.723-9.022-13.425-1.18-2.092-2.21-4.276-2.926-6.572-.646-2.079-1.327-4.18-1.503-6.361-.08-.544.14-1.218.743-1.329.688-.049 1.194.519 1.747.841a58.866 58.866 0 0 1 5.935 4.7c2.047 1.76 4.347 3.187 6.45 4.875.236.161-.148-.275-.151-.411-.902-2.434-1.49-4.969-2.226-7.454-.227-.821-.561-1.679-.69-2.551a77.014 77.014 0 0 1-1.21-7.931c-.288-2.934-.59-5.873-.64-8.822-.005-.44.026-.948.324-1.277.302-.135.64-.235.94-.043.82.526 1.438 1.307 2.112 2 1.378 1.524 2.642 3.143 4.029 4.662 1.935 2.185 3.615 4.582 5.23 7.01a19.35 19.35 0 0 1 1.415 2.499c.176.298.385.64.564.898-.193-4.136-.088-8.28.013-12.419.086-3.557.315-7.117.875-10.634.404-2.599.734-5.212 1.281-7.785.103-.527.368-1.167.988-1.196.64.008.935.693 1.2 1.182a78.983 78.983 0 0 1 1.879 4.258c.893 2.45 1.58 4.97 2.55 7.393.713 2.154 1.21 4.373 1.84 6.523.303 1.024.688 2.02.936 3.061.445 1.635.82 3.288 1.265 4.922.492-3.031.81-6.093 1.446-9.099.61-1.773.778-3.664 1.386-5.44.784-2.656 2.116-5.099 3.35-7.565.851-1.624 1.657-3.28 2.644-4.83.208-.258.525-.52.87-.373.734.156.915 1.005 1.064 1.632.526 2.65.673 5.358.86 8.048.303 4.79.353 9.59.455 14.386.084 2.779.146 5.544.434 8.317-.023.495.118.128.249-.15 1.339-2.7 2.702-5.391 4.224-7.993 1.868-3.081 3.9-6.075 6.215-8.84 1.428-1.602 2.955-3.114 4.423-4.68-.224 3.034-.383 6.077-.884 9.081-.303 1.92-.478 3.806-.63 5.76-.186 2.925-.441 5.916-.865 8.844-.078.579-.136 1.16-.2 1.74 1.932-2.352 4.135-4.464 6.363-6.53 1.791-1.684 3.78-3.133 5.717-4.643-.03 1.507.068 3.02-.066 4.523-.05.4-.121.84-.44 1.119-.233.985-.307 2.003-.504 2.997-.532 3.076-1.056 6.155-1.713 9.208-.904 2.725-1.44 5.57-2.557 8.223-.874 1.984-2.392 3.616-4.056 4.972-2.587 2.02-5.63 3.325-8.605 4.659-1.364.564-2.872.58-4.256 1.079-1.032.343-2.098.647-3.046 1.185-.765.546-1.663.878-2.505 1.288-.838.365-1.67.773-2.561.982-.968.466-1.946.934-3.008 1.145-2.196.463-4.441.646-6.674.839a74.21 74.21 0 0 1-5.89.205z"/>
        <path d="M1636.516 221.405c-.77.004-1.445.66-1.639 1.397-.546 2.257-.835 4.57-1.19 6.861a79.786 79.786 0 0 0-.996 9.378c-.154 4.02-.246 8.044-.205 12.067-1.664-2.585-3.428-5.116-5.436-7.447-1.261-1.408-2.449-2.843-3.688-4.287-.87-.95-1.688-1.972-2.732-2.74-.54-.481-1.338-.439-1.95-.123-.463.325-.66.948-.7 1.502-.024 2.198.172 4.394.362 6.583.287 3.261.649 6.522 1.283 9.737.15.689.225 1.284.406 1.963.739 2.382 1.348 4.802 2.07 7.189-1.331-.967-2.68-1.908-3.956-2.954-1.909-1.68-3.86-3.319-5.948-4.773-.757-.465-1.428-1.173-2.343-1.3-.999-.172-1.853.78-1.854 1.736.053 1.88.57 3.715 1.1 5.51.663 2.318 1.53 4.579 2.653 6.715 2.732 5.111 5.969 9.945 9.519 14.522 1.195 1.451 2.266 3.058 3.808 4.174 1.498.972 3.161 1.668 4.839 2.266 2.385.93 4.983.961 7.507 1.015 2.978.019 5.953-.162 8.912-.482 1.654-.2 3.33-.373 4.922-.885.917-.282 1.73-.828 2.663-1.058 1.35-.506 2.661-1.115 3.944-1.769.905-.63 1.95-.997 2.992-1.326 1.457-.574 3.047-.633 4.518-1.15 2.49-1.08 4.991-2.179 7.294-3.628 2.377-1.502 4.534-3.494 5.833-6.019 1.304-2.768 1.836-5.81 2.793-8.701.575-2.5.999-5.034 1.45-7.56.281-1.513.505-3.035.761-4.552.403-.563.528-1.272.547-1.956.089-1.905-.006-3.813.052-5.72-1.885 1.471-3.807 2.894-5.644 4.426a84.928 84.928 0 0 0-6.152 5.927c.058-.406.103-.814.155-1.222.51-3.958.558-7.961 1.13-11.912.676-3.961.84-7.982 1.145-11.982-1.427 1.506-2.862 3.004-4.296 4.502-2.252 2.28-4.14 4.886-5.922 7.54-1.93 2.853-3.584 5.88-5.133 8.953-.192.513-.118-.262-.159-.469-.29-5.792-.232-11.622-.53-17.431-.197-3.31-.336-6.64-.927-9.909-.17-.941-.453-2.08-1.44-2.47-.635-.315-1.415-.086-1.843.462-.858 1.226-1.515 2.584-2.217 3.905-1.394 2.761-2.917 5.484-3.874 8.439-.658 1.85-.87 3.817-1.458 5.686-.44 1.82-.685 3.683-.958 5.534-.215-.778-.388-1.568-.638-2.335-.938-2.71-1.51-5.525-2.392-8.252-.672-1.766-1.27-3.557-1.847-5.353-.645-2.106-1.53-4.126-2.46-6.12-.39-.817-.811-1.847-1.796-2.064a1.374 1.374 0 0 0-.335-.04zm.023 1.58c.11 0 .547.798.973 1.774s.943 2.157 1.15 2.626c.207.468.78 2.13 1.275 3.691.495 1.562 1.076 3.23 1.291 3.709.215.478.784 2.395 1.265 4.26.481 1.863.996 3.644 1.142 3.956.146.312.734 2.485 1.307 4.827s1.179 4.348 1.348 4.457c.209.135.561-1.64 1.1-5.536.436-3.155.911-5.991 1.055-6.303.143-.313.467-1.635.718-2.94.253-1.304.935-3.476 1.519-4.827 1.117-2.587 4.81-9.695 5.037-9.695.781 0 1.537 8.826 1.69 19.756.065 4.541.248 9.413.408 10.827.196 1.728.198 3.062.007 4.07-.156.824-.22 1.562-.14 1.64.078.08.142-.03.142-.245 0-.622 2.387-5.579 5.054-10.495 2.005-3.695 5.703-8.996 7.822-11.215l2.17-2.27-.166 2.27c-.09 1.25-.356 3.422-.59 4.827-.235 1.405-.534 4.345-.666 6.531s-.448 5.416-.703 7.178c-.255 1.762-.424 3.547-.375 3.967.085.72.17.66 1.549-1.075 1.738-2.186 6.362-6.685 8.837-8.599l1.77-1.368v1.723c0 .947-.11 1.723-.247 1.723-.135 0-.314.543-.397 1.206-.242 1.942-1.906 11.105-2.1 11.57-.099.235-.53 1.704-.958 3.266-1.216 4.428-1.73 5.588-3.254 7.35-2.096 2.42-4.553 3.953-10.506 6.55-.468.206-1.49.462-2.27.571-1.339.188-4.944 1.446-5.253 1.834-.188.236-4.088 2.008-4.424 2.01-.144 0-.584.17-.978.375-1.494.78-2.779 1.064-6.65 1.473-5.49.578-11.412.53-13.793-.114-1.02-.274-2.834-.971-4.033-1.548-2.027-.975-2.35-1.262-4.618-4.096-4.33-5.412-9.02-12.745-10.915-17.062-1.022-2.328-2.262-6.504-2.493-8.39-.14-1.152-.1-1.35.23-1.15 1.474.895 4.637 3.297 6.033 4.583.912.839 2.572 2.164 3.69 2.943 1.119.78 2.587 1.863 3.262 2.406.676.543 1.347.987 1.49.987.347 0 .34-1.514-.008-1.862-.15-.149-.797-2.18-1.44-4.515-.641-2.335-1.22-4.33-1.285-4.435-.065-.106-.44-2.028-.836-4.273-.651-3.698-1.495-13.754-1.181-14.068.136-.135 2.109 1.91 3.474 3.6.442.546 1.714 2.016 2.828 3.265 1.851 2.077 5.583 7.414 6.008 8.594.2.55 2.41 3.805 2.506 3.69.034-.042-.063-1.034-.214-2.205-.16-1.235-.206-5.528-.109-10.222.136-6.514.308-9.032.881-12.918.998-6.771 1.341-8.66 1.571-8.66zm3.1 21.93a.167.167 0 0 0-.08.01c-.831.275-.4 6.605.55 8.084.49.761 1.131.875.806.142-.121-.273-.31-1.838-.418-3.478-.222-3.355-.464-4.72-.858-4.758zm13.335 1.02c-.468.079-.813 5.258-.37 6.412.365.951.68.38.68-1.237 0-.928.128-1.766.284-1.863.502-.31.193-2.33-.5-3.256-.031-.043-.063-.06-.094-.055zm14.355 6.578c-.584 0-2.1 2.005-2.47 3.265-.183.624-.429 1.203-.546 1.286-.54.381-.303 2.833.274 2.83.108 0 .739-1.154 1.403-2.563 1.406-2.984 1.915-4.818 1.339-4.818zm-40.208.567c-.119 0-.551.153-.96.34-.662.3-.724.45-.558 1.335.103.549.416 1.45.696 2.004.28.554.603 1.454.716 2 .275 1.33 1.545 4.53 2.108 5.315.724 1.008 1.162.798 1.163-.559.002-1.86-2.599-10.435-3.165-10.435zm16.209 3.31a1.127 1.127 0 0 0-.75.337c-.386.385-.424.982-.265 4.135.103 2.026.27 4.393.372 5.261l.184 1.58-.969-.78c-1.871-1.505-5.852-4.103-6.785-4.428-.517-.18-1.32-.329-1.783-.329h-.842l.2 1.35c.11.74.491 1.986.846 2.767.354.78.741 1.74.86 2.13.12.39.908 2.227 1.753 4.083.845 1.855 1.5 3.407 1.455 3.448-.044.04-1.663-.698-3.596-1.64-2.951-1.438-3.773-1.719-5.111-1.744l-1.595-.03.037 1.114c.02.613.212 1.252.426 1.42.214.168.883 1.071 1.487 2.008 1.155 1.792 6.742 7.49 8.244 8.407.822.502.903.506 1.235.057.195-.264.354-.707.354-.984s-.288-.654-.639-.838c-1.286-.675-2.884-2.112-4.653-4.185-1.625-1.905-2.958-3.922-2.433-3.681.11.05 1.982.97 4.157 2.044l3.956 1.953.516-.637c.284-.35.516-.991.516-1.423 0-.98-1.145-4.06-2.244-6.036-.455-.82-1.174-2.385-1.598-3.478-.425-1.093-.884-2.11-1.02-2.258a1.105 1.105 0 0 1-.25-.648c0-.411.741-.128 1.47.562.207.196.887.696 1.512 1.11s2.193 1.724 3.486 2.91c2.765 2.538 3.293 2.702 3.063.95-.087-.664-.226-2.274-.31-3.578a191.976 191.976 0 0 0-.42-5.11c-.148-1.508-.265-2.932-.262-3.166.009-.664 2.383 2.15 3.195 3.787.4.806 1.244 2.584 1.877 3.95.632 1.367 1.256 2.484 1.386 2.484.13 0 .514-.294.852-.653.71-.755 1.187-2.928 1.191-5.42l.003-1.735.984 1.768c.543.975 1.31 3.053 1.711 4.638.887 3.5 2.165 5.956 2.987 5.741.316-.083 1.609-1.725 2.994-3.803 1.34-2.012 2.554-3.659 2.697-3.659.346 0 .332 1.125-.07 5.43-.271 2.909-.263 3.756.04 4.487.303.732.512.886 1.113.816.717-.083.751-.175 1.071-2.925.182-1.562.342-4.718.355-7.014l.024-4.176-.991-.185c-1.274-.24-1.69-.066-2.2.92-.229.44-1.138 1.94-2.02 3.33-.882 1.39-1.608 2.667-1.613 2.838-.006.172-.317.687-.692 1.146l-.68.832-.13-.69c-.792-4.244-1.434-6.14-3.275-9.68-1.08-2.077-2.15-3.893-2.378-4.037-.65-.41-1.832.024-2.024.742-.095.354-.255 1.622-.357 2.82l-.185 2.176-1.345-2.035c-1.952-2.952-3.874-4.621-5.124-4.546zm33.36 6.94c-.093.004-.19.01-.293.023-.9.106-1.954 1.84-3.25 5.344-.434 1.17-1.12 2.8-1.524 3.619-.738 1.493-.908 2.36-.537 2.731.4.4 1.044.014 1.594-.956.31-.546 1.266-2.399 2.126-4.117s1.847-3.506 2.196-3.975c1.214-1.63 1.068-2.702-.313-2.668zm-58.371 5.36c-.153-.006-.243.09-.243.3 0 .537 1.488 3.24 2.416 4.391.504.625 1.065 1.424 1.248 1.775.378.73 1.102.843 1.344.212.366-.954-.097-1.723-3.384-5.606-.569-.673-1.09-1.06-1.382-1.072zm28.905 8.952c-.423.01-.59.133-.83.373-.492.492-.47.604.605 3.02 1.382 3.103 1.835 3.683 2.572 3.289.297-.159.595-.45.664-.647.068-.197-.263-1.047-.735-1.889l-.859-1.53.973.194c.534.106 1.744.265 2.688.353 1.371.127 1.792.067 2.097-.302.324-.39.308-.542-.103-.997-.698-.77-1.656-1.092-4.699-1.574-1.27-.202-1.95-.301-2.373-.29z" fill="#fff"/>
    </g>
    <g>
        <path d="M181.128 271.716c-2.024-.043-4.078-.069-6.049-.575-1.91-.59-3.786-1.338-5.519-2.341-1.502-.941-2.505-2.449-3.62-3.787-3.333-4.243-6.372-8.723-9.022-13.425-1.18-2.092-2.21-4.276-2.926-6.572-.646-2.079-1.327-4.18-1.503-6.361-.08-.544.14-1.218.743-1.329.688-.049 1.194.519 1.747.841a58.866 58.866 0 0 1 5.935 4.7c2.047 1.76 4.347 3.187 6.45 4.875.236.161-.148-.275-.151-.411-.902-2.434-1.49-4.969-2.226-7.454-.227-.821-.561-1.679-.69-2.551a77.014 77.014 0 0 1-1.21-7.931c-.288-2.934-.59-5.873-.64-8.822-.005-.44.026-.948.324-1.277.302-.135.64-.235.94-.043.82.526 1.438 1.307 2.112 2 1.378 1.524 2.642 3.143 4.029 4.662 1.935 2.185 3.615 4.582 5.23 7.01a19.35 19.35 0 0 1 1.415 2.499c.176.298.385.64.564.898-.193-4.136-.088-8.28.013-12.419.086-3.557.315-7.117.875-10.634.404-2.599.734-5.212 1.281-7.785.103-.527.368-1.167.988-1.196.64.008.935.693 1.2 1.182a78.983 78.983 0 0 1 1.879 4.258c.893 2.45 1.58 4.97 2.55 7.393.713 2.154 1.21 4.373 1.84 6.523.303 1.024.688 2.02.936 3.061.445 1.635.82 3.288 1.265 4.922.492-3.031.81-6.093 1.446-9.099.61-1.773.778-3.664 1.386-5.44.784-2.656 2.116-5.099 3.35-7.565.851-1.624 1.657-3.28 2.644-4.83.208-.258.525-.52.87-.373.734.156.915 1.005 1.064 1.632.526 2.65.673 5.358.86 8.048.303 4.79.353 9.59.455 14.386.084 2.779.146 5.544.434 8.317-.023.495.118.128.249-.15 1.339-2.7 2.702-5.391 4.224-7.993 1.868-3.081 3.9-6.075 6.215-8.84 1.428-1.602 2.955-3.114 4.423-4.68-.224 3.034-.383 6.077-.884 9.081-.303 1.92-.478 3.806-.63 5.76-.186 2.925-.441 5.916-.865 8.844-.078.579-.136 1.16-.2 1.74 1.932-2.352 4.135-4.464 6.363-6.53 1.791-1.684 3.78-3.133 5.717-4.643-.03 1.507.068 3.02-.066 4.523-.05.4-.121.84-.44 1.119-.233.985-.307 2.003-.504 2.997-.532 3.076-1.056 6.155-1.713 9.208-.904 2.725-1.44 5.57-2.557 8.223-.874 1.984-2.392 3.616-4.056 4.972-2.587 2.02-5.63 3.325-8.605 4.659-1.364.564-2.872.58-4.256 1.079-1.032.343-2.098.647-3.046 1.185-.765.546-1.663.878-2.505 1.288-.838.365-1.67.773-2.561.982-.968.466-1.946.934-3.008 1.145-2.196.463-4.441.646-6.674.839a74.21 74.21 0 0 1-5.89.205z"/>
        <path d="M180.216 203.505c-.77.004-1.445.66-1.639 1.397-.546 2.257-.835 4.57-1.19 6.861a79.786 79.786 0 0 0-.996 9.378c-.154 4.02-.246 8.044-.205 12.067-1.664-2.585-3.428-5.116-5.436-7.447-1.261-1.408-2.449-2.843-3.688-4.287-.87-.95-1.688-1.972-2.732-2.74-.54-.481-1.338-.439-1.95-.123-.463.325-.66.948-.7 1.502-.024 2.198.172 4.394.362 6.583.287 3.261.649 6.522 1.283 9.737.15.689.225 1.284.406 1.963.739 2.382 1.348 4.802 2.07 7.189-1.331-.967-2.68-1.908-3.956-2.954-1.909-1.68-3.86-3.319-5.948-4.773-.757-.465-1.428-1.173-2.343-1.3-.999-.172-1.853.78-1.854 1.736.053 1.88.57 3.715 1.1 5.51.663 2.318 1.53 4.579 2.653 6.715 2.732 5.111 5.969 9.945 9.519 14.522 1.195 1.451 2.266 3.058 3.808 4.174 1.498.972 3.161 1.668 4.839 2.266 2.385.93 4.983.961 7.507 1.015 2.978.019 5.953-.162 8.912-.482 1.654-.2 3.33-.373 4.922-.885.917-.282 1.73-.828 2.663-1.058 1.35-.506 2.661-1.115 3.944-1.769.905-.63 1.95-.997 2.992-1.326 1.457-.574 3.047-.633 4.518-1.15 2.49-1.08 4.991-2.179 7.294-3.628 2.377-1.502 4.534-3.494 5.833-6.019 1.304-2.768 1.836-5.81 2.793-8.701.575-2.5.999-5.034 1.45-7.56.281-1.513.505-3.035.761-4.552.403-.563.528-1.272.547-1.956.089-1.905-.006-3.813.052-5.72-1.885 1.471-3.807 2.894-5.644 4.426a84.928 84.928 0 0 0-6.152 5.927c.058-.406.103-.814.155-1.222.51-3.958.558-7.961 1.13-11.912.676-3.961.84-7.982 1.145-11.982-1.427 1.506-2.862 3.004-4.296 4.502-2.252 2.28-4.14 4.886-5.922 7.54-1.93 2.853-3.584 5.88-5.133 8.953-.192.513-.118-.262-.159-.469-.29-5.792-.232-11.622-.53-17.431-.197-3.31-.336-6.64-.927-9.909-.17-.941-.453-2.08-1.44-2.47-.635-.315-1.415-.086-1.843.462-.858 1.226-1.515 2.584-2.217 3.905-1.394 2.761-2.917 5.484-3.874 8.439-.658 1.85-.87 3.817-1.458 5.686-.44 1.82-.685 3.683-.958 5.534-.215-.778-.388-1.568-.638-2.335-.938-2.71-1.51-5.525-2.392-8.252-.672-1.766-1.27-3.557-1.847-5.353-.645-2.106-1.53-4.126-2.46-6.12-.39-.817-.811-1.847-1.796-2.064a1.374 1.374 0 0 0-.335-.04zm.023 1.58c.11 0 .547.798.973 1.774s.943 2.157 1.15 2.626c.207.468.78 2.13 1.275 3.691.495 1.562 1.076 3.23 1.291 3.709.215.478.784 2.395 1.265 4.26.481 1.863.996 3.644 1.142 3.956.146.312.734 2.485 1.307 4.827s1.179 4.348 1.348 4.457c.209.135.561-1.64 1.1-5.536.436-3.155.911-5.991 1.055-6.303.143-.313.467-1.635.718-2.94.253-1.304.935-3.476 1.519-4.827 1.117-2.587 4.81-9.695 5.037-9.695.781 0 1.537 8.826 1.69 19.756.065 4.541.248 9.413.408 10.827.196 1.728.198 3.062.007 4.07-.156.824-.22 1.562-.14 1.64.078.08.142-.03.142-.245 0-.622 2.387-5.579 5.054-10.495 2.005-3.695 5.703-8.996 7.822-11.215l2.17-2.27-.166 2.27c-.09 1.25-.356 3.422-.59 4.827-.235 1.405-.534 4.345-.666 6.531s-.448 5.416-.703 7.178c-.255 1.762-.424 3.547-.375 3.967.085.72.17.66 1.549-1.075 1.738-2.186 6.362-6.685 8.837-8.599l1.77-1.368v1.723c0 .947-.11 1.723-.247 1.723-.135 0-.314.543-.397 1.206-.242 1.942-1.906 11.105-2.1 11.57-.099.235-.53 1.704-.958 3.266-1.216 4.428-1.73 5.588-3.254 7.35-2.096 2.42-4.553 3.953-10.506 6.55-.468.206-1.49.462-2.27.571-1.339.188-4.944 1.446-5.253 1.834-.188.236-4.088 2.008-4.424 2.01-.144 0-.584.17-.978.375-1.494.78-2.779 1.064-6.65 1.473-5.49.578-11.412.53-13.793-.114-1.02-.274-2.834-.971-4.033-1.548-2.027-.975-2.35-1.262-4.618-4.096-4.33-5.412-9.02-12.745-10.915-17.062-1.022-2.328-2.262-6.504-2.493-8.39-.14-1.152-.1-1.35.23-1.15 1.474.895 4.637 3.297 6.033 4.583.912.839 2.572 2.164 3.69 2.943 1.119.78 2.587 1.863 3.262 2.406.676.543 1.347.987 1.49.987.347 0 .34-1.514-.008-1.862-.15-.149-.797-2.18-1.44-4.515-.641-2.335-1.22-4.33-1.285-4.435-.065-.106-.44-2.028-.836-4.273-.651-3.698-1.495-13.754-1.181-14.068.136-.135 2.109 1.91 3.474 3.6.442.546 1.714 2.016 2.828 3.265 1.851 2.077 5.583 7.414 6.008 8.594.2.55 2.41 3.805 2.506 3.69.034-.042-.063-1.034-.214-2.205-.16-1.235-.206-5.528-.109-10.222.136-6.514.308-9.032.881-12.918.998-6.771 1.341-8.66 1.571-8.66zm3.1 21.93a.167.167 0 0 0-.08.01c-.831.275-.4 6.605.55 8.084.49.761 1.131.875.806.142-.121-.273-.31-1.838-.418-3.478-.222-3.355-.464-4.72-.858-4.758zm13.335 1.02c-.468.079-.813 5.258-.37 6.412.365.951.68.38.68-1.237 0-.928.128-1.766.284-1.863.502-.31.193-2.33-.5-3.256-.031-.043-.063-.06-.094-.055zm14.355 6.578c-.584 0-2.1 2.005-2.47 3.265-.183.624-.429 1.203-.546 1.286-.54.381-.303 2.833.274 2.83.108 0 .739-1.154 1.403-2.563 1.406-2.984 1.915-4.818 1.339-4.818zm-40.208.567c-.119 0-.551.153-.96.34-.662.3-.724.45-.558 1.335.103.549.416 1.45.696 2.004.28.554.603 1.454.716 2 .275 1.33 1.545 4.53 2.108 5.315.724 1.008 1.162.798 1.163-.559.002-1.86-2.599-10.435-3.165-10.435zm16.209 3.31a1.127 1.127 0 0 0-.75.337c-.386.385-.424.982-.265 4.135.103 2.026.27 4.393.372 5.261l.184 1.58-.969-.78c-1.871-1.505-5.852-4.103-6.785-4.428-.517-.18-1.32-.329-1.783-.329h-.842l.2 1.35c.11.74.491 1.986.846 2.767.354.78.741 1.74.86 2.13.12.39.908 2.227 1.753 4.083.845 1.855 1.5 3.407 1.455 3.448-.044.04-1.663-.698-3.596-1.64-2.951-1.438-3.773-1.719-5.111-1.744l-1.595-.03.037 1.114c.02.613.212 1.252.426 1.42.214.168.883 1.071 1.487 2.008 1.155 1.792 6.742 7.49 8.244 8.407.822.502.903.506 1.235.057.195-.264.354-.707.354-.984s-.288-.654-.639-.838c-1.286-.675-2.884-2.112-4.653-4.185-1.625-1.905-2.958-3.922-2.433-3.681.11.05 1.982.97 4.157 2.044l3.956 1.953.516-.637c.284-.35.516-.991.516-1.423 0-.98-1.145-4.06-2.244-6.036-.455-.82-1.174-2.385-1.598-3.478-.425-1.093-.884-2.11-1.02-2.258a1.105 1.105 0 0 1-.25-.648c0-.411.741-.128 1.47.562.207.196.887.696 1.512 1.11s2.193 1.724 3.486 2.91c2.765 2.538 3.293 2.702 3.063.95-.087-.664-.226-2.274-.31-3.578a191.976 191.976 0 0 0-.42-5.11c-.148-1.508-.265-2.932-.262-3.166.009-.664 2.383 2.15 3.195 3.787.4.806 1.244 2.584 1.877 3.95.632 1.367 1.256 2.484 1.386 2.484.13 0 .514-.294.852-.653.71-.755 1.187-2.928 1.191-5.42l.003-1.735.984 1.768c.543.975 1.31 3.053 1.711 4.638.887 3.5 2.165 5.956 2.987 5.741.316-.083 1.609-1.725 2.994-3.803 1.34-2.012 2.554-3.659 2.697-3.659.346 0 .332 1.125-.07 5.43-.271 2.909-.263 3.756.04 4.487.303.732.512.886 1.113.816.717-.083.751-.175 1.071-2.925.182-1.562.342-4.718.355-7.014l.024-4.176-.991-.185c-1.274-.24-1.69-.066-2.2.92-.229.44-1.138 1.94-2.02 3.33-.882 1.39-1.608 2.667-1.613 2.838-.006.172-.317.687-.692 1.146l-.68.832-.13-.69c-.792-4.244-1.434-6.14-3.275-9.68-1.08-2.077-2.15-3.893-2.378-4.037-.65-.41-1.832.024-2.024.742-.095.354-.255 1.622-.357 2.82l-.185 2.176-1.345-2.035c-1.952-2.952-3.874-4.621-5.124-4.546zm33.36 6.94c-.093.004-.19.01-.293.023-.9.106-1.954 1.84-3.25 5.344-.434 1.17-1.12 2.8-1.524 3.619-.738 1.493-.908 2.36-.537 2.731.4.4 1.044.014 1.594-.956.31-.546 1.266-2.399 2.126-4.117s1.847-3.506 2.196-3.975c1.214-1.63 1.068-2.702-.313-2.668zm-58.371 5.36c-.153-.006-.243.09-.243.3 0 .537 1.488 3.24 2.416 4.391.504.625 1.065 1.424 1.248 1.775.378.73 1.102.843 1.344.212.366-.954-.097-1.723-3.384-5.606-.569-.673-1.09-1.06-1.382-1.072zm28.905 8.952c-.423.01-.59.133-.83.373-.492.492-.47.604.605 3.02 1.382 3.103 1.835 3.683 2.572 3.289.297-.159.595-.45.664-.647.068-.197-.263-1.047-.735-1.889l-.859-1.53.973.194c.534.106 1.744.265 2.688.353 1.371.127 1.792.067 2.097-.302.324-.39.308-.542-.103-.997-.698-.77-1.656-1.092-4.699-1.574-1.27-.202-1.95-.301-2.373-.29z" fill="#fff"/>
    </g>
    <circle cx="1142" cy="63.19" r="1.533" fill="#fff"/>
    <circle cx="1147" cy="74.09" r="1.16" fill="#fff"/>
    <circle cx="1138" cy="82.83" r=".92" fill="#fff"/>
    <circle cx="1145" cy="95.21" r="1.014" fill="#fff"/>
    <circle cx="1147" cy="84.99" r=".965" fill="#fff"/>
    <circle cx="1140" cy="74.2" r="1.086" fill="#fff"/>
    <circle cx="1137" cy="94.98" r=".995" fill="#fff"/>
    <circle cx="1146" cy="104.3" r="1.201" fill="#fff"/>
    <circle cx="1137" cy="105.2" r="1.211" fill="#fff"/>
    <circle cx="1139" cy="119.8" r="1.238" fill="#fff"/>
    <circle cx="1147" cy="114.1" r="1.291" fill="#fff"/>
    <circle cx="1146" cy="127.1" r="1.213" fill="#fff"/>
    <circle cx="1140" cy="134.7" r="1.109" fill="#fff"/>
    <circle cx="1144" cy="147.1" r=".916" fill="#fff"/>
    <circle cx="1139" cy="156.8" r=".819" fill="#fff"/>
    <circle cx="1144" cy="166.5" r=".896" fill="#fff"/>
    <circle cx="1139" cy="174.6" r=".976" fill="#fff"/>
    <circle cx="1145" cy="181.6" r="1.141" fill="#fff"/>
    <circle cx="1171" cy="147.1" r="1.053" fill="#fff"/>
    <circle cx="1177" cy="153.6" r="1.022" fill="#fff"/>
    <circle cx="1169" cy="160" r="1.077" fill="#fff"/>
    <circle cx="1176" cy="165.4" r="1.07" fill="#fff"/>
    <circle cx="1169" cy="170.6" r="1.174" fill="#fff"/>
    <circle cx="1172" cy="178.2" r="1.217" fill="#fff"/>
    <circle cx="1167" cy="184.5" r="1.27" fill="#fff"/>
    <circle cx="1162" cy="193" r="1.232" fill="#fff"/>
    <circle cx="1153" cy="194.2" r="1.153" fill="#fff"/>
    <circle cx="1144" cy="191" r="1.143" fill="#fff"/>
    <circle cx="1136" cy="184.3" r="1.065" fill="#fff"/>
    <circle cx="1124" cy="184.7" r=".999" fill="#fff"/>
    <circle cx="1118" cy="177.3" r=".985" fill="#fff"/>
    <circle cx="1107" cy="170.3" r="1.149" fill="#fff"/>
    <circle cx="1114" cy="159.8" r="1.19" fill="#fff"/>
    <circle cx="1106" cy="153.7" r="1.268" fill="#fff"/>
    <circle cx="1113" cy="144.4" r="1.19" fill="#fff"/>
    <circle cx="1109" cy="135.5" r="1.019" fill="#fff"/>
    <circle cx="1116" cy="128.8" r=".974" fill="#fff"/>
    <circle cx="1112" cy="122.2" r=".891" fill="#fff"/>
    <circle cx="1114" cy="111.6" r="1.04" fill="#fff"/>
    <circle cx="1114" cy="185.5" r=".973" fill="#fff"/>
    <circle cx="1123" cy="193" r="1.07" fill="#fff"/>
    <circle cx="1133" cy="192.9" r="1.138" fill="#fff"/>
    <circle cx="1143" cy="199.2" r="1.124" fill="#fff"/>
    <circle cx="1132" cy="204.3" r="1.195" fill="#fff"/>
    <circle cx="1151" cy="204.6" r="1.128" fill="#fff"/>
    <circle cx="1139" cy="213" r="1.128" fill="#fff"/>
    <circle cx="1132" cy="224.7" r="1.024" fill="#fff"/>
    <circle cx="1138" cy="237.8" r=".907" fill="#fff"/>
    <circle cx="1129" cy="241.5" r=".898" fill="#fff"/>
    <circle cx="1136" cy="250.4" r=".951" fill="#fff"/>
    <circle cx="1130" cy="257.5" r=".959" fill="#fff"/>
    <circle cx="1137" cy="266" r="1.065" fill="#fff"/>
    <circle cx="1130" cy="271.7" r="1.054" fill="#fff"/>
    <circle cx="1135" cy="280.7" r="1.142" fill="#fff"/>
</svg>
