<?xml version="1.0" encoding="UTF-8" standalone="no"?>
<svg
   xml:space="preserve"
   version="1.1"
   id="svg59"
   viewBox="0 0 2069 400"
   sodipodi:docname="cactus_2.svg"
   inkscape:version="1.1 (c4e8f9e, 2021-05-24)"
   xmlns:inkscape="http://www.inkscape.org/namespaces/inkscape"
   xmlns:sodipodi="http://sodipodi.sourceforge.net/DTD/sodipodi-0.dtd"
   xmlns="http://www.w3.org/2000/svg"
   xmlns:svg="http://www.w3.org/2000/svg"><defs
   id="defs46" /><sodipodi:namedview
   id="namedview44"
   pagecolor="#505050"
   bordercolor="#ffffff"
   borderopacity="1"
   inkscape:pageshadow="0"
   inkscape:pageopacity="0"
   inkscape:pagecheckerboard="1"
   showgrid="false"
   inkscape:zoom="0.44349073"
   inkscape:cx="1710.2951"
   inkscape:cy="-24.803224"
   inkscape:window-width="1792"
   inkscape:window-height="982"
   inkscape:window-x="0"
   inkscape:window-y="25"
   inkscape:window-maximized="1"
   inkscape:current-layer="svg59" />
    <path
   d="m 260.11536,293.1389 c -2.85361,-0.0755 -5.62958,-1.22747 -7.82014,-3.02566 -1.04702,-0.80572 -1.56948,-2.05838 -1.7835,-3.32991 -0.9673,-4.91617 -0.99457,-9.94986 -1.16453,-14.93948 -0.0734,-5.20783 -0.21611,-10.42825 0.14268,-15.6256 0.0629,-0.40495 0.19304,-0.8225 -0.34411,-0.5896 -2.12762,0.28536 -4.2951,0.75537 -6.44159,0.41965 -2.31646,-0.50357 -4.40842,-1.68278 -6.54652,-2.66477 A 65.557437,65.557437 0 0 1 218.27014,240.6682 c -2.42136,-2.36472 -4.90777,-4.784 -6.42691,-7.86001 -4.5196,-8.65106 -7.66067,-17.97983 -9.7736,-27.49535 -1.59467,-7.36483 -2.49272,-14.98984 -1.48975,-22.50574 0.79733,-6.25275 2.08775,-12.43418 3.39495,-18.5967 0.85609,-3.5901 1.63243,-7.29139 3.47259,-10.53318 a 9.026632,9.026632 0 0 1 7.41099,-4.56367 c 4.32238,-0.23499 8.40765,1.96815 11.47318,4.86373 1.79609,1.67229 3.77473,3.41173 4.41679,5.88347 0.85189,3.13267 0.726,6.41851 0.82252,9.63302 0.0944,7.89357 -0.0839,15.79345 0.28326,23.68074 0.16157,3.73907 0.81831,7.44875 2.0206,10.99479 a 49.518485,49.518485 0 0 0 4.21328,9.81976 c 1.3093,2.2619 2.63538,4.59725 4.57415,6.38704 1.37435,1.11208 2.6228,2.43816 4.20068,3.25648 0.38188,-0.40706 0.30215,-1.10158 0.41966,-1.62614 0.28746,-3.29424 0.4658,-6.59687 0.89804,-9.87852 0.25599,-2.1486 0.65045,-4.42519 0.70921,-6.50035 0.28955,-7.66068 -0.0378,-15.33813 -0.32103,-22.97574 -0.50359,-12.88949 -1.61145,-25.78528 -1.01346,-38.69156 0.22662,-5.03997 1.34288,-9.98762 2.43187,-14.89751 0.96938,-3.98456 1.91778,-8.00479 3.47678,-11.8068 1.48555,-3.17884 3.42433,-6.33039 6.37866,-8.34051 1.95555,-1.32608 4.4147,-1.30301 6.68288,-1.48345 3.05085,-0.10072 6.23808,-0.18465 9.09169,1.08059 2.21364,0.81202 4.33915,2.1549 5.51417,4.26363 1.36176,2.34373 2.16119,4.96024 2.95853,7.53268 0.8267,3.2145 0.66724,6.56749 0.76375,9.85543 0.0881,8.57342 0.1217,17.14684 0.19514,25.72025 3.5838,-0.34621 6.86544,-2.21155 9.53231,-4.55319 1.29881,-1.16243 2.36052,-2.55356 3.37817,-3.95938 0.38817,-0.56023 0.90644,-1.34917 1.27993,-2.04158 2.57243,-4.56998 2.93963,-9.94148 3.15365,-15.07377 0.18884,-5.40926 -0.0356,-10.98848 0.0755,-16.4649 0.0713,-3.84817 0.40706,-7.78027 1.97865,-11.34308 0.84349,-2.11083 1.8989,-4.160823 3.44111,-5.854103 2.06047,-2.28708 4.55319,-4.54479 7.70684,-5.03578 3.35718,-0.53714 7.07107,-0.0588 9.81347,2.08356 2.80115,2.16958 5.14489,4.97702 6.68919,8.172653 1.02814,2.1465 1.40583,4.528 1.41841,6.89062 0.0965,5.30855 0.0503,10.62549 -0.0419,15.93614 -0.086,4.83015 -0.53505,9.66869 -1.69958,14.36665 -0.99666,4.12305 -2.04368,8.2377 -3.27324,12.2957 -0.70292,2.40038 -1.99753,4.57416 -3.5985,6.47937 -3.58799,4.528 -7.33124,9.0602 -12.12782,12.36492 -3.75166,2.6291 -7.73411,4.90989 -11.74596,7.11304 -2.92494,1.62194 -6.1982,2.40459 -9.44418,3.08442 -3.2145,0.74907 -6.44579,1.72894 -9.25744,3.50196 -0.48679,0.35251 -1.10367,0.72809 -1.04492,1.41632 -0.51407,5.31904 -0.363,10.67164 -0.50988,16.00957 -0.11749,8.08872 -0.43013,16.17324 -0.56232,24.26196 -0.0923,5.1302 0.44692,10.24361 1.00505,15.30247 0.92743,8.12859 1.431,16.30334 1.45409,24.48647 0.0252,5.14699 0.14687,10.29607 0.1112,15.44306 -0.0273,1.95765 -0.64206,3.99505 -2.14021,5.33372 -1.83806,1.6828 -4.0433,2.90397 -6.20868,4.10836 -2.05629,1.14774 -4.4231,1.4268 -6.72487,1.69329 -1.32189,0.18043 -2.63959,0.44482 -3.87545,0.9526 -1.21068,0.30424 -2.47592,0.32522 -3.71599,0.28325 z"
   id="path55"
   style="stroke-width:2.09824" />
    <path
   d="m 317.77502,90.001907 c -0.4721,0.008 -0.94421,0.042 -1.41211,0.0923 -3.21031,0.20143 -6.03874,2.04159 -8.2377,4.28042 a 19.712973,19.712973 0 0 0 -4.59514,6.750033 c -1.40583,3.01728 -2.09825,6.34508 -2.29548,9.6687 -0.4763,8.68252 0.39866,17.42379 -0.72599,26.07273 -0.13009,0.86029 -0.33152,2.01432 -0.58121,2.97112 -0.79734,3.46419 -2.68575,6.56749 -5.0085,9.22177 -2.2745,2.48222 -5.23092,4.43987 -8.52516,5.23301 -0.0567,-7.44455 -0.10281,-14.88911 -0.16785,-22.33158 -0.10912,-3.77264 0.1133,-7.59563 -0.66096,-11.31371 -0.7134,-2.65008 -1.57367,-5.28757 -2.81793,-7.74251 -1.18131,-2.56405 -3.50826,-4.43778 -6.11008,-5.44284 -2.82214,-1.33028 -5.99677,-1.52332 -9.06859,-1.41631 -2.58084,0.14058 -5.30436,0.0965 -7.67538,1.27154 -3.42012,1.91778 -5.69671,5.32323 -7.36901,8.77904 -1.48976,3.24388 -2.37102,6.73325 -3.25227,10.18485 -1.23797,5.16378 -2.45075,10.36531 -2.94174,15.66547 -0.52876,7.93136 -0.28326,15.89208 0.0734,23.82552 0.53295,11.2193 1.196,22.41761 1.24216,33.6432 -0.042,3.12637 0.021,6.19611 -0.38188,9.27423 -0.62527,4.22376 -0.97149,8.48319 -1.29252,12.72583 -1.38483,-1.2086 -2.90186,-2.30807 -3.98665,-3.81881 -2.09404,-2.87878 -3.77893,-6.04712 -5.18266,-9.31618 -1.58837,-3.90063 -2.87249,-7.96702 -3.34669,-12.16561 -0.25179,-2.02689 -0.27278,-3.91322 -0.3609,-5.9506 -0.18254,-6.23388 -0.10491,-12.65449 -0.15318,-18.96181 -0.0923,-3.68871 0.0839,-7.43406 -0.72388,-11.05772 -0.49099,-2.65428 -2.33534,-4.75672 -4.26992,-6.51504 -3.13267,-3.1054 -7.17599,-5.60231 -11.67252,-5.85619 -3.49357,-0.31474 -7.09205,1.22536 -9.20918,4.03281 -2.30177,3.22081 -3.225,7.1613 -4.13773,10.94862 -1.35337,6.07651 -2.60811,12.18239 -3.48308,18.34703 -1.15403,7.16549 -0.63576,14.49255 0.71131,21.59089 2.0269,10.3863 5.29386,20.57115 10.11142,30.00905 1.4289,3.13687 3.76214,5.73449 6.21079,8.11179 4.83645,4.94556 10.3905,9.19449 16.49218,12.46355 2.51788,1.30091 5.03158,2.59133 7.68375,3.59429 2.36682,0.95889 4.96864,0.66514 7.42358,0.28116 -0.22031,3.78523 -0.19304,7.57885 -0.13639,11.36828 0.10282,5.16167 0.13639,10.34013 0.74907,15.47242 0.36301,2.24512 0.46162,4.74623 2.05838,6.52763 a 14.230269,14.230269 0 0 0 9.34347,3.97407 c 0.82041,0.021 1.64502,0.0273 2.46333,-0.0524 1.18551,-0.0441 2.25561,-0.54975 3.38446,-0.8393 2.70673,-0.6001 5.57712,-0.55814 8.14747,-1.71637 2.392,-1.19179 4.74202,-2.53676 6.82138,-4.22795 1.9178,-1.41001 3.00888,-3.71389 3.18304,-6.05762 0.1154,-3.95938 -0.004,-7.92296 -0.0273,-11.88443 -0.0294,-6.67242 -0.1301,-13.34692 -0.65046,-20.00044 -0.49938,-7.40259 -1.74154,-14.6793 -1.85065,-22.08188 0.0315,-7.31657 0.33991,-14.62895 0.48259,-21.9434 0.14688,-5.45964 0.1217,-10.97801 0.31474,-16.38307 0.0692,-1.22748 0.14478,-2.68366 0.27697,-3.99506 2.26609,-1.64082 4.98332,-2.51789 7.65439,-3.24807 3.44111,-0.84769 6.98713,-1.45198 10.20374,-3.00888 4.11045,-2.15909 8.14537,-4.47765 11.99774,-7.07317 4.85323,-3.12638 8.76015,-7.45505 12.33556,-11.9348 1.7793,-2.15069 3.53973,-4.38951 4.52171,-7.03539 1.29671,-3.8209 2.25141,-7.75091 3.24178,-11.66203 1.09948,-4.09786 1.81078,-8.30064 2.06257,-12.53908 0.29166,-5.12601 0.24339,-10.2646 0.26438,-15.3969 -0.0881,-3.4537 0.21822,-7.00183 -0.86867,-10.33803 -1.34707,-3.906933 -3.97408,-7.293493 -7.11095,-9.937273 -2.48221,-2.24512 -5.85828,-3.21031 -9.16511,-3.13687 z m 0.7218,2.71512 c 1.61564,0.0588 3.23129,0.39657 4.47764,0.99877 2.91656,1.41211 6.76893,5.77645 8.1244,9.211273 0.99666,2.5179 1.11835,3.67402 1.11206,10.47022 -0.0168,18.18546 -0.17206,19.60597 -3.4621,32.02336 -2.03529,7.69424 -2.29757,8.27756 -5.46801,12.22855 -6.78152,8.44961 -9.37704,10.65277 -19.36047,16.44391 -5.43025,3.14946 -6.70598,3.65094 -12.36494,4.86792 -5.47641,1.17501 -10.4933,3.43063 -11.40184,5.12601 -0.32942,0.61897 -0.57911,4.85322 -0.63996,10.88776 a 1370.978,1370.978 0 0 1 -0.4784,22.44489 c -0.3504,11.67251 -0.28535,13.39937 0.89385,24.15705 0.91274,8.33421 1.29881,14.69607 1.37435,22.67568 l 0.14267,14.88072 c 0.0483,4.69168 -0.58749,5.67784 -5.5876,8.7119 -2.96692,1.7982 -4.1755,2.23043 -7.20746,2.56825 -2.00592,0.2266 -4.08108,0.64206 -4.61613,0.92743 -1.09948,0.5875 -4.60984,0.62107 -6.45839,0.0587 -2.25771,-0.68612 -4.4147,-2.01012 -5.18265,-3.18093 -0.46371,-0.7113 -0.94421,-3.28165 -1.24006,-6.67241 -0.5959,-6.76892 -0.73649,-23.2506 -0.22451,-25.86711 l 0.37768,-1.91989 -1.42471,0.34621 c -0.78264,0.19094 -2.68784,0.47 -4.23634,0.62108 -2.52629,0.24759 -3.2271,0.0839 -6.90112,-1.61145 -7.67536,-3.53973 -13.4749,-7.49072 -19.13595,-13.03007 -4.98333,-4.87842 -5.46592,-5.52888 -8.03836,-10.84792 -4.92668,-10.18066 -8.85248,-23.9619 -9.79879,-34.40275 -0.67773,-7.48443 -0.17625,-12.32297 2.80534,-26.94141 1.92829,-9.45678 3.29425,-13.29026 5.47642,-15.36333 3.70129,-3.51874 10.1345,-2.4969 15.35073,2.43397 4.95394,4.68537 4.81126,3.99085 4.84694,23.26319 0.0336,18.08264 0.24548,20.12843 2.91655,28.1437 1.82547,5.48481 5.90025,12.66709 8.44541,14.88703 4.25734,3.71388 4.98962,4.14192 6.01356,3.49986 0.78474,-0.48889 0.98828,-1.40162 1.24006,-5.56453 a 129.44048,129.44048 0 0 1 1.04913,-9.80508 c 0.77215,-5.00221 0.54554,-18.38479 -0.70292,-41.5137 -0.63786,-11.81309 -0.62737,-22.96314 0.021,-27.69468 1.02604,-7.45504 3.88805,-19.04783 5.59182,-22.65261 2.0227,-4.27831 4.66858,-7.31237 7.10044,-8.14327 0.99876,-0.33991 3.81251,-0.63157 6.25276,-0.64416 3.65304,-0.021 4.95395,0.19514 7.37742,1.20859 3.51874,1.47715 4.63921,2.94383 6.5507,8.5818 1.34707,3.97407 1.35336,4.05171 1.45199,19.02685 0.0546,8.26917 0.1112,16.11659 0.12589,17.44058 l 0.021,2.40668 2.09824,-0.2392 c 3.73906,-0.43014 8.53564,-3.18932 11.3305,-6.51923 5.67154,-6.75634 6.85915,-11.86765 6.6808,-28.77737 -0.14059,-13.18325 0.15737,-15.36962 2.8704,-21.10831 1.33867,-2.832623 4.79867,-6.294723 7.35433,-7.364833 1.22957,-0.51406 2.84102,-0.73438 4.45456,-0.67773 z m -1.48345,5.39878 c -1.4394,0 -1.93039,0.64416 -1.50655,1.976543 0.3525,1.10787 1.23797,1.26944 2.11923,0.39027 1.04912,-1.049123 0.70711,-2.366813 -0.61268,-2.366813 z m 8.85038,7.006033 c -0.51407,-0.006 -1.03655,0.46161 -1.15824,1.32398 -0.0923,0.64416 0.13009,1.35547 0.49309,1.57998 0.97778,0.60429 2.06467,-0.70501 1.65341,-1.99333 -0.19303,-0.61688 -0.58751,-0.90644 -0.98826,-0.91063 z m -17.37764,0.63576 a 2.7444991,2.7444991 0 0 0 -0.61688,0.10492 c -1.30301,0.33991 -1.53802,1.32188 -0.62947,2.62279 0.74697,1.06591 0.80782,1.0743 1.44149,0.20773 0.36509,-0.49728 0.66094,-1.26943 0.66094,-1.71636 0,-0.86447 -0.23499,-1.23377 -0.85608,-1.21698 z m 8.80632,5.25189 a 2.0289989,2.0289989 0 0 0 -0.2434,0.021 c -1.0701,0.15527 -1.58837,1.38903 -1.10787,2.64378 0.38607,1.00506 1.11206,0.88127 1.96395,-0.33152 0.87077,-1.24426 0.54135,-2.35632 -0.61268,-2.33115 z m 7.2809,6.88014 a 1.1120677,1.1120677 0 0 0 -0.99037,0.51407 c -0.61689,0.97149 -0.52877,2.59552 0.18045,3.30263 0.49307,0.49309 0.79313,0.39866 1.50233,-0.4784 0.48679,-0.6022 0.81831,-1.5527 0.73859,-2.11503 -0.10702,-0.74697 -0.78685,-1.21278 -1.431,-1.22327 z m -15.7557,1.1918 c -0.33571,0.0105 -0.70081,0.25599 -0.98617,0.78265 -0.69241,1.29461 -0.21612,2.52837 0.89385,2.31645 0.50987,-0.0965 0.92532,-0.69241 1.01345,-1.44988 0.12169,-1.04073 -0.3588,-1.6681 -0.92113,-1.64922 z m -35.20009,1.71217 c -0.97988,0 -1.24845,0.24969 -1.24845,1.15193 0,1.89261 1.3051,2.46333 2.46123,1.0722 0.87497,-1.05542 0.23921,-2.22413 -1.21278,-2.22413 z m -11.37037,3.07182 c -0.20142,0 -0.42803,0.0377 -0.67143,0.1175 -1.14984,0.3651 -1.36805,1.70587 -0.43224,2.64378 0.90854,0.90644 2.08356,0.47211 2.27239,-0.8393 0.17206,-1.21487 -0.28746,-1.92198 -1.16661,-1.92198 z m 55.03477,3.82928 c -0.8519,0 -1.98703,1.48976 -1.70167,2.23254 0.35669,0.93371 1.36385,0.92952 2.1402,-0.007 0.64416,-0.77635 0.35879,-2.22412 -0.44063,-2.22412 z m -8.37618,4.48605 a 8.5943948,8.5943948 0 0 0 -0.67144,0.0441 c -1.87583,0.18045 -2.41927,1.73105 -1.07639,3.07392 0.77005,0.77006 0.88335,0.76796 1.75203,-0.0168 0.50987,-0.46162 0.92742,-1.37226 0.92742,-2.0248 0,-0.84769 -0.13009,-1.0911 -0.93162,-1.0785 z m -52.31754,1.92198 c -1.23586,0 -2.0248,1.4373 -1.41631,2.57664 0.69871,1.30301 2.32905,1.10368 2.68994,-0.32942 0.37349,-1.48975 -0.0546,-2.24511 -1.27363,-2.24511 z m 15.84382,2.96692 c -0.32733,-0.003 -0.74278,0.0965 -1.25475,0.29376 -1.02184,0.39027 -0.99667,1.87792 0.0483,2.92284 0.77635,0.77636 0.87077,0.77216 1.47926,-0.0587 0.3567,-0.48889 0.65045,-1.40162 0.65045,-2.0269 0,-0.75327 -0.29585,-1.12466 -0.92322,-1.13095 z m 39.128,5.90865 c -1.45199,0 -1.65132,1.1855 -0.42595,2.53887 1.03653,1.14563 1.65971,0.73858 1.65971,-1.09109 0,-1.21698 -0.19724,-1.44778 -1.23376,-1.44778 z m 11.64523,0.49308 c -1.24216,0 -1.69328,0.70291 -1.27992,2.00382 0.45741,1.44779 1.92618,0.99457 2.11712,-0.65255 0.12379,-1.0764 -0.0462,-1.35127 -0.8351,-1.35127 z m -60.38318,3.45161 c -1.5338,0 -2.06047,1.35127 -0.98827,2.53467 1.06381,1.17502 1.49814,1.15404 2.17379,-0.10911 0.74907,-1.40162 0.25177,-2.42766 -1.18552,-2.42766 z m 12.2873,4.93087 c -1.51283,0 -1.95136,0.67773 -1.26734,1.95975 0.67144,1.25056 1.30512,1.26524 1.95767,0.042 0.79314,-1.48136 0.61478,-2.00383 -0.69243,-2.00383 z m 30.01324,1.97025 c -0.76167,0 -1.26105,1.24635 -0.88756,2.21784 0.40706,1.0638 0.92533,0.91273 1.54431,-0.44483 0.56233,-1.23586 0.363,-1.77301 -0.65675,-1.77301 z m 10.87519,2.83681 -1.17292,0.95261 c -0.86867,0.7092 -1.0827,1.23166 -0.82881,2.03319 0.38607,1.21279 1.64502,1.44779 2.05418,0.38188 0.14687,-0.38398 0.19514,-1.3009 0.10701,-2.03319 z m -21.54475,0.65466 a 3.7138863,3.7138863 0 0 0 -0.4763,0.042 c -1.3051,0.18674 -1.76252,1.59046 -0.87076,2.66896 0.90434,1.09108 1.67229,0.58121 1.85064,-1.22537 0.11331,-1.16033 0.0629,-1.48346 -0.50358,-1.48556 z m -38.13553,0.45322 c -0.8309,0 -1.20438,0.27277 -1.20438,0.88545 0,1.9199 2.16958,2.79066 2.71092,1.09109 0.42175,-1.33449 -0.0692,-1.97654 -1.50654,-1.97654 z m -42.18932,6.40802 c -1.0764,0.0336 -1.666,1.09109 -1.22957,2.23043 0.2413,0.62528 0.45532,0.64416 1.28621,0.1259 0.54975,-0.34202 0.99668,-1.01136 0.99668,-1.48976 0,-0.54344 -0.3735,-0.86657 -1.00086,-0.86657 z m 54.77457,1.47926 c -1.71426,0 -2.28288,0.93163 -1.48555,2.42556 0.62947,1.17712 0.73439,1.2044 2.0248,0.51408 0.54555,-0.29375 0.95471,-1.02814 0.95471,-1.72476 0,-1.02394 -0.23501,-1.21488 -1.49396,-1.21488 z m -46.84112,2.95852 c -0.7281,0 -0.96519,0.33782 -0.96519,1.38065 0,1.33027 0.90853,2.80534 1.41421,2.29967 0.13639,-0.13638 0.30634,-1.01974 0.38188,-1.96395 0.1112,-1.42261 -0.0294,-1.71846 -0.82881,-1.71846 z m 60.90564,0.54764 a 3.0046809,3.0046809 0 0 0 -0.3651,0.0336 c -1.12675,0.15946 -1.6597,1.37225 -1.17082,2.65218 0.33362,0.86448 0.89805,0.90434 1.6849,0.1196 0.32521,-0.32522 0.5896,-1.11836 0.5896,-1.76042 0,-0.78265 -0.16156,-1.05332 -0.73858,-1.04493 z m 15.27309,0.73229 a 1.8695326,1.8695326 0 0 0 -0.82671,0.24969 c -1.22327,0.65465 -1.11206,2.19896 0.22032,3.13267 1.01765,0.7134 1.16033,0.70711 1.72895,-0.0692 0.33991,-0.46372 0.4763,-1.30092 0.30214,-1.85694 -0.30633,-0.98618 -0.78474,-1.47297 -1.4268,-1.45618 z m -41.65428,4.73782 a 0.80152804,0.80152804 0 0 0 -0.55184,0.25809 c -0.62946,0.62947 -0.2413,2.10244 0.55814,2.10244 0.28745,0 0.65675,-0.34622 0.81831,-0.77006 0.31684,-0.82041 -0.22032,-1.60515 -0.82461,-1.59047 z m -46.84322,3.83979 c -1.24006,0 -1.77931,1.24425 -0.9652,2.22414 0.78264,0.9442 1.29462,0.92952 1.66811,-0.0462 0.54973,-1.431 0.30843,-2.17797 -0.70291,-2.17797 z m 56.42799,0.67353 c -0.16367,0.004 -0.32943,0.10492 -0.46791,0.32943 -0.41335,0.67144 0.0692,1.95556 0.73439,1.95556 0.27906,0 0.50777,-0.43014 0.50777,-0.9568 0,-0.79104 -0.38398,-1.33448 -0.77425,-1.32819 z m -9.75053,6.76054 c -0.42804,-0.007 -0.89595,0.20562 -1.31769,0.71549 -0.4805,0.57702 -0.49519,1.04073 -0.0713,1.97236 0.65466,1.43938 1.82337,1.58416 2.5053,0.31263 0.82461,-1.54221 -0.0168,-2.98369 -1.11627,-3.00048 z m 15.38221,2.67316 c -0.73859,0.021 -1.21069,0.33572 -1.3177,0.88545 -0.16996,0.88756 0.68822,2.31856 1.39113,2.31856 0.20563,0 0.63997,-0.32103 0.9652,-0.71551 0.9463,-1.13934 0.42174,-2.4885 -0.9652,-2.4885 z m -49.76609,2.862 c -0.21821,0 -0.49308,0.10491 -0.87496,0.30844 -1.15822,0.62107 -1.37435,1.97864 -0.45741,2.89557 0.8267,0.82461 1.26524,0.73858 1.85484,-0.36509 0.61479,-1.14774 0.62737,-1.55061 0.0713,-2.42347 -0.17415,-0.27697 -0.3483,-0.41336 -0.5959,-0.41545 z m -12.65238,6.02194 c -0.51827,0.003 -1.10578,0.4847 -1.10578,1.19181 0,1.53801 1.28832,2.08984 1.794,0.77005 h 0.003 c 0.15527,-0.40706 0.15737,-1.0701 0.003,-1.47086 a 0.70920541,0.70920541 0 0 0 -0.69241,-0.49309 z m 46.5054,2.46963 a 1.5380106,1.5380106 0 0 0 -0.79103,0.2413 c -0.54135,0.33572 -0.55394,0.66514 -0.0672,1.73106 0.49518,1.08689 0.72599,1.21068 1.32609,0.7134 0.39866,-0.33152 0.72809,-0.99667 0.72809,-1.47717 a 1.1561307,1.1561307 0 0 0 -1.196,-1.20859 z m 11.0976,6.14785 c -1.74154,0 -2.10453,0.78264 -1.1939,2.58713 0.75537,1.49605 1.15614,1.64712 2.03949,0.76586 0.32523,-0.32523 0.5917,-1.21279 0.5917,-1.97234 0,-1.196 -0.19303,-1.38065 -1.43729,-1.38065 z m -53.32889,5.00011 c -0.27906,0.0105 -0.65046,0.31893 -1.17502,0.90225 -0.83929,0.92322 -0.83929,1.03862 -0.0294,2.27659 0.75957,1.15823 0.93371,1.21907 1.59466,0.55813 0.51826,-0.51617 0.63997,-1.20439 0.40496,-2.2745 -0.22031,-1.00715 -0.43433,-1.47926 -0.79733,-1.46247 z m 12.96293,1.04912 c -0.26857,-0.004 -0.57072,0.16786 -0.85398,0.55184 -0.50358,0.67982 -0.55184,1.18551 -0.18045,1.87793 0.64416,1.20228 1.62404,0.90224 1.83806,-0.56444 0.16367,-1.11836 -0.25179,-1.85694 -0.80363,-1.86743 z m 30.64691,7.8768 c -0.62947,0.0168 -1.16872,0.48049 -1.16872,1.24215 0,0.85399 0.86028,2.08566 1.46038,2.08566 0.15107,0 0.57072,-0.47211 0.92952,-1.04913 0.55394,-0.88546 0.53924,-1.16242 -0.0902,-1.7919 a 1.5485017,1.5485017 0 0 0 -1.13096,-0.48678 z m 13.37209,2.45074 a 2.7801692,2.7801692 0 0 0 -0.74068,0.14058 c -1.19599,0.37769 -1.24845,1.10368 -0.16786,2.29758 0.94002,1.04072 2.1444,0.42385 2.1444,-1.09948 0,-0.89805 -0.44902,-1.36386 -1.23796,-1.33868 z m -36.36252,5.88137 c -1.03233,0.0126 -1.22327,1.33238 -0.24548,2.31016 0.48259,0.48261 0.73857,0.43224 1.23795,-0.25178 0.34622,-0.47421 0.55394,-1.09109 0.46162,-1.37226 -0.0923,-0.28325 -0.65046,-0.5854 -1.23796,-0.67144 a 1.3680531,1.3680531 0 0 0 -0.21822,-0.0126 z m -10.23941,0.91274 c -0.53715,0.0167 -0.96729,0.30634 -0.96729,0.65674 0,1.51074 1.59466,1.64922 1.88423,0.16367 0.1049,-0.55394 -0.17416,-0.82041 -0.86238,-0.82041 z m 19.06881,5.4869 c -0.88755,0 -1.05122,0.70291 -0.50357,2.136 0.4763,1.23796 1.9094,0.69033 1.9094,-0.72808 0,-0.89595 -0.29586,-1.26944 -1.10788,-1.38485 a 2.1800723,2.1800723 0 0 0 -0.29795,-0.021 z m 30.64062,2.95642 a 1.2421586,1.2421586 0 0 0 -0.21612,0.021 c -1.09109,0.21613 -1.88422,1.56739 -1.50444,2.55986 0.40916,1.06171 0.98407,1.01764 2.04998,-0.15947 0.94421,-1.04492 0.69871,-2.44655 -0.32942,-2.42347 z m -16.99785,0.92322 c -0.90225,0.0168 -1.14355,0.27698 -1.14355,1.1897 0,0.65466 0.27697,1.29252 0.61689,1.41422 0.86657,0.31264 1.84645,-0.58121 1.84645,-1.67859 0,-0.65885 -0.35251,-0.92533 -1.22957,-0.92533 z m -19.6794,5.91704 c -1.14984,0 -1.38485,1.42681 -0.40916,2.50111 0.78054,0.86447 0.94421,0.88965 1.32189,0.21611 0.23711,-0.42175 0.28956,-1.20649 0.1196,-1.74154 -0.17206,-0.53924 -0.63577,-0.97778 -1.03233,-0.97778 z m 30.11605,3.16834 c -0.81413,0 -1.72056,0.70711 -1.72056,1.47507 0,0.6085 0.96938,1.76252 1.47926,1.76252 0.16156,0 0.56233,-0.26437 0.88755,-0.58961 0.8435,-0.84349 0.7302,-2.20734 -0.20982,-2.57034 a 1.2169797,1.2169797 0 0 0 -0.43643,-0.0777 z m 6.63044,7.67537 c -0.598,0 -0.9568,0.33991 -0.9568,0.90434 0,1.61565 0.96938,2.0332 1.95556,0.84349 0.74488,-0.89804 0.26018,-1.74783 -0.99666,-1.74783 z m -16.96637,8.28176 c -0.19305,0.003 -0.42596,0.18045 -0.80573,0.50567 -0.92533,0.79314 -1.24846,2.56406 -0.58751,3.2271 0.54345,0.53925 1.71635,0.14688 2.29128,-0.76796 0.37977,-0.6022 0.34621,-1.16242 -0.1259,-2.04368 -0.33991,-0.63577 -0.52245,-0.92323 -0.77214,-0.92113 z m 12.96292,2.8536 a 1.5170281,1.5170281 0 0 0 -0.37349,0.0524 c -0.63996,0.16787 -1.01555,0.67145 -1.01555,1.35967 0,1.88422 1.14774,2.24722 2.13812,0.67774 0.65044,-1.03234 0.20143,-2.08986 -0.74908,-2.08776 z m -5.489,14.03094 c -0.25179,0.0105 -0.5896,0.10491 -1.03653,0.27487 -0.91903,0.3525 -1.03233,2.20944 -0.18883,3.05294 0.75116,0.75117 0.98617,0.74277 2.10033,-0.0713 0.62947,-0.46161 0.73439,-0.77216 0.34202,-1.01555 -0.31264,-0.19304 -0.56653,-0.78054 -0.56653,-1.3072 0,-0.65885 -0.16786,-0.95051 -0.65046,-0.93373 z"
   fill="#ffffff"
   id="path57"
   style="stroke-width:2.09824" />
    
    
    <path
   d="m 1806.9628,275.36868 c 2.3021,-0.0593 4.5433,-0.98931 6.3136,-2.44278 0.8436,-0.6505 1.2671,-1.66184 1.4399,-2.68841 0.781,-3.9691 0.803,-8.03306 0.9385,-12.06144 0.061,-4.20456 0.1762,-8.41929 -0.1135,-12.61369 -0.049,-0.32864 -0.1559,-0.66575 0.2778,-0.47771 1.7195,0.23038 3.4677,0.60984 5.2024,0.3388 1.8685,-0.40656 3.5574,-1.35861 5.2819,-2.15141 a -52.926333,52.926333 0 0 0 14.4433,-10.26577 c 1.9549,-1.90916 3.9623,-3.86237 5.1887,-6.34581 3.649,-6.98276 6.1849,-14.51607 7.8908,-22.19677 1.2891,-5.94771 2.0125,-12.10379 1.2044,-18.17178 -0.6437,-5.04818 -1.6872,-10.03708 -2.7426,-15.01412 -0.6911,-2.89847 -1.3179,-5.88503 -2.8036,-8.50399 a -7.2876832,7.2876832 0 0 0 -5.9833,-3.68449 c -3.4897,-0.18974 -6.7879,1.58899 -9.2629,3.92674 -1.4484,1.35183 -3.0458,2.75617 -3.5659,4.75004 -0.6878,2.52917 -0.5844,5.18201 -0.6641,7.77895 -0.076,6.37121 0.068,12.74921 -0.2286,19.11704 -0.1305,3.01874 -0.6607,6.01378 -1.6314,8.87667 a -39.934878,39.934878 0 0 1 -3.4016,7.92803 c -1.0571,1.82615 -2.1277,3.71329 -3.693,5.1566 -1.1078,0.89783 -2.1175,1.96845 -3.3914,2.62912 -0.3083,-0.32864 -0.2439,-0.88936 -0.3388,-1.31286 -0.2321,-2.65962 -0.3761,-5.32601 -0.725,-7.97377 -0.2067,-1.73637 -0.5252,-3.57438 -0.5726,-5.24977 -0.2338,-6.18318 0.029,-12.3833 0.2592,-18.54954 0.4065,-10.40469 1.301,-20.81615 0.8182,-31.23777 -0.183,-4.06904 -1.0842,-8.06355 -1.9634,-12.02756 -0.7826,-3.21695 -1.5466,-6.461 -2.807,-9.53226 -1.1993,-2.56645 -2.7646,-5.11087 -5.1498,-6.73374 -1.5788,-1.07062 -3.5642,-1.05029 -5.3955,-1.19767 -2.4631,-0.0813 -5.0363,-0.14908 -7.3385,0.87411 -1.7889,0.65389 -3.5066,1.73807 -4.4536,3.44056 -1.0994,1.89222 -1.7448,4.00467 -2.3885,6.08323 -0.6675,2.59355 -0.5387,5.3006 -0.615,7.95513 -0.071,6.92178 -0.098,13.84524 -0.1592,20.76702 -2.8934,-0.28121 -5.5428,-1.78719 -7.6959,-3.67772 -1.0486,-0.9368 -1.9058,-2.06163 -2.7274,-3.19662 -0.3134,-0.45231 -0.7318,-1.08926 -1.0334,-1.64659 -2.0768,-3.69297 -2.3733,-8.02797 -2.5461,-12.16986 -0.1524,-4.36888 0.029,-8.87329 -0.061,-13.29468 -0.058,-3.10684 -0.3286,-6.28144 -1.5974,-9.15789 -0.681,-1.70418 -1.5331,-3.35755 -2.7782,-4.72632 -1.6636,-1.84648 -3.6761,-3.66925 -6.2222,-4.06565 -2.7104,-0.43367 -5.7088,-0.0474 -7.9229,1.68216 -2.2615,1.75332 -4.1538,4.01822 -5.4006,6.59822 -0.83,1.73298 -1.1349,3.6557 -1.1451,5.56317 -0.076,4.28757 -0.041,8.57853 0.034,12.8661 0.069,3.89963 0.4319,7.80774 1.3721,11.60066 0.8047,3.32706 1.65,6.65073 2.6427,9.92697 0.5675,1.93796 1.6127,3.69297 2.9052,5.23114 2.8968,3.654 5.919,7.31479 9.7915,9.98287 3.0289,2.12092 6.2442,3.96401 9.4831,5.74274 2.3615,1.30778 5.0042,1.93965 7.6248,2.48852 2.5953,0.60476 5.2041,1.39587 7.4741,2.82732 0.393,0.28459 0.891,0.58782 0.8436,1.14346 0.415,4.29435 0.293,8.61749 0.4116,12.92539 0.095,6.53046 0.3473,13.05753 0.454,19.58798 0.076,4.14188 -0.3608,8.27022 -0.8097,12.3545 -0.7505,6.56265 -1.157,13.16256 -1.1757,19.76924 -0.02,4.15544 -0.1202,8.31257 -0.09,12.46801 0.024,1.58221 0.5184,3.22541 1.7279,4.3062 1.484,1.3603 3.2644,2.34622 5.0144,3.31689 1.6601,0.92663 3.5693,1.15194 5.4276,1.36708 1.0672,0.14569 2.1311,0.35913 3.1289,0.76909 0.9791,0.24563 1.9989,0.26257 3.0001,0.22869 z"
   id="path367"
   style="stroke-width:1.69402" />
    <path
   d="m 1760.411,111.36531 c 0.3812,0.009 0.7624,0.0339 1.1384,0.0762 2.5919,0.16094 4.8771,1.64829 6.6525,3.45581 a -15.913644,15.913644 0 0 1 3.7099,5.44797 c 1.135,2.4377 1.6923,5.12273 1.8532,7.80606 0.3846,7.01156 -0.3218,14.06885 0.5862,21.05161 0.105,0.69455 0.2676,1.62626 0.4675,2.39704 0.6437,2.79853 2.1683,5.30399 4.0436,7.44692 1.8364,2.00234 4.2249,3.58455 6.8845,4.2232 0.046,-6.01039 0.083,-12.01909 0.1356,-18.02948 0.088,-3.04585 -0.091,-6.13236 0.5336,-9.13247 0.5759,-2.14124 1.2705,-4.26894 2.275,-6.25094 0.9538,-2.07179 2.8325,-3.58455 4.933,-4.3943 2.2785,-1.0757 4.8416,-1.23155 7.3216,-1.14515 2.0837,0.1135 4.2825,0.0779 6.1967,1.02657 2.7613,1.55003 4.5993,4.29774 5.9494,7.08779 1.2028,2.62065 1.9143,5.43612 2.6258,8.22279 0.9995,4.17068 1.9786,8.36846 2.375,12.64756 0.4269,6.40341 0.2287,12.83222 -0.059,19.23732 -0.4303,9.05794 -0.9656,18.09724 -1.0029,27.16195 0.034,2.5241 -0.017,5.00076 0.3084,7.48758 0.5031,3.40837 0.7843,6.84893 1.0435,10.27425 1.118,-0.97746 2.3428,-1.86512 3.2186,-3.08313 1.6906,-2.32589 3.0509,-4.88386 4.1843,-7.52145 1.2823,-3.15088 2.3174,-6.43221 2.7019,-9.82533 0.2033,-1.63473 0.2202,-3.15596 0.2914,-4.80255 0.1474,-5.03125 0.085,-10.21665 0.1237,-15.30888 0.074,-2.9781 -0.069,-6.00023 0.5844,-8.9275 0.3964,-2.14294 1.8854,-3.84035 3.4473,-5.25994 2.5275,-2.50715 5.7936,-4.52304 9.4239,-4.72802 2.8205,-0.2541 5.7241,0.99101 7.4333,3.25591 1.8601,2.60033 2.6054,5.7817 3.3406,8.83941 1.0944,4.90589 2.1074,9.83549 2.8121,14.81253 0.9317,5.78509 0.515,11.70061 -0.5726,17.43149 -1.6364,8.38541 -4.274,16.60989 -8.1651,24.22791 -1.152,2.53256 -3.0357,4.62976 -5.0143,6.54909 -3.9048,3.9945 -8.3888,7.42489 -13.3151,10.06249 -2.0328,1.05029 -4.0605,2.09211 -6.2018,2.90186 -1.9108,0.77417 -4.0114,0.5387 -5.9934,0.227 0.1778,3.05601 0.1524,6.1188 0.1101,9.17821 -0.085,4.16729 -0.1101,8.34814 -0.6065,12.49172 -0.2913,1.8126 -0.3727,3.83188 -1.6601,5.27179 a -11.488858,11.488858 0 0 1 -7.5435,3.20848 c -0.6641,0.0169 -1.3281,0.022 -1.9905,-0.044 -0.9554,-0.0339 -1.8194,-0.44384 -2.7307,-0.67761 -2.1853,-0.48449 -4.5027,-0.45061 -6.5779,-1.38571 -1.9312,-0.96221 -3.8285,-2.04807 -5.5073,-3.41346 -1.5483,-1.13838 -2.4309,-2.99842 -2.5715,-4.88894 -0.091,-3.19832 0,-6.39833 0.024,-9.59664 0.024,-5.38699 0.105,-10.77567 0.5251,-16.14742 0.4032,-5.97481 1.4061,-11.85138 1.4942,-17.82789 -0.025,-5.90536 -0.2745,-11.80903 -0.3896,-17.71608 -0.1186,-4.40785 -0.097,-8.86143 -0.2542,-13.22523 -0.056,-0.9927 -0.1168,-2.16835 -0.2236,-3.22711 -1.8295,-1.32303 -4.0233,-2.03283 -6.1798,-2.62066 -2.7782,-0.68607 -5.641,-1.17395 -8.238,-2.43092 -3.3186,-1.74145 -6.5762,-3.61504 -9.6864,-5.70885 -3.9183,-2.5241 -7.0725,-6.01887 -9.9592,-9.6373 -1.4365,-1.73468 -2.8578,-3.5422 -3.6506,-5.67836 -1.0469,-3.08651 -1.8177,-6.25772 -2.6172,-9.41537 -0.8877,-3.31012 -1.462,-6.70156 -1.6653,-10.12517 -0.2354,-4.1385 -0.1965,-8.28716 -0.2134,-12.43074 0.071,-2.78666 -0.1762,-5.65295 0.703,-8.34645 1.0842,-3.15426 3.2068,-5.88672 5.7394,-8.02288 2.004,-1.81091 4.7297,-2.59186 7.3994,-2.53257 z m -0.5827,2.19207 c -1.3044,0.0474 -2.6088,0.32017 -3.615,0.80635 -2.3547,1.14008 -5.465,4.66534 -6.5593,7.43676 -0.8047,2.03283 -0.9029,2.96793 -0.8978,8.45317 0.017,14.68209 0.1355,15.82894 2.7951,25.85417 1.6432,6.21198 1.8533,6.68291 4.4146,9.87445 5.4751,6.82183 7.5706,8.59886 15.6308,13.27436 4.3841,2.54273 5.4141,2.94929 9.9811,3.93013 4.4214,0.94865 8.4735,2.77142 9.2071,4.14019 0.2659,0.49804 0.4675,3.91658 0.5166,8.78859 a -1108.3716,1108.3716 0 0 0 0.3846,18.12095 c 0.2829,9.42385 0.2321,10.81803 -0.72,19.50328 -0.7369,6.72866 -1.0503,11.86493 -1.1096,18.3073 l -0.1152,12.014 c -0.039,3.78784 0.4744,4.58572 4.5112,7.03358 2.3954,1.45347 3.3694,1.80075 5.819,2.07518 1.6195,0.18126 3.2949,0.51837 3.7268,0.74876 0.886,0.47432 3.7218,0.49973 5.2142,0.0474 1.8228,-0.55564 3.5643,-1.62457 4.1843,-2.56983 0.3744,-0.57258 0.7623,-2.64776 1.0011,-5.38699 0.4794,-5.46492 0.5946,-18.76977 0.1796,-20.88391 l -0.3032,-1.55003 1.1502,0.27952 c 0.6319,0.15415 2.1701,0.37946 3.4202,0.50143 2.0396,0.19989 2.6055,0.0678 5.5717,-1.29932 6.195,-2.85951 10.879,-6.04766 15.4495,-10.52157 4.0233,-3.9386 4.4112,-4.46375 6.4898,-8.7564 3.9775,-8.2194 7.147,-19.34573 7.9111,-27.77688 0.5471,-6.04258 0.1422,-9.9473 -2.265,-21.75125 -1.5568,-7.63495 -2.6596,-10.72993 -4.4214,-12.40363 -2.9882,-2.84087 -8.1821,-2.01588 -12.3934,1.96507 -3.9996,3.78275 -3.8844,3.22203 -3.9132,18.78332 -0.027,14.59739 -0.1982,16.25075 -2.3547,22.72022 -1.4738,4.42987 -4.7636,10.22681 -6.8184,12.01909 -3.4372,2.99842 -4.0284,3.344 -4.8551,2.82732 -0.6336,-0.3964 -0.7979,-1.13499 -1.0029,-4.49254 -0.1355,-2.2107 -0.515,-5.77323 -0.8453,-7.91617 -0.6234,-4.04024 -0.4404,-14.84472 0.5675,-33.51792 0.5133,-9.53735 0.5065,-18.53938 -0.017,-22.35771 -0.8284,-6.02055 -3.1391,-15.38172 -4.5146,-18.29035 -1.633,-3.45412 -3.7692,-5.90367 -5.7309,-6.57281 -0.8063,-0.27613 -3.078,-0.51159 -5.0482,-0.52176 -2.9509,-0.0153 -4.0012,0.15755 -5.9561,0.97745 -2.8426,1.1909 -3.7472,2.37502 -5.2905,6.92855 -1.0875,3.20679 -1.0926,3.26947 -1.1722,15.3597 -0.044,6.67614 -0.09,13.01348 -0.1,14.08071 l -0.019,1.94305 -1.6923,-0.19312 c -3.0205,-0.34728 -6.893,-2.57492 -9.1478,-5.26333 -4.5806,-5.45306 -5.5394,-9.58139 -5.3937,-23.23351 0.1118,-10.64354 -0.1271,-12.40702 -2.3192,-17.04186 -1.079,-2.28693 -3.8725,-5.08207 -5.9358,-5.94602 -0.9944,-0.41334 -2.2954,-0.59291 -3.5981,-0.54548 z m 1.1977,4.36041 c 1.1621,0 1.5585,0.51837 1.2163,1.59577 -0.2846,0.89275 -0.9995,1.02488 -1.711,0.31339 -0.847,-0.84701 -0.5726,-1.90916 0.4947,-1.90916 z m -7.1454,5.65465 c 0.4133,-0.005 0.8351,0.37268 0.9351,1.07062 0.074,0.52006 -0.105,1.09434 -0.3981,1.2739 -0.7894,0.48788 -1.6669,-0.56919 -1.3366,-1.60932 0.1576,-0.49635 0.4777,-0.73181 0.7996,-0.7352 z m 14.0299,0.51498 a -2.2157809,2.2157809 0 0 1 0.498,0.0813 c 1.0503,0.27612 1.2417,1.07062 0.5082,2.11922 -0.603,0.86056 -0.6539,0.86734 -1.1655,0.1694 -0.293,-0.40317 -0.5319,-1.02657 -0.5319,-1.38571 0,-0.69963 0.1881,-0.99778 0.6912,-0.98422 z m -7.1098,4.24014 a -1.6381194,1.6381194 0 0 1 0.1965,0.0169 c 0.8639,0.12366 1.2823,1.12144 0.8944,2.13447 -0.3117,0.81143 -0.8978,0.71148 -1.5856,-0.26935 -0.703,-1.00456 -0.4387,-1.90239 0.4947,-1.88037 z m -5.8783,5.553 a -0.89783173,0.89783173 0 0 1 0.7996,0.41504 c 0.498,0.78433 0.4269,2.0955 -0.1457,2.66639 -0.3981,0.39809 -0.6403,0.32186 -1.2146,-0.38454 -0.393,-0.48619 -0.6607,-1.25528 -0.5963,-1.70927 0.086,-0.60138 0.6353,-0.97915 1.157,-0.98762 z m 12.7187,0.96221 c 0.2711,0.0102 0.5675,0.20667 0.7962,0.63356 0.559,1.04521 0.1762,2.0396 -0.7199,1.8702 -0.4117,-0.0779 -0.7488,-0.55903 -0.8199,-1.17226 -0.098,-0.83854 0.2913,-1.34675 0.7453,-1.3315 z m 28.4206,1.38232 c 0.7895,0 1.008,0.20328 1.008,0.93002 0,1.5297 -1.0554,1.98878 -1.9871,0.86564 -0.7081,-0.85209 -0.1948,-1.79566 0.9791,-1.79566 z m 9.1783,2.48005 c 0.1643,0 0.3455,0.0305 0.5437,0.0949 0.9267,0.29476 1.1045,1.37893 0.3473,2.13446 -0.7318,0.73352 -1.6822,0.38116 -1.8329,-0.6776 -0.1389,-0.98084 0.2304,-1.55173 0.9419,-1.55004 z m -44.4309,3.09328 c 0.6861,0 1.6043,1.20276 1.3722,1.80244 -0.288,0.75215 -1.0977,0.74876 -1.7262,-0.007 -0.5201,-0.62679 -0.2897,-1.79566 0.354,-1.79566 z m 6.7626,3.62013 a -6.9387146,6.9387146 0 0 1 0.5421,0.0356 c 1.5144,0.14568 1.9532,1.39756 0.869,2.48174 -0.6217,0.6217 -0.7149,0.62001 -1.4145,-0.0135 -0.4117,-0.37269 -0.7488,-1.10789 -0.7488,-1.63473 0,-0.68439 0.1051,-0.88089 0.7522,-0.87073 z m 42.2387,1.55341 c 0.9978,0 1.6348,1.16041 1.1418,2.07857 -0.5624,1.05368 -1.8804,0.89106 -2.17,-0.26596 -0.3033,-1.20276 0.044,-1.81261 1.0282,-1.81261 z m -12.7932,2.39535 c 0.2642,-0.003 0.6013,0.0762 1.0147,0.23547 0.8233,0.31509 0.8046,1.51615 -0.039,2.35977 -0.6268,0.62679 -0.703,0.6251 -1.1943,-0.0474 -0.2879,-0.3947 -0.5251,-1.1316 -0.5251,-1.63642 0,-0.60646 0.2405,-0.9063 0.7454,-0.91138 z m -31.5902,4.76867 c 1.1723,0 1.3349,0.95713 0.3456,2.04977 -0.8368,0.92494 -1.3399,0.5963 -1.3399,-0.8792 0,-0.98253 0.1592,-1.16887 0.996,-1.16887 z m -9.4018,0.3981 c 1.0046,0 1.3688,0.56919 1.0368,1.61779 -0.371,1.16888 -1.5585,0.80297 -1.711,-0.52515 -0.1,-0.87072 0.037,-1.09264 0.6725,-1.09264 z m 48.7523,2.78667 c 1.2366,0 1.6635,1.09095 0.7962,2.04807 -0.8572,0.94865 -1.2079,0.93002 -1.7533,-0.0898 -0.6065,-1.13161 -0.2033,-1.95829 0.9571,-1.95829 z m -9.9202,3.98095 c 1.2214,0 1.5754,0.54717 1.0232,1.58221 -0.5421,1.01134 -1.0537,1.02319 -1.5822,0.0339 -0.6404,-1.19598 -0.4947,-1.61779 0.559,-1.61779 z m -24.2313,1.59238 c 0.6149,0 1.0164,1.00455 0.7166,1.79058 -0.3287,0.85718 -0.7471,0.73521 -1.2468,-0.35913 -0.454,-0.99948 -0.2931,-1.43315 0.5302,-1.43315 z m -8.7801,2.28862 0.9469,0.77078 c 0.7014,0.57089 0.8725,0.99439 0.6675,1.63982 -0.31,0.97914 -1.3264,1.16887 -1.6568,0.30831 -0.1186,-0.31001 -0.1575,-1.0486 -0.086,-1.64151 z m 17.3925,0.53023 c 0.105,0 0.2321,0.0136 0.3862,0.0339 1.0537,0.14908 1.423,1.28407 0.7014,2.1531 -0.7285,0.88089 -1.3485,0.46925 -1.4925,-0.98931 -0.091,-0.93679 -0.053,-1.19598 0.4049,-1.19936 z m 30.7906,0.36422 c 0.6708,0 0.9723,0.22191 0.9723,0.71657 0,1.54833 -1.7533,2.25305 -2.1887,0.8792 -0.3421,-1.07571 0.056,-1.59577 1.2164,-1.59577 z m 34.0617,5.17354 c 0.869,0.0271 1.345,0.88089 0.991,1.80075 -0.1932,0.50481 -0.366,0.52175 -1.0368,0.10164 -0.4438,-0.27613 -0.8046,-0.81652 -0.8046,-1.20276 0,-0.43706 0.3015,-0.69963 0.808,-0.69963 z m -44.2225,1.19429 c 1.3823,0 1.8431,0.75214 1.1994,1.95829 -0.5082,0.95034 -0.5946,0.97406 -1.6348,0.41672 -0.4421,-0.23716 -0.7707,-0.83007 -0.7707,-1.39248 0,-0.82838 0.1897,-0.98253 1.2061,-0.98253 z m 37.8157,2.38857 c 0.5895,0 0.7792,0.27273 0.7792,1.11466 0,1.07401 -0.7318,2.26491 -1.1418,1.85665 -0.1101,-0.11011 -0.2473,-0.82329 -0.3066,-1.5856 -0.09,-1.14855 0.024,-1.38571 0.6692,-1.38571 z m -49.1707,0.44214 a -2.4258397,2.4258397 0 0 1 0.2947,0.0271 c 0.908,0.13044 1.34,1.10958 0.9436,2.14124 -0.2676,0.69794 -0.7233,0.73182 -1.3586,0.0966 -0.2626,-0.26257 -0.4777,-0.90122 -0.4777,-1.42128 0,-0.63187 0.1304,-0.8504 0.5963,-0.84193 z m -12.3308,0.59121 a -1.5110677,1.5110677 0 0 1 0.6657,0.20328 c 0.9877,0.52684 0.9013,1.77364 -0.1761,2.52918 -0.8216,0.57597 -0.9385,0.57088 -1.3959,-0.0559 -0.2744,-0.37607 -0.3846,-1.0503 -0.244,-1.50091 0.2474,-0.79619 0.6336,-1.1892 1.152,-1.17565 z m 33.6297,3.8251 a -0.64881048,0.64881048 0 0 1 0.4438,0.20837 c 0.51,0.5099 0.1949,1.6991 -0.4489,1.6991 -0.232,0 -0.5319,-0.27951 -0.6623,-0.6234 -0.2541,-0.66067 0.1795,-1.29423 0.6674,-1.28407 z m 37.8174,3.10006 c 1.0028,0 1.4382,1.00456 0.7792,1.79736 -0.6302,0.76231 -1.0435,0.75045 -1.345,-0.0373 -0.4439,-1.15701 -0.2491,-1.75839 0.5658,-1.75839 z m -45.5557,0.54548 c 0.1322,0.003 0.266,0.0847 0.3778,0.26427 0.3337,0.54208 -0.056,1.57883 -0.5929,1.57883 -0.2253,0 -0.41,-0.34558 -0.41,-0.77078 0,-0.64034 0.31,-1.0791 0.6251,-1.07232 z m 7.8704,5.45814 c 0.3473,-0.005 0.7251,0.16601 1.0673,0.57597 0.3845,0.46585 0.3981,0.84193 0.056,1.59238 -0.5285,1.1621 -1.4721,1.27898 -2.0227,0.25241 -0.6657,-1.24511 0.017,-2.4089 0.9012,-2.42246 z m -12.4171,2.15649 c 0.5963,0.0169 0.9774,0.27104 1.0621,0.71657 0.1372,0.71488 -0.5556,1.87189 -1.1214,1.87189 -0.166,0 -0.5167,-0.26087 -0.7793,-0.57935 -0.764,-0.91985 -0.3405,-2.00911 0.7793,-2.00911 z m 40.1788,2.31234 c 0.1745,-0.002 0.3964,0.083 0.7064,0.24902 0.9351,0.49974 1.1096,1.59577 0.3693,2.33606 -0.6675,0.66575 -1.0215,0.59629 -1.4975,-0.29476 -0.4964,-0.92663 -0.5065,-1.25019 -0.058,-1.9566 0.1406,-0.22361 0.2812,-0.33372 0.4811,-0.33372 z m 10.2149,4.85845 c 0.4168,0.003 0.8911,0.39302 0.8911,0.9656 0,1.24002 -1.0401,1.68555 -1.4484,0.62001 -0.1254,-0.32695 -0.127,-0.86226 0,-1.18582 a -0.5742735,0.5742735 0 0 1 0.559,-0.39809 z m -37.5463,1.99556 a -1.2417182,1.2417182 0 0 1 0.6387,0.19651 c 0.4353,0.26935 0.4455,0.53531 0.054,1.39587 -0.3998,0.8792 -0.5861,0.97915 -1.0706,0.57597 -0.3219,-0.26765 -0.5879,-0.80466 -0.5879,-1.1909 a -0.93510022,0.93510022 0 0 1 0.9656,-0.97745 z m -8.9597,4.96349 c 1.4061,0 1.6992,0.63187 0.9639,2.08873 -0.6098,1.20953 -0.9351,1.3315 -1.6465,0.61831 -0.2626,-0.26257 -0.4778,-0.97914 -0.4778,-1.59238 0,-0.96559 0.1525,-1.11297 1.1604,-1.11297 z m 43.0553,4.03685 c 0.2253,0.008 0.5235,0.25749 0.9487,0.72843 0.6776,0.74707 0.6776,0.83854 0.024,1.83802 -0.6149,0.9351 -0.7556,0.98422 -1.2875,0.4523 -0.4184,-0.41842 -0.5183,-0.97237 -0.3269,-1.83801 0.1779,-0.81313 0.3506,-1.1926 0.642,-1.18074 z m -10.4673,0.84701 c 0.2168,-0.003 0.4624,0.13553 0.6911,0.44553 0.4049,0.54886 0.4438,0.95712 0.1457,1.51615 -0.5201,0.97237 -1.3095,0.72843 -1.484,-0.45569 -0.1321,-0.90291 0.2033,-1.49921 0.6488,-1.50599 z m -24.7429,6.36106 c 0.5082,0.0136 0.9452,0.38623 0.9452,1.00286 0,0.68946 -0.6945,1.68216 -1.179,1.68216 -0.122,0 -0.4608,-0.37946 -0.7505,-0.84701 -0.4472,-0.71488 -0.4353,-0.93849 0.073,-1.44669 a -1.2501883,1.2501883 0 0 1 0.9114,-0.39132 z m -10.7943,1.97692 a -2.2445793,2.2445793 0 0 1 0.5979,0.1135 c 0.9656,0.30492 1.0063,0.89275 0.1356,1.85665 -0.759,0.83854 -1.7313,0.3405 -1.7313,-0.88936 0,-0.72335 0.3625,-1.10112 0.9994,-1.08079 z m 29.3574,4.74834 c 0.8334,0.0102 0.9876,1.07571 0.1982,1.86512 -0.3914,0.39132 -0.598,0.34897 -1.0012,-0.20328 -0.2795,-0.38116 -0.4472,-0.88089 -0.3727,-1.10789 0.074,-0.227 0.5252,-0.47094 1.0012,-0.54209 a -1.1045024,1.1045024 0 0 1 0.1762,-0.0102 z m 8.2668,0.7369 c 0.4337,0.0136 0.7809,0.24733 0.7809,0.53023 0,1.2197 -1.2874,1.3315 -1.5212,0.13214 -0.086,-0.44723 0.1406,-0.66067 0.6962,-0.66067 0.017,0 0.029,-0.003 0.042,0 z m -15.3953,4.42987 c 0.7166,0 0.8487,0.56919 0.4066,1.72621 -0.3846,0.99778 -1.5416,0.55564 -1.5416,-0.58952 0,-0.72335 0.2389,-1.02319 0.8928,-1.11636 a -1.760089,1.760089 0 0 1 0.2422,-0.0203 z m -24.7395,2.38688 a -1.0028611,1.0028611 0 0 1 0.1762,0.0186 c 0.8809,0.17279 1.5212,1.26374 1.2146,2.06671 -0.3303,0.85718 -0.7945,0.8216 -1.6567,-0.13044 -0.7624,-0.84193 -0.5642,-1.97523 0.2659,-1.9549 z m 13.725,0.74537 c 0.7284,0.0136 0.9215,0.22361 0.9215,0.96051 0,0.53023 -0.2236,1.04352 -0.4963,1.14177 -0.6996,0.25241 -1.4925,-0.46755 -1.4925,-1.35522 0,-0.53192 0.2863,-0.74537 0.9944,-0.74537 z m 15.8865,4.77714 c 0.93,0 1.1181,1.15194 0.3321,2.01928 -0.6319,0.69793 -0.7624,0.71826 -1.0673,0.17448 -0.1914,-0.3388 -0.2338,-0.97406 -0.096,-1.40604 0.1372,-0.43367 0.5116,-0.78941 0.8334,-0.78941 z m -24.3126,2.55797 c 0.6556,0 1.3891,0.57089 1.3891,1.1926 0,0.48957 -0.7843,1.42297 -1.1943,1.42297 -0.1304,0 -0.454,-0.21514 -0.7165,-0.47771 -0.681,-0.681 -0.5913,-1.78211 0.1694,-2.07348 a -0.98253284,0.98253284 0 0 1 0.3523,-0.0627 z m -5.3531,6.19674 c 0.4828,0 0.7708,0.27443 0.7708,0.73012 0,1.3044 -0.781,1.64151 -1.5771,0.681 -0.6014,-0.72504 -0.2118,-1.41112 0.8046,-1.41112 z m 13.6962,6.688 c 0.1558,0 0.3456,0.14399 0.6522,0.40656 0.7453,0.64034 1.0062,2.07179 0.4726,2.60541 -0.4371,0.43536 -1.384,0.11858 -1.8499,-0.62001 -0.3049,-0.48619 -0.2778,-0.93849 0.1017,-1.64829 0.2761,-0.51498 0.4235,-0.74537 0.6234,-0.74537 z m -10.464,2.30387 a -1.224778,1.224778 0 0 1 0.2998,0.0406 c 0.5184,0.13553 0.8216,0.54209 0.8216,1.09773 0,1.52123 -0.9266,1.8143 -1.7279,0.54717 -0.5251,-0.83346 -0.1626,-1.68725 0.6065,-1.68555 z m 4.4316,11.32792 c 0.2032,0.008 0.476,0.0847 0.8351,0.22023 0.742,0.28629 0.8352,1.7838 0.1525,2.46649 -0.6048,0.60477 -0.7962,0.59799 -1.694,-0.0593 -0.5083,-0.37268 -0.593,-0.6234 -0.2745,-0.81991 0.2507,-0.15585 0.4574,-0.63017 0.4574,-1.05537 0,-0.53192 0.1355,-0.76739 0.5252,-0.75215 z"
   fill="#ffffff"
   id="path369"
   style="stroke-width:1.69402" />
</svg>
