<svg xml:space="preserve" version="1.1" id="svg59" xmlns="http://www.w3.org/2000/svg" viewBox="0 0 2069 400">
    <path d="M236.344 147.291c-1.36-.036-2.683-.585-3.727-1.442-.499-.384-.748-.981-.85-1.587-.461-2.343-.474-4.742-.555-7.12-.035-2.482-.103-4.97.068-7.447.03-.193.092-.392-.164-.281-1.014.136-2.047.36-3.07.2-1.104-.24-2.101-.802-3.12-1.27a31.244 31.244 0 0 1-8.525-6.06c-1.154-1.127-2.339-2.28-3.063-3.746-2.154-4.123-3.651-8.569-4.658-13.104-.76-3.51-1.188-7.144-.71-10.726.38-2.98.995-5.926 1.618-8.863.408-1.711.778-3.475 1.655-5.02a4.302 4.302 0 0 1 3.532-2.175c2.06-.112 4.007.938 5.468 2.318.856.797 1.799 1.626 2.105 2.804.406 1.493.346 3.059.392 4.591.045 3.762-.04 7.527.135 11.286.077 1.782.39 3.55.963 5.24a23.6 23.6 0 0 0 2.008 4.68c.624 1.078 1.256 2.191 2.18 3.044.655.53 1.25 1.162 2.002 1.552.182-.194.144-.525.2-.775.137-1.57.222-3.144.428-4.708.122-1.024.31-2.109.338-3.098.138-3.651-.018-7.31-.153-10.95-.24-6.143-.768-12.289-.483-18.44.108-2.402.64-4.76 1.159-7.1.462-1.899.914-3.815 1.657-5.627.708-1.515 1.632-3.017 3.04-3.975.932-.632 2.104-.621 3.185-.707 1.454-.048 2.973-.088 4.333.515 1.055.387 2.068 1.027 2.628 2.032.649 1.117 1.03 2.364 1.41 3.59.394 1.532.318 3.13.364 4.697.042 4.086.058 8.172.093 12.258 1.708-.165 3.272-1.054 4.543-2.17.619-.554 1.125-1.217 1.61-1.887.185-.267.432-.643.61-.973 1.226-2.178 1.401-4.738 1.503-7.184.09-2.578-.017-5.237.036-7.847.034-1.834.194-3.708.943-5.406.402-1.006.905-1.983 1.64-2.79.982-1.09 2.17-2.166 3.673-2.4 1.6-.256 3.37-.028 4.677.993 1.335 1.034 2.452 2.372 3.188 3.895.49 1.023.67 2.158.676 3.284.046 2.53.024 5.064-.02 7.595-.041 2.302-.255 4.608-.81 6.847-.475 1.965-.974 3.926-1.56 5.86-.335 1.144-.952 2.18-1.715 3.088-1.71 2.158-3.494 4.318-5.78 5.893-1.788 1.253-3.686 2.34-5.598 3.39-1.394.773-2.954 1.146-4.501 1.47-1.532.357-3.072.824-4.412 1.669-.232.168-.526.347-.498.675-.245 2.535-.173 5.086-.243 7.63-.056 3.855-.205 7.708-.268 11.563-.044 2.445.213 4.882.479 7.293.442 3.874.682 7.77.693 11.67.012 2.453.07 4.907.053 7.36-.013.933-.306 1.904-1.02 2.542-.876.802-1.927 1.384-2.959 1.958-.98.547-2.108.68-3.205.807-.63.086-1.258.212-1.847.454-.577.145-1.18.155-1.771.135z" id="path55"/>
    <path d="M263.824 50.478c-.225.004-.45.02-.673.044-1.53.096-2.878.973-3.926 2.04a9.395 9.395 0 0 0-2.19 3.217c-.67 1.438-1 3.024-1.094 4.608-.227 4.138.19 8.304-.346 12.426-.062.41-.158.96-.277 1.416-.38 1.651-1.28 3.13-2.387 4.395-1.084 1.183-2.493 2.116-4.063 2.494-.027-3.548-.049-7.096-.08-10.643-.052-1.798.054-3.62-.315-5.392-.34-1.263-.75-2.52-1.343-3.69-.563-1.222-1.672-2.115-2.912-2.594-1.345-.634-2.858-.726-4.322-.675-1.23.067-2.528.046-3.658.606-1.63.914-2.715 2.537-3.512 4.184-.71 1.546-1.13 3.209-1.55 4.854-.59 2.461-1.168 4.94-1.402 7.466-.252 3.78-.135 7.574.035 11.355.254 5.347.57 10.684.592 16.034-.02 1.49.01 2.953-.182 4.42-.298 2.013-.463 4.043-.616 6.065-.66-.576-1.383-1.1-1.9-1.82-.998-1.372-1.801-2.882-2.47-4.44-.757-1.859-1.369-3.797-1.595-5.798-.12-.966-.13-1.865-.172-2.836-.087-2.971-.05-6.031-.073-9.037-.044-1.758.04-3.543-.345-5.27-.234-1.265-1.113-2.267-2.035-3.105-1.493-1.48-3.42-2.67-5.563-2.791-1.665-.15-3.38.584-4.389 1.922-1.097 1.535-1.537 3.413-1.972 5.218-.645 2.896-1.243 5.806-1.66 8.744-.55 3.415-.303 6.907.339 10.29.966 4.95 2.523 9.804 4.819 14.302.681 1.495 1.793 2.733 2.96 3.866 2.305 2.357 4.952 4.382 7.86 5.94 1.2.62 2.398 1.235 3.662 1.713 1.128.457 2.368.317 3.538.134-.105 1.804-.092 3.612-.065 5.418.049 2.46.065 4.928.357 7.374.173 1.07.22 2.262.981 3.111a6.782 6.782 0 0 0 4.453 1.894c.391.01.784.013 1.174-.025.565-.021 1.075-.262 1.613-.4 1.29-.286 2.658-.266 3.883-.818 1.14-.568 2.26-1.209 3.251-2.015.914-.672 1.434-1.77 1.517-2.887.055-1.887-.002-3.776-.013-5.664-.014-3.18-.062-6.361-.31-9.532-.238-3.528-.83-6.996-.882-10.524.015-3.487.162-6.972.23-10.458.07-2.602.058-5.232.15-7.808.033-.585.069-1.279.132-1.904 1.08-.782 2.375-1.2 3.648-1.548 1.64-.404 3.33-.692 4.863-1.434 1.959-1.029 3.882-2.134 5.718-3.371 2.313-1.49 4.175-3.553 5.879-5.688.848-1.025 1.687-2.092 2.155-3.353.618-1.821 1.073-3.694 1.545-5.558.524-1.953.863-3.956.983-5.976.139-2.443.116-4.892.126-7.338-.042-1.646.104-3.337-.414-4.927-.642-1.862-1.894-3.476-3.389-4.736-1.183-1.07-2.792-1.53-4.368-1.495zm.344 1.294c.77.028 1.54.189 2.134.476 1.39.673 3.226 2.753 3.872 4.39.475 1.2.533 1.751.53 4.99-.008 8.667-.082 9.344-1.65 15.262-.97 3.667-1.095 3.945-2.606 5.828-3.232 4.027-4.469 5.077-9.227 7.837-2.588 1.501-3.196 1.74-5.893 2.32-2.61.56-5.001 1.635-5.434 2.443-.157.295-.276 2.313-.305 5.189a653.394 653.394 0 0 1-.228 10.697c-.167 5.563-.136 6.386.426 11.513.435 3.972.619 7.004.655 10.807l.068 7.092c.023 2.236-.28 2.706-2.663 4.152-1.414.857-1.99 1.063-3.435 1.224-.956.108-1.945.306-2.2.442-.524.28-2.197.296-3.078.028-1.076-.327-2.104-.958-2.47-1.516-.221-.339-.45-1.564-.591-3.18-.284-3.226-.351-11.081-.107-12.328l.18-.915-.679.165c-.373.091-1.281.224-2.019.296-1.204.118-1.538.04-3.289-.768-3.658-1.687-6.422-3.57-9.12-6.21-2.375-2.325-2.605-2.635-3.831-5.17-2.348-4.852-4.219-11.42-4.67-16.396-.323-3.567-.084-5.873 1.337-12.84.919-4.507 1.57-6.334 2.61-7.322 1.764-1.677 4.83-1.19 7.316 1.16 2.361 2.233 2.293 1.902 2.31 11.087.016 8.618.117 9.593 1.39 13.413.87 2.614 2.812 6.037 4.025 7.095 2.029 1.77 2.378 1.974 2.866 1.668.374-.233.471-.668.591-2.652a61.69 61.69 0 0 1 .5-4.673c.368-2.384.26-8.762-.335-19.785-.304-5.63-.299-10.944.01-13.199.489-3.553 1.853-9.078 2.665-10.796.964-2.039 2.225-3.485 3.384-3.881.476-.162 1.817-.301 2.98-.307 1.741-.01 2.361.093 3.516.576 1.677.704 2.211 1.403 3.122 4.09.642 1.894.645 1.931.692 9.068.026 3.941.053 7.681.06 8.312l.01 1.147 1-.114c1.782-.205 4.068-1.52 5.4-3.107 2.703-3.22 3.269-5.656 3.184-13.715-.067-6.283.075-7.325 1.368-10.06.638-1.35 2.287-3 3.505-3.51.586-.245 1.354-.35 2.123-.323zm-.707 2.573c-.686 0-.92.307-.718.942.168.528.59.605 1.01.186.5-.5.337-1.128-.292-1.128zm4.218 3.339c-.245-.003-.494.22-.552.631-.044.307.062.646.235.753.466.288.984-.336.788-.95-.092-.294-.28-.432-.471-.434zm-8.282.303a1.308 1.308 0 0 0-.294.05c-.621.162-.733.63-.3 1.25.356.508.385.512.687.099.174-.237.315-.605.315-.818 0-.412-.112-.588-.408-.58zm4.197 2.503a.967.967 0 0 0-.116.01c-.51.074-.757.662-.528 1.26.184.479.53.42.936-.158.415-.593.258-1.123-.292-1.111zm3.47 3.279a.53.53 0 0 0-.472.245c-.294.463-.252 1.237.086 1.574.235.235.378.19.716-.228.232-.287.39-.74.352-1.008-.051-.356-.375-.578-.682-.583zm-7.509.568c-.16.005-.334.122-.47.373-.33.617-.103 1.205.426 1.104.243-.046.441-.33.483-.691.058-.496-.171-.795-.439-.786zm-16.776.816c-.467 0-.595.119-.595.549 0 .902.622 1.174 1.173.511.417-.503.114-1.06-.578-1.06zm-5.419 1.464c-.096 0-.204.018-.32.056-.548.174-.652.813-.206 1.26.433.432.993.225 1.083-.4.082-.579-.137-.916-.556-.916zm26.229 1.825c-.406 0-.947.71-.811 1.064.17.445.65.443 1.02-.003.307-.37.171-1.06-.21-1.06zm-3.992 2.138a4.096 4.096 0 0 0-.32.021c-.894.086-1.153.825-.513 1.465.367.367.421.366.835-.008.243-.22.442-.654.442-.965 0-.404-.062-.52-.444-.514zm-24.934.916c-.589 0-.965.685-.675 1.228.333.621 1.11.526 1.282-.157.178-.71-.026-1.07-.607-1.07zm7.551 1.414c-.156-.001-.354.046-.598.14-.487.186-.475.895.023 1.393.37.37.415.368.705-.028.17-.233.31-.668.31-.966 0-.359-.141-.536-.44-.539zm18.648 2.816c-.692 0-.787.565-.203 1.21.494.546.791.352.791-.52 0-.58-.094-.69-.588-.69zm5.55.235c-.592 0-.807.335-.61.955.218.69.918.474 1.009-.311.059-.513-.022-.644-.398-.644zm-28.778 1.645c-.731 0-.982.644-.471 1.208.507.56.714.55 1.036-.052.357-.668.12-1.157-.565-1.157zm5.856 2.35c-.721 0-.93.323-.604.934.32.596.622.603.933.02.378-.706.293-.955-.33-.955zm14.304.939c-.363 0-.601.594-.423 1.057.194.507.441.435.736-.212.268-.589.173-.845-.313-.845zm5.183 1.352-.559.454c-.414.338-.516.587-.395.969.184.578.784.69.979.182.07-.183.093-.62.051-.969zm-10.268.312a1.77 1.77 0 0 0-.227.02c-.622.089-.84.758-.415 1.272.431.52.797.277.882-.584.054-.553.03-.707-.24-.708zm-18.175.216c-.396 0-.574.13-.574.422 0 .915 1.034 1.33 1.292.52.201-.636-.033-.942-.718-.942zm-20.107 3.054c-.513.016-.794.52-.586 1.063.115.298.217.307.613.06.262-.163.475-.482.475-.71 0-.259-.178-.413-.477-.413zm26.105.705c-.817 0-1.088.444-.708 1.156.3.561.35.574.965.245.26-.14.455-.49.455-.822 0-.488-.112-.579-.712-.579zm-22.324 1.41c-.347 0-.46.161-.46.658 0 .634.433 1.337.674 1.096.065-.065.146-.486.182-.936.053-.678-.014-.819-.395-.819zm29.027.261a1.432 1.432 0 0 0-.174.016c-.537.076-.791.654-.558 1.264.159.412.428.431.803.057.155-.155.281-.533.281-.839 0-.373-.077-.502-.352-.498zm7.279.349a.891.891 0 0 0-.394.119c-.583.312-.53 1.048.105 1.493.485.34.553.337.824-.033.162-.221.227-.62.144-.885-.146-.47-.374-.702-.68-.694zm-19.852 2.258a.382.382 0 0 0-.263.123c-.3.3-.115 1.002.266 1.002.137 0 .313-.165.39-.367.151-.391-.105-.765-.393-.758zm-22.325 1.83c-.591 0-.848.593-.46 1.06.373.45.617.443.795-.022.262-.682.147-1.038-.335-1.038zm26.893.321c-.078.002-.157.05-.223.157-.197.32.033.932.35.932.133 0 .242-.205.242-.456 0-.377-.183-.636-.369-.633zm-4.647 3.222c-.204-.003-.427.098-.628.341-.229.275-.236.496-.034.94.312.686.869.755 1.194.149.393-.735-.008-1.422-.532-1.43zm7.331 1.274c-.352.01-.577.16-.628.422-.081.423.328 1.105.663 1.105.098 0 .305-.153.46-.341.451-.543.201-1.186-.46-1.186zm-23.718 1.364c-.104 0-.235.05-.417.147-.552.296-.655.943-.218 1.38.394.393.603.352.884-.174.293-.547.299-.739.034-1.155-.083-.132-.166-.197-.284-.198zm-6.03 2.87c-.247.001-.527.231-.527.568 0 .733.614.996.855.367h.001c.074-.194.075-.51.001-.701a.338.338 0 0 0-.33-.235zm22.164 1.177a.733.733 0 0 0-.377.115c-.258.16-.264.317-.032.825.236.518.346.577.632.34.19-.158.347-.475.347-.704a.551.551 0 0 0-.57-.576zm5.289 2.93c-.83 0-1.003.373-.569 1.233.36.713.551.785.972.365.155-.155.282-.578.282-.94 0-.57-.092-.658-.685-.658zm-25.416 2.383c-.133.005-.31.152-.56.43-.4.44-.4.495-.014 1.085.362.552.445.581.76.266.247-.246.305-.574.193-1.084-.105-.48-.207-.705-.38-.697zm6.178.5c-.128-.002-.272.08-.407.263-.24.324-.263.565-.086.895.307.573.774.43.876-.269.078-.533-.12-.885-.383-.89zm14.606 3.754c-.3.008-.557.229-.557.592 0 .407.41.994.696.994.072 0 .272-.225.443-.5.264-.422.257-.554-.043-.854a.738.738 0 0 0-.539-.232zm6.373 1.168a1.325 1.325 0 0 0-.353.067c-.57.18-.595.526-.08 1.095.448.496 1.022.202 1.022-.524 0-.428-.214-.65-.59-.638zm-17.33 2.803c-.492.006-.583.635-.117 1.101.23.23.352.206.59-.12.165-.226.264-.52.22-.654-.044-.135-.31-.279-.59-.32a.652.652 0 0 0-.104-.006zm-4.88.435c-.256.008-.461.146-.461.313 0 .72.76.786.898.078.05-.264-.083-.391-.411-.391h-.026zm9.088 2.615c-.423 0-.501.335-.24 1.018.227.59.91.329.91-.347 0-.427-.141-.605-.528-.66a1.039 1.039 0 0 0-.142-.01zm14.603 1.409a.592.592 0 0 0-.103.01c-.52.103-.898.747-.717 1.22.195.506.469.485.977-.076.45-.498.333-1.166-.157-1.155zm-8.101.44c-.43.008-.545.132-.545.567 0 .312.132.616.294.674.413.149.88-.277.88-.8 0-.314-.168-.441-.586-.441zm-9.379 2.82c-.548 0-.66.68-.195 1.192.372.412.45.424.63.103.113-.201.138-.575.057-.83-.082-.257-.303-.466-.492-.466zm14.353 1.51c-.388 0-.82.337-.82.703 0 .29.462.84.705.84.077 0 .268-.126.423-.281.402-.402.348-1.052-.1-1.225a.58.58 0 0 0-.208-.037zm3.16 3.658c-.285 0-.456.162-.456.431 0 .77.462.969.932.402.355-.428.124-.833-.475-.833zm-8.086 3.947c-.092.001-.203.086-.384.241-.441.378-.595 1.222-.28 1.538.259.257.818.07 1.092-.366.181-.287.165-.554-.06-.974-.162-.303-.249-.44-.368-.439zm6.178 1.36a.723.723 0 0 0-.178.025c-.305.08-.484.32-.484.648 0 .898.547 1.071 1.019.323.31-.492.096-.996-.357-.995zm-2.616 6.687c-.12.005-.281.05-.494.131-.438.168-.492 1.053-.09 1.455.358.358.47.354 1.001-.034.3-.22.35-.368.163-.484-.149-.092-.27-.372-.27-.623 0-.314-.08-.453-.31-.445z" fill="#fff" id="path57"/>
    <path d="M973.679 350.694c-1.359-.036-2.682-.585-3.727-1.442-.498-.385-.748-.982-.85-1.587-.46-2.343-.474-4.743-.554-7.121-.036-2.481-.104-4.969.067-7.446.03-.193.093-.392-.164-.282-1.014.137-2.047.36-3.07.201-1.104-.24-2.101-.803-3.119-1.27a31.244 31.244 0 0 1-8.525-6.06c-1.155-1.128-2.34-2.28-3.064-3.746-2.154-4.123-3.65-8.57-4.658-13.104-.76-3.511-1.188-7.145-.71-10.727.38-2.98.996-5.925 1.618-8.862.409-1.712.778-3.475 1.655-5.02a4.302 4.302 0 0 1 3.533-2.175c2.06-.113 4.007.937 5.468 2.318.855.797 1.798 1.626 2.104 2.804.406 1.492.346 3.058.393 4.591.045 3.762-.04 7.527.135 11.286.077 1.781.39 3.55.962 5.24.48 1.596 1.18 3.2 2.008 4.68.625 1.077 1.256 2.191 2.181 3.043.654.53 1.249 1.162 2.001 1.553.183-.194.144-.525.2-.776.138-1.57.222-3.144.428-4.707.123-1.024.311-2.11.338-3.098.139-3.651-.017-7.31-.152-10.95-.241-6.143-.768-12.289-.484-18.44.108-2.403.64-4.76 1.16-7.1.462-1.9.913-3.815 1.657-5.627.708-1.515 1.632-3.017 3.039-3.975.933-.632 2.104-.621 3.185-.708 1.454-.048 2.974-.087 4.333.516 1.055.387 2.069 1.027 2.628 2.031.65 1.117 1.03 2.365 1.411 3.592.393 1.53.317 3.128.363 4.696.042 4.086.058 8.172.094 12.258 1.708-.166 3.272-1.055 4.543-2.17.618-.554 1.124-1.218 1.609-1.888.185-.266.432-.642.61-.972 1.226-2.179 1.402-4.739 1.503-7.184.09-2.579-.017-5.238.036-7.848.034-1.833.194-3.708.943-5.405.402-1.007.906-1.983 1.64-2.79.983-1.09 2.17-2.167 3.674-2.4 1.6-.256 3.37-.029 4.676.993 1.336 1.034 2.453 2.372 3.188 3.895.49 1.023.67 2.158.677 3.283a216.12 216.12 0 0 1-.02 7.596c-.041 2.301-.256 4.608-.81 6.847-.476 1.965-.974 3.926-1.56 5.86-.335 1.144-.952 2.18-1.715 3.088-1.711 2.158-3.494 4.318-5.781 5.893-1.788 1.253-3.685 2.34-5.597 3.39-1.394.773-2.954 1.146-4.502 1.469-1.531.358-3.072.825-4.411 1.67-.233.167-.527.347-.498.675-.246 2.535-.174 5.086-.243 7.629-.057 3.855-.205 7.708-.268 11.563-.045 2.445.212 4.883.478 7.293.443 3.875.682 7.771.694 11.67.012 2.454.07 4.907.053 7.36-.014.934-.306 1.905-1.021 2.543-.876.802-1.926 1.384-2.958 1.958-.981.546-2.109.68-3.205.807-.63.085-1.258.211-1.848.453-.577.146-1.179.155-1.77.136z" id="path363"/>
    <path d="M1001.16 253.88c-.226.005-.451.02-.673.045-1.53.095-2.879.973-3.927 2.04a9.395 9.395 0 0 0-2.19 3.216c-.67 1.44-.999 3.025-1.094 4.609-.227 4.138.19 8.304-.345 12.426-.063.41-.159.96-.277 1.416-.38 1.651-1.28 3.13-2.387 4.395-1.084 1.182-2.493 2.116-4.064 2.493-.026-3.547-.048-7.095-.08-10.643-.052-1.798.055-3.619-.315-5.391-.34-1.263-.75-2.52-1.343-3.69-.563-1.223-1.672-2.115-2.912-2.594-1.344-.635-2.857-.726-4.321-.676-1.23.068-2.528.046-3.659.607-1.63.914-2.715 2.536-3.511 4.183-.712 1.547-1.131 3.21-1.55 4.854-.59 2.462-1.169 4.94-1.402 7.467-.252 3.78-.135 7.574.035 11.355.254 5.347.569 10.684.59 16.034-.02 1.49.01 2.952-.18 4.42-.298 2.012-.464 4.043-.617 6.065-.66-.577-1.383-1.1-1.9-1.82-.998-1.373-1.801-2.883-2.47-4.44-.757-1.859-1.368-3.797-1.595-5.799-.12-.966-.13-1.864-.172-2.835-.087-2.971-.05-6.032-.073-9.037-.044-1.759.04-3.543-.345-5.27-.234-1.265-1.113-2.267-2.035-3.105-1.492-1.48-3.42-2.67-5.563-2.792-1.665-.149-3.379.585-4.388 1.922-1.098 1.536-1.538 3.413-1.972 5.219-.646 2.896-1.244 5.805-1.661 8.744-.55 3.415-.303 6.907.34 10.29.965 4.95 2.522 9.804 4.818 14.302.682 1.495 1.793 2.733 2.961 3.865 2.305 2.358 4.952 4.383 7.86 5.94 1.2.62 2.397 1.236 3.661 1.713 1.128.458 2.368.318 3.538.135-.105 1.803-.091 3.612-.065 5.418.05 2.46.065 4.928.358 7.374.172 1.07.22 2.262.98 3.111a6.782 6.782 0 0 0 4.453 1.894c.392.01.784.013 1.175-.025.564-.022 1.074-.262 1.612-.4 1.29-.286 2.658-.266 3.883-.818 1.14-.568 2.26-1.21 3.251-2.015.914-.673 1.435-1.77 1.518-2.887.054-1.887-.002-3.777-.014-5.665-.013-3.179-.062-6.36-.31-9.531-.237-3.528-.83-6.996-.882-10.524.015-3.487.163-6.972.23-10.458.07-2.602.058-5.232.15-7.808.033-.585.07-1.28.133-1.904 1.079-.782 2.374-1.2 3.647-1.548 1.64-.405 3.33-.693 4.863-1.434 1.96-1.029 3.883-2.135 5.719-3.371 2.313-1.49 4.175-3.553 5.878-5.688.849-1.025 1.687-2.092 2.156-3.353.618-1.821 1.072-3.694 1.545-5.558.523-1.954.862-3.956.982-5.976.139-2.443.116-4.892.126-7.338-.042-1.646.104-3.338-.414-4.928-.641-1.861-1.893-3.475-3.389-4.735-1.183-1.07-2.792-1.53-4.368-1.496zm.343 1.295c.77.028 1.54.188 2.134.476 1.39.673 3.226 2.753 3.872 4.389.475 1.2.533 1.752.53 4.991-.01 8.666-.08 9.343-1.649 15.262-.971 3.667-1.095 3.944-2.607 5.828-3.232 4.027-4.469 5.077-9.227 7.837-2.587 1.5-3.196 1.74-5.892 2.32-2.61.56-5.002 1.635-5.434 2.443-.158.295-.277 2.312-.306 5.188a653.394 653.394 0 0 1-.227 10.697c-.167 5.564-.137 6.387.425 11.513.435 3.972.62 7.005.655 10.808l.068 7.092c.023 2.236-.279 2.706-2.663 4.152-1.414.857-1.989 1.062-3.435 1.224-.955.107-1.945.306-2.2.442-.523.28-2.197.296-3.078.028-1.076-.328-2.104-.959-2.469-1.516-.222-.339-.45-1.564-.592-3.18-.283-3.226-.35-11.081-.106-12.328l.18-.916-.68.166c-.372.09-1.28.224-2.018.296-1.204.118-1.54.04-3.29-.768-3.657-1.687-6.422-3.57-9.12-6.21-2.375-2.326-2.604-2.635-3.83-5.17-2.349-4.852-4.22-11.42-4.67-16.397-.324-3.566-.085-5.872 1.336-12.84.92-4.507 1.57-6.333 2.61-7.321 1.764-1.677 4.831-1.191 7.317 1.16 2.36 2.233 2.292 1.901 2.31 11.087.015 8.617.116 9.593 1.388 13.412.871 2.615 2.814 6.038 4.026 7.096 2.029 1.77 2.378 1.973 2.867 1.668.374-.234.47-.669.59-2.652.08-1.305.305-3.408.5-4.673.368-2.384.26-8.762-.334-19.785-.304-5.63-.3-10.944.01-13.2.488-3.552 1.852-9.078 2.665-10.796.964-2.038 2.225-3.485 3.383-3.88.476-.163 1.817-.301 2.98-.308 1.742-.009 2.362.093 3.516.577 1.677.703 2.212 1.403 3.123 4.09.642 1.893.644 1.931.692 9.067.026 3.942.052 7.682.059 8.313l.01 1.147 1-.115c1.783-.205 4.069-1.52 5.4-3.106 2.703-3.22 3.269-5.656 3.184-13.715-.066-6.284.075-7.325 1.368-10.06.638-1.35 2.287-3.001 3.505-3.51.586-.245 1.354-.35 2.124-.323zm-.707 2.573c-.685 0-.92.307-.718.942.168.528.59.605 1.01.185.5-.5.338-1.127-.291-1.127zm4.218 3.338c-.244-.003-.493.221-.552.632-.044.307.062.646.235.753.466.288.984-.336.789-.951-.093-.293-.281-.432-.472-.434zm-8.282.304a1.308 1.308 0 0 0-.294.049c-.62.162-.733.631-.3 1.25.357.509.386.512.688.1.173-.238.314-.606.314-.818 0-.413-.111-.588-.408-.58zm4.197 2.503a.967.967 0 0 0-.116.01c-.51.074-.757.662-.528 1.26.184.479.53.42.936-.158.415-.593.259-1.123-.292-1.111zm3.47 3.279a.53.53 0 0 0-.471.244c-.294.464-.252 1.237.086 1.575.235.235.378.189.716-.228.232-.287.39-.74.352-1.008-.051-.356-.375-.579-.682-.583zm-7.508.568c-.16.006-.335.121-.47.373-.33.617-.103 1.205.425 1.104.243-.046.442-.33.484-.692.057-.495-.172-.795-.44-.785zm-16.777.816c-.466 0-.595.118-.595.548 0 .903.623 1.175 1.173.512.418-.503.115-1.06-.578-1.06zm-5.418 1.464a1.07 1.07 0 0 0-.321.055c-.547.174-.652.814-.205 1.26.433.433.993.226 1.082-.4.082-.578-.136-.915-.556-.915zm26.228 1.825c-.405 0-.946.71-.81 1.064.17.444.649.443 1.02-.004.306-.37.17-1.06-.21-1.06zm-3.992 2.137a4.096 4.096 0 0 0-.32.022c-.894.086-1.153.825-.513 1.465.367.367.422.366.835-.008.243-.22.442-.654.442-.965 0-.404-.061-.52-.444-.514zm-24.934.917c-.589 0-.965.685-.674 1.228.332.621 1.11.525 1.281-.157.179-.71-.026-1.07-.607-1.07zm7.552 1.414c-.156-.002-.355.046-.599.14-.486.186-.475.895.024 1.393.37.37.414.368.705-.029.17-.232.31-.667.31-.966 0-.358-.142-.535-.44-.538zm18.648 2.816c-.692 0-.787.565-.204 1.21.494.546.791.351.791-.52 0-.58-.094-.69-.588-.69zm5.55.234c-.593 0-.808.336-.612.956.22.69.92.474 1.01-.311.059-.513-.022-.645-.397-.645zm-28.778 1.645c-.732 0-.983.645-.472 1.21.507.559.714.548 1.036-.053.358-.668.12-1.157-.564-1.157zm5.855 2.35c-.721 0-.93.324-.604.934.32.597.622.604.934.021.378-.707.292-.955-.33-.955zm14.304.94c-.363 0-.6.594-.423 1.057.194.507.441.435.736-.212.269-.59.174-.845-.313-.845zm5.183 1.352-.558.454c-.415.337-.516.587-.395.969.183.577.784.689.978.181.07-.183.093-.618.051-.968zm-10.267.312c-.063 0-.137.008-.228.02-.622.089-.84.758-.414 1.271.43.52.797.278.881-.584.055-.553.03-.706-.239-.707zm-18.176.215c-.396 0-.574.131-.574.423 0 .914 1.035 1.33 1.292.52.202-.636-.033-.943-.718-.943zm-20.107 3.055c-.513.015-.794.52-.585 1.063.114.298.217.307.612.06.262-.163.476-.483.476-.71 0-.259-.18-.413-.478-.413zm26.105.705c-.816 0-1.088.444-.707 1.156.3.56.35.574.965.245.26-.14.454-.49.454-.822 0-.488-.111-.58-.712-.58zm-22.323 1.41c-.347 0-.46.16-.46.657 0 .635.432 1.338.674 1.096.065-.064.146-.485.181-.936.054-.677-.014-.818-.395-.818zm29.027.26a1.432 1.432 0 0 0-.175.016c-.536.077-.791.655-.557 1.264.158.413.427.432.802.057.155-.155.282-.532.282-.838 0-.373-.077-.502-.352-.498zm7.278.35a.892.892 0 0 0-.393.119c-.583.312-.532 1.048.105 1.493.484.34.553.337.823-.033.162-.222.227-.62.144-.886-.146-.47-.374-.701-.68-.694zm-19.852 2.258a.382.382 0 0 0-.262.122c-.301.301-.115 1.003.265 1.003.138 0 .314-.165.391-.368.15-.39-.106-.764-.394-.757zm-22.324 1.83c-.592 0-.849.593-.46 1.06.372.45.616.443.794-.022.262-.682.147-1.038-.334-1.038zm26.892.321c-.078.002-.157.05-.222.157-.198.319.032.932.349.932.133 0 .242-.205.242-.456 0-.377-.183-.636-.369-.633zm-4.646 3.222c-.205-.003-.428.098-.63.34-.227.275-.235.497-.033.941.313.685.87.755 1.194.148.393-.734-.008-1.421-.531-1.429zm7.33 1.274c-.352.009-.577.16-.627.422-.082.422.328 1.105.662 1.105.098 0 .305-.154.461-.342.45-.542.2-1.185-.46-1.185zm-23.718 1.364c-.103 0-.234.05-.417.147-.552.295-.655.942-.218 1.379.394.394.603.353.884-.173.293-.547.299-.739.035-1.155-.084-.132-.166-.198-.284-.198zm-6.03 2.869c-.246.002-.526.232-.526.57 0 .732.614.994.855.366.075-.194.075-.51.001-.701a.338.338 0 0 0-.33-.235zm22.164 1.177a.733.733 0 0 0-.377.116c-.257.16-.263.317-.032.825.236.518.346.577.632.34.19-.159.348-.475.348-.704 0-.355-.26-.58-.57-.577zm5.29 2.93c-.832 0-1.004.374-.57 1.234.36.713.552.785.972.364.155-.155.282-.578.282-.94 0-.57-.091-.657-.685-.657zm-25.417 2.383c-.133.005-.309.153-.56.43-.4.441-.4.495-.013 1.085.362.553.445.582.76.267.247-.247.305-.574.193-1.084-.106-.48-.208-.705-.38-.697zm6.179.5c-.128-.001-.272.08-.408.263-.239.325-.262.566-.085.895.306.574.773.431.875-.268.078-.533-.12-.885-.382-.89zm14.606 3.755a.564.564 0 0 0-.558.592c0 .407.41.994.696.994.072 0 .272-.225.444-.5.263-.423.256-.554-.043-.854a.738.738 0 0 0-.54-.232zm6.372 1.167a1.325 1.325 0 0 0-.353.067c-.57.181-.594.527-.08 1.096.449.496 1.022.201 1.022-.524 0-.428-.213-.651-.589-.639zm-17.33 2.804c-.492.006-.583.635-.117 1.1.231.232.353.207.591-.119.165-.226.264-.52.22-.655-.044-.134-.31-.278-.591-.32a.652.652 0 0 0-.104-.005zm-4.879.434c-.257.008-.462.146-.462.313 0 .72.76.786.898.079.051-.264-.083-.391-.41-.391h-.026zm9.087 2.616c-.423 0-.501.335-.239 1.018.226.59.91.328.91-.347 0-.427-.142-.605-.528-.66a1.039 1.039 0 0 0-.143-.011zm14.604 1.408a.592.592 0 0 0-.104.011c-.52.103-.898.746-.716 1.22.194.506.468.485.977-.077.45-.497.333-1.165-.157-1.154zm-8.102.44c-.43.009-.544.133-.544.568 0 .312.132.616.293.674.413.148.881-.277.881-.8 0-.314-.169-.441-.587-.441zm-9.378 2.82c-.548 0-.66.68-.196 1.193.373.411.45.424.63.103.113-.201.138-.575.057-.831-.081-.256-.302-.465-.492-.465zm14.352 1.511c-.387 0-.82.336-.82.703 0 .29.463.84.705.84.078 0 .268-.127.423-.282.402-.401.349-1.052-.1-1.224a.58.58 0 0 0-.208-.037zm3.16 3.658c-.285 0-.455.161-.455.43 0 .77.461.97.931.403.355-.428.125-.833-.475-.833zm-8.085 3.947c-.092.001-.204.086-.385.241-.44.378-.594 1.222-.279 1.537.258.258.817.07 1.092-.365.18-.288.165-.554-.06-.974-.163-.303-.25-.44-.368-.44zm6.177 1.36a.723.723 0 0 0-.177.024c-.305.08-.485.32-.485.648 0 .898.547 1.072 1.02.323.31-.492.096-.996-.358-.995zm-2.616 6.687c-.12.005-.281.05-.493.131-.438.168-.493 1.052-.09 1.455.358.358.47.354 1-.034.3-.22.35-.368.163-.484-.149-.092-.27-.373-.27-.624 0-.313-.08-.452-.31-.444z" fill="#fff" id="path365"/>
    <path d="M1681.085 194.648c-1.359-.035-2.682-.584-3.727-1.442-.498-.384-.748-.981-.85-1.587-.461-2.343-.474-4.742-.554-7.12-.036-2.482-.104-4.97.067-7.446.029-.194.092-.393-.164-.282-1.015.136-2.047.36-3.071.2-1.103-.24-2.1-.802-3.118-1.27a31.243 31.243 0 0 1-8.526-6.06c-1.154-1.127-2.339-2.28-3.063-3.746-2.154-4.122-3.651-8.569-4.658-13.103-.761-3.511-1.188-7.145-.711-10.727.38-2.98.996-5.925 1.619-8.863.408-1.711.778-3.474 1.655-5.02a4.302 4.302 0 0 1 3.532-2.175c2.06-.112 4.007.938 5.468 2.318.855.798 1.798 1.627 2.105 2.804.406 1.493.345 3.059.392 4.592.045 3.761-.04 7.526.135 11.285.077 1.782.39 3.55.963 5.24a23.574 23.574 0 0 0 2.008 4.68c.624 1.078 1.256 2.192 2.18 3.044.654.53 1.25 1.162 2.002 1.552.182-.194.144-.525.2-.775.137-1.57.222-3.144.428-4.707.122-1.025.31-2.11.338-3.099.138-3.65-.017-7.31-.153-10.95-.24-6.142-.768-12.288-.483-18.44.108-2.402.64-4.76 1.159-7.1.462-1.899.913-3.814 1.657-5.627.708-1.515 1.632-3.017 3.04-3.975.932-.632 2.104-.62 3.185-.707 1.454-.048 2.973-.088 4.332.516 1.056.386 2.07 1.026 2.629 2.031.649 1.117 1.03 2.364 1.41 3.591.394 1.531.318 3.129.363 4.696.042 4.086.058 8.173.094 12.259 1.708-.166 3.272-1.055 4.543-2.171.619-.553 1.125-1.217 1.61-1.887.185-.267.432-.643.61-.972 1.226-2.18 1.401-4.739 1.503-7.184.09-2.579-.017-5.238.036-7.848.034-1.834.194-3.708.943-5.406.402-1.006.905-1.982 1.64-2.79.982-1.09 2.17-2.166 3.673-2.4 1.6-.256 3.37-.028 4.677.993 1.335 1.035 2.452 2.372 3.188 3.895.49 1.023.67 2.158.676 3.284.045 2.531.024 5.064-.02 7.595-.041 2.302-.255 4.609-.81 6.848-.475 1.964-.974 3.926-1.56 5.86-.335 1.144-.952 2.18-1.715 3.088-1.71 2.157-3.494 4.318-5.78 5.893-1.788 1.252-3.686 2.34-5.598 3.39-1.394.772-2.954 1.145-4.501 1.469-1.532.357-3.072.824-4.412 1.669-.232.168-.526.347-.498.675-.245 2.535-.173 5.087-.243 7.63-.056 3.855-.205 7.708-.268 11.563-.045 2.445.213 4.882.478 7.293.443 3.874.683 7.77.694 11.67.012 2.453.071 4.907.053 7.36-.014.934-.306 1.904-1.02 2.542-.876.803-1.927 1.385-2.96 1.958-.98.547-2.107.68-3.204.807-.63.086-1.258.212-1.847.454-.578.145-1.18.155-1.771.135z" id="path367"/>
    <path d="M1708.565 97.835c-.225.005-.45.02-.672.045-1.53.095-2.879.973-3.927 2.04a9.394 9.394 0 0 0-2.19 3.216c-.67 1.439-.999 3.024-1.094 4.608-.227 4.139.19 8.305-.346 12.427-.062.41-.158.96-.276 1.415-.38 1.652-1.28 3.131-2.387 4.396-1.084 1.182-2.494 2.116-4.064 2.493-.027-3.548-.049-7.095-.08-10.643-.052-1.798.054-3.62-.315-5.391-.34-1.264-.75-2.52-1.343-3.69-.563-1.223-1.672-2.116-2.912-2.594-1.345-.635-2.858-.727-4.322-.676-1.23.067-2.528.046-3.658.606-1.63.915-2.715 2.537-3.512 4.184-.71 1.547-1.13 3.209-1.55 4.854-.59 2.462-1.168 4.94-1.402 7.466-.252 3.78-.135 7.575.035 11.356.254 5.347.57 10.683.592 16.034-.02 1.49.01 2.952-.182 4.42-.297 2.012-.463 4.043-.616 6.065-.66-.577-1.383-1.101-1.9-1.82-.998-1.373-1.801-2.883-2.47-4.44-.757-1.86-1.368-3.797-1.595-5.8-.12-.965-.13-1.863-.172-2.835-.087-2.97-.05-6.031-.073-9.037-.044-1.758.041-3.542-.345-5.27-.234-1.265-1.113-2.267-2.035-3.105-1.492-1.48-3.42-2.67-5.563-2.791-1.665-.15-3.379.585-4.388 1.922-1.098 1.535-1.538 3.413-1.972 5.218-.646 2.896-1.244 5.806-1.66 8.744-.55 3.415-.304 6.907.338 10.29.966 4.95 2.523 9.805 4.82 14.302.68 1.495 1.792 2.733 2.96 3.866 2.305 2.358 4.952 4.383 7.86 5.94 1.2.62 2.397 1.235 3.661 1.713 1.128.457 2.368.318 3.538.134-.105 1.804-.09 3.612-.065 5.418.05 2.46.065 4.928.358 7.374.172 1.07.22 2.262.98 3.112a6.782 6.782 0 0 0 4.453 1.894c.392.01.784.013 1.175-.026.564-.02 1.074-.262 1.612-.4 1.29-.286 2.658-.266 3.883-.818 1.14-.568 2.26-1.209 3.251-2.015.914-.672 1.435-1.77 1.518-2.886.054-1.888 0-3.777-.014-5.665-.014-3.18-.062-6.361-.31-9.532-.238-3.527-.83-6.996-.882-10.524.015-3.486.162-6.971.23-10.458.07-2.602.057-5.231.15-7.807.033-.586.069-1.28.132-1.905 1.08-.781 2.375-1.2 3.648-1.547 1.64-.405 3.33-.693 4.863-1.435 1.959-1.028 3.882-2.134 5.718-3.37 2.313-1.49 4.175-3.553 5.879-5.689.848-1.024 1.687-2.091 2.155-3.352.618-1.822 1.073-3.694 1.545-5.558.524-1.954.863-3.956.983-5.977.139-2.443.116-4.892.126-7.338-.042-1.645.104-3.337-.415-4.927-.64-1.862-1.893-3.475-3.388-4.736-1.183-1.069-2.792-1.53-4.368-1.495zm.344 1.294c.77.028 1.54.189 2.134.476 1.39.673 3.226 2.754 3.872 4.39.475 1.2.533 1.752.53 4.99-.01 8.667-.08 9.344-1.65 15.262-.97 3.667-1.094 3.945-2.606 5.829-3.232 4.027-4.469 5.076-9.227 7.836-2.588 1.501-3.196 1.741-5.892 2.32-2.61.56-5.002 1.636-5.435 2.444-.157.294-.276 2.312-.305 5.188a654.284 654.284 0 0 1-.227 10.697c-.167 5.563-.137 6.386.425 11.513.435 3.972.62 7.004.655 10.807l.068 7.092c.023 2.236-.28 2.707-2.663 4.152-1.414.858-1.989 1.063-3.435 1.225-.956.107-1.945.306-2.2.442-.523.28-2.197.295-3.078.028-1.076-.328-2.104-.959-2.47-1.517-.221-.338-.45-1.563-.591-3.18-.283-3.226-.351-11.08-.106-12.328l.179-.915-.679.165c-.373.091-1.281.224-2.019.296-1.204.118-1.538.04-3.289-.767-3.657-1.688-6.422-3.57-9.12-6.211-2.375-2.325-2.604-2.635-3.831-5.169-2.348-4.852-4.219-11.42-4.67-16.397-.323-3.567-.084-5.872 1.337-12.84.919-4.507 1.57-6.334 2.61-7.322 1.764-1.677 4.83-1.19 7.316 1.16 2.361 2.233 2.293 1.902 2.31 11.088.016 8.617.117 9.593 1.39 13.412.87 2.615 2.812 6.037 4.025 7.095 2.029 1.77 2.378 1.974 2.866 1.669.374-.234.471-.67.592-2.652.08-1.305.304-3.408.499-4.673.368-2.385.26-8.763-.335-19.786-.303-5.63-.299-10.944.01-13.198.489-3.554 1.853-9.08 2.665-10.797.964-2.039 2.225-3.485 3.383-3.88.476-.163 1.817-.302 2.98-.308 1.742-.009 2.362.093 3.516.577 1.678.703 2.212 1.402 3.123 4.09.642 1.893.645 1.93.692 9.067.026 3.941.053 7.682.059 8.312l.011 1.147.999-.114c1.783-.205 4.069-1.52 5.4-3.107 2.704-3.219 3.27-5.656 3.184-13.715-.066-6.283.075-7.324 1.369-10.06.637-1.35 2.286-3 3.504-3.51.587-.244 1.355-.35 2.124-.322zm-.707 2.574c-.686 0-.92.306-.718.942.168.527.59.605 1.01.185.5-.5.338-1.127-.292-1.127zm4.218 3.338c-.244-.003-.493.22-.552.632-.044.307.062.646.235.752.466.288.984-.336.789-.95-.093-.293-.282-.432-.472-.434zm-8.282.304a1.308 1.308 0 0 0-.294.048c-.62.163-.733.632-.3 1.251.356.508.386.512.688.1.173-.238.314-.606.314-.818 0-.413-.111-.589-.408-.581zm4.197 2.503a.967.967 0 0 0-.116.01c-.51.073-.757.662-.528 1.26.184.479.53.42.936-.159.415-.593.259-1.123-.292-1.11zm3.47 3.278a.53.53 0 0 0-.472.245c-.294.463-.252 1.237.086 1.574.235.235.378.19.717-.227.232-.287.39-.741.352-1.009-.051-.355-.375-.578-.683-.583zm-7.508.568c-.16.006-.335.122-.47.374-.33.617-.104 1.204.425 1.104.243-.046.442-.33.484-.692.058-.495-.172-.795-.44-.786zm-16.777.816c-.466 0-.595.12-.595.549 0 .903.623 1.174 1.173.511.418-.503.115-1.06-.578-1.06zm-5.418 1.464c-.097 0-.204.018-.321.056-.547.174-.652.814-.205 1.26.432.433.993.225 1.082-.4.082-.579-.136-.916-.556-.915zm26.228 1.826c-.405 0-.947.71-.81 1.064.17.444.648.442 1.019-.004.307-.37.171-1.06-.209-1.06zm-3.992 2.137a4.096 4.096 0 0 0-.32.021c-.894.086-1.153.825-.513 1.465.367.367.422.366.835-.008.243-.22.442-.654.442-.965 0-.404-.062-.52-.444-.514zm-24.934.917c-.589 0-.965.685-.674 1.227.332.622 1.11.526 1.281-.157.179-.71-.026-1.07-.607-1.07zm7.552 1.414c-.156-.002-.355.045-.599.139-.486.186-.475.895.023 1.393.37.37.415.369.705-.028.17-.233.31-.668.31-.966 0-.358-.142-.535-.44-.538zm18.648 2.815c-.692 0-.788.565-.204 1.21.494.546.791.352.791-.519 0-.58-.094-.69-.588-.69zm5.55.235c-.593 0-.808.336-.612.955.219.69.92.474 1.01-.31.059-.514-.022-.645-.397-.645zm-28.779 1.645c-.73 0-.982.644-.47 1.209.506.56.713.549 1.035-.053.358-.668.12-1.156-.565-1.156zm5.856 2.35c-.721 0-.93.323-.604.934.32.597.622.604.934.02.378-.706.292-.955-.33-.955zm14.304.94c-.363 0-.6.593-.423 1.057.194.506.441.434.736-.212.268-.59.173-.846-.313-.846zm5.183 1.351-.559.455c-.414.337-.515.587-.394.968.183.578.783.69.978.182.07-.183.093-.619.051-.969zm-10.267.313c-.062 0-.137.008-.228.02-.622.088-.84.758-.414 1.271.43.52.796.277.881-.584.054-.553.031-.706-.239-.708zm-18.176.215c-.396 0-.574.131-.574.423 0 .914 1.035 1.33 1.292.519.202-.635-.033-.942-.718-.942zm-20.107 3.054c-.513.016-.794.52-.585 1.063.114.298.216.308.612.06.262-.163.475-.482.475-.71 0-.258-.178-.413-.477-.413zm26.105.705c-.816 0-1.088.444-.708 1.156.3.561.351.575.965.246.261-.14.455-.49.455-.822 0-.489-.112-.58-.712-.58zm-22.323 1.41c-.348 0-.46.161-.46.658 0 .634.432 1.337.674 1.096.065-.065.146-.486.181-.936.053-.678-.014-.818-.395-.818zm29.026.261a1.432 1.432 0 0 0-.174.016c-.536.077-.791.655-.557 1.264.158.412.427.432.802.057.155-.155.282-.532.282-.839 0-.373-.077-.502-.352-.497zm7.279.349a.892.892 0 0 0-.393.12c-.583.311-.532 1.047.104 1.493.485.34.554.337.824-.033.162-.222.227-.62.144-.886-.146-.47-.374-.702-.68-.694zm-19.852 2.258a.383.383 0 0 0-.262.123c-.301.301-.115 1.003.265 1.003.137 0 .314-.165.391-.368.15-.39-.106-.764-.394-.758zm-22.324 1.83c-.592 0-.849.593-.46 1.061.372.45.616.443.794-.022.262-.683.147-1.038-.334-1.038zm26.892.322c-.078.002-.157.05-.223.156-.197.32.033.932.35.932.133 0 .242-.204.242-.455 0-.378-.183-.637-.369-.633zm-4.646 3.222c-.205-.003-.428.098-.63.34-.227.275-.235.497-.033.94.312.686.869.755 1.194.149.393-.735-.01-1.422-.532-1.43zm7.33 1.273c-.352.01-.577.16-.627.423-.081.422.328 1.105.662 1.105.098 0 .305-.154.46-.342.451-.543.201-1.186-.46-1.186zm-23.718 1.365c-.103-.001-.234.049-.417.147-.552.295-.655.942-.218 1.379.394.393.603.352.884-.174.293-.547.299-.738.034-1.155-.083-.132-.166-.197-.284-.197zm-6.03 2.868c-.246.002-.526.232-.526.57 0 .732.614.995.855.366.074-.193.075-.509.001-.7a.339.339 0 0 0-.33-.235zm22.164 1.178a.733.733 0 0 0-.377.116c-.257.159-.263.316-.032.824.236.519.346.578.632.34.19-.158.347-.475.347-.703a.552.552 0 0 0-.57-.577zm5.289 2.93c-.83 0-1.003.373-.569 1.233.36.714.552.786.972.365.155-.155.282-.578.282-.94 0-.57-.09-.657-.685-.657zm-25.416 2.383c-.133.005-.309.152-.56.43-.4.441-.4.495-.014 1.085.363.552.446.581.76.267.247-.247.306-.574.193-1.085-.105-.48-.207-.704-.379-.697zm6.179.5c-.128-.002-.273.08-.408.263-.239.324-.262.565-.086.895.307.574.773.43.876-.269.078-.533-.12-.885-.383-.889zm14.606 3.755c-.3.008-.558.228-.558.592 0 .407.41.993.696.993.072 0 .272-.224.443-.5.264-.422.257-.554-.043-.854a.738.738 0 0 0-.538-.231zm6.372 1.167a1.325 1.325 0 0 0-.353.067c-.57.18-.594.527-.08 1.096.448.495 1.022.201 1.022-.525 0-.427-.214-.65-.59-.638zm-17.33 2.803c-.492.006-.583.635-.117 1.101.231.231.353.206.591-.12.165-.225.264-.52.22-.654-.044-.134-.31-.278-.591-.32a.652.652 0 0 0-.104-.006zm-4.88.435c-.256.008-.461.146-.461.313 0 .72.76.786.898.078.051-.264-.083-.39-.411-.39-.01 0-.017-.002-.025 0zm9.088 2.615c-.423 0-.501.336-.24 1.019.227.589.91.328.91-.348 0-.427-.141-.604-.527-.659a1.039 1.039 0 0 0-.143-.012zm14.604 1.409a.592.592 0 0 0-.104.011c-.52.102-.898.746-.717 1.22.195.506.469.485.978-.077.45-.497.333-1.166-.157-1.154zm-8.102.44c-.43.008-.544.132-.544.567 0 .313.132.616.293.674.413.149.881-.276.881-.8 0-.314-.169-.44-.587-.44zm-9.378 2.82c-.549 0-.66.68-.196 1.192.373.412.45.424.63.103.113-.2.138-.575.057-.83-.081-.256-.302-.466-.492-.466zm14.352 1.51c-.387 0-.82.337-.82.704 0 .289.463.84.705.84.077 0 .268-.127.423-.282.402-.402.349-1.052-.1-1.224a.58.58 0 0 0-.208-.037zm3.16 3.658c-.285 0-.455.162-.455.431 0 .77.461.969.931.402.355-.428.125-.833-.475-.833zm-8.085 3.948c-.092 0-.204.085-.385.24-.44.378-.594 1.223-.279 1.538.258.257.817.07 1.092-.366.18-.287.164-.554-.06-.973-.163-.304-.25-.44-.368-.44zm6.177 1.36a.723.723 0 0 0-.177.024c-.306.08-.485.32-.485.648 0 .898.547 1.071 1.02.323.31-.492.096-.996-.358-.995zm-2.616 6.687c-.12.005-.281.05-.493.13-.438.169-.493 1.053-.09 1.456.357.357.47.353 1-.035.3-.22.35-.368.162-.484-.148-.092-.27-.372-.27-.623 0-.314-.08-.453-.31-.444z" fill="#fff" id="path369"/>
</svg>
