<svg version="1.1" id="svg2" xml:space="preserve" xmlns="http://www.w3.org/2000/svg" viewBox="0 0 172.72 203.21">
    <path id="bg" d="M70.296 201.196c-1.992-.356-2.758-2.883-1.967-4.578 1.047-2.929 3.212-5.029 4.613-7.792 1.475-3.164 3.227-6.264 4.08-9.67.547-3.364.072-6.725.083-10.099-.263-7.485-.44-15.002.395-22.46-5.542-1.415-11.505-2.69-15.814-6.732-3.408-2.872-6.256-6.396-8.283-10.369-.36-.9-1.308.485-1.938.634-3.865 2.31-7.68 5.154-12.287 5.828-5.294.793-11.19-.522-15.005-4.445-2.311-2.456-3.62-6.201-2.212-9.437l1.276-3.18c-3.194-.74-6.444-1.731-8.987-3.898-3.141-2.448-5.202-6.43-4.696-10.464.562-4.522 3.595-8.183 6.521-11.469.901-.723.835-1.162-.348-1.272-4.043-1.05-8.196-2.622-10.984-5.885-2.33-2.597-3.361-6.344-2.37-9.728.58-2.994 1.583-6.015 3.617-8.351.553-2.32 2.533-3.907 4.182-5.483a42.17 42.17 0 0 1 3.371-2.706c.795-.565 1.588-1.133 2.382-1.7-2.316-2.367-4.573-4.953-5.578-8.177-.955-2.716-1.008-5.837.465-8.384 2.298-4.34 6.938-6.707 11.41-8.222 2.922-.962 6.115-1.515 9.039-1.77 1.72-.144 3.766-.107 5.611-.022 4.293.247 8.594.66 12.818 1.481 4.739 1.004 9.25 3.274 12.599 6.815 4.4 4.39 7.66 9.8 10.284 15.397 1.302 3.242 2.409 6.563 3.655 9.823 1.798 6.203 2.043 12.704 2.17 19.12a54.553 54.553 0 0 0 8.719-2.264c1.25-.168 2.744-.27 3.847-.335 5.226-.196 10.46-.09 15.681-.445 5.777-.258 11.55-.622 17.308-1.154.702-4.836 1.108-9.716 1.721-14.493.491-4.468 1.907-8.769 2.355-13.243.338-2.85.684-5.598 1.132-8.444-2.434-.895-4.768-2.198-6.432-4.232-2.418-2.909-4.305-6.458-4.643-10.273-.252-2.598.452-5.222 1.836-7.414.458-1.143-.241-2.203-.661-3.215-1.252-3.188.382-6.886 3.17-8.677 2.346-1.655 5.294-2.114 8.108-1.996 1.339-2.683 3.585-5.37 6.763-5.677 3.516-.58 7.63.598 9.452 3.868 2.4 3.919 2.114 8.746 1.535 13.121.113 1.315 1.315 2.132 2.536 2.282 3.802 1.536 5.693 5.6 6.536 9.372.535 2.484.856 5.007 1.313 7.505 3.02.949 6.233.88 9.276 1.7 1.544.261 2.693 1.63 2.748 3.186.231 1.876-.871 3.9-2.788 4.347a18.928 18.928 0 0 0-5.444 2.784c-1.441.989-2.87 2.182-3.707 3.715-.796 8.984-1.025 18.007-1.476 27.012-.19 4.37-.373 8.739-.564 13.108 2.721 3.009 4.156 6.929 4.781 10.887.624 3.468.356 7.11-1.024 10.371-2.293 6.643-6.274 12.793-11.88 17.108-6.414 5.135-14.043 8.397-21.514 11.659-1.139.443-2.257.935-3.387 1.399.168 5.786 1.232 11.498 1.495 17.279 5.57 1.664 11.147 3.378 16.422 5.851 1.5.636 3.266.413 4.682 1.221 1.301.959 1.478 3.052.206 4.121-2.112 2.264-5.559 2.444-8.401 1.809-1.604-.211-2.885 1.578-2.279 3.047.85 2.23 1.639 4.668 1.24 7.081-.416 1.502-2.34 2.493-3.673 1.449-2.062-1.372-3.393-3.548-5.014-5.375-1.377-1.676-2.772-3.337-4.157-5.007-1.037 4.462-1.511 9.411-4.68 12.985-1.401 1.835-4.568 1.91-5.836-.12-1.521-2.433-.631-5.407-.468-8.069.699-5.964 1.754-11.979.99-17.993-.462-5.342-1.376-10.633-2.469-15.878-7.187.886-14.437.828-21.664.794-.2 7.606-.398 15.212-.591 22.818 2.396 2.15 4.352 4.966 7.359 6.307 3.331.973 7.046.792 10.079 2.666 1.73.952 2.503 3.244 1.546 5.003-.57 1.372-2.079 2.326-3.567 1.92-4.918-.579-9.641-2.147-14.475-3.159.622 3.287 1.886 6.539 1.63 9.93.075 1.672-1.904 2.959-3.367 2.067-2.672-1.264-4.023-4.088-5.748-6.33-.462-1.299-.97.001-1.465.57-2.697 3.621-5.608 7.138-9.065 10.057-.622.421-1.37.681-2.128.589z" fill="#000"/>
    <path id="contour" d="M138.902.004a12.79 12.79 0 0 0-1.507.117c-3.508.198-6.399 2.73-8.022 5.703-3.665-.057-7.522 1.251-10.025 4.04-2.333 2.463-3.196 6.226-1.936 9.41.096.704 1.022 1.365.461 2.01-2.385 3.9-2.31 8.884-.555 13.01 1.873 4.45 4.984 8.764 9.633 10.56-.715 4.39-.932 8.868-1.994 13.197-1.601 6.52-1.825 13.273-2.783 19.898-6.045.552-12.04.863-18.162 1.125-5.823.39-11.69-.068-17.487.72-2.02.713-4.08 1.391-6.2 1.78-.112-6.01-.61-12.089-2.358-17.867-1.457-3.457-2.48-7.088-4.026-10.51-2.977-5.906-6.528-11.683-11.494-16.135-3.947-3.72-9.182-5.737-14.474-6.58-5.243-.726-10.536-1.329-15.838-1.168-5.706.383-11.483 1.673-16.465 4.573-4.158 2.307-7.678 6.396-8.03 11.293-.131 4.652 2.08 9.156 5.268 12.453a43.912 43.912 0 0 0-5.896 4.941c-1.148 1.272-2.442 2.63-2.85 4.332C2.09 69.413 1.025 72.6.412 75.764c-.748 2.817-.494 5.877.844 8.48 2.297 4.733 7.166 7.58 12.08 8.932-1.964 2.223-3.74 4.67-4.818 7.455-1.578 3.687-1.343 8.056.671 11.53 2.397 4.143 6.735 6.99 11.342 8.093a17.248 17.248 0 0 0-.808 2.228c-1.21 4.037.76 8.374 3.71 11.137 4.628 4.104 11.335 5.366 17.296 4.088 4.312-.966 7.99-3.58 11.712-5.836 2.054 3.771 4.97 7.02 8.24 9.777 4.064 3.678 9.477 5.17 14.667 6.463-.754 7.557-.439 15.166-.196 22.74-.014 2.829.407 5.52-.173 8.338-.844 2.673-2.12 5.204-3.342 7.725-1.545 3.652-4.875 6.427-5.563 10.451-.474 2.744 1.591 5.927 4.545 5.846 1.266.023 2.46-.542 3.434-1.316 3.08-2.781 5.87-5.902 8.342-9.237 1.586 2.241 3.283 4.79 6.025 5.682 2.22.902 4.84-.58 5.46-2.832.639-2.83-.136-5.75-.778-8.514 4.218.952 8.394 2.296 12.73 2.565 3.432-.075 5.71-3.95 4.904-7.11-.718-2.86-3.584-4.427-6.261-5.047-2.308-.76-4.784-.729-7.094-1.45-2.324-1.246-3.96-3.43-5.867-5.204l.517-19.986c6.04.022 12.1.054 18.11-.63 1.168 5.64 1.983 11.355 2.332 17.104.168 5.621-.995 11.171-1.477 16.752-.36 2.77-.342 6.08 1.957 8.057 2.058 1.985 5.503 1.742 7.545-.135 2.792-2.759 4.068-6.66 4.805-10.43.907 1.062 1.768 2.141 2.636 3.21 1.615 1.83 3.068 4.09 5.47 4.947 2.481.939 5.224-1.054 5.673-3.545.352-2.418-.33-4.872-1.08-7.158-.442-.828-.543-1.35.5-.979 3.59.656 7.874-.13 10.06-3.31 1.79-2.323.489-6.026-2.226-6.958-1.512-.429-3.147-.405-4.594-1.109-4.708-2.208-9.68-3.758-14.652-5.246-.077-1.503-.235-3-.383-4.496-.338-3.39-.83-6.59-.95-9.97.933-.417 1.892-.773 2.84-1.151 8.007-3.568 16.247-7.125 22.868-13.018 5.315-4.569 8.965-10.794 11.158-17.398 1.606-4.043 1.432-8.55.412-12.713-.689-3.326-2.106-6.5-4.289-9.117.343-7.935.67-15.872 1.043-23.807.286-5.01.425-10.035.918-15.03 1.015-1.49 2.635-2.545 4.156-3.51 1.398-1.038 3.104-1.401 4.66-2.106 3.928-1.76 4.341-8.118.623-10.313-3.017-1.5-6.523-1.189-9.722-2.047-.515-2.725-.776-5.627-1.662-8.318-1.115-3.626-3.36-7.189-6.992-8.692-.37-.33-1.398-.176-1.458-.656.668-4.892.726-10.338-2.2-14.566-1.987-3.05-5.657-4.48-9.21-4.42zm.455 4.025h.002c5.642.001 8.241 5.163 7.047 14l-.66 4.91h2.385c4.134 0 6.94 4.15 7.9 11.696.728 5.713.754 5.732 9.217 6.847 3.003.395 3.455.676 3.455 2.149 0 1.214-.53 1.828-1.869 2.164-3.47.87-9.591 5.48-10.037 7.559-.23 1.072-.797 10.83-1.262 21.685l-.846 19.74 1.918 2.52c2.225 2.917 3.717 9.693 3.051 13.86-.246 1.542-1.575 5.188-2.957 8.099-3.712 7.823-9.979 13.46-20.762 18.685-4.58 2.22-9.527 4.43-10.992 4.914-1.464.483-2.862 1.398-3.105 2.032-.243.634-.111 3.808.295 7.054.406 3.247.823 7.366.925 9.15l.186 3.245 5.455 1.674c3 .92 6.108 1.952 6.908 2.29.8.34 2.693 1.152 4.207 1.807 1.513.656 3.394 1.194 4.18 1.194 1.83 0 1.844 1.18.023 2.154-1.927 1.031-4.091.949-9.09-.353-2.34-.61-4.386-.98-4.544-.823-.16.16.696 1.883 1.898 3.834 2.297 3.726 3.758 9.733 2.37 9.733-.428 0-2.24-1.884-4.022-4.184-1.783-2.3-4.373-5.263-5.756-6.586l-2.514-2.404-.504 4.93c-.797 7.77-4.065 13.628-6.336 11.357-.94-.94-.93-2.215.082-10.022.466-3.6.887-8.02.932-9.82.094-3.686-1.143-13.667-2.414-19.515l-.844-3.881-4.47.54c-2.46.299-8.118.528-12.573.512l-8.101-.03-.336 12.823-.334 12.825 3.752 3.714c3.165 3.133 4.312 3.792 7.344 4.22 5.893.83 8.322 1.828 8.322 3.417 0 .782-.427 1.583-.95 1.783-.521.201-4.694-.603-9.273-1.785-4.578-1.182-8.422-1.878-8.543-1.547-.12.332.287 2.564.908 4.96 1.126 4.345 1.447 7.417.774 7.417-1.058 0-3.62-2.972-5.172-6-.973-1.9-1.92-3.453-2.106-3.453-.185 0-.962 1.229-1.728 2.729s-3.362 4.855-5.77 7.455c-3.646 3.939-4.461 4.51-4.888 3.433-.34-.854.193-2.295 1.572-4.265 2.554-3.647 3.214-4.86 5.762-10.582 1.998-4.486 2.004-4.556 1.568-16.364-.24-6.523-.196-14.237.1-17.144l.533-5.287-2.938-.748c-8.552-2.177-10.646-3.153-14.738-6.856-2.342-2.12-4.977-5.378-5.95-7.36-.96-1.955-1.821-3.655-1.915-3.776-.093-.122-2.416 1.218-5.162 2.978-2.745 1.76-6.103 3.578-7.463 4.04-6.166 2.091-14.095.017-16.783-4.392-1.916-3.143-1.854-4.744.345-8.88 1-1.881 1.819-3.51 1.819-3.62 0-.11-.996-.054-2.213.125-3.28.481-8.372-1.766-10.873-4.8-4.045-4.907-2.821-10.538 3.758-17.301l3.605-3.71-4.084-.82C9.571 88.468 5.247 85.252 4.082 80.31c-.525-2.226 1.268-8.823 2.82-10.375.59-.59 1.073-1.433 1.073-1.871 0-1.424 6.097-6.908 9.246-8.317l3.064-1.367-2.937-2.131c-3.132-2.268-5.693-6.859-5.72-10.254-.042-5.417 5.775-10.039 15.01-11.924 4.83-.986 7.079-1.04 14.71-.365 10.463.926 14.803 2.616 19.95 7.764 3.81 3.81 8.78 11.84 10.378 16.775.642 1.982 1.622 4.624 2.178 5.873 1.302 2.923 2.452 10.93 2.47 17.186.014 3.46.284 4.892.924 4.86 2.014-.104 9.209-1.827 9.709-2.327.293-.293 4.324-.538 8.957-.541 8.47-.007 29.213-1.266 29.752-1.805.159-.16.76-4.806 1.332-10.328.574-5.523 1.332-10.698 1.686-11.498.354-.8 1.023-4.694 1.488-8.658.465-3.963 1-7.607 1.187-8.094.193-.504-.497-1.096-1.597-1.373-3.264-.819-5.434-2.671-7.65-6.537-2.548-4.439-2.773-8.468-.667-11.922 1.332-2.186 1.366-2.544.362-3.978-2.921-4.17 1.032-9.254 7.195-9.254 2.026 0 2.84-.427 3.814-2 1.906-3.078 3.174-3.819 6.541-3.819zm18.979 38.606c-1-.002-1.266.525-1.266 1.758 0 2.17.444 2.236 3.14.457l2.052-1.352-1.688-.451c-.99-.266-1.714-.412-2.238-.412zm-116.252 6.28c-2.393.02-5.446.46-7.29 1.23-1.35.567-3.237 1.863-4.192 2.882-1.417 1.512-1.655 2.346-1.3 4.54.24 1.478 1.333 3.621 2.427 4.763l1.988 2.078-2.955 3.084c-1.625 1.695-3.489 4.198-4.143 5.559-2.815 5.858-.415 12.554 5.717 15.945 1.857 1.027 6.78 1.075 9.605.09 2.708-.944 4.542-3.93 3.223-5.248-.702-.701-1.358-.621-3.1.379-2.716 1.558-5.845 1.619-8.65.168-2.762-1.428-3.621-3.144-3.621-7.227 0-4.396 3.069-7.845 8.727-9.804 2.846-.986 4.062-1.805 4.222-2.84.19-1.232-.403-1.587-3.88-2.309-9.118-1.892-9.25-7.396-.255-10.57 1.653-.583 3.974-1.06 5.157-1.06 1.406 0 2.038-.316 1.828-.91-.186-.529-1.646-.766-3.508-.75zm19.023 14.759c-2.242.013-5.14 1.147-7.058 3.006-5.014 4.86-4.84 10.951.39 13.716 2.53 1.336 7.352 1.968 7.352.963 0-1.042-2.471-3.148-3.693-3.148-.707 0-2.26-.82-3.452-1.824-2.588-2.177-2.416-3.509.942-7.393 2.093-2.422 2.751-2.74 5.734-2.76 3.59-.024 4.038-.388 2.28-1.847-.594-.493-1.476-.72-2.495-.713zM45.281 98.572c-1.93 0-2.795 1.115-3.808 4.9-1.012 3.788.148 6.517 3.746 8.821 2.727 1.746 4.263 1.935 5.517.682 1.444-1.444.994-2.712-1.125-3.159-1.1-.232-3.106-.906-4.455-1.498-2.282-1.003-2.422-1.263-2.027-3.699.234-1.44 1.15-3.389 2.035-4.332 1.587-1.69 1.59-1.713.117-1.713v-.002z" fill="#fff"/>
    <path id="wing" d="M125.205 89.798c-1.41.02-1.228.757.679 2.72.913.942 2.185 3.237 2.822 5.1 1.112 3.251 1.091 3.525-.504 6.772-4.092 8.328-14.623 14.925-26.568 16.646-4.06.585-7.64-.605-8.92-2.966-.728-1.343-.042-4.077 1.226-4.887 1.196-.762.883-2.59-.44-2.572-.652.01-2.436 1.18-3.966 2.601-3.14 2.918-5.562 3.306-7.521 1.203-1.295-1.391-1.276-1.488.623-3.299 1.077-1.026 1.818-2.265 1.647-2.754-.493-1.413-2.73-1.458-4.207-.083-1.71 1.593-3.4.999-4.41-1.551-1.17-2.951-.387-4.862 2.975-7.253l3.025-2.153-2.486-.205c-2.074-.171-2.87.23-4.823 2.422-3.544 3.978-3.084 7.774 1.502 12.414a82.152 82.152 0 0 1 4.093 4.536c1.808 2.191 2.258 2.363 5.58 2.14 3.24-.218 3.72-.05 4.625 1.62 2.41 4.447 7.785 5.75 16.441 3.983 9.189-1.875 21.383-10.288 24.782-17.094 1.569-3.143 1.535-9.11-.068-12.106-1.335-2.495-4.557-5.256-6.108-5.234zM101.43 95.4c-1.202.005-3.192.928-4.64 2.394-2.445 2.474-1.544 5.989 1.89 7.366 1.367.549 2.494 1.518 2.503 2.153.022 1.628 4.747 6.033 6.445 6.009.777-.012 1.991-.676 2.696-1.478 1.026-1.167 1.08-1.52.27-1.766-.557-.168-1.996-.595-3.202-.947-1.744-.509-2.214-1.069-2.304-2.751-.061-1.162-.163-2.503-.224-2.979s-1.469-.946-3.13-1.046c-4.06-.243-5.389-2.181-2.924-4.262.954-.806 2.174-1.302 2.711-1.105.56.206.969-.13.96-.788-.014-.553-.421-.803-1.051-.8z" fill="#fff"/>
    <path id="eye" d="M146.411 33.857c-.97-.002-1.984.143-2.792.453-2.019.775-2.797 3.878-1.368 5.457 1.464 1.618 5.828 1.782 7.793.293 1.369-1.037 1.188-3.287-.425-5.304-.461-.576-1.789-.895-3.208-.899z" fill="#fff"/>
    <path id="iris" d="M145.058 35.431c1.238 0 2.004 1.814 1.434 3.61-.509 1.602-2.389 1.796-2.961.305-.643-1.677-.001-3.644 1.273-3.89.085-.016.171-.025.254-.025z" fill="#000"/>
</svg>
