<?xml version="1.0" encoding="UTF-8"?>
<svg width="793.7" height="400" version="1.1" viewBox="0 0 210 105.83" xmlns="http://www.w3.org/2000/svg">
 <g>
  <path d="m39.038 45.13c-6.5802-3.0789-11.143 6.5897-10.966 11.795-0.87277 5.8868-5.6781-0.25274-8.323 4.9575-4.8685 5.1407-0.76534 14.175 5.765 15.115 3.5386-2.0085 6.3177-2.3917 7.4768 2.4817 5.7002-0.95235 10.487 4.7844 16.337 4.7699 4.0721-6.6246 12.338-2.5213 17.866-5.1292 6.5623-5.1392 4.2409-18.522-4.9804-18.432-4.9032-0.1404 0.61715-9.9496-6.7515-9.701-3.8487 1.6501-6.0175 5.3322-7.6306-0.69261-1.3742-5.2431-10.816-4.8047-9.1746-5.3309z" style="stroke-width:.79375"/>
  <path d="m179.39 2.8528c-5.2018-1.624-7.3314 6.3826-11.732 1.4887-6.635-1.3956-10.365 6.1105-10.236 9.4464-4.9825-1.6107-6.2258 5.2459-6.7432 6.3018-11.652-1.9563-9.5086 17.786 1.4987 13.101 4.7488-1.3754 7.2447 8.444 13.895 6.8802 6.4374 0.72324 10.904-4.6267 17.215-1.3208 7.4319 1.111 6.4312-10.681 13.642-6.7496 9.2458-1.8245 1.9401-12.074-1.4461-11.994 1.8943-6.5861-8.2299-3.9317-5.7929-10.26-1.2471-3.9614-6.5319-6.9269-10.3-6.8934z" style="stroke-width:.79375"/>
 </g>
</svg>
