<?xml version="1.0" encoding="UTF-8"?>
<svg width="71.623" height="39.68" version="1.1" viewBox="0 0 71.623 39.68" xmlns="http://www.w3.org/2000/svg">
 <path d="m4.4508 39.49c-0.952-0.08433-1.888-0.23665-2.08-0.3382-0.211-0.11187-0.444-0.06196-0.59 0.12822-0.192 0.25128-0.35 0.20051-0.791-0.253-0.527-0.54215-0.548-0.78225-0.47-5.3509 0.045-2.6307-0.084-6.9714-0.285-9.646-0.316-4.1806-0.314-5.5532 0.012-9.7906 0.208-2.7108 0.379-6.5437 0.379-8.5169 0-2.9973 0.066-3.6049 0.397-3.6832 2.327-0.55076 3.954-0.60497 17.33-0.56969 8.054 0.020653 17.683-0.29431 20.373-0.66607 0.873-0.12048 4.207-0.23149 7.408-0.2444 3.236-0.013769 6.35-0.13683 7.012-0.27538 1.387-0.29259 16.664-0.40016 17.82-0.12478 0.702 0.16609 0.742 0.23665 0.575 1.0043-0.563 2.5791-0.594 5.2778-0.242 20.784 0.313 13.808 0.296 15.238-0.18 15.499-0.208 0.11359-2.82 0.19535-5.803 0.18158-3.181-0.01463-5.861 0.07745-6.482 0.22202-1.41 0.32959-6.05 0.70222-12.04 0.96727a641.31 551.88 0 0 0-6.746 0.32271c-2.121 0.1222-30.21 0.5869-32.411 0.53613-0.8-0.01807-2.234-0.10155-3.187-0.18588z"/>
 <path d="m23.778 37.522c16.491-0.62186 19.894-0.77732 20.176-0.92439 0.156-0.08067 2.279-0.17647 4.718-0.21261 2.438-0.03529 5.723-0.22269 7.298-0.41597 1.576-0.19328 4.116-0.38656 5.644-0.42858 1.528-0.04202 3.968-0.15294 5.424-0.24538l2.645-0.16807-0.06-15.255c-0.032-8.3909-0.062-15.827-0.065-16.525l-7e-3 -1.2689-7.74 0.082354c-4.256 0.046219-7.917 0.13614-8.135 0.20168-0.219 0.064707-3.672 0.23026-7.673 0.36723-4.001 0.13698-7.753 0.35295-8.335 0.47984-0.65 0.14286-6.612 0.25463-15.478 0.29244-9.11 0.038656-15.394 0.15967-17.065 0.32774-1.455 0.14706-2.684 0.30001-2.732 0.3395-0.047 0.04034 0.042 1.9009 0.198 4.1345 0.354 5.0497 0.36 11.348 0.015 18.436-0.383 7.8917-0.467 10.868-0.31 11 0.274 0.23026 13.044 0.10084 21.482-0.21765z" fill="#fff"/>
 <path d="m8.7618 35.034-4.035-0.0586v-27.811h3.139c1.726 0 3.78-0.09873 4.564-0.21995 0.784-0.12041 4.283-0.31627 7.775-0.43427 3.493-0.118 7.839-0.30263 9.658-0.40939 7.922-0.46558 14.118-0.68793 21.034-0.75456 4.074-0.03853 9.432-0.13245 11.906-0.20871l4.497-0.13727 0.024 13.747 0.023 13.747-3.197-0.10596c-2.056-0.06743-4.094 0.0016-5.711 0.19265a203.45 163.31 0 0 1-3.442 0.39012c-0.509 0.05057-1.7 0.19024-2.645 0.31146-1.786 0.22797-4.822 0.56672-6.88 0.7666-0.654 0.06341-3.929 0.19908-7.276 0.30102-3.347 0.10194-9.657 0.33393-14.023 0.51695-4.365 0.18222-8.711 0.30744-9.657 0.27854-0.946-0.0289-3.535-0.07867-5.755-0.11078z"/>
 <path d="m43.116 28.793c-0.431-1.505-0.476-1.43 0.733-1.23 0.621 0.103 1.705 0.441 2.408 0.753 1.513 0.67 2.513 0.724 2.733 0.15 0.218-0.566-0.128-0.835-1.308-1.017-0.67205-0.11966-1.3304-0.3066-1.965-0.558-0.74-0.309-0.892-0.476-0.653-0.714 0.455-0.455 0.384-1.709-0.107-1.897-0.755-0.29-1.552-0.168-2.442 0.375-0.8 0.488-0.862 0.617-0.721 1.52 0.309 1.978 0.895 3.556 1.241 3.342 0.135-0.083 0.171-0.409 0.08-0.724z" style="fill:#fff"/>
 <path d="m37.915 25.406c1.895-0.459 1.995-0.801 0.18-0.613-1.973 0.204-2.322 0.311-2.115 0.647 0.21 0.338 0.414 0.334 1.935-0.034z" style="fill:#fff"/>
 <path d="m35.045 13.076c0.065 0.488 1.639 2.192 2.024 2.192 0.445 0 0.658-0.857 0.657-2.646 0-1.528-0.279-2.297-0.731-2.018-0.162 0.1-0.212 0.826-0.126 1.82 0.16 1.855 0.039 1.84-1.138-0.149-0.447-0.755-1.03-1.415-1.297-1.466-0.45-0.087-0.472 0.064-0.303 2.091 0.226 2.705 0.511 3.226 0.716 1.31 0.085-0.8 0.174-1.31 0.198-1.134z" style="fill:#fff"/>
 <path d="m32.223 12.267c-0.048-1.114-0.183-2.026-0.3-2.026-0.249 0-0.497 3.277-0.318 4.21 0.102 0.536 0.168 0.574 0.413 0.24 0.173-0.236 0.257-1.224 0.205-2.424z" style="fill:#fff"/>
 <path d="m45.619 14.421c0.372-0.372 0.428-0.84 0.075-0.622-0.312 0.193-1.67-0.321-1.93-0.73-0.576-0.905 0.17-2.442 1.026-2.114 0.29 0.112 0.386 0.045 0.302-0.21-0.184-0.558-1.247-0.61-1.823-0.088-0.774 0.7-0.695 2.595 0.142 3.432 0.697 0.697 1.693 0.847 2.208 0.332z" style="fill:#fff"/>
 <path d="m49.905 14.22c0-0.151-0.417-0.275-0.926-0.275-0.747 0-0.926-0.102-0.926-0.524 0-0.339 0.234-0.583 0.661-0.69 0.954-0.24 0.833-0.739-0.132-0.546-0.705 0.141-0.794 0.088-0.794-0.475 0-0.489 0.182-0.673 0.794-0.808 0.97-0.213 1.048-0.661 0.115-0.661-1.282 0-1.738 0.447-1.567 1.535 0.085 0.538 0.208 1.335 0.274 1.772 0.11 0.732 0.212 0.8 1.31 0.87 0.697 0.045 1.191-0.037 1.191-0.198z" style="fill:#fff"/>
 <path d="m52.896 12.518c0.26759-0.07298 0.55847-0.26979 0.79282-0.10642 0.14136 0.09854 0.21739 0.47275 0.38218 0.67442l0.2389 0.70075 0.3551 0.02625-1e-3 -0.662c-2e-3 -0.747-1.182-3.441-1.506-3.435-0.852 0.016-1.37 1.613-1.158 3.568 0.01834 0.99809 0.49098 0.96114 0.5754 0.66551 0.065-0.73-0.1184-1.3115 0.3206-1.4315z" style="fill:#fff"/>
 <path d="m37.875 20.142c0.16-0.745 0.358-1.625 0.441-1.955 0.086-0.342 0.03-0.6-0.13-0.6-0.155 0-0.358 0.405-0.45 0.901l-0.17 0.901-0.938-0.636c-1.628-1.105-2.004-0.636-0.443 0.554 0.875 0.668 0.942 0.817 0.857 1.892-0.076 0.96-0.036 1.09 0.225 0.733 0.174-0.24 0.448-1.044 0.608-1.79z" style="fill:#fff"/>
 <path d="m33.929 21.811c0.585-0.313 0.708-1.69 0.181-2.028-0.182-0.116-0.33-0.569-0.33-1.005 0-0.751-0.056-0.792-1.023-0.761-0.562 0.018-1.104 0.166-1.205 0.33-0.101 0.163-0.068 1.07 0.073 2.017 0.249 1.664 0.283 1.72 1.025 1.72 0.422 0 0.998-0.122 1.28-0.273z" style="fill:#fff"/>
 <path d="m61.445 12.093c0.494 0 0.728 0.199 0.935 0.794 0.152 0.436 0.384 0.793 0.516 0.793 0.375 0 0.279-1.772-0.152-2.803-0.349-0.834-0.485-0.926-1.256-0.852-0.825 0.08-0.875 0.149-1.087 1.488-0.122 0.772-0.129 1.605-0.014 1.852 0.159 0.342 0.23 0.245 0.304-0.412 0.08-0.714 0.207-0.86 0.754-0.86z" style="fill:#fff"/>
 <path d="m58.302 11.966c-0.75-0.649-0.89-0.909-0.685-1.275 0.562-1.004-0.607-2.12-1.759-1.677-0.502 0.192-0.502 2.04 0 3.344 0.31342 0.81278 0.48948 0.89985 0.59222 0.6318 0.02343-0.06113-0.21751-0.37053-0.21522-0.4558l0.02-0.749 0.14538-0.28782 0.35876-0.10122 0.24857-0.02677 0.63629 1.2198c1.662 0.961 2.058 0.587 0.658-0.623z" style="fill:#fff"/>
 <path d="m62.682 8.2181c0.278-0.307 0.456-0.607 0.396-0.667-0.173-0.173-2.17 1.265-2.3 1.656-0.16 0.486 1.216-0.229 1.904-0.989z" style="fill:#fff"/>
 <path d="m7.7524 14.358c0.26-2.309 0.401-2.996 0.613-2.996 0.116 0 0.534 0.744 0.93 1.654l0.719 1.654 0.491-0.597c0.27-0.327 0.572-1.072 0.67-1.653 0.098-0.582 0.268-1.058 0.378-1.058 0.109 0 0.347 0.863 0.53 1.918 0.386 2.242 0.69 3.11 1.087 3.11 0.314 0 0.081-2.39-0.413-4.234-0.0864-0.38111-0.16873-0.76314-0.247-1.146-0.384-1.842-1.457-1.55-1.983 0.54l-0.31 1.232-0.772-1.352c-0.907-1.588-1.144-1.78-1.567-1.271-0.268 0.323-0.792 4.195-0.789 5.833 2e-3 0.995 0.507-0.25 0.663-1.634z" style="fill:#fff"/>
 <path d="m15.544 15.382c6e-3 -1.047 0.351-1.427 1.206-1.329 0.618 0.072 0.788 0.249 0.935 0.972 0.099 0.487 0.311 1.017 0.472 1.178 0.691 0.69 0.145-2.938-0.82-5.45-0.47-1.22-1.295-0.862-1.712 0.742-0.522 2.01-0.769 5.022-0.392 4.788 0.169-0.104 0.309-0.51 0.311-0.901z" style="fill:#fff"/>
 <path d="m22.841 16.012c0.297-0.208 0.756-0.859 1.021-1.447 0.426-0.943 0.443-1.214 0.144-2.279-0.467-1.67-1.32-2.292-3.006-2.192-0.758 0.045-1.363 0.218-1.426 0.409-0.062 0.188 0.112 0.33 0.405 0.33 0.434 0 0.54 0.252 0.683 1.627 0.267 2.554 0.233 2.792-0.425 2.977-0.583 0.164-0.585 0.176-0.082 0.56 0.651 0.498 1.986 0.505 2.686 0.015z" style="fill:#fff"/>
 <path d="m56.605 29.835c0.153-0.286 0.814-0.888 1.469-1.338 1.497-1.03 2.086-1.901 1.87-2.763-0.242-0.962-1.037-1.301-2.173-0.926-0.412 0.136-0.954 0.783-0.954 0.783s-0.26-0.734-0.443-0.9c-0.707-0.64-2.497-0.472-2.778 0.26-0.187 0.489 0.448 2.237 1.447 3.983 0.58 1.014 1.153 1.365 1.153 1.365s0.263-0.192 0.409-0.464z" style="fill:#fff"/>
 <path d="m28.505 15.058c0-0.286-0.192-0.374-1.39-0.636-0.553-0.122-0.727-0.315-0.727-0.813 0-0.46 0.137-0.642 0.463-0.614 0.255 0.021 0.701 0.018 0.993-8e-3 0.442-0.038 0.463-0.088 0.132-0.302-0.218-0.141-0.665-0.258-0.992-0.26-0.485-4e-3 -0.596-0.153-0.596-0.798 0-0.728 0.076-0.794 0.91-0.794 0.501 0 0.983-0.116 1.07-0.257 0.192-0.31-1.027-0.654-1.574-0.445-0.214 0.083-0.46 0.034-0.548-0.108-0.4-0.646-0.651 0.23-0.651 2.266 0 1.992 0.06 2.26 0.588 2.63 0.658 0.461 2.322 0.56 2.322 0.139z" style="fill:#fff"/>
 <path d="m38.883 29.848c0.44-0.322 0.337-0.393-1.072-0.728-2.1-0.499-2.282-1.166-0.388-1.427 1.997-0.274 2.059-0.778 0.073-0.598-1.796 0.163-1.91 0.068-1.91-1.586 0-0.522-0.08-0.87-0.177-0.772-0.12388 0.12388-0.39289 0.16354-0.37227 0.84712 0.03414 1.1318 0.4624 3.1225 0.71427 3.5109 0.33846 0.5223 0.9476 0.58579 1.5386 0.7247 0.58236 0.13688 1.1457 0.35539 1.5934 0.0283zm-9.887-0.834c-0.04-1.125 0.04-1.72 0.233-1.72 0.338 0 1.158 0.792 2.163 2.09 1.025 1.324 1.445 0.993 1.606-1.268 0.148-2.061 7e-3 -3.275-0.354-3.052-0.129 0.08-0.234 0.971-0.234 1.981s-0.075 1.837-0.167 1.837c-0.091 0-0.674-0.546-1.296-1.213-0.835-0.897-1.29-1.19-1.751-1.124-0.343 0.048-0.593 0.177-0.557 0.286 0.037 0.11-0.10905 1.111-0.10905 2.227 0 0.53901-0.12421 1.3414-0.05176 1.6756 0.07755 0.35776 0.35366 0.22708 0.40381 0.17641 0.097-0.097 0.148-0.95 0.114-1.896zm-3.399 1.934c1.05-0.743 1.019-2.1-0.066-2.902-0.471-0.348-0.794-0.828-0.794-1.18 0-0.989-0.74-1.5-1.938-1.34-1.069 0.143-2.596 1.239-1.727 1.239 0.294 0 0.469 0.339 0.58 1.124 0.087 0.619 0.234 1.449 0.328 1.845 0.142 0.601 0.056 0.772-0.52 1.035-0.961 0.437-0.864 0.708 0.3 0.836 1.53 0.168 3.036-0.09 3.837-0.657zm-10.535-0.677c0.151-0.484 0.379-0.595 1.223-0.595 0.4831 0 0.83817 0.0087 1.0353 0.14726 0.18438 0.12959 0.22004 0.37469 0.38872 0.77874 0.09936 0.23903 0.13712 0.67939 0.2437 0.84397 0.12083 0.18658 0.30829 0.08203 0.3763 0.08203 0.316 0-0.051-2.572-0.606-4.24-0.367-1.107-0.545-1.332-1-1.265-0.43 0.063-0.775 0.643-1.545 2.594-0.47977 1.2166-0.75872 2.1947-0.96614 2.6863-0.18005 0.42675 0.20621 0.68624 0.54808 0.19189 0.199-0.287 0.20006-0.89716 0.30206-1.2242z" fill="#fff"/>
 <path d="m42.323 26.207c-0.227-0.715 0.09-1.012 1.289-1.206 1.413-0.23 1.255 0.547-0.27 1.328-0.812 0.416-0.85 0.411-1.019-0.122z"/>
 <path d="m55.877 10.328c-0.212-0.552 0.374-0.949 0.835-0.566 0.258 0.214 0.269 0.374 0.043 0.646-0.4 0.481-0.672 0.456-0.878-0.08z"/>
 <path d="m32.1 19.157c0.057-0.402 0.265-0.644 0.554-0.644 0.689 0 0.677 0.41-0.025 0.876-0.597 0.397-0.616 0.388-0.529-0.232z"/>
 <path d="m52.551 11.579c0-0.24411 0.32068-0.78748 0.47436-0.79898 0.12584-0.0094 0.37313 0.47516 0.44291 0.6584 0.09161 0.24054-0.29227 0.38959-0.52827 0.38959-0.214 0-0.389-0.112-0.389-0.249z"/>
 <path d="m61.068 11.279c0.052-0.156 0.22331-0.5519 0.36131-0.5519s0.45474 0.40356 0.50674 0.55956-0.22547 0.30696-0.46847 0.30696c-0.242 0-0.45158-0.15862-0.39958-0.31462z"/>
 <path d="m32.323 20.667c0-0.242 0.218-0.319 0.661-0.234 0.364 0.07 0.662 0.232 0.662 0.36 0 0.129-0.298 0.234-0.662 0.234-0.381 0-0.661-0.152-0.661-0.36z"/>
 <path d="m15.741 28.868c0-0.153 0.19-0.646 0.424-1.097 0.327-0.632 0.477-0.735 0.657-0.45 0.129 0.203 0.236 0.697 0.238 1.097 0.0011 0.22946 0.11531 0.47409 0.06456 0.58472-0.08196 0.17866-0.38475 0.14328-0.72256 0.14328-0.363 0-0.661-0.125-0.661-0.278z"/>
 <path d="m16.225 12.487c0.233-1.287 0.304-1.342 0.63-0.482 0.407 1.069 0.333 1.474-0.268 1.474-0.481 0-0.521-0.11-0.362-0.992z"/>
 <path d="m22.524 29.823c0-0.31048-0.14953-0.53759-0.07806-0.67743 0.10346-0.20247 0.51914-0.25557 1.2597-0.39457 0.725-0.136 1.06-0.067 1.42 0.292 0.45 0.45 0.444 0.49-0.121 0.948-0.344 0.278-1.022 0.478-1.62 0.478-0.68128 0-0.76542 0.16675-0.84215-0.09057-0.02632-0.08828-0.01845-0.40881-0.01845-0.55542z"/>
 <path d="m22.091 27.063c0-0.38232-0.14534-0.40703-0.02771-0.51897 0.10821-0.10297 0.46482-0.30803 0.78871-0.30803 1.55 0 1.618 1.178 0.086 1.484-0.50735 0.10172-0.58903 0.24256-0.67072 0.05251-0.04841-0.11261-0.17628-0.41593-0.17628-0.70951z"/>
 <path d="m21.486 14.207c4e-3 -0.618-0.084-1.63-0.195-2.249-0.18-1.006-0.147-1.124 0.312-1.124 1.358 0 2.211 3.077 1.126 4.06-0.854 0.772-1.25 0.553-1.243-0.687z"/>
</svg>
