<svg viewBox="0 0 71.623 46.11" xmlns="http://www.w3.org/2000/svg">
   <path d="M4.45 45.893c-.952-.098-1.888-.275-2.08-.393-.211-.13-.444-.072-.59.149-.192.292-.35.233-.791-.294-.527-.63-.548-.909-.47-6.218.045-3.057-.084-8.101-.285-11.209-.316-4.858-.314-6.453.012-11.377.208-3.15.379-7.604.379-9.897 0-3.483.066-4.189.397-4.28 2.327-.64 3.954-.703 17.33-.662 8.054.024 17.683-.342 20.373-.774.873-.14 4.207-.269 7.408-.284 3.236-.016 6.35-.159 7.012-.32 1.387-.34 16.664-.465 17.82-.145.702.193.742.275.575 1.167-.563 2.997-.594 6.133-.242 24.152.313 16.046.296 17.707-.18 18.01-.208.132-2.82.227-5.803.211-3.181-.017-5.861.09-6.482.258-1.41.383-6.05.816-12.04 1.124a641.31 641.31 0 0 0-6.746.375c-2.121.142-30.21.682-32.411.623-.8-.021-2.234-.118-3.187-.216z"/>
   <path d="M23.777 43.892c16.491-.74 19.894-.925 20.176-1.1.156-.096 2.279-.21 4.718-.253 2.438-.042 5.723-.265 7.298-.495 1.576-.23 4.116-.46 5.644-.51 1.528-.05 3.968-.182 5.424-.292l2.645-.2-.06-18.153c-.032-9.985-.062-18.834-.065-19.664l-.007-1.51-7.74.098c-4.256.055-7.917.162-8.135.24-.219.077-3.672.274-7.673.437s-7.753.42-8.335.571c-.65.17-6.612.303-15.478.348-9.11.046-15.394.19-17.065.39-1.455.175-2.684.357-2.732.404-.047.048.042 2.262.198 4.92.354 6.009.36 13.504.015 21.938-.383 9.391-.467 12.933-.31 13.09.274.274 13.044.12 21.482-.259z" fill="#fff"/>
   <path d="m8.761 41.439-4.035-.073V6.72h3.139c1.726 0 3.78-.123 4.564-.274.784-.15 4.283-.394 7.775-.541 3.493-.147 7.839-.377 9.658-.51 7.922-.58 14.118-.857 21.034-.94 4.074-.048 9.432-.165 11.906-.26l4.497-.171.024 17.125.023 17.125-3.197-.132c-2.056-.084-4.094.002-5.711.24a203.45 203.45 0 0 1-3.442.486c-.509.063-1.7.237-2.645.388-1.786.284-4.822.706-6.88.955-.654.079-3.929.248-7.276.375s-9.657.416-14.023.644c-4.365.227-8.711.383-9.657.347-.946-.036-3.535-.098-5.755-.138z"/>
   <path d="M43.62 14.407c0-1.156-.12-2.175-.265-2.265-.168-.104-.264.66-.264 2.102 0 1.333.109 2.264.264 2.264.155 0 .265-.877.265-2.101zm9.261-.147c0-1.5-.107-2.514-.265-2.514-.145 0-.264.348-.264.773 0 1.269-.248 1.609-1.172 1.609-.758 0-.882-.11-1.13-.992-.259-.927-.28-.859-.31 1.042-.019 1.12.085 2.109.23 2.199.157.096.265-.203.265-.732 0-.85.047-.895.919-.876.8.018.94.123 1.09.814.428 1.995.637 1.563.637-1.323zm-5.907.97c-.089-.849-.237-1.742-.33-1.984-.124-.323-.026-.442.366-.442.774 0 1.393-.282 1.223-.556-.194-.316-3.025-.306-3.025.01 0 .135.238.322.529.414.439.14.53.402.533 1.54.004 1.628.22 2.561.594 2.561.173 0 .213-.56.11-1.543zm-16.318 1.799c0-.286-.192-.374-1.39-.636-.553-.122-.727-.315-.727-.813 0-.46.137-.642.463-.614.255.021.701.018.993-.008.442-.038.463-.088.132-.302-.218-.141-.665-.258-.992-.26-.485-.004-.596-.153-.596-.798 0-.728.076-.794.91-.794.501 0 .983-.116 1.07-.257.192-.31-1.027-.654-1.574-.445-.214.083-.46.034-.548-.108-.4-.646-.651.23-.651 2.266 0 1.992.06 2.26.588 2.63.658.461 2.322.56 2.322.139zm28.834.019c.153-.286.814-.888 1.469-1.338 1.497-1.03 2.086-1.901 1.87-2.763-.242-.962-1.037-1.301-2.173-.926-.412.136-.954.783-.954.783s-.26-.734-.443-.9c-.707-.64-2.497-.472-2.778.26-.187.489.448 2.237 1.447 3.983.58 1.014 1.153 1.365 1.153 1.365s.263-.192.409-.464zm-21.329-.692c.411-1.86.446-1.886.99-.774 1.262 2.578 1.92 2.03 2.03-1.693.068-2.321.04-2.496-.33-2.026-.277.35-.406 1.101-.406 2.359 0 1.015-.08 1.766-.176 1.67-.097-.097-.424-.793-.728-1.546-.303-.753-.687-1.414-.852-1.468-.335-.109-.89 1.262-.89 2.2 0 .893-.446 1.012-.645.172-.272-1.144-1.055-2.973-1.273-2.974-.295-.001-.27.117.624 2.823.88 2.669 1.277 2.97 1.656 1.257zm-13.169 1.627c.297-.208.756-.859 1.021-1.447.426-.943.443-1.214.144-2.279-.467-1.67-1.32-2.292-3.006-2.192-.758.045-1.363.218-1.426.409-.062.188.112.33.405.33.434 0 .54.252.683 1.627.267 2.554.233 2.792-.425 2.977-.583.164-.585.176-.082.56.651.498 1.986.505 2.686.015zm-7.297-.63c.006-1.047.351-1.427 1.206-1.329.618.072.788.249.935.972.099.487.311 1.017.472 1.178.691.69.145-2.938-.82-5.45-.47-1.22-1.295-.862-1.712.742-.522 2.01-.769 5.022-.392 4.788.169-.104.309-.51.311-.901zm-7.792-1.024c.26-2.309.401-2.996.613-2.996.116 0 .534.744.93 1.654l.719 1.654.491-.597c.27-.327.572-1.072.67-1.653.098-.582.268-1.058.378-1.058.109 0 .347.863.53 1.918.386 2.242.69 3.11 1.087 3.11.314 0 .081-2.39-.413-4.234a55.08 55.08 0 0 1-.247-1.146c-.384-1.842-1.457-1.55-1.983.54l-.31 1.232-.772-1.352c-.907-1.588-1.144-1.78-1.567-1.271-.268.323-.792 4.195-.789 5.833.002.995.507-.25.663-1.634zm33.033 1.793c.278-.307.456-.607.396-.667-.173-.173-2.17 1.265-2.3 1.656-.16.486 1.216-.229 1.904-.989zm-3.354 4.345c-.75-.649-.89-.909-.685-1.275.562-1.004-.607-2.12-1.759-1.677-.502.192-.502 2.04 0 3.344.354.918.357.92.377.176l.02-.749 1.389.804c1.662.961 2.058.587.658-.623zm3.143.127c.494 0 .728.199.935.794.152.436.384.793.516.793.375 0 .279-1.772-.152-2.803-.349-.834-.485-.926-1.256-.852-.825.08-.875.149-1.087 1.488-.122.772-.129 1.605-.014 1.852.159.342.23.245.304-.412.08-.714.207-.86.754-.86zm9.115 1.578c.585-.313.708-1.69.181-2.028-.182-.116-.33-.569-.33-1.005 0-.751-.056-.792-1.023-.761-.562.018-1.104.166-1.205.33-.101.163-.068 1.07.073 2.017.249 1.664.283 1.72 1.025 1.72.422 0 .998-.122 1.28-.273zm3.946-1.669c.16-.745.358-1.625.441-1.955.086-.342.03-.6-.13-.6-.155 0-.358.405-.45.901l-.17.901-.938-.636c-1.628-1.105-2.004-.636-.443.554.875.668.942.817.857 1.892-.076.96-.036 1.09.225.733.174-.24.448-1.044.608-1.79zm-21.61.516c.429-.117.737.032 1.175.568l.594.727-.001-.662c-.002-.747-1.182-3.441-1.506-3.435-.852.016-1.37 1.613-1.158 3.568.132 1.22.15 1.248.229.357.065-.73.228-1.003.667-1.123zm-2.991 1.702c0-.151-.417-.275-.926-.275-.747 0-.926-.102-.926-.524 0-.339.234-.583.661-.69.954-.24.833-.739-.132-.546-.705.141-.794.088-.794-.475 0-.489.182-.673.794-.808.97-.213 1.048-.661.115-.661-1.282 0-1.738.447-1.567 1.535.085.538.208 1.335.274 1.772.11.732.212.8 1.31.87.697.045 1.191-.037 1.191-.198zm-4.286.201c.372-.372.428-.84.075-.622-.312.193-1.67-.321-1.93-.73-.576-.905.17-2.442 1.026-2.114.29.112.386.045.302-.21-.184-.558-1.247-.61-1.823-.088-.774.7-.695 2.595.142 3.432.697.697 1.693.847 2.208.332zm-13.396-2.154c-.048-1.114-.183-2.026-.3-2.026-.249 0-.497 3.277-.318 4.21.102.536.168.574.413.24.173-.236.257-1.224.205-2.424zm2.822.809c.065.488 1.639 2.192 2.024 2.192.445 0 .658-.857.657-2.646 0-1.528-.279-2.297-.731-2.018-.162.1-.212.826-.126 1.82.16 1.855.039 1.84-1.138-.149-.447-.755-1.03-1.415-1.297-1.466-.45-.087-.472.064-.303 2.091.226 2.705.511 3.226.716 1.31.085-.8.174-1.31.198-1.134zm24.598 5.331c1.895-.459 1.995-.801.18-.613-1.973.204-2.322.311-2.115.647.21.338.414.334 1.935-.034zm5.201 3.387c-.431-1.505-.476-1.43.733-1.23.621.103 1.705.441 2.408.753 1.513.67 2.513.724 2.733.15.218-.566-.128-.835-1.308-1.017a10.181 10.181 0 0 1-1.965-.558c-.74-.309-.892-.476-.653-.714.455-.455.384-1.709-.107-1.897-.755-.29-1.552-.168-2.442.375-.8.488-.862.617-.721 1.52.309 1.978.895 3.556 1.241 3.342.135-.083.171-.409.08-.724z" fill="#fff"/>
   <path d="M41.891 33.35c.44-.322.337-.393-1.072-.728-2.1-.499-2.282-1.166-.388-1.427 1.997-.274 2.059-.778.073-.598-1.796.163-1.91.068-1.91-1.586 0-.522-.08-.87-.177-.772-.329.329-.062 3.735.342 4.358.672 1.037 2.23 1.412 3.132.753zm-9.887-.834c-.04-1.125.04-1.72.233-1.72.338 0 1.158.792 2.163 2.09 1.025 1.324 1.445.993 1.606-1.268.148-2.061.007-3.275-.354-3.052-.129.08-.234.971-.234 1.981s-.075 1.837-.167 1.837c-.091 0-.674-.546-1.296-1.213-.835-.897-1.29-1.19-1.751-1.124-.343.048-.593.177-.557.286.037.11.067 1.111.067 2.227 0 1.116.079 1.95.176 1.852.097-.097.148-.95.114-1.896zm-3.399 1.934c1.05-.743 1.019-2.1-.066-2.902-.471-.348-.794-.828-.794-1.18 0-.989-.74-1.5-1.938-1.34-1.069.143-2.596 1.239-1.727 1.239.294 0 .469.339.58 1.124.087.619.234 1.449.328 1.845.142.601.056.772-.52 1.035-.961.437-.864.708.3.836 1.53.168 3.036-.09 3.837-.657zm-10.535-.677c.151-.484.379-.595 1.223-.595.935 0 1.075.09 1.424.926.212.51.492.926.62.926.316 0-.051-2.572-.606-4.24-.367-1.107-.545-1.332-1-1.265-.43.063-.775.643-1.545 2.594-1.049 2.66-1.293 3.682-.663 2.771.199-.287.445-.79.547-1.117z" fill="#fff"/>
   <path d="M23.637 16.178c.004-.618-.084-1.63-.195-2.249-.18-1.006-.147-1.124.312-1.124 1.358 0 2.211 3.077 1.126 4.06-.854.772-1.25.553-1.243-.687zm1.462 14.387c0-.734.085-.827.761-.827 1.55 0 1.618 1.178.086 1.484-.808.162-.847.132-.847-.657zm.265 2.76c0-.76.098-.837 1.35-1.072.725-.136 1.06-.067 1.42.292.45.45.444.49-.121.948-.344.278-1.022.478-1.62.478-.915 0-1.029-.072-1.029-.646zm-6.988-18.867c.233-1.287.304-1.342.63-.482.407 1.069.333 1.474-.268 1.474-.481 0-.521-.11-.362-.992zm.373 17.912c0-.153.19-.646.424-1.097.327-.632.477-.735.657-.45.129.203.236.697.238 1.097.003.6-.111.728-.658.728-.363 0-.661-.125-.661-.278zm31.486-9.342c0-.242.218-.319.661-.234.364.07.662.232.662.36 0 .129-.298.234-.662.234-.381 0-.661-.152-.661-.36zm-7.887-1.248c.052-.156.208-.284.346-.284.138 0 .294.128.346.284.052.156-.103.284-.346.284-.242 0-.398-.128-.346-.284zm-8.517.3c0-.444.47-.553.625-.146.093.24 0 .395-.236.395-.214 0-.389-.112-.389-.249zm16.181-.562c.057-.402.265-.644.554-.644.689 0 .677.41-.025.876-.597.397-.616.388-.529-.232zm-12.855-.689c-.212-.552.374-.949.835-.566.258.214.269.374.043.646-.4.481-.672.456-.878-.08zm8.174 8.88c-.227-.715.09-1.012 1.289-1.206 1.413-.23 1.255.547-.27 1.328-.812.416-.85.411-1.019-.122z"/>
</svg>
