<svg version="1.1" id="svg2" xml:space="preserve" xmlns="http://www.w3.org/2000/svg" viewBox="0 0 515.041 541.723">
    <g id="ear_l">
        <path id="path18767" d="M452.03 93.222c-2.564-.076-5.296.24-7.624-1.085-4.168-2.267-6.445-6.856-7.293-11.367-.516-2.09-.39-4.27 0-6.361.454-7.516 1.31-15.06 3.408-22.313 1.472-4.187 3.664-8.071 5.684-12.01.26-.506.67-1.469 1.11-2.09 1.244-1.995 3.047-3.651 3.974-5.834.262-1.334 1.281-2.386 1.885-3.592 1.789-3.144 4.189-5.86 6.697-8.445 3.926-4.21 7.507-8.72 11.091-13.22 1.628-1.81 3.107-3.917 5.3-5.079 1.2-.68 2.497 0 3.405.842 2.807 2.23 5.154 5.026 8.13 7.03 1.498.468 1.586 2.334 1.653 3.66.057 5.49-.469 10.982-1.36 16.395-1.536 7.84-4.427 15.341-7.595 22.65-2.706 5.982-5.573 11.977-9.554 17.234-1.388 1.75-2.843 3.481-3.808 5.508-1.539 1.99-1.968 4.521-2.871 6.816-.82 2.195-1.296 4.647-3.064 6.328-2.34 2.657-5.605 4.601-9.168 4.933z" fill="#000"/>
        <path id="path19559" d="M437.929 67.051c.12-2.678 3.474-10.16 4.128-13.114.996-4.11 5.728-12.347 6.32-13.747.93-2.2 4.731-5.768 4.928-7.937 2.05-3.429 3.35-5.85 6.309-8.924 2.958-3.072 7.411-8.204 9.896-11.404 4.448-5.728 6.946-8.363 7.93-8.363.275 0 2.389 1.8 4.697 4 2.308 2.2 4.525 4 4.928 4 .854 0 .27 11.078-.938 17.816-2.042 11.383-10.875 31.811-17.015 39.35-1.784 2.19-4.017 10.09-4.017 10.426l3.43-4.002c1.83-2.21 5.755-6.65 7.225-9.079 1.47-2.428 2.857-5.057 4.094-7.638 1.937-4.05 4.059-7.643 5.836-11.854 1.777-4.21 3.287-9.112 4.36-13.48.675-2.897.465-5.818.783-8.784.317-2.966.513-5.915.591-8.884-.01-2.392.104-4.974-1.968-6.659-2.103-1.188-3.212-3.218-4.975-4.855-1.679-1.465-4.056-1.76-6.166-2.602-1.454-.548-2.595-1.333-3.654-1.316-.482.008-.947.181-1.416.617-1.754 1.695-3.498 4.64-5.053 6.522a369.217 369.217 0 0 1-4.723 5.63c-2.597 3.233-5.604 6.464-8.342 9.573-2.2 2.49-3.705 5.127-5.355 7.992-.733 2.684-2.172 3.977-3.53 6.324-1.158 2.27-3.836 3.675-5.12 6.09-1.285 2.415-1.973 6.41-2.856 8.81-1.106 3.576-1.152 6.295-1.67 9.91zm40.677-49.673c-1.478 0-8.052 13.685-17.434 36.287-12.64 30.453-8.994 25.66 5.447-7.158 4.322-9.82 9.024-19.982 10.448-22.582 2.85-5.203 3.165-6.547 1.539-6.547z" fill="#fff"/>
    </g>
    <g id="leg_front_l">
        <path id="path3989" d="M388.766 296.147a3699.216 3699.216 0 0 1-11.36 4.617c-2.841 4.452-5.698 8.892-8.427 13.413 1.26 6.72 2.456 13.455 3.798 20.156 2.215 7.554 4.432 15.105 6.527 22.667.655-.361 1.058-.136 1.248.555 2.604 5.199 4.606 10.677 6.348 16.218.286.953.641 2.108.905 3.046 1.239 4.474 2.369 9.184 3.504 13.729 3.009 12.381 5.922 24.829 8.556 37.258 1.023 4.919 1.8 9.888 2.984 14.772 1.441 6.196 3.036 12.357 4.422 18.566 1.692 7.197 3.113 14.469 5.237 21.555 1.2 3.307 3.131 6.341 5.475 8.956 1.333 1.546 3.177 2.615 5.202 2.925 4.126.718 8.381.159 12.403-.874 2.09-.497 4.044-1.397 6.028-2.192.837-.155 1.691-.321 2.399-.849 1.58-1.024 2.919-2.368 4.366-3.565-2.834-4.994-5.736-9.967-8.04-15.237-2.204-4.895-4.124-9.947-5.82-14.977-3.845-11.43-6.788-23.41-9.156-35.248-1.547-7.703-2.829-15.538-3.978-23.256-1.801-12.167-3.357-24.375-4.416-36.631-.331-4.031-.639-8.25-.794-12.364-.089-2.255-.146-4.544-.098-6.717.079-3.484.658-6.932 1.163-10.372.313-.531.478-1.078.368-1.717-.088-4.759-.156-9.519-.23-14.278a1136.72 1136.72 0 0 0-5.545-14.224 777.134 777.134 0 0 0-8.759-6.566c-4.66.163-9.321.332-13.982.501z" fill="#000"/>
        <path id="path4876" d="M375.407 346.548c.257 1.212 1.549 7.778 3.561 10.266.933 1.82 2.3 4.391 3.105 6.306.781 1.84 1.58 4.884 2.234 6.692 1.422 3.973 2.427 8.132 3.489 12.361 1.129 4.49 2.1 8.424 3.236 13.007.921 3.88 2.047 7.254 3.028 10.859.938 3.444 2.487 6.471 2.661 10.675.786 3.764.961 8.15 1.758 12.223.545 3.216 1.428 8.53 2.149 11.703.728 3.197 1.929 5.908 2.718 9.196.879 3.552 1.413 6.682 1.91 9.895.422 2.733.118 4.397 1.278 8.857.629 3.36 1.88 7.94 2.743 11.216.972 4.447 4.641 9.791 7.739 13.369 1.973 2.596 4.38 3.417 7.224 3.746 2.357.327 4.612.158 6.826.068 2.211-.091 4.359-.496 6.451-1.113 2.116-.43 3.789-.46 5.918-.849 2.867-.892 5.337-6.448 7.627-8.1-1.31-2.35-4.08-5.041-5.367-7.427-1.302-2.414-1.578-3.142-2.722-5.568-1.558-3.252-3.475-5.648-4.927-8.959-1.49-3.397-3.224-7.577-3.772-10.852-1.113-3.355-1.557-6.582-2.511-9.977-.967-3.456-1.795-7.408-2.624-10.872-1.104-4.671-2.793-9.876-3.757-14.48-.916-4.37-1.248-7.868-1.933-12.765-.796-4.707-1.405-9.64-2.044-14.34-.455-3.412-.873-6.494-1.438-10.018-.584-3.649-1.29-7.954-1.436-10.951-.444-3.53-1.071-6.993-.799-10.073-.255-3.417.085-6.466-.036-9.986-.19-4.345-.077-9.562.615-13.822.369-1.438-.463-8.468-.241-9.344l-.605-1.249c-.141.195-2.006 6.264-2.042 6.426-.076.347-.321.276-.516 1.667a234.53 234.53 0 0 0-.624 4.877c-.053.461-.099.988-.133 1.576a49.164 49.164 0 0 0-.075 1.956c-.029 1.428-.016 3.102.039 5.011.065 2.141.164 4.28.296 6.418.159 2.588.349 5.174.57 7.758.237 2.801.524 5.814.863 9.029.361 3.416.752 6.829 1.174 10.238a669.57 669.57 0 0 0 1.507 11.38c.56 3.979 1.177 8.123 1.856 12.444a442.26 442.26 0 0 0 2.221 12.878c.754 3.997 1.57 7.983 2.449 11.955a325.729 325.729 0 0 0 2.649 11.02 254.629 254.629 0 0 0 2.827 10.087c.486 1.605.979 3.169 1.478 4.696a203.156 203.156 0 0 0 3.067 8.705 160.967 160.967 0 0 0 3.214 7.814 127.632 127.632 0 0 0 3.352 6.953 103.24 103.24 0 0 0 1.729 3.168c.836 1.461 2.467 4.359 2.467 4.359-.535.476-1.641 1.401-1.641 1.401a10.59 10.59 0 0 1-1.333.972 4.225 4.225 0 0 1-.537.282c-.154.064-.273.095-.353.086-.157-.019-.513.063-.958.209-.446.147-.981.357-1.5.597-.792.363-1.601.685-2.425.965-.843.288-1.714.543-2.597.762-.883.219-1.777.404-2.665.55-.89.146-1.773.255-2.63.325-.829.07-1.66.103-2.491.097a19.458 19.458 0 0 1-2.25-.142c-.644-.08-1.281-.21-1.904-.389a7.157 7.157 0 0 1-.793-.29 4.83 4.83 0 0 1-.668-.351 6.681 6.681 0 0 1-.805-.617c-.28-.246-.569-.533-.865-.851a19.27 19.27 0 0 1-.899-1.041 24.88 24.88 0 0 1-.903-1.193 29.19 29.19 0 0 1-2.416-4.044 21.853 21.853 0 0 1-.605-1.365c-.141-.354-.354-1.029-.613-1.942-.26-.914-.566-2.069-.903-3.389a308.81 308.81 0 0 1-2.195-9.259c-.723-3.268-1.652-7.324-2.498-10.951-.858-3.668-1.68-7.105-2.246-9.334a252.44 252.44 0 0 1-1.743-7.366c-.546-2.467-1.014-4.751-1.277-6.254a188.488 188.488 0 0 0-.864-4.605 374.877 374.877 0 0 0-1.301-6.206 1084.77 1084.77 0 0 0-2.038-9.177 1476.827 1476.827 0 0 0-5.855-24.838 951.566 951.566 0 0 0-2.502-9.955 136.648 136.648 0 0 0-3.826-12.335 113.584 113.584 0 0 0-2.245-5.71 85.51 85.51 0 0 0-1.136-2.554 65.311 65.311 0 0 0-1.116-2.289c-.342-.672-1.056-2.031-1.056-2.031-.152.05-5.437-9.655-5.437-9.655m33.146 9.076c-.368.088-.515 2.405-.322 5.246.461 6.825 1.288 4.586 1.108-1.094-.085-2.682-.316-4.074-.706-4.153a.196.196 0 0 0-.08.001zm-8.468 8.186c-.072.021.044 1.448.334 3.911.416 3.529.689 4.945.609 3.223-.081-1.739-.419-4.62-.75-6.378-.098-.523-.163-.765-.193-.756zm-8.086 2.941a.145.145 0 0 0-.096.041c-.271.249.376 2.497 1.449 5.14 1.75 4.31 3.329 5.947.545-1.551-.906-2.439-1.549-3.644-1.897-3.63zm14.485 16.439c-.119.025.042 1.511.573 4.593.827 4.8 1.402 6.833 1.949 6.962.085.021-.365-2.448-.989-5.462-.835-4.033-1.387-6.125-1.532-6.095zm-3.591 15.239c-.12.02-.041 1.349.281 4.037.458 3.827.935 5.532 1.59 5.655.067.013-.267-2.138-.742-4.763-.596-3.295-.991-4.951-1.129-4.929zm8.011 18.202a.11.11 0 0 0-.04.013c-.64.331 2.783 11.33 3.651 11.534.174.04.006-1.007-.37-2.326-1.774-6.21-2.749-9.054-3.2-9.214a.113.113 0 0 0-.041-.006zm1.397 25.202c-.067-.007-.09.142-.058.484.091.986.56 2.974 1.044 4.418a264.716 264.716 0 0 1 1.524 4.67c.995 3.181 1.218 2.462.397-.972-.936-3.916-2.551-8.562-2.907-8.6zm13.007 11.742a.102.102 0 0 0-.042.012c-.739.388 3.088 11.147 3.912 11.282.182.029.001-.999-.402-2.285h-.002c-1.895-6.056-2.948-8.86-3.422-9.002a.095.095 0 0 0-.044-.007zm-2.824 18.228c-.028.007-.047.03-.057.073-.203.859 4.216 8.574 4.629 8.134.122-.13-.827-2.186-2.107-4.584-1.12-2.098-2.128-3.589-2.434-3.625a.08.08 0 0 0-.031.002z" fill="#fff"/>
    </g>
    <g id="leg_back_l">
        <path id="path1143" d="m182.279 255.951-24.716 18.952-12.36 24.443 3.846 46.688 8.238 31.31-.924 21.045c-1.352 2.29-2.683 4.476-3.974 6.448-7.55 11.526-12.999 21.71-12.162 22.734 1.57 1.923 6.74 12.932 9.146 19.48 3.468 9.435 11.267 26.395 16.006 34.807 5.722 10.158 8.63 16.238 11.686 24.432 4.968 13.325 5.095 13.506 10.148 14.323 3.165.512 17.82-.791 21.326-1.896 3.736-1.178 3.781-1.227 2.948-3.175-1.06-2.478-7.522-11.256-12.32-16.737-6.09-6.954-12.618-21.12-19.854-43.08-3.464-10.51-6.469-20.616-6.676-22.455-.354-3.14.479-6.134 2.646-9.525.384-.6 2.884-4.692 5.555-9.092 4.862-8.009 10.215-16.175 14.338-21.928l.012-.002 25.816-31.308 21.697-32.133 2.198-34.33-6.317-21.422-28.289-17.303z" fill="#000"/>
        <path id="path1762" d="M155.121 279.733c-.826.456-1.627.953-2.39 1.537-2.214 4.378-4.438 7.943-6.17 9.881-1.732 1.938-3.218 2.874-5.432 7.252.33 4.01.692 8.162 1.053 12.16.356 3.95.895 7.757 1.015 11.883.313 4.05.378 8.34.764 12.264.322 4.005.71 7.9 1.04 11.898.879 3.44 2.059 7.396 3.116 10.81 1.071 3.457 2.744 6.238 3.012 9.772.909 3.45 1.172 6.965 2.074 10.422-.096 3.233-.283 6.55-.478 9.871-.195 3.32-.37 6.68-.498 9.916-.576 1.266-.832 2.147-1.541 3.363a3943.693 3943.693 0 0 1-6.803 10.56c-1.928 2.98-3.357 4.482-5.08 7.86-.992 2.234-2.502 5.554-2.582 8.057-.132 1.747.961 2.927 1.709 4.363 1.234 2.297 2.299 4.917 3.379 7.28 1.08 2.362 2.3 4.549 3.28 6.964 1.265 3.335 3.179 5.72 4.32 8.682.944 2.453.597 3.956 2.265 8.272 1.258 3.053 3.109 7.616 4.533 10.548 1.577 3.357 4.028 5.694 5.83 8.87 1.803 3.175 3.49 6.65 5.215 9.93 1.623 3.056 2.188 5.238 3.299 8.505 1.11 3.267 2.608 7.96 3.8 11.203 1.388 3.356 3.82 7.949 6.202 10.771 2.281 2.72 5.134.706 8.48.812 1.575.03 3.627 1.112 5.198 1.024 2.557-.188 5.111-.429 7.658-.725 2.682-.306 5.693-.583 8.3-1.236 2.299-.662 4.46-1.763 5.325-4.278.84-2.187.679-3.379-.399-5.253-1.664-2.681-4.487-5.042-6.386-7.572-1.9-2.53-3.227-5.935-5.242-8.36-.735-.876-1.753-3.346-2.336-4.146-2.558-3.453-4.927-5.726-6.74-9.494-1.966-4.142-2.837-8.197-4.528-12.383-1.676-4.147-3.912-8.373-5.256-12.814-1.459-4.285-2.736-8.78-4.098-13.129-1.223-4.127-2.659-8.456-3.455-12.691-.236-3.655 2.223-6.202 3.942-9.18 1.96-3.205 3.844-6.357 5.717-9.098 1.76-2.575 3.365-4.563 5.43-7.842 1.94-2.763 4.136-6.164 6.277-9.125 2.772-3.394 6.53-10.512 9.158-14.32 2.794-4.05 4.056-8.285 7.832-10.308 2.907-3.527 6.583-5.434 9.447-8.934 2.536-3.725 4.333-6.42 6.67-10.125 2.282-3.616 4.261-8.028 7.344-11.602 2.467-3.654 5.585-7.282 8.08-10.97.248-3.882-.995-7.956-2.94-11.567-.051-.095-.12-.195-.173-.29l-.657 10.261-21.697 32.133-25.816 31.308-.012.002c-4.123 5.753-9.476 13.92-14.338 21.928-2.671 4.4-5.171 8.492-5.555 9.092-2.167 3.39-3 6.386-2.646 9.525.207 1.84 3.212 11.944 6.676 22.455 7.236 21.96 13.765 36.126 19.853 43.08 4.799 5.481 11.261 14.26 12.32 16.737.834 1.949.79 1.997-2.947 3.175-3.506 1.105-18.161 2.408-21.326 1.896-5.053-.817-5.18-.998-10.148-14.323-3.056-8.194-5.964-14.274-11.686-24.432-4.739-8.412-12.538-25.372-16.006-34.806-2.407-6.549-7.575-17.558-9.146-19.48-.837-1.025 4.613-11.21 12.162-22.735 1.291-1.972 2.622-4.158 3.974-6.448l.924-21.044-8.238-31.311-3.846-46.687zm11.16 115.774c-.467.095-2.323 2.882-3.83 5.841-3.169 6.226-2.658 6.886.647.836 1.825-3.34 3.307-6.285 3.295-6.545-.005-.103-.045-.146-.112-.132zm11.08 1.408c-.318-.034-1.876 4.77-3.058 9.556-.981 3.972.154 1.887 1.644-3.021.84-2.762 1.502-5.625 1.471-6.363-.004-.113-.024-.169-.056-.172zm-18.716 34.83c-.317 0-.976.88-1.467 1.957-1.186 2.604-2.227 8.296-1.426 7.8.347-.213.638-1.105.647-1.982.013-.876.646-2.983 1.418-4.683.771-1.7 1.144-3.092.828-3.092zm3.029 8.842c-.154.007-.142.33.037.976.221.8.625 3.337.895 5.637.27 2.3.653 4.182.853 4.182.2 0 .135-2.21-.146-4.91-.282-2.7-.848-5.235-1.258-5.635-.174-.17-.3-.254-.381-.25zm10.926 26.074c-.137.005-.217.186-.217.58 0 1.153 3.099 8.194 3.451 7.842.184-.184-.217-1.989-.888-4.01-.849-2.554-1.9-4.428-2.346-4.412zm1.156 17.447c-.346 0 .247 1.792 1.32 3.98 2.424 4.942 3.065 4.748.905-.273-.877-2.039-1.879-3.707-2.225-3.707zm11.227 5.91c-.173.012-.237.34-.237.944 0 .906 3.354 5.51 4.014 5.51.136 0-.576-1.472-1.582-3.272-1.24-2.217-1.889-3.202-2.195-3.182z" fill="#fff"/>
    </g>
    <g id="torso">
        <path id="path8941" d="M338.458 221.855c-5.089 1.823-10.465 2.574-15.692 3.886-3.281.828-6.685.696-10.034.909-2.898.157-5.71.913-8.594 1.176-8.193.904-16.242 1.493-24.492 1.996-4.349.295-8.706.349-13.063.416-11.51.384-22.995 1.309-34.458 2.4-6.574.635-13.142 1.376-19.665 2.427-7.149.753-14.343.962-21.523 1.246-10.393.387-20.865.479-31.286 1.038-5.419.329-10.99.78-15.971 3.124-5.35 2.389-10.408 5.38-15.306 8.581-4.128 5.266-7.931 10.777-11.888 16.17-2.787 3.872-5.624 7.715-8.38 11.606-3.467 7.726-6.928 15.454-10.395 23.181.548.057 1.355-.173 1.75.057.28 3.944.231 7.922.294 11.92.056 5.931.02 11.868.096 17.796 1.049 6.446 2.096 12.89 3.147 19.334l20.764 23.976c6.524 2.508 13.049 5.014 19.573 7.525 8.44.227 16.882.512 25.32.703 3.077-.327 6.146-.78 9.229-1.027 5.589.039 11.211-.127 16.755.729a79.959 79.959 0 0 1 8.884 1.787c.56.153 1.44.38 2.121.582 2.573.699 5.063 1.664 7.603 2.462 7.066 1.585 14.321 1.986 21.48 2.992 1.432.204 3.066.444 4.573.685.587.101 1.581.264 2.128.368 2.968.587 5.909 1.317 8.913 1.72 8.92 1.32 17.899 2.227 26.886 2.949 5.778.178 11.557-.189 17.323-.506 8.834-.483 17.638-1.356 26.447-2.155a404.28 404.28 0 0 1 9.195-.688c.28.336.237 1.659.753 1.263 6.373-4.388 12.709-8.835 19.105-13.187 8.37-4.814 16.767-9.592 25.12-14.428.403-.36.848-.689 1.168-.896 1.43-.909 2.976-1.796 4.702-1.897 3.076-.776 5.378-3.248 8.441-4.044.617.325 1.112-.027 1.607-.393 2.922-1.894 5.897-3.731 8.789-5.662l13.061-15.08c1.217-5.596 2.651-11.152 4.575-16.55 4.085-12.432 6.756-25.288 8.61-38.23l-6.142-21.017c-4.059-5.632-8.067-11.311-12.152-16.918-6.179-5.302-12.36-10.6-18.539-15.904-7.7-1.703-15.393-3.454-23.096-5.134-9.018-.476-15.292-.914-24.306-1.43-.246-.08-3.2.073-3.43.142z" fill="#000"/>
        <path id="path10334" d="M344.197 219.971c-2.015-.057-3.928.027-5.929.08-4.522 1.584-9.325 1.736-13.998 2.76-2.845.78-6.064 1.34-9.017 1.363-3.321.03-6.14 1.778-9.4 2.387-4.264.53-8.524.179-12.919.723-4.394.543-8.81 1-13.12 1.277-5.54.418-10.842.656-16.485.908-6.62.29-13.12-.758-19.785.027-6.665.787-13.568 2.307-20.153 3.036-4.345.436-8.404.053-12.74.55-1.19.125-2.545.37-3.693.473-6.866.45-13.558.582-20.44.816-6.882.235-13.954.559-20.834.811-6.853.349-13.906.276-20.466 2.549-6.371 2.482-12.153 6.544-17.876 10.256-1.163 1.064-1.396 1.819-2.4 3.047-3.004 4.083-6.668 8.201-9.647 12.298-2.98 4.098-5.92 8.238-8.883 12.35-3.964 8.69-2.49 5.086-6.414 13.799.96.046-2.963 12.52-2.002 12.566.153 4.631-.603 10.487-.531 14.848.07 4.361.542 7.188.6 11.82 1.044 6.736 2.038 14.565 3.118 21.297 3.576 4.132 6.91 8.219 10.436 12.4 3.526 4.182 7.177 8.446 10.754 12.577 6.786 2.609 13.75 4.976 20.537 7.583 4.21.12 9.111-.677 13.19-.943 4.08-.266 7.364.034 11.577.133 3.135-.164 6.242 1.339 9.378 1.11 6.49-.076 13.728-.989 20.13.247 5.24.9 10.329 2.473 15.341 4.214 6.856 1.664 13.281 1.014 20.254 1.965 4.683.555 8.885 3.18 13.496 4.149 4.966.823 11.36 2.433 16.363 2.986 5.004.553 8.917-.607 13.932-.197 6.45.188 13.862.775 20.299.422 5.388-.314 9.778-.571 15.17-1.073 5.392-.501 11.433-1.955 16.781-2.316.468 1.042 1.666.092 2.713-.332 6.427-4.36 12.466-7.231 18.871-11.591 3.946-2.307 8.834-4.45 12.775-6.678 3.942-2.227 7.31-4.663 11.264-6.959 1.991-.974 3.66-2.624 5.84-3.23 3.107-.28 5.58-2.605 8.271-3.96.804-.606 1.768.259 2.62-.216 3.329-2.035 6.63-4.515 9.904-6.648 4.584-5.158 8.892-9.924 13.433-15.13.534-1.734.623-2.315 1.106-4.087.694-2.84 2.568-8.85 3.44-11.586 2.386-6.855 2.857-14.072 4.523-21.207 1.666-7.135 3.768-12.739 4.783-19.918-2.12-7.255-4.79-13.493-6.91-20.748-4.137-5.764-8.545-12.347-12.711-18.09-3.173-2.77-5.873-5.248-9.072-8.016-3.2-2.767-6.253-5.789-9.446-8.54-3.93-.88-8.572-2.13-12.543-2.885-3.97-.756-7.28-.914-11.212-1.784-7.358-.44-14.911-1.284-22.274-1.693zm-5.103 3.781.227.028 26.703 1.359 22.342 4.982 3.309 2.838c-.046.193.026.188.136.118l14.61 12.53 11.736 16.383 5.924 20.267c-2.145 14.86-5.125 27.825-9.303 39.953-1.282 3.723-2.534 8.552-3.68 13.758l-12.609 14.559-8.648 5.537c-.74-.261-3.121.682-5.727 2.361-1.491.961-3.223 1.748-3.848 1.748-1.51 0-4.777 1.72-6.33 3.12l-25.226 14.468-16.996 11.759-.141-.399-5.1.346c-2.805.19-8.701.7-13.101 1.13-14.58 1.422-31.935 2.336-36.729 1.937-14.336-1.196-27.186-2.805-32-4.01-3-.751-10.684-1.902-17.078-2.557-6.393-.655-12.938-1.673-14.545-2.262-9.816-3.595-18.913-5.344-27.978-5.379l-7.67-.032-8.95 1.043-24.688-.707-18.789-7.222-20.064-23.168-3.055-18.774-.01-3.24c-.067-24.45-.146-28.454-.98-28.293l9.05-20.187 17.076-23.575 2.786-3.623c3.65-2.392 7.77-4.842 11.261-6.588 8.743-4.373 10.224-4.572 39.634-5.334 17.55-.454 29.477-1.088 33.455-1.775 11.633-2.01 44.11-4.703 56.363-4.674 7.84.02 33.643-1.985 38.012-2.953 1.706-.378 4.977-.695 7.272-.705 2.294-.009 5.482-.34 7.082-.736 1.6-.396 5.953-1.367 9.674-2.157a55.07 55.07 0 0 0 6.593-1.873zm-37.54 22.207a.222.222 0 0 0-.063.002c-.235.042-.637.426-1.209 1.172-1.772 2.313-5.543 14.858-4.467 14.858.144 0 1.654-3.455 3.356-7.676 2.153-5.343 2.973-8.289 2.382-8.356zm-72.647 3.668c-1.028 0-3.503 2.827-4.904 5.6-1.683 3.33-1.448 3.953.355.945.84-1.4 2.372-3.445 3.406-4.545 1.035-1.1 1.548-2 1.143-2zm25.818 3.635c-.9 0-1.404 1.245-3.13 7.711-2.093 7.835-1.131 7.024 1.597-1.348 1.14-3.5 1.83-6.363 1.533-6.363zm25.166.133c-.156.015-.477.686-.941 2.184-1.079 3.48-1.826 7.574-1.29 7.066.254-.24.956-2.331 1.56-4.648.736-2.83.931-4.627.671-4.602zm-79.228 10.22c-.561.117-4.275 7.289-5.063 9.829-1 3.227.203 1.54 2.797-3.924 1.453-3.059 2.493-5.71 2.31-5.893-.011-.011-.028-.015-.044-.011zm99.91 12.92c-.594 0-1.546 3.086-2.469 8-.262 1.4-.657 3.2-.877 4-.22.8-.142 1.21.172.913.315-.299 1.293-3.325 2.174-6.727.88-3.402 1.33-6.185 1-6.185zm-42.031 4.852a.16.16 0 0 0-.057.008c-.109.033-.272.171-.49.389-.896.896-2.445 7.76-2.426 10.752.013.97.087.97.713 0 .388-.6.709-1.756.715-2.569.013-.812.463-3.216 1.014-5.34.603-2.325.78-3.218.53-3.24zm-23.051 1.223c-.248.046-.633.458-1.096 1.318-1.211 2.253-2.078 7.129-1.521 8.557.27.693.666-.142 1.008-2.131.31-1.8.937-4.184 1.396-5.297.653-1.583.626-2.524.213-2.447zm-21.332 1.926c-.347 0-.867.9-1.158 2-.807 3.05-1.578 11.03-1.032 10.693.266-.164.71-2.298.987-4.744.276-2.446.804-5.237 1.17-6.2.366-.962.38-1.75.033-1.75zm61.564 13.863c-.248.134-.559.951-.86 2.56-.42 2.237.09 7.402.661 6.72.108-.13.374-2.28.59-4.78.264-3.053.023-4.724-.39-4.5zm22.012 15.228c-.416 0-.69 1.942-.64 4.545.067 3.618.198 4.1.64 2.364.306-1.2.595-3.245.643-4.545.046-1.3-.243-2.364-.643-2.364zm96.79 7.272c-.367 0-.775 2.128-.909 4.728-.235 4.562.212 5.975 1.133 3.577.692-1.803.516-8.305-.225-8.305zm-128.395.922c-.077-.01-.18.052-.31.18-1.4 1.36-1.973 11.261-.653 11.261.112 0 .264-1.55.338-3.443.073-1.894.343-4.594.601-6 .243-1.325.254-1.972.024-1.998zm-25.85 4.896c-.431 0-.682 2.293-.62 5.637.108 5.609.11 5.617.6 1.637.272-2.2.59-4.329.708-4.729.386-1.315.053-2.545-.688-2.545zm131.738 2.91c-.577 0-2.283 6.914-2.283 9.254 0 2.017 1.294.149 2.092-3.02.976-3.875 1.05-6.234.191-6.234zm-153.966 3.84a.377.377 0 0 0-.157.06c-.666.413-1.163 2.45-1.978 8.1-.242 1.676-.09 1.503.658-.744.535-1.608 1.213-4.022 1.508-5.363.257-1.17.284-1.867.086-2.021a.152.152 0 0 0-.118-.032zm112.013-15.927c-.012.018-.046.004-.07.02-.367.226-.668 2.738-.668 5.581 0 6.53.485 6.171.967-.715.204-2.923-.04-5.168-.229-4.886zm-11.875 28.126a1.125 1.125 0 0 0-.142.018.95.95 0 0 0-.495.246c-.751.752-1.123 8.95-.503 11.125.462 1.625.733.728 1.359-4.52.43-3.6.514-6.66.19-6.802a.894.894 0 0 0-.409-.067zm-92.463 9.19a.092.092 0 0 0-.05.033c-.285.306-.648 2.77-.81 5.477-.16 2.706-.07 4.506.202 4 .272-.507.638-2.97.81-5.477.152-2.193.1-3.846-.105-4.02a.05.05 0 0 0-.047-.013zm56.801.953c-.515 0-.793 2.376-.793 6.787 0 5.53.3 7.784 1.031 7.756.034 0 .171-3.275.307-7.273.167-4.91-.013-7.27-.545-7.27zm-33.85 2.7c-.086.046-.146 1.307-.148 3.482 0 3.2.123 4.599.28 3.11.156-1.49.158-4.109.013-5.82h-.008c-.038-.427-.076-.671-.11-.747-.008-.022-.018-.03-.027-.026z" fill="#fff"/>
    </g>
    <g id="tail">
        <path id="path3808" d="M8.585 408.861c-1.705-.58-2.772-2.248-3.624-3.739-1.863-3.784-2.825-8.162-1.887-12.339 1.35-6.612 3.017-13.164 4.908-19.64 2.905-9.914 7.15-19.45 12.822-28.096 4.303-6.608 9.046-12.933 14.124-18.964 8.055-9.322 17.592-17.19 26.959-25.134 8.183-6.953 16.673-13.579 24.28-21.18 5.83-5.342 12.836-9.109 19.228-13.701 3.842-2.855 7.802-5.585 12.137-7.647 6.938-3.407 14.291-5.868 21.292-9.138 1.246-.531 2.459-1.221 3.725-1.657 1.421.06 2.884-.051 4.279.113 1.461.846 3.06 1.554 4.437 2.489 1.454 2.47 2.912 4.94 4.367 7.41-.584 2.273-1.172 4.543-1.757 6.814-2.192 2-4.314 4.109-6.551 6.039-9.571 3.983-19.194 7.871-28.703 11.981l-4.647 3.538c-.561-.571-1.202.663-1.775.911-6.354 5.304-12.394 10.877-18.48 16.518-5.207 4.85-10.366 9.834-15.112 15.202-8.207 9.001-16.174 18.216-24.19 27.388-1.452 7.27-3.378 14.466-3.375 21.95.071 4.572.205 9.39-1.969 13.565-1.808 3.574-3.892 7.061-6.55 10.073-.813.931-2.127 1.485-3.299.902-.815-.498-.73-.665-1.22.401-.81 1.454-1.844 3.463-3.797 3.293-1.554-.148-2.615-1.835-2.428-3.337-.801 2.404-1.33 5.09-3.147 6.971-1.666 1.532-4.558 1.003-5.914-.68-.365-.339-.602-1.741-.65-.584-.524 2.413-.596 5.249-2.577 7.007-1.575 1.594-4.462 1.784-5.99.03-.431 1.897-2.356 3.251-4.244 3.348-.224-.033-.457-.024-.672-.107z" fill="#000"/>
        <path id="path6636" d="M126.778 254.461c1.772-1.011-5.562.443-7.343 1.207-2.585 1.086-4.145 2.546-6.665 3.968-2.518 1.422-4.012 1.577-6.276 3.235-3.523 2.684-6.806 5.275-10.706 8.057-3.901 2.781-8.15 5.486-11.458 8.454-3.209 3.183-5.248 3.849-8.645 6.808-3.398 2.96-7.346 6.839-10.807 9.72-3.147 2.672-6.547 5.207-9.764 7.911a239.262 239.262 0 0 0-9.574 8.516c-3.086 2.811-5.843 5.564-8.715 8.605-2.783 2.975-4.502 5.379-7.04 8.178-2.538 2.799-5.877 6.037-8.201 9.377-1.965 2.784-4.259 7.573-5.863 10.413-1.547 2.741-2.077 4.896-3.644 8.108-1.36 2.998-2.815 6.34-3.913 9.502-1.36 3.987-3.16 6.875-4.48 10.965-1.32 4.091-2.4 9.672-3.288 13.787-1.153 4.28.411 10.167 2.092 14.245 1.114 2.751 2.537 4.542 5.563 5.456l.078.103c3.445-1.558 6.978-3.603 9.456-4.078 7.704-4.297 7.088-2.507 9.08-3.767 2.592-.257 4.56-2.064 5.461-4.311.284-.442 3.07-2.529 3.657-2.637 2.935-3.759 7.18-2.395 7.901-2.951 2.87-2.934 4.223-5.662 6.139-9.27 2.362-4.004 2.714-9.609 2.633-14.161-.175-3.929.646-7.423 1.305-11.301.66-3.878 1.77-7.936 2.55-11.752 2.419-2.766 4.242-6.082 6.592-8.744 2.35-2.663 5.187-4.579 7.624-7.329 2.991-3.347 5.85-7.235 8.799-10.504 2.949-3.268 6.266-6.331 9.492-9.458 2.502-2.398 4.972-5.531 7.335-7.877 2.362-2.344 4.38-6.522 7.384-8.225 3.632-3.401 5.324-4.719 9.987-7.947.527-1.101 1.035-3.328.569-3.357-.675.468-6.913 5.31-7.164 5.439-2.633 1.351-18.284 16.15-25.284 23.551-3.751 3.965-11.828 12.949-17.95 19.963l-11.13 12.753-1.83 8.776c-1.275 6.105-1.788 10.803-1.688 15.438.108 4.984-.198 7.524-1.212 10.083-1.587 4.006-6.804 11.796-7.578 11.317-.293-.182.946-6.116 2.756-13.188 2.216-8.66 3.36-14.564 3.502-18.074.115-2.868.575-7.469 1.019-10.227.61-3.782.564-4.76-.195-3.98-.578.595-1.247 2.794-1.574 5.185a353.196 353.196 0 0 1-.917 6.318 165.638 165.638 0 0 0-.704 5.082c-1.036 8.504-4.78 23.986-6.75 27.921-2.235 4.457-2.877 5.164-3.553 3.902-.794-1.482 5.885-35.215 9.228-46.602 2.161-7.363 1.865-9.901-.517-4.423-.735 1.692-3.546 12.373-6.245 23.738-7.515 31.638-7.98 33.016-10.885 32.239-1.336-.357-1.598-1.037-1.547-3.99.175-10.045 1.577-18.268 5.128-30.058 3.525-11.713 5.362-15.87 10.711-24.238 1.356-2.122 2.973-4.909 3.592-6.192 1.067-2.211 1.05-2.274-.348-1.222-.811.612-2.994 3.415-4.85 6.231-1.857 2.816-3.692 5.376-4.077 5.687-.384.311-2.526 5.797-4.763 12.19-4.504 12.875-7.239 24.595-8.548 36.64-.464 4.26-1.26 8.499-1.77 9.418-1.067 1.919-3.14 2.393-4.16.955-.635-.894-.981-10.576-.544-15.143.098-1.032.128-2.398.065-3.036-.063-.638 1.353-6.511 3.147-13.054 3.86-14.081 6.677-19.698 16.38-32.649 11.164-14.901 10.777-14.327 9.207-13.604-3.273 1.507-11.781 12.638-17.777 23.257-5.742 10.169-9.871 21.519-11.767 32.338-1.488 8.487-2.32 17.812-1.93 21.622.156 1.527-.117 2.186-1.158 2.788-1.224.707-1.523.589-2.926-1.141-.86-1.06-1.935-3.702-2.39-5.872-.769-3.665-.616-4.805 2.128-15.955 5.27-21.415 10.727-32.599 24.726-50.677 8.028-10.368 14.637-16.668 36.94-35.219 10.217-8.499 13.813-11.669 18.254-16.1 1.921-1.917 6.553-5.423 10.292-7.793s8.97-5.928 11.627-7.906c4.698-3.499 9.325-6.646 16.484-10.732z" fill="#fff"/>
    </g>
    <g id="leg_front_r">
        <path id="path3811" d="m366.721 317.546-12.219 2.187-11.81 12.11c-.728 7.437-1.511 14.871-2.206 22.312-.01 8.738-.017 17.473-.029 26.21.743-.108 1.204.122 1.181.925 1.28 5.767 2.033 11.831 2.537 17.786.61 7.343.557 14.72.795 22.082.264 11.716.619 23.441.738 35.135.092 5.343-.271 10.684-.079 16.026.105 4.727.426 9.352.521 14.067.308 8.517.097 17.026.679 25.533.218 3.339 1.551 6.521 3.282 9.346 1.126 1.821 2.708 3.523 4.868 4.023 3.776.969 7.744.608 11.555.052 3.426-.512 6.756-1.501 9.993-2.716 1.004-.365 2.116-.301 3.05-.886 1.896-.97 3.599-2.268 5.395-3.402-1.681-4.849-3.457-9.684-4.51-14.718-2.634-12.006-3.289-24.344-3.368-36.603-.036-12.318.647-24.493 1.664-36.765 1.237-15.131 2.583-30.281 4.521-45.36.795-5.704 1.513-11.441 2.941-17.027a165.138 165.138 0 0 1 2.739-8.227c.531-.359.584-.951.645-1.535l2.174-14.236c-1.107-5.07-2.214-10.14-3.318-15.209l-7.499-8.475c-4.624-.901-9.248-1.8-13.872-2.702z" fill="#000"/>
        <path id="path3853" d="M340.207 351.282c-.751 4.121-1.866 10.578-1.762 14.803.104 4.225.449 8.145.434 12.347-.101 1.371.741 3.27.96 5.046.491 2.286 1.177 2.227 1.521 4.54.335 2.224.342 5.714.569 7.837.485 4.691.468 9.31.546 14.054.079 4.744.187 9.592.336 14.306.083 4.198.581 7.863.853 11.684.261 3.684 1.382 6.873.543 11.151.018 3.872-.838 8.285-.861 12.405-.12 3.28-.328 8.56-.224 11.765.103 3.205.864 5.935 1.006 9.213.183 3.532.059 6.66-.125 9.848-.159 2.722-.885 4.366-.628 8.837-.08 3.308.236 8.032.409 11.306.02 4.496 2.783 10.035 5.326 13.727 1.551 2.692 4.009 3.535 7.077 3.867 2.522.331 5.064.152 7.524.059 2.462-.095 4.931-.511 7.382-1.133 2.436-.435 4.289-.461 6.73-.851 3.376-.898 7.493-6.574 10.479-8.262-.822-2.439-3.155-5.26-3.916-7.76-.762-2.498-.874-3.325-1.447-5.839-.802-3.417-2.267-5.918-2.937-9.376-.686-3.534-1.438-7.909-1.085-11.324-.28-3.489.181-6.878.079-10.393-.1-3.578.105-7.684.141-11.252.067-4.815-.464-10.088-.321-14.795.139-4.555.713-7.995 1.228-13.103.31-4.736.888-9.913 1.308-14.624.315-3.441.58-6.622.749-10.152.177-3.661.342-8.049.85-11.072.273-3.573.293-7.046 1.276-10.181.429-3.446 1.451-6.516 2.006-10.039.638-4.331 1.324-9.623 2.827-13.745.659-1.387 1.671-8.751 2.336-10.441l-.644-2.746c-.188.178-3.51 7.554-3.578 7.711-.145.34-.507 1.361-.974 2.735a324.835 324.835 0 0 0-1.599 4.847 27.192 27.192 0 0 0-.453 1.583c-.167.653-.322 1.31-.464 1.97-.314 1.443-.634 3.14-.961 5.079-.328 1.94-.661 4.122-.998 6.534a428.261 428.261 0 0 0-1.025 7.914c-.345 2.862-.694 5.94-1.044 9.226-.35 3.284-.7 6.774-1.053 10.459-.352 3.685-.704 7.565-1.055 11.626-.352 4.062-.7 8.304-1.048 12.717a493.477 493.477 0 0 0-.87 13.164 418.676 418.676 0 0 0-.461 12.222c-.042 1.959-.067 3.88-.076 5.763-.009 1.882-.002 3.725.023 5.53.026 1.805.069 3.573.129 5.303.059 1.729.135 3.419.229 5.073.091 1.617.202 3.232.333 4.847a167.566 167.566 0 0 0 .97 9.019c.195 1.429.41 2.82.64 4.175.23 1.355.478 2.674.743 3.955.258 1.25.541 2.496.847 3.735.291 1.179.607 2.352.948 3.517a71.142 71.142 0 0 0 1.053 3.299l1.566 4.529-2.184 1.439c-.6.396-1.217.749-1.726.998a6.206 6.206 0 0 1-.665.288c-.184.065-.325.097-.411.088-.17-.02-.585.062-1.114.212-.529.148-1.173.362-1.806.606-.937.362-1.917.689-2.918.982a43.862 43.862 0 0 1-3.054.774c-1.028.222-2.06.406-3.075.554a42.253 42.253 0 0 1-2.981.328c-.964.07-1.896.103-2.771.095a22.267 22.267 0 0 1-2.449-.152 13.083 13.083 0 0 1-1.066-.17 10.148 10.148 0 0 1-.944-.231 6.765 6.765 0 0 1-.805-.3 4.075 4.075 0 0 1-.652-.363 5.2 5.2 0 0 1-.737-.637 9.448 9.448 0 0 1-.748-.876c-.263-.346-.51-.704-.741-1.072-.25-.4-.486-.808-.706-1.225a22.193 22.193 0 0 1-1.686-4.144 16.73 16.73 0 0 1-.339-1.392c-.07-.361-.143-1.046-.209-1.974a119.97 119.97 0 0 1-.182-3.431 287.136 287.136 0 0 1-.219-9.311 611.272 611.272 0 0 0-.195-10.921c-.096-3.661-.216-7.049-.336-9.278-.12-2.229-.209-4.87-.253-7.331-.045-2.461-.042-4.74.013-6.244.051-1.423.085-2.882.099-4.613.013-2.085.004-4.171-.025-6.255-.06-5.042-.214-12.143-.486-23.228-.178-7.27-.43-17.682-.562-23.138a147.653 147.653 0 0 0-.337-6.915c-.169-2.362-.387-4.72-.653-7.073-.254-2.25-.559-4.494-.914-6.73a114.307 114.307 0 0 0-.534-3.077 80.832 80.832 0 0 0-.578-2.801l-1.747-14.677.015-14.523-1.14-1.76m25.08 22.521c-.303.006-.574 1.646-1.013 5.683l-.749 6.867 1.335-5.17c.93-3.603 1.159-5.686.748-6.868-.115-.333-.221-.514-.322-.511zm-9.574 31.772c-.712-.083-1.276 9.637-.638 11.003.545 1.167 1.062.821.817-.547-.129-.72-.064-3.347.146-5.84.211-2.492.064-4.57-.325-4.616zm11.588 11.311c-.089.016-.188.489-.312 1.36-.404 2.824.171 8.856.797 8.362.175-.139.16-2.724-.034-5.747-.177-2.765-.302-4.003-.451-3.975zm-9.199 32.202c-.13-.004-.436.17-.951.498-1.653 1.051-1.807 2.238-.936 7.245.892 5.128 1.562 4.523 1.208-1.09-.152-2.422.024-4.988.393-5.703.332-.647.453-.946.286-.95zm4.939 21.68c-.022-.009-.041.021-.054.095-.271 1.546.997 12.14 1.36 11.366.166-.356-.028-3.301-.433-6.545-.355-2.837-.718-4.854-.873-4.916z" fill="#fff"/>
    </g>
    <g id="leg_back_r">
        <path id="path15" d="M142.615 269.332c-5.845 2.262-11.855 4.063-17.713 6.284-2.482 1.006-4.975 2.074-7.202 3.574-2.545 2.045-4.277 4.874-6.336 7.369-1.033 1.347-2.17 2.624-3.241 3.931-1.445 3.469-2.96 6.914-4.363 10.4-.893 3.422-1.856 6.836-2.709 10.264l-.472 46.226c2.727 15.311 5.449 30.624 8.179 45.935L97.28 432.717c.199 1.16.156 2.388.511 3.503 2.487 5.243 5.032 10.461 7.481 15.719 2.32 6.777 4.711 13.533 6.987 20.322 2.877 11.872 5.675 23.763 8.496 35.65 1.756 3.962 3.595 7.893 5.297 11.874l4.303 14.725c1.472.968 2.901 2.043 4.4 2.947 4.296.733 8.591 1.547 12.889 2.233l12.88-1.502c.295-.663.813-1.307.973-1.979-1.286-3.644-2.493-7.32-3.829-10.943-2.136-4.553-4.341-9.077-6.435-13.647-1.654-4.384-3.374-8.747-4.99-13.144-2.327-11.138-4.707-22.264-7-33.408-.967-5.964-1.935-11.927-2.9-17.891 3.077-6.296 6.241-12.552 9.262-18.875 1.847-3.938 3.62-7.917 5.512-11.832 6.471-10.862 12.939-21.728 19.411-32.59 3.177-2.521 6.399-4.991 9.417-7.703.859-.733 1.776-1.416 2.304-2.442l11.594-17.284c2.632-8.808 5.218-17.634 7.877-26.432l7.632-17.35-4.539-27.906c-4.269-2.871-8.564-5.707-12.786-8.642-2.171-1.434-4.327-2.924-6.538-4.274-1.925-.399-3.841-.84-5.778-1.171a47.937 47.937 0 0 0-1.686-.216c-9.49-1.103-18.941-2.519-28.396-3.901z" fill="#000"/>
        <path id="path11" d="m149.392 264.502-7.514 2.972c2.521-.95 5.026-1.94 7.514-2.972zm-21.816 18.697c-.131.044-.382.23-.721.549-.793.744-1.351 2.69-1.56 5.453l-.325 4.297 1.047-4.537c.576-2.497 1.276-4.952 1.559-5.455.14-.252.13-.35 0-.307zm25.64 4.115c-.093-.016-.278.125-.547.403-1.111 1.148-4.386 9.054-3.75 9.054.326 0 1.454-1.986 2.506-4.412 1.527-3.521 2.07-4.996 1.791-5.045zm18.657 4.559c-.092.026-.204.08-.333.16-.646.4-1.274 2.364-2.505 7.83-.788 3.498.116 2.157 1.691-2.506 1.276-3.778 1.676-5.24 1.361-5.469-.052-.038-.123-.041-.215-.015zm-70.254 9.293-2.565 9.619-.476 46.76 8.11 45.567-11.452 29.344.478 4.056 7.635 15.985 6.918 20.039 3.102 12.885 5.486 23.14 5.25 11.69 4.531 15.507 5.25 3.579 13.598 2.386 14.314-1.67 1.908-3.578-4.054-11.691-6.442-13.598-5.01-13.123-6.92-32.922-2.86-17.654 8.349-16.94 5.965-12.882 19.324-32.446 5.725-4.532 5.25-4.533 12.644-18.848 7.873-26.482-.002.002-.336-.031c-.073-.622-.704-.851-1.302-1.225-1.824-1.138-1.913-1.03-3.17 3.787-1.538 5.89-6.848 18.314-10.315 24.14-1.666 2.8-5.863 8.037-9.326 11.637-8.945 9.298-11.62 13.16-18.443 26.626-3.322 6.555-8.653 16.302-11.846 21.659-3.194 5.356-6.788 12.066-7.99 14.91-1.14 2.7-2.297 5.393-3.469 8.078-.706 1.6-1.505 4.15-1.777 5.67-.505 2.814 1.438 17.7 2.486 19.056.309.4 1.748 7.274 3.197 15.274 1.45 8 3.111 16.182 3.692 18.182 2.596 8.948 3.584 11.756 4.742 13.455 2.362 3.468 6.815 13.973 9.002 21.24.973 3.234.952 3.38-.535 3.78-2.162.58-14.683.378-18.696-.302-1.831-.31-4.626-1.225-6.21-2.033-2.788-1.422-2.91-1.641-3.786-6.805-.497-2.934-1.892-8.117-3.1-11.517-2.735-7.704-3.557-10.665-6.843-24.654-4.498-19.149-14.445-47.877-18.725-54.079l-1.383-2.003 5.932-16.291 5.932-16.29-1.186-7.468c-.653-4.108-1.303-7.657-1.445-7.887-.142-.23-1.645-7.127-3.34-15.327l-3.082-14.91-.08-29.219c-.051-18.674-.133-25.032-.527-27.113zm90.203 5.87c-.063-.06-.221.033-.477.28-.639.616-3.097 8.065-3.097 9.385 0 1.532.86-.17 1.896-3.748.665-2.3 1.377-4.672 1.582-5.272.126-.37.159-.584.096-.644zm-55.03 2.98c-.747.236-1.756 3.384-2.011 6.595l-.303 3.797.63-3.365c.347-1.852 1.017-4.09 1.49-4.973.472-.883.695-1.769.495-1.969-.093-.092-.194-.12-.3-.086zm-24.644 1.665-.133 6.666c-.072 3.668.072 7.2.322 7.85.677 1.764.69 1.404.233-6.88zm42.166 15.703a.221.221 0 0 0-.143.04c-.682.426-1.572 4.25-1.888 8.431l-.373 4.916 1.441-6.486c.792-3.568 1.286-6.64 1.098-6.828a.223.223 0 0 0-.135-.073zm19.031 5.211a.689.689 0 0 0-.271.116c-.613.378-3.735 9.003-3.735 10.318 0 1.157.84-.3 2.037-3.531 1.708-4.61 2.3-6.426 2.121-6.819-.03-.065-.08-.09-.152-.084zm-48.82 11.7a.404.404 0 0 0-.172.113c-.41.4-.921 3.345-1.137 6.545-.427 6.348.48 4.262 1.387-3.192.254-2.088.274-3.208.053-3.43a.129.129 0 0 0-.131-.036zm13.89 9.783c-.223.16-.57 1.742-1.13 5.021-1.21 7.071-.634 8.663.798 2.205.464-2.093.733-4.951.596-6.351-.046-.475-.103-.767-.176-.858-.027-.034-.056-.04-.088-.017zm18.834 7.605c-.598.118-1.567 2.339-2.748 6.33-1.441 4.875-.582 4.037 1.686-1.642.926-2.32 1.509-4.393 1.295-4.608-.07-.07-.147-.097-.233-.08zm-35.326 16.907c-.713-.71-.109 10.933.633 12.18.59.991.614.596.356-5.455-.141-3.299-.586-6.325-.989-6.725zm15.813 9.889c-.042-.042-.09-.024-.14.049-.341.488-.863 3.44-1.202 7.56l-.414 5.045.973-3.636c.535-2 .976-5.108.98-6.908.004-1.32-.072-1.984-.197-2.11zm-15.643 26.836c-.316 0-1.575 2.455-2.797 5.455-1.222 3-1.997 5.45-1.724 5.444.272-.007 1.53-2.462 2.795-5.456 1.265-2.993 2.042-5.443 1.726-5.443zm12.041 3.129c-.746.249-2.013 3.888-3.299 9.475-1.028 4.469.165 2.322 2.194-3.948 1.029-3.18 1.526-5.667 1.105-5.527zm-14.974 34.643c-.12-.047-.236.038-.377.18-.345.344 2.25 9.648 3.07 11.007.976 1.62.713-.449-.682-5.346-1.253-4.4-1.652-5.703-2.011-5.841zm10.394 30.869c-.062.054-.101.44-.139 1.177-.096 1.9 2.868 11.117 3.403 10.583.169-.17-.36-2.373-1.176-4.899s-1.63-5.247-1.809-6.047c-.132-.59-.217-.868-.279-.814zm5.766 31.24c-.075-.026-.118.064-.123.287-.039 1.627 2.114 7.742 2.566 7.29.132-.133-.383-2.193-1.144-4.577-.571-1.788-1.074-2.921-1.3-3z" fill="#fff"/>
    </g>
    <g id="neck">
        <path id="path13946" d="M436.858 123.128c-7.405.237-14.902 1.555-21.615 4.798-2.271 1.29-4.605 2.488-6.835 3.834-2.508 2.17-5.083 4.284-7.548 6.487-4.411 7.668-8.877 15.309-13.029 23.12-1.198 2.734-2.903 5.212-4.38 7.801-4.816 7.938-9.637 15.903-15.327 23.261-2.016 2.701-4.093 5.365-6.472 7.759-4.685 4.843-9.556 9.523-14.767 13.799-1.19 1.052-2.577 1.813-3.944 2.602-4.694 3.1-7.708 8.056-10.168 12.988-2.07 4.227-3.798 8.613-5.657 12.931-.935 3.752-1.963 7.488-2.838 11.254-.84 6.189-1.743 12.371-2.542 18.563-.08 4.564-.245 9.133-.271 13.695.639 6.544 3.183 12.756 6.589 18.331 2.231 3.729 4.737 7.281 7.141 10.898 5.983 4.093 12.343 7.92 19.467 9.608 6.101 1.46 12.382 1.86 18.592 2.626 1.33.091 2.659-.265 3.979-.419 9.688-1.491 18.91-5.184 27.448-9.92 2.474-1.38 4.948-2.785 7.324-4.314 3.098-3.575 6.242-7.119 9.311-10.717.693-1.343 1.562-2.616 2.147-4.002 2.114-8.277 3.674-16.685 5.066-25.102 2.189-12.047 4.884-24.078 9.336-35.513 1.468-3.895 3.567-7.511 5.046-11.4 2.394-5.996 4.355-12.152 6.331-18.293 1.66-4.518 4.035-8.723 6.606-12.778 1.471-2.417 3.011-4.804 4.378-7.279 1.386-3.482 2.829-6.945 4.18-10.436l2.572-15.901c-1.397-4.55-2.889-9.073-4.198-13.65-.421-1.156-.553-2.441-1.164-3.509-2.758-4.378-5.517-8.754-8.274-13.132l-15.971-8.01z" fill="#000"/>
        <path id="path16747" d="M404.769 132.16c-1.84 1.601-3.662 3.238-5.477 4.814-1.828 3.177-3.488 6.233-5.325 9.441-1.837 3.208-3.851 6.557-5.613 9.77-1.68 2.866-3 5.89-4.733 8.723-1.503 2.519-2.748 5.581-4.13 8.093-1.379 2.51-2.815 4.404-4.415 6.901-1.721 2.675-4.229 5.351-6.14 7.978-1.911 2.628-3.873 5.249-5.913 7.751-1.764 2.041-3.694 4.367-5.502 6.285-1.807 1.916-3.464 3.46-5.43 5.305-2.516 2.233-5.861 6.047-8.618 7.974-2.972 1.577-5.801 2.216-7.877 4.867-1.624 2.06 1.258 1.493-.046 4.095 6.075-4.399 7.688-5.617 9.976-6.743 3.53-1.915 17.504-15.097 21.543-20.321 6.616-8.559 8.967-11.987 15.374-22.418 3.759-6.123 6.846-11.385 6.856-11.692.009-.268 7.496-15.191 15.47-30.823zm-1.996 16.804c-1.479.038-2.177 8.345-1.036 14.748 1.131 6.35 5.962 15.517 6.07 11.516.017-.5-.564-3.057-1.283-5.682-.72-2.626-1.688-8.205-2.151-12.398-.462-4.195-.969-7.764-1.127-7.933a.822.822 0 0 0-.327-.23.424.424 0 0 0-.146-.021zm-7.643 12.201c-.373-.013-.741 1.888-.818 4.223-.258 7.793 4.061 22.656 6.043 20.801.588-.55.33-2.571-.916-7.212-.953-3.547-2.013-8.421-2.354-10.834-.813-5.777-1.143-6.951-1.955-6.978zm72.591 5.931-9.388 19.995c-5.577 9.453-7.989 12.148-11.119 20.409-3.186 10.308-6.22 18.6-8.381 22.9-5.179 10.305-9.624 26.141-12.922 46.028-1.251 7.549-2.708 14.554-4.393 21.202l-1.876 9.666c1.039-1.18 2.082-2.358 3.088-3.52.943-1.459 1.818-3.246 2.556-4.828a189.363 189.363 0 0 0 2.795-12.077c.829-4.18 1.619-8.792 2.327-13.013.49-2.705.701-4.384 1.131-6.556.429-2.173 1.096-4.923 1.729-7.57.986-4.014 3.12-11.719 4.191-16.073 1.07-4.355 1.516-7.227 3.231-10.997 1.384-2.769 3.458-4.024 4.497-6.713 1.039-2.689 1.77-5.174 2.749-8.107.813-2.304 1.196-5.405 1.93-7.661.735-2.256 2.2-4.421 3.353-6.59a95.082 95.082 0 0 1 1.595-3.033c2.266-3.995 4.202-8.309 6.442-12.319 1.524-3.573 3.403-6.118 4.84-9.731.504-2.784.743-6.055 1.134-8.785.127-.882.317-1.754.491-2.628zm-78.819 6.366c-.323.039-.664.946-.968 2.762-.844 5.023 1.662 15.554 5.015 21.071 1.072 1.764 2.417 2.265 2.461.918.015-.44-.422-1.844-.971-3.124-1.799-4.194-4.124-13.262-4.496-17.54-.239-2.749-.625-4.138-1.041-4.087zm30.397 9.605c-.503-.017-3.977 7.167-4.015 8.299-.035 1.076.878-.218 2.616-3.705 2.25-4.514 2.267-4.565 1.399-4.594zm-37.511 1.013c-.301.023-.628.598-.959 1.753-1.213 4.235 1.431 13.521 5.46 19.175 3.772 5.295 3.808 2.575.071-5.55-2.119-4.607-3.176-8.024-3.418-11.046-.23-2.879-.654-4.37-1.154-4.332zm49.469 11.09c-.351-.022-1.25 1.397-2.262 4.044-.869 2.273-1.829 4.779-2.137 5.57-.306.79.193.397 1.112-.872.919-1.271 2.162-3.768 2.763-5.549.698-2.069.809-3.095.556-3.186a.114.114 0 0 0-.032-.007zm-58.585.181c-2.18-.072 2.58 15.912 5.745 19.291 1.224 1.306 2.566 1.775 2.595.904.008-.25-1.163-2.827-2.602-5.725-1.438-2.899-3.175-7.336-3.858-9.86-.683-2.524-1.529-4.598-1.88-4.61zm-7.743 12.376a.125.125 0 0 0-.032.005c-1.283.388-.81 5.279.78 8.052 1.716 2.993 3.227 3.598 2.681 1.074-.954-4.411-2.749-9.172-3.429-9.131zm50.796 21.145a.593.593 0 0 0-.21.028c-.821.244-3.354 5.55-5.074 10.631-.921 2.714.61 1.031 2.885-3.177 2.354-4.355 3.322-7.423 2.399-7.482zm-74.201 12.032c-.758-.032-2.043 1.731-3.621 4.969-1.346 2.76-2.453 5.18-2.459 5.377-.031.943.742.115 2.474-2.655 1.042-1.666 2.171-3.838 2.509-4.827.337-.99.986-2.029 1.442-2.307.531-.326.407-.525-.345-.557zm19.867 10.603c-.01 0-.02 0-.032.003-.693.164-4.601 7.312-6.261 11.566-2.105 5.391-.19 3.085 3.225-3.885 1.847-3.768 3.256-7.196 3.13-7.619-.011-.04-.033-.061-.062-.065zm18.626.874c-.01 0-.021-.001-.034.003-.702.134-2.61 5.291-3.055 8.431-.422 2.982-.228 2.682 1.49-2.329 1.085-3.165 1.846-5.892 1.689-6.059a.136.136 0 0 0-.09-.046zm-52.916 24.187c-.156-.028-.465.408-.928 1.376-1.064 2.221-2.685 10.344-1.933 9.676.217-.193.99-2.405 1.716-4.914h.002c1.095-3.779 1.487-6.077 1.144-6.138zm72.617 5.472c-.25.015-.569.443-.904 1.389-.783 2.213-1.986 10.941-1.569 11.388.47.501 1.97-4.487 2.782-9.24.358-2.099.166-3.464-.26-3.535a.163.163 0 0 0-.049-.002zm-27.458 6.663c-.443-.061-1.145 2.836-1.505 7.599-.509 6.713.164 9.017 1.167 3.991.297-1.491.614-4.822.704-7.4.094-2.714-.06-4.018-.324-4.175a.106.106 0 0 0-.042-.015z" fill="#fff"/>
    </g>
    <g id="head">
        <path id="path20514" d="M452.829 73.024c-6.516 1.064-12.838 3.119-18.944 5.6-1.596.66-3.157 1.396-4.802 1.927-3.067 1.228-5.733 3.24-8.709 4.649-4.81 2.554-9.052 6.348-11.63 11.19-2.835 5.264-4.46 11.054-6.379 16.686-.771 2.377-1.708 4.722-1.991 7.226-1.328 8.16.144 16.522 2.868 24.244 2.514 7.026 5.952 13.745 10.307 19.809 2.896 3.765 6.484 6.916 10.003 10.078 1.562 1.316 3.049 2.708 4.531 4.112 5.249 4.702 11.668 7.779 17.281 11.989 2.273 1.619 4.547 3.237 6.818 4.858.271-.453.769.392 1.166.499 1.682 1.117 3.451 2.092 5.183 3.129-.429.563.728.793 1.027 1.205 3.767 2.704 7.307 5.787 11.459 7.902 3.773 1.846 7.987 2.492 12.114 3.008 2.679.278 5.613.192 7.9-1.404 1.105.951.666-2.239 1.771-1.289-.058-2.51 1.605-.891 1.427-3.396a10.55 10.55 0 0 0-1.148-3.394c1.782.939 3.481 2.02 5.201 3.06 2.248 1.209 5.088.713 7.039-.845 2.969-2.287 4.647-5.759 6.282-9.037.902-1.755 1.492-3.677 1.488-5.663.065-5.405-1.159-10.732-2.605-15.908-1.271-4.303-2.759-8.543-4.065-12.833-.32-2.296-.313-4.662-.977-6.895-.133-.508-.605-.976-.844-1.313.402-1.713-.316-3.419-.637-5.089-2.369-9.491-5.27-18.876-9.223-27.837-4.357-9.887-9.626-19.456-16.432-27.88-2.671-3.33-5.723-6.332-9.021-9.038-3.303-2.808-6.72-5.664-10.859-7.145-1.664-.654-3.372-1.273-4.828-2.333l-.771.127z" display="inline" fill="#000"/>
        <path id="path20506" d="M454.063 70.807c-4.13.6-8.026 1.434-12.014 2.7-3.99 1.269-8.073 2.956-11.89 4.606-3.074.993-5.869 2.629-8.632 4.266-3.334 1.67-6.389 4.126-9.088 6.73-1.866 1.706-2.894 2.954-4.197 5.094-1.303 2.137-3 4.565-3.896 6.897-.976 2.543-1.906 5.203-2.803 7.875-.899 2.672-1.731 5.387-2.58 7.974-.49 1.856-.52 10.749-1.076 17.399-.19 2.265-1.313 3.275-1.358 5.004-.065 2.48 1.102 1.595 1.094 2.636l3.873-3.103c-.11-1.201.388-10.849.381-12.055-.007-1.207.04-2.412.15-3.615.194-1.5.383-4.431 1.455-7.13 1.766-5.351 3.112-9.592 4.456-13.083.672-1.745 1.34-3.304 2.064-4.72a26.684 26.684 0 0 1 2.383-3.878 22.902 22.902 0 0 1 3.008-3.302c1.145-1.036 2.447-2.022 3.959-3.004.73-.475 1.684-.964 2.52-1.442 2.416-1.023 5.921-3.803 9.493-4.773a107.779 107.779 0 0 1 7.323-2.979 95.349 95.349 0 0 1 6.556-2.12 82.65 82.65 0 0 1 5.719-1.407c.799-.166 1.451-.25 2.187-.38.65.463 2.244 1.221 4.092 1.919 4.1 1.546 6.007 2.852 12.944 8.865 10.173 8.82 20.93 27.086 27.492 46.701 2.248 6.714 5.32 18.196 5.045 18.842-.09.211-2.436 1.333-5.215 2.492-8.203 3.424-14.153 7.031-21.66 13.127-10.056 8.166-17.355 15.422-21.016 20.893l-3.166 4.732-8.016-3.44-.308 1.882c2.493 1.995 5.124 3.658 7.742 5.496 1.886.774 5.446 2.947 6.215 4.117a431.434 431.434 0 0 0 8.4 5.729c3.446 2.448 7.22 5.729 11.375 6.443 4.213.687 10.29 2.467 14.342.588 2.464-3.754 4.742-6.846 4.74-7.28 2.452 1.828 6.007 1.649 8.719.292 3.937-2.045 5.478-6.532 7.383-10.358 1.5-2.675 2.957-4.725 2.713-7.805-.145-4.716-1.37-9.738-2.666-14.177-1.298-4.438-2.564-8.782-3.946-13.233-.638-2.706-.487-6.36-1.615-8.959-.56-.559-.57-1.172-.695-1.875-.65-3.715-1.138-6.083-2.115-9.724-1.168-4.174-2.532-8.93-4.073-12.621-1.459-3.496-3.36-6.118-4.765-10.498-1.74-3.67-3.364-8.115-5.461-11.778-2.143-3.685-4.478-8.792-7.047-11.978-2.568-3.185-5.56-5.535-8.678-8.471-3.354-2.997-6.606-7.197-10.428-9.592-2.942-1.976-6.596-2.346-9.42-4.52zm-5.93 8.816c-1.517.162-.177 1.512 3.195 3.213 3.58 1.806 6.855 4.636 8.961 7.74 1.424 2.102 2.48 1.802 2.22-.627-.335-3.145-10.856-10.702-14.376-10.326zm-9.43 3.469c-1.72.123-1.973 1.163-.049 2.416 5.657 3.683 7.107 4.98 9.373 8.383 2.555 3.832 3.852 4.353 3.963 1.588.143-3.52-6.933-11.28-11.105-12.18-.873-.188-1.609-.248-2.182-.207zm-7.74 4.22c-1.592.158-.833 1.446 2.123 3.592 1.584 1.148 4.37 3.7 6.19 5.674 2.774 3.005 3.397 3.38 3.853 2.315.386-.902-.035-2.1-1.451-4.122-1.954-2.79-8.924-7.643-10.715-7.458zm45.488 9.768c-.389.042-1.954.736-3.478 1.543-2.73 1.445-2.813 1.442-5.264-.21-1.235-.835-2.064-1.22-2.6-1.089-.689.17-.895 1.198-.865 3.235.032 2.346-.218 2.633-3.338 3.882-1.93.772-3.216 1.696-3.006 2.157.202.443 1.864 1.477 3.692 2.3 3.544 1.595 4.585 2.93 5.045 6.479.553 4.26 2.485 4.098 4.037-.336l1.12-3.201 4.175-.303c2.295-.165 4.157-.47 4.135-.674-.022-.205-1.176-1.695-2.561-3.31l-2.518-2.936 1.202-2.54c1.28-2.71 1.388-5.12.224-4.997zm-10.82 1.55 2.498 2.015 2.498 2.015 2.37-2.01c1.304-1.105 2.549-1.866 2.765-1.693.216.175-.292 1.642-1.13 3.256l-1.52 2.933 2.146 2.245 2.144 2.242-3.486-.15c-2.647-.113-3.464.083-3.4.804.043.522-.463 1.83-1.135 2.908l-1.223 1.96-.219-1.807c-.433-3.57-1.401-4.924-3.97-5.555-1.4-.344-2.567-.822-2.592-1.059-.026-.239 1.048-.966 2.387-1.617 2.178-1.062 2.403-1.463 2.15-3.836zm-54.178 7.141c-.057-.003-.103.018-.13.065-.146.242-.47.274-.63.73-.237.35.55 3.285.836 3.237l2.03 2.095c1.066.991 6.278 8.014 7.351 8.25.061.046.055-.025.08-.048.497.102.875.318 1.073-.436-.522-1.312-6.136-10.083-6.934-11.139-.917-1.004-2.031-2.532-2.953-2.367-.27-.179-.552-.378-.723-.386zm-3.508 13.041a.22.22 0 0 0-.148.061l-.365.342c-.588.548-.577 1.004-.666 1.055-.382.1.466 1.161.808 1.23.564.583 1.647 1.67 2.211 2.254.922.861 3.744 3.223 4.906 3.7.056.042.923.67 1.602 1.25.644.506 1.262.948 1.72.626-.197-.848-.555-3.01-1.148-3.816-.747-.818-5.434-3.707-7.232-5.586-.614-.307-1.295-1.13-1.688-1.115zm-3.832 12.475c-.055.027-.121.072-.168.098-.39.105.072 2.194.424 2.267l1.738 1.801c.95.89 5.3 5.053 6.495 5.543.057.046.513.327 1.21.924.663.523.81.144 1.284-.188-.204-.875-5.909-6.682-6.52-7.515-.767-.843-1.589-1.49-2.67-2.117-.722-.363-1.633-.319-1.685-.805-.005-.045-.052-.035-.108-.008zm57.92 1.817c-.56.009-1.184.05-1.91.126a79.7 79.7 0 0 0-3.535.475c-7.458 1.128-13.086 4.017-15.367 7.89-1.276 2.167-1.267 2.163 4.074-1.253 4.34-2.776 6.337-3.59 10.586-4.315 2.88-.49 7.06-.752 9.29-.582 1.116.085 2.155.132 2.93.139.776.007 1.289-.028 1.35-.104.125-.15-1.24-.836-3.033-1.523-1.586-.607-2.702-.88-4.385-.853zm.113 7.193 1.34 2.1c1.048 1.635 1.251 2.738.924 5.019-.23 1.608-.214 2.902.04 2.875.251-.027 2.045-1.41 3.984-3.074 1.937-1.664 3.48-3.424 3.427-3.912-.098-.92-4.295-2.438-7.74-2.8zm-10.91 3.049c-.175.022-.413.101-.726.22-2.37.896-6 8.309-3.91 7.985.28-.043 1.62.267 2.98.693 2.51.787 4.317.915 4.252.303-.02-.185-.716-1.441-1.545-2.791-1.192-1.938-1.393-2.898-.955-4.582.376-1.447.43-1.894-.096-1.828zm51.805 10.361c.56.045.748.9 1.025 3.496l.414 3.881-5.388 2.23c-14.034 5.81-30.262 19.372-37.87 31.649l-1.507 2.433-3.268-1.923c-1.798-1.058-3.308-2.1-3.355-2.313-.225-1.017 8.33-10.88 14.127-16.289 11.627-10.847 21.5-17.756 29.933-20.941 2.208-.834 4.573-1.764 5.256-2.063.119-.054.242-.1.367-.133h.002a.835.835 0 0 1 .264-.027zm-2.61 3.715c-.396.043-.67.585-.605 1.205.066.62.426.89.797.602.372-.288.644-.829.604-1.204-.04-.374-.397-.645-.795-.603zm-7.652 3.043a.842.842 0 0 0-.142.004c-.338.043-.697.308-.938.81-.488 1.017.522 2.28 1.326 1.657.345-.268.58-.959.518-1.532-.063-.597-.388-.913-.764-.94zm12.342 2.521 2.647 8.205c2.777 8.612 3.985 16.857 2.992 20.432-.32 1.148-1.697 3.996-3.063 6.328-2.959 5.05-6.248 6.658-9.263 4.528-.954-.674-3.806-2.302-6.334-3.618-2.528-1.315-6.811-4.05-9.518-6.074-4.42-3.305-7.377-4.469-7.203-2.836.035.328.772 2.141 1.637 4.031 2.098 4.582 7.61 10.849 10.957 12.454 2.402 1.152 2.556 1.372 1.379 1.984-1.991 1.037-4.471 1.1-9.416.246-6.164-1.064-8.577-2.136-14.15-6.291l-4.817-3.592 1.177-2.06c6.661-11.666 25.319-27.055 39.149-32.287zm-20.707 1.996c-.397.042-.668.567-.605 1.163.064.597.44 1.048.837 1.005.398-.042.674-.563.61-1.16-.064-.597-.444-1.05-.842-1.008zm-7.504 6.034-.031.002c-.336.056-.544.475-.484 1.037.07.663.465 1.053.877.865.413-.187.717-.653.677-1.031-.04-.378-.438-.767-.88-.864a.492.492 0 0 0-.159-.01zm-7.191 5.963a.884.884 0 0 0-.125.004c-.392.04-.683.345-.621.923.067.63.638 1.089 1.267 1.022.631-.068.975-.494.768-.95-.295-.646-.838-.984-1.29-1zm-5.893 6.48a.866.866 0 0 0-.125.004c-.39.04-.68.346-.619.924a1.15 1.15 0 0 0 1.266 1.02c.63-.068.975-.493.767-.948-.295-.648-.838-.984-1.289-1zm27.887.594c-.165.01-.33.024-.494.043-.45.058-.76.144-.852.258-.245.304 1.323 2.002 3.483 3.773 4.29 3.517 5.39 3.166 4.449-1.42-.44-2.138-.736-2.332-3.98-2.607a17.986 17.986 0 0 0-2.606-.047zm-33.274 5.756-.035.004c-.334.056-.542.475-.482 1.037.07.663.465 1.051.877.863.413-.189.717-.651.676-1.03-.04-.376-.434-.765-.877-.86a.526.526 0 0 0-.159-.014zm19.483 1.464c.73-.078 11.478 8.71 12.902 10.55.808 1.041 1.476 2.905 1.483 4.138l.013 2.242-4.064-3.498c-4.96-4.264-9.089-9.02-10.01-11.525-.378-1.026-.523-1.886-.324-1.907z" display="inline" fill="#fff"/>
    </g>
    <g id="ear_r">
        <path id="path17398" d="M428.837 106.09c-3.517.565-7.05-1.298-9.04-4.161-1.546-2.145-2.301-4.58-3.486-6.953-1.089-1.88-1.188-4.08-1.676-6.153-1.958-10.1-4.181-20.155-5.794-30.317-.52-3.472-.966-7.14.358-10.5 2.258-6.2 5.572-11.941 8.565-17.802 3.594-7.018 7.471-13.896 10.783-21.055.924-2.122 1.624-4.573 3.696-5.886 2.176-1.563 5.27-.932 7.085.895 3.04 2.87 4.366 7.002 5.603 10.879 1.29 4.53 2.443 9.123 3.111 13.79.742 4.987-.837 9.868-1.369 14.786-1.627 11.847-2.477 23.845-5.401 35.476-.287 1.76-.998 3.544-.575 5.339-.515 3.646-.785 7.33-1.465 10.951-1.011 4.344-3.759 8.644-8.141 10.158-.731.258-1.486.443-2.254.553z" fill="#000"/>
        <path id="path17717" d="M433.897.417c-2.656.488-4.981 2.706-6.043 5.168a184.76 184.76 0 0 1-4.442 9.712c-1.61 3.29-3.263 6.56-4.958 9.807-1.708 3.4-5.129 6.203-6.98 9.744-1.85 3.543-2.798 8.54-4.185 12.09-1.438 3.192-1.107 5.801-.648 9.228.708 5.077 1.874 9.092 3.102 13.118 1.229 4.025 2.434 8.404 3.406 13.433.53 2.227.341 4.258 1.6 6.87l.237-4.246c.379-6.775-4.901-30.77-4.611-33.687.272-2.73 2.116-7.066 6.874-16.153l9.753-18.63c1.787-3.416 3.663-7.38 4.167-8.809.749-2.115 1.999-3.386 3.42-3.649.852-.157 1.767.05 2.671.654 2.835 1.892 5.07 6.893 7.263 16.255 2.061 8.797 2.148 10.627.843 17.47-.403 2.12-1.408 9.83-2.229 17.132-.823 7.302-2.221 16.172-3.11 19.71-.888 3.54-.451 5.32-.384 6.022.037.387-.079 4.53-.023 4.884l.434 3.478c.289-.258.779.192 1.155-.138.662-2.457.26-6.684 1.602-12.508.905-3.63 1.908-4.776 2.484-8.416.578-3.647 1.038-7.302 1.516-10.935.44-3.66.89-7.305 1.364-11.013.407-3.94 1.755-8.225 2.279-12.147.668-4.532-.938-7.418-1.896-11.825-.644-2.563-1.134-7.86-1.901-10.399-.767-2.539-1.697-3.908-3-6.234-1.661-2.84-4.401-5.72-7.881-6.03a5.836 5.836 0 0 0-1.879.044zm3.152 18.228c-.708.166-1.991 2.073-4.242 6.151-7.38 13.368-9.324 24.418-8.834 50.263.193 10.15.47 13.515 1.102 13.39.168-.034.439-1.84.601-4.014.163-2.174.369-8.973.461-15.109.09-6.136.506-14.229.925-17.983.818-7.329 3.997-17.942 6.613-22.081 2.117-3.348 4.263-8.587 4.02-9.808-.121-.603-.325-.886-.646-.81z" fill="#fff"/>
    </g>
</svg>
