<svg viewBox="0 0 631 467" xmlns="http://www.w3.org/2000/svg" xml:space="preserve" fill-rule="evenodd" clip-rule="evenodd">
    <path d="M149.188 94.189c2.836 0 6.233-.438 9.021 0 1.348.212 2.339.756 3.936.45 3.718-.711 7.019-.248 10.968-.576 3.435-.286 6.326-.973 9.634-.715 3.044.238 6.098.467 9.152.704.661.051 6.358 1.504 6.953 1.009m158.651 104.573c2.774-.81 11.382.819 14.361.819 9.097 0 14.484-.409 23.488-.409m-127.383 66.069h4.876c2.819 0 4.876.591 7.647.591m-170.105 25.194c1.271.656 23.238-.497 23.238.873m204.771 105.013c12.61 0 25.807.294 38.199.294m102.649-274.853h16.984m-3.65 213.983c12.679 0 35.078 4.17 46.868-.718 1.098-.456 3.145.397 3.145-1.494" fill="none"/>
</svg>
