<svg version="1.1" id="svg2" xml:space="preserve" xmlns="http://www.w3.org/2000/svg" viewBox="0 0 309.901 518.32">
    <g id="g4717">
        <path id="path4710" d="M180.287 266.484c-4.84-1.564-3.851-1.666-8.446-3.874-12.202-5.616-22.933-11.878-34.516-18.647-2.228-3.272-8.034-2.165-11.553-3.362-1.833.428-2.797 1.745-4.153.942-3.604-1.877-6.753-4.498-10.011-6.902-4.165-3.203-6.406-7.202-10.453-10.556-2.657-2.203-7.212-3.655-9.67-6.083-.755-.755-1.723-1.249-2.635-1.731-2.224-2.801-4.474-5.738-5.562-9.192-1.376-4.626.199-9.532 2.604-13.526 2.352-4.164 5.932-8.102 10.792-9.135 3.024-.611 6.243-.48 9.187.44 2.183.973 4.531 1.516 6.733 2.451 7.683 2.981 15.335 6.069 22.78 9.605 3.999 2.117 8.205 4.077 11.521 7.223a5.797 5.797 0 0 1 1.758 3.63c2.234.214 4.333 1.079 6.52 1.751 6.956 3.047 12.994 6.683 19.813 10.011 1.423.724 3.331 1.534 4.787 2.216 3.332 1.47 5.358 1.478 8.99 2.038 2.184.012 5.346-1.572 7.343-2.296 8.387-3.589 16.305-5.76 24.687-9.361 7.11-2.993 13.706-6.057 19.837-10.688 4.461-3.363 8.365-5.825 11.325-10.551 3.806-5.842 7.611-12.021 13.531-15.969 5.154-3.392 10.498-6.713 16.456-8.492 3.948-1.187 8.518-1.152 12.01 1.273 3.166 2.283 5.648 5.364 8.107 8.362 2.101 2.717 4.224 5.538 5.163 8.898.872 2.458 1.621 5.426-.004 7.754-.836 1.114-1.686 2.345-1.627 3.802-.623 3.663-2.261 9.991-5.015 12.283-2.454 2.035-5.832 3.232-8.796 4.36-8.705 4.779-17.39 7.339-25.797 12.607-6.498 4.184-14.034 5.537-20.4 9.929-8.354 5.636-17.477 11.268-25.984 16.764-6.105 3.925-11.418 6.948-18.148 9.733-2.002.833-4.842 1.724-6.996 1.923-3.406.826-4.976 2.026-8.373 2.89-2.091-2.449-6.48-3.322-3.121-.009z" fill="#000"/>
        <path id="path4265" d="M285.774 163.549c-.549.006-1.024-.187-1.57-.095-3.38.628-6.8 1.876-9.928 3.507-3.126 1.629-6.082 3.954-9.046 5.773-2.986 1.709-5.509 3.896-7.835 6.256-2.326 2.359-4.436 4.976-6.508 7.693-1.744 2.362-3.739 4.59-5.784 6.77-2.047 2.182-4.278 4.638-6.643 6.292-2.048 1.382-3.921 2.806-5.997 4.02-1.912 1.353-4.244 2.334-6.428 3.366-2.156 1.019-4.396 1.92-6.603 2.838-3.027 1.181-6.503 2.525-9.511 3.69-3.145 1.226-6.284 2.446-9.358 3.672-3.112 1.243-6.174 2.744-9.242 4.048-1.629.598-2.862.516-4.665.059-2.021-.544-4.016-1.205-6.064-1.944a67.784 67.784 0 0 1-6.048-2.517 158.8 158.8 0 0 1-6.527-3.327c-2.153-1.156-4.297-2.341-6.461-3.509-2.943-1.491-5.851-2.827-9.067-3.708-1.101-.396-2.057-1.143-2.648-2.219-.481-3.071-3.981-3.331-6.35-4.924-2.048-1.285-4.564-2.644-7.263-3.953-2.708-1.331-5.524-2.546-8.306-3.708a258.897 258.897 0 0 0-7.816-3.118c-2.586-.928-4.347-.049-6.12.858 2.29.782 4.829 1.48 7.396 2.421 2.544.732 5.224 2.117 7.458 3.055 2.189.917 4.011 1.365 5.217 1.933 4.014 1.889 6.83 3.381 8.706 4.793 1.88 1.415 2.834 2.755 2.817 3.698-.035 1.878 2.871 3.814 6.437 4.558.542.114 1.823.85 3.652 1.791a230.346 230.346 0 0 1 6.368 3.424 202.59 202.59 0 0 0 9.17 4.776c2.862 1.371 5.526 2.685 7.85 3.656a40.082 40.082 0 0 0 5.676 1.895c2.806.704 3.371.804 7.791-1.094 1.343-.576 3.992-1.637 7.224-2.892 3.3-1.28 6.888-2.705 10.508-3.968a310.313 310.313 0 0 0 8.512-3.096c2.284-.92 4.441-1.948 6.477-2.898 1.999-.934 4.063-1.727 6.27-2.982 3.52-2.001 6.097-3.338 8.508-5.016 2.248-1.362 4.67-3.134 6.632-5.133 1.869-1.905 3.453-4.796 5.361-7.307 3.461-4.554 5.903-7.66 8.221-9.904 2.328-2.253 4.483-3.616 7.289-5.341 4.699-2.887 8.544-5.077 11.892-6.413 3.326-1.427 6.108-1.862 8.508-1.628 2.39.233 4.416 1.166 6.199 2.926 1.92 1.895 4.128 4.724 6.107 7.742 1.945 2.969 3.732 5.97 4.234 7.646 1.895 6.315 1.747 8.027.07 10.194-.86 1.11-1.531 3.246-1.552 4.216-.052 2.36-1.7 4.909-4.242 7-2.538 2.088-6.101 3.457-9.6 4.197-.804.171-2.974 1.029-5.996 2.448-3.016 1.416-7.01 3.425-10.777 5.248a1835.183 1835.183 0 0 1-7.84 3.775c-2.621 1.268-5.272 2.502-7.504 3.573-2.232 1.069-4.048 1.989-5.394 2.619-1.347.63-3.242 1.806-5.25 2.886-2.097 1.351-3.937 2.347-6.1 3.579-2.204 1.257-4.442 2.499-6.378 3.785-4.295 2.856-7.966 5.203-11.456 7.562-3.406 2.134-6.578 4.838-9.467 6.691-2.609 2.078-5.557 3.147-7.817 4.323-2.418 1-4.091 2.299-5.69 2.887-1.645.605-2.866.424-3.989.413-.091-.001-2.48.732-5.176 1.435a666.05 666.05 0 0 1-4.785 1.345c-2.018-.66-6.071-1.972-6.071-1.972-1.956-.677-4.355-1.801-7.044-2.977-2.696-1.332-5.664-2.634-8.916-4.175-3.247-1.636-6.779-3.26-10.483-5.101-3.69-1.836-7.668-3.987-11.621-6.115-6.439-3.464-10.92-5.968-13.72-6.942-2.822-.982-3.949-.574-3.945.536.004.705-.247.882-1.315.52-.965-.468-2.884-1.346-5.776-3.202-2.934-1.884-6.741-4.806-12.209-8.712-1.001-.716-2.347-1.437-3.392-2.226 1.201 2.896 2.8 5.608 5.74 7.652 2.065 1.394 4.109 3.478 6.295 5.25 2.185 1.771 4.55 3.152 6.782 4.263 1.846 1.151 4.483 1.344 6.266-.297 2.422.814 3.999 1.02 6.283 2.141 2.804 1.441 5.516 3.781 8.318 5.778 2.809 2 5.744 3.598 8.69 5.23 2.93 1.622 6.412 3.346 9.628 4.85 3.235 1.512 6.262 2.988 9.318 4.391 2.756 1.339 5.386 2.465 8.05 3.387 2.763.954 5.499 1.638 8.262 2.593a30.503 30.503 0 0 0-.111-.969c-.019.236.703.58.893.648 2.643-.687 5.551-1.874 8.183-2.54 2.24-.727 3.823-1.104 6.043-1.859 2.569-.885 5.092-2.155 7.585-3.159 2.501-1.005 4.953-1.749 7.189-3.174 2.307-1.488 4.382-3.167 6.547-4.807 2.183-1.652 4.332-3.307 6.541-4.816a177.608 177.608 0 0 1 6.867-4.465c2.32-1.433 4.741-2.855 7.021-4.277a186.043 186.043 0 0 1 8.28-4.975c2.8-1.613 5.584-2.935 8.428-4.379 2.95-1.496 5.912-3.073 8.947-4.524 2.418-1.14 4.685-2.246 7.104-3.388 2.348-1.129 4.612-2.266 7.044-3.341 2.458-1.085 5.174-2.081 7.73-3.077 2.574-.792 5.606.108 7.999-1.127 2.008-1.056 4.205-2.801 5.951-4.712 1.737-1.901 2.83-4.253 3.646-6.673.578-1.37-.04-2.078.943-3.246 1.735-2.014 2.739-4.25 2.308-7.198-.327-2.212-.648-4.779-1.265-7.427-.619-2.653-1.51-5.24-2.586-7.009-1.362-2.247-2.905-3.96-4.538-5.542-1.638-1.584-3.372-3.052-5.127-4.69-1.428-1.42-3.176-2.378-4.967-3.211-1.8-.836-3.634-1.584-5.558-1.563zm2.622 9.325c-.995-.04-2.304.281-4.116.961-1.818.683-3.99 1.703-6.611 3.07-3.709 1.933-6.448 3.282-9.14 5.024-2.468 1.452-5.275 3.814-7.529 5.934a66.676 66.676 0 0 0-6.349 6.808c-1.776 2.184-3.546 4.32-5.635 6.29-1.927 2.041-4.484 3.69-6.852 5.433-2.447 1.551-4.653 3.62-7.149 5.116-2.37 1.772-5.163 2.948-7.791 4.113-2.647 1.175-5.284 2.124-7.98 3.063-3.721 1.297-7.192 2.343-7.637 2.687-.43.33-3.622 2.078-7.255 3.432-3.656 1.361-7.193 2.854-7.861 3.528-1.67 1.684-3.268 2.388-6.387 2.941-1.536.273-3.099.305-4.972-.04a27.549 27.549 0 0 1-6.485-1.889c-2.583-1.103-5.775-2.731-9.388-4.69-4.919-2.665-9.232-5.156-12.847-7.176-3.629-2.146-6.269-3.641-8.36-4.849-2.14-1.237-3.612-1.873-4.065-2.259-.528-.449-.922-.569-1.85.479-.924 1.045-2.488 3.644-4.997 7.725-1.523 2.474-2.951 4.84-4.203 6.831-1.25 1.989-2.321 3.599-2.744 4.281-.501.84-1.535 2.495-1.535 2.495.77.425 2.283 1.248 2.283 1.248 1.212.708 4.138 1.849 6.468 2.588 2.336.74 5.976 2.66 7.935 3.983 1.865 1.258 4.376 2.724 7.232 4.29 2.856 1.554 6.064 3.315 9.309 4.927 3.236 1.694 6.566 3.189 9.571 4.528a124.35 124.35 0 0 0 7.9 3.221c2.028.733 4.396.799 6.827.729 2.432-.07 4.836-.35 7.698-1.236 1.782-.55 4.144-1.036 5.115-1.025.561.007 1.904-.793 3.799-1.939 1.889-1.286 4.29-2.842 7.069-4.757 2.789-2.029 6.004-4.093 9.347-6.461 3.345-2.372 6.749-4.915 10.266-7.465 2.536-1.84 5.726-3.9 9.306-6.004 3.586-2.11 7.528-3.954 11.248-5.818 3.8-1.626 7.306-3.356 9.97-4.532 2.669-1.18 4.287-1.884 4.904-1.816.608.067 1.599-.412 2.14-.946.307-.303 2.547-1.298 5.472-2.587 3.363-1.416 6.267-2.705 9.629-4.123 3.168-1.328 5.866-2.556 6.894-2.833.774-.209 2.568-1.108 3.734-2.051 1.162-.938 2.744-2.166 3.523-2.822 1.316-1.112 1.68-3.64.567-3.88-.272-.059-3.374 1.469-6.863 3.244-3.489 1.776-6.771 2.864-7.177 2.554-1.663-1.269.092-5.129 2.352-4.92.518.05 3.934-1.548 7.496-3.513 3.556-1.963 6.853-3.467 7.337-3.431.645.048.608-.574.084-2.333a324.89 324.89 0 0 0-.745-2.279c-1.85.943-5.595 2.734-5.595 2.734-1.387.497-3.191 1.164-5.003 2.044-1.774.862-3.666 1.981-4.925 2.688-2.611 1.465-5.263 3.129-6.196 3.334-2.512.555-2.968-1.536-.776-3.517 1.363-1.231 4.343-3.265 7.451-5.381 3.07-2.091 6.448-4.346 8.345-5.347 3.389-1.791 3.753-2.697 1.809-4.16-.733-.552-2.493-.332-5.314.941-2.791 1.259-6.804 3.604-10.963 6.2-6.927 4.323-8.089 4.703-7.927 2.619.083-1.065 1.607-2.661 4.374-4.767 2.764-2.102 6.517-4.394 11.188-7.062 2.393-1.367 4.448-3.146 4.23-3.55-.26-.488-1.006-.942-1.785-.973zm-175.797 25.964c-.445.036-1.291.868-1.291 1.103.002.348 1.546.9 3.416 1.55 1.884.656 5.459 2.819 8.179 4.596 4.944 3.23 6.354 3.699 6.362 2.515.004-.623-1.398-1.927-3.361-3.363-1.966-1.438-4.486-3.038-6.31-3.782-3.171-1.294-5.654-2.726-6.995-2.619zm-6.633 12.368c-.003-.015-.066.056-.072.064-.358.391.069 1.513 3.501 4.584 3.432 3.072 9.879 7.963 11.392 8.62 3.063 1.332 3.372.524 2.203-.833-.702-.812-2.798-1.866-5.286-3.832-2.457-2.05-5.037-4.494-7.428-6.164-2.385-1.667-4.086-2.495-4.39-2.446z" fill="#fff"/>
    </g>
    <g id="leg_l">
        <path id="path9666" d="M107.155 516.024c-7.137-.998-13.619-4.519-19.499-8.523-4.57-3.096-8.466-7.024-12.357-10.905-3.813-3.903-8.376-7.392-11.216-12.224-1.423-2.344-1.855-5.3-.807-7.876 1.671-4.703 4.543-8.988 8.202-12.376 1.548-1.416 3.42-2.559 4.465-4.425 1.67-2.412 3.607-4.63 5.277-7.04-.977-1.052-2.246-2.391-1.948-3.922.935-1.98 2.514-3.574 3.816-5.316 3.719-4.684 7.682-9.164 11.524-13.741 5.439-7.116 10.283-14.672 14.878-22.352 1.057-1.843 2.15-3.675 3.004-5.623-5.746-7.685-11.824-15.042-17.9-22.459-6.386-7.65-12.616-15.424-18.799-23.238-4.765-5.908-9.864-11.532-14.892-17.214-1.519-1.811-3.123-3.576-4.363-5.598-.449-5.633-.789-11.281-1.312-16.905-.814-5.249.268-11.184 4.274-14.944 2.036-1.816 4.422-3.188 6.562-4.877 5.803-4.298 12.094-8.474 19.372-9.611 7.715-1.088 15.996.015 22.616 4.325 7.276 4.688 12.131 12.27 15.424 20.116 1.008 2.51 2.058 5.062 2.579 7.71-.119 1.785.832 3.413 1.376 5.065 2.081 5.161 5.117 9.849 8.17 14.399 5.516 7.897 10.942 15.857 16.046 24.028 5.832 9.285 11.569 18.63 17.432 27.895-.278 5.239-.563 10.476-.847 15.714-5.631 9.593-10.865 19.485-17.684 28.312a497.14 497.14 0 0 1-27.202 29.038c-2.987 2.974-6.184 5.795-8.706 9.19l-2.366 3.55c-2.747-1.924-5.258-4.265-8.347-5.641-.572.536-1.383.743-2.129.804-1.287 1.669-1.944 3.717-2.784 5.628 3.745 2.419 7.498 4.867 10.753 7.937 3.737 3.519 7.429 7.248 9.936 11.77 2.223 4.662 2.563 10.501-.045 15.082-1.398 2.518-4.084 4.136-6.934 4.373-1.853.22-3.726.127-5.569-.126z" fill="#000"/>
        <path id="path9668" d="M125.834 320.712c.972 2.264 3.465 12.024 4.721 14.144 1.53 2.583 4.3 5.795 6.836 8.343 1.752 1.757 2.265 4.488 3.564 6.603 1.344 2.188 2.944 4.944 4.349 7.093 1.484 2.271 3.237 4.747 4.747 7.001a117.049 117.049 0 0 1 5.361 8.868c1.305 2.411 3.345 4.511 4.821 6.822 1.502 2.351 2.211 4.237 3.875 5.899 1.459 1.456 2.491 3.974 3.501 5.876 1.083 2.039-.405 4.543-.541 6.57-.172 2.537-.731 5.06-.929 7.778-.16 2.187-2.604 3.736-3.524 5.728-.863 1.868-2.146 4.154-3.151 6.264-1.553 3.264-3.579 5.992-5.601 8.987-1.97 2.915-3.172 4.964-5.56 6.543-2.268 1.498-3.736 4.417-5.51 6.478-1.838 2.138-3.112 3.782-4.998 5.875-2.152 2.388-4.572 4.588-6.791 6.913-1.925 2.016-3.82 4.048-5.738 6.072-1.844 1.947-3.347 3.558-5.244 5.08-1.596 1.282-2.587 2.942-3.967 4.452-1.24 1.358-2.209 1.92-2.763 3.222-.329.772-.556.905-1.044 1.576-.737 1.012-2.428-1.458-3.562-1.888-1.978-.752-6.322-3.54-6.378-2.584-.23.292-.314 1.105-.921 1.08-2.167.362-1.801 1.24-3.527 5.434-.36.971-1.102 1.564-1.442 2.61-.734 2.252 4.086 2.768 5.878 3.969 2.314 1.552 4.362 3.109 6.404 5.004 2.155 1.999 4.542 4.221 6.392 6.505 1.662 2.051 2.564 3.487 2.667 5.53.153 3.041 1.848 5.862 1.253 8.848-.552 2.764-1.736 5.122-3.966 6.005-2.374.939-5.018.889-7.547.548-3.037-.411-6.531-1.367-9.57-2.683a50.585 50.585 0 0 1-6.745-3.538c-1.997-1.263-3.536-2.704-5.342-4.227-1.846-1.556-3.942-3.176-5.771-4.92-1.355-1.292-2.653-2.671-3.988-3.983-1.437-1.412-2.404-2.482-3.797-3.492-2.63-1.904-4.452-4.302-6.091-7.106-1.2-2.051-1.819-3.863-1.241-5.73.76-2.453 1.346-4.674 2.736-6.836 1.529-2.381 3.505-4.53 5.67-6.376 1.21-1.03 3.483-2.662 3.267-2.674-1.559 1.54 2.445-2.779 4.39-5.108 1.625-1.334 2.869-4.687 1.59-6.123-.512-.597-1.339-1.425-1.327-1.735.535-1.174 1.354-2.15 2.142-3.173 1.693-2.199 3.478-4.323 5.254-6.455 2.016-2.418 4.238-5.058 6.516-7.44 2.092-2.186 3.504-4.834 5.218-7.329 2.282-3.327 4.744-6.877 6.912-10.281a163.977 163.977 0 0 0 5.324-8.918c1.373-2.494 1.846-2.949 2.27-4.609.322-1.261-2.28-1.955-3.09-2.973-1.578-1.982-2.786-3.696-4.319-5.714-2.147-2.826-5.161-5.045-7.351-7.841-2.225-2.844-3.87-6.546-6.365-9.388-1.679-1.91-3.179-4.198-4.775-6.18-1.658-2.061-3.57-3.766-5.252-5.808-1.628-1.974-2.657-3.996-4.718-4.99-1.923-.93-2.714-3.323-3.983-5.04-1.496-2.022-3.061-3.942-4.568-5.955-1.519-2.029-2.844-3.933-4.052-6.033-1.27-2.208-4.021-4.07-5.71-5.978-1.394-1.577-1.58-1.754-2.282-2.702-.653-.883-.644-1.892-.347-2.958l-2.304-4.361c-.13.625-.307 1.24-.528 1.84-.532 1.427-.801 4.584-.536 6.863.268 2.312 2.1 3.789 3.74 5.66 1.668 2.805 4.398 4.514 6.599 6.924 2.225 2.437 3.897 4.88 6.02 7.408 2.079 2.474 4.33 4.677 6.304 7.174 1.807 2.286 3.499 4.298 5.328 6.566 1.875 2.326 3.77 4.533 5.659 6.848 1.836 2.249 3.536 5.129 5.366 7.383 1.724 2.123 2.987 4.303 4.75 6.391 1.902 2.249 3.494 4.932 5.454 7.128 1.904 2.133 4.434 4.073 6.398 6.345.452.523-1.015 1.631-1.307 2.29-1.28 2.748-2.356 5.617-3.963 8.189-1.669 2.675-3.701 4.856-5.638 7.343-1.935 2.485-3.47 4.976-5.622 7.088-2.052 2.013-4.213 4.198-6.041 6.418-1.763 2.142-2.515 4.391-4.133 6.318-2.032 2.42-4.575 5.769-6.134 8.224-.916 1.472-.156 3.726 1.147 5.294.697.963-.916 1.511-1.67 2.51-.43 2.196-3.12 3.56-4.851 4.96-2.494 1.492-4.018 3.944-5.746 6.278-1.76 2.378-3.549 5.33-4.962 8.191-1.208 2.444-1.431 5.495-.412 8.341.493 2.002 1.562 3.878 2.877 5.464 1.324 1.6 3.476 2.968 5.104 4.57 1.64 1.613 3.408 3.11 5.04 4.73 1.679 1.668 4.067 2.898 5.781 4.528 1.732 1.648 2.752 3.64 4.124 5.463 1.706 2.265 4.515 3.253 7.007 4.605 2.505 1.36 5.17 2.412 7.87 3.324 2.634.888 5.338 1.647 8.099 1.845 1.499.107 3.35.727 5.023.436 1.56-.214 3.525-.462 4.956-1.124 1.52-.702 2.696-1.818 3.657-3.093 1.787-2.368 2.744-5.472 2.922-8.434a18.245 18.245 0 0 0-1.58-8.646c-.976-2.14-2-4.372-3.458-6.218-1.448-1.835-3.34-3.375-4.812-5.232-1.574-1.986-3.364-2.911-5.378-4.448-2.031-1.548-4.008-3.012-5.998-4.538-.7-.536-.648-2.004-.28-2.74-.19-.732 1.556-.742 2.076-.918 1.696-.547 3.286 1.949 4.704 3.026 1.423 1.079 2.62 2.212 4.042 3.163.785.523 1.6-.849 2.189-1.677 3.179-.382 2.761-5.595 5.089-7.926 2.17-2.2 4.131-4.156 6.319-6.338 2.253-2.248 4.369-4.227 6.59-6.508 2.208-2.27 4.892-4.708 7.05-7.024a210.642 210.642 0 0 0 5.809-6.507c1.985-2.323 3.82-4.597 6.113-6.487 2.282-1.877 3.268-4.928 4.858-7.418 1.572-2.463 3.278-5.038 4.778-7.543a396.024 396.024 0 0 0 4.28-7.391c1.426-2.505 2.796-4.96 4.712-7.032 2.003-2.165.226-5.522.331-8.47.104-2.867.008-5.763.371-8.612.41-3.236-3.946-5.496-5.678-8.26-1.669-2.665-2.548-5.531-4.125-8.251-1.597-2.754-3.883-5.342-5.575-8.173-1.461-2.447-3.232-4.681-4.778-7.076-1.554-2.403-2.84-4.608-4.399-7.008-1.612-2.485-3.412-5.02-5.077-7.471-1.623-2.389-3.012-4.452-3.996-6.93-.89-2.243-3.043-3.982-4.347-6.011a110.49 110.49 0 0 1-3.495-5.869c-1.25-2.978-3.254-6.928-3.983-4.346zM86.959 456.008a2.117 2.117 0 0 0-.264-.017c-1.38-.006-2.41 1.262-4.088 3.8-1.112 1.684-2.555 3.458-3.205 3.941-.651.483-1.198 1.153-1.215 1.491-.07 1.27 11.347 9.917 13.296 10.07.199.018 1.165-.986 2.145-2.224 4.21-5.322 5.73-7.732 5.203-8.241-.31-.299-2.981-2.545-5.937-4.995-2.892-2.396-4.596-3.67-5.935-3.825z" fill="#fff"/>
    </g>
    <g id="torso">
        <path id="path4086" d="M96.628 157.138c-1.488.101-2.97.337-4.445.536-1.773.493-3.547.987-5.32 1.477-.316.734-1.217.707-1.73 1.259-2.947 2.587-4.662 6.197-7.063 9.24-1.996 2.741-4.387 5.177-6.227 8.035-4.212 6.333-7.72 13.134-10.503 20.21-2.046 5.198-3.137 10.696-4.354 16.128-1.198 5.791-2.399 11.596-3.04 17.48-.155 2.974-.235 5.967-.831 8.896-1.336 7.027-2.536 14.123-2.568 21.297-.321 12.323-1.577 24.584-2.357 36.928-.396 5.696-.651 11.4-.924 17.106.88 3.058 1.726 6.129 2.632 9.181 3.325 4.535 7.217 8.649 11.448 12.347 5.47 4.685 11.812 8.75 18.996 10.084 6.453 1.222 13.08-.484 18.92-3.236 7.542-3.603 14.264-8.76 20.23-14.576.643-.587 1.222-1.216 1.49-2.062 2.152-4.649 4.352-9.28 6.473-13.942 2.077-6.888 3.44-13.967 4.721-21.039 1.452-8.309 2.592-16.703 2.741-25.147-.04-3.421.007-6.84.196-10.257.53-12.2.983-24.468-.4-36.633-.469-4.503-1.209-8.973-1.996-13.427-.504-4.181-1.378-8.309-2.229-12.43-1.904-8.471-4.968-16.804-10.008-23.935-1.501-2.264-1.8-5.14-3.501-7.28-2.013-2.124-4.628-3.565-7.227-4.856-1.29-.599-2.756-.431-4.133-.681-2.989-.294-5.983-.732-8.99-.703z" fill="#000"/>
        <path id="path4007" d="M98.066 155.045a21.05 21.05 0 0 0-3.32.152c-2.43.169-4.991 1.164-7.323 1.814-.784.36-2.007.132-2.312 1.116-1.657.72-2.647 2.782-3.79 4.12-2.345 3.13-3.733 5.851-6.306 8.811-1.668 1.908-3.859 3.957-5.265 6.055-1.407 2.097-2.676 4.305-3.916 6.508a101.716 101.716 0 0 0-4.926 10.461c-1.382 3.449-2.361 6.656-3.293 10.291-.947 3.792-2.619 8.828-3.356 12.385-.737 3.557-.965 5.596-1.568 9.459-.65 3.54-.719 8.248-1.143 11.812-.621 3.556-1.529 7.07-2.118 10.695a85.29 85.29 0 0 0-1.042 10.964c-.054 3.195.198 6.014.228 9.074.031 3.058.047 6.152-.181 9.337-.308 4.029-2.05 7.177-2.45 11.295-.415 4.312-.815 10.705-.513 14.342-.224 4.082.108 7.639-.06 11.774.84 3.345 1.886 6.645 2.828 9.974a121.826 121.826 0 0 0 5.46 6.942c2.128 2.54 4.911 6.305 7.57 8.434 3.113 2.472 7.938 5.659 11.594 7.306 3.658 1.646 6.876 2.033 10.927 2.169 3.83.093 7.452.66 11.07-.568 4.107-1.431 8.93-7.127 12.402-9.852 3.472-2.724 5.972-4.356 9.225-7.204 1.706-1.609 4.576-1.713 5.988-3.596 1.172-2.445 1.612-3.895 2.594-6.368.982-2.472 2.306-5.716 3.445-8.179 1.152-3.36 2.429-6.554 3.225-10.018.821-3.896 1.595-8.26 2.105-12.266.532-4.172.286-8.838 1.392-12.298.44-3.972 1.395-7.384 1.507-11.458-.049-3.67-.168-7.802-.075-11.398.094-3.595.554-7.123.634-10.791.118-3.742-.078-8.202-.31-11.888-.24-3.809-.894-7.461-.661-10.834-.347-3.647-.244-6.986-.88-10.744-.761-4.2-1.123-9.402-1.968-13.586-.629-3.502-1.741-6.016-2.675-9.26-.833-2.898-1.381-5.453-2.689-9.562-1.305-3.188-2.933-7.35-4.802-10.184-1.48-1.784-2.608-2.394-3.484-4.492-.918-2.542-2.826-5.455-5.018-6.883-2.153-1.251-4.316-2.655-6.878-2.828-3.336-.24-6.576-.943-9.872-1.033zm-.855 4.084c1.584.002 4.292.249 11.128 1.028h.003c.13-.2 5.884 2.768 7.344 4.805 1.113 1.624 1.57 4.607 3.433 7.263 4.485 6.394 7.781 14.682 9.818 24.681.994 4.881 1.808 9.639 1.808 10.575 3.918 20.712 2.996 34.03 2.164 54.463l.008 5.599c.004 3.079-.493 9.463-1.105 14.183-1.484 11.442-4.353 25.241-6.269 31.217l-6.711 14.408s-1.164 1.235-3.182 3.067a88.777 88.777 0 0 1-3.627 3.113 81.12 81.12 0 0 1-4.672 3.525 66.59 66.59 0 0 1-5.48 3.458 55.425 55.425 0 0 1-2.972 1.552 46.142 46.142 0 0 1-3.087 1.356 38.22 38.22 0 0 1-3.173 1.097c-1.062.316-2.14.577-3.23.781a26.404 26.404 0 0 1-3.255.404 22.62 22.62 0 0 1-6.464-.533 27.824 27.824 0 0 1-3.138-.905 32.918 32.918 0 0 1-3.042-1.255 38.528 38.528 0 0 1-2.932-1.541 46.206 46.206 0 0 1-2.803-1.77 53.573 53.573 0 0 1-2.653-1.93 65.226 65.226 0 0 1-4.794-4.122 79.086 79.086 0 0 1-3.981-4.05 85.493 85.493 0 0 1-3.025-3.496c-1.032-1.264-1.188-1.522-1.61-2.096-.041-.139-.092-.294-.128-.424l-2.305-8.084.415-8.596c.228-4.727.94-15.139 1.581-23.139s1.212-17.819 1.268-21.819c.09-6.584.668-11.333 2.63-21.671.365-1.919.671-5.192.682-7.274.02-3.892 3.16-20.218 5.625-29.241 2.411-8.823 9.823-23.02 15.251-29.213 1.69-1.93 4.363-5.524 5.939-7.987 1.576-2.463 3.492-4.676 4.257-4.92.52-.164.888-.343 1.147-.745l4.74-1.318c2.352-.204 2.813-.448 4.397-.446zm11.107 23.906c-.55 0 1.074 6.272 3.153 12.182.745 2.118 1.145.65.693-2.546-.561-3.964-2.825-9.636-3.846-9.636zm-36.099 58.93c-.145.064-.275 2.468-.565 7.979-.511 9.726-1.34 17.192-4.216 38.05-1.455 10.54-1.366 16.284.186 12.121.371-.993 1.479-8.669 2.463-17.057 2.45-20.879 3.147-31.042 2.57-37.476-.18-2.028-.294-3.291-.394-3.563-.015-.042-.03-.061-.044-.054zm20.635 12.261c-.074.012-.155.066-.244.156-.175.174-.847 6.366-1.494 13.758a34813.01 34813.01 0 0 1-1.782 20.322c-.334 3.785-.412 7.385-.176 8 1.025 2.665 2.313-6.278 3.37-23.4h.003c.899-14.538 1.02-18.671.392-18.834a.148.148 0 0 0-.07-.002zm21.386 12.172c-.309.018-.877 3.292-1.646 9.729-.455 3.8-1.628 10.403-2.61 14.673-.981 4.271-1.772 9.182-1.756 10.911.028 3.061.055 3.096 1.02 1.324.544-1.001 1.872-6.075 2.951-11.273 1.317-6.351 2.051-12.439 2.236-18.546.133-4.402.068-6.657-.165-6.81a.064.064 0 0 0-.03-.008z" fill="#fff"/>
    </g>
    <g id="arm_r">
        <path id="path4719" d="M166.975 281.931c-4.842-1.564-9.694-3.136-14.288-5.344-12.203-5.616-23.768-12.473-35.351-19.244-3.244-1.783-6.452-3.715-9.97-4.912-.672 1.623-2.798 1.747-4.154.944-3.604-1.877-6.753-4.499-10.01-6.904-6.9-5.304-13.922-10.508-20.124-16.638-.755-.754-1.723-1.248-2.635-1.731-2.224-2.8-4.473-5.739-5.561-9.191-1.376-4.626.198-9.532 2.604-13.526 2.352-4.164 5.932-8.103 10.792-9.135 3.024-.612 6.242-.48 9.186.44 2.183.972 4.53 1.515 6.734 2.449 7.682 2.982 15.334 6.071 22.78 9.607 3.998 2.116 8.205 4.077 11.521 7.223a5.793 5.793 0 0 1 1.757 3.629c1.397 1.973 3.884 2.6 6.071 3.272 6.956 3.047 13.322 7.249 20.14 10.577 1.504.763 3.02 1.502 4.548 2.216 3.332 1.471 6.669 3.151 10.301 3.71 2.183.012 4.092-1.275 6.089-1.999 8.387-3.589 16.963-6.713 25.344-10.315 7.111-2.993 13.53-7.369 19.662-12 4.46-3.362 8.188-7.616 11.148-12.341 3.805-5.841 7.61-12.021 13.53-15.968 5.155-3.392 10.499-6.713 16.456-8.492 3.948-1.187 8.519-1.152 12.011 1.272 3.165 2.284 5.648 5.365 8.106 8.363 2.102 2.716 4.224 5.538 5.163 8.897.872 2.459 1.621 5.425-.004 7.753-.836 1.116-1.685 2.347-1.627 3.804-.622 3.663-3.353 6.531-6.106 8.823-2.455 2.035-5.326 3.485-8.291 4.613-8.704 4.779-16.804 10.546-25.21 15.814-6.499 4.184-13.204 8.044-19.57 12.434-8.353 5.637-16.522 11.748-25.029 17.243-6.105 3.925-12.255 7.901-18.984 10.688a21.593 21.593 0 0 1-6.28 1.564c-3.407.826-6.795 1.726-10.192 2.59z" fill="#000"/>
        <path id="path4721" d="M267.334 175.429c-.551.004-1.102.053-1.646.144-6.753 1.272-12.756 5.049-18.463 8.71-5.772 3.452-9.698 8.796-13.297 14.348-3.008 4.812-6.529 9.816-10.944 13.459-5.736 4.576-11.821 8.779-18.437 11.987-9.443 4.312-19.135 8.268-28.654 12.4-1.686.634-2.825 1.146-4.693.678-4.195-1.114-8.779-3.058-12.672-4.938-4.612-2.223-9.125-4.848-13.676-7.35-3.095-1.6-6.292-3.05-9.647-4.05-1.15-.439-2.022-1.08-2.658-2.202-.567-3.154-4.167-3.66-6.632-5.366-6.397-4.147-17.044-8.972-24.044-11.93-2.623-1.058-4.397-.282-6.187.547 6.958 2.712 16.702 6.804 20.468 8.703 8.287 4.176 12.023 6.926 12.023 8.853 0 1.916 3.064 4.217 6.78 5.095 1.129.265 5.874 2.656 10.545 5.31 10.076 5.726 19.24 10.055 23.617 11.158 2.879.725 3.624.597 8.203-1.404 2.771-1.211 10.928-4.518 18.128-7.348 10.58-4.159 14.625-6.176 21.091-10.519 10.156-6.823 13.954-10.499 19.025-18.413 5.969-9.315 8.683-12.379 14.012-15.814 13.412-8.644 20.77-10.112 26.234-5.238 3.854 3.436 9.383 10.461 10.424 13.242 1.948 5.206 2.027 6.603.479 8.572-.796 1.011-1.448 2.53-1.448 3.375 0 4.055-6.024 9.915-12.523 12.18-1.489.519-8.509 4.757-15.599 9.42-7.091 4.661-16.183 10.441-20.203 12.841-4.021 2.402-12.219 7.868-18.219 12.151-22.656 16.17-35.25 23.381-40.893 23.413-.091.001-2.428.585-5.195 1.297l-5.032 1.294-6.077-2.008c-7.516-2.483-21.587-9.659-37.689-19.218-13.157-7.809-18.205-9.938-18.205-7.681 0 2.153-3.158.105-19.652-12.753-1.015-.791-2.054-1.677-3.108-2.544 1.21 2.981 2.516 5.869 5.496 8.143 4.189 3.114 8.778 7.859 13.33 10.447 1.882 1.304 4.651 1.608 6.49.055 2.478.995 4.149 1.283 6.482 2.572 5.743 3.309 11.159 8.696 17.061 12.264 5.902 3.568 12.786 6.693 18.788 9.519 5.404 2.694 10.294 4.121 16.034 5.952l-.295-.803c.187.061.868.419 1.055.48 2.688-.691 5.537-1.748 8.226-2.429 2.303-.732 4.076-1.263 6.371-2.028 5.312-1.791 10.699-3.562 15.481-6.443 4.959-3.023 9.552-6.713 14.278-9.937 4.724-3.226 9.734-6.458 14.501-9.768 8.408-5.916 17.267-11.752 25.873-17.363 6.847-4.416 13.407-8.984 20.451-12.902 2.38-1.116 5.336-.756 7.524-2.251 3.649-2.529 7.314-6.708 8.77-11.031.522-1.237-.189-1.946.72-3.028 1.602-1.862 2.654-4.101 2.22-6.501-.66-3.609-1.892-8.824-4.058-11.799-2.752-3.792-6.199-5.868-9.75-8.948-2.905-2.677-6.741-4.648-10.584-4.602zm2.863 8.769c-1.979-.043-5.561 1.301-10.593 3.991-10.589 5.656-15.255 9.68-21.149 18.237-7.762 11.271-20.199 21.059-33.83 26.624-3.752 1.532-7.189 3.085-7.637 3.455-.448.368-3.897 1.902-7.668 3.409-3.769 1.508-7.427 3.312-8.127 4.012-1.762 1.763-3.464 2.564-6.701 3.149-4.791.866-10.179-.952-21.464-7.238-15.24-8.49-25.026-14.199-26.436-15.419-1.108-.959-1.737-.245-6.908 7.815a2586.09 2586.09 0 0 1-7.284 11.305l-1.59 2.435 2.317 1.43c1.276.787 4.284 2.155 6.684 3.04 2.4.885 5.993 2.793 7.983 4.239 7.593 5.516 25.749 15.256 34.198 18.345 4.007 1.465 8.892 1.3 14.828-.501 1.845-.56 4.156-1.024 5.133-1.028 2.271-.011 18.06-10.655 32.768-22.094 10.56-8.211 32.73-22.277 35.115-22.277.588 0 1.48-.492 1.98-1.096.844-1.014 17.717-10.578 20.657-11.706.716-.275 2.168-1.292 3.228-2.262s2.512-2.301 3.224-2.957c1.212-1.115 1.475-3.265.413-3.381-.261-.028-3.121 1.524-6.358 3.449-3.236 1.925-6.216 3.296-6.619 3.047-1.7-1.051-.209-4.73 1.916-4.73.496 0 3.621-1.636 6.945-3.634 3.324-2 6.424-3.636 6.89-3.638.621-.001.645-.532.089-2.004l-.756-2.005-5.155 2.455c-2.834 1.35-7.129 3.688-9.544 5.194-2.414 1.508-5.098 2.956-5.965 3.218-2.361.712-2.79-.871-.782-2.879 2.513-2.513 11.074-8.669 14.823-10.659 3.24-1.718 3.574-2.496 1.606-3.738-1.482-.934-7.736 1.941-15.585 7.165-6.471 4.304-7.578 4.691-7.578 2.652 0-2.007 5.738-6.552 14.735-11.675 2.304-1.31 4.002-2.685 3.776-3.054-.275-.444-.804-.675-1.579-.691zM89.612 211.225c-.452.009-.708.124-.708.357.002.351 1.558 1.261 3.456 2.025 1.899.766 5.724 2.975 8.502 4.911 5.072 3.535 6.222 4.067 6.222 2.877 0-1.258-6.069-6.1-9.777-7.797-3.227-1.477-6.341-2.4-7.695-2.373zm-4.88 11.86c-.013.001-.025.005-.032.013-.721.733 12.05 12.871 15.148 14.397 3.139 1.546 4.047 1.592 2.848.148-2.161-2.602-17.044-14.645-17.964-14.558z" fill="#fff"/>
    </g>
    <g id="leg_r">
        <path id="path8404" d="M173.264 498.979c-7.047 1.508-14.341.418-21.237-1.327-5.354-1.344-10.362-3.699-15.346-6.013-4.92-2.36-10.402-4.075-14.725-7.642-2.14-1.714-3.557-4.342-3.456-7.122-.041-4.991 1.188-10 3.464-14.436.97-1.862 2.336-3.576 2.68-5.688.743-2.839 1.803-5.584 2.547-8.423-1.28-.653-2.931-1.476-3.175-3.016.2-2.181 1.136-4.22 1.763-6.303 1.889-5.673 4.077-11.24 6.12-16.857 2.67-8.548 4.633-17.305 6.32-26.096.361-2.093.761-4.188.894-6.311-8.03-5.252-16.261-10.081-24.511-14.969-8.619-4.998-17.136-10.168-25.622-15.39-6.501-3.918-13.217-7.455-19.888-11.071-2.048-1.181-4.158-2.289-6.017-3.764-2.352-5.139-4.605-10.328-7.023-15.432-2.565-4.653-3.581-10.599-1.105-15.504 1.29-2.403 3.061-4.511 4.495-6.831 3.978-6.025 8.457-12.104 14.906-15.665 6.875-3.665 15.032-5.467 22.73-3.685 8.441 1.91 15.598 7.37 21.381 13.614 1.807 2.012 3.668 4.05 5.064 6.359.501 1.719 1.951 2.923 3.029 4.288 3.723 4.135 8.181 7.5 12.608 10.728 7.888 5.529 15.712 11.149 23.307 17.076 8.66 6.727 17.25 13.54 25.933 20.237 1.535 5.015 3.061 10.034 4.588 15.052-2.003 10.941-3.532 22.028-6.913 32.657a497.217 497.217 0 0 1-15.608 36.602c-1.788 3.816-3.826 7.561-5.03 11.614l-1.008 4.147c-3.24-.867-6.4-2.205-9.774-2.441-.354.7-1.044 1.172-1.726 1.485-.636 2.009-.552 4.159-.686 6.243 4.346.988 8.712 2.001 12.821 3.772 4.717 2.025 9.463 4.262 13.368 7.653 3.685 3.619 6.005 8.987 5.124 14.185-.451 2.843-2.42 5.284-5.016 6.484-1.664.842-3.457 1.395-5.276 1.79z" fill="#000"/>
        <path id="path8382" d="M123.9 309.087c1.69 1.793 7.375 10.109 9.281 11.669 2.323 1.903 6.024 3.972 9.28 5.496 2.248 1.052 3.667 3.442 5.611 4.983 2.012 1.595 4.46 3.636 6.516 5.173 2.172 1.626 4.668 3.351 6.857 4.952a116.899 116.899 0 0 1 8.076 6.495c2.054 1.817 4.688 3.091 6.866 4.757 2.217 1.695 3.529 3.223 5.662 4.215 1.868.868 3.7 2.88 5.303 4.321 1.716 1.544 1.176 4.406 1.741 6.356.71 2.444 1.047 5.004 1.792 7.627.599 2.111-1.165 4.403-1.348 6.589-.17 2.051-.592 4.637-.813 6.964-.341 3.599-1.309 6.856-2.184 10.363-.851 3.413-1.28 5.75-2.983 8.05-1.617 2.186-1.996 5.431-2.956 7.975-.994 2.637-1.628 4.619-2.684 7.232-1.202 2.98-2.722 5.876-4.01 8.82-1.118 2.555-2.202 5.113-3.311 7.672-1.065 2.46-1.925 4.488-3.187 6.569-1.06 1.75-1.422 3.65-2.201 5.542-.7 1.698-1.417 2.56-1.492 3.972-.044.838-.212 1.041-.441 1.838-.346 1.203-2.78-.537-3.994-.553-2.114-.028-7.15-1.16-6.876-.243-.117.354.082 1.147-.496 1.331-1.912 1.083-1.266 1.783-1.45 6.315-.007 1.034-.5 1.846-.463 2.945.083 2.367 4.788 1.2 6.883 1.715 2.705.665 5.164 1.426 7.73 2.506 2.711 1.14 5.714 2.41 8.235 3.923 2.264 1.357 3.603 2.396 4.4 4.281 1.185 2.804 3.744 4.874 4.208 7.883.429 2.785.125 5.407-1.669 7-1.908 1.695-4.408 2.556-6.902 3.101-2.994.655-6.602.954-9.909.759-2.467-.147-5.135-.489-7.549-1.015-2.311-.502-4.248-1.328-6.468-2.141-2.267-.829-4.791-1.633-7.108-2.645-1.715-.75-3.407-1.599-5.111-2.375-1.835-.835-3.109-1.509-4.763-1.979-3.122-.889-5.657-2.517-8.157-4.589-1.829-1.517-3.032-3.007-3.129-4.959-.127-2.565-.336-4.853.228-7.358.623-2.763 1.741-5.459 3.144-7.934.783-1.382 2.36-3.696 2.152-3.632-.936 1.982 1.345-3.449 2.376-6.304 1.068-1.809 1.088-5.385-.605-6.296-.686-.386-1.746-.88-1.84-1.176.1-1.286.534-2.484.924-3.714.838-2.646 1.786-5.254 2.725-7.864 1.065-2.963 2.248-6.204 3.573-9.223 1.216-2.769 1.636-5.743 2.389-8.672 1.007-3.908 2.102-8.088 2.971-12.028a162.117 162.117 0 0 0 1.948-10.201c.435-2.815.725-3.403.553-5.108-.129-1.295-2.81-1.056-3.921-1.735-2.161-1.321-3.883-2.517-6.013-3.888-2.987-1.92-6.579-2.972-9.593-4.849-3.066-1.908-5.879-4.824-9.196-6.639-2.232-1.22-4.426-2.854-6.604-4.17-2.264-1.368-4.644-2.316-6.924-3.658-2.206-1.297-3.866-2.842-6.143-3.072-2.124-.213-3.688-2.19-5.47-3.369-2.095-1.388-4.225-2.655-6.33-4.029-2.123-1.387-4.019-2.722-5.875-4.28-1.949-1.64-5.172-2.446-7.41-3.66-1.851-1.004-2.086-1.107-3.07-1.758-.917-.605-1.254-1.557-1.34-2.66l-3.658-3.308a13 13 0 0 1 .134 1.911c-.012 1.521.818 4.58 1.847 6.631 1.044 2.08 3.272 2.84 5.453 4.036 2.528 2.064 5.678 2.734 8.571 4.244 2.927 1.526 5.333 3.249 8.195 4.897 2.8 1.613 5.669 2.911 8.38 4.581 2.48 1.528 4.76 2.839 7.254 4.343 2.559 1.543 5.095 2.967 7.663 4.495 2.496 1.484 5.08 3.606 7.572 5.098 2.347 1.403 4.279 3.019 6.652 4.376 2.556 1.461 4.972 3.436 7.566 4.828 2.52 1.352 5.56 2.308 8.184 3.771.603.336-.394 1.878-.444 2.597-.261 3.021-.289 6.085-.916 9.052-.653 3.084-1.814 5.829-2.782 8.831-.968 2.996-1.555 5.862-2.854 8.584-1.238 2.594-2.519 5.388-3.475 8.1-.923 2.616-.86 4.986-1.72 7.352-1.08 2.969-2.322 6.986-2.944 9.826-.356 1.696 1.13 3.555 2.89 4.582.986.665-.342 1.732-.709 2.929.349 2.211-1.711 4.413-2.857 6.323-1.832 2.256-2.423 5.081-3.248 7.866-.839 2.836-1.508 6.223-1.856 9.395-.298 2.711.538 5.652 2.472 7.979 1.148 1.71 2.796 3.106 4.573 4.146 1.793 1.05 4.284 1.598 6.362 2.544 2.092.954 4.267 1.756 6.355 2.719 2.149.991 4.813 1.329 6.983 2.273 2.192.955 3.832 2.476 5.746 3.719 2.378 1.545 5.356 1.509 8.16 1.927 2.819.42 5.683.494 8.534.425 2.777-.068 5.577-.281 8.241-1.041 1.443-.412 3.395-.463 4.867-1.31 1.392-.737 3.154-1.642 4.27-2.754 1.188-1.182 1.911-2.632 2.378-4.159.866-2.837.702-6.083-.146-8.925a18.24 18.24 0 0 0-4.446-7.582c-1.65-1.676-3.376-3.422-5.378-4.657-1.989-1.228-4.294-2.027-6.314-3.267-2.159-1.326-4.158-1.582-6.578-2.336-2.437-.758-4.796-1.457-7.188-2.208-.842-.264-1.296-1.661-1.202-2.478-.43-.623 1.208-1.232 1.636-1.575 1.406-1.095 3.754.707 5.457 1.232 1.707.527 3.217 1.18 4.88 1.587.916.222 1.212-1.346 1.481-2.326 2.856-1.448.678-6.201 2.066-9.19 1.285-2.81 2.458-5.319 3.765-8.119 1.347-2.885 2.657-5.468 3.961-8.372 1.298-2.888 2.984-6.099 4.218-9.015a208.475 208.475 0 0 0 3.228-8.102c1.07-2.863 2.014-5.628 3.522-8.188 1.5-2.547 1.38-5.751 2.022-8.635.633-2.852 1.354-5.855 1.904-8.724.537-2.799 1.014-5.599 1.489-8.409.481-2.841.928-5.617 2.019-8.22 1.138-2.72-1.682-5.267-2.591-8.072-.885-2.728-1.968-5.416-2.604-8.217-.723-3.18-5.589-3.812-8.163-5.816-2.481-1.931-4.289-4.323-6.702-6.338-2.444-2.04-5.478-3.689-8.038-5.769-2.212-1.797-4.64-3.291-6.914-5.009-2.282-1.726-4.247-3.358-6.532-5.079-2.367-1.781-4.926-3.547-7.33-5.279-2.344-1.688-4.356-3.149-6.129-5.141-1.603-1.803-4.223-2.697-6.143-4.159a108.853 108.853 0 0 1-5.294-4.316c-2.195-2.368-5.431-5.393-5.231-2.717zm9.829 140.426c-.085.02-.17.044-.253.074-1.299.468-1.832 2.013-2.539 4.972-.468 1.962-1.216 4.124-1.661 4.8-.445.676-.729 1.493-.63 1.817.37 1.217 14.057 5.429 15.941 4.905.193-.052.757-1.326 1.253-2.824 2.132-6.442 2.735-9.228 2.064-9.525-.392-.175-3.672-1.369-7.288-2.657-3.539-1.262-5.575-1.876-6.887-1.562z" fill="#fff"/>
    </g>
    <path id="division" d="M123.196 301.02c-1.996.014-3.988.178-5.98.311-.753.034-1.505.086-2.256.159-.35-.028-.701-.052-1.052-.082-1.144-.092-1.745-.165-2.852-.17-.432-.003-.864.018-1.294.03-1.706.052-3.41.132-5.116.168-2.443.059-4.887.068-7.33.142-.956-.119-1.917-.16-2.882-.198-2.035.006-4.083.054-6.1.346-.288.042-.574.098-.86.146-1.474.266-2.91.696-4.35 1.102-1.082.309-2.182.546-3.274.818-.215.058-.43.111-.643.167-1.727.299-3.463.521-5.201.741-.466.074-.594.084-1.046.188-.142.032-.297.04-.425.111l-.068.036c-.561.049-1.121.105-1.683.153-2.72.206-5.437.464-8.146.786-1.314.093-2.4.692-3.564 1.244a31.111 31.111 0 0 1-3.543 1.36c-.723.005-1.445.018-2.168.02-1.181-.036-2.368.009-3.55-.052a1.676 1.676 0 0 0-.274-.014l-.124-.005-.017.013c-.42.072-.738.436-1.666 1.18-2.47 1.676-1.732.767-.485.971.23.037.46.097.684.152.18.041.356.096.533.144-.486.305-.977.624-1.337.835a12.95 12.95 0 0 0-.897.584c.04.182-.452.126-.443.306.01.222.11.326.245.371l-.105.076c1.079.011 2.152-.036 3.21-.267.38-.084.755-.196 1.134-.293a23.82 23.82 0 0 0 1.86-.648 203.38 203.38 0 0 1 7.179-1.301c1.448-.215 2.904-.363 4.36-.504.254.004.51-.01.768-.075l.005-.001c.481-.047.961-.092 1.441-.142.97-.105 1.938-.258 2.878-.522-.836-.264-.271-.476.613-.744.23-.063.465-.119.89-.235l.942-.256c.487-.127.975-.245 1.463-.367l.71-.074c1.164-.13 2.326-.268 3.487-.418 1.35-.138 2.692-.349 4.033-.561a50.54 50.54 0 0 0 2.846-.497c.857-.207 1.724-.366 2.59-.534a72.51 72.51 0 0 1 2.783-.47c1.112-.155 2.223-.316 3.336-.463 1.1-.135 2.201-.26 3.304-.373l2.268-.036c1.063.142 2.147.128 3.213.153 1.182-.024 2.36-.08 3.538-.168 1.86.004 3.72.012 5.581.001a146.31 146.31 0 0 0 7.133-.213c1.18-.057 2.36-.108 3.54-.165 1.139.049 2.278.072 3.416.104 1.042.042 2.08.074 3.122.093l1.335.02.328.005c.071 0 .154.042.21 0 .836-.604 1.636-1.256 2.445-1.894l.461-.279c-.054.015-.109.033-.164.044l.074-.059c-.146-.061-.288-.133-.439-.185a12.357 12.357 0 0 0-1.244-.311 25.244 25.244 0 0 0-2.42-.325c-1.649-.132-3.305-.163-4.958-.179z" color="#000" fill="#fff"/>
    <g id="head">
        <path id="path10833" d="M104.855 170.733c-1.439.338-4.208.565-6.484-.194-3.525-.813-1.63-.082-7.855-2.776-2.302-.649-2.254-7.538-4.276-6.676-.592.408-.533-1.101-.284-1.456.756-1.885.318-3.964.427-5.938.097-2.474 0-4.958-.607-7.368.122-1.275-1.1-.324-1.801-.238-2.681.783-5.456 1.827-8.288 1.5-2.879-.784-4.767-3.326-6.581-5.52-4.772-6.164-8.804-12.858-12.736-19.577-2.58-4.456-4.931-9.057-7.78-13.349-1.6-2.283-3.316-4.481-4.987-6.712-5.453 3.161-11.57 5.324-17.9 5.613-4.493.184-9.03-.062-13.448-.916-4.873-1.172-9.267-5.085-10.055-10.177-.593-2.805.027-6.153 2.556-7.835 2.744-1.888 6.054-2.656 9.006-4.144 5.577-2.542 11.345-4.616 17.101-6.704 4.145-1.537 8.24-3.225 12.18-5.237 1.932-3.216 4.255-6.307 5.445-9.881-.26-6.514-2.626-12.703-3.228-19.167-.265-3.664.79-7.377 2.631-10.463 3.081-5.68 6.79-11.093 11.421-15.626a45.753 45.753 0 0 1 5.554-4.562c.385-.238 1.237-.844 1.83-1.188 6.155-3.838 13.308-5.804 20.455-6.713 4.927-.615 10.028-.493 14.749 1.177 5.64 1.811 10.302 5.624 14.632 9.531 2.442 2.156 4.923 4.279 7.638 6.087 6.615-.703 13.23-1.406 19.843-2.112 8.55-5.003 17.658-8.95 26.696-12.966 4.412-1.86 8.858-3.744 13.52-4.878 3.511-.572 7.191-.196 10.53 1.005 2.256 1.116 4.142 3.24 4.665 5.725-.239 1.843-1.805 3.122-2.841 4.56-5.927 7.2-11.999 14.3-18.564 20.924-4.932 4.494-10.751 7.846-16.458 11.24a146.426 146.426 0 0 1-10.652 5.54c2.214 6.864 3.527 13.963 4.923 21.024 1.621 7.443 4.129 14.682 7.393 21.563 1.582 3.612 3.164 7.559 2.51 11.573-.84 4.436-4.523 8.108-8.928 9.039-2.15.585-4.383.734-6.584 1.01.042 3.044.089 6.088.134 9.132-4.673-.082-9.249-.278-13.942-.453 2.166 1.873 4.573 3.487 6.557 5.557 1.635 1.766.929 4.392.019 6.332-2.596 5.13-6.666 9.496-11.49 12.604-2.636 1.634-5.819 1.598-8.697 2.536-1.062.286-2.09.675-3.124 1.05-1.342 3.614-2.188 7.456-2.241 11.312.297.885-.369 1.592-.644 2.385-1.936-.524-.827 2.009-2.761 2.724-2.427.543-2.866.599-5.271 1.164z" fill="#000"/>
        <path id="path10325" d="M187.508.002a20.212 20.212 0 0 0-4.475.462c-5.993 1.688-11.712 4.214-17.4 6.724-7.525 3.43-15.117 6.78-22.253 10.982l-18.676 1.987c-5.025-3.397-9.084-8.008-14.112-11.401-5.062-3.5-11.117-5.556-17.282-5.672-6.204-.04-12.402 1.077-18.29 3.006-8.078 2.583-15.23 7.678-20.646 14.168-3.423 4.167-6.43 8.698-8.872 13.508-1.882 3.467-2.584 7.494-2.154 11.402.739 5.976 2.807 11.738 3.122 17.777-1.18 3.065-3.128 5.75-4.82 8.54-5.466 2.795-11.298 4.85-17.067 6.952-4.87 1.71-9.635 3.807-14.315 5.89-3.245 1.32-7.02 2.44-8.98 5.593C-.546 92.942-.205 96.772.96 99.966c1.996 5.196 7.154 8.699 12.568 9.448 3.955.538 7.963.826 11.954.644 6.153-.261 12.177-2.086 17.556-5.058 2.101 2.814 4.32 5.557 6.014 8.646 2.474 4.207 4.914 8.776 7.456 13.076 3.752 6.12 7.484 12.297 12.046 17.86 1.969 2.26 4.293 4.737 7.445 5.088 2.757.091 5.519-.709 8.092-1.525.524 2.218.21 4.578.31 6.857-.147 1.491.36 3.203-.654 4.479-.017 1.272.348 2.622.475 3.925.208.883 2.128-.135 4.054-1.08l-.202-1.433c.562-.879.608-2.826.562-8.039-.048-5.335-.21-5.957-1.953-7.483-1.247-1.092-2.19-1.433-2.739-.992-.46.37-2.418 1.002-4.352 1.406-3.372.706-3.62.644-6.13-1.552-3.114-2.724-11.326-15.164-17.619-26.696-2.49-4.56-5.287-9.197-6.217-10.303-1.606-1.908-2.938-4.809-2.403-5.232 1.964-1.553 10.273-6.676 14.793-9.121 3.2-1.73 7.13-4.021 8.73-5.092 9.72-6.5 27.394-15.427 36.846-18.61l7.03-2.369.424 1.692c.233.93.241 2.167.017 2.75-.223.584-.468 5.984-.544 12-.133 10.485-.211 11.018-1.901 12.817-3.392 3.61-6.375 2.044-8.074-4.244-1.306-4.833-4.51-8.425-7.512-8.42-4.292.008-7.542 1.416-10.294 4.463-2.462 2.724-2.655 3.244-2.231 5.984.71 4.588 3.599 9.886 8.113 14.874 4.682 5.174 6.61 6.479 7.803 5.286.437-.438 1.547-.795 2.467-.795 2.328 0 2.192 2.396-.244 4.312-2.471 1.944-3.676 1.898-7.794-.291l-3.38-1.799-.006 1.618c-.004.888-1.826 5.377-4.047 9.974l-4.039 8.359 4.719 4.368c5.773 5.344 7.064 9.039 5.785 16.552-.878 5.157-.424 6.143 3.763 8.129 2.959 1.404 10.5 1.507 12.328.17 1.029-.752 1.353-2.043 1.436-5.732.06-2.66.519-5.26 1.041-5.891.808-.973.556-1.233-1.84-1.899-1.526-.424-3.136-.774-3.574-.774-1.11-.006-3.203-2.444-3.203-3.731 0-.872 1.567-1.079 8.636-1.137 12.408-.103 15.853-1.25 21.709-7.223l4.593-4.685-4.922-3.712c-6.052-4.564-12.617-10.839-12.143-11.607.402-.651 15.013-.301 20.248.483l3.489.524-.416-2.094c-1.774-8.913-1.589-9.278 4.382-8.57 6.288.745 10.424-1.389 10.424-5.383 0-.774-1.631-4.826-3.626-9-3.47-7.265-4.884-12.206-7.618-26.617-.554-2.912-1.842-6.721-2.864-8.465l-1.859-3.172 1.621-.434c.891-.238 2.022-.44 2.514-.445 1.569-.017 3.781 5.513 4.976 12.44 1.661 9.621 4.266 18.155 7.982 26.143 3.627 7.794 4.055 11.33 1.812 15.009-1.838 3.016-4.786 4.492-10.076 5.045l-4.265.446.065 4.454.066 4.453-3.274-.078c-1.8-.043-6.152-.239-9.672-.436-3.518-.196-6.137-.132-5.817.142.319.276 3.313 2.4 6.652 4.719 5.555 3.86 6.036 4.387 5.672 6.209-1.043 5.214-9.588 14.195-14.189 14.915-3.551.555-8.269 1.92-9.301 2.691-1.327.992-3.336 10.313-2.962 13.65-.193.718-.189.874-.542 1.879-.095.271-.211.551-.316.827 1.742.362 3.038 1.03 3.892-.976.854-2.186.949-1.071.701-3.482.219-3.156.747-6.336 1.856-9.31 1.708-.655 3.492-1.071 5.275-1.464 2.397-.298 4.746-1.075 6.754-2.442 3.523-2.377 6.576-5.449 9.072-8.884 1.803-2.698 3.728-5.705 3.58-9.081-.045-2.4-1.875-4.16-3.633-5.541 3.357.141 6.718.204 10.078.281l-.141-9.404c2.001-.211 4.011-.485 5.931-1.109 5.872-1.588 10.292-7.588 9.673-13.707-.473-5.828-3.764-10.853-5.745-16.225a98.03 98.03 0 0 1-4.414-14.756c-1.261-6.417-2.426-12.873-4.382-19.127 3.806-1.809 7.512-3.824 11.141-5.965 5.424-3.31 10.964-6.59 15.572-11.015 6.5-6.728 12.631-13.81 18.547-21.054 1.334-1.74 3.216-3.594 2.801-5.996-.904-3.175-3.368-5.942-6.461-7.138-2.386-.712-4.898-1.144-7.403-1.156zm-.136 4.464c.839.013 1.676.067 2.509.163 3.412.356 4.808.875 6.098 2.268.921.993 1.674 2.175 1.674 2.627 0 .942-15.368 18.75-20.529 23.789-4.979 4.859-20.385 14.137-29.471 17.75-15 5.962-24.573 9.618-28.545 10.9-16.35 5.277-29.678 11.39-44.362 20.351a399.669 399.669 0 0 1-13.819 7.988c-3.8 2.075-10.181 5.897-14.181 8.496-8.95 5.816-15.432 7.92-24 7.79-3.2-.048-7.392-.415-9.313-.815-4.51-.939-8.189-4.303-8.91-8.148-.865-4.607.183-6.275 5.132-8.18 2.399-.923 5.672-2.321 7.272-3.107 1.6-.786 7.163-2.945 12.363-4.798 5.2-1.855 10.764-4.118 12.364-5.03 1.6-.912 6.344-2.888 10.544-4.39 12.577-4.5 19.425-7.808 34.252-16.544 7.762-4.572 21.804-12.507 31.204-17.635 9.4-5.127 18.311-10.085 19.803-11.021 1.492-.936 2.886-1.703 3.099-1.703.212 0 2.264-1.263 4.56-2.807 4.653-3.129 25.011-12.649 34.311-16.042 3.897-1.423 5.686-1.912 7.945-1.902zM92.286 7.554c8.472-.074 14.906 2.984 22.548 10.022 3.35 3.088 7.481 6.321 9.177 7.184l3.084 1.568-7.448 4.444c-4.096 2.444-12.684 7.313-19.084 10.822-6.4 3.508-15.737 8.763-20.75 11.678C70.86 58.478 55.599 66.138 52.38 67.04c-1.548.433-1.634.25-1.634-3.358 0-2.1-.863-7.417-1.915-11.817-2.403-10.045-1.96-12.513 3.879-21.724 7.601-11.99 16.397-18.432 28.973-21.213 3.6-.796 6.816-1.26 9.777-1.355.278-.01.552-.016.826-.019zm50.379 54.066c.25 0 .487.01.708.029 1.776.148 2.643.879 2.643 2.193 0 1.108-.535 1.375-2.745 1.375-3.282 0-13.123 3.079-17.405 5.445-2.543 1.406-3.196 1.523-3.88.699-.638-.768-.398-1.417 1.066-2.88 2.188-2.188 5.368-3.63 12.228-5.537 3.179-.884 5.632-1.327 7.385-1.324zm-3.558 10.218c.193 0 .386.006.58.012 2.054.078 4.032.57 5.757 1.54 3.393 1.908 5.325 5.027 4.289 6.924-1.436 2.627-6.378 6.702-9.444 7.782-3.584 1.264-6.62 1.328-10.092.214-1.3-.417-3.553-1.785-5.006-3.042-2.601-2.248-2.627-2.322-1.52-4.442 2.877-5.513 9.424-8.988 15.436-8.988zm1.506 3.56c-1.901 0-1.902.007-.728 2.28.648 1.252 1.04 3.208.874 4.346-.336 2.286-.019 2.17 3.986-1.451 1.1-.996 2-2.004 2-2.243 0-.882-4.285-2.932-6.132-2.932zm-10.165 3.898a.298.298 0 0 0-.092.025c-.268.108-.719.559-1.453 1.392-2.383 2.708-2.281 3.14.932 3.995.979.254 1.955.52 2.928.798.109.042-.299-.89-.908-2.07-.611-1.18-1.122-2.735-1.134-3.455-.008-.468-.076-.707-.273-.685zM93.755 90.188c.605.022 1.323.338 2.588.96 3.263 1.605 3.856 3.308 3.32 9.524-.415 4.805-.076 5.257 2.56 3.41 1.476-1.033 1.664-1.03 2.073.038.54 1.409-2.348 4.733-4.112 4.733-.668 0-1.733-.572-2.366-1.273-1.972-2.178-2.646-4.879-1.967-7.889.5-2.218.384-3.085-.555-4.122-1.67-1.844-3.378-1.268-3.85 1.294l-.398 2.172-.941-1.704c-1.232-2.229-.51-4.895 1.719-6.357.826-.541 1.324-.81 1.929-.786zm-18.82 2.98a.276.276 0 0 0-.17.037c-.46.284-.147 1.602.827 3.506 1.84 3.59 2.642 2.574 1.024-1.297-.536-1.282-1.242-2.204-1.681-2.246zm-8.62 2.595c-1.207 0-.835 2.431.979 6.39 1.54 3.357 1.906 2.427.918-2.332-.554-2.67-1.204-4.058-1.897-4.058zm-10.033 3.215c-.574.108-.084 5.898.748 8.067.864 2.249 1.137.935.645-3.1-.28-2.3-.848-4.51-1.264-4.91-.048-.046-.09-.063-.13-.057zm19.128 9.876c-.42 0-.594.574-.386 1.274.31 1.083.595 2.174.856 3.27.262 1.1.79 2 1.174 2 .384 0 .544-.571.353-1.27-.19-.7-.545-2.174-.79-3.274-.246-1.1-.789-2-1.207-2zm-11.624 5.091c-1 0-.827 1.777.493 5.076 1.463 3.658 1.939 3.726 1.343.196-.698-4.138-1.092-5.272-1.836-5.272zm7.688 8.726c-.732 0-.776.64-.199 2.911.405 1.6.952 2.908 1.215 2.908.261 0 .349-1.308.197-2.908-.167-1.745-.65-2.911-1.213-2.911z" fill="#fff"/>
    </g>
</svg>
