<svg version="1.1" id="svg2" xml:space="preserve" viewBox="0 0 309.901 518.32" xmlns="http://www.w3.org/2000/svg">
    <g id="torso">
        <path id="path4086" d="M96.628 157.138c-1.488.101-2.97.337-4.445.536-1.773.493-3.547.987-5.32 1.477-.316.734-1.217.707-1.73 1.259-2.947 2.587-4.662 6.197-7.063 9.24-1.996 2.741-4.387 5.177-6.227 8.035-4.212 6.333-7.72 13.134-10.503 20.21-2.046 5.198-3.137 10.696-4.354 16.128-1.198 5.791-2.399 11.596-3.04 17.48-.155 2.974-.235 5.967-.831 8.896-1.336 7.027-2.536 14.123-2.568 21.297-.321 12.323-1.577 24.584-2.357 36.928-.396 5.696-.651 11.4-.924 17.106.88 3.058 1.726 6.129 2.632 9.181 3.325 4.535 7.217 8.649 11.448 12.347 5.47 4.685 11.812 8.75 18.996 10.084 6.453 1.222 13.08-.484 18.92-3.236 7.542-3.603 14.264-8.76 20.23-14.576.643-.587 1.222-1.216 1.49-2.062 2.152-4.649 4.352-9.28 6.473-13.942 2.077-6.888 3.44-13.967 4.721-21.039 1.452-8.309 2.592-16.703 2.741-25.147-.04-3.421.007-6.84.196-10.257.53-12.2.983-24.468-.4-36.633-.469-4.503-1.209-8.973-1.996-13.427-.504-4.181-1.378-8.309-2.229-12.43-1.904-8.471-4.968-16.804-10.008-23.935-1.501-2.264-1.8-5.14-3.501-7.28-2.013-2.124-4.628-3.565-7.227-4.856-1.29-.599-2.756-.431-4.133-.681-2.989-.294-5.983-.732-8.99-.703z" fill="#000"/>
        <path id="path4007" d="M98.066 155.045a21.05 21.05 0 0 0-3.32.152c-2.43.169-4.991 1.164-7.323 1.814-.784.36-2.007.132-2.312 1.116-1.657.72-2.647 2.782-3.79 4.12-2.345 3.13-3.733 5.851-6.306 8.811-1.668 1.908-3.859 3.957-5.265 6.055-1.407 2.097-2.676 4.305-3.916 6.508a101.716 101.716 0 0 0-4.926 10.461c-1.382 3.449-2.361 6.656-3.293 10.291-.947 3.792-2.619 8.828-3.356 12.385-.737 3.557-.965 5.596-1.568 9.459-.65 3.54-.719 8.248-1.143 11.812-.621 3.556-1.529 7.07-2.118 10.695a85.29 85.29 0 0 0-1.042 10.964c-.054 3.195.198 6.014.228 9.074.031 3.058.047 6.152-.181 9.337-.308 4.029-2.05 7.177-2.45 11.295-.415 4.312-.815 10.705-.513 14.342-.224 4.082.108 7.639-.06 11.774.84 3.345 1.886 6.645 2.828 9.974a121.826 121.826 0 0 0 5.46 6.942c2.128 2.54 4.911 6.305 7.57 8.434 3.113 2.472 7.938 5.659 11.594 7.306 3.658 1.646 6.876 2.033 10.927 2.169 3.83.093 7.452.66 11.07-.568 4.107-1.431 8.93-7.127 12.402-9.852 3.472-2.724 5.972-4.356 9.225-7.204 1.706-1.609 4.576-1.713 5.988-3.596 1.172-2.445 1.612-3.895 2.594-6.368.982-2.472 2.306-5.716 3.445-8.179 1.152-3.36 2.429-6.554 3.225-10.018.821-3.896 1.595-8.26 2.105-12.266.532-4.172.286-8.838 1.392-12.298.44-3.972 1.395-7.384 1.507-11.458-.049-3.67-.168-7.802-.075-11.398.094-3.595.554-7.123.634-10.791.118-3.742-.078-8.202-.31-11.888-.24-3.809-.894-7.461-.661-10.834-.347-3.647-.244-6.986-.88-10.744-.761-4.2-1.123-9.402-1.968-13.586-.629-3.502-1.741-6.016-2.675-9.26-.833-2.898-1.381-5.453-2.689-9.562-1.305-3.188-2.933-7.35-4.802-10.184-1.48-1.784-2.608-2.394-3.484-4.492-.918-2.542-2.826-5.455-5.018-6.883-2.153-1.251-4.316-2.655-6.878-2.828-3.336-.24-6.576-.943-9.872-1.033zm-.855 4.084c1.584.002 4.292.249 11.128 1.028h.003c.13-.2 5.884 2.768 7.344 4.805 1.113 1.624 1.57 4.607 3.433 7.263 4.485 6.394 7.781 14.682 9.818 24.681.994 4.881 1.808 9.639 1.808 10.575 3.918 20.712 2.996 34.03 2.164 54.463l.008 5.599c.004 3.079-.493 9.463-1.105 14.183-1.484 11.442-4.353 25.241-6.269 31.217l-6.711 14.408s-1.164 1.235-3.182 3.067a88.777 88.777 0 0 1-3.627 3.113 81.12 81.12 0 0 1-4.672 3.525 66.59 66.59 0 0 1-5.48 3.458 55.425 55.425 0 0 1-2.972 1.552 46.142 46.142 0 0 1-3.087 1.356 38.22 38.22 0 0 1-3.173 1.097c-1.062.316-2.14.577-3.23.781a26.404 26.404 0 0 1-3.255.404 22.62 22.62 0 0 1-6.464-.533 27.824 27.824 0 0 1-3.138-.905 32.918 32.918 0 0 1-3.042-1.255 38.528 38.528 0 0 1-2.932-1.541 46.206 46.206 0 0 1-2.803-1.77 53.573 53.573 0 0 1-2.653-1.93 65.226 65.226 0 0 1-4.794-4.122 79.086 79.086 0 0 1-3.981-4.05 85.493 85.493 0 0 1-3.025-3.496c-1.032-1.264-1.188-1.522-1.61-2.096-.041-.139-.092-.294-.128-.424l-2.305-8.084.415-8.596c.228-4.727.94-15.139 1.581-23.139s1.212-17.819 1.268-21.819c.09-6.584.668-11.333 2.63-21.671.365-1.919.671-5.192.682-7.274.02-3.892 3.16-20.218 5.625-29.241 2.411-8.823 9.823-23.02 15.251-29.213 1.69-1.93 4.363-5.524 5.939-7.987 1.576-2.463 3.492-4.676 4.257-4.92.52-.164.888-.343 1.147-.745l4.74-1.318c2.352-.204 2.813-.448 4.397-.446zm11.107 23.906c-.55 0 1.074 6.272 3.153 12.182.745 2.118 1.145.65.693-2.546-.561-3.964-2.825-9.636-3.846-9.636zm-36.099 58.93c-.145.064-.275 2.468-.565 7.979-.511 9.726-1.34 17.192-4.216 38.05-1.455 10.54-1.366 16.284.186 12.121.371-.993 1.479-8.669 2.463-17.057 2.45-20.879 3.147-31.042 2.57-37.476-.18-2.028-.294-3.291-.394-3.563-.015-.042-.03-.061-.044-.054zm20.635 12.261c-.074.012-.155.066-.244.156-.175.174-.847 6.366-1.494 13.758a34813.01 34813.01 0 0 1-1.782 20.322c-.334 3.785-.412 7.385-.176 8 1.025 2.665 2.313-6.278 3.37-23.4h.003c.899-14.538 1.02-18.671.392-18.834a.148.148 0 0 0-.07-.002zm21.386 12.172c-.309.018-.877 3.292-1.646 9.729-.455 3.8-1.628 10.403-2.61 14.673-.981 4.271-1.772 9.182-1.756 10.911.028 3.061.055 3.096 1.02 1.324.544-1.001 1.872-6.075 2.951-11.273 1.317-6.351 2.051-12.439 2.236-18.546.133-4.402.068-6.657-.165-6.81a.064.064 0 0 0-.03-.008z" fill="#fff"/>
    </g>
    <g id="arm">
        <path id="path4719" d="M164.575 266.503c-4.842-1.564-9.694-3.136-14.288-5.344-12.203-5.616-23.768-12.473-35.35-19.244-3.245-1.783-6.453-3.715-9.97-4.912-.673 1.623-2.799 1.747-4.155.944-3.604-1.877-6.753-4.5-10.01-6.904-6.9-5.304-13.922-10.508-20.124-16.638-.755-.754-1.723-1.248-2.635-1.731-2.224-2.8-4.473-5.74-5.56-9.191-1.377-4.626.197-9.532 2.603-13.526 2.352-4.164 5.932-8.103 10.792-9.135 3.024-.612 6.242-.48 9.186.44 2.183.972 4.53 1.515 6.734 2.449 7.682 2.982 15.334 6.07 22.78 9.607 3.998 2.116 8.205 4.077 11.521 7.223a5.793 5.793 0 0 1 1.757 3.629c1.397 1.973 3.884 2.6 6.071 3.272 6.956 3.047 13.322 7.249 20.14 10.577 1.504.763 3.02 1.502 4.548 2.216 3.332 1.47 6.67 3.15 10.301 3.71 2.183.012 4.092-1.275 6.09-2 8.386-3.588 16.962-6.712 25.343-10.314 7.111-2.993 13.53-7.37 19.662-12 4.46-3.362 8.188-7.616 11.148-12.341 3.805-5.841 7.61-12.021 13.53-15.968 5.155-3.392 10.5-6.713 16.456-8.492 3.948-1.187 8.52-1.152 12.011 1.272 3.165 2.284 5.648 5.365 8.106 8.363 2.102 2.716 4.224 5.538 5.163 8.897.872 2.459 1.621 5.425-.004 7.753-.836 1.116-1.685 2.347-1.627 3.804-.622 3.663-3.353 6.53-6.106 8.823-2.455 2.035-5.326 3.485-8.29 4.613-8.705 4.779-16.805 10.546-25.21 15.814-6.5 4.184-13.205 8.044-19.57 12.434-8.354 5.637-16.523 11.748-25.03 17.243-6.105 3.925-12.255 7.9-18.984 10.688a21.593 21.593 0 0 1-6.28 1.564c-3.407.826-6.795 1.726-10.192 2.59z" fill="#000"/>
        <path id="path4721" d="M264.934 160c-.55.005-1.102.054-1.646.145-6.753 1.272-12.756 5.049-18.463 8.71-5.772 3.452-9.698 8.796-13.297 14.348-3.008 4.812-6.529 9.816-10.944 13.459-5.736 4.576-11.82 8.779-18.437 11.987-9.443 4.312-19.135 8.268-28.654 12.4-1.686.634-2.825 1.146-4.693.678-4.195-1.114-8.779-3.058-12.672-4.938-4.612-2.223-9.125-4.848-13.676-7.35-3.095-1.6-6.292-3.05-9.647-4.05-1.15-.44-2.022-1.08-2.658-2.202-.567-3.154-4.167-3.66-6.632-5.366-6.397-4.147-17.044-8.972-24.044-11.93-2.623-1.058-4.397-.282-6.187.547 6.958 2.712 16.702 6.804 20.468 8.703 8.287 4.176 12.023 6.926 12.023 8.853 0 1.916 3.064 4.217 6.78 5.095 1.13.265 5.874 2.656 10.545 5.31 10.076 5.726 19.24 10.055 23.617 11.158 2.88.725 3.624.597 8.203-1.404 2.771-1.211 10.928-4.518 18.128-7.348 10.58-4.16 14.625-6.176 21.091-10.52 10.156-6.822 13.954-10.498 19.025-18.412 5.97-9.315 8.683-12.38 14.012-15.814 13.412-8.644 20.77-10.112 26.234-5.238 3.854 3.436 9.383 10.46 10.424 13.242 1.948 5.206 2.027 6.603.48 8.572-.797 1.01-1.449 2.53-1.449 3.375 0 4.055-6.024 9.915-12.523 12.18-1.489.519-8.509 4.757-15.599 9.42-7.09 4.66-16.183 10.44-20.203 12.84-4.02 2.403-12.219 7.869-18.219 12.152-22.656 16.17-35.25 23.38-40.893 23.413-.09 0-2.428.585-5.195 1.297l-5.032 1.294-6.077-2.008c-7.516-2.483-21.587-9.66-37.689-19.218-13.157-7.81-18.205-9.938-18.205-7.681 0 2.153-3.158.105-19.652-12.753-1.015-.791-2.054-1.677-3.108-2.544 1.21 2.98 2.516 5.869 5.496 8.143 4.19 3.114 8.778 7.859 13.33 10.447 1.882 1.304 4.651 1.608 6.49.055 2.478.995 4.15 1.283 6.482 2.572 5.743 3.309 11.16 8.696 17.061 12.264 5.902 3.568 12.786 6.693 18.788 9.519 5.404 2.694 10.294 4.12 16.034 5.952l-.295-.803c.187.06.868.419 1.055.48 2.688-.691 5.537-1.748 8.226-2.43 2.303-.731 4.076-1.262 6.371-2.027 5.312-1.791 10.7-3.562 15.481-6.443 4.96-3.023 9.552-6.713 14.278-9.937 4.724-3.226 9.734-6.458 14.501-9.768 8.408-5.916 17.267-11.752 25.873-17.363 6.847-4.416 13.407-8.984 20.451-12.902 2.38-1.116 5.336-.756 7.524-2.251 3.65-2.53 7.314-6.708 8.77-11.031.522-1.237-.189-1.946.72-3.028 1.602-1.862 2.654-4.101 2.22-6.501-.66-3.61-1.892-8.824-4.058-11.8-2.752-3.791-6.199-5.867-9.75-8.947-2.905-2.677-6.74-4.648-10.584-4.602zm2.863 8.77c-1.979-.043-5.56 1.3-10.593 3.99-10.589 5.657-15.255 9.68-21.149 18.238-7.762 11.27-20.199 21.059-33.83 26.624-3.752 1.532-7.189 3.085-7.637 3.455-.448.368-3.897 1.902-7.668 3.409-3.769 1.508-7.427 3.312-8.127 4.012-1.762 1.763-3.464 2.564-6.7 3.149-4.792.866-10.18-.952-21.465-7.238-15.24-8.49-25.026-14.2-26.436-15.42-1.108-.958-1.737-.244-6.908 7.816A2586.09 2586.09 0 0 1 110 228.11l-1.59 2.435 2.317 1.43c1.276.787 4.284 2.155 6.684 3.04 2.4.885 5.993 2.793 7.983 4.239 7.593 5.516 25.75 15.256 34.198 18.345 4.007 1.465 8.892 1.3 14.828-.501 1.845-.56 4.156-1.024 5.133-1.028 2.271-.011 18.06-10.655 32.768-22.094 10.56-8.211 32.73-22.277 35.115-22.277.588 0 1.48-.492 1.98-1.096.844-1.014 17.717-10.578 20.657-11.706.716-.275 2.168-1.292 3.228-2.262s2.512-2.301 3.224-2.957c1.212-1.115 1.475-3.265.413-3.381-.26-.028-3.12 1.524-6.358 3.449-3.236 1.925-6.216 3.296-6.619 3.047-1.7-1.051-.209-4.73 1.916-4.73.496 0 3.621-1.636 6.945-3.634 3.324-2 6.424-3.636 6.89-3.638.621-.001.645-.532.09-2.004l-.757-2.005-5.155 2.455c-2.834 1.35-7.129 3.688-9.544 5.194-2.414 1.508-5.098 2.956-5.965 3.218-2.36.712-2.79-.871-.782-2.88 2.513-2.512 11.074-8.668 14.823-10.658 3.24-1.718 3.574-2.496 1.606-3.738-1.482-.934-7.736 1.94-15.585 7.165-6.47 4.304-7.578 4.69-7.578 2.652 0-2.007 5.738-6.552 14.735-11.675 2.304-1.31 4.002-2.685 3.776-3.054-.275-.444-.804-.675-1.579-.691zM87.212 195.797c-.452.009-.708.124-.708.357.002.35 1.558 1.26 3.456 2.025 1.9.766 5.724 2.975 8.502 4.91 5.072 3.536 6.222 4.068 6.222 2.878 0-1.258-6.069-6.1-9.777-7.797-3.227-1.477-6.34-2.4-7.695-2.373zm-4.88 11.86a.043.043 0 0 0-.032.013c-.72.733 12.05 12.87 15.148 14.397 3.14 1.546 4.047 1.592 2.848.148-2.16-2.602-17.044-14.645-17.964-14.558z" fill="#fff"/>
    </g>
    <g id="leg">
        <path id="path8404" d="M173.264 498.979c-7.047 1.508-14.341.418-21.237-1.327-5.354-1.344-10.362-3.699-15.346-6.013-4.92-2.36-10.402-4.075-14.725-7.642-2.14-1.714-3.557-4.342-3.456-7.122-.041-4.991 1.188-10 3.464-14.436.97-1.862 2.336-3.576 2.68-5.688.743-2.839 1.803-5.584 2.547-8.423-1.28-.653-2.931-1.476-3.175-3.016.2-2.181 1.136-4.22 1.763-6.303 1.889-5.673 4.077-11.24 6.12-16.857 2.67-8.548 4.633-17.305 6.32-26.096.361-2.093.761-4.188.894-6.311-8.03-5.252-16.261-10.081-24.511-14.969-8.619-4.998-17.136-10.168-25.622-15.39-6.501-3.918-13.217-7.455-19.888-11.071-2.048-1.181-4.158-2.289-6.017-3.764-2.352-5.139-4.605-10.328-7.023-15.432-2.565-4.653-3.581-10.599-1.105-15.504 1.29-2.403 3.061-4.511 4.495-6.831 3.978-6.025 8.457-12.104 14.906-15.665 6.875-3.665 15.032-5.467 22.73-3.685 8.441 1.91 15.598 7.37 21.381 13.614 1.807 2.012 3.668 4.05 5.064 6.359.501 1.719 1.951 2.923 3.029 4.288 3.723 4.135 8.181 7.5 12.608 10.728 7.888 5.529 15.712 11.149 23.307 17.076 8.66 6.727 17.25 13.54 25.933 20.237 1.535 5.015 3.061 10.034 4.588 15.052-2.003 10.941-3.532 22.028-6.913 32.657a497.217 497.217 0 0 1-15.608 36.602c-1.788 3.816-3.826 7.561-5.03 11.614l-1.008 4.147c-3.24-.867-6.4-2.205-9.774-2.441-.354.7-1.044 1.172-1.726 1.485-.636 2.009-.552 4.159-.686 6.243 4.346.988 8.712 2.001 12.821 3.772 4.717 2.025 9.463 4.262 13.368 7.653 3.685 3.619 6.005 8.987 5.124 14.185-.451 2.843-2.42 5.284-5.016 6.484-1.664.842-3.457 1.395-5.276 1.79z" fill="#000"/>
        <path id="path8382" d="M123.9 309.087c1.69 1.793 7.375 10.109 9.281 11.669 2.323 1.903 6.024 3.972 9.28 5.496 2.248 1.052 3.667 3.442 5.611 4.983 2.012 1.595 4.46 3.636 6.516 5.173 2.172 1.626 4.668 3.351 6.857 4.952a116.899 116.899 0 0 1 8.076 6.495c2.054 1.817 4.688 3.091 6.866 4.757 2.217 1.695 3.529 3.223 5.662 4.215 1.868.868 3.7 2.88 5.303 4.321 1.716 1.544 1.176 4.406 1.741 6.356.71 2.444 1.047 5.004 1.792 7.627.599 2.111-1.165 4.403-1.348 6.589-.17 2.051-.592 4.637-.813 6.964-.341 3.599-1.309 6.856-2.184 10.363-.851 3.413-1.28 5.75-2.983 8.05-1.617 2.186-1.996 5.431-2.956 7.975-.994 2.637-1.628 4.619-2.684 7.232-1.202 2.98-2.722 5.876-4.01 8.82-1.118 2.555-2.202 5.113-3.311 7.672-1.065 2.46-1.925 4.488-3.187 6.569-1.06 1.75-1.422 3.65-2.201 5.542-.7 1.698-1.417 2.56-1.492 3.972-.044.838-.212 1.041-.441 1.838-.346 1.203-2.78-.537-3.994-.553-2.114-.028-7.15-1.16-6.876-.243-.117.354.082 1.147-.496 1.331-1.912 1.083-1.266 1.783-1.45 6.315-.007 1.034-.5 1.846-.463 2.945.083 2.367 4.788 1.2 6.883 1.715 2.705.665 5.164 1.426 7.73 2.506 2.711 1.14 5.714 2.41 8.235 3.923 2.264 1.357 3.603 2.396 4.4 4.281 1.185 2.804 3.744 4.874 4.208 7.883.429 2.785.125 5.407-1.669 7-1.908 1.695-4.408 2.556-6.902 3.101-2.994.655-6.602.954-9.909.759-2.467-.147-5.135-.489-7.549-1.015-2.311-.502-4.248-1.328-6.468-2.141-2.267-.829-4.791-1.633-7.108-2.645-1.715-.75-3.407-1.599-5.111-2.375-1.835-.835-3.109-1.509-4.763-1.979-3.122-.889-5.657-2.517-8.157-4.589-1.829-1.517-3.032-3.007-3.129-4.959-.127-2.565-.336-4.853.228-7.358.623-2.763 1.741-5.459 3.144-7.934.783-1.382 2.36-3.696 2.152-3.632-.936 1.982 1.345-3.449 2.376-6.304 1.068-1.809 1.088-5.385-.605-6.296-.686-.386-1.746-.88-1.84-1.176.1-1.286.534-2.484.924-3.714.838-2.646 1.786-5.254 2.725-7.864 1.065-2.963 2.248-6.204 3.573-9.223 1.216-2.769 1.636-5.743 2.389-8.672 1.007-3.908 2.102-8.088 2.971-12.028a162.117 162.117 0 0 0 1.948-10.201c.435-2.815.725-3.403.553-5.108-.129-1.295-2.81-1.056-3.921-1.735-2.161-1.321-3.883-2.517-6.013-3.888-2.987-1.92-6.579-2.972-9.593-4.849-3.066-1.908-5.879-4.824-9.196-6.639-2.232-1.22-4.426-2.854-6.604-4.17-2.264-1.368-4.644-2.316-6.924-3.658-2.206-1.297-3.866-2.842-6.143-3.072-2.124-.213-3.688-2.19-5.47-3.369-2.095-1.388-4.225-2.655-6.33-4.029-2.123-1.387-4.019-2.722-5.875-4.28-1.949-1.64-5.172-2.446-7.41-3.66-1.851-1.004-2.086-1.107-3.07-1.758-.917-.605-1.254-1.557-1.34-2.66l-3.658-3.308a13 13 0 0 1 .134 1.911c-.012 1.521.818 4.58 1.847 6.631 1.044 2.08 3.272 2.84 5.453 4.036 2.528 2.064 5.678 2.734 8.571 4.244 2.927 1.526 5.333 3.249 8.195 4.897 2.8 1.613 5.669 2.911 8.38 4.581 2.48 1.528 4.76 2.839 7.254 4.343 2.559 1.543 5.095 2.967 7.663 4.495 2.496 1.484 5.08 3.606 7.572 5.098 2.347 1.403 4.279 3.019 6.652 4.376 2.556 1.461 4.972 3.436 7.566 4.828 2.52 1.352 5.56 2.308 8.184 3.771.603.336-.394 1.878-.444 2.597-.261 3.021-.289 6.085-.916 9.052-.653 3.084-1.814 5.829-2.782 8.831-.968 2.996-1.555 5.862-2.854 8.584-1.238 2.594-2.519 5.388-3.475 8.1-.923 2.616-.86 4.986-1.72 7.352-1.08 2.969-2.322 6.986-2.944 9.826-.356 1.696 1.13 3.555 2.89 4.582.986.665-.342 1.732-.709 2.929.349 2.211-1.711 4.413-2.857 6.323-1.832 2.256-2.423 5.081-3.248 7.866-.839 2.836-1.508 6.223-1.856 9.395-.298 2.711.538 5.652 2.472 7.979 1.148 1.71 2.796 3.106 4.573 4.146 1.793 1.05 4.284 1.598 6.362 2.544 2.092.954 4.267 1.756 6.355 2.719 2.149.991 4.813 1.329 6.983 2.273 2.192.955 3.832 2.476 5.746 3.719 2.378 1.545 5.356 1.509 8.16 1.927 2.819.42 5.683.494 8.534.425 2.777-.068 5.577-.281 8.241-1.041 1.443-.412 3.395-.463 4.867-1.31 1.392-.737 3.154-1.642 4.27-2.754 1.188-1.182 1.911-2.632 2.378-4.159.866-2.837.702-6.083-.146-8.925a18.24 18.24 0 0 0-4.446-7.582c-1.65-1.676-3.376-3.422-5.378-4.657-1.989-1.228-4.294-2.027-6.314-3.267-2.159-1.326-4.158-1.582-6.578-2.336-2.437-.758-4.796-1.457-7.188-2.208-.842-.264-1.296-1.661-1.202-2.478-.43-.623 1.208-1.232 1.636-1.575 1.406-1.095 3.754.707 5.457 1.232 1.707.527 3.217 1.18 4.88 1.587.916.222 1.212-1.346 1.481-2.326 2.856-1.448.678-6.201 2.066-9.19 1.285-2.81 2.458-5.319 3.765-8.119 1.347-2.885 2.657-5.468 3.961-8.372 1.298-2.888 2.984-6.099 4.218-9.015a208.475 208.475 0 0 0 3.228-8.102c1.07-2.863 2.014-5.628 3.522-8.188 1.5-2.547 1.38-5.751 2.022-8.635.633-2.852 1.354-5.855 1.904-8.724.537-2.799 1.014-5.599 1.489-8.409.481-2.841.928-5.617 2.019-8.22 1.138-2.72-1.682-5.267-2.591-8.072-.885-2.728-1.968-5.416-2.604-8.217-.723-3.18-5.589-3.812-8.163-5.816-2.481-1.931-4.289-4.323-6.702-6.338-2.444-2.04-5.478-3.689-8.038-5.769-2.212-1.797-4.64-3.291-6.914-5.009-2.282-1.726-4.247-3.358-6.532-5.079-2.367-1.781-4.926-3.547-7.33-5.279-2.344-1.688-4.356-3.149-6.129-5.141-1.603-1.803-4.223-2.697-6.143-4.159a108.853 108.853 0 0 1-5.294-4.316c-2.195-2.368-5.431-5.393-5.231-2.717zm9.829 140.426c-.085.02-.17.044-.253.074-1.299.468-1.832 2.013-2.539 4.972-.468 1.962-1.216 4.124-1.661 4.8-.445.676-.729 1.493-.63 1.817.37 1.217 14.057 5.429 15.941 4.905.193-.052.757-1.326 1.253-2.824 2.132-6.442 2.735-9.228 2.064-9.525-.392-.175-3.672-1.369-7.288-2.657-3.539-1.262-5.575-1.876-6.887-1.562z" fill="#fff"/>
    </g>
    <path id="division" d="M123.196 301.02c-1.996.014-3.988.178-5.98.311-.753.034-1.505.086-2.256.159-.35-.028-.701-.052-1.052-.082-1.144-.092-1.745-.165-2.852-.17-.432-.003-.864.018-1.294.03-1.706.052-3.41.132-5.116.168-2.443.059-4.887.068-7.33.142-.956-.119-1.917-.16-2.882-.198-2.035.006-4.083.054-6.1.346-.288.042-.574.098-.86.146-1.474.266-2.91.696-4.35 1.102-1.082.309-2.182.546-3.274.818-.215.058-.43.111-.643.167-1.727.299-3.463.521-5.201.741-.466.074-.594.084-1.046.188-.142.032-.297.04-.425.111l-.068.036c-.561.049-1.121.105-1.683.153-2.72.206-5.437.464-8.146.786-1.314.093-2.4.692-3.564 1.244a31.111 31.111 0 0 1-3.543 1.36c-.723.005-1.445.018-2.168.02-1.181-.036-2.368.009-3.55-.052a1.676 1.676 0 0 0-.274-.014l-.124-.005-.017.013c-.42.072-.738.436-1.666 1.18-2.47 1.676-1.732.767-.485.971.23.037.46.097.684.152.18.041.356.096.533.144-.486.305-.977.624-1.337.835a12.95 12.95 0 0 0-.897.584c.04.182-.452.126-.443.306.01.222.11.326.245.371l-.105.076c1.079.011 2.152-.036 3.21-.267.38-.084.755-.196 1.134-.293a23.82 23.82 0 0 0 1.86-.648 203.38 203.38 0 0 1 7.179-1.301c1.448-.215 2.904-.363 4.36-.504.254.004.51-.01.768-.075l.005-.001c.481-.047.961-.092 1.441-.142.97-.105 1.938-.258 2.878-.522-.836-.264-.271-.476.613-.744.23-.063.465-.119.89-.235l.942-.256c.487-.127.975-.245 1.463-.367l.71-.074c1.164-.13 2.326-.268 3.487-.418 1.35-.138 2.692-.349 4.033-.561a50.54 50.54 0 0 0 2.846-.497c.857-.207 1.724-.366 2.59-.534a72.51 72.51 0 0 1 2.783-.47c1.112-.155 2.223-.316 3.336-.463 1.1-.135 2.201-.26 3.304-.373l2.268-.036c1.063.142 2.147.128 3.213.153 1.182-.024 2.36-.08 3.538-.168 1.86.004 3.72.012 5.581.001a146.31 146.31 0 0 0 7.133-.213c1.18-.057 2.36-.108 3.54-.165 1.139.049 2.278.072 3.416.104 1.042.042 2.08.074 3.122.093l1.335.02.328.005c.071 0 .154.042.21 0 .836-.604 1.636-1.256 2.445-1.894l.461-.279c-.054.015-.109.033-.164.044l.074-.059c-.146-.061-.288-.133-.439-.185a12.357 12.357 0 0 0-1.244-.311 25.244 25.244 0 0 0-2.42-.325c-1.649-.132-3.305-.163-4.958-.179z" color="#000" fill="#fff"/>
    <g id="head">
        <path id="path10833" d="M104.855 170.733c-1.439.338-4.208.565-6.484-.194-3.525-.813-1.63-.082-7.855-2.776-2.302-.649-2.254-7.538-4.276-6.676-.592.408-.533-1.101-.284-1.456.756-1.885.318-3.964.427-5.938.097-2.474 0-4.958-.607-7.368.122-1.275-1.1-.324-1.801-.238-2.681.783-5.456 1.827-8.288 1.5-2.879-.784-4.767-3.326-6.581-5.52-4.772-6.164-8.804-12.858-12.736-19.577-2.58-4.456-4.931-9.057-7.78-13.349-1.6-2.283-3.316-4.481-4.987-6.712-5.453 3.161-11.57 5.324-17.9 5.613-4.493.184-9.03-.062-13.448-.916-4.873-1.172-9.267-5.085-10.055-10.177-.593-2.805.027-6.153 2.556-7.835 2.744-1.888 6.054-2.656 9.006-4.144 5.577-2.542 11.345-4.616 17.101-6.704 4.145-1.537 8.24-3.225 12.18-5.237 1.932-3.216 4.255-6.307 5.445-9.881-.26-6.514-2.626-12.703-3.228-19.167-.265-3.664.79-7.377 2.631-10.463 3.081-5.68 6.79-11.093 11.421-15.626a45.753 45.753 0 0 1 5.554-4.562c.385-.238 1.237-.844 1.83-1.188 6.155-3.838 13.308-5.804 20.455-6.713 4.927-.615 10.028-.493 14.749 1.177 5.64 1.811 10.302 5.624 14.632 9.531 2.442 2.156 4.923 4.279 7.638 6.087 6.615-.703 13.23-1.406 19.843-2.112 8.55-5.003 17.658-8.95 26.696-12.966 4.412-1.86 8.858-3.744 13.52-4.878 3.511-.572 7.191-.196 10.53 1.005 2.256 1.116 4.142 3.24 4.665 5.725-.239 1.843-1.805 3.122-2.841 4.56-5.927 7.2-11.999 14.3-18.564 20.924-4.932 4.494-10.751 7.846-16.458 11.24a146.426 146.426 0 0 1-10.652 5.54c2.214 6.864 3.527 13.963 4.923 21.024 1.621 7.443 4.129 14.682 7.393 21.563 1.582 3.612 3.164 7.559 2.51 11.573-.84 4.436-4.523 8.108-8.928 9.039-2.15.585-4.383.734-6.584 1.01.042 3.044.089 6.088.134 9.132-4.673-.082-9.249-.278-13.942-.453 2.166 1.873 4.573 3.487 6.557 5.557 1.635 1.766.929 4.392.019 6.332-2.596 5.13-6.666 9.496-11.49 12.604-2.636 1.634-5.819 1.598-8.697 2.536-1.062.286-2.09.675-3.124 1.05-1.342 3.614-2.188 7.456-2.241 11.312.297.885-.369 1.592-.644 2.385-1.936-.524-.827 2.009-2.761 2.724-2.427.543-2.866.599-5.271 1.164z" fill="#000"/>
        <path id="path10325" d="M187.508.002a20.212 20.212 0 0 0-4.475.462c-5.993 1.688-11.712 4.214-17.4 6.724-7.525 3.43-15.117 6.78-22.253 10.982l-18.676 1.987c-5.025-3.397-9.084-8.008-14.112-11.401-5.062-3.5-11.117-5.556-17.282-5.672-6.204-.04-12.402 1.077-18.29 3.006-8.078 2.583-15.23 7.678-20.646 14.168-3.423 4.167-6.43 8.698-8.872 13.508-1.882 3.467-2.584 7.494-2.154 11.402.739 5.976 2.807 11.738 3.122 17.777-1.18 3.065-3.128 5.75-4.82 8.54-5.466 2.795-11.298 4.85-17.067 6.952-4.87 1.71-9.635 3.807-14.315 5.89-3.245 1.32-7.02 2.44-8.98 5.593C-.546 92.942-.205 96.772.96 99.966c1.996 5.196 7.154 8.699 12.568 9.448 3.955.538 7.963.826 11.954.644 6.153-.261 12.177-2.086 17.556-5.058 2.101 2.814 4.32 5.557 6.014 8.646 2.474 4.207 4.914 8.776 7.456 13.076 3.752 6.12 7.484 12.297 12.046 17.86 1.969 2.26 4.293 4.737 7.445 5.088 2.757.091 5.519-.709 8.092-1.525.524 2.218.21 4.578.31 6.857-.147 1.491.36 3.203-.654 4.479-.017 1.272.348 2.622.475 3.925.208.883 2.128-.135 4.054-1.08l-.202-1.433c.562-.879.608-2.826.562-8.039-.048-5.335-.21-5.957-1.953-7.483-1.247-1.092-2.19-1.433-2.739-.992-.46.37-2.418 1.002-4.352 1.406-3.372.706-3.62.644-6.13-1.552-3.114-2.724-11.326-15.164-17.619-26.696-2.49-4.56-5.287-9.197-6.217-10.303-1.606-1.908-2.938-4.809-2.403-5.232 1.964-1.553 10.273-6.676 14.793-9.121 3.2-1.73 7.13-4.021 8.73-5.092 9.72-6.5 27.394-15.427 36.846-18.61l7.03-2.369.424 1.692c.233.93.241 2.167.017 2.75-.223.584-.468 5.984-.544 12-.133 10.485-.211 11.018-1.901 12.817-3.392 3.61-6.375 2.044-8.074-4.244-1.306-4.833-4.51-8.425-7.512-8.42-4.292.008-7.542 1.416-10.294 4.463-2.462 2.724-2.655 3.244-2.231 5.984.71 4.588 3.599 9.886 8.113 14.874 4.682 5.174 6.61 6.479 7.803 5.286.437-.438 1.547-.795 2.467-.795 2.328 0 2.192 2.396-.244 4.312-2.471 1.944-3.676 1.898-7.794-.291l-3.38-1.799-.006 1.618c-.004.888-1.826 5.377-4.047 9.974l-4.039 8.359 4.719 4.368c5.773 5.344 7.064 9.039 5.785 16.552-.878 5.157-.424 6.143 3.763 8.129 2.959 1.404 10.5 1.507 12.328.17 1.029-.752 1.353-2.043 1.436-5.732.06-2.66.519-5.26 1.041-5.891.808-.973.556-1.233-1.84-1.899-1.526-.424-3.136-.774-3.574-.774-1.11-.006-3.203-2.444-3.203-3.731 0-.872 1.567-1.079 8.636-1.137 12.408-.103 15.853-1.25 21.709-7.223l4.593-4.685-4.922-3.712c-6.052-4.564-12.617-10.839-12.143-11.607.402-.651 15.013-.301 20.248.483l3.489.524-.416-2.094c-1.774-8.913-1.589-9.278 4.382-8.57 6.288.745 10.424-1.389 10.424-5.383 0-.774-1.631-4.826-3.626-9-3.47-7.265-4.884-12.206-7.618-26.617-.554-2.912-1.842-6.721-2.864-8.465l-1.859-3.172 1.621-.434c.891-.238 2.022-.44 2.514-.445 1.569-.017 3.781 5.513 4.976 12.44 1.661 9.621 4.266 18.155 7.982 26.143 3.627 7.794 4.055 11.33 1.812 15.009-1.838 3.016-4.786 4.492-10.076 5.045l-4.265.446.065 4.454.066 4.453-3.274-.078c-1.8-.043-6.152-.239-9.672-.436-3.518-.196-6.137-.132-5.817.142.319.276 3.313 2.4 6.652 4.719 5.555 3.86 6.036 4.387 5.672 6.209-1.043 5.214-9.588 14.195-14.189 14.915-3.551.555-8.269 1.92-9.301 2.691-1.327.992-3.336 10.313-2.962 13.65-.193.718-.189.874-.542 1.879-.095.271-.211.551-.316.827 1.742.362 3.038 1.03 3.892-.976.854-2.186.949-1.071.701-3.482.219-3.156.747-6.336 1.856-9.31 1.708-.655 3.492-1.071 5.275-1.464 2.397-.298 4.746-1.075 6.754-2.442 3.523-2.377 6.576-5.449 9.072-8.884 1.803-2.698 3.728-5.705 3.58-9.081-.045-2.4-1.875-4.16-3.633-5.541 3.357.141 6.718.204 10.078.281l-.141-9.404c2.001-.211 4.011-.485 5.931-1.109 5.872-1.588 10.292-7.588 9.673-13.707-.473-5.828-3.764-10.853-5.745-16.225a98.03 98.03 0 0 1-4.414-14.756c-1.261-6.417-2.426-12.873-4.382-19.127 3.806-1.809 7.512-3.824 11.141-5.965 5.424-3.31 10.964-6.59 15.572-11.015 6.5-6.728 12.631-13.81 18.547-21.054 1.334-1.74 3.216-3.594 2.801-5.996-.904-3.175-3.368-5.942-6.461-7.138-2.386-.712-4.898-1.144-7.403-1.156zm-.136 4.464c.839.013 1.676.067 2.509.163 3.412.356 4.808.875 6.098 2.268.921.993 1.674 2.175 1.674 2.627 0 .942-15.368 18.75-20.529 23.789-4.979 4.859-20.385 14.137-29.471 17.75-15 5.962-24.573 9.618-28.545 10.9-16.35 5.277-29.678 11.39-44.362 20.351a399.669 399.669 0 0 1-13.819 7.988c-3.8 2.075-10.181 5.897-14.181 8.496-8.95 5.816-15.432 7.92-24 7.79-3.2-.048-7.392-.415-9.313-.815-4.51-.939-8.189-4.303-8.91-8.148-.865-4.607.183-6.275 5.132-8.18 2.399-.923 5.672-2.321 7.272-3.107 1.6-.786 7.163-2.945 12.363-4.798 5.2-1.855 10.764-4.118 12.364-5.03 1.6-.912 6.344-2.888 10.544-4.39 12.577-4.5 19.425-7.808 34.252-16.544 7.762-4.572 21.804-12.507 31.204-17.635 9.4-5.127 18.311-10.085 19.803-11.021 1.492-.936 2.886-1.703 3.099-1.703.212 0 2.264-1.263 4.56-2.807 4.653-3.129 25.011-12.649 34.311-16.042 3.897-1.423 5.686-1.912 7.945-1.902zM92.286 7.554c8.472-.074 14.906 2.984 22.548 10.022 3.35 3.088 7.481 6.321 9.177 7.184l3.084 1.568-7.448 4.444c-4.096 2.444-12.684 7.313-19.084 10.822-6.4 3.508-15.737 8.763-20.75 11.678C70.86 58.478 55.599 66.138 52.38 67.04c-1.548.433-1.634.25-1.634-3.358 0-2.1-.863-7.417-1.915-11.817-2.403-10.045-1.96-12.513 3.879-21.724 7.601-11.99 16.397-18.432 28.973-21.213 3.6-.796 6.816-1.26 9.777-1.355.278-.01.552-.016.826-.019zm50.379 54.066c.25 0 .487.01.708.029 1.776.148 2.643.879 2.643 2.193 0 1.108-.535 1.375-2.745 1.375-3.282 0-13.123 3.079-17.405 5.445-2.543 1.406-3.196 1.523-3.88.699-.638-.768-.398-1.417 1.066-2.88 2.188-2.188 5.368-3.63 12.228-5.537 3.179-.884 5.632-1.327 7.385-1.324zm-3.558 10.218c.193 0 .386.006.58.012 2.054.078 4.032.57 5.757 1.54 3.393 1.908 5.325 5.027 4.289 6.924-1.436 2.627-6.378 6.702-9.444 7.782-3.584 1.264-6.62 1.328-10.092.214-1.3-.417-3.553-1.785-5.006-3.042-2.601-2.248-2.627-2.322-1.52-4.442 2.877-5.513 9.424-8.988 15.436-8.988zm1.506 3.56c-1.901 0-1.902.007-.728 2.28.648 1.252 1.04 3.208.874 4.346-.336 2.286-.019 2.17 3.986-1.451 1.1-.996 2-2.004 2-2.243 0-.882-4.285-2.932-6.132-2.932zm-10.165 3.898a.298.298 0 0 0-.092.025c-.268.108-.719.559-1.453 1.392-2.383 2.708-2.281 3.14.932 3.995.979.254 1.955.52 2.928.798.109.042-.299-.89-.908-2.07-.611-1.18-1.122-2.735-1.134-3.455-.008-.468-.076-.707-.273-.685zM93.755 90.188c.605.022 1.323.338 2.588.96 3.263 1.605 3.856 3.308 3.32 9.524-.415 4.805-.076 5.257 2.56 3.41 1.476-1.033 1.664-1.03 2.073.038.54 1.409-2.348 4.733-4.112 4.733-.668 0-1.733-.572-2.366-1.273-1.972-2.178-2.646-4.879-1.967-7.889.5-2.218.384-3.085-.555-4.122-1.67-1.844-3.378-1.268-3.85 1.294l-.398 2.172-.941-1.704c-1.232-2.229-.51-4.895 1.719-6.357.826-.541 1.324-.81 1.929-.786zm-18.82 2.98a.276.276 0 0 0-.17.037c-.46.284-.147 1.602.827 3.506 1.84 3.59 2.642 2.574 1.024-1.297-.536-1.282-1.242-2.204-1.681-2.246zm-8.62 2.595c-1.207 0-.835 2.431.979 6.39 1.54 3.357 1.906 2.427.918-2.332-.554-2.67-1.204-4.058-1.897-4.058zm-10.033 3.215c-.574.108-.084 5.898.748 8.067.864 2.249 1.137.935.645-3.1-.28-2.3-.848-4.51-1.264-4.91-.048-.046-.09-.063-.13-.057zm19.128 9.876c-.42 0-.594.574-.386 1.274.31 1.083.595 2.174.856 3.27.262 1.1.79 2 1.174 2 .384 0 .544-.571.353-1.27-.19-.7-.545-2.174-.79-3.274-.246-1.1-.789-2-1.207-2zm-11.624 5.091c-1 0-.827 1.777.493 5.076 1.463 3.658 1.939 3.726 1.343.196-.698-4.138-1.092-5.272-1.836-5.272zm7.688 8.726c-.732 0-.776.64-.199 2.911.405 1.6.952 2.908 1.215 2.908.261 0 .349-1.308.197-2.908-.167-1.745-.65-2.911-1.213-2.911z" fill="#fff"/>
    </g>
</svg>
