<svg viewBox="0 0 160.602 47.625" version="1.1" id="svg5" xmlns="http://www.w3.org/2000/svg">
    <g id="layer1" transform="translate(81.4 -70.75)">
        <g id="g1024" transform="translate(4.706 25.155) scale(.28596)">
            <path d="M-11.015 318.657c-7.64-.09-14.04-.26-14.222-.377-.182-.118-.33-.376-.33-.574 0-.197.148-.419.33-.492.265-.107.265-.138 0-.155-.655-.04-.305-1.526.99-4.198.726-1.497 1.82-3.461 2.43-4.365 4.296-6.352 8.729-12.184 12.895-16.962 5.408-6.205 20.29-21.187 22.88-23.035 2.107-1.504 4.644-2.68 8.761-4.062 4.485-1.505 6.892-1.903 11.526-1.903 6.027 0 7.288.393 12.627 3.935a157.571 157.571 0 0 0 6.35 3.963c1.705.994 4.23 2.553 5.613 3.463 2.681 1.767 9.718 5.29 13.597 6.806l2.353.92 1.88-.837c2.435-1.083 5.786-3.337 7.35-4.943.678-.697 2.617-2.994 4.307-5.105 4.819-6.015 19.076-20.618 24.752-25.352 1.674-1.396 4.055-3.387 5.292-4.424 4.936-4.14 13.344-9.908 16.813-11.534 2.268-1.063 5.33-1.817 7.377-1.817 3.626 0 12.271 3.804 16.291 7.167 2.712 2.268 8.957 9.77 11.131 13.37 2.925 4.842 7.44 7.755 15.565 10.044 1.368.386 4.64 1.595 7.272 2.688 4.506 1.872 6.37 2.521 13.128 4.571 3.369 1.022 8.527 3.528 10.86 5.275 2.34 1.752 6.035 5.638 7.463 7.847.647 1.003 1.862 3.068 2.698 4.59.836 1.522 2.04 3.43 2.676 4.238 1.678 2.136 5.626 5.69 9.115 8.204 1.672 1.204 3.785 2.859 4.696 3.677a44.387 44.387 0 0 0 3.56 2.81c1.047.727 2.417 1.977 3.046 2.778.63.8 1.451 1.788 1.827 2.195.472.511.644.94.559 1.389-.084.438-.004.65.245.65.283 0 .306.118.096.51a2.675 2.675 0 0 0-.274 1.06c0 .3-.15.543-.331.54-2.399-.036-9.7.324-10.914.539-1.66.293-8.236.76-20.505 1.452-4.002.226-8.407.54-9.79.696-1.382.157-11.145.382-21.696.5-31.745.357-43.039.676-56.224 1.589-17.897 1.239-20.015 1.313-37.174 1.299-9.24-.008-18.17-.127-19.843-.265-8.813-.727-22.916-.544-41.805.542-16.211.933-18.55 1.04-25.003 1.15-3.492.059-12.6.033-20.24-.057z" id="path62" fill="#000"/>
            <path d="M133.843 247.872c1.017-3.527 1.174-4.435.79-4.565-.29-.097-.602.952-1.466 4.918-.298 1.37-.67 2.74-.824 3.043-.26.51-.247.519.163.129.244-.232.845-1.818 1.337-3.525z" id="path226" fill="#fff"/>
            <path d="M152.937 253.862c.16-2.79-.003-4.823-.386-4.82-.102 0-.22 1.935-.262 4.3-.054 3.099.003 4.172.204 3.848.154-.247.354-1.745.444-3.328z" id="path224" fill="#fff"/>
            <path d="M120.878 259.455c.415-1.872.923-3.744 1.128-4.16.303-.615.306-.735.02-.642-.598.195-1.054 1.477-1.71 4.81-.347 1.762-.75 3.41-.894 3.663-.42.737-.286.913.228.298.263-.315.807-2.072 1.228-3.969z" id="path222" fill="#fff"/>
            <path d="M139.401 265.975c-.077-.125.038-1.337.256-2.694.243-1.512.313-2.774.182-3.26-.172-.638-.303-.131-.668 2.587-.439 3.262-.413 4.078.12 3.749.137-.085.187-.257.11-.382z" id="path220" fill="#fff"/>
            <path d="M162.837 273.952c-.355-.664-.377-6.196-.03-7.45.23-.83.218-.874-.121-.426-.535.707-.745 2.467-.613 5.135.102 2.06.561 3.764.918 3.407.073-.073.004-.373-.154-.666z" id="path218" fill="#fff"/>
            <path d="M107.79 270.938c.32-2.145.687-3.835.816-3.755.13.08.235.026.235-.12 0-.41-.546-.649-.832-.363-.348.348-.938 3.907-1.131 6.815-.224 3.375.207 2.158.913-2.577z" id="path216" fill="#fff"/>
            <path d="M126.003 273.911c0-.8-.093-1.689-.205-1.974-.201-.517-.417 1.652-.683 6.87l-.12 2.38.504-2.91c.278-1.6.505-3.565.504-4.366z" id="path214" fill="#fff"/>
            <path d="M181.233 281.895c-.075-.12.027-1.302.226-2.625.602-4.006.787-7.637.402-7.875-.208-.128-.515.032-.82.428-.59.77-.668 1.342-.083.618.386-.478.405-.41.258.941-.086.8-.232 3.093-.323 5.094-.127 2.765-.09 3.638.154 3.638.177 0 .26-.099.186-.22z" id="path212" fill="#fff"/>
            <path d="M33.533 278.966c.65-2.238 1.339-4.17 1.533-4.293.274-.174.255-.225-.088-.228-.473-.004-1.339 2.282-2.303 6.081-.277 1.091-.594 2.223-.705 2.514-.144.378-.118.453.092.262.16-.147.823-2.098 1.471-4.336z" id="path210" fill="#fff"/>
            <path d="M195.344 278.872c.715-2.756.648-3.788-.127-1.935-.643 1.54-1.71 5.975-1.683 6.991.025.92.05.89.549-.624.287-.873.855-2.867 1.26-4.432z" id="path208" fill="#fff"/>
            <path d="M146.31 279.095c.132-1.669.103-2.305-.1-2.18-.377.233-.55 1.094-.839 4.193-.306 3.273-.057 4.506.417 2.064.184-.946.419-2.78.522-4.077z" id="path206" fill="#fff"/>
            <path d="M47.08 282.595c.624-2.517 1.08-4.629 1.016-4.694-.406-.406-1.223 2.263-2.059 6.726-.218 1.164-.481 2.355-.585 2.646-.151.423-.12.466.153.213.187-.173.851-2.374 1.475-4.891z" id="path204" fill="#fff"/>
            <path d="M206.284 285.024c.18-3.262-.035-5.119-.606-5.23-.345-.066-.374.47-.224 4.098.213 5.177.205 5.102.467 4.44.115-.292.279-1.78.363-3.308z" id="path202" fill="#fff"/>
            <path d="M19.163 284.501c.276-2.204.57-4.119.655-4.255.085-.137-.018-.25-.228-.25-.42 0-.81 2.244-1.124 6.483-.27 3.657.137 2.499.697-1.978z" id="path200" fill="#fff"/>
            <path d="M93.254 287.739c.502-2.784.694-7.194.24-5.493-.117.436-.402 2.401-.633 4.366-.23 1.964-.488 3.869-.572 4.233-.134.58-.116.602.153.18.168-.265.534-1.743.812-3.286z" id="path198" fill="#fff"/>
            <path d="M109.742 285.553c.377-1.382.682-2.692.678-2.91-.032-1.687-2.038 5.655-2.242 8.202l-.137 1.72.508-2.25c.28-1.236.816-3.38 1.193-4.762z" id="path196" fill="#fff"/>
            <path d="M65.558 292.83c.094-1.165.24-2.862.326-3.771.1-1.066.058-1.654-.118-1.654-.424 0-.589 1.167-.687 4.872-.097 3.668.199 4.01.479.552z" id="path194" fill="#fff"/>
            <path d="M131.2 295.672c.1-1.127.269-2.734.376-3.57.2-1.555-.045-2.094-.367-.809-.099.393-.29 2.077-.426 3.744-.136 1.667-.336 3.167-.445 3.334-.109.167 0 .09.243-.173.288-.312.502-1.186.62-2.526z" id="path192" fill="#fff"/>
            <path d="M151.548 299.145c.329-.857.95-5.69.95-7.394 0-1.277-.09-1.715-.332-1.635-.228.076-.424 1.43-.636 4.396-.168 2.357-.372 4.461-.454 4.675-.083.214-.047.39.078.39.126 0 .303-.195.394-.432z" id="path190" fill="#fff"/>
            <path d="M174.586 300.01c.41-1.867 1.194-6.488 1.194-7.035.003-2.156-1.183 2.226-1.487 5.505-.097 1.04-.278 1.89-.403 1.89-.124 0-.226.115-.226.256 0 .484.798-.05.922-.616z" id="path188" fill="#fff"/>
            <path d="M219.805 300.3c.277-3.14.344-5.732.146-5.61-.11.068-.273 1.403-.363 2.968-.09 1.564-.214 3.234-.274 3.71-.06.476-.007.802.118.725.125-.078.293-.884.373-1.792z" id="path186" fill="#fff"/>
            <path d="M28.541 299.863c-.113-1.728-.304-2.933-.466-2.933-.185 0-.207.839-.066 2.58.115 1.419.204 2.86.198 3.202-.008.42.076.535.257.353.173-.173.2-1.312.077-3.202z" id="path184" fill="#fff"/>
            <path d="M1.383 297.592c.02-1.796-.053-2.519-.227-2.25-.142.22-.24 2.23-.22 4.499.031 3.358.073 3.765.228 2.249.105-1.019.203-3.043.22-4.498z" id="path182" fill="#fff"/>
            <path d="M189.3 303.865c.341-1.034.18-3.41-.29-4.289-.49-.916-.572-.465-.264 1.464.332 2.074.162 3.193-.554 3.64-.731.456-.621.758.149.408.382-.174.78-.683.959-1.223z" id="path180" fill="#fff"/>
            <path d="M118.17 305.198c.697-.779 2.317-7.402 2.284-9.342l-.028-1.704-.334 1.852c-.712 3.956-1.937 8.63-2.393 9.134-.26.288-.354.524-.209.524.146 0 .451-.209.68-.464z" id="path178" fill="#fff"/>
            <path d="M201.549 305.463c.08-.4.274-1.718.432-2.928.159-1.21.363-2.4.455-2.646.144-.385.108-.397-.273-.088-.496.403-.648 1.087-.938 4.207-.193 2.076.013 3.006.324 1.455z" id="path176" fill="#fff"/>
            <path d="M57.225 304.339c.008-1.674-.106-3.222-.252-3.44-.184-.273-.244.816-.195 3.491.084 4.498.425 4.459.447-.051z" id="path174" fill="#fff"/>
            <path d="M43.592 303.919c.704-3.642.903-7.091.426-7.386-.162-.1-.267.33-.271 1.11-.007 1.335-1.136 9.356-1.445 10.267-.17.501-.159.504.21.056.214-.26.7-2.082 1.08-4.047z" id="path172" fill="#fff"/>
            <path d="M92.43 301.177c.005-.258-.08-.296-.26-.117-.42.42-1.589 5.343-1.556 6.554.023.846.229.29.92-2.482.49-1.964.894-3.744.897-3.955z" id="path170" fill="#fff"/>
            <path d="M72.328 307.81c0-.258.288-1.428.64-2.602.702-2.347 1.168-5.404.758-4.97-.138.145-.565 1.693-.948 3.44-1.036 4.719-1.077 4.986-.742 4.78.16-.1.292-.392.292-.649z" id="path168" fill="#fff"/>
            <path d="M12.542 306.692c.325-2.247.332-9.153.01-8.822-.135.138-.29 2.454-.343 5.146-.053 2.692-.199 5.133-.323 5.424-.172.405-.15.46.093.236.175-.16.429-1.054.563-1.984z" id="path166" fill="#fff"/>
            <path d="M-9.692 307.755c-.207-.474-.243.145-.14 2.404.233 5.165.253 5.263.337 1.697.048-2.036-.033-3.726-.197-4.101z" id="path164" fill="#fff"/>
        </g>
        <path d="M-1.139 113.17c-.984.999-2.249 1.883-3.6 2.319-1.762.568-3.734.366-5.555.366-1.441 0-2.893.048-4.333 0-2.468-.082-4.923-.42-7.386-.55-1.76-.092-3.549 0-5.31 0-4.39 0-8.795.112-13.183 0-3.33-.084-7.415-.55-10.62.367-2.404.686-4.968.826-7.447.976-1.782.108-3.66-.221-5.432 0-1.977.247-3.99.183-5.982.183-2.891 0-6.084.241-8.972 0-.762-.063-1.39-.122-2.197-.122-.168 0-.23-.027-.305.122-.063.125.104.258.122.367.076.458-.305.937-.305 1.403 0 .245.216 1.254.366 1.404.004.005 2.92.013 3.479.061 6.757.584 4.289.51 13.489 1.892 7.396 1.112 14.8 2.029 22.278 2.38 1.246.06 2.543.109 3.784 0 1.53-.132 3.032-.41 4.578-.426 7.87-.089 15.752-.225 23.62-.062 4.865.102 9.724.321 14.588.428 3.351.073 2.788-.095 6.164.06 1.511.07 9.075.6 10.315.672 6.677.393 13.435.342 20.081-.427 1.306-.151 2.6-.404 3.906-.55 4.092-.454 8.228-.749 12.33-1.098 2.176-.185 4.336-.677 6.53-.855 2.555-.206 5.132-.267 7.69-.427 2.143-.134 4.333.031 6.41-.488.187-.047 1.38-.588 1.464-.671.255-.255.794-1.984.794-2.198 0-.758-.916-1.48-.916-2.197 0-.067.12-.17.061-.244-.505-.632-1.423-1.199-1.83-1.71-.325-.404-.647-1.28-1.283-1.28" id="path4600" fill="#000"/>
    </g>
</svg>
