<?xml version="1.0" encoding="UTF-8" standalone="no"?>
<!-- Created with Inkscape (http://www.inkscape.org/) -->

<svg
   width="313"
   height="180"
   viewBox="0 0 82.814581 47.625"
   version="1.1"
   id="svg5"
   sodipodi:docname="mountains_1.svg"
   inkscape:version="1.1 (c4e8f9e, 2021-05-24)"
   xmlns:inkscape="http://www.inkscape.org/namespaces/inkscape"
   xmlns:sodipodi="http://sodipodi.sourceforge.net/DTD/sodipodi-0.dtd"
   xmlns="http://www.w3.org/2000/svg"
   xmlns:svg="http://www.w3.org/2000/svg">
  <sodipodi:namedview
     id="namedview7"
     pagecolor="#505050"
     bordercolor="#ffffff"
     borderopacity="1"
     inkscape:pageshadow="0"
     inkscape:pageopacity="0"
     inkscape:pagecheckerboard="1"
     inkscape:document-units="mm"
     showgrid="false"
     inkscape:snap-global="false"
     fit-margin-top="0"
     fit-margin-left="0"
     fit-margin-right="0"
     fit-margin-bottom="0"
     inkscape:zoom="1.0837283"
     inkscape:cx="334.49343"
     inkscape:cy="198.38921"
     inkscape:window-width="1792"
     inkscape:window-height="982"
     inkscape:window-x="0"
     inkscape:window-y="25"
     inkscape:window-maximized="1"
     inkscape:current-layer="layer1"
     units="px" />
  <defs
     id="defs2" />
  <g
     inkscape:label="Camada 1"
     inkscape:groupmode="layer"
     id="layer1"
     transform="translate(81.400154,-70.749672)">
    <g
       id="g1058"
       transform="matrix(0.28596444,0,0,0.28596444,-60.227258,64.610571)">
      <path
         style="fill:#000000;stroke-width:0.264583"
         d="m -40.119479,182.06069 c -0.945886,-0.0972 -2.076979,-0.32047 -2.513542,-0.49615 -0.479631,-0.19301 -3.254345,-0.40063 -7.011458,-0.52464 -3.419739,-0.11285 -6.554456,-0.33758 -6.966037,-0.49938 -0.41158,-0.16179 -2.406832,-0.33057 -4.433892,-0.37507 -3.223773,-0.0708 -3.776464,-0.14867 -4.411046,-0.62201 -1.11864,-0.83439 -1.048324,-1.33056 0.401352,-2.83212 0.720627,-0.74639 2.068922,-2.36914 2.996213,-3.60606 0.92729,-1.23693 3.236449,-4.10893 5.131466,-6.38223 1.895017,-2.27333 4.145256,-5.30942 5.000532,-6.74687 2.103409,-3.53526 8.177207,-12.26122 11.05577,-15.88339 2.596587,-3.26734 7.311856,-7.92943 9.832268,-9.7214 2.335388,-1.66039 6.255562,-3.69205 9.174623,-4.75483 1.382448,-0.50329 3.293015,-1.28256 4.245705,-1.73172 2.799191,-1.31966 5.844164,-1.86304 10.4769438,-1.86968 3.321624,-0.005 4.3172801,0.0889 5.8208331,0.54748 3.470968,1.05862 8.957418,4.14787 12.4095581,6.98743 4.777531,3.92975 5.927227,4.89887 8.304226,6.99982 1.3922,1.23049 4.079086,3.6763 5.970857,5.43509 3.223252,2.9967 6.994749,5.98623 9.135234,7.2412 0.51323,0.30091 2.227204,1.0332 3.808825,1.62727 3.934277,1.47777 4.241559,1.6588 6.502815,3.83093 2.125657,2.04184 2.563108,2.29549 11.244791,6.52047 2.764895,1.34553 5.734692,2.91973 6.599549,3.49821 1.95848,1.30995 5.522029,2.81265 6.23062,2.62734 0.357071,-0.0934 0.531288,-0.009 0.531288,0.2567 0,0.21762 0.357188,0.54358 0.79375,0.72443 1.639168,0.67897 0.849427,2.90658 -1.033195,2.91433 -0.523147,0.003 -1.699244,0.18026 -2.613546,0.39584 -0.914299,0.21556 -2.521643,0.45699 -3.571875,0.53655 -1.050229,0.0795 -2.921539,0.32128 -4.158466,0.53718 -3.416157,0.59632 -10.068097,1.3905 -16.490323,1.96877 -3.176084,0.28601 -5.85499,0.56777 -5.953124,0.62614 -0.176631,0.10509 -6.588546,0.90648 -11.952385,1.49391 -4.683167,0.51287 -24.34678783,0.82661 -29.4208371,0.4694 -3.4054651,-0.23974 -5.1938999,-0.2386 -7.8052079,0.005 -1.863122,0.17375 -5.674778,0.31535 -8.470347,0.31464 -2.795568,0 -6.248381,0.11403 -7.672916,0.25503 -3.405484,0.33708 -9.032618,0.45397 -11.189022,0.23241 z"
         id="path254" />
      <path
         style="fill:#ffffff;stroke-width:0.264583"
         d="m -4.426377,141.77531 c 1.5725933,-3.06835 1.8634788,-4.14314 0.7581397,-2.8013 -0.6889221,0.83632 -1.9237377,3.44265 -2.4313567,5.13188 -0.5397896,1.79629 -0.1976517,1.31972 1.673217,-2.33058 z"
         id="path272" />
      <path
         style="fill:#ffffff;stroke-width:0.264583"
         d="m -19.748746,142.2813 c 1.803654,-4.26178 2.12635,-5.15937 1.854861,-5.15937 -0.339952,0 -1.435703,2.19165 -2.355972,4.71228 -1.595135,4.36909 -1.278358,4.65172 0.501111,0.44709 z"
         id="path270" />
      <path
         style="fill:#ffffff;stroke-width:0.264583"
         d="m 6.5692163,148.8032 c 0.5140722,-1.98387 0.5167524,-2.68544 0.010261,-2.68544 -0.2712297,0 -0.3970867,0.27223 -0.3975418,0.85989 -2.646e-4,0.47295 -0.298024,1.96983 -0.6614583,3.3264 -0.3634369,1.35657 -0.6510363,2.5472 -0.6391142,2.64583 0.049273,0.40762 1.3108489,-2.69179 1.6878533,-4.14668 z"
         id="path268" />
      <path
         style="fill:#ffffff;stroke-width:0.264583"
         d="m -32.467145,160.09726 c 0.625512,-1.4791 1.347057,-3.29481 1.603436,-4.0349 0.256376,-0.74009 0.734192,-1.85679 1.061813,-2.48155 0.604281,-1.15232 0.581657,-1.55546 -0.0732,-1.30419 -0.861859,0.33073 -4.15897,8.21727 -4.15897,9.94807 0,1.12221 0.452387,0.50798 1.566918,-2.12743 z"
         id="path266" />
      <path
         style="fill:#ffffff;stroke-width:0.264583"
         d="m -12.216313,160.5543 c 0.95159,-2.46153 1.730166,-4.57359 1.730166,-4.6935 0,-0.11993 -0.126529,-0.21804 -0.281178,-0.21804 -0.408001,0 -1.647386,2.88192 -2.617073,6.08541 -1.181063,3.90181 -1.175801,3.87962 -0.846029,3.56902 0.15617,-0.14708 1.062521,-2.28139 2.014114,-4.74289 z"
         id="path264" />
      <path
         style="fill:#ffffff;stroke-width:0.264583"
         d="m 8.8460881,165.091 c 1.8374549,-4.7421 2.0847369,-5.47949 1.8375339,-5.47949 -0.408501,0 -1.2588293,1.87783 -2.2729455,5.01949 -0.5161676,1.59906 -1.0500518,2.97632 -1.1864074,3.06059 -0.1363531,0.0843 -0.2439565,0.29504 -0.2391146,0.46834 0.019659,0.70337 1.0711868,-1.03076 1.8609336,-3.06893 z"
         id="path262" />
      <path
         style="fill:#ffffff;stroke-width:0.264583"
         d="m 27.757943,170.70072 c 0.745434,-1.47105 1.972574,-5.0987 1.972574,-5.83131 0,-0.69551 -0.488865,-0.61616 -1.247539,0.20246 -0.451004,0.48665 -0.511331,0.6459 -0.199319,0.52618 0.297635,-0.11422 0.405456,-0.06 0.322038,0.16203 -0.06897,0.18354 -0.528714,1.57252 -1.021646,3.08666 -0.620464,1.90582 -1.038715,2.7905 -1.359263,2.87512 -0.726204,0.19166 -0.541438,0.53125 0.21081,0.38745 0.481668,-0.0921 0.858768,-0.49376 1.322345,-1.40859 z"
         id="path260" />
      <path
         style="fill:#ffffff;stroke-width:0.264583"
         d="m -27.164927,171.81602 c 0.580872,-1.95045 0.667367,-2.67951 0.317894,-2.67951 -0.121719,0 -0.441655,0.96477 -0.710975,2.14397 -0.269319,1.17919 -0.645983,2.20395 -0.83703,2.27727 -0.191048,0.0733 -0.347358,0.24381 -0.347358,0.37888 0,0.1401 0.22298,0.12623 0.519136,-0.0323 0.327493,-0.17526 0.718187,-0.9462 1.058333,-2.08836 z"
         id="path258" />
      <path
         style="fill:#ffffff;stroke-width:0.264583"
         d="m -46.752543,175.44539 c 0.292213,-0.31366 0.969481,-1.89124 1.50504,-3.50573 0.535556,-1.61449 1.075017,-2.97513 1.1988,-3.02363 0.315635,-0.12369 0.281586,-0.57327 -0.04341,-0.57327 -0.481436,0 -1.270979,1.62367 -1.852928,3.81047 -0.31361,1.17846 -0.794012,2.52961 -1.067559,3.00255 -0.577376,0.99824 -0.490381,1.09511 0.260062,0.28961 z"
         id="path256" />
    </g>
  </g>
</svg>
