<svg viewBox="0 0 73 49" xmlns="http://www.w3.org/2000/svg" xml:space="preserve" fill-rule="evenodd" clip-rule="evenodd">
    <path id="path2134" d="m73.161 30-1.257-.141-1.967-1.758-1.876-1.289-1.348-1.418-1.76-1.778-5.154-3.109-4.045-1.54-3.716.397-2.128 1.038-4.752 2.531-4.927 2.848-4.541 1.876-4.845 2.276-6.537 1.488-5.414 1.108-11.482-1.955-5.482.197-2.01-.222L.015 40l9.072-.204 4.409.06 4.655.163 3.962-.311 6.045.024 6.497.604 5.92-.524 3.269.112 7.204-.776 4.062.923 7.268-.545 7.398.301 3.39.209L73.161 30z" fill-rule="nonzero"/>
</svg>
