<svg viewBox="0 0 97 49" xmlns="http://www.w3.org/2000/svg" xml:space="preserve" fill-rule="evenodd" clip-rule="evenodd">
    <path id="path2134" d="m-.336 30.386 1.653-.139 3.385-1.227 2.829-1.157 1.048-.352 2.575-1.577 2.002-1.192 2.638-.736.986-.105 1.002.105.841.35 3.879 1.876 6.134 2.279 8.057 3.484 5.648 1.91 6.092 1.411 7.459.515 8.956-.267 12.425-.36 9.954-2.443 8.347-2.444L97.14 30v10l-12.149-.204-5.871.06-6.08-.398-5.08-.307-7.89-.075-8.218.081-8.793.655-4.354.112-9.594-.776-5.154.13-9.933.248-9.853.301-4.515.209.008-9.65z" fill-rule="nonzero"/>
</svg>
