<?xml version="1.0" encoding="UTF-8" standalone="no"?>
<!-- Created with Inkscape (http://www.inkscape.org/) -->

<svg
   width="449"
   height="180"
   viewBox="0 0 118.79791 47.625"
   version="1.1"
   id="svg5"
   sodipodi:docname="mountains_4.svg"
   inkscape:version="1.1 (c4e8f9e, 2021-05-24)"
   xmlns:inkscape="http://www.inkscape.org/namespaces/inkscape"
   xmlns:sodipodi="http://sodipodi.sourceforge.net/DTD/sodipodi-0.dtd"
   xmlns="http://www.w3.org/2000/svg"
   xmlns:svg="http://www.w3.org/2000/svg">
  <sodipodi:namedview
     id="namedview7"
     pagecolor="#505050"
     bordercolor="#ffffff"
     borderopacity="1"
     inkscape:pageshadow="0"
     inkscape:pageopacity="0"
     inkscape:pagecheckerboard="1"
     inkscape:document-units="mm"
     showgrid="false"
     inkscape:snap-global="false"
     fit-margin-top="0"
     fit-margin-left="0"
     fit-margin-right="0"
     fit-margin-bottom="0"
     inkscape:zoom="2.7001726"
     inkscape:cx="120.1775"
     inkscape:cy="148.50903"
     inkscape:window-width="1792"
     inkscape:window-height="982"
     inkscape:window-x="0"
     inkscape:window-y="25"
     inkscape:window-maximized="1"
     inkscape:current-layer="layer1"
     units="px" />
  <defs
     id="defs2" />
  <g
     inkscape:label="Camada 1"
     inkscape:groupmode="layer"
     id="layer1"
     transform="translate(81.400154,-70.749672)">
    <path
       id="path62"
       style="fill:#000000;stroke-width:0.285964"
       d="M 231.57617 74.671875 C 227.65882 74.771806 218.42229 79.118771 214.17188 82.863281 C 193.16677 99.551793 185.95145 105.13859 164.13281 117.30273 C 160.52115 118.49986 155.01564 121.34866 152.54297 123.30078 C 150.44218 125.36601 148.59153 127.5827 146.85352 129.85547 C 129.76558 138.25888 108.99783 148.73902 92.181641 150.77734 C 86.974045 151.40856 81.685106 149.5876 76.460938 150.0625 C 68.504427 150.78583 60.78403 153.19472 52.878906 154.35156 C 48.141696 155.0448 43.293561 154.897 38.587891 155.7793 C 36.4675 156.1769 24.424169 160.70096 22.152344 161.49609 C 20.019485 162.24263 17.893478 163.01984 15.720703 163.64062 C 14.552871 163.97436 13.007263 163.4965 12.148438 164.35547 C 12.059732 164.44429 18.014986 165.7832 18.580078 165.7832 L 42.160156 165.7832 C 53.647607 165.7832 51.004953 166.0816 61.455078 165.07031 C 71.296654 164.11791 82.243645 162.22092 92.181641 163.64062 C 93.898298 163.88592 95.470727 164.79989 97.183594 165.07031 C 100.01675 165.51766 102.8971 165.60428 105.75977 165.7832 C 106.7107 165.84254 107.73256 165.42944 108.61719 165.7832 C 109.11172 165.98087 108.95541 166.83626 109.33203 167.21289 C 109.45415 167.335 111.95695 167.36202 115.04688 167.34961 C 115.04948 167.37948 115.06375 167.41981 115.06445 167.44727 C 115.07277 167.77193 115.24104 168.03145 115.4375 168.02344 C 118.02829 167.91799 125.92717 168.10431 127.24414 168.30273 C 129.04627 168.5741 136.16378 168.89599 149.43945 169.30664 C 153.76948 169.44044 158.53716 169.65761 160.03516 169.78906 C 161.53316 169.92021 172.0898 169.89532 183.49219 169.73242 C 217.80129 169.24267 230.01224 169.27546 244.2832 169.89844 C 263.65496 170.74407 265.94535 170.76562 284.48438 170.27734 C 294.46821 170.01391 304.11168 169.64056 305.91602 169.44531 C 315.41813 168.41721 330.66166 168.22573 351.09961 168.87891 C 368.64138 169.43949 371.17232 169.49132 378.14648 169.43164 C 381.92162 169.39762 391.76161 169.12012 400.01367 168.8125 C 408.26573 168.50485 415.17585 168.14588 415.36914 168.01367 C 415.56243 167.88139 415.71638 167.59823 415.71094 167.38477 C 415.70565 167.17122 415.53842 166.93563 415.33984 166.86133 C 415.05101 166.75323 415.05043 166.72064 415.33594 166.69531 C 416.04297 166.63257 415.62334 165.0369 414.15039 162.18555 C 413.3251 160.58798 412.08965 158.49696 411.4043 157.53711 C 406.58862 150.79262 401.63656 144.61281 397.00391 139.56445 C 390.98935 133.01019 374.49783 117.23216 371.64844 115.30664 C 369.3303 113.74006 366.55627 112.53968 362.07031 111.16016 C 357.18275 109.65713 354.57137 109.29417 349.56445 109.42188 C 328.70635 115.99637 327.34877 111.72825 312.86523 116.83594 C 295.33678 120.5542 277.73138 110.34011 263.91992 93.064453 C 262.07332 91.602543 259.44708 89.516585 258.08203 88.429688 C 252.63506 84.092596 243.39074 78.092539 239.59766 76.431641 C 237.11817 75.345934 233.7891 74.615432 231.57617 74.671875 z "
       transform="matrix(0.26458333,0,0,0.26458333,-81.400154,70.749672)" />
    <path
       style="fill:#ffffff;stroke-width:0.0756613"
       d="m -20.592072,95.843302 c 0.316328,-1.001083 0.367806,-1.259455 0.258882,-1.299307 -0.08181,-0.02992 -0.178844,0.267834 -0.454699,1.39527 -0.09533,0.389631 -0.21128,0.778349 -0.257667,0.863818 -0.07796,0.143647 -0.07452,0.146526 0.04548,0.03803 0.07139,-0.06455 0.254989,-0.513563 0.408004,-0.997814 z"
       id="path226" />
    <path
       style="fill:#ffffff;stroke-width:0.0756613"
       d="m -15.177254,97.69473 c 0.06597,-0.796343 0.03431,-1.378654 -0.07519,-1.380674 -0.02932,-7.48e-4 -0.07715,0.55169 -0.106291,1.227187 -0.0382,0.885537 -0.02957,1.192921 0.03021,1.101797 0.04575,-0.0695 0.113827,-0.496244 0.15128,-0.94831 z"
       id="path224" />
    <path
       style="fill:#ffffff;stroke-width:0.0756613"
       d="m -24.382989,99.059957 c 0.132376,-0.532044 0.291143,-1.063502 0.352819,-1.18102 0.09107,-0.173534 0.09303,-0.207991 0.01051,-0.183364 -0.172446,0.05143 -0.312109,0.414632 -0.524041,1.362773 -0.111987,0.50104 -0.238912,0.969224 -0.282043,1.040404 -0.125755,0.20753 -0.08853,0.25891 0.06289,0.0868 0.0776,-0.0882 0.245772,-0.586444 0.379908,-1.125599 z"
       id="path222" />
    <path
       style="fill:#ffffff;stroke-width:0.0756613"
       d="m -19.135217,101.05888 c -0.02113,-0.0362 0.02064,-0.38191 0.09281,-0.76818 0.08043,-0.430495 0.109764,-0.79074 0.07577,-0.930785 -0.04459,-0.183694 -0.08573,-0.0397 -0.209913,0.734635 -0.149049,0.92935 -0.147525,1.16279 0.007,1.07266 0.04003,-0.0234 0.05548,-0.0721 0.03435,-0.10833 z"
       id="path220" />
    <path
       style="fill:#ffffff;stroke-width:0.0756613"
       d="m -13.695267,102.77245 c 0.106992,-0.61082 0.224229,-1.09115 0.260529,-1.06742 0.0363,0.0237 0.06686,0.009 0.06792,-0.0325 0.003,-0.11734 -0.151366,-0.18961 -0.235076,-0.11007 -0.101973,0.0969 -0.296863,1.11016 -0.373119,1.93993 -0.08853,0.96318 0.04351,0.61863 0.279743,-0.72996 z"
       id="path216" />
    <path
       style="fill:#ffffff;stroke-width:0.0756613"
       d="m 13.697554,105.77009 c -0.02039,-0.0349 0.01732,-0.37186 0.08382,-0.74871 0.201294,-1.14085 0.280773,-2.17741 0.172397,-2.24827 -0.05848,-0.0382 -0.147477,0.005 -0.237383,0.11634 -0.174743,0.21566 -0.201018,0.37873 -0.02835,0.176 0.113794,-0.1336 0.118537,-0.11441 0.06693,0.27107 -0.03054,0.22817 -0.08889,0.88231 -0.129654,1.45364 -0.05636,0.78976 -0.05214,1.03936 0.01759,1.04114 0.05044,0.001 0.07504,-0.0263 0.05465,-0.0612 z"
       id="path212" />
    <path
       style="fill:#ffffff;stroke-width:0.0756613"
       d="m -28.504107,103.85589 c 0.201762,-0.63512 0.412996,-1.1824 0.46941,-1.21617 0.07969,-0.0477 0.07443,-0.0624 -0.02355,-0.0658 -0.135025,-0.005 -0.399276,0.64282 -0.702645,1.7217 -0.08716,0.30998 -0.186066,0.63101 -0.219785,0.71341 -0.04389,0.10725 -0.03702,0.12876 0.02421,0.0757 0.04704,-0.0408 0.250598,-0.59374 0.452361,-1.22886 z"
       id="path210" />
    <path
       style="fill:#ffffff;stroke-width:0.0756613"
       d="m 16.524938,108.58293 c 0.224606,-0.78283 0.212901,-1.07826 -0.02195,-0.55416 -0.195161,0.43552 -0.532784,1.69558 -0.532225,1.98634 4.77e-4,0.26282 0.008,0.25476 0.161479,-0.17446 0.08852,-0.2475 0.265236,-0.81348 0.392692,-1.25772 z"
       id="path208" />
    <path
       style="fill:#ffffff;stroke-width:0.0756613"
       d="m 3.734421,104.71512 c 0.05009,-0.47606 0.04644,-0.65827 -0.01252,-0.62386 -0.109487,0.0639 -0.164979,0.30857 -0.27039,1.19243 -0.111336,0.93353 -0.04915,1.2876 0.104167,0.59307 0.0594,-0.26906 0.139834,-0.7918 0.178754,-1.16164 z"
       id="path206" />
    <path
       style="fill:#ffffff;stroke-width:0.0756613"
       d="m -24.657973,104.9921 c 0.196647,-0.71487 0.34274,-1.31534 0.32465,-1.33437 -0.11316,-0.11909 -0.366182,0.63792 -0.637631,1.90771 -0.07081,0.33121 -0.154766,0.66965 -0.18658,0.7521 -0.04628,0.11993 -0.03787,0.13234 0.04209,0.0621 0.05496,-0.0483 0.260825,-0.67267 0.457473,-1.38754 z"
       id="path204" />
    <path
       style="fill:#ffffff;stroke-width:0.0756613"
       d="m 18.190294,106.84732 c 0.07518,-0.93109 0.02723,-1.46362 -0.134941,-1.49927 -0.09815,-0.0216 -0.110451,0.13116 -0.09415,1.16973 0.02326,1.48143 0.02155,1.45992 0.101345,1.27236 0.03504,-0.0824 0.09253,-0.50663 0.127743,-0.94282 z"
       id="path202" />
    <path
       style="fill:#ffffff;stroke-width:0.0756613"
       d="m -32.652446,105.33343 c 0.0949,-0.62796 0.193124,-1.17323 0.218287,-1.21172 0.02516,-0.0385 -0.0034,-0.0712 -0.06347,-0.0728 -0.120273,-0.003 -0.247833,0.63547 -0.368556,1.84491 -0.104143,1.04333 0.02095,0.71533 0.213736,-0.56043 z"
       id="path200" />
    <path
       style="fill:#ffffff;stroke-width:0.0756613"
       d="m -11.495699,106.79931 c 0.163815,-0.79218 0.25092,-2.05138 0.108506,-1.56858 -0.03656,0.12395 -0.132173,0.68348 -0.21247,1.2434 -0.0803,0.55992 -0.167854,1.10263 -0.194572,1.20601 -0.04261,0.16489 -0.03739,0.17135 0.04246,0.0526 0.05007,-0.0744 0.165305,-0.4945 0.256074,-0.93344 z"
       id="path198" />
    <path
       style="fill:#ffffff;stroke-width:0.0756613"
       d="m -6.7663097,106.29467 c 0.1178079,-0.39246 0.2145511,-0.76464 0.2149878,-0.82707 0.00332,-0.48236 -0.6237944,1.60189 -0.7005946,2.3284 l -0.051864,0.49064 0.161638,-0.63921 c 0.088892,-0.35157 0.2580224,-0.96031 0.3758328,-1.35276 z"
       id="path196" />
    <path
       style="fill:#ffffff;stroke-width:0.0756613"
       d="m -19.45042,108.05251 c 0.0354,-0.33212 0.08982,-0.81607 0.120932,-1.07544 0.03645,-0.30387 0.02867,-0.47231 -0.02187,-0.4736 -0.121131,-0.003 -0.176668,0.32938 -0.231804,1.38767 -0.0546,1.04793 0.02759,1.14784 0.132747,0.16137 z"
       id="path194" />
    <path
       style="fill:#ffffff;stroke-width:0.0756613"
       d="m -0.70558803,109.34378 c 0.03649,-0.32143 0.09651,-0.77948 0.133374,-1.0179 0.06853,-0.44304 0.0024,-0.59883 -0.09915,-0.23373 -0.03102,0.1114 -0.09809,0.59161 -0.149081,1.06711 -0.05099,0.47552 -0.119181,0.90299 -0.151525,0.94993 -0.03235,0.0469 -5.71e-4,0.0254 0.07062,-0.0478 0.08464,-0.0871 0.152381,-0.33539 0.195764,-0.71759 z"
       id="path192" />
    <path
       style="fill:#ffffff;stroke-width:0.0756613"
       d="m 5.085682,110.48494 c 0.100263,-0.2426 0.312903,-1.61967 0.325329,-2.10687 0.0093,-0.365 -0.0128,-0.49071 -0.08263,-0.46958 -0.06599,0.02 -0.131847,0.40541 -0.213919,1.25194 -0.06522,0.67269 -0.139056,1.27262 -0.164077,1.33317 -0.02503,0.0606 -0.01619,0.11086 0.01966,0.11177 0.03584,9.2e-4 0.08787,-0.0533 0.115632,-0.12043 z"
       id="path190" />
    <path
       style="fill:#ffffff;stroke-width:0.0756613"
       d="m 11.665435,110.90025 c 0.130611,-0.53061 0.388479,-1.84599 0.39257,-2.00246 0.01658,-0.61633 -0.354342,0.62794 -0.465367,1.5631 -0.03519,0.29635 -0.09313,0.53808 -0.128754,0.53717 -0.03562,-9.1e-4 -0.06562,0.0313 -0.06664,0.0716 -0.0035,0.1382 0.228569,-0.008 0.268195,-0.16942 z"
       id="path188" />
    <path
       style="fill:#ffffff;stroke-width:0.0756613"
       d="m 21.415082,111.31314 c 0.101949,-0.89612 0.140114,-1.63633 0.08263,-1.6028 -0.03175,0.0185 -0.08817,0.39905 -0.125404,0.84561 -0.03722,0.44657 -0.08469,0.92296 -0.105488,1.05865 -0.0208,0.13569 -0.0079,0.22932 0.02844,0.20806 0.03643,-0.0212 0.09036,-0.25054 0.119818,-0.50952 z"
       id="path186" />
    <path
       style="fill:#ffffff;stroke-width:0.0756613"
       d="m -30.083573,109.79342 c -0.01967,-0.49482 -0.06565,-0.84066 -0.111921,-0.84184 -0.053,-0.001 -0.06523,0.23826 -0.03763,0.73698 0.0225,0.40644 0.03742,0.81894 0.03317,0.91668 -0.0052,0.12026 0.01772,0.15351 0.07102,0.10286 0.05074,-0.0482 0.06688,-0.37352 0.04537,-0.91468 z"
       id="path184" />
    <path
       style="fill:#ffffff;stroke-width:0.0756613"
       d="m -37.830758,108.94605 c 0.01868,-0.51309 0.003,-0.72029 -0.04869,-0.64458 -0.04218,0.0618 -0.08477,0.63529 -0.09538,1.28424 -0.01569,0.96025 -0.0069,1.077 0.04869,0.64457 0.03732,-0.29044 0.08023,-0.86834 0.09538,-1.28423 z"
       id="path182" />
    <path
       style="fill:#ffffff;stroke-width:0.0756613"
       d="m -4.500416,111.97215 c 0.205052,-0.21761 0.716427,-2.09936 0.721293,-2.65419 l 0.0043,-0.4872 -0.108874,0.52703 c -0.23251,1.12553 -0.616676,2.45305 -0.750545,2.5936 -0.07661,0.0804 -0.105254,0.14711 -0.06365,0.14817 0.0416,0.001 0.130479,-0.0563 0.197511,-0.12741 z"
       id="path178" />
    <path
       style="fill:#ffffff;stroke-width:0.0756613"
       d="m 19.33342,112.65574 c 0.02579,-0.11382 0.0911,-0.48904 0.145105,-0.83384 0.05401,-0.3448 0.12112,-0.68367 0.149132,-0.75306 0.04411,-0.10925 0.03375,-0.11289 -0.07728,-0.0272 -0.144684,0.11164 -0.19329,0.30609 -0.29895,1.19574 -0.07032,0.59216 -0.01797,0.85934 0.08199,0.41837 z"
       id="path176" />
    <path
       style="fill:#ffffff;stroke-width:0.0756613"
       d="m -21.916505,111.28195 c 0.01449,-0.47834 -0.0066,-0.92165 -0.04693,-0.98511 -0.05042,-0.0794 -0.07569,0.23152 -0.08102,0.99655 -0.009,1.2865 0.08891,1.27775 0.127958,-0.0114 z"
       id="path174" />
    <path
       style="fill:#ffffff;stroke-width:0.0756613"
       d="m -25.810575,111.06256 c 0.227737,-1.03589 0.309754,-2.02048 0.175615,-2.10819 -0.0456,-0.0298 -0.07879,0.0922 -0.08567,0.31501 -0.01177,0.3817 -0.392865,2.66663 -0.487811,2.92486 -0.0522,0.14197 -0.04902,0.1429 0.05964,0.0173 0.06313,-0.0729 0.21533,-0.59 0.33823,-1.14902 z"
       id="path172" />
    <path
       style="fill:#ffffff;stroke-width:0.0756613"
       d="m -11.828943,110.6348 c 0.003,-0.0738 -0.02116,-0.0853 -0.07382,-0.0353 -0.122936,0.11682 -0.493003,1.51589 -0.492545,1.86211 3.2e-4,0.24203 0.06336,0.0845 0.281157,-0.70263 0.154409,-0.55803 0.282752,-1.06394 0.285206,-1.12423 z"
       id="path170" />
    <path
       style="fill:#ffffff;stroke-width:0.0756613"
       d="m -17.624037,112.38422 c 0.0019,-0.0734 0.09258,-0.40592 0.201574,-0.73891 0.217978,-0.66596 0.373557,-1.53628 0.253016,-1.41541 -0.04048,0.0406 -0.173671,0.47996 -0.295969,0.97637 -0.330541,1.34166 -0.344363,1.4178 -0.24707,1.36104 0.04677,-0.0273 0.08658,-0.10967 0.08845,-0.18309 z"
       id="path168" />
    <path
       style="fill:#ffffff;stroke-width:0.0756613"
       d="m -34.707133,111.6289 c 0.109241,-0.63999 0.161754,-2.61408 0.0671,-2.522 -0.03962,0.0385 -0.100588,0.69942 -0.135492,1.46864 -0.0349,0.76921 -0.09419,1.4659 -0.131756,1.5482 -0.05232,0.11463 -0.04652,0.13061 0.02481,0.0683 0.05121,-0.0447 0.130115,-0.29815 0.175354,-0.56318 z"
       id="path166" />
    <path
       style="fill:#ffffff;stroke-width:0.0756613"
       d="m -41.070858,111.7707 c -0.05569,-0.137 -0.07057,0.0397 -0.0578,0.68632 0.02919,1.47816 0.03404,1.50623 0.08415,0.48748 0.02861,-0.58174 0.01776,-1.0653 -0.02634,-1.1738 z"
       id="path164" />
  </g>
</svg>
