<?xml version="1.0" encoding="UTF-8" standalone="no"?>
<svg
   viewBox="0 0 105.833 52.917"
   version="1.1"
   id="svg5"
   sodipodi:docname="mountains.svg"
   inkscape:version="1.1 (c68e22c387, 2021-05-23)"
   xmlns:inkscape="http://www.inkscape.org/namespaces/inkscape"
   xmlns:sodipodi="http://sodipodi.sourceforge.net/DTD/sodipodi-0.dtd"
   xmlns="http://www.w3.org/2000/svg"
   xmlns:svg="http://www.w3.org/2000/svg">
  <defs
     id="defs9" />
  <sodipodi:namedview
     id="namedview7"
     pagecolor="#505050"
     bordercolor="#eeeeee"
     borderopacity="1"
     inkscape:pageshadow="0"
     inkscape:pageopacity="0"
     inkscape:pagecheckerboard="0"
     showgrid="false"
     inkscape:zoom="28.459663"
     inkscape:cx="92.569612"
     inkscape:cy="37.667347"
     inkscape:window-width="3840"
     inkscape:window-height="2066"
     inkscape:window-x="-11"
     inkscape:window-y="-11"
     inkscape:window-maximized="1"
     inkscape:current-layer="svg5" />
  <path
     d="m 0.03803667,32.594718 1.81010383,-0.139794 3.7070686,-1.226964 3.0980427,-1.156565 1.1481633,-0.351999 2.8194879,-1.576951 2.192492,-1.191765 2.889378,-0.736179 1.078273,-0.105599 1.097245,0.105599 0.922523,0.349987 4.246208,1.875647 6.717252,2.278936 3.672124,1.087172 3.341652,0.929274 4.072485,0.754282 2.557906,-0.0181 1.044328,-0.385185 1.236024,-0.666785 1.670328,-0.43849 3.498402,-0.560179 3.358626,-0.508889 1.269966,0.211198 2.540934,0.507884 1.653355,-0.315793 3.167934,-0.911173 3.845844,-1.12237 4.908148,-1.349661 3.14996,-0.36809 0.939498,0.174994 2.454071,0.964474 2.384187,1.208862 1.913938,0.806579 1.601434,0.193096 1.618415,-0.0704 3.358622,-0.718077 2.123604,-0.403289 2.279352,0.157897 1.079276,0.613482 1.236021,0.823675 1.966852,0.613483 3.27177,0.578283 2.08766,0.0181 0.73083,0.0704 -0.0519,20.159433 -105.74280974,0.105599 z"
     id="path2134"
     fill="#ffffff"
     style="stroke-width:0.999998" />
  <path
     id="path857"
     style="stroke-width:0.999998;-inkscape-stroke:none"
     d="m 91.739322,36.650833 c -1.566526,0.0079 -3.13072,0.09937 -4.692899,0.210557 -4.317708,0.285799 -8.640673,0.541827 -12.970105,0.404166 -2.088964,-0.08266 -4.178249,-0.196012 -6.268582,-0.275457 -7.510987,-0.306011 -15.041641,-0.449451 -22.548007,0.04369 -2.334043,0.152306 -4.667628,0.373581 -6.986079,0.664793 -1.026287,0.111226 -2.095013,0.0955 -3.132319,0.0416 -1.741048,-0.09653 -3.481543,-0.303542 -5.22973,-0.358349 -4.016083,-0.150605 -8.043654,0.104748 -12.054402,-0.08155 -2.055543,-0.0878 -4.11024,-0.425866 -6.174872,-0.281108 -0.645883,0.05084 -1.270997,0.15075 -1.9182988,0.184756 -3.1178113,0.211759 -6.2544866,-0.224094 -9.38131679,-0.09097 -0.16584532,0.0075 -0.33168459,0.01499 -0.49754597,0.02205 0.009516,0.205187 0.01910111,0.41037 0.02819437,0.615576 2.45226739,-0.141605 4.90346019,0.0862 7.35499059,0.125921 1.3730093,0.02357 2.7481286,-0.03539 4.1105586,-0.212115 0.93471,-0.09712 1.9096,-0.06991 2.853447,-0.0113 1.409525,0.09584 2.819139,0.248761 4.234878,0.288037 3.936919,0.141654 7.884849,-0.100927 11.816543,0.07296 2.505864,0.100624 5.004714,0.510591 7.51685,0.344258 0.837257,-0.0638 1.663364,-0.195277 2.498993,-0.276954 8.292782,-0.89661 16.656558,-0.860322 24.988354,-0.569924 2.806911,0.09726 5.610884,0.232627 8.415675,0.359517 4.969891,0.185317 9.937291,-0.166645 14.893787,-0.494552 2.451201,-0.156771 4.92085,-0.132353 7.378653,-0.01998 3.199753,0.147675 6.409051,0.386479 9.618421,0.385954 0.12471,4.2e-4 0.24942,8.58e-4 0.37413,0.0014 0,-0.205307 0,-0.410613 0,-0.615919 -2.8905,0.0092 -5.77024,-0.168374 -8.654925,-0.323061 -1.856461,-0.09756 -3.714958,-0.169814 -5.574393,-0.153934 z" />
  <path
     id="path859"
     style="stroke-width:0.999998;-inkscape-stroke:none"
     d="m 18.233377,25.87069 c -3.199542,0.184664 -5.857562,2.145004 -8.595265,3.590299 -1.7174549,0.645928 -3.4729434,1.207639 -5.2025898,1.830071 -1.4683432,0.465738 -2.9611633,0.982654 -4.51854185,0.981202 -0.2513255,0.767822 0.42943311,0.636079 0.95865709,0.563074 C 3.8917853,32.381732 6.6843028,31.0494 9.5854961,30.162949 c 2.6783979,-1.28916 5.1338489,-3.280342 8.1800159,-3.600251 1.170798,-0.241521 2.407093,-0.07614 3.425874,0.574427 5.526203,2.39438 11.265258,4.31318 17.107539,5.763705 2.366465,0.495518 4.798993,1.137171 7.230326,0.798111 1.371236,-0.319475 2.507549,-1.306587 3.945155,-1.418821 2.402172,-0.436314 4.821927,-0.749895 7.254019,-0.956602 1.485721,0.119388 3.034742,0.896418 4.555679,0.346813 5.133156,-1.201945 10.063866,-3.404844 15.363921,-3.797743 2.276456,0.321363 4.209966,1.717657 6.302581,2.578908 2.129214,1.086642 4.602094,0.818702 6.837766,0.261836 1.831765,-0.36582 3.775803,-1.036384 5.62815,-0.452488 1.075011,0.552831 2.003248,1.407677 3.215551,1.673287 2.365647,0.720599 4.853177,0.966866 7.318377,0.950985 0.2463,-0.845426 -0.57799,-0.592933 -1.12904,-0.622675 -2.48008,-0.122835 -5.035057,-0.382575 -7.326183,-1.441778 -1.041367,-0.71022 -2.151317,-1.520915 -3.482709,-1.406421 -3.247463,-0.01153 -6.399916,1.837634 -9.651944,0.912092 -2.557421,-0.814621 -4.767111,-2.581864 -7.435767,-3.052109 -1.895375,-0.01579 -3.765889,0.463174 -5.604498,0.886809 -3.703902,0.922469 -7.285074,2.327479 -11.02934,3.077648 -1.576977,0.07363 -3.08295,-0.82972 -4.67248,-0.4468 -2.617269,0.357708 -5.290603,0.523157 -7.829534,1.286673 -1.164174,0.51017 -2.304305,1.261795 -3.63685,1.104928 C 40.482593,33.012478 36.941718,31.9432 33.419384,30.931758 28.922101,29.55328 24.499573,27.996807 20.230305,26.025755 c -0.643116,-0.206223 -1.3309,-0.18951 -1.996928,-0.155065 z" />
</svg>
