<?xml version="1.0" encoding="UTF-8" standalone="no"?>
<!-- Created with Inkscape (http://www.inkscape.org/) -->

<svg
   width="607"
   height="180"
   viewBox="0 0 160.60208 47.625"
   version="1.1"
   id="svg5"
   sodipodi:docname="mountains_3.svg"
   inkscape:version="1.1 (c4e8f9e, 2021-05-24)"
   xmlns:inkscape="http://www.inkscape.org/namespaces/inkscape"
   xmlns:sodipodi="http://sodipodi.sourceforge.net/DTD/sodipodi-0.dtd"
   xmlns="http://www.w3.org/2000/svg"
   xmlns:svg="http://www.w3.org/2000/svg">
  <sodipodi:namedview
     id="namedview7"
     pagecolor="#505050"
     bordercolor="#ffffff"
     borderopacity="1"
     inkscape:pageshadow="0"
     inkscape:pageopacity="0"
     inkscape:pagecheckerboard="1"
     inkscape:document-units="mm"
     showgrid="false"
     inkscape:snap-global="false"
     fit-margin-top="0"
     fit-margin-left="0"
     fit-margin-right="0"
     fit-margin-bottom="0"
     inkscape:zoom="1.0837283"
     inkscape:cx="334.49343"
     inkscape:cy="198.38921"
     inkscape:window-width="1792"
     inkscape:window-height="982"
     inkscape:window-x="0"
     inkscape:window-y="25"
     inkscape:window-maximized="1"
     inkscape:current-layer="layer1"
     units="px" />
  <defs
     id="defs2" />
  <g
     inkscape:label="Camada 1"
     inkscape:groupmode="layer"
     id="layer1"
     transform="translate(81.400154,-70.749672)">
    <g
       id="g1024"
       transform="matrix(0.28596444,0,0,0.28596444,4.705546,25.154746)">
      <path
         style="fill:#000000;stroke-width:0.264583"
         d="m -11.015314,318.65744 c -7.639843,-0.09 -14.039452,-0.25998 -14.221353,-0.3777 -0.181901,-0.11774 -0.33073,-0.3757 -0.33073,-0.57327 0,-0.19756 0.148829,-0.41926 0.33073,-0.49265 0.264583,-0.10676 0.264583,-0.13764 0,-0.15436 -0.655437,-0.0414 -0.30542,-1.52609 0.9897,-4.19814 0.725649,-1.49712 1.819484,-3.46165 2.430743,-4.36563 4.295058,-6.3518 8.728006,-12.18345 12.8937932,-16.96212 5.408427,-6.20413 20.2906568,-21.18659 22.8807188,-23.03481 2.10716,-1.50365 4.644112,-2.6798 8.760771,-4.06159 4.485198,-1.50551 6.891512,-1.90275 11.525581,-1.90275 6.026903,0 7.28818,0.39296 12.627485,3.93414 1.78804,1.18586 4.64554,2.96942 6.349999,3.96341 1.704459,0.99401 4.230111,2.55256 5.612559,3.46347 2.681348,1.76673 9.718301,5.28881 13.59778,6.80583 l 2.352993,0.92011 1.880341,-0.83688 c 2.434129,-1.08333 5.784815,-3.33742 7.348285,-4.94339 0.679032,-0.69747 2.617565,-2.99456 4.307845,-5.10461 4.819036,-6.0158 19.075623,-20.61821 24.752333,-25.35269 1.67349,-1.39573 4.05474,-3.38659 5.29167,-4.4241 4.93575,-4.14001 13.34413,-9.90814 16.81329,-11.53384 2.26774,-1.0627 5.32889,-1.81645 7.37703,-1.81645 3.62564,0 12.27125,3.80315 16.29093,7.16629 2.71137,2.26854 8.95662,9.76974 11.13099,13.36956 2.92502,4.84248 7.43956,7.75591 15.56531,10.04496 1.36779,0.38531 4.64021,1.59501 7.27202,2.68824 4.50572,1.87158 6.36955,2.52055 13.12751,4.57081 3.36878,1.02203 8.52733,3.5274 10.86043,5.27463 2.33926,1.75188 6.03459,5.63792 7.46218,7.8473 0.6477,1.00243 1.86192,3.0679 2.69827,4.58994 0.83632,1.52204 2.04049,3.42911 2.67592,4.23788 1.67846,2.13641 5.62644,5.68952 9.11566,8.20394 1.67121,1.2043 3.78428,2.85882 4.69569,3.6767 0.91141,0.81788 2.51336,2.08235 3.55986,2.80996 1.04654,0.7276 2.41734,1.97776 3.04626,2.77812 0.62891,0.80037 1.45081,1.78805 1.82647,2.1949 0.47231,0.5115 0.64471,0.93999 0.55885,1.38907 -0.0839,0.4387 -0.004,0.64936 0.24538,0.64936 0.28331,0 0.30559,0.11936 0.0956,0.51179 -0.15065,0.28146 -0.2739,0.75771 -0.2739,1.05833 0,0.30059 -0.14883,0.5443 -0.33073,0.54152 -2.39879,-0.0364 -9.70063,0.32362 -10.91406,0.53814 -1.66044,0.29355 -8.23582,0.75925 -20.50521,1.45227 -4.00182,0.22603 -8.40713,0.53922 -9.78958,0.69596 -1.38245,0.15674 -11.14557,0.3819 -21.69583,0.50033 -31.7451,0.35639 -43.039,0.67543 -56.22396,1.58829 -17.89758,1.23915 -20.01512,1.31313 -37.173953,1.29887 -9.240572,-0.008 -18.170259,-0.12687 -19.843749,-0.26488 -8.813053,-0.72678 -22.915886,-0.54377 -41.804164,0.54253 -16.2117,0.93234 -18.551093,1.03987 -25.0031239,1.14922 -3.4924999,0.0592 -12.6007807,0.034 -20.2406241,-0.056 z"
         id="path62" />
      <path
         style="fill:#ffffff;stroke-width:0.264583"
         d="m 133.8431,247.8724 c 1.01656,-3.52779 1.17348,-4.4356 0.78915,-4.5652 -0.28866,-0.0973 -0.60132,0.95224 -1.46513,4.91813 -0.29851,1.37057 -0.66919,2.73979 -0.82373,3.04271 -0.25971,0.50911 -0.24744,0.51887 0.16238,0.1289 0.24381,-0.23201 0.8456,-1.81805 1.33733,-3.52454 z"
         id="path226" />
      <path
         style="fill:#ffffff;stroke-width:0.264583"
         d="m 152.93731,253.86182 c 0.15963,-2.78974 -0.003,-4.82256 -0.38597,-4.81986 -0.10255,0 -0.22051,1.93548 -0.26215,4.29948 -0.0546,3.09907 0.003,4.17285 0.20383,3.84897 0.15375,-0.24704 0.35367,-1.74492 0.44429,-3.32859 z"
         id="path224" />
      <path
         style="fill:#ffffff;stroke-width:0.264583"
         d="m 120.87762,259.4552 c 0.41532,-1.87172 0.92295,-3.74375 1.12808,-4.16007 0.30287,-0.61476 0.30668,-0.73539 0.0204,-0.64194 -0.59825,0.19516 -1.0541,1.4773 -1.71043,4.81071 -0.34681,1.76152 -0.74877,3.40953 -0.8932,3.6622 -0.42111,0.73671 -0.28639,0.913 0.22759,0.29785 0.26342,-0.31528 0.80688,-2.07201 1.22772,-3.96875 z"
         id="path222" />
      <path
         style="fill:#ffffff;stroke-width:0.264583"
         d="m 139.40102,265.97514 c -0.0771,-0.12475 0.0381,-1.33692 0.25596,-2.6937 0.2428,-1.51209 0.31321,-2.77405 0.18187,-3.26059 -0.17224,-0.63818 -0.30324,-0.13113 -0.66831,2.58686 -0.43818,3.26212 -0.41204,4.07802 0.12007,3.74917 0.13785,-0.0852 0.18753,-0.25697 0.11041,-0.38174 z"
         id="path220" />
      <path
         style="fill:#ffffff;stroke-width:0.264583"
         d="m 162.83736,273.95153 c -0.35528,-0.66387 -0.37754,-6.19548 -0.0299,-7.45014 0.22971,-0.82925 0.21722,-0.87302 -0.12145,-0.42555 -0.53535,0.70731 -0.74549,2.46703 -0.61319,5.1354 0.10213,2.06036 0.56134,3.76402 0.91831,3.40701 0.0728,-0.0728 0.004,-0.37279 -0.15372,-0.66672 z"
         id="path218" />
      <path
         style="fill:#ffffff;stroke-width:0.264583"
         d="m 107.7908,270.93785 c 0.31956,-2.14482 0.68657,-3.83442 0.81558,-3.75471 0.12901,0.0797 0.23455,0.0259 0.23455,-0.11961 0,-0.41045 -0.54605,-0.64934 -0.83159,-0.36381 -0.34784,0.34785 -0.93879,3.90737 -1.13138,6.81488 -0.2236,3.37497 0.20727,2.15873 0.91284,-2.57675 z"
         id="path216" />
      <path
         style="fill:#ffffff;stroke-width:0.264583"
         d="m 126.00313,273.91147 c 0,-0.80036 -0.0929,-1.68904 -0.20463,-1.97482 -0.20196,-0.51657 -0.4177,1.65282 -0.68313,6.86961 l -0.12118,2.38125 0.5052,-2.91041 c 0.27786,-1.60073 0.50453,-3.56526 0.50374,-4.36563 z"
         id="path214" />
      <path
         style="fill:#ffffff;stroke-width:0.264583"
         d="m 181.23275,281.89472 c -0.0744,-0.12036 0.0274,-1.30151 0.22627,-2.62483 0.60196,-4.00611 0.78738,-7.63682 0.4022,-7.87487 -0.20783,-0.12845 -0.51507,0.032 -0.81947,0.42788 -0.59164,0.76947 -0.66895,1.34187 -0.0834,0.61778 0.38589,-0.4772 0.40418,-0.41053 0.25815,0.94163 -0.0864,0.80036 -0.23206,3.09231 -0.32363,5.09322 -0.12661,2.76585 -0.0896,3.63803 0.15433,3.63803 0.17645,0 0.25998,-0.0985 0.1856,-0.21884 z"
         id="path212" />
      <path
         style="fill:#ffffff;stroke-width:0.264583"
         d="m 33.533448,278.96594 c 0.648689,-2.23827 1.338325,-4.17028 1.532524,-4.29337 0.27432,-0.17391 0.254643,-0.22473 -0.08821,-0.22788 -0.472427,-0.004 -1.338472,2.28277 -2.302791,6.08137 -0.277066,1.0914 -0.594188,2.2225 -0.704715,2.51354 -0.14388,0.37885 -0.117922,0.45344 0.0914,0.26252 0.160795,-0.14666 0.8231,-2.09794 1.471793,-4.33618 z"
         id="path210" />
      <path
         style="fill:#ffffff;stroke-width:0.264583"
         d="m 195.34359,278.87244 c 0.71538,-2.75664 0.64812,-3.78836 -0.12613,-1.93527 -0.64341,1.5399 -1.71132,5.97493 -1.68344,6.99132 0.0251,0.91872 0.0506,0.88988 0.54894,-0.62428 0.28739,-0.87312 0.85468,-2.86742 1.26063,-4.43177 z"
         id="path208" />
      <path
         style="fill:#ffffff;stroke-width:0.264583"
         d="m 146.30955,279.09509 c 0.13267,-1.66865 0.10364,-2.30529 -0.0994,-2.17977 -0.37705,0.23302 -0.54922,1.09341 -0.83891,4.19261 -0.30597,3.27337 -0.057,4.50559 0.41703,2.06399 0.18365,-0.94589 0.41823,-2.78045 0.52131,-4.07683 z"
         id="path206" />
      <path
         style="fill:#ffffff;stroke-width:0.264583"
         d="m 47.080076,282.59494 c 0.6237,-2.51656 1.080871,-4.6287 1.015937,-4.69363 -0.406204,-0.40621 -1.223222,2.26269 -2.058932,6.72582 -0.217987,1.16416 -0.481322,2.35479 -0.585187,2.64583 -0.151093,0.42339 -0.120573,0.46604 0.15267,0.21336 0.18783,-0.17367 0.851813,-2.37479 1.475512,-4.89138 z"
         id="path204" />
      <path
         style="fill:#ffffff;stroke-width:0.264583"
         d="m 206.28384,285.024 c 0.17979,-3.26162 -0.0353,-5.11894 -0.60541,-5.22912 -0.34505,-0.0667 -0.37442,0.46837 -0.22482,4.09755 0.21339,5.17671 0.2055,5.10164 0.46773,4.43886 0.11515,-0.29104 0.27829,-1.77932 0.3625,-3.30729 z"
         id="path202" />
      <path
         style="fill:#ffffff;stroke-width:0.264583"
         d="m 19.163422,284.501 c 0.275743,-2.20369 0.570513,-4.11861 0.655045,-4.2554 0.08453,-0.13676 -0.01823,-0.24868 -0.228354,-0.24868 -0.420725,0 -0.809715,2.24356 -1.1239,6.48229 -0.271034,3.65654 0.13702,2.49878 0.697209,-1.97821 z"
         id="path200" />
      <path
         style="fill:#ffffff;stroke-width:0.264583"
         d="m 93.253911,287.739 c 0.502031,-2.78392 0.694256,-7.1936 0.239456,-5.49312 -0.11676,0.43656 -0.401111,2.40109 -0.631888,4.36562 -0.23078,1.96453 -0.488471,3.86953 -0.572651,4.23333 -0.134252,0.58021 -0.115443,0.60233 0.15313,0.18013 0.168402,-0.26474 0.533781,-1.74342 0.811953,-3.28596 z"
         id="path198" />
      <path
         style="fill:#ffffff;stroke-width:0.264583"
         d="m 109.74192,285.55317 c 0.37684,-1.38245 0.68185,-2.69214 0.67781,-2.91042 -0.0314,-1.68653 -2.03783,5.65552 -2.24153,8.20208 l -0.13756,1.7198 0.50806,-2.24896 c 0.2794,-1.23693 0.81637,-3.38005 1.19322,-4.7625 z"
         id="path196" />
      <path
         style="fill:#ffffff;stroke-width:0.264583"
         d="m 65.557528,292.82921 c 0.09415,-1.16417 0.241234,-2.86081 0.326863,-3.77031 0.100315,-1.06551 0.0581,-1.65365 -0.118697,-1.65365 -0.423725,0 -0.588227,1.16721 -0.68661,4.87169 -0.09742,3.66821 0.198806,4.01014 0.478444,0.55227 z"
         id="path194" />
      <path
         style="fill:#ffffff;stroke-width:0.264583"
         d="m 131.20087,295.67187 c 0.0989,-1.12692 0.26786,-2.73352 0.37549,-3.57026 0.20005,-1.55491 -0.0449,-2.0936 -0.36745,-0.80825 -0.0985,0.39221 -0.29014,2.0769 -0.42601,3.74372 -0.13586,1.66685 -0.33612,3.16727 -0.445,3.33425 -0.1089,0.16701 2.7e-4,0.089 0.2426,-0.17346 0.28813,-0.31202 0.50279,-1.18602 0.62037,-2.526 z"
         id="path192" />
      <path
         style="fill:#ffffff;stroke-width:0.264583"
         d="m 151.54775,299.14476 c 0.32887,-0.85701 0.94943,-5.68994 0.94943,-7.3942 0,-1.2768 -0.0885,-1.71429 -0.33073,-1.6342 -0.22889,0.0757 -0.42476,1.42901 -0.63619,4.3956 -0.16801,2.35741 -0.37264,4.46124 -0.45471,4.67516 -0.0821,0.21394 -0.0467,0.38896 0.0787,0.38896 0.12538,0 0.30244,-0.19409 0.39349,-0.43132 z"
         id="path190" />
      <path
         style="fill:#ffffff;stroke-width:0.264583"
         d="m 174.58629,300.00992 c 0.40928,-1.86655 1.19345,-6.48785 1.1938,-7.03519 0.003,-2.15604 -1.18272,2.22676 -1.48746,5.50577 -0.0966,1.03912 -0.27758,1.88933 -0.4022,1.88933 -0.12462,0 -0.22659,0.11534 -0.22659,0.25628 0,0.48342 0.79828,-0.0498 0.92245,-0.61619 z"
         id="path188" />
      <path
         style="fill:#ffffff;stroke-width:0.264583"
         d="m 219.80511,300.30091 c 0.27649,-3.14177 0.34391,-5.73278 0.14595,-5.61044 -0.10933,0.0676 -0.27266,1.40285 -0.36299,2.96725 -0.0903,1.56443 -0.21375,3.23403 -0.27437,3.71023 -0.0606,0.4762 -0.007,0.80237 0.11798,0.72482 0.12546,-0.0775 0.29353,-0.88389 0.37343,-1.79186 z"
         id="path186" />
      <path
         style="fill:#ffffff;stroke-width:0.264583"
         d="m 28.541364,299.86318 c -0.112885,-1.72802 -0.304459,-2.93293 -0.466315,-2.93293 -0.185402,0 -0.206807,0.83873 -0.06584,2.57969 0.114882,1.41883 0.203837,2.85954 0.197678,3.20159 -0.0076,0.42085 0.07564,0.53504 0.257437,0.35324 0.173095,-0.17309 0.200496,-1.31172 0.07704,-3.20159 z"
         id="path184" />
      <path
         style="fill:#ffffff;stroke-width:0.264583"
         d="m 1.3831874,297.59171 c 0.019553,-1.79533 -0.053634,-2.51825 -0.2276686,-2.24896 -0.1419357,0.21963 -0.23969662,2.2284 -0.21890302,4.49792 0.0307737,3.35827 0.0720063,3.7656 0.22766862,2.24896 0.1045501,-1.01865 0.2030545,-3.04271 0.218903,-4.49792 z"
         id="path182" />
      <path
         style="fill:#ffffff;stroke-width:0.264583"
         d="m 189.29969,303.86464 c 0.34128,-1.03413 0.18071,-3.409 -0.28999,-4.2885 -0.49035,-0.91623 -0.57142,-0.46548 -0.26326,1.46354 0.33145,2.07476 0.16116,3.19294 -0.5543,3.63974 -0.73112,0.45662 -0.62121,0.75893 0.14843,0.40825 0.38203,-0.17407 0.78071,-0.68241 0.95912,-1.22303 z"
         id="path180" />
      <path
         style="fill:#ffffff;stroke-width:0.264583"
         d="m 118.16926,305.19848 c 0.69742,-0.77899 2.3173,-7.4028 2.28484,-9.34283 l -0.0285,-1.70352 -0.33361,1.85208 c -0.71245,3.95536 -1.93705,8.63039 -2.3925,9.13363 -0.26064,0.28802 -0.35483,0.52366 -0.20931,0.52366 0.14552,0 0.45111,-0.20836 0.6791,-0.46302 z"
         id="path178" />
      <path
         style="fill:#ffffff;stroke-width:0.264583"
         d="m 201.54857,305.46306 c 0.08,-0.40018 0.27485,-1.71772 0.43291,-2.92788 0.15806,-1.21015 0.36245,-2.40077 0.45419,-2.64583 0.14446,-0.38584 0.10792,-0.39767 -0.27258,-0.0882 -0.49583,0.40317 -0.64841,1.08725 -0.93845,4.20674 -0.19304,2.07632 0.0138,3.00567 0.32393,1.45521 z"
         id="path176" />
      <path
         style="fill:#ffffff;stroke-width:0.264583"
         d="m 57.224534,304.33858 c 0.008,-1.67349 -0.105359,-3.2213 -0.251909,-3.43958 -0.183322,-0.27305 -0.24397,0.81611 -0.194387,3.49099 0.08338,4.49813 0.424738,4.45881 0.446296,-0.0514 z"
         id="path174" />
      <path
         style="fill:#ffffff;stroke-width:0.264583"
         d="m 43.592077,303.91885 c 0.703757,-3.64159 0.902684,-7.09083 0.42594,-7.38547 -0.162066,-0.10018 -0.267224,0.32948 -0.271399,1.10886 -0.0071,1.33538 -1.13561,9.35702 -1.444498,10.26822 -0.169826,0.50096 -0.158636,0.50392 0.210023,0.0553 0.214175,-0.26061 0.700146,-2.08174 1.079934,-4.04693 z"
         id="path172" />
      <path
         style="fill:#ffffff;stroke-width:0.264583"
         d="m 92.430943,301.17681 c 0.0039,-0.2581 -0.08156,-0.29625 -0.261196,-0.11662 -0.419344,0.41933 -1.588278,5.34318 -1.555808,6.55346 0.0227,0.84606 0.229015,0.28972 0.92022,-2.48132 0.49003,-1.96453 0.893583,-3.74451 0.896784,-3.95552 z"
         id="path170" />
      <path
         style="fill:#ffffff;stroke-width:0.264583"
         d="m 72.328432,307.80918 c 0,-0.25681 0.287451,-1.4273 0.638778,-2.60107 0.70263,-2.34749 1.1689,-5.40385 0.758291,-4.97057 -0.137906,0.14552 -0.564325,1.69334 -0.947592,3.43959 -1.035878,4.71966 -1.077407,4.98705 -0.742352,4.77998 0.161081,-0.0996 0.292875,-0.39113 0.292875,-0.64793 z"
         id="path168" />
      <path
         style="fill:#ffffff;stroke-width:0.264583"
         d="m 12.541976,306.69192 c 0.324818,-2.24703 0.332375,-9.15273 0.0097,-8.8224 -0.135057,0.13825 -0.289272,2.45401 -0.342704,5.14615 -0.05343,2.69213 -0.198578,5.13291 -0.322551,5.42396 -0.172688,0.40539 -0.150982,0.46074 0.09281,0.23667 0.175019,-0.1609 0.428275,-1.05387 0.562789,-1.98438 z"
         id="path166" />
      <path
         style="fill:#ffffff;stroke-width:0.264583"
         d="m -9.6917015,307.75502 c -0.2069015,-0.47395 -0.2431759,0.14512 -0.1408747,2.4044 0.2338599,5.16477 0.2532962,5.26245 0.3376268,1.69664 0.048159,-2.03621 -0.032898,-3.72568 -0.1967521,-4.10104 z"
         id="path164" />
    </g>
  </g>
</svg>
