<svg viewBox="0 0 118.798 47.625" version="1.1" id="svg5" xmlns="http://www.w3.org/2000/svg">
    <g id="layer1" transform="translate(81.4 -70.75)">
        <path id="path62" d="M231.576 74.672c-3.917.1-13.154 4.447-17.404 8.191-21.005 16.689-28.22 22.276-50.04 34.44-22.858 13.47-26.762 20.998-52.572 24.57-5.207.632-29.875 7.715-35.1 8.19-7.956.723-15.676 3.132-23.581 4.289-4.737.693-9.585.545-14.291 1.427-2.12.398-14.164 4.922-16.436 5.717-2.133.747-4.259 1.524-6.431 2.145-1.168.333-2.714-.144-3.573.714-7.388 3.035 1.678 3.228 2.242 3.261 4.944.295 19.91-1.833 27.77-1.833 11.488 0 32.152 2.655 42.602 1.644 24.224-2.3 20.163-1.964 42.482.876 1.802.271 8.92.593 22.195 1.004 4.33.133 9.098.35 10.596.482 1.498.131 12.055.106 23.457-.056 34.31-.49 46.52-.457 60.791.166 19.372.845 21.662.867 40.201.378 9.984-.263 19.628-.636 21.432-.832 9.502-1.028 24.746-1.22 45.184-.566 17.541.56 20.072.612 27.047.553 3.775-.034 13.615-.312 21.867-.62 8.252-.307 15.162-.666 15.355-.798.193-.133.347-.416.342-.63a.62.62 0 0 0-.371-.523c-.289-.108-.29-.14-.004-.166.707-.062.287-1.658-1.186-4.51-.825-1.597-2.06-3.688-2.746-4.648-4.815-6.744-9.768-12.924-14.4-17.972-6.015-6.555-22.506-22.333-25.356-24.258-2.318-1.567-5.092-2.767-9.578-4.147-4.887-1.503-7.499-1.866-12.506-1.738-20.858 6.574-22.215 2.306-36.699 7.414-17.528 3.718-35.134-6.496-48.945-23.771a3229.487 3229.487 0 0 1-5.838-4.635c-5.447-4.337-14.691-10.337-18.484-11.998-2.48-1.086-5.809-1.816-8.022-1.76z" transform="translate(-81.4 70.75) scale(.26458)" fill="#000"/>
        <path d="M-20.592 95.843c.316-1 .368-1.26.259-1.299-.082-.03-.179.268-.455 1.395-.095.39-.211.779-.258.864-.078.144-.074.147.046.038.071-.064.255-.513.408-.998z" id="path226" fill="#fff"/>
        <path d="M-15.177 97.695c.066-.797.034-1.379-.075-1.38-.03-.002-.078.55-.107 1.226-.038.886-.03 1.193.03 1.102.046-.07.114-.496.152-.948z" id="path224" fill="#fff"/>
        <path d="M-24.383 99.06c.132-.532.291-1.064.353-1.181.09-.174.093-.208.01-.183-.172.051-.312.414-.524 1.362-.112.501-.239.97-.282 1.04-.125.208-.088.26.063.088.078-.089.246-.587.38-1.126z" id="path222" fill="#fff"/>
        <path d="M-19.135 101.059c-.021-.036.02-.382.093-.768.08-.43.11-.791.075-.931-.044-.184-.085-.04-.21.735-.149.929-.147 1.162.007 1.072.04-.023.056-.072.035-.108z" id="path220" fill="#fff"/>
        <path d="M-13.695 102.772c.107-.61.224-1.09.26-1.067.037.024.067.009.068-.032.003-.118-.151-.19-.235-.11-.102.096-.297 1.11-.373 1.94-.089.963.043.618.28-.73z" id="path216" fill="#fff"/>
        <path d="M13.698 105.77c-.02-.035.017-.372.083-.749.202-1.14.281-2.177.173-2.248-.059-.038-.148.005-.238.116-.174.216-.2.38-.028.176.114-.133.119-.114.067.272-.03.228-.089.882-.13 1.453-.056.79-.052 1.04.018 1.041.05.001.075-.026.055-.06z" id="path212" fill="#fff"/>
        <path d="M-28.504 103.856c.202-.635.413-1.183.47-1.216.079-.048.074-.063-.024-.066-.135-.005-.4.643-.703 1.722-.087.31-.186.63-.22.713-.044.107-.037.129.025.076.047-.041.25-.594.452-1.23z" id="path210" fill="#fff"/>
        <path d="M16.525 108.583c.225-.783.213-1.078-.022-.554-.195.435-.533 1.695-.532 1.986 0 .263.008.255.161-.174.089-.248.265-.814.393-1.258z" id="path208" fill="#fff"/>
        <path d="M3.734 104.715c.05-.476.047-.658-.012-.624-.11.064-.165.309-.27 1.193-.112.933-.05 1.287.104.593.06-.27.14-.792.178-1.162z" id="path206" fill="#fff"/>
        <path d="M-24.658 104.992c.197-.715.343-1.315.325-1.334-.113-.12-.367.638-.638 1.907-.07.332-.155.67-.187.753-.046.12-.037.132.043.062.055-.049.26-.673.457-1.388z" id="path204" fill="#fff"/>
        <path d="M18.19 106.847c.075-.93.028-1.463-.135-1.499-.098-.022-.11.131-.094 1.17.023 1.481.022 1.46.102 1.272.035-.082.092-.506.127-.943z" id="path202" fill="#fff"/>
        <path d="M-32.652 105.333c.094-.628.193-1.173.218-1.211.025-.039-.004-.071-.064-.073-.12-.003-.247.635-.368 1.845-.104 1.043.02.715.214-.56z" id="path200" fill="#fff"/>
        <path d="M-11.496 106.8c.164-.793.251-2.052.109-1.57-.037.125-.132.684-.213 1.244a23.11 23.11 0 0 1-.194 1.206c-.043.165-.038.171.042.053.05-.075.166-.495.256-.934z" id="path198" fill="#fff"/>
        <path d="M-6.766 106.295c.117-.393.214-.765.215-.827.003-.483-.624 1.601-.7 2.328l-.053.49.162-.639c.089-.351.258-.96.376-1.352z" id="path196" fill="#fff"/>
        <path d="M-19.45 108.053c.035-.333.09-.817.12-1.076.037-.304.03-.472-.021-.474-.121-.003-.177.33-.232 1.388-.055 1.048.027 1.148.133.162z" id="path194" fill="#fff"/>
        <path d="M-.706 109.344c.037-.322.097-.78.134-1.018.068-.443.002-.599-.1-.234-.03.112-.097.592-.148 1.067-.051.476-.12.903-.152.95-.032.047 0 .026.07-.048.085-.087.153-.335.196-.717z" id="path192" fill="#fff"/>
        <path d="M5.086 110.485c.1-.243.313-1.62.325-2.107.01-.365-.013-.49-.083-.47-.066.02-.131.406-.214 1.252-.065.673-.139 1.273-.164 1.334-.025.06-.016.11.02.111.036.001.088-.053.116-.12z" id="path190" fill="#fff"/>
        <path d="M11.665 110.9c.131-.53.389-1.846.393-2.002.017-.617-.354.628-.465 1.563-.036.296-.093.538-.13.537-.035 0-.065.031-.066.072-.003.138.229-.008.268-.17z" id="path188" fill="#fff"/>
        <path d="M21.415 111.313c.102-.896.14-1.636.083-1.603-.032.019-.088.4-.126.846a24.8 24.8 0 0 1-.105 1.059c-.021.135-.008.229.028.208.037-.022.09-.25.12-.51z" id="path186" fill="#fff"/>
        <path d="M-30.084 109.793c-.02-.494-.065-.84-.111-.841-.053-.001-.066.238-.038.737.022.406.037.819.033.916-.005.12.018.154.071.103.05-.048.067-.373.045-.915z" id="path184" fill="#fff"/>
        <path d="M-37.83 108.946c.018-.513.002-.72-.05-.645-.042.062-.084.636-.095 1.285-.016.96-.007 1.077.049.644.037-.29.08-.868.095-1.284z" id="path182" fill="#fff"/>
        <path d="M-4.5 111.972c.205-.217.716-2.1.72-2.654l.005-.487-.109.527c-.232 1.125-.616 2.453-.75 2.593-.077.08-.105.147-.064.149.042 0 .13-.057.198-.128z" id="path178" fill="#fff"/>
        <path d="M19.333 112.656c.026-.114.092-.49.146-.834.054-.345.12-.684.149-.753.044-.11.033-.113-.078-.027-.144.111-.193.306-.299 1.195-.07.593-.018.86.082.419z" id="path176" fill="#fff"/>
        <path d="M-21.917 111.282c.015-.478-.006-.922-.046-.985-.05-.08-.076.231-.081.996-.01 1.287.088 1.278.128-.011z" id="path174" fill="#fff"/>
        <path d="M-25.81 111.063c.227-1.036.31-2.02.175-2.109-.046-.03-.079.093-.086.315-.011.382-.392 2.667-.487 2.925-.053.142-.05.143.06.018.062-.073.215-.59.337-1.15z" id="path172" fill="#fff"/>
        <path d="M-11.829 110.635c.003-.074-.021-.086-.074-.036-.123.117-.493 1.516-.492 1.863 0 .242.063.084.28-.703.155-.558.284-1.064.286-1.124z" id="path170" fill="#fff"/>
        <path d="M-17.624 112.384c.002-.073.093-.406.202-.739.218-.666.373-1.536.253-1.415-.04.04-.174.48-.296.976-.331 1.342-.345 1.418-.247 1.361.046-.027.086-.11.088-.183z" id="path168" fill="#fff"/>
        <path d="M-34.707 111.629c.11-.64.162-2.614.067-2.522-.04.038-.1.7-.136 1.469-.034.769-.094 1.465-.131 1.548-.053.114-.047.13.025.068.05-.045.13-.298.175-.563z" id="path166" fill="#fff"/>
        <path d="M-41.07 111.77c-.057-.136-.071.04-.059.687.03 1.478.034 1.506.084.488.03-.582.018-1.066-.026-1.174z" id="path164" fill="#fff"/>
        <path d="M-42.18 108.451c.095-.628.194-1.173.219-1.211.025-.039-.004-.072-.064-.073-.12-.003-.248.635-.368 1.845-.104 1.043.02.715.213-.56z" id="path1239" fill="#fff"/>
        <path d="M-49.313 111.967c.035-.332.09-.816.12-1.075.037-.304.03-.472-.021-.474-.121-.003-.177.33-.232 1.388-.055 1.048.027 1.148.133.161z" id="path1241" fill="#fff"/>
        <path d="M-28.697 100.955c-.021-.036.02-.382.093-.768.08-.43.11-.791.076-.931-.045-.184-.086-.04-.21.735-.15.929-.148 1.162.007 1.072.04-.023.055-.072.034-.108z" id="path1243" fill="#fff"/>
        <path d="M-2.3 105.464c.037-.322.097-.78.134-1.018.069-.443.003-.6-.099-.234-.031.111-.098.592-.15 1.067-.05.476-.118.903-.15.95-.033.047-.001.025.07-.048.085-.087.152-.335.196-.717z" id="path1245" fill="#fff"/>
        <path d="M-78.314 114.501c-.42-.03-.814.177-1.224.245-.533.089-1.036.246-1.568.343-.177.032-.675-.11-.784 0-.015.015-.02 3.007-.05 3.234-.02.16-.17 1.649-.146 1.665.408.273 1.574.13 2.156.196 2.243.255 5.217.631 7.496.931 4.171.55 8.354 1.02 12.542 1.421 2.07.198 4.16.196 6.222.392 2.63.25 5.35-.177 7.986-.098 3.252.098 6.458.458 9.701.686 3.701.26 7.416.46 11.122.637 13.04.62 26.089 1.046 39.146.735 3.424-.082-1.59.203 4.115-.196.702-.05 1.405-.091 2.107-.147 1.412-.112 2.867-.278 4.262-.54.7-.13 1.327-.417 2.01-.587 1.292-.323 2.623-.509 3.919-.833 1.396-.349 2.962-.602 4.311-1.127.269-.104.427-.337.686-.44.158-.064 1.287-.21 1.323-.246.115-.115.014-.66.049-.833.118-.592.343-1.096.343-1.714 0-.369.351-1.208.196-1.52-.097-.192-.746-.28-.931-.342-.38-.127-.75-.375-1.127-.49-1.2-.365-2.592.029-3.822-.147-.657-.094-1.298-.49-1.91-.735-.198-.079-.383-.292-.588-.343-.353-.088-1.257-.21-1.421-.539" id="path5092" fill="#000"/>
    </g>
</svg>
