<svg viewBox="0 0 106 53" xmlns="http://www.w3.org/2000/svg" xml:space="preserve" fill-rule="evenodd" clip-rule="evenodd">
    <path id="path2134" d="m.038 32.595 1.81-.14 3.707-1.227 3.098-1.157 1.148-.352 2.82-1.577 2.192-1.191 2.89-.736 1.078-.106 1.097.106.923.349 4.246 1.876 6.717 2.279 3.672 1.087 3.342.93 4.073.754 2.557-.018 1.045-.385 1.236-.667 1.67-.439 3.499-.56 3.358-.509 1.27.211 2.541.508 1.653-.316 3.168-.911 3.846-1.122 4.908-1.35 3.15-.368.94.175 2.454.965 2.384 1.208 1.914.807 1.601.193 1.619-.07 3.358-.718 2.124-.404 2.279.158 1.08.614 1.236.823 1.967.614 3.271.578 2.088.018 1.713-.007-.073 9.482-106.676.037.007-9.442z" fill-rule="nonzero"/>
    <path id="path859" d="M18.233 25.871c-3.199.184-5.857 2.145-8.595 3.59-1.717.646-3.473 1.208-5.202 1.83-1.469.466-2.962.983-4.519.981-.251.768.429.636.959.563 3.016-.453 5.808-1.786 8.709-2.672 2.679-1.289 5.134-3.28 8.181-3.6 1.17-.242 2.407-.076 3.425.574a109.35 109.35 0 0 0 17.108 5.764c2.366.495 4.799 1.137 7.23.798 1.371-.32 2.508-1.307 3.945-1.419a77.021 77.021 0 0 1 7.254-.956c1.486.119 3.035.896 4.556.346 5.133-1.202 10.064-3.405 15.364-3.797 2.276.321 4.21 1.717 6.303 2.578 2.129 1.087 4.602.819 6.837.262 1.832-.365 3.776-1.036 5.629-.452 1.075.553 2.003 1.408 3.215 1.673 2.366.721 4.853.967 7.318.951.247-.845-.578-.593-1.129-.623-2.48-.122-5.035-.382-7.326-1.441-1.041-.711-2.151-1.521-3.482-1.407-3.248-.011-6.4 1.838-9.652.912-2.558-.814-4.768-2.582-7.436-3.052-1.896-.016-3.766.463-5.605.887-3.704.923-7.285 2.328-11.029 3.078-1.577.073-3.083-.83-4.673-.447-2.617.358-5.29.523-7.829 1.287-1.164.51-2.304 1.261-3.637 1.104-3.669-.171-7.21-1.24-10.733-2.251-4.497-1.379-8.919-2.935-13.189-4.906-.643-.206-1.331-.19-1.997-.155z" fill-rule="nonzero"/>
</svg>
