<?xml version="1.0" encoding="UTF-8"?>
<svg width="313" height="180" version="1.1" viewBox="0 0 82.815 47.625" xmlns="http://www.w3.org/2000/svg">
 <g transform="translate(81.4 -70.75)">
  <g transform="matrix(.28596 0 0 .28596 -60.227 64.611)">
   <path d="m-40.119 182.06c-0.94589-0.0972-2.077-0.32047-2.5135-0.49615-0.47963-0.19301-3.2543-0.40063-7.0115-0.52464-3.4197-0.11285-6.5545-0.33758-6.966-0.49938-0.41158-0.16179-2.4068-0.33057-4.4339-0.37507-3.2238-0.0708-3.7765-0.14867-4.411-0.62201-1.1186-0.83439-1.0483-1.3306 0.40135-2.8321 0.72063-0.74639 2.0689-2.3691 2.9962-3.6061 0.92729-1.2369 3.2364-4.1089 5.1315-6.3822 1.895-2.2733 4.1453-5.3094 5.0005-6.7469 2.1034-3.5353 8.1772-12.261 11.056-15.883 2.5966-3.2673 7.3119-7.9294 9.8323-9.7214 2.3354-1.6604 6.2556-3.692 9.1746-4.7548 1.3824-0.50329 3.293-1.2826 4.2457-1.7317 2.7992-1.3197 5.8442-1.863 10.477-1.8697 3.3216-5e-3 4.3173 0.0889 5.8208 0.54748 3.471 1.0586 8.9574 4.1479 12.41 6.9874 4.7775 3.9298 5.9272 4.8989 8.3042 6.9998 1.3922 1.2305 4.0791 3.6763 5.9709 5.4351 3.2233 2.9967 6.9947 5.9862 9.1352 7.2412 0.51323 0.30091 2.2272 1.0332 3.8088 1.6273 3.9343 1.4778 4.2416 1.6588 6.5028 3.8309 2.1257 2.0418 2.5631 2.2955 11.245 6.5205 2.7649 1.3455 5.7347 2.9197 6.5995 3.4982 1.9585 1.31 5.522 2.8126 6.2306 2.6273 0.35707-0.0934 0.53129-9e-3 0.53129 0.2567 0 0.21762 0.35719 0.54358 0.79375 0.72443 1.6392 0.67897 0.84943 2.9066-1.0332 2.9143-0.52315 3e-3 -1.6992 0.18026-2.6135 0.39584-0.9143 0.21556-2.5216 0.45699-3.5719 0.53655-1.0502 0.0795-2.9215 0.32128-4.1585 0.53718-3.4162 0.59632-10.068 1.3905-16.49 1.9688-3.1761 0.28601-5.855 0.56777-5.9531 0.62614-0.17663 0.10509-6.5885 0.90648-11.952 1.4939-4.6832 0.51287-24.347 0.82661-29.421 0.4694-3.4055-0.23974-5.1939-0.2386-7.8052 5e-3 -1.8631 0.17375-5.6748 0.31535-8.4703 0.31464-2.7956 0-6.2484 0.11403-7.6729 0.25503-3.4055 0.33708-9.0326 0.45397-11.189 0.23241z" style="stroke-width:.26458"/>
   <path d="m-4.4264 141.78c1.5726-3.0684 1.8635-4.1431 0.75814-2.8013-0.68892 0.83632-1.9237 3.4426-2.4314 5.1319-0.53979 1.7963-0.19765 1.3197 1.6732-2.3306z" style="fill:#fff;stroke-width:.26458"/>
   <path d="m-19.749 142.28c1.8037-4.2618 2.1264-5.1594 1.8549-5.1594-0.33995 0-1.4357 2.1916-2.356 4.7123-1.5951 4.3691-1.2784 4.6517 0.50111 0.44709z" style="fill:#fff;stroke-width:.26458"/>
   <path d="m6.5692 148.8c0.51407-1.9839 0.51675-2.6854 0.010261-2.6854-0.27123 0-0.39709 0.27223-0.39754 0.85989-2.646e-4 0.47295-0.29802 1.9698-0.66146 3.3264-0.36344 1.3566-0.65104 2.5472-0.63911 2.6458 0.049273 0.40762 1.3108-2.6918 1.6879-4.1467z" style="fill:#fff;stroke-width:.26458"/>
   <path d="m-32.467 160.1c0.62551-1.4791 1.3471-3.2948 1.6034-4.0349 0.25638-0.74009 0.73419-1.8568 1.0618-2.4816 0.60428-1.1523 0.58166-1.5555-0.0732-1.3042-0.86186 0.33073-4.159 8.2173-4.159 9.9481 0 1.1222 0.45239 0.50798 1.5669-2.1274z" style="fill:#fff;stroke-width:.26458"/>
   <path d="m-12.216 160.55c0.95159-2.4615 1.7302-4.5736 1.7302-4.6935 0-0.11993-0.12653-0.21804-0.28118-0.21804-0.408 0-1.6474 2.8819-2.6171 6.0854-1.1811 3.9018-1.1758 3.8796-0.84603 3.569 0.15617-0.14708 1.0625-2.2814 2.0141-4.7429z" style="fill:#fff;stroke-width:.26458"/>
   <path d="m8.8461 165.09c1.8375-4.7421 2.0847-5.4795 1.8375-5.4795-0.4085 0-1.2588 1.8778-2.2729 5.0195-0.51617 1.5991-1.0501 2.9763-1.1864 3.0606-0.13635 0.0843-0.24396 0.29504-0.23911 0.46834 0.019659 0.70337 1.0712-1.0308 1.8609-3.0689z" style="fill:#fff;stroke-width:.26458"/>
   <path d="m27.758 170.7c0.74543-1.471 1.9726-5.0987 1.9726-5.8313 0-0.69551-0.48886-0.61616-1.2475 0.20246-0.451 0.48665-0.51133 0.6459-0.19932 0.52618 0.29764-0.11422 0.40546-0.06 0.32204 0.16203-0.06897 0.18354-0.52871 1.5725-1.0216 3.0867-0.62046 1.9058-1.0387 2.7905-1.3593 2.8751-0.7262 0.19166-0.54144 0.53125 0.21081 0.38745 0.48167-0.0921 0.85877-0.49376 1.3223-1.4086z" style="fill:#fff;stroke-width:.26458"/>
   <path d="m-27.165 171.82c0.58087-1.9504 0.66737-2.6795 0.31789-2.6795-0.12172 0-0.44166 0.96477-0.71098 2.144-0.26932 1.1792-0.64598 2.204-0.83703 2.2773-0.19105 0.0733-0.34736 0.24381-0.34736 0.37888 0 0.1401 0.22298 0.12623 0.51914-0.0323 0.32749-0.17526 0.71819-0.9462 1.0583-2.0884z" style="fill:#fff;stroke-width:.26458"/>
   <path d="m-46.753 175.45c0.29221-0.31366 0.96948-1.8912 1.505-3.5057 0.53556-1.6145 1.075-2.9751 1.1988-3.0236 0.31564-0.12369 0.28159-0.57327-0.04341-0.57327-0.48144 0-1.271 1.6237-1.8529 3.8105-0.31361 1.1785-0.79401 2.5296-1.0676 3.0026-0.57738 0.99824-0.49038 1.0951 0.26006 0.28961z" style="fill:#fff;stroke-width:.26458"/>
  </g>
  <path d="m-44.291 112.07c5.6836 1.6648 11.601 0.54932 17.395 0.54932 4.7112 0 9.381 0.48829 14.099 0.48829 0.9094 0 8.7809 0.0246 8.4839 0.91553-0.45964 1.3789-3.2476 1.0772-4.4556 0.97657-8.1638-0.68032-16.313 0.73242-24.475 0.73242-3.358 0-6.7116 0.18311-10.071 0.18311-1.4732 0-2.9223-0.18311-4.3946-0.18311h-1.648c-0.12207 0-0.45253 0.0863-0.36621 0 1.3732-1.3732 4.8563-2.8943 5.4322-3.6621z"/>
 </g>
</svg>
