<svg viewBox="0 0 229 49" xmlns="http://www.w3.org/2000/svg" xml:space="preserve" fill-rule="evenodd" clip-rule="evenodd">
    <path id="path2134" d="m230.275 30.387-18.124 2.26-12.426.226-9.975-1.398-10.589-3.214-14.16.41-15.623-2.338-7.564-1.282-6.695-1.435-2.517-.715-2.393-2.327-3.524-2.185-1.922-2.317-2.42-.406-3.334 1.016-2.943.162-2.966.344-4.02 1.545-6.793 3.626-11.653 3.296-9.389 2.417-11.041.851-10.881.738-13.502-.492-24.708 1.928-21.169-.848.037 9.482 56.185-.375 38.388.44 3.201.06 3.381.163 2.876-.311 4.39.024 4.717.604 4.299-.524 2.374.112 5.231-.776 2.949.923 5.277-.545 46.818-.326 50.211.629-.003-9.442z" fill-rule="nonzero"/>
</svg>
