<?xml version="1.0" encoding="UTF-8" standalone="no"?>
<!-- Created with Inkscape (http://www.inkscape.org/) -->

<svg
   width="733"
   height="180"
   viewBox="0 0 193.93958 47.625"
   version="1.1"
   id="svg5"
   sodipodi:docname="mountains_2.svg"
   inkscape:version="1.1 (c68e22c387, 2021-05-23)"
   xmlns:inkscape="http://www.inkscape.org/namespaces/inkscape"
   xmlns:sodipodi="http://sodipodi.sourceforge.net/DTD/sodipodi-0.dtd"
   xmlns="http://www.w3.org/2000/svg"
   xmlns:svg="http://www.w3.org/2000/svg">
  <sodipodi:namedview
     id="namedview7"
     pagecolor="#505050"
     bordercolor="#ffffff"
     borderopacity="1"
     inkscape:pageshadow="0"
     inkscape:pageopacity="0"
     inkscape:pagecheckerboard="1"
     inkscape:document-units="mm"
     showgrid="false"
     inkscape:snap-global="false"
     fit-margin-top="0"
     fit-margin-left="0"
     fit-margin-right="0"
     fit-margin-bottom="0"
     inkscape:zoom="2.1674566"
     inkscape:cx="303.35094"
     inkscape:cy="149.48396"
     inkscape:window-width="3840"
     inkscape:window-height="2066"
     inkscape:window-x="-11"
     inkscape:window-y="-11"
     inkscape:window-maximized="1"
     inkscape:current-layer="layer1"
     units="px" />
  <defs
     id="defs2" />
  <g
     inkscape:label="Camada 1"
     inkscape:groupmode="layer"
     id="layer1"
     transform="translate(81.400154,-70.749672)">
    <g
       id="g1046"
       transform="matrix(0.28596444,0,0,0.28596444,-84.118633,67.194542)">
      <path
         style="fill:#000000;stroke-width:0.264583"
         d="m 109.04656,173.75727 c -0.29167,-0.29993 0.0298,-0.65201 0.59542,-0.65201 0.32605,0 0.45448,-0.13232 0.36214,-0.37299 -0.20714,-0.53977 0.36504,-1.50831 2.8476,-4.82002 2.49595,-3.32957 6.06767,-7.38679 7.88974,-8.9622 1.17179,-1.01314 3.3014,-2.44105 8.93541,-5.99115 3.32499,-2.09513 3.92337,-2.50182 8.61499,-5.85528 5.36424,-3.83421 9.04205,-5.66295 16.32198,-8.11585 2.93839,-0.99007 5.94321,-2.56344 9.72381,-5.09151 2.90068,-1.93969 4.6613,-3.39455 9.06161,-7.48805 1.52797,-1.42145 3.96875,-3.54756 5.42396,-4.72472 5.49981,-4.44892 12.06439,-10.02856 16.48457,-14.01124 2.51809,-2.26884 6.49515,-5.64934 8.83796,-7.51222 4.73109,-3.761981 7.53332,-6.07976 11.41621,-9.44264 2.77495,-2.403329 6.20572,-4.371969 9.43105,-5.411734 2.77886,-0.895834 10.12849,-2.158728 12.56313,-2.158728 4.44045,0 8.21386,1.084842 12.17541,3.500393 1.30969,0.798578 2.91703,1.719778 3.57187,2.04711 1.572,0.785786 3.44763,2.34883 5.55625,4.63029 0.94589,1.023411 2.30709,2.39653 3.02488,3.051373 1.86055,1.697379 7.77047,7.780206 9.38276,9.657296 0.84264,0.981 1.98154,2.85103 2.98108,4.89479 0.88961,1.81901 2.03714,3.96213 2.55003,4.7625 0.51292,0.80036 1.60928,2.95888 2.43636,4.79671 0.82709,1.83785 1.77472,3.72197 2.10582,4.18698 0.3311,0.46497 1.93736,1.95712 3.56944,3.31586 1.63211,1.35871 3.30187,2.86787 3.7106,3.35365 0.4087,0.4858 2.04631,2.25247 3.63913,3.92596 2.98119,3.13225 4.53753,5.41952 5.7263,8.41574 0.3774,0.9512 1.217,2.30563 1.94487,3.13743 1.43571,1.64062 2.84956,4.2337 2.84956,5.22615 0,1.39137 1.74819,3.68996 5.33945,7.02056 1.93826,1.79758 3.84657,3.60368 4.24069,4.01357 0.39413,0.40989 1.11612,0.91218 1.60444,1.1162 0.92651,0.38714 2.57376,2.22652 2.57376,2.87401 0,0.2059 -0.15341,0.58417 -0.34089,0.84058 -0.31417,0.4296 -0.47509,0.43754 -2.05052,0.10096 -2.74521,-0.58644 -11.27176,-0.25751 -12.74075,0.49149 -1.04563,0.53314 -4.21,0.93647 -4.62767,0.58984 -0.23743,-0.19706 -0.57631,-0.1968 -1.14339,0 -18.83007,1.14673 -38.98498,1.7038 -49.94511,1.85462 -15.54189,2.44148 -14.63805,-0.11997 -29.43465,1.18408 -9.95236,0.97433 -21.64061,0.109 -31.18051,0.60124 -5.88179,0.45119 -16.17133,-0.64347 -20.0973,-0.002 -4.02603,0.65823 -31.67838,1.18991 -46.47983,0.89368 -3.4925,-0.0699 -7.00484,-0.0254 -7.80521,0.0988 -0.80036,0.12422 -1.54127,0.13739 -1.64645,0.0292 z"
         id="path274"
         sodipodi:nodetypes="cscssssssssscssssssssssssssssssssssssssccccssscc" />
      <path
         style="fill:#ffffff;stroke-width:0.264583"
         d="m 237.41498,100.29414 c 1.38944,-3.436623 2.00957,-6.215018 1.33718,-5.990887 -0.19029,0.06342 -0.4931,0.645057 -0.67297,1.292516 -0.17983,0.64746 -0.74348,2.308294 -1.25253,3.690742 -1.08117,2.936149 -1.63939,5.403179 -1.36565,6.035419 0.14147,0.32673 0.24765,0.16234 0.39492,-0.61146 0.11078,-0.58208 0.81235,-2.56943 1.55905,-4.41633 z"
         id="path312" />
      <path
         style="fill:#ffffff;stroke-width:0.264583"
         d="m 249.31385,111.35818 c 1.39417,-2.35742 2.93124,-5.77714 2.93124,-6.52146 0,-0.95566 -0.83682,0.37314 -2.96138,4.70239 -1.33897,2.72852 -2.488,5.08 -2.55336,5.22553 -0.0653,0.14552 0.13272,0.0413 0.44019,-0.23146 0.30745,-0.27284 1.27193,-1.70159 2.14331,-3.175 z"
         id="path310" />
      <path
         style="fill:#ffffff;stroke-width:0.264583"
         d="m 215.67388,114.30161 c 1.39332,-2.44305 2.20451,-4.29169 3.04824,-6.94676 0.3697,-1.16337 0.76356,-2.35334 0.87524,-2.64438 0.17455,-0.45485 0.14512,-0.48212 -0.20947,-0.19416 -0.22691,0.18426 -0.74441,1.25582 -1.15001,2.38125 -0.8641,2.39759 -3.51235,8.5125 -3.89406,8.99155 -0.15756,0.19773 -0.16306,0.33073 -0.0138,0.33073 0.1374,0 0.74211,-0.8632 1.34379,-1.91823 z"
         id="path308" />
      <path
         style="fill:#ffffff;stroke-width:0.264583"
         d="m 229.72511,126.10187 c 0.5988,-1.47711 1.08873,-2.9016 1.08873,-3.16555 0,-1.75525 -2.53222,4.22391 -2.75817,6.51269 l -0.14367,1.45521 0.36218,-1.05834 c 0.19918,-0.58208 0.8521,-2.26689 1.45093,-3.74401 z"
         id="path306" />
      <path
         style="fill:#ffffff;stroke-width:0.264583"
         d="m 194.89705,127.66307 c 1.90278,-4.29532 2.67854,-6.58815 2.30675,-6.81794 -0.13232,-0.0818 -0.43376,0.30258 -0.66988,0.85415 -1.97815,4.62145 -3.88559,9.8664 -3.58812,9.8664 0.12235,0 1.00042,-1.75618 1.95125,-3.90261 z"
         id="path304" />
      <path
         style="fill:#ffffff;stroke-width:0.264583"
         d="m 264.26818,129.23078 c 1.27852,-3.83593 1.74937,-5.86719 1.36001,-5.86719 -0.39325,0 -0.92136,0.35775 -0.80529,0.54549 0.0766,0.12401 -0.26778,1.45101 -0.76538,2.94886 -0.49763,1.49784 -1.05728,3.59191 -1.2437,4.65347 -0.18645,1.06156 -0.43802,1.99133 -0.55907,2.06613 -0.12104,0.0748 -0.22008,0.26265 -0.22008,0.41741 0,0.18248 0.13404,0.17012 0.38143,-0.0352 0.20978,-0.17412 1.04322,-2.30214 1.85208,-4.72898 z"
         id="path302" />
      <path
         style="fill:#ffffff;stroke-width:0.264583"
         d="m 243.76916,137.66879 c 1.93128,-3.78738 3.56103,-9.80728 2.6551,-9.80728 -0.14552,0 -0.26459,0.29625 -0.26459,0.65834 0,0.80486 -2.74825,8.97665 -3.30438,9.8254 -0.21989,0.33557 -0.39978,0.68845 -0.39978,0.78415 0,0.38375 0.86177,-0.57444 1.31365,-1.46061 z"
         id="path300" />
      <path
         style="fill:#ffffff;stroke-width:0.264583"
         d="m 207.63616,138.21989 c 1.04203,-3.23109 1.51714,-5.54283 1.18176,-5.75013 -0.31541,-0.19492 -0.66609,0.80348 -1.58753,4.51987 -0.43296,1.74625 -0.89977,3.38175 -1.0373,3.63443 -0.34287,0.62989 -0.31522,0.73959 0.14211,0.56409 0.21794,-0.0836 0.79597,-1.40251 1.30096,-2.96826 z"
         id="path298" />
      <path
         style="fill:#ffffff;stroke-width:0.264583"
         d="m 178.3675,138.57713 c 0.29583,-1.16416 0.61471,-2.65244 0.70861,-3.30729 0.0939,-0.65484 0.34605,-1.45851 0.56033,-1.78593 0.22082,-0.33743 0.27064,-0.59532 0.11504,-0.59532 -0.59793,0 -1.30789,1.79962 -1.85822,4.71033 -0.31784,1.68108 -0.64249,3.24376 -0.72144,3.47257 -0.12761,0.36994 -0.0991,0.37209 0.25715,0.019 0.22035,-0.21828 0.6427,-1.34937 0.93853,-2.51354 z"
         id="path296" />
      <path
         style="fill:#ffffff;stroke-width:0.264583"
         d="m 277.23218,146.64693 c 1.21195,-3.65038 2.02843,-6.67475 1.8501,-6.85308 -0.26181,-0.26181 -0.58899,0.56311 -1.5552,3.92094 -0.52683,1.83097 -1.17583,3.92432 -1.44221,4.65193 -0.26639,0.7276 -0.57116,1.56104 -0.67731,1.85208 -0.15507,0.42524 -0.0854,0.39926 0.35465,-0.13229 0.3012,-0.3638 0.96268,-1.91162 1.46997,-3.43958 z"
         id="path294" />
      <path
         style="fill:#ffffff;stroke-width:0.264583"
         d="m 256.97708,148.76359 c 0.56899,-2.58746 0.70959,-4.23471 0.36124,-4.23153 -0.28247,0.003 -1.68145,7.32689 -1.64208,8.59716 l 0.0328,1.05833 0.34769,-1.45521 c 0.19121,-0.80036 0.59639,-2.5863 0.90037,-3.96875 z"
         id="path292" />
      <path
         style="fill:#ffffff;stroke-width:0.264583"
         d="m 219.56587,153.26762 c 0.51943,-1.00444 1.64317,-5.73987 1.8537,-7.81132 0.25908,-2.54952 -0.26149,-1.1916 -1.05272,2.746 -0.39122,1.94689 -0.86794,4.06025 -1.05939,4.69636 -0.40577,1.34826 -0.31499,1.47786 0.25841,0.36896 z"
         id="path290" />
      <path
         style="fill:#ffffff;stroke-width:0.264583"
         d="m 195.24561,150.30468 c 0.92628,-3.64648 1.09861,-4.98067 0.64323,-4.98067 -0.14552,0 -0.26458,0.0901 -0.26458,0.20024 0,0.11011 -0.28715,1.5091 -0.63812,3.10885 -0.7315,3.3342 -1.08151,5.63584 -0.81749,5.37575 0.0998,-0.0983 0.58439,-1.76514 1.07696,-3.70417 z"
         id="path288" />
      <path
         style="fill:#ffffff;stroke-width:0.264583"
         d="m 156.54917,155.19368 c 1.33466,-3.2249 2.35161,-6.20009 2.17842,-6.37328 -0.0797,-0.0798 -0.18532,-0.0954 -0.23464,-0.0348 -0.17864,0.21974 -1.58033,3.86628 -2.32166,6.03996 -0.41746,1.22407 -0.96843,2.46177 -1.22439,2.75048 -0.44992,0.50755 -0.44706,0.51535 0.0865,0.2358 0.33605,-0.17606 0.92882,-1.19997 1.51578,-2.61819 z"
         id="path286" />
      <path
         style="fill:#ffffff;stroke-width:0.264583"
         d="m 233.20036,153.82803 c 1.45134,-4.15221 1.41168,-4.0061 1.08765,-4.0061 -0.32774,0 -1.51633,2.84083 -2.25044,5.37871 -0.34394,1.18904 -0.71734,2.40003 -0.82982,2.69108 -0.18693,0.48381 -0.16676,0.49389 0.23524,0.11758 0.24183,-0.22635 1.03265,-2.10794 1.75737,-4.18127 z"
         id="path284" />
      <path
         style="fill:#ffffff;stroke-width:0.264583"
         d="m 286.87153,155.78598 c 0.87228,-2.4107 0.9923,-3.05364 0.56994,-3.05364 -0.38402,0 -0.91831,1.1829 -1.70296,3.77031 -0.38616,1.27331 -0.82437,2.31511 -0.9738,2.31511 -0.14941,0 -0.18603,0.13861 -0.0813,0.308 0.34091,0.55158 1.32183,-0.94562 2.18815,-3.33978 z"
         id="path282" />
      <path
         style="fill:#ffffff;stroke-width:0.264583"
         d="m 177.75361,156.86487 c 0.46157,-2.6574 0.52824,-4.10149 0.17182,-3.72242 -0.37375,0.39751 -0.80856,2.84215 -0.95223,5.35365 -0.15404,2.69296 0.13388,2.09116 0.78041,-1.63123 z"
         id="path280" />
      <path
         style="fill:#ffffff;stroke-width:0.264583"
         d="m 204.49436,160.96737 c 0.78208,-2.31162 1.3239,-5.10776 1.10186,-5.68635 -0.18584,-0.48432 -0.86085,-0.32028 -1.08492,0.26366 -0.0922,0.24011 -0.0382,0.32125 0.14017,0.21098 0.18704,-0.1156 0.23596,-0.003 0.13788,0.31699 -0.0836,0.27287 -0.44263,1.86537 -0.79783,3.53886 -0.3552,1.67349 -0.73319,3.28083 -0.83994,3.57187 -0.17839,0.48631 -0.15807,0.49538 0.25106,0.11211 0.24484,-0.22937 0.73612,-1.27704 1.09172,-2.32812 z"
         id="path278" />
      <path
         style="fill:#ffffff;stroke-width:0.264583"
         d="m 140.34286,162.31981 c 0.17581,-0.54369 0.54112,-1.42912 0.81174,-1.96763 0.93564,-1.86174 1.53858,-3.62876 1.2905,-3.78208 -0.34271,-0.2118 -1.20615,1.57167 -2.13087,4.40137 -0.87294,2.67134 -0.87919,2.70031 -0.53637,2.48843 0.13492,-0.0834 0.38915,-0.59642 0.565,-1.14009 z"
         id="path276" />
    </g>
  </g>
</svg>
