<svg xml:space="preserve" width="1122.997" height="888.74" xmlns="http://www.w3.org/2000/svg">
    <path d="M737.076 143.348c123.173 39.602 306.181-5.813 373.822 104.48 39.235 63.976-28.106 147.464-44.29 220.747-21.457 97.163.262 219.73-69.999 290.19-75.805 76.02-207.93 53.782-312.875 76.41-82.544 17.799-168.686 72.755-248.99 46.65-80.03-26.015-106.014-133.07-173.374-183.511-65.842-49.304-171.7-45.42-219.82-112.132-40.735-56.474-52.21-140.096-31.353-206.53 25.3-80.584 116.199-122.61 174.396-183.82 45.849-48.224 80.241-110.965 137.7-144.523C378.736 18.344 448.348-9.756 512.407 3.245c60.73 12.326 93.793 82.58 148.209 112.226 23.821 12.979 50.634 19.574 76.46 27.877z"/>
    <path d="M487.255 175.823c-.513.014-1.434.456-2.202 1.08-2.257 1.834-3.134 8.908-2.853 22.993.216 10.813.142 11.578-1.225 12.588-.8.59-6.779 3.712-13.285 6.937s-12.022 6.175-12.258 6.557c-.235.381.344 1.521 1.286 2.533 1.677 1.8 1.899 1.835 10.802 1.644 5-.106 10.901-.14 13.114-.074l4.023.12-.291 11.997c-.247 10.226-.113 12.267.904 13.819 2.123 3.239 3.44 2.303 7.432-5.282 2.05-3.893 4.143-8.377 4.652-9.962 1.548-4.818 6.731-12.785 7.985-12.274 3.471 1.416 9.029 3.132 13.693 4.23 2.931.69 7.31 2.06 9.728 3.044 4.791 1.946 5.99 1.875 6.583-.39.664-2.54-2.34-7.25-8.842-13.858l-6.254-6.354 2.88-4.303c1.584-2.366 4.61-7.053 6.727-10.414 6.015-9.546 4.917-13.595-2.597-9.56-1.455.78-4.957 2.377-7.784 3.547-2.826 1.17-7.282 3.43-9.902 5.021l-4.764 2.893-4.644-7.536c-7.707-12.508-11.873-18.724-12.715-18.974a.627.627 0 0 0-.193-.022zm218.595 29.592c-.696.027-1.353.96-1.88 2.844-.252.898-.974 2.948-1.604 4.557-.63 1.608-1.456 4.308-1.834 5.998l-.688 3.072-4.884-1.06c-8.11-1.76-12.272-2.5-12.703-2.255-.226.128-.453.754-.506 1.391-.137 1.637 2.398 4.764 8.242 10.164 4.486 4.146 4.768 4.474 4.644 5.426-.072.557-1.142 4.214-2.377 8.125-1.234 3.91-2.193 7.313-2.13 7.558.063.246.752.456 1.533.47 1.39.022 1.492-.058 4.9-3.757 1.915-2.077 4.21-4.492 5.104-5.367l1.625-1.59 4.77 4.815c4.066 4.104 4.95 4.849 5.98 5.043 2.15.404 2.284-.497.76-5.092-.783-2.36-1.789-4.967-2.235-5.795-1.355-2.516-2.57-7.746-1.871-8.057 1.936-.859 4.81-2.449 7.084-3.918 1.429-.923 3.7-2.17 5.047-2.77 2.668-1.187 3.11-1.704 2.42-2.831-.775-1.266-3.868-1.886-9.104-1.826l-5.035.056-.625-2.855a313.667 313.667 0 0 0-1.605-6.817c-.91-3.673-2.01-5.568-3.028-5.529zM264.042 250.11a2.132 2.132 0 0 0-.457.09c-.84.253-1.79.703-2.112 1-.662.612-2.38 10.68-3.652 21.418l-.853 7.211-7.637 1.295c-11.521 1.955-17.511 3.321-18.381 4.192-.56.56-.39 1.218.6 2.312 1.674 1.85 13.065 8.98 15.603 9.766.998.309 3.533 1.197 5.633 1.974l3.818 1.414.051 5.221c.102 10.263 1.082 17.837 2.512 19.422v.003c.74.817 1.856 1.389 2.48 1.27 1.52-.292 4.39-5.692 8.43-15.858 1.832-4.612 3.58-8.785 3.88-9.274.57-.922 7.078.308 18.645 3.522 6.695 1.86 11.026 1.878 11.606.05.507-1.599-.657-4.977-2.385-6.923-.672-.757-3.39-3.253-6.043-5.547l-4.822-4.17 7.89-7.451c4.34-4.098 8.096-8.09 8.344-8.871.886-2.79-.267-4.85-3.205-5.73-3.131-.94-8.973.302-20.435 4.343-3.378 1.19-6.38 2.018-6.672 1.838-.292-.18-1.092-2.043-1.778-4.139-1.583-4.84-3.385-8.458-7.064-14.185-2.137-3.327-2.97-4.266-3.998-4.192zm508.976 38.354c-.073-.01-.203.155-.29.365-.156.375-.146.41.49 1.733.356.742.763 1.624.904 1.96l.256.614-1.819.773c-1.55.66-1.848.82-2.011 1.078-.342.54-.112.675 1.296.756.724.042 1.54.05 1.813.018.828-.096 2.371.138 2.385.361.024.617.146 1.568.299 2.342.096.487.19 1.236.207 1.666.034.852.128 1.026.507.961.427-.074.927-.846 1.475-2.272l.527-1.37.842.138c.463.076 1.371.21 2.02.299 1.84.25 2.373-.19 1.256-1.041a18.066 18.066 0 0 1-1.063-.926 14.423 14.423 0 0 0-1.428-1.142l-.76-.518.815-1.211c1.35-2.009 1.999-3.056 1.979-3.2-.014-.074-.156-.202-.323-.286-.429-.214-1.549.136-3.642 1.138-1.607.77-1.727.81-1.97.674-.144-.08-1.019-.763-1.946-1.52-.927-.755-1.747-1.377-1.82-1.39zm78.735 6.45-.46 3.529c-.251 1.94-.96 6.94-1.574 11.109-.614 4.17-1.2 9.406-1.3 11.637-.1 2.23-.235 4.552-.3 5.16-.065.62-3.785 3-8.48 5.426-9.29 4.8-9.277 4.726-1.087 6.876 2.806.737 6.198 2.177 7.538 3.2 2.38 1.814 2.45 2.022 2.9 8.627.255 3.722.674 8.703.93 11.068l.465 4.299 1.625-4.32c.894-2.377 2.53-6.113 3.637-8.301 2.804-5.543 7.331-12.072 8.746-12.615.652-.25 1.74-.456 2.418-.456 1.305 0 12.675 4.608 22.102 8.956 3.1 1.43 5.637 2.48 5.637 2.337 0-1.083-7.652-12.745-10.727-16.35-2.373-2.78-3.818-5.153-3.818-6.273 0-1.329 2.68-4.573 10.238-12.39 5.631-5.825 10.094-10.734 9.918-10.91-.524-.525-11.454 3.908-14.328 5.81-2.477 1.64-15.566 6.276-17.717 6.276-1.852 0-6.281-5.339-7.785-9.383-1.909-5.133-4.391-9.4-6.748-11.602zm-413.866 43.823c-.46.018-.896.635-1.246 1.883-.166.595-.645 1.954-1.062 3.02a32.766 32.766 0 0 0-1.215 3.972l-.455 2.036-3.236-.702c-5.374-1.166-8.13-1.656-8.416-1.494-.15.085-.3.5-.336.922-.091 1.085 1.589 3.157 5.46 6.735 2.973 2.746 3.16 2.965 3.079 3.595-.048.37-.758 2.792-1.576 5.383-.818 2.591-1.452 4.845-1.41 5.008.041.162.498.297 1.015.31.92.015.988-.037 3.246-2.488 1.268-1.376 2.789-2.977 3.38-3.557l1.077-1.052 3.162 3.19c2.694 2.719 3.279 3.213 3.961 3.341 1.424.268 1.514-.329.504-3.373-.518-1.563-1.185-3.291-1.48-3.84-.898-1.667-1.702-5.132-1.239-5.338 1.283-.569 3.187-1.622 4.694-2.595.946-.612 2.45-1.437 3.343-1.834 1.768-.788 2.061-1.13 1.604-1.877-.513-.839-2.564-1.251-6.033-1.211l-3.336.037-.414-1.893a206.772 206.772 0 0 0-1.063-4.516c-.602-2.433-1.333-3.687-2.008-3.662zm201.409 15.225a1.4 1.4 0 0 0-.56.148c-.73.333-.895.693-.895 1.956 0 1.642 1.034 10.675 1.337 11.681.109.36-.156.766-.671 1.028-5.35 2.707-8.4 4.582-8.497 5.22-.205 1.355 1.271 2.207 3.635 2.096 1.169-.055 2.813-.007 3.655.107l1.529.205.467 3.471c.256 1.91.547 4.155.646 4.99.1.836.52 2.076.934 2.756.548.902.978 1.204 1.59 1.117.743-.105.985-.709 2.164-5.39.73-2.9 1.73-6.232 2.22-7.402l.893-2.13 1.564.67c.86.37 3.082 1.125 4.936 1.678 1.854.554 4.166 1.336 5.137 1.74 2.495 1.04 3.997.982 4.285-.166.129-.513-.03-1.394-.367-2.048-.824-1.592-5.249-6.585-6.368-7.184l-.921-.492 1.8-2.719c2.77-4.181 4.576-7.996 4.442-9.38-.105-1.081-.23-1.187-1.332-1.137-1.213.054-2.805.764-9.471 4.226l-3.53 1.832-1.365-1.508c-.75-.83-2.614-2.435-4.144-3.566-1.842-1.362-2.545-1.811-3.113-1.799zm355.04 12.441c-1.232.047-2.395 1.697-3.33 5.034-.445 1.59-1.721 5.22-2.837 8.068s-2.577 7.625-3.246 10.617l-1.217 5.44-8.65-1.877c-14.359-3.117-21.727-4.424-22.49-3.99-.4.226-.8 1.333-.895 2.46-.243 2.899 4.245 8.434 14.591 17.995 7.944 7.34 8.442 7.924 8.223 9.609-.128.986-2.021 7.458-4.207 14.383-2.186 6.924-3.884 12.946-3.772 13.38.112.435 1.334.808 2.715.83 2.461.04 2.64-.097 8.674-6.646 3.39-3.677 7.456-7.954 9.037-9.502l2.875-2.816 8.446 8.525c7.199 7.267 8.762 8.585 10.586 8.928 3.805.716 4.044-.882 1.345-9.018-1.385-4.176-3.166-8.793-3.955-10.26-2.399-4.454-4.547-13.712-3.31-14.261 3.427-1.521 8.516-4.337 12.54-6.938 2.53-1.634 6.551-3.838 8.936-4.9 4.724-2.103 5.505-3.02 4.283-5.016-1.37-2.24-6.847-3.34-16.117-3.234l-8.914.102-1.105-5.057c-.608-2.782-1.889-8.213-2.844-12.068-1.61-6.504-3.56-9.856-5.361-9.788zm-818.945 6.11c-.46.017-.893.633-1.242 1.879-.166.593-.644 1.948-1.06 3.011a32.74 32.74 0 0 0-1.213 3.965l-.453 2.03-3.23-.7c-5.362-1.163-8.112-1.652-8.397-1.49-.15.085-.299.497-.334.918-.091 1.082 1.584 3.15 5.447 6.719 2.966 2.74 3.152 2.959 3.07 3.588-.048.368-.754 2.785-1.57 5.37-.816 2.586-1.45 4.833-1.408 4.995.041.162.497.297 1.013.31.92.015.986-.037 3.239-2.482 1.265-1.373 2.784-2.969 3.375-3.547l1.072-1.053 3.154 3.184c2.688 2.713 3.27 3.206 3.951 3.334 1.421.267 1.51-.33.502-3.367-.517-1.56-1.182-3.283-1.476-3.83-.896-1.664-1.696-5.12-1.235-5.324 1.28-.568 3.18-1.62 4.682-2.59.944-.61 2.446-1.434 3.336-1.83 1.764-.786 2.056-1.128 1.6-1.873-.512-.837-2.557-1.247-6.018-1.207l-3.328.037-.414-1.889a206.84 206.84 0 0 0-1.06-4.506c-.602-2.428-1.33-3.678-2.003-3.652zm268.942 77.094c-2.644.08-3.746 3.183-2.713 7.634.51 2.201.992 5.34 1.07 6.977l.14 2.976-6.429 2.096a867.912 867.912 0 0 1-9.254 2.967c-1.552.48-3.76 1.708-4.908 2.73-1.522 1.357-1.946 2.278-1.568 3.409.46 1.375 1.692 1.627 10.994 2.236 5.762.377 12.437 1.115 14.832 1.639l4.353.953-.728 3.205c-.401 1.763-1.06 6.244-1.465 9.959s-1.09 8.377-1.52 10.361c-1.104 5.1-.47 7.935 1.809 8.082 1.02.066 2.64-.542 3.764-1.412 2.737-2.118 10.678-12.26 11.425-14.594l.616-1.92 5.789 2.473c8.905 3.803 16.782 5.904 19.365 5.166 2.016-.575 2.174-.847 1.695-2.924-.525-2.284-2.43-5.06-11.326-16.515l-4.71-6.067 2.392-3.115c1.315-1.714 3.714-5.816 5.33-9.115 2.595-5.298 2.81-6.18 1.853-7.553-.884-1.269-1.623-1.457-4.021-1.018-3.12.572-19.916 5.683-21.723 6.61-.646.332-1.512-.032-2.187-.92-7.005-9.216-11.629-14.36-12.875-14.32zm438.453 14.763c-1.118-.065-2.71.925-4.717 3.063-1.13 1.203-3.942 3.832-6.248 5.842-2.306 2.009-5.81 5.568-7.787 7.912l-3.594 4.261-6.8-5.664c-11.29-9.402-17.22-13.968-18.098-13.937-.458.016-1.327.812-1.932 1.767-1.556 2.458-.135 9.442 4.617 22.704 3.65 10.18 3.821 10.93 2.848 12.322-.57.815-5.24 5.68-10.38 10.808-5.14 5.13-9.43 9.683-9.532 10.12-.101.436.808 1.333 2.023 1.992 2.164 1.173 2.385 1.133 10.764-1.883 4.706-1.694 10.288-3.607 12.406-4.248l3.852-1.168 3.547 11.465c3.023 9.772 3.8 11.665 5.257 12.812v-.001c3.044 2.394 3.995 1.088 5.364-7.373.702-4.344 1.257-9.26 1.236-10.924-.067-5.06 2.31-14.263 3.66-14.178 3.742.236 9.557.093 14.328-.351 2.999-.28 7.584-.376 10.19-.215 5.16.32 6.277-.13 6.117-2.465-.18-2.62-4.529-6.128-12.797-10.32l-7.951-4.032 1.36-4.996c.747-2.748 2.122-8.155 3.058-12.015 1.746-7.196 1.343-11.172-.791-11.297zm-203.578 11.35c-.806.03-1.566 1.108-2.178 3.29-.291 1.04-1.127 3.417-1.857 5.28-.73 1.863-1.686 4.988-2.123 6.945l-.797 3.56-5.659-1.23c-9.393-2.038-14.213-2.893-14.712-2.609-.261.148-.525.872-.586 1.61-.16 1.895 2.776 5.516 9.545 11.771 5.196 4.802 5.524 5.183 5.38 6.285-.084.646-1.323 4.88-2.753 9.41-1.43 4.53-2.54 8.47-2.467 8.754.073.284.873.529 1.777.543 1.61.026 1.726-.063 5.674-4.347 2.217-2.406 4.877-5.204 5.912-6.217l1.88-1.844 5.526 5.578c4.71 4.754 5.731 5.616 6.924 5.84 2.49.468 2.647-.576.88-5.898-.905-2.733-2.07-5.752-2.587-6.711-1.57-2.915-2.975-8.971-2.166-9.33 2.242-.996 5.572-2.838 8.205-4.54 1.655-1.069 4.286-2.512 5.846-3.207 3.09-1.375 3.602-1.973 2.803-3.279-.897-1.466-4.481-2.184-10.545-2.115l-5.832.066-.723-3.308a362.339 362.339 0 0 0-1.86-7.895c-1.052-4.254-2.329-6.447-3.507-6.402zm-413.162 15.144c-1.305.07-11.201 17.214-13.965 24.192-1.776 4.482-6.019 18.95-7.604 25.931-2.37 10.443-.12 24.35 5.955 36.811 2.947 6.042 12.553 18.377 18.936 24.316 8.762 8.154 16.907 13.889 25.441 17.914 15.081 7.114 29.442 9.219 40.938 6 3.025-.846 7.385-2.487 9.685-3.646 5.38-2.71 10.606-4.764 13.313-5.232 4.046-.7 10.485-3.315 13.832-5.618 4.07-2.8 8.308-6.468 8.308-7.187 0-.29-5.644-.95-12.544-1.467-9.344-.7-14.96-1.545-22-3.31-20.13-5.048-33.375-9.96-41.747-15.479-4.974-3.28-14.806-12.911-18.718-18.338-4.34-6.019-11.492-18.708-13.324-23.637-3.782-10.173-5.138-18.722-5.62-35.455-.25-8.7-.648-15.807-.886-15.795zM762.96 599.312a.875.875 0 0 0-.356.082c-.438.193-.885 1.278-1.451 3.529-.435 1.728-.48 1.846-.74 1.947-.153.06-1.239.297-2.412.528-1.174.23-2.178.46-2.233.511-.054.05-.013.256.094.457.188.36.223.375 1.646.73.8.2 1.74.45 2.088.557l.633.194-.565 1.894c-.482 1.615-.551 1.944-.457 2.235.197.606.447.516 1.41-.516.495-.53 1.022-1.153 1.172-1.383.455-.698 1.624-1.739 1.801-1.603.49.375 1.299.889 1.992 1.265.436.237 1.073.644 1.414.905.677.517.873.559 1.065.224.216-.375-.057-1.254-.805-2.586l-.719-1.28.645-.56a91.39 91.39 0 0 0 1.52-1.363c1.368-1.256 1.369-1.948 0-1.633-.266.061-.891.164-1.391.227s-1.306.23-1.791.37l-.883.253-.412-1.4c-.683-2.323-1.075-3.49-1.197-3.567a.157.157 0 0 0-.071-.017zm-242.461 6.154a1.239 1.239 0 0 0-.516.117c-.634.28-1.28 1.854-2.1 5.111-.628 2.502-.692 2.672-1.07 2.819-.22.086-1.793.428-3.492.762-1.699.333-3.152.666-3.23.74-.078.073-.015.37.136.662.273.52.323.542 2.383 1.057 1.157.289 2.515.65 3.02.804l.918.281-.819 2.743c-.698 2.336-.794 2.813-.658 3.234.285.878.645.746 2.04-.748.715-.767 1.478-1.667 1.694-2 .659-1.011 2.352-2.518 2.608-2.322.71.543 1.88 1.286 2.885 1.832.63.342 1.552.933 2.047 1.31.98.749 1.26.806 1.539.323.312-.543-.086-1.815-1.166-3.743l-1.04-1.853.932-.81c.513-.446 1.504-1.333 2.201-1.973 1.98-1.819 1.982-2.82 0-2.364-.383.089-1.29.236-2.013.328-.724.092-1.89.334-2.592.536l-1.277.365-.596-2.024c-.989-3.36-1.557-5.051-1.735-5.162a.223.223 0 0 0-.101-.025zm114.021 57.727c-.546.02-1.06.75-1.474 2.228-.198.704-.764 2.313-1.258 3.574-.494 1.262-1.141 3.378-1.438 4.703l-.539 2.41-3.832-.832c-6.36-1.38-9.624-1.96-9.963-1.767-.176.1-.353.592-.396 1.092-.108 1.283 1.88 3.735 6.463 7.97 3.519 3.252 3.742 3.51 3.644 4.256-.057.437-.897 3.306-1.865 6.373-.968 3.068-1.72 5.734-1.67 5.926.05.192.591.356 1.203.37 1.09.017 1.169-.045 3.842-2.946 1.501-1.63 3.303-3.523 4.004-4.21l1.273-1.247 3.74 3.777c3.19 3.22 3.882 3.803 4.69 3.955 1.686.317 1.791-.392.596-3.996-.614-1.85-1.403-3.895-1.752-4.545-1.063-1.973-2.015-6.073-1.467-6.316 1.518-.674 3.774-1.922 5.557-3.074 1.12-.724 2.902-1.702 3.959-2.172 2.092-.932 2.437-1.337 1.896-2.22-.607-.994-3.032-1.48-7.139-1.433l-3.949.045-.49-2.24a246.48 246.48 0 0 0-1.26-5.346c-.713-2.88-1.577-4.366-2.375-4.336zm245.711 6.19c-.786.031-1.529 1.082-2.125 3.21-.284 1.014-1.099 3.328-1.81 5.144-.712 1.817-1.642 4.864-2.069 6.772l-.775 3.469-5.518-1.198c-9.156-1.987-13.854-2.82-14.342-2.543-.254.145-.512.85-.572 1.569-.155 1.848 2.709 5.377 9.307 11.474 5.065 4.681 5.384 5.055 5.244 6.13-.083.628-1.29 4.755-2.684 9.171-1.393 4.416-2.476 8.256-2.404 8.533.07.277.85.515 1.73.53 1.57.025 1.684-.062 5.532-4.239 2.161-2.345 4.755-5.073 5.763-6.06l1.834-1.795 5.385 5.435c4.591 4.635 5.59 5.475 6.752 5.694v.002c2.427.456 2.579-.564.858-5.752-.884-2.664-2.018-5.606-2.522-6.541-1.53-2.841-2.902-8.746-2.113-9.096 2.185-.97 5.431-2.765 7.998-4.424 1.613-1.042 4.178-2.45 5.7-3.127 3.012-1.34 3.51-1.924 2.732-3.197-.875-1.429-4.368-2.13-10.28-2.062l-5.685.064-.705-3.227a353.116 353.116 0 0 0-1.813-7.695c-1.026-4.147-2.27-6.284-3.418-6.24zm-389.421 123a1.252 1.252 0 0 0-.517.12c-.634.28-1.28 1.85-2.098 5.108-.629 2.502-.694 2.672-1.072 2.819-.221.086-1.792.43-3.49.763-1.7.334-3.155.665-3.233.739-.078.073-.015.371.137.664.273.52.323.54 2.383 1.055a84.39 84.39 0 0 1 3.021.806l.918.28-.82 2.742c-.698 2.336-.795 2.813-.658 3.234.285.878.647.746 2.04-.748.717-.767 1.48-1.667 1.696-2 .658-1.011 2.35-2.518 2.605-2.322.71.543 1.881 1.286 2.885 1.832.631.342 1.552.933 2.047 1.31.98.749 1.261.806 1.54.323.312-.543-.084-1.815-1.165-3.743l-1.04-1.853.933-.809c.512-.445 1.501-1.334 2.199-1.974 1.98-1.819 1.982-2.818 0-2.362-.384.089-1.288.236-2.012.328-.723.092-1.891.332-2.594.534l-1.277.367-.596-2.026c-.988-3.36-1.556-5.051-1.734-5.162a.214.214 0 0 0-.1-.025z" fill="#fff"/>
</svg>
