<?xml version="1.0" encoding="UTF-8"?>
<svg version="1.1" viewBox="0 0 1123 888.74" xml:space="preserve" xmlns="http://www.w3.org/2000/svg">
    <path d="m737.08 143.35c123.17 39.602 306.18-5.813 373.82 104.48 39.235 63.976-28.106 147.46-44.29 220.75-21.457 97.163 0.262 219.73-69.999 290.19-75.805 76.02-207.93 53.782-312.87 76.41-82.544 17.799-168.69 72.755-248.99 46.65-80.03-26.015-106.01-133.07-173.37-183.51-65.842-49.304-171.7-45.42-219.82-112.13-40.735-56.474-52.21-140.1-31.353-206.53 25.3-80.584 116.2-122.61 174.4-183.82 45.849-48.224 80.241-110.96 137.7-144.52 56.443-32.965 126.06-61.065 190.11-48.064 60.73 12.326 93.793 82.58 148.21 112.23 23.821 12.979 50.634 19.574 76.46 27.877z"/>
    
<path d="m305.47 640.17a0.38692 0.38692 0 0 0-0.15978 0.0371c-0.19593 0.0865-0.39557 0.57173-0.64837 1.5786-0.19439 0.77323-0.21448 0.82577-0.3313 0.8712-0.0683 0.0266-0.55381 0.13288-1.0786 0.2358-0.52538 0.10322-0.97504 0.20551-0.99914 0.22838-0.0241 0.0226-5e-3 0.11465 0.0423 0.2052 0.0844 0.16071 0.0998 0.16689 0.73645 0.32605a26.08 26.08 0 0 1 0.93362 0.24909l0.2837 0.0865-0.25341 0.8474c-0.21571 0.72193-0.24569 0.86934-0.20335 0.99945 0.0881 0.27134 0.19995 0.23054 0.63045-0.23117 0.22158-0.23703 0.45738-0.51517 0.52414-0.61809 0.20335-0.31244 0.72625-0.77817 0.80506-0.7176 0.21942 0.16781 0.58131 0.39743 0.89159 0.56617 0.19501 0.1057 0.47964 0.28834 0.63261 0.40485 0.30287 0.23147 0.38971 0.24909 0.47593 0.0998 0.0964-0.16781-0.026-0.56091-0.36004-1.1568l-0.3214-0.57266 0.28834-0.25002c0.15823-0.13752 0.46387-0.41226 0.67959-0.61005 0.6119-0.56215 0.61252-0.87089 0-0.72996-0.11868 0.0275-0.39805 0.0729-0.6218 0.10136-0.22344 0.0284-0.5844 0.10261-0.80166 0.16503l-0.39465 0.11342-0.18419-0.62612c-0.30534-1.0384-0.48088-1.561-0.53589-1.5953a0.066135 0.066135 0 0 0-0.0309-8e-3z" style="fill:#fff"/><path d="m806.28 776.54c-0.24291 0.01-0.47253 0.33439-0.65672 0.99203-0.0878 0.31337-0.33964 1.0285-0.55937 1.5897-0.22004 0.56153-0.50745 1.5032-0.63941 2.0928l-0.23951 1.0721-1.7053-0.37024c-2.8296-0.61407-4.2815-0.8715-4.4323-0.7859-0.0785 0.0448-0.15823 0.26269-0.17678 0.48489-0.0479 0.57112 0.8372 1.6617 2.8763 3.546 1.5653 1.4466 1.6639 1.5622 1.6206 1.8944-0.0256 0.19408-0.39867 1.4695-0.82948 2.8342-0.4305 1.3647-0.76519 2.5515-0.74294 2.6371 0.0216 0.0856 0.26269 0.15916 0.53465 0.16379 0.4852 8e-3 0.52043-0.0192 1.7096-1.31 0.66784-0.7247 1.4695-1.5678 1.781-1.8728l0.56679-0.55474 1.6642 1.6797c1.4188 1.4324 1.7276 1.692 2.0867 1.7597v6.1e-4c0.75005 0.14093 0.79702-0.1743 0.26516-1.7776-0.2732-0.82329-0.62365-1.7325-0.77941-2.0215-0.47284-0.87799-0.89685-2.7029-0.65301-2.8111 0.67526-0.29978 1.6784-0.85451 2.4717-1.3672 0.49849-0.32202 1.2912-0.75715 1.7616-0.96638 0.93084-0.41412 1.0847-0.5946 0.84431-0.98801-0.27042-0.44163-1.3499-0.65827-3.177-0.63725l-1.7569 0.0198-0.21787-0.99729a109.13 109.13 0 0 0-0.5603-2.3781c-0.31708-1.2816-0.70153-1.942-1.0563-1.9284z" style="fill:#fff"/><path d="m148.3 481.16c-0.16874 6e-3 -0.32759 0.23178-0.45553 0.68855-0.0612 0.21756-0.23611 0.71482-0.38878 1.1045-0.15267 0.39002-0.35262 1.044-0.4444 1.4534l-0.16658 0.74479-1.1843-0.25712c-1.9655-0.42648-2.9742-0.60573-3.079-0.54608-0.0544 0.0309-0.1091 0.18295-0.12239 0.33747-0.0334 0.39651 0.58101 1.1543 1.9974 2.4631 1.0875 1.005 1.1564 1.0847 1.1262 1.3153-0.0176 0.13505-0.27721 1.0217-0.57636 1.9695-0.29916 0.94815-0.53156 1.7721-0.51611 1.8314 0.0155 0.0593 0.18265 0.11002 0.37178 0.11435 0.33686 5e-3 0.36128-0.0139 1.1874-0.91044 0.46388-0.50375 1.0208-1.0888 1.2374-1.3011l0.39342-0.38538 1.1558 1.1673c0.98585 0.99512 1.1997 1.1753 1.4494 1.2223 0.52105 0.098 0.5535-0.12114 0.18419-1.2349-0.18975-0.57173-0.43359-1.2037-0.54144-1.4046-0.32852-0.60974-0.62273-1.8768-0.45337-1.9519 0.46913-0.20829 1.1663-0.59398 1.7174-0.95 0.34613-0.22375 0.89684-0.52599 1.2235-0.67124 0.64652-0.28803 0.75314-0.4132 0.58595-0.68608-0.18759-0.30719-0.93702-0.45739-2.2063-0.44286l-1.2204 0.0139-0.15143-0.69226a76.173 76.173 0 0 0-0.3894-1.6522c-0.22035-0.89004-0.48736-1.3493-0.73398-1.34z" style="fill:#fff"/><path d="m342.92 539.71c-0.55954 0.03-4.8026 7.3807-5.9877 10.373-0.76149 1.9217-2.5807 8.1251-3.2603 11.118-1.0162 4.4776-0.0514 10.44 2.5533 15.783 1.2636 2.5906 5.3823 7.8794 8.1191 10.426 3.7568 3.4961 7.2491 5.9551 10.908 7.6809 6.4662 3.0502 12.624 3.9528 17.553 2.5726 1.297-0.36274 3.1664-1.0663 4.1526-1.5633 2.3068-1.162 4.5475-2.0426 5.7081-2.2433 1.7348-0.30014 4.4956-1.4214 5.9307-2.4088 1.7451-1.2005 3.5622-2.7732 3.5622-3.0815 0-0.12434-2.42-0.40732-5.3784-0.62899-4.0064-0.30014-6.4143-0.66244-9.4328-1.4192-8.631-2.1644-14.31-4.2705-17.9-6.6368-2.1327-1.4064-6.3483-5.5358-8.0256-7.8627-1.8608-2.5807-4.9274-8.0213-5.7128-10.135-1.6216-4.3618-2.203-8.0273-2.4097-15.202-0.10719-3.7302-0.27784-6.7775-0.37988-6.7723z" style="fill:#fff"/><path d="m365.21 423.95c-0.2491 9e-3 -0.4839 0.34242-0.6731 1.0168-0.09 0.3214-0.3483 1.056-0.5739 1.6318s-0.521 1.5415-0.6561 2.1463l-0.2463 1.1002-1.7489-0.38012c-2.9028-0.62984-4.3924-0.89407-4.5466-0.8063-0.081 0.0457-0.1623 0.26949-0.1811 0.49756-0.049 0.58564 0.8579 1.7047 2.9498 3.6378 1.6058 1.484 1.7072 1.6018 1.6627 1.9423-0.026 0.19965-0.4089 1.5081-0.8508 2.9081-0.442 1.4-0.785 2.6176-0.7624 2.7054 0.023 0.0878 0.2698 0.16349 0.5491 0.16781 0.4976 8e-3 0.5334-0.0195 1.7535-1.3434 0.6852-0.74356 1.5073-1.6083 1.8271-1.9213l0.581-0.56988 1.7078 1.7238c1.4556 1.4692 1.7711 1.7356 2.1398 1.8048 0.7695 0.14463 0.8181-0.17801 0.272-1.8227-0.2797-0.84462-0.6397-1.7776-0.7995-2.074-0.4852-0.90086-0.9194-2.7724-0.6694-2.8834 0.6929-0.30781 1.722-0.87707 2.5357-1.4031 0.5115-0.33037 1.3246-0.77632 1.8067-0.99111 0.9549-0.42493 1.1131-0.60974 0.8662-1.0134-0.2772-0.45306-1.3848-0.67496-3.2588-0.65363l-1.8024 0.0204-0.2234-1.0223a111.98 111.98 0 0 0-0.5749-2.4399c-0.3251-1.3147-0.7197-1.9924-1.0838-1.9785z" style="fill:#fff"/><path d="m470.47 272.08c-0.34551-0.0201-0.83751 0.28586-1.4578 0.9466-0.34922 0.37178-1.2182 1.1843-1.9309 1.8054-0.71265 0.62087-1.7955 1.7208-2.4065 2.4452l-1.1107 1.3168-2.1015-1.7504c-3.4891-2.9056-5.3217-4.3167-5.5931-4.3072-0.14154 5e-3 -0.4101 0.25094-0.59708 0.54608-0.48087 0.75963-0.0417 2.918 1.4269 7.0165 1.128 3.1461 1.1809 3.3778 0.88016 3.808-0.17616 0.25187-1.6194 1.7554-3.2079 3.3402-1.5885 1.5854-2.9143 2.9925-2.9458 3.1275-0.0312 0.13474 0.24971 0.41196 0.6252 0.61562 0.66877 0.36251 0.73707 0.35014 3.3266-0.58193 1.4544-0.52352 3.1794-1.1147 3.834-1.3128l1.1904-0.36097 1.0962 3.5432c0.93424 3.02 1.1744 3.605 1.6246 3.9595v-3.1e-4c0.94073 0.73985 1.2346 0.33624 1.6577-2.2786 0.21695-1.3425 0.38847-2.8618 0.38198-3.376-0.0207-1.5638 0.71389-4.4079 1.1311-4.3816 1.1564 0.0729 2.9535 0.0287 4.428-0.10848 0.92682-0.0865 2.3438-0.1162 3.1492-0.0664 1.5947 0.0989 1.9399-0.0402 1.8904-0.76179-0.0556-0.8097-1.3997-1.8938-3.9548-3.1893l-2.4572-1.2461 0.4203-1.544c0.23086-0.84926 0.65579-2.5203 0.94506-3.7132 0.53959-2.2239 0.41505-3.4526-0.24446-3.4913z" style="fill:#fff"/><path d="m230.51 368.33c-0.81712 0.0247-1.1577 0.98369-0.83844 2.3592 0.15761 0.68021 0.30657 1.6503 0.33068 2.1562l0.0433 0.91972-1.9868 0.64776a268.22 268.22 0 0 1-2.8599 0.91693c-0.47963 0.14834-1.162 0.52785-1.5168 0.84369-0.47036 0.41937-0.6014 0.704-0.48458 1.0535 0.14216 0.42494 0.52291 0.50282 3.3976 0.69103 1.7807 0.11651 3.8436 0.34458 4.5838 0.50652l1.3453 0.29452-0.22499 0.99049c-0.12392 0.54484-0.32758 1.9297-0.45274 3.0778-0.12517 1.1481-0.33686 2.5889-0.46975 3.202-0.34119 1.5761-0.14525 2.4523 0.55906 2.4977 0.31522 0.0204 0.81588-0.1675 1.1632-0.43637 0.84586-0.65456 3.3-3.7889 3.5308-4.5102l0.19037-0.59337 1.7891 0.76427c2.752 1.1753 5.1864 1.8246 5.9846 1.5965 0.62304-0.1777 0.67187-0.26176 0.52383-0.90364-0.16225-0.70586-0.75097-1.5638-3.5002-5.1039l-1.4556-1.875 0.73923-0.96267c0.4064-0.52971 1.1478-1.7974 1.6472-2.8169 0.80197-1.6373 0.86841-1.9099 0.57266-2.3342-0.2732-0.39218-0.50158-0.45028-1.2427-0.31461-0.96422 0.17677-6.1549 1.7563-6.7134 2.0428-0.19964 0.1026-0.46727-0.01-0.67588-0.28432-2.1648-2.8482-3.5939-4.4379-3.9789-4.4255z" style="fill:#fff"/><path d="m540.6 589.56c-0.14216 5e-3 -0.27597 0.19562-0.38383 0.58069-0.0513 0.18327-0.19902 0.60202-0.32759 0.93053a10.118 10.118 0 0 0-0.37487 1.2254l-0.13999 0.62736-0.99822-0.21634c-1.6571-0.35941-2.507-0.51054-2.595-0.46047-0.0464 0.0263-0.0924 0.15359-0.10322 0.2837-0.0281 0.33439 0.48952 0.97349 1.6834 2.0765 0.91663 0.84678 0.97411 0.91446 0.94877 1.1088-0.0148 0.11373-0.23302 0.86069-0.4852 1.6596-0.25218 0.79919-0.44812 1.4936-0.43514 1.5437 0.0127 0.0501 0.1536 0.0918 0.31307 0.0958 0.28432 5e-3 0.30471-0.0114 1.001-0.76705 0.39094-0.42432 0.86038-0.91755 1.043-1.0962l0.3313-0.32542 0.97473 0.98399c0.83071 0.83844 1.0106 0.9908 1.221 1.0304 0.43915 0.0825 0.46666-0.10199 0.15514-1.0406-0.15978-0.4821-0.36529-1.0146-0.45615-1.1836-0.2769-0.51425-0.52414-1.5823-0.38167-1.6454 0.39558-0.17553 0.98276-0.50065 1.447-0.80042 0.29173-0.18852 0.75592-0.44317 1.031-0.56555 0.54515-0.24291 0.63539-0.3486 0.49447-0.57884-0.15823-0.25867-0.79023-0.38538-1.8598-0.37302l-1.0285 0.0114-0.12794-0.58379a63.923 63.923 0 0 0-0.32759-1.3926c-0.18605-0.75036-0.41103-1.1367-0.61902-1.1286z" style="fill:#fff"/><path d="m203.42 394.05a0.43266 0.43266 0 0 0-0.1731 0.0457c-0.2256 0.10291-0.2766 0.21416-0.2766 0.60449 0 0.50745 0.3196 3.299 0.4132 3.6099 0.034 0.11126-0.048 0.23673-0.2073 0.3177-1.6534 0.83658-2.596 1.416-2.626 1.6132-0.063 0.41876 0.3928 0.68206 1.1234 0.64776 0.3613-0.017 0.8693-2e-3 1.1295 0.0331l0.4726 0.0634 0.1443 1.0727c0.079 0.59028 0.169 1.2841 0.1996 1.5421 0.031 0.25836 0.1607 0.64158 0.2887 0.85173 0.1693 0.27876 0.3022 0.37209 0.4914 0.3452 0.2296-0.0324 0.3044-0.21911 0.6687-1.6658 0.2256-0.89622 0.5347-1.926 0.6861-2.2875l0.276-0.65827 0.4833 0.20706c0.2658 0.11435 0.9525 0.34768 1.5255 0.51858 0.573 0.17121 1.2875 0.41288 1.5875 0.53774 0.7711 0.3214 1.2353 0.30348 1.3243-0.0513 0.04-0.15854-0.01-0.43081-0.1134-0.63293-0.2547-0.492-1.6222-2.035-1.968-2.2202l-0.2846-0.15205 0.5562-0.84029c0.8561-1.2921 1.4142-2.4711 1.3728-2.8988-0.033-0.33407-0.071-0.36683-0.4116-0.35138-0.3749 0.0167-0.8669 0.23611-2.927 1.306l-1.0909 0.56617-0.4219-0.46604c-0.2317-0.25651-0.8078-0.75252-1.2806-1.102-0.5693-0.42092-0.7866-0.55968-0.9621-0.55597z" style="fill:#fff"/><path d="m818.02 230.45-0.14216 1.0906c-0.0776 0.59954-0.29668 2.1448-0.48643 3.4332-0.18976 1.2887-0.37086 2.9069-0.40176 3.5964-0.0309 0.68917-0.0726 1.4068-0.0927 1.5947-0.0201 0.19161-1.1697 0.92713-2.6207 1.6769-2.871 1.4834-2.867 1.4606-0.33593 2.125 0.86718 0.22777 1.9155 0.67279 2.3296 0.98894 0.73552 0.56061 0.75715 0.62489 0.89622 2.6661 0.0788 1.1503 0.2083 2.6896 0.28742 3.4205l0.1437 1.3286 0.5022-1.3351c0.27628-0.7346 0.78188-1.8892 1.124-2.5654 0.86656-1.713 2.2656-3.7308 2.7029-3.8986 0.2015-0.0773 0.53774-0.14092 0.74727-0.14092 0.40331 0 3.9171 1.4241 6.8305 2.7678 0.95804 0.44193 1.7421 0.76643 1.7421 0.72223 0-0.33469-2.3648-3.9388-3.3151-5.0529-0.73336-0.85914-1.1799-1.5925-1.1799-1.9386 0-0.41072 0.82824-1.4133 3.164-3.829 1.7402-1.8002 3.1195-3.3173 3.0651-3.3717-0.16194-0.16225-3.5398 1.2078-4.428 1.7956-0.7655 0.50683-4.8106 1.9396-5.4753 1.9396-0.57235 0-1.9411-1.65-2.4059-2.8998-0.58997-1.5863-1.357-2.905-2.0854-3.5855z" style="fill:#fff"/><path d="m489.15 129.51a0.65888 0.65888 0 0 0-0.1412 0.0278c-0.2596 0.0782-0.5532 0.21725-0.6527 0.30904-0.2046 0.18914-0.7356 3.3006-1.1287 6.6191l-0.2636 2.2285-2.3601 0.40021c-3.5605 0.60418-5.4117 1.0263-5.6806 1.2955-0.1731 0.17307-0.1205 0.37642 0.1854 0.71452 0.5174 0.57173 4.0377 2.7752 4.8221 3.0181 0.3084 0.0955 1.0918 0.36993 1.7408 0.61006l1.1799 0.43698 0.016 1.6135c0.032 3.1717 0.3344 5.5124 0.7764 6.0023v9.3e-4c0.2286 0.25249 0.5735 0.42926 0.7664 0.39248 0.4697-0.0902 1.3567-1.7591 2.6052-4.9008 0.5662-1.4253 1.1064-2.715 1.1991-2.8661 0.1762-0.28493 2.1874 0.0952 5.7621 1.0885 2.0691 0.57482 3.4076 0.58038 3.5868 0.0154 0.1567-0.49416-0.203-1.5381-0.7371-2.1395-0.2076-0.23395-1.0476-1.0053-1.8675-1.7143l-1.4902-1.2887 2.4383-2.3027c1.3413-1.2665 2.5021-2.5002 2.5787-2.7415 0.2738-0.86223-0.082-1.4989-0.9905-1.7708-0.9676-0.2905-2.773 0.0933-6.3153 1.3422-1.044 0.36776-1.9717 0.62365-2.0619 0.56802-0.09-0.0556-0.3375-0.63138-0.5495-1.2791-0.4892-1.4958-1.0461-2.6139-2.1831-4.3838-0.6604-1.0282-0.9179-1.3184-1.2356-1.2955z" style="fill:#fff"/><path d="m353.01 478.91c-0.2151 8e-3 -0.4181 0.29668-0.581 0.87892-0.078 0.27752-0.301 0.91106-0.4957 1.4083-0.1947 0.49694-0.4499 1.3314-0.5668 1.8536l-0.2126 0.94939-1.5093-0.32759c-2.5064-0.54392-3.7926-0.77261-3.9258-0.69689-0.07 0.0396-0.14 0.23301-0.1564 0.42988-0.042 0.5059 0.7411 1.4723 2.5471 3.1411 1.3864 1.2813 1.4736 1.3827 1.4352 1.6769-0.022 0.17213-0.3529 1.3023-0.7346 2.511-0.3813 1.2084-0.6777 2.26-0.6582 2.3358 0.019 0.076 0.2324 0.14092 0.4737 0.14525 0.4296 7e-3 0.4611-0.0179 1.5143-1.1611 0.5919-0.64189 1.3011-1.3882 1.5774-1.6586l0.5022-0.49138 1.4741 1.488c1.2566 1.2683 1.5298 1.4986 1.8481 1.5585 0.6645 0.12485 0.7059-0.1536 0.2349-1.5737-0.242-0.72934-0.5529-1.535-0.6907-1.7909-0.4188-0.77755-0.7943-2.3939-0.5782-2.49 0.5983-0.26547 1.4865-0.75685 2.1892-1.2108 0.4416-0.28525 1.1435-0.67063 1.5598-0.85606 0.8245-0.36683 0.9611-0.52661 0.7479-0.8749-0.2396-0.39125-1.1954-0.58286-2.8136-0.56432l-1.556 0.0173-0.1932-0.88232a96.937 96.937 0 0 0-0.496-2.1068c-0.2812-1.1351-0.6211-1.7208-0.9358-1.7087z" style="fill:#fff"/><path d="m653.7 141.01c-0.15854 4e-3 -0.44317 0.14092-0.68052 0.33377-0.69751 0.56679-0.96854 2.753-0.8817 7.1058 0.0667 3.3417 0.0439 3.5781-0.37858 3.8902-0.24724 0.18234-2.095 1.1472-4.1057 2.1438-2.0106 0.99667-3.7153 1.9084-3.7883 2.0264-0.0726 0.11774 0.10631 0.47005 0.39743 0.78281 0.51827 0.55627 0.58688 0.56709 3.3383 0.50806 1.5452-0.0328 3.3689-0.0433 4.0528-0.0229l1.2433 0.0371-0.0899 3.7076c-0.0763 3.1603-0.0349 3.791 0.27937 4.2707 0.6561 1.001 1.0631 0.71173 2.2968-1.6324 0.63354-1.2031 1.2804-2.5889 1.4377-3.0787 0.4784-1.489 2.0802-3.9511 2.4677-3.7932 1.0727 0.4376 2.7904 0.96792 4.2318 1.3072 0.9058 0.21324 2.2591 0.63664 3.0064 0.94073 1.4806 0.6014 1.8512 0.57946 2.0344-0.12052 0.2052-0.78498-0.72317-2.2406-2.7326-4.2827l-1.9328-1.9637 0.89005-1.3298c0.48953-0.7312 1.4247-2.1797 2.0789-3.2184 1.8589-2.9501 1.5196-4.2015-0.80259-2.9545-0.44965 0.24105-1.5319 0.7346-2.4056 1.0962-0.87336 0.36158-2.2505 1.06-3.0602 1.5517l-1.4723 0.89406-1.4352-2.329c-2.3818-3.8655-3.6693-5.7866-3.9295-5.8638a0.19377 0.19377 0 0 0-0.0596-7e-3z" style="fill:#fff"/><path d="m478.46 704.46c-0.1687 6e-3 -0.3276 0.23178-0.4555 0.68855-0.061 0.21756-0.2361 0.71482-0.3888 1.1045-0.1526 0.39002-0.3526 1.044-0.4444 1.4534l-0.1666 0.74479-1.1842-0.25712c-1.9655-0.42648-2.9743-0.60573-3.079-0.54608-0.054 0.0309-0.1091 0.18295-0.1224 0.33747-0.033 0.39651 0.581 1.1543 1.9974 2.4631 1.0875 1.005 1.1564 1.0847 1.1261 1.3153-0.018 0.13505-0.2772 1.0217-0.5764 1.9695-0.2991 0.94815-0.5315 1.7721-0.5161 1.8314 0.015 0.0593 0.1827 0.11002 0.3718 0.11435 0.3369 5e-3 0.3613-0.0139 1.1874-0.91044 0.4638-0.50375 1.0207-1.0888 1.2374-1.3011l0.3934-0.38538 1.1558 1.1673c0.9859 0.99512 1.1997 1.1753 1.4494 1.2223 0.5211 0.098 0.5535-0.12114 0.1842-1.2349-0.1897-0.57173-0.4336-1.2037-0.5414-1.4046-0.3285-0.60974-0.6227-1.8768-0.4534-1.9519 0.4691-0.20829 1.1663-0.59398 1.7174-0.95 0.3461-0.22375 0.8968-0.52599 1.2235-0.67124 0.6465-0.28803 0.7531-0.4132 0.5859-0.68608-0.1876-0.30719-0.937-0.45739-2.2062-0.44286l-1.2205 0.0139-0.1514-0.69226a76.173 76.173 0 0 0-0.3894-1.6522c-0.2203-0.89004-0.4873-1.3493-0.734-1.34z" style="fill:#fff"/><path d="m293.6 353.78a0.38291 0.38291 0 0 0-0.1595 0.0362c-0.1959 0.0865-0.3955 0.57296-0.649 1.5795-0.194 0.77323-0.2138 0.82577-0.3306 0.8712-0.068 0.0266-0.5541 0.13227-1.0792 0.23549-0.5251 0.10291-0.9741 0.20582-0.9982 0.22869-0.024 0.0226-0.01 0.11435 0.042 0.20459 0.084 0.1607 0.1 0.1675 0.7364 0.32666 0.3576 0.0893 0.7773 0.20088 0.9333 0.24847l0.2837 0.0868-0.2531 0.84771c-0.2157 0.72193-0.2453 0.86934-0.2033 0.99945 0.088 0.27134 0.1993 0.23055 0.6304-0.23117 0.221-0.23703 0.4568-0.51517 0.5236-0.61808 0.2036-0.31245 0.7268-0.77818 0.8059-0.7176 0.2195 0.16781 0.581 0.39743 0.8916 0.56616 0.1947 0.1057 0.4797 0.28834 0.6327 0.40485 0.3028 0.23148 0.3893 0.24909 0.4756 0.0998 0.096-0.16781-0.027-0.56091-0.3604-1.1568l-0.3214-0.57266 0.288-0.25032c0.1586-0.13784 0.4649-0.41196 0.6803-0.60975 0.6119-0.56215 0.6125-0.8715 0-0.73058-0.1184 0.0275-0.3987 0.0729-0.6222 0.10137-0.2237 0.0284-0.584 0.10322-0.801 0.16565l-0.3946 0.1128-0.1842-0.62551c-0.3057-1.0384-0.4812-1.561-0.5362-1.5953a0.068917 0.068917 0 0 0-0.031-8e-3z" style="fill:#fff"/><path d="m472.08 361.43c-0.2491 9e-3 -0.4839 0.34242-0.6731 1.0168-0.09 0.3214-0.3483 1.056-0.5739 1.6318s-0.521 1.5415-0.6561 2.1463l-0.2463 1.1002-1.7488-0.38012c-2.9029-0.62984-4.3925-0.89407-4.5467-0.8063-0.081 0.0457-0.1623 0.26949-0.1811 0.49756-0.049 0.58564 0.8579 1.7047 2.9498 3.6378 1.6058 1.484 1.7072 1.6018 1.6627 1.9423-0.026 0.19965-0.4089 1.5081-0.8508 2.9081-0.442 1.4-0.785 2.6176-0.7624 2.7054 0.023 0.0878 0.2698 0.16349 0.5491 0.16781 0.4976 8e-3 0.5334-0.0195 1.7536-1.3434 0.6851-0.74356 1.5072-1.6083 1.827-1.9213l0.581-0.56988 1.7078 1.7238c1.4556 1.4692 1.7711 1.7356 2.1398 1.8048 0.7695 0.14463 0.8181-0.17801 0.272-1.8227-0.2797-0.84462-0.6397-1.7776-0.7995-2.074-0.4852-0.90086-0.9194-2.7724-0.6694-2.8834 0.6929-0.30781 1.722-0.87707 2.5357-1.4031 0.5115-0.33037 1.3246-0.77632 1.8067-0.99111 0.9549-0.42493 1.1132-0.60974 0.8662-1.0134-0.2772-0.45306-1.3848-0.67496-3.2588-0.65363l-1.8024 0.0204-0.2234-1.0223a111.98 111.98 0 0 0-0.5748-2.4399c-0.3252-1.3147-0.7198-1.9924-1.0839-1.9785z" style="fill:#fff"/><path d="m1033.6 402.66c-0.1422 5e-3 -0.276 0.19562-0.3839 0.58069-0.051 0.18327-0.199 0.60202-0.3275 0.93053a10.118 10.118 0 0 0-0.3749 1.2254l-0.14 0.62736-0.9982-0.21634c-1.6571-0.35941-2.507-0.51054-2.5951-0.46047-0.046 0.0263-0.092 0.15359-0.1032 0.2837-0.028 0.33439 0.4895 0.97349 1.6834 2.0765 0.9166 0.84678 0.9741 0.91446 0.9487 1.1088-0.015 0.11373-0.233 0.86069-0.4852 1.6596-0.2521 0.79919-0.4481 1.4936-0.4351 1.5437 0.013 0.0501 0.1536 0.0918 0.3131 0.0958 0.2843 5e-3 0.3047-0.0114 1.001-0.76705 0.3909-0.42432 0.8603-0.91755 1.043-1.0962l0.3313-0.32542 0.9747 0.98399c0.8307 0.83844 1.0106 0.9908 1.221 1.0304 0.4392 0.0825 0.4667-0.10199 0.1552-1.0406-0.1598-0.4821-0.3653-1.0146-0.4562-1.1836-0.2769-0.51425-0.5241-1.5823-0.3816-1.6454 0.3955-0.17553 0.9827-0.50065 1.4469-0.80042 0.2917-0.18852 0.7559-0.44317 1.031-0.56555 0.5451-0.24291 0.6354-0.3486 0.4945-0.57884-0.1583-0.25867-0.7903-0.38538-1.8599-0.37302l-1.0285 0.0114-0.1279-0.58379a63.923 63.923 0 0 0-0.3276-1.3926c-0.1861-0.75036-0.411-1.1367-0.619-1.1286z" style="fill:#fff"/><path d="m991.63 451.31c-0.3808 0.0145-0.7402 0.52445-1.0291 1.5557-0.1376 0.49138-0.5319 1.6132-0.8768 2.4934-0.3449 0.88015-0.7964 2.3565-1.0031 3.2811l-0.3762 1.6812-2.6732-0.58008c-4.4376-0.96329-6.7146-1.3672-6.9504-1.2331-0.1236 0.0698-0.2472 0.41195-0.2766 0.76025-0.075 0.89592 1.3119 2.6065 4.5093 5.5612 2.455 2.2684 2.6089 2.4489 2.5413 2.9696-0.04 0.30472-0.6246 2.3049-1.3002 4.445-0.6756 2.1398-1.2003 4.0009-1.1657 4.135 0.035 0.13443 0.4123 0.24971 0.839 0.25651 0.7606 0.0124 0.8159-0.03 2.6807-2.0539 1.0477-1.1364 2.3042-2.4581 2.7928-2.9365l0.8885-0.87027 2.6102 2.6346c2.2248 2.2458 2.7079 2.6532 3.2716 2.7592 1.1759 0.22128 1.2497-0.27258 0.4156-2.787-0.428-1.2906-0.9784-2.7174-1.2222-3.1708-0.7414-1.3765-1.4053-4.2376-1.023-4.4073 1.0591-0.47005 2.6318-1.3403 3.8754-2.1441 0.7819-0.50498 2.0246-1.1861 2.7616-1.5143 1.46-0.64992 1.7013-0.93331 1.3237-1.5502-0.4234-0.69226-2.116-1.0322-4.9809-0.99945l-2.7548 0.0315-0.3415-1.5628c-0.1879-0.85976-0.5838-2.5382-0.8789-3.7296-0.4976-2.01-1.1002-3.0459-1.6568-3.0249z" style="fill:#fff"/><path d="m751.65 441.51a0.43266 0.43266 0 0 0-0.1731 0.0457c-0.2256 0.10291-0.2765 0.21416-0.2765 0.60449 0 0.50745 0.3195 3.299 0.4131 3.6099 0.034 0.11126-0.048 0.23673-0.2073 0.3177-1.6534 0.83658-2.596 1.416-2.626 1.6132-0.063 0.41876 0.3928 0.68206 1.1234 0.64776 0.3613-0.017 0.8693-2e-3 1.1296 0.0331l0.4725 0.0634 0.1443 1.0727c0.079 0.59028 0.1691 1.2841 0.1997 1.5421 0.031 0.25836 0.1607 0.64158 0.2886 0.85173 0.1694 0.27876 0.3022 0.37209 0.4914 0.3452 0.2296-0.0324 0.3044-0.21911 0.6688-1.6658 0.2256-0.89622 0.5346-1.926 0.686-2.2875l0.276-0.65827 0.4834 0.20706c0.2657 0.11435 0.9524 0.34768 1.5254 0.51858 0.573 0.17121 1.2875 0.41288 1.5876 0.53774 0.771 0.3214 1.2352 0.30348 1.3242-0.0513 0.04-0.15854-0.01-0.43081-0.1134-0.63293-0.2547-0.492-1.6222-2.035-1.968-2.2202l-0.2846-0.15205 0.5562-0.84029c0.8561-1.2921 1.4142-2.4711 1.3728-2.8988-0.033-0.33407-0.071-0.36683-0.4116-0.35138-0.3749 0.0167-0.8669 0.23611-2.927 1.306l-1.0909 0.56617-0.4219-0.46604c-0.2317-0.25651-0.8078-0.75252-1.2806-1.102-0.5693-0.42092-0.7866-0.55968-0.9621-0.55597z" style="fill:#fff"/><path d="m920.86 353.34c-0.1422 6e-3 -0.2769 0.19624-0.3851 0.58193-0.051 0.18388-0.1993 0.60387-0.3282 0.93331a10.126 10.126 0 0 0-0.3755 1.2275l-0.1406 0.62921-1.0001-0.21695c-1.6608-0.36034-2.5125-0.51178-2.6009-0.46171-0.046 0.0263-0.093 0.15452-0.1038 0.28494-0.028 0.33531 0.4911 0.97565 1.6874 2.0814 0.9188 0.84864 0.9765 0.91632 0.9515 1.111-0.015 0.11434-0.2342 0.86285-0.487 1.6636s-0.4488 1.4973-0.4358 1.5477c0.013 0.0501 0.1539 0.0918 0.3137 0.0958 0.2843 5e-3 0.3053-0.0114 1.0031-0.7689 0.3919-0.42525 0.862-0.92003 1.0446-1.0993l0.3329-0.32512 0.9772 0.98585c0.8325 0.84029 1.0133 0.99296 1.2241 1.0325 0.4401 0.0828 0.4679-0.10168 0.1557-1.0424-0.1601-0.48303-0.3662-1.0171-0.4574-1.1867-0.2775-0.51517-0.5259-1.586-0.3829-1.6497 0.3965-0.17584 0.985-0.50126 1.4507-0.80197 0.2924-0.18913 0.7572-0.44409 1.0331-0.56678 0.5464-0.24353 0.637-0.34922 0.4957-0.58008-0.1585-0.25929-0.7924-0.38661-1.8644-0.37425l-1.031 0.0114-0.1279-0.58502a63.902 63.902 0 0 0-0.3286-1.3956c-0.186-0.75191-0.4119-1.1394-0.6205-1.1317z" style="fill:#fff"/><path d="m141.44 374.17-0.14216 1.0906c-0.0776 0.59954-0.29668 2.1448-0.48643 3.4332-0.18976 1.2887-0.37086 2.9069-0.40176 3.5964-0.0309 0.68917-0.0726 1.4068-0.0927 1.5947-0.0201 0.19161-1.1697 0.92713-2.6207 1.6769-2.871 1.4834-2.867 1.4606-0.33593 2.125 0.86718 0.22777 1.9155 0.67279 2.3296 0.98894 0.73552 0.56061 0.75715 0.62489 0.89622 2.6661 0.0788 1.1503 0.2083 2.6896 0.28742 3.4205l0.1437 1.3286 0.5022-1.3351c0.27628-0.7346 0.78188-1.8892 1.124-2.5654 0.86656-1.713 2.2656-3.7308 2.7029-3.8986 0.2015-0.0773 0.53774-0.14092 0.74727-0.14092 0.40331 0 3.9171 1.4241 6.8305 2.7678 0.95804 0.44193 1.7421 0.76643 1.7421 0.72223 0-0.33469-2.3648-3.9388-3.3151-5.0529-0.73336-0.85914-1.1799-1.5925-1.1799-1.9386 0-0.41072 0.82824-1.4133 3.164-3.829 1.7402-1.8002 3.1195-3.3173 3.0651-3.3717-0.1619-0.16225-3.5398 1.2078-4.428 1.7956-0.7655 0.50683-4.8106 1.9396-5.4753 1.9396-0.57235 0-1.9411-1.65-2.4059-2.8998-0.58997-1.5863-1.357-2.905-2.0854-3.5855z" style="fill:#fff"/><path d="m431.6 201.6a0.65888 0.65888 0 0 0-0.14124 0.0278c-0.25959 0.0782-0.55319 0.21725-0.6527 0.30904-0.20458 0.18914-0.73552 3.3006-1.1286 6.6191l-0.26361 2.2285-2.3602 0.40021c-3.5605 0.60418-5.4117 1.0263-5.6806 1.2955-0.17306 0.17307-0.12052 0.37642 0.18543 0.71452 0.51734 0.57174 4.0377 2.7752 4.822 3.0181 0.30842 0.0955 1.0918 0.36993 1.7408 0.61006l1.1799 0.43698 0.0158 1.6135c0.0315 3.1717 0.33438 5.5124 0.77632 6.0022v9.3e-4c0.22869 0.25249 0.57358 0.42926 0.76643 0.39248 0.46974-0.0902 1.3567-1.7591 2.6052-4.9008 0.56617-1.4253 1.1064-2.715 1.1991-2.8661 0.17616-0.28493 2.1874 0.0952 5.7621 1.0885 2.069 0.57482 3.4075 0.58038 3.5868 0.0154 0.15668-0.49416-0.20304-1.5381-0.73707-2.1395-0.20768-0.23395-1.0477-1.0053-1.8676-1.7143l-1.4902-1.2887 2.4384-2.3027c1.3412-1.2665 2.502-2.5002 2.5787-2.7415 0.27381-0.86223-0.0825-1.4989-0.99049-1.7708-0.96762-0.2905-2.773 0.0933-6.3153 1.3422-1.044 0.36776-1.9717 0.62365-2.0619 0.56802-0.0902-0.0556-0.33748-0.63138-0.54948-1.2791-0.48922-1.4958-1.0461-2.6139-2.1831-4.3838-0.66043-1.0282-0.91786-1.3184-1.2356-1.2955z" style="fill:#fff"/><path d="m404.62 329.81c-0.2151 8e-3 -0.41814 0.29668-0.58101 0.87892-0.0779 0.27752-0.301 0.91106-0.4957 1.4083-0.1947 0.49694-0.44997 1.3314-0.56679 1.8536l-0.21262 0.94939-1.5094-0.32759c-2.5064-0.54392-3.7926-0.77261-3.9258-0.69689-0.0698 0.0396-0.14 0.23301-0.15638 0.42988-0.0423 0.5059 0.74109 1.4723 2.5471 3.1411 1.3864 1.2813 1.4735 1.3827 1.4352 1.6769-0.0222 0.17213-0.35292 1.3023-0.73459 2.511-0.38136 1.2084-0.67774 2.26-0.65827 2.3358 0.0195 0.076 0.2324 0.14092 0.47377 0.14525 0.42957 7e-3 0.46109-0.0179 1.5143-1.1611 0.59182-0.64189 1.3011-1.3882 1.5774-1.6586l0.50219-0.49138 1.4741 1.488c1.2566 1.2683 1.5298 1.4986 1.8481 1.5585 0.66444 0.12485 0.70586-0.1536 0.23487-1.5737-0.24198-0.72934-0.55288-1.535-0.69071-1.7909-0.41876-0.77755-0.79425-2.3939-0.57822-2.49 0.59831-0.26547 1.4865-0.75685 2.1893-1.2108 0.44162-0.28525 1.1435-0.67063 1.5597-0.85606 0.82453-0.36683 0.96113-0.52661 0.74789-0.8749-0.23951-0.39125-1.1954-0.58286-2.8135-0.56432l-1.556 0.0173-0.19315-0.88232a96.937 96.937 0 0 0-0.49602-2.1068c-0.28123-1.1351-0.62117-1.7208-0.93578-1.7087z" style="fill:#fff"/><path d="m682.33 527.51c-0.1585 4e-3 -0.4432 0.14092-0.6805 0.33377-0.6975 0.56679-0.9686 2.753-0.8817 7.1058 0.067 3.3417 0.044 3.5781-0.3786 3.8902-0.2472 0.18234-2.095 1.1472-4.1057 2.1438-2.0106 0.99667-3.7153 1.9084-3.7882 2.0264-0.073 0.11774 0.1063 0.47005 0.3974 0.78281 0.5183 0.55627 0.5869 0.56709 3.3383 0.50806 1.5452-0.0328 3.3689-0.0433 4.0528-0.0229l1.2433 0.0371-0.09 3.7076c-0.076 3.1603-0.035 3.791 0.2794 4.2707 0.6561 1.001 1.0631 0.71173 2.2968-1.6324 0.6335-1.2031 1.2804-2.5889 1.4377-3.0787 0.4784-1.489 2.0801-3.9511 2.4677-3.7932 1.0727 0.4376 2.7903 0.96792 4.2317 1.3072 0.9058 0.21324 2.2591 0.63664 3.0064 0.94073 1.4806 0.6014 1.8512 0.57946 2.0344-0.12052 0.2052-0.78498-0.7231-2.2406-2.7325-4.2827l-1.9328-1.9637 0.8901-1.3298c0.4895-0.7312 1.4247-2.1797 2.0789-3.2184 1.8589-2.9501 1.5196-4.2015-0.8026-2.9545-0.4496 0.24105-1.5319 0.7346-2.4056 1.0962-0.8734 0.36158-2.2505 1.06-3.0601 1.5517l-1.4723 0.89406-1.4352-2.329c-2.3818-3.8655-3.6693-5.7866-3.9295-5.8638a0.19377 0.19377 0 0 0-0.06-7e-3z" style="fill:#fff"/><path d="m898.93 445.97a0.38692 0.38692 0 0 0-0.1598 0.0371c-0.1959 0.0865-0.3956 0.57173-0.6484 1.5786-0.1944 0.77323-0.2144 0.82577-0.3313 0.8712-0.068 0.0266-0.5538 0.13288-1.0785 0.2358-0.5254 0.10322-0.9751 0.20551-0.9992 0.22838-0.024 0.0226 0 0.11465 0.042 0.2052 0.084 0.16071 0.1 0.16689 0.7365 0.32605a26.08 26.08 0 0 1 0.9336 0.24909l0.2837 0.0865-0.2534 0.8474c-0.2157 0.72193-0.2457 0.86934-0.2034 0.99945 0.088 0.27134 0.2 0.23054 0.6305-0.23117 0.2216-0.23703 0.4574-0.51517 0.5241-0.61809 0.2034-0.31244 0.7263-0.77817 0.8051-0.7176 0.2194 0.16781 0.5813 0.39743 0.8916 0.56617 0.195 0.1057 0.4796 0.28834 0.6326 0.40485 0.3029 0.23147 0.3897 0.24909 0.4759 0.0998 0.096-0.16781-0.026-0.56091-0.36-1.1568l-0.3214-0.57266 0.2883-0.25002c0.1583-0.13752 0.4639-0.41226 0.6796-0.61005 0.6119-0.56215 0.6125-0.87089 0-0.72996-0.1187 0.0275-0.398 0.0729-0.6218 0.10136-0.2234 0.0284-0.5844 0.10261-0.8016 0.16503l-0.3947 0.11342-0.1842-0.62612c-0.3053-1.0384-0.4809-1.561-0.5359-1.5953a0.066135 0.066135 0 0 0-0.031-8e-3z" style="fill:#fff"/><path d="m437.5 765.53c-0.16874 6e-3 -0.32759 0.23178-0.45553 0.68855-0.0612 0.21756-0.23611 0.71482-0.38878 1.1045-0.15267 0.39002-0.35262 1.044-0.4444 1.4534l-0.16658 0.74479-1.1843-0.25712c-1.9655-0.42648-2.9742-0.60573-3.079-0.54608-0.0544 0.0309-0.1091 0.18295-0.12239 0.33747-0.0334 0.39651 0.58101 1.1543 1.9974 2.4631 1.0875 1.005 1.1564 1.0847 1.1262 1.3153-0.0176 0.13505-0.27721 1.0217-0.57636 1.9695-0.29916 0.94815-0.53156 1.7721-0.51611 1.8314 0.0155 0.0593 0.18265 0.11002 0.37178 0.11435 0.33686 5e-3 0.36128-0.0139 1.1874-0.91044 0.46388-0.50375 1.0208-1.0888 1.2374-1.3011l0.39342-0.38538 1.1558 1.1673c0.98585 0.99512 1.1997 1.1753 1.4494 1.2223 0.52105 0.098 0.5535-0.12114 0.18419-1.2349-0.18975-0.57173-0.43359-1.2037-0.54144-1.4046-0.32852-0.60974-0.62273-1.8768-0.45337-1.9519 0.46913-0.20829 1.1663-0.59398 1.7174-0.95 0.34613-0.22375 0.89684-0.52599 1.2235-0.67124 0.64652-0.28803 0.75314-0.4132 0.58595-0.68608-0.18759-0.30719-0.93702-0.45739-2.2063-0.44286l-1.2204 0.0139-0.15143-0.69226a76.173 76.173 0 0 0-0.3894-1.6522c-0.22035-0.89004-0.48736-1.3493-0.73398-1.34z" style="fill:#fff"/><path d="m732.36 350.2a0.38291 0.38291 0 0 0-0.1595 0.0362c-0.1959 0.0865-0.3956 0.57296-0.649 1.5795-0.1941 0.77323-0.2138 0.82577-0.3306 0.8712-0.068 0.0266-0.5542 0.13227-1.0792 0.23549-0.5251 0.10291-0.9741 0.20582-0.9982 0.22869-0.024 0.0226-0.01 0.11435 0.042 0.20459 0.084 0.1607 0.1 0.1675 0.7364 0.32666 0.3576 0.0893 0.7773 0.20088 0.9333 0.24847l0.2837 0.0868-0.2531 0.84771c-0.2157 0.72193-0.2454 0.86934-0.2033 0.99945 0.088 0.27134 0.1993 0.23055 0.6304-0.23117 0.221-0.23703 0.4568-0.51517 0.5235-0.61808 0.2037-0.31245 0.7269-0.77818 0.806-0.7176 0.2194 0.16781 0.581 0.39743 0.8916 0.56616 0.1947 0.1057 0.4797 0.28834 0.6326 0.40485 0.3029 0.23148 0.3894 0.24909 0.4757 0.0998 0.096-0.16781-0.027-0.56091-0.3604-1.1568l-0.3214-0.57266 0.288-0.25032c0.1586-0.13784 0.4648-0.41196 0.6802-0.60975 0.6119-0.56215 0.6126-0.8715 0-0.73058-0.1183 0.0275-0.3986 0.0729-0.6221 0.10137-0.2237 0.0284-0.5841 0.10322-0.801 0.16565l-0.3947 0.1128-0.1842-0.62551c-0.3056-1.0384-0.4811-1.561-0.5361-1.5953a0.068917 0.068917 0 0 0-0.031-8e-3z" style="fill:#fff"/><path d="m748.85 282.54c-0.2491 9e-3 -0.4839 0.34242-0.6731 1.0168-0.09 0.3214-0.3483 1.056-0.5739 1.6318s-0.521 1.5415-0.6561 2.1463l-0.2463 1.1002-1.7489-0.38012c-2.9028-0.62984-4.3924-0.89407-4.5466-0.8063-0.081 0.0457-0.1623 0.26949-0.1811 0.49756-0.049 0.58564 0.8579 1.7047 2.9498 3.6378 1.6058 1.484 1.7072 1.6018 1.6627 1.9423-0.026 0.19965-0.4089 1.5081-0.8508 2.9081-0.442 1.4-0.785 2.6176-0.7625 2.7054 0.023 0.0878 0.2698 0.16349 0.5492 0.16781 0.4976 8e-3 0.5334-0.0195 1.7535-1.3434 0.6852-0.74356 1.5072-1.6083 1.8271-1.9213l0.581-0.56988 1.7078 1.7238c1.4556 1.4692 1.7711 1.7356 2.1398 1.8048 0.7695 0.14463 0.818-0.17801 0.272-1.8227-0.2797-0.84462-0.6398-1.7776-0.7995-2.074-0.4852-0.90086-0.9194-2.7724-0.6694-2.8834 0.6929-0.30781 1.722-0.87707 2.5357-1.4031 0.5115-0.33037 1.3246-0.77632 1.8067-0.99111 0.9549-0.42493 1.1131-0.60974 0.8662-1.0134-0.2772-0.45306-1.3848-0.67496-3.2589-0.65363l-1.8023 0.0204-0.2234-1.0223a111.98 111.98 0 0 0-0.5749-2.4399c-0.3251-1.3147-0.7197-1.9924-1.0838-1.9785z" style="fill:#fff"/><path d="m173.9 619.81c-0.14216 5e-3 -0.27597 0.19562-0.38383 0.58069-0.0513 0.18327-0.19902 0.60202-0.32759 0.93053a10.118 10.118 0 0 0-0.37487 1.2254l-0.13999 0.62736-0.99822-0.21634c-1.6571-0.35941-2.507-0.51054-2.595-0.46047-0.0464 0.0263-0.0924 0.15359-0.10322 0.2837-0.0281 0.33439 0.48952 0.97349 1.6834 2.0765 0.91663 0.84678 0.97411 0.91446 0.94877 1.1088-0.0148 0.11373-0.23302 0.86069-0.4852 1.6596-0.25218 0.79919-0.44812 1.4936-0.43514 1.5437 0.0127 0.0501 0.1536 0.0918 0.31307 0.0958 0.28432 5e-3 0.30471-0.0114 1.001-0.76705 0.39094-0.42432 0.86038-0.91755 1.043-1.0962l0.3313-0.32542 0.97473 0.98399c0.83071 0.83844 1.0106 0.9908 1.221 1.0304 0.43915 0.0825 0.46666-0.10199 0.15514-1.0406-0.15978-0.4821-0.36529-1.0146-0.45615-1.1836-0.2769-0.51425-0.52414-1.5823-0.38167-1.6454 0.39558-0.17553 0.98276-0.50065 1.447-0.80042 0.29173-0.18852 0.75592-0.44317 1.031-0.56555 0.54515-0.24291 0.63539-0.3486 0.49447-0.57884-0.15823-0.25867-0.79023-0.38538-1.8598-0.37302l-1.0285 0.0114-0.12794-0.58379a63.923 63.923 0 0 0-0.32759-1.3926c-0.18605-0.75036-0.41103-1.1367-0.61902-1.1286z" style="fill:#fff"/><path d="m973.22 565.2c-0.3807 0.0145-0.7402 0.52445-1.0291 1.5557-0.1375 0.49138-0.5319 1.6132-0.8768 2.4934-0.3449 0.88015-0.7964 2.3565-1.0031 3.2811l-0.3761 1.6812-2.6733-0.58008c-4.4375-0.96329-6.7146-1.3672-6.9504-1.2331-0.1236 0.0698-0.2472 0.41195-0.2766 0.76025-0.075 0.89592 1.3119 2.6065 4.5093 5.5612 2.455 2.2684 2.609 2.4489 2.5413 2.9696-0.04 0.30472-0.6246 2.3049-1.3002 4.445-0.6755 2.1398-1.2003 4.0009-1.1657 4.135 0.035 0.13443 0.4123 0.24971 0.8391 0.25651 0.7605 0.0124 0.8158-0.03 2.6806-2.0539 1.0477-1.1364 2.3042-2.4581 2.7928-2.9365l0.8885-0.87027 2.6102 2.6346c2.2248 2.2458 2.7079 2.6532 3.2716 2.7592 1.1759 0.22128 1.2498-0.27258 0.4156-2.787-0.428-1.2906-0.9784-2.7174-1.2222-3.1708-0.7414-1.3765-1.4053-4.2376-1.023-4.4073 1.0591-0.47005 2.6319-1.3403 3.8755-2.1441 0.7818-0.50498 2.0245-1.1861 2.7616-1.5143 1.4599-0.64992 1.7013-0.93331 1.3236-1.5502-0.4234-0.69226-2.116-1.0322-4.9809-0.99945l-2.7548 0.0315-0.3415-1.5628c-0.1879-0.85976-0.5838-2.5382-0.8789-3.7296-0.4976-2.01-1.1002-3.0459-1.6568-3.0249z" style="fill:#fff"/><path d="m799.21 353.93c-0.1422 6e-3 -0.2769 0.19624-0.3851 0.58193-0.051 0.18388-0.1993 0.60387-0.3282 0.93331a10.126 10.126 0 0 0-0.3754 1.2275l-0.1406 0.62921-1.0001-0.21695c-1.6608-0.36034-2.5126-0.51178-2.601-0.46171-0.046 0.0263-0.093 0.15452-0.1038 0.28494-0.028 0.33531 0.4911 0.97565 1.6874 2.0814 0.9188 0.84864 0.9766 0.91632 0.9515 1.111-0.015 0.11434-0.2342 0.86285-0.487 1.6636s-0.4488 1.4973-0.4358 1.5477c0.013 0.0501 0.1539 0.0918 0.3137 0.0958 0.2843 5e-3 0.3053-0.0114 1.0033-0.7689 0.3918-0.42525 0.8618-0.92003 1.0444-1.0993l0.3329-0.32512 0.9772 0.98585c0.8325 0.84029 1.0133 0.99296 1.2241 1.0325 0.4401 0.0828 0.4679-0.10168 0.1558-1.0424-0.1601-0.48303-0.3663-1.0171-0.4574-1.1867-0.2776-0.51517-0.526-1.586-0.3829-1.6497 0.3965-0.17584 0.9849-0.50126 1.4506-0.80197 0.2924-0.18913 0.7572-0.44409 1.0332-0.56678 0.5463-0.24353 0.6369-0.34922 0.4957-0.58008-0.1586-0.25929-0.7924-0.38661-1.8645-0.37425l-1.031 0.0114-0.1279-0.58502a63.902 63.902 0 0 0-0.3285-1.3956c-0.1861-0.75191-0.412-1.1394-0.6206-1.1317z" style="fill:#fff"/><path d="m528.02 640.1-0.14216 1.0906c-0.0776 0.59954-0.29668 2.1448-0.48643 3.4332-0.18976 1.2887-0.37086 2.9069-0.40176 3.5964-0.0309 0.68917-0.0726 1.4068-0.0927 1.5947-0.0201 0.19161-1.1697 0.92713-2.6207 1.6769-2.871 1.4834-2.867 1.4606-0.33593 2.125 0.86718 0.22777 1.9155 0.67279 2.3296 0.98894 0.73552 0.56061 0.75715 0.62489 0.89622 2.6661 0.0788 1.1503 0.2083 2.6896 0.28742 3.4205l0.1437 1.3286 0.5022-1.3351c0.27628-0.7346 0.78188-1.8892 1.124-2.5654 0.86656-1.713 2.2656-3.7308 2.7029-3.8986 0.2015-0.0773 0.53774-0.14092 0.74727-0.14092 0.40331 0 3.9171 1.4241 6.8305 2.7678 0.95804 0.44193 1.7421 0.76643 1.7421 0.72223 0-0.33469-2.3648-3.9388-3.3151-5.0529-0.73336-0.85914-1.1799-1.5925-1.1799-1.9386 0-0.41072 0.82824-1.4133 3.164-3.829 1.7402-1.8002 3.1195-3.3173 3.0651-3.3717-0.16194-0.16225-3.5398 1.2078-4.428 1.7956-0.7655 0.50683-4.8106 1.9396-5.4753 1.9396-0.57235 0-1.9411-1.65-2.4059-2.8998-0.58997-1.5863-1.357-2.905-2.0854-3.5855z" style="fill:#fff"/><path d="m409.46 634.09a0.65888 0.65888 0 0 0-0.1413 0.0278c-0.2596 0.0782-0.5532 0.21725-0.6527 0.30904-0.2046 0.18914-0.7355 3.3006-1.1286 6.6191l-0.2636 2.2285-2.3602 0.40021c-3.5605 0.60418-5.4117 1.0263-5.6805 1.2955-0.1731 0.17307-0.1206 0.37642 0.1854 0.71452 0.5173 0.57173 4.0376 2.7752 4.822 3.0181 0.3084 0.0955 1.0919 0.36993 1.7408 0.61006l1.18 0.43698 0.016 1.6135c0.032 3.1717 0.3344 5.5124 0.7763 6.0023v9.3e-4c0.2287 0.25249 0.5736 0.42926 0.7664 0.39248 0.4698-0.0902 1.3567-1.7591 2.6053-4.9008 0.5661-1.4253 1.1064-2.715 1.1991-2.8661 0.1761-0.28493 2.1874 0.0952 5.7621 1.0885 2.069 0.57482 3.4075 0.58038 3.5868 0.0154 0.1566-0.49416-0.2031-1.5381-0.7371-2.1395-0.2077-0.23395-1.0477-1.0053-1.8676-1.7143l-1.4902-1.2887 2.4384-2.3027c1.3412-1.2665 2.502-2.5002 2.5787-2.7415 0.2738-0.86223-0.082-1.4989-0.9905-1.7708-0.9677-0.2905-2.7731 0.0933-6.3154 1.3422-1.0439 0.36776-1.9717 0.62365-2.0619 0.56802-0.09-0.0556-0.3375-0.63138-0.5495-1.2791-0.4892-1.4958-1.0461-2.6139-2.1831-4.3838-0.6604-1.0282-0.9178-1.3184-1.2355-1.2955z" style="fill:#fff"/><path d="m745.82 559.58c-0.2151 8e-3 -0.4181 0.29668-0.581 0.87892-0.078 0.27752-0.301 0.91106-0.4957 1.4083-0.1947 0.49694-0.45 1.3314-0.5668 1.8536l-0.2126 0.94939-1.5094-0.32759c-2.5063-0.54392-3.7926-0.77261-3.9258-0.69689-0.07 0.0396-0.14 0.23301-0.1563 0.42988-0.042 0.5059 0.741 1.4723 2.5471 3.1411 1.3864 1.2813 1.4735 1.3827 1.4352 1.6769-0.022 0.17213-0.3529 1.3023-0.7346 2.511-0.3814 1.2084-0.6777 2.26-0.6583 2.3358 0.02 0.076 0.2324 0.14092 0.4738 0.14525 0.4296 7e-3 0.4611-0.0179 1.5143-1.1611 0.5918-0.64189 1.3011-1.3882 1.5774-1.6586l0.5022-0.49138 1.4741 1.488c1.2566 1.2683 1.5298 1.4986 1.8481 1.5585 0.6644 0.12485 0.7059-0.1536 0.2349-1.5737-0.242-0.72934-0.5529-1.535-0.6907-1.7909-0.4188-0.77755-0.7943-2.3939-0.5783-2.49 0.5984-0.26547 1.4865-0.75685 2.1893-1.2108 0.4416-0.28525 1.1435-0.67063 1.5598-0.85606 0.8245-0.36683 0.9611-0.52661 0.7478-0.8749-0.2395-0.39125-1.1953-0.58286-2.8135-0.56432l-1.556 0.0173-0.1932-0.88232a96.937 96.937 0 0 0-0.496-2.1068c-0.2812-1.1351-0.6212-1.7208-0.9358-1.7087z" style="fill:#fff"/><path d="m791.36 648.4c-0.1585 4e-3 -0.4432 0.14092-0.6805 0.33377-0.6975 0.56679-0.9686 2.753-0.8817 7.1058 0.067 3.3417 0.044 3.5781-0.3786 3.8902-0.2472 0.18234-2.095 1.1472-4.1057 2.1438-2.0106 0.99667-3.7153 1.9084-3.7882 2.0264-0.073 0.11774 0.1063 0.47005 0.3974 0.78281 0.5183 0.55627 0.5869 0.56709 3.3383 0.50806 1.5452-0.0328 3.3689-0.0433 4.0528-0.0229l1.2433 0.0371-0.09 3.7076c-0.076 3.1603-0.035 3.791 0.2794 4.2707 0.6561 1.001 1.0631 0.71173 2.2968-1.6324 0.6335-1.2031 1.2804-2.5889 1.4377-3.0787 0.4784-1.489 2.0801-3.9511 2.4677-3.7932 1.0727 0.4376 2.7903 0.96792 4.2317 1.3072 0.9058 0.21324 2.2591 0.63664 3.0064 0.94073 1.4806 0.6014 1.8512 0.57946 2.0344-0.12052 0.2052-0.78498-0.7231-2.2406-2.7325-4.2827l-1.9328-1.9637 0.89-1.3298c0.4896-0.7312 1.4247-2.1797 2.079-3.2184 1.8589-2.9501 1.5195-4.2015-0.8026-2.9545-0.4497 0.24105-1.5319 0.7346-2.4056 1.0962-0.8734 0.36158-2.2505 1.06-3.0602 1.5517l-1.4723 0.89406-1.4352-2.329c-2.3817-3.8655-3.6692-5.7866-3.9294-5.8638a0.19377 0.19377 0 0 0-0.06-7e-3z" style="fill:#fff"/><path d="m282.02 572.06c-0.16874 6e-3 -0.32759 0.23178-0.45553 0.68855-0.0612 0.21756-0.23611 0.71482-0.38878 1.1045-0.15267 0.39002-0.35262 1.044-0.4444 1.4534l-0.16658 0.74479-1.1843-0.25712c-1.9655-0.42648-2.9742-0.60573-3.079-0.54608-0.0544 0.0309-0.1091 0.18295-0.12239 0.33747-0.0334 0.39651 0.58101 1.1543 1.9974 2.4631 1.0875 1.005 1.1564 1.0847 1.1262 1.3153-0.0176 0.13505-0.27721 1.0217-0.57636 1.9695-0.29916 0.94815-0.53156 1.7721-0.51611 1.8314 0.0155 0.0593 0.18265 0.11002 0.37178 0.11435 0.33686 5e-3 0.36128-0.0139 1.1874-0.91044 0.46388-0.50375 1.0208-1.0888 1.2374-1.3011l0.39342-0.38538 1.1558 1.1673c0.98585 0.99512 1.1997 1.1753 1.4494 1.2223 0.52105 0.098 0.5535-0.12114 0.18419-1.2349-0.18975-0.57173-0.43359-1.2037-0.54144-1.4046-0.32852-0.60974-0.62273-1.8768-0.45337-1.9519 0.46913-0.20829 1.1663-0.59398 1.7174-0.95 0.34613-0.22375 0.89684-0.52599 1.2235-0.67124 0.64652-0.28803 0.75314-0.4132 0.58595-0.68608-0.18759-0.30719-0.93702-0.45739-2.2063-0.44286l-1.2204 0.0139-0.15143-0.69226a76.173 76.173 0 0 0-0.3894-1.6522c-0.22035-0.89004-0.48736-1.3493-0.73398-1.34z" style="fill:#fff"/><path d="m974.95 410.88a0.38291 0.38291 0 0 0-0.1595 0.0362c-0.1959 0.0865-0.3955 0.57296-0.649 1.5795-0.194 0.77323-0.2138 0.82577-0.3306 0.8712-0.068 0.0266-0.5542 0.13227-1.0792 0.23549-0.5251 0.10291-0.9741 0.20582-0.9982 0.22869-0.024 0.0226 0 0.11435 0.042 0.20459 0.084 0.1607 0.1 0.1675 0.7364 0.32666 0.3576 0.0893 0.7773 0.20088 0.9333 0.24847l0.2837 0.0868-0.2531 0.84771c-0.2157 0.72193-0.2454 0.86934-0.2033 0.99945 0.088 0.27134 0.1993 0.23055 0.6304-0.23117 0.221-0.23703 0.4568-0.51517 0.5235-0.61808 0.2037-0.31245 0.7269-0.77818 0.806-0.7176 0.2195 0.16781 0.581 0.39743 0.8916 0.56616 0.1947 0.1057 0.4797 0.28834 0.6326 0.40485 0.3029 0.23148 0.3894 0.24909 0.4757 0.0998 0.096-0.16781-0.027-0.56091-0.3604-1.1568l-0.3214-0.57266 0.288-0.25032c0.1586-0.13784 0.4648-0.41196 0.6802-0.60975 0.612-0.56215 0.6126-0.8715 0-0.73058-0.1183 0.0275-0.3986 0.0729-0.6221 0.10137-0.2237 0.0284-0.5841 0.10322-0.801 0.16565l-0.3947 0.1128-0.1841-0.62551c-0.3057-1.0384-0.4812-1.561-0.5362-1.5953a0.068917 0.068917 0 0 0-0.031-8e-3z" style="fill:#fff"/><path d="m96.524 549.52c-0.24909 9e-3 -0.48396 0.34242-0.6731 1.0168-0.0899 0.3214-0.34829 1.056-0.57389 1.6318-0.22561 0.57575-0.52105 1.5415-0.6561 2.1463l-0.24631 1.1002-1.7489-0.38012c-2.9029-0.62984-4.3924-0.89407-4.5467-0.8063-0.0807 0.0457-0.16225 0.26949-0.1811 0.49756-0.0494 0.58564 0.8579 1.7047 2.9498 3.6378 1.6058 1.484 1.7072 1.6018 1.6627 1.9423-0.026 0.19965-0.40886 1.5081-0.8508 2.9081-0.44193 1.4-0.78497 2.6176-0.76241 2.7054 0.0226 0.0878 0.2698 0.16349 0.54917 0.16781 0.49756 8e-3 0.53341-0.0195 1.7535-1.3434 0.68515-0.74356 1.5072-1.6083 1.8271-1.9213l0.581-0.56988 1.7078 1.7238c1.4556 1.4692 1.7711 1.7356 2.1398 1.8048 0.76952 0.14463 0.81804-0.17801 0.27196-1.8227-0.27968-0.84462-0.63972-1.7776-0.79949-2.074-0.4852-0.90086-0.91941-2.7724-0.66939-2.8834 0.69287-0.30781 1.722-0.87707 2.5357-1.4031 0.51147-0.33037 1.3246-0.77632 1.8067-0.99111 0.95494-0.42493 1.1132-0.60974 0.86625-1.0134-0.27721-0.45306-1.3848-0.67496-3.2589-0.65363l-1.8024 0.0204-0.22344-1.0223a111.98 111.98 0 0 0-0.57482-2.4399c-0.32512-1.3147-0.71977-1.9924-1.0838-1.9785z" style="fill:#fff"/><path d="m923.37 414.03c-0.81712 0.0247-1.1577 0.98369-0.83844 2.3592 0.15761 0.68021 0.30657 1.6503 0.33068 2.1562l0.0433 0.91972-1.9868 0.64776a268.22 268.22 0 0 1-2.8599 0.91693c-0.47963 0.14834-1.162 0.52785-1.5168 0.84369-0.47036 0.41937-0.6014 0.704-0.48458 1.0535 0.14216 0.42494 0.52291 0.50282 3.3976 0.69103 1.7807 0.11651 3.8436 0.34458 4.5838 0.50652l1.3453 0.29452-0.22499 0.99049c-0.12392 0.54484-0.32758 1.9297-0.45274 3.0778-0.12517 1.1481-0.33686 2.5889-0.46975 3.202-0.34119 1.5761-0.14525 2.4523 0.55906 2.4977 0.31522 0.0204 0.81588-0.1675 1.1632-0.43637 0.84586-0.65456 3.3-3.7889 3.5308-4.5102l0.19037-0.59337 1.7891 0.76427c2.752 1.1753 5.1864 1.8246 5.9846 1.5965 0.62304-0.1777 0.67187-0.26176 0.52383-0.90364-0.16225-0.70586-0.75097-1.5638-3.5002-5.1039l-1.4556-1.875 0.73923-0.96267c0.4064-0.52971 1.1478-1.7974 1.6472-2.8169 0.80197-1.6373 0.86841-1.9099 0.57266-2.3342-0.2732-0.39218-0.50158-0.45028-1.2427-0.31461-0.96422 0.17677-6.1549 1.7563-6.7134 2.0428-0.19964 0.1026-0.46727-0.01-0.67588-0.28432-2.1648-2.8482-3.5939-4.4379-3.9789-4.4255z" style="fill:#fff"/><path d="m922.63 681.97c-0.1422 5e-3 -0.276 0.19562-0.3838 0.58069-0.051 0.18327-0.1991 0.60202-0.3276 0.93053a10.118 10.118 0 0 0-0.3749 1.2254l-0.14 0.62736-0.9982-0.21634c-1.6571-0.35941-2.507-0.51054-2.5951-0.46047-0.046 0.0263-0.092 0.15359-0.1032 0.2837-0.028 0.33439 0.4895 0.97349 1.6834 2.0765 0.9166 0.84678 0.9741 0.91446 0.9488 1.1088-0.015 0.11373-0.2331 0.86069-0.4852 1.6596-0.2522 0.79919-0.4482 1.4936-0.4352 1.5437 0.013 0.0501 0.1536 0.0918 0.3131 0.0958 0.2843 5e-3 0.3047-0.0114 1.001-0.76705 0.3909-0.42432 0.8604-0.91755 1.043-1.0962l0.3313-0.32542 0.9747 0.98399c0.8307 0.83844 1.0106 0.9908 1.2211 1.0304 0.4391 0.0825 0.4666-0.10199 0.1551-1.0406-0.1598-0.4821-0.3653-1.0146-0.4562-1.1836-0.2769-0.51425-0.5241-1.5823-0.3816-1.6454 0.3956-0.17553 0.9827-0.50065 1.4469-0.80042 0.2918-0.18852 0.7559-0.44317 1.031-0.56555 0.5451-0.24291 0.6354-0.3486 0.4945-0.57884-0.1583-0.25867-0.7903-0.38538-1.8599-0.37302l-1.0285 0.0114-0.1279-0.58379a63.923 63.923 0 0 0-0.3276-1.3926c-0.186-0.75036-0.411-1.1367-0.619-1.1286z" style="fill:#fff"/><path d="m264.81 331.51c-0.14216 6e-3 -0.27691 0.19624-0.38507 0.58193-0.0513 0.18388-0.19933 0.60387-0.32821 0.93331a10.126 10.126 0 0 0-0.37548 1.2275l-0.14062 0.62921-1.0001-0.21695c-1.6608-0.36034-2.5125-0.51178-2.6009-0.46171-0.0464 0.0263-0.0927 0.15452-0.10384 0.28494-0.0281 0.33531 0.49107 0.97565 1.6874 2.0814 0.91879 0.84864 0.97658 0.91632 0.95155 1.111-0.0148 0.11434-0.23426 0.86285-0.48706 1.6636s-0.44873 1.4973-0.43575 1.5477c0.0127 0.0501 0.1539 0.0918 0.31368 0.0958 0.28432 5e-3 0.30534-0.0114 1.0032-0.7689 0.39187-0.42525 0.86192-0.92003 1.0446-1.0993l0.33284-0.32512 0.9772 0.98585c0.83256 0.84029 1.0134 0.99296 1.2241 1.0325 0.44008 0.0828 0.46789-0.10168 0.15576-1.0424-0.16009-0.48303-0.36622-1.0171-0.45739-1.1867-0.27752-0.51517-0.52599-1.586-0.3829-1.6497 0.3965-0.17584 0.98492-0.50126 1.4506-0.80197 0.29236-0.18913 0.75716-0.44409 1.0331-0.56678 0.54639-0.24353 0.63694-0.34922 0.4957-0.58008-0.15854-0.25929-0.79239-0.38661-1.8645-0.37425l-1.031 0.0114-0.12795-0.58502a63.902 63.902 0 0 0-0.32851-1.3956c-0.18605-0.75191-0.41196-1.1394-0.62056-1.1317z" style="fill:#fff"/><path d="m883.04 260.67c-0.0226-3e-3 -0.0627 0.0479-0.0896 0.1128-0.0482 0.11589-0.0451 0.12671 0.15143 0.53557 0.11002 0.22931 0.2358 0.50189 0.27938 0.60573l0.0791 0.18975-0.56215 0.23889c-0.47902 0.20397-0.57111 0.25342-0.62149 0.33315-0.10569 0.16689-0.0346 0.20861 0.40053 0.23364 0.22374 0.013 0.47592 0.0155 0.56029 6e-3 0.25589-0.0297 0.73275 0.0427 0.73707 0.11157 7e-3 0.19068 0.0451 0.48458 0.0924 0.72378 0.0297 0.1505 0.0587 0.38198 0.064 0.51487 0.0105 0.2633 0.0396 0.31708 0.15669 0.29699 0.13196-0.0229 0.28648-0.26145 0.45584-0.70215l0.16286-0.42339 0.26022 0.0426c0.14308 0.0235 0.4237 0.0649 0.62427 0.0924 0.56864 0.0773 0.73336-0.0587 0.38816-0.32171a5.5832 5.5832 0 0 1-0.32852-0.28618 4.4573 4.4573 0 0 0-0.44131-0.35293l-0.23488-0.16008 0.25187-0.37425c0.41721-0.62087 0.61778-0.94444 0.6116-0.98895-4e-3 -0.0229-0.0482-0.0624-0.0998-0.0884-0.13258-0.0661-0.47871 0.042-1.1255 0.35169-0.49663 0.23796-0.53372 0.25033-0.60881 0.2083-0.0445-0.0247-0.31492-0.23581-0.6014-0.46975-0.28649-0.23333-0.53991-0.42556-0.56247-0.42957z" style="fill:#fff"/><path d="m857.15 339.79c-0.2151 8e-3 -0.4181 0.29668-0.581 0.87892-0.078 0.27752-0.301 0.91106-0.4957 1.4083-0.1947 0.49694-0.45 1.3314-0.5668 1.8536l-0.2126 0.94939-1.5094-0.32759c-2.5063-0.54392-3.7926-0.77261-3.9258-0.69689-0.07 0.0396-0.14 0.23301-0.1563 0.42988-0.042 0.5059 0.741 1.4723 2.5471 3.1411 1.3864 1.2813 1.4735 1.3827 1.4352 1.6769-0.022 0.17213-0.3529 1.3023-0.7346 2.511-0.3814 1.2084-0.6777 2.26-0.6583 2.3358 0.02 0.076 0.2324 0.14092 0.4738 0.14525 0.4296 7e-3 0.4611-0.0179 1.5143-1.1611 0.5918-0.64189 1.3011-1.3882 1.5774-1.6586l0.5022-0.49138 1.4741 1.488c1.2566 1.2683 1.5298 1.4986 1.8481 1.5585 0.6644 0.12485 0.7059-0.1536 0.2349-1.5737-0.242-0.72934-0.5529-1.535-0.6907-1.7909-0.4188-0.77755-0.7943-2.3939-0.5783-2.49 0.5984-0.26547 1.4865-0.75685 2.1893-1.2108 0.4416-0.28525 1.1435-0.67063 1.5598-0.85606 0.8245-0.36683 0.9611-0.52661 0.7478-0.8749-0.2395-0.39125-1.1953-0.58286-2.8135-0.56432l-1.556 0.0173-0.1932-0.88232a96.937 96.937 0 0 0-0.496-2.1068c-0.2812-1.1351-0.6212-1.7208-0.9358-1.7087z" style="fill:#fff"/><path d="m97.38 507.64c-0.1586 4e-3 -0.4432 0.14092-0.6806 0.33377-0.6975 0.56679-0.9685 2.753-0.8817 7.1058 0.067 3.3417 0.044 3.5781-0.3785 3.8902-0.2473 0.18234-2.095 1.1472-4.1057 2.1438-2.0106 0.99667-3.7153 1.9084-3.7883 2.0264-0.073 0.11774 0.1064 0.47005 0.3975 0.78281 0.5182 0.55627 0.5869 0.56709 3.3383 0.50806 1.5452-0.0328 3.3689-0.0433 4.0528-0.0229l1.2433 0.0371-0.09 3.7076c-0.076 3.1603-0.035 3.791 0.2793 4.2707 0.6561 1.001 1.0632 0.71173 2.2969-1.6324 0.6335-1.2031 1.2803-2.5889 1.4376-3.0787 0.4784-1.489 2.0802-3.9511 2.4677-3.7932 1.0727 0.4376 2.7904 0.96792 4.2318 1.3072 0.9058 0.21324 2.2591 0.63664 3.0064 0.94073 1.4806 0.6014 1.8511 0.57946 2.0344-0.12052 0.2052-0.78498-0.7232-2.2406-2.7326-4.2827l-1.9327-1.9637 0.89-1.3298c0.4896-0.7312 1.4247-2.1797 2.079-3.2184 1.8589-2.9501 1.5195-4.2015-0.8026-2.9545-0.4497 0.24105-1.532 0.7346-2.4056 1.0962-0.8734 0.36158-2.2505 1.06-3.0602 1.5517l-1.4723 0.89406-1.4352-2.329c-2.3818-3.8655-3.6692-5.7866-3.9295-5.8638a0.19377 0.19377 0 0 0-0.06-7e-3z" style="fill:#fff"/><path d="m609.31 160.46a0.38692 0.38692 0 0 0-0.15978 0.0371c-0.19593 0.0865-0.39557 0.57173-0.64837 1.5786-0.19439 0.77323-0.21448 0.82577-0.3313 0.8712-0.0683 0.0266-0.55381 0.13288-1.0786 0.2358-0.52538 0.10322-0.97504 0.20551-0.99914 0.22838-0.0241 0.0226-5e-3 0.11465 0.0423 0.2052 0.0844 0.16071 0.0998 0.16689 0.73645 0.32605a26.08 26.08 0 0 1 0.93362 0.24909l0.2837 0.0865-0.25341 0.8474c-0.21571 0.72193-0.24569 0.86934-0.20335 0.99945 0.0881 0.27134 0.19995 0.23054 0.63045-0.23117 0.22158-0.23703 0.45738-0.51517 0.52414-0.61809 0.20335-0.31244 0.72625-0.77817 0.80506-0.7176 0.21942 0.16781 0.58131 0.39743 0.89159 0.56617 0.19501 0.1057 0.47964 0.28834 0.63261 0.40485 0.30287 0.23147 0.38971 0.24909 0.47593 0.0998 0.0964-0.16781-0.026-0.56091-0.36004-1.1568l-0.3214-0.57266 0.28834-0.25002c0.15823-0.13752 0.46387-0.41226 0.67959-0.61005 0.6119-0.56215 0.61252-0.87089 0-0.72996-0.11868 0.0275-0.39805 0.0729-0.6218 0.10136-0.22344 0.0284-0.5844 0.10261-0.80166 0.16503l-0.39465 0.11342-0.18419-0.62612c-0.30534-1.0384-0.48088-1.561-0.53589-1.5953a0.066135 0.066135 0 0 0-0.0309-8e-3z" style="fill:#fff"/><path d="m473.86 457.82c-0.24291 0.01-0.47253 0.33439-0.65672 0.99203-0.0878 0.31337-0.33964 1.0285-0.55937 1.5897-0.22004 0.56153-0.50745 1.5032-0.63941 2.0928l-0.23951 1.0721-1.7053-0.37024c-2.8296-0.61407-4.2815-0.8715-4.4323-0.7859-0.0785 0.0448-0.15823 0.26269-0.17678 0.48489-0.0479 0.57112 0.8372 1.6617 2.8763 3.546 1.5653 1.4466 1.6639 1.5622 1.6206 1.8944-0.0256 0.19408-0.39867 1.4695-0.82948 2.8342-0.4305 1.3647-0.76519 2.5515-0.74294 2.6371 0.0216 0.0856 0.26269 0.15916 0.53465 0.16379 0.4852 8e-3 0.52043-0.0192 1.7096-1.31 0.66784-0.7247 1.4695-1.5678 1.781-1.8728l0.56679-0.55474 1.6642 1.6797c1.4188 1.4324 1.7276 1.692 2.0867 1.7597v6.1e-4c0.75005 0.14093 0.79702-0.1743 0.26516-1.7776-0.2732-0.82329-0.62365-1.7325-0.77941-2.0215-0.47284-0.87799-0.89685-2.7029-0.65301-2.8111 0.67526-0.29978 1.6784-0.85451 2.4717-1.3672 0.49849-0.32202 1.2912-0.75715 1.7616-0.96638 0.93084-0.41412 1.0847-0.5946 0.84431-0.98801-0.27042-0.44163-1.3499-0.65827-3.177-0.63725l-1.7569 0.0198-0.21787-0.99729a109.13 109.13 0 0 0-0.5603-2.3781c-0.31708-1.2816-0.70153-1.942-1.0563-1.9284z" style="fill:#fff"/><path d="m869.91 572.22c-0.16874 6e-3 -0.32759 0.23178-0.45553 0.68855-0.0612 0.21756-0.23611 0.71482-0.38878 1.1045-0.15267 0.39002-0.35262 1.044-0.4444 1.4534l-0.16658 0.74479-1.1843-0.25712c-1.9655-0.42648-2.9742-0.60573-3.079-0.54608-0.0544 0.0309-0.1091 0.18295-0.12239 0.33747-0.0334 0.39651 0.58101 1.1543 1.9974 2.4631 1.0875 1.005 1.1564 1.0847 1.1262 1.3153-0.0176 0.13505-0.27721 1.0217-0.57636 1.9695-0.29916 0.94815-0.53156 1.7721-0.51611 1.8314 0.0155 0.0593 0.18265 0.11002 0.37178 0.11435 0.33686 5e-3 0.36128-0.0139 1.1874-0.91044 0.46388-0.50375 1.0208-1.0888 1.2374-1.3011l0.39342-0.38538 1.1558 1.1673c0.98585 0.99512 1.1997 1.1753 1.4494 1.2223 0.52105 0.098 0.5535-0.12114 0.18419-1.2349-0.18975-0.57173-0.43359-1.2037-0.54144-1.4046-0.32852-0.60974-0.62273-1.8768-0.45337-1.9519 0.46913-0.20829 1.1663-0.59398 1.7174-0.95 0.34613-0.22375 0.89684-0.52599 1.2235-0.67124 0.64652-0.28803 0.75314-0.4132 0.58595-0.68608-0.18759-0.30719-0.93702-0.45739-2.2063-0.44286l-1.2204 0.0139-0.15143-0.69226a76.173 76.173 0 0 0-0.3894-1.6522c-0.22035-0.89004-0.48736-1.3493-0.73398-1.34z" style="fill:#fff"/><path d="m502.21 603.7a0.27041 0.27041 0 0 0-0.1101 0.0253c-0.1353 0.0597-0.2735 0.39496-0.4484 1.0906-0.1344 0.53403-0.1483 0.57049-0.2287 0.60171-0.047 0.0185-0.3829 0.0918-0.7454 0.16317-0.3628 0.0711-0.6731 0.14216-0.6901 0.15792-0.017 0.0155 0 0.0791 0.029 0.14124 0.058 0.11125 0.069 0.11589 0.5087 0.2256 0.2472 0.0618 0.5377 0.13907 0.6453 0.17214l0.1956 0.06-0.1746 0.58533c-0.149 0.49911-0.1703 0.60078-0.1412 0.69072 0.061 0.18728 0.1381 0.15946 0.4357-0.15947 0.153-0.16379 0.3159-0.35633 0.3622-0.42741 0.1406-0.21571 0.5019-0.53743 0.5566-0.4954 0.1514 0.11589 0.4015 0.27474 0.6156 0.39094 0.1348 0.0733 0.3316 0.19903 0.437 0.27969 0.2092 0.15978 0.2698 0.17275 0.3291 0.0692 0.067-0.1159-0.018-0.38755-0.2487-0.79919l-0.2222-0.39558 0.1993-0.17306a28.244 28.244 0 0 0 0.4697-0.42123c0.4228-0.38816 0.4231-0.60202 0-0.50467-0.082 0.0189-0.2753 0.0507-0.4298 0.0702-0.1546 0.0195-0.4036 0.0711-0.5535 0.11435l-0.2729 0.0782-0.1273-0.43267c-0.2111-0.71791-0.3323-1.0786-0.37-1.1024a0.04852 0.04852 0 0 0-0.022-5e-3z" style="fill:#fff"/><path d="m421.95 430.47c-0.2491 9e-3 -0.4839 0.34242-0.6731 1.0168-0.09 0.3214-0.3483 1.056-0.5739 1.6318s-0.521 1.5415-0.6561 2.1463l-0.2463 1.1002-1.7489-0.38012c-2.9028-0.62984-4.3924-0.89407-4.5466-0.8063-0.081 0.0457-0.1623 0.26949-0.1811 0.49756-0.049 0.58564 0.8579 1.7047 2.9498 3.6378 1.6058 1.484 1.7072 1.6018 1.6627 1.9423-0.026 0.19965-0.4089 1.5081-0.8508 2.9081-0.442 1.4-0.785 2.6176-0.7624 2.7054 0.023 0.0878 0.2698 0.16349 0.5491 0.16781 0.4976 8e-3 0.5334-0.0195 1.7535-1.3434 0.6852-0.74356 1.5073-1.6083 1.8271-1.9213l0.581-0.56988 1.7078 1.7238c1.4556 1.4692 1.7711 1.7356 2.1398 1.8048 0.7695 0.14463 0.8181-0.17801 0.272-1.8227-0.2797-0.84462-0.6397-1.7776-0.7995-2.074-0.4852-0.90086-0.9194-2.7724-0.6694-2.8834 0.6929-0.30781 1.722-0.87707 2.5357-1.4031 0.5115-0.33037 1.3246-0.77632 1.8067-0.99111 0.9549-0.42493 1.1131-0.60974 0.8662-1.0134-0.2772-0.45306-1.3848-0.67496-3.2588-0.65363l-1.8024 0.0204-0.2234-1.0223a111.98 111.98 0 0 0-0.5749-2.4399c-0.3251-1.3147-0.7197-1.9924-1.0838-1.9785z" style="fill:#fff"/><path d="m579.1 283.24c-0.3455-0.0201-0.8375 0.28586-1.4578 0.9466-0.3492 0.37178-1.2182 1.1843-1.9309 1.8054-0.7126 0.62087-1.7955 1.7208-2.4065 2.4452l-1.1107 1.3168-2.1015-1.7504c-3.4891-2.9056-5.3217-4.3167-5.5931-4.3072-0.1415 5e-3 -0.4101 0.25094-0.5971 0.54608-0.4808 0.75963-0.042 2.918 1.4269 7.0165 1.128 3.1461 1.1809 3.3778 0.8802 3.808-0.1762 0.25187-1.6194 1.7554-3.2079 3.3402-1.5885 1.5854-2.9143 2.9925-2.9458 3.1275-0.031 0.13474 0.2497 0.41196 0.6252 0.61562 0.6687 0.36251 0.737 0.35014 3.3265-0.58193 1.4544-0.52352 3.1795-1.1147 3.834-1.3128l1.1905-0.36097 1.0961 3.5432c0.9343 3.02 1.1744 3.605 1.6247 3.9595v-3.1e-4c0.9407 0.73985 1.2346 0.33624 1.6577-2.2786 0.2169-1.3425 0.3885-2.8618 0.382-3.376-0.021-1.5638 0.7139-4.4079 1.1311-4.3816 1.1564 0.0729 2.9535 0.0287 4.428-0.10848 0.9268-0.0865 2.3438-0.1162 3.1491-0.0664 1.5947 0.0989 1.9399-0.0402 1.8904-0.76179-0.056-0.8097-1.3996-1.8938-3.9548-3.1893l-2.4572-1.2461 0.4203-1.544c0.2309-0.84926 0.6558-2.5203 0.9451-3.7132 0.5395-2.2239 0.415-3.4526-0.2445-3.4913z" style="fill:#fff"/><path d="m856.18 370.76c-0.81712 0.0247-1.1577 0.98369-0.83844 2.3592 0.15761 0.68021 0.30657 1.6503 0.33068 2.1562l0.0433 0.91972-1.9868 0.64776a268.22 268.22 0 0 1-2.8599 0.91693c-0.47963 0.14834-1.162 0.52785-1.5168 0.84369-0.47036 0.41937-0.6014 0.704-0.48458 1.0535 0.14216 0.42494 0.52291 0.50282 3.3976 0.69103 1.7807 0.11651 3.8436 0.34458 4.5838 0.50652l1.3453 0.29452-0.22499 0.99049c-0.12392 0.54484-0.32758 1.9297-0.45274 3.0778-0.12517 1.1481-0.33686 2.5889-0.46975 3.202-0.34119 1.5761-0.14525 2.4523 0.55906 2.4977 0.31522 0.0204 0.81588-0.1675 1.1632-0.43637 0.84586-0.65456 3.3-3.7889 3.5308-4.5102l0.19037-0.59337 1.7891 0.76427c2.752 1.1753 5.1864 1.8246 5.9846 1.5965 0.62304-0.1777 0.67187-0.26176 0.52383-0.90364-0.16225-0.70586-0.75097-1.5638-3.5002-5.1039l-1.4556-1.875 0.73923-0.96267c0.4064-0.52971 1.1478-1.7974 1.6472-2.8169 0.80197-1.6373 0.86841-1.9099 0.57266-2.3342-0.2732-0.39218-0.50158-0.45028-1.2427-0.31461-0.96422 0.17677-6.1549 1.7563-6.7134 2.0428-0.19964 0.1026-0.46727-0.01-0.67588-0.28432-2.1648-2.8482-3.5939-4.4379-3.9789-4.4255z" style="fill:#fff"/><path d="m680.29 656.8c-0.1422 5e-3 -0.276 0.19562-0.3838 0.58069-0.051 0.18327-0.199 0.60202-0.3276 0.93053a10.118 10.118 0 0 0-0.3749 1.2254l-0.14 0.62736-0.9982-0.21634c-1.6571-0.35941-2.507-0.51054-2.595-0.46047-0.046 0.0263-0.092 0.15359-0.1033 0.2837-0.028 0.33439 0.4896 0.97349 1.6834 2.0765 0.9166 0.84678 0.9741 0.91446 0.9488 1.1088-0.015 0.11373-0.233 0.86069-0.4852 1.6596-0.2522 0.79919-0.4481 1.4936-0.4352 1.5437 0.013 0.0501 0.1536 0.0918 0.3131 0.0958 0.2843 5e-3 0.3047-0.0114 1.001-0.76705 0.3909-0.42432 0.8604-0.91755 1.043-1.0962l0.3313-0.32542 0.9747 0.98399c0.8308 0.83844 1.0106 0.9908 1.2211 1.0304 0.4391 0.0825 0.4666-0.10199 0.1551-1.0406-0.1598-0.4821-0.3653-1.0146-0.4561-1.1836-0.2769-0.51425-0.5242-1.5823-0.3817-1.6454 0.3956-0.17553 0.9828-0.50065 1.4469-0.80042 0.2918-0.18852 0.756-0.44317 1.031-0.56555 0.5452-0.24291 0.6354-0.3486 0.4945-0.57884-0.1582-0.25867-0.7902-0.38538-1.8598-0.37302l-1.0285 0.0114-0.128-0.58379a63.923 63.923 0 0 0-0.3276-1.3926c-0.186-0.75036-0.411-1.1367-0.619-1.1286z" style="fill:#fff"/><path d="m702.78 616.44a0.43266 0.43266 0 0 0-0.17307 0.0457c-0.2256 0.10291-0.27659 0.21416-0.27659 0.60449 0 0.50745 0.31955 3.299 0.41319 3.6099 0.0337 0.11126-0.0482 0.23673-0.20737 0.3177-1.6534 0.83658-2.596 1.416-2.626 1.6132-0.0633 0.41876 0.3928 0.68206 1.1234 0.64776 0.36127-0.017 0.86934-2e-3 1.1296 0.0331l0.47253 0.0634 0.14433 1.0727c0.0791 0.59028 0.16904 1.2841 0.19964 1.5421 0.0309 0.25836 0.1607 0.64158 0.28865 0.85173 0.16935 0.27876 0.30224 0.37209 0.49138 0.3452 0.22962-0.0324 0.3044-0.21911 0.66877-1.6658 0.2256-0.89622 0.53464-1.926 0.68608-2.2875l0.27597-0.65827 0.48335 0.20706c0.26578 0.11435 0.95247 0.34768 1.5254 0.51858 0.57297 0.17121 1.2875 0.41288 1.5876 0.53774 0.77107 0.3214 1.2352 0.30348 1.3243-0.0513 0.0399-0.15854-9e-3 -0.43081-0.11342-0.63293-0.25466-0.492-1.6222-2.035-1.968-2.2202l-0.28463-0.15205 0.55628-0.84029c0.85605-1.2921 1.4142-2.4711 1.3728-2.8988-0.0325-0.33407-0.0711-0.36683-0.41165-0.35138-0.37487 0.0167-0.86687 0.23611-2.927 1.306l-1.0909 0.56617-0.42185-0.46604c-0.23178-0.25651-0.80784-0.75252-1.2807-1.102-0.56926-0.42092-0.78652-0.55968-0.96205-0.55597z" style="fill:#fff"/><path d="m297.94 148.19c-0.1585 4e-3 -0.4432 0.14092-0.6805 0.33377-0.6975 0.56679-0.9686 2.753-0.8817 7.1058 0.067 3.3417 0.044 3.5781-0.3786 3.8902-0.2472 0.18234-2.095 1.1472-4.1057 2.1438-2.0106 0.99667-3.7153 1.9084-3.7882 2.0264-0.073 0.11774 0.1063 0.47005 0.3974 0.78281 0.5183 0.55627 0.5869 0.56709 3.3383 0.50806 1.5452-0.0328 3.3689-0.0433 4.0528-0.0229l1.2433 0.0371-0.09 3.7076c-0.076 3.1603-0.035 3.791 0.2794 4.2707 0.6561 1.001 1.0631 0.71173 2.2968-1.6324 0.6335-1.2031 1.2804-2.5889 1.4377-3.0787 0.4784-1.489 2.0801-3.9511 2.4677-3.7932 1.0727 0.4376 2.7903 0.96792 4.2317 1.3072 0.9058 0.21324 2.2591 0.63664 3.0064 0.94073 1.4806 0.6014 1.8512 0.57946 2.0345-0.12052 0.2052-0.78498-0.7232-2.2406-2.7326-4.2827l-1.9328-1.9637 0.8901-1.3298c0.4895-0.7312 1.4247-2.1797 2.0789-3.2184 1.8589-2.9501 1.5196-4.2015-0.8026-2.9545-0.4496 0.24105-1.5319 0.7346-2.4056 1.0962-0.8733 0.36158-2.2504 1.06-3.0601 1.5517l-1.4723 0.89406-1.4352-2.329c-2.3818-3.8655-3.6693-5.7866-3.9295-5.8638a0.19377 0.19377 0 0 0-0.06-7e-3z" style="fill:#fff"/><path d="m330.73 263.39c-0.16874 6e-3 -0.32759 0.23178-0.45553 0.68855-0.0612 0.21756-0.23611 0.71482-0.38878 1.1045-0.15267 0.39002-0.35262 1.044-0.4444 1.4534l-0.16658 0.74479-1.1843-0.25712c-1.9655-0.42648-2.9742-0.60573-3.079-0.54608-0.0544 0.0309-0.1091 0.18295-0.12239 0.33747-0.0334 0.39651 0.58101 1.1543 1.9974 2.4631 1.0875 1.005 1.1564 1.0847 1.1262 1.3153-0.0176 0.13505-0.27721 1.0217-0.57636 1.9695-0.29916 0.94815-0.53156 1.7721-0.51611 1.8314 0.0155 0.0593 0.18265 0.11002 0.37178 0.11435 0.33686 5e-3 0.36128-0.0139 1.1874-0.91044 0.46388-0.50375 1.0208-1.0888 1.2374-1.3011l0.39342-0.38538 1.1558 1.1673c0.98585 0.99512 1.1997 1.1753 1.4494 1.2223 0.52105 0.098 0.5535-0.12114 0.18419-1.2349-0.18975-0.57173-0.43359-1.2037-0.54144-1.4046-0.32852-0.60974-0.62273-1.8768-0.45337-1.9519 0.46913-0.20829 1.1663-0.59398 1.7174-0.95 0.34613-0.22375 0.89684-0.52599 1.2235-0.67124 0.64652-0.28803 0.75314-0.4132 0.58595-0.68608-0.18759-0.30719-0.93702-0.45739-2.2063-0.44286l-1.2204 0.0139-0.15143-0.69226a76.173 76.173 0 0 0-0.3894-1.6522c-0.22035-0.89004-0.48736-1.3493-0.73398-1.34z" style="fill:#fff"/><path d="m517.33 526.18a0.38291 0.38291 0 0 0-0.15946 0.0362c-0.19594 0.0865-0.39558 0.57296-0.649 1.5795-0.19408 0.77323-0.21385 0.82577-0.33067 0.8712-0.068 0.0266-0.55412 0.13227-1.0792 0.23549-0.52506 0.10291-0.9741 0.20582-0.99821 0.22869-0.0241 0.0226-5e-3 0.11435 0.042 0.20459 0.0844 0.1607 0.0998 0.1675 0.73645 0.32666 0.35757 0.0893 0.77725 0.20088 0.93332 0.24847l0.2837 0.0868-0.25311 0.84771c-0.21571 0.72193-0.24538 0.86934-0.20335 0.99945 0.0881 0.27134 0.19933 0.23055 0.63045-0.23117 0.22097-0.23703 0.45677-0.51517 0.52352-0.61808 0.20366-0.31245 0.72687-0.77818 0.80599-0.7176 0.21942 0.16781 0.581 0.39743 0.89159 0.56616 0.1947 0.1057 0.47964 0.28834 0.63262 0.40485 0.30286 0.23148 0.38939 0.24909 0.47562 0.0998 0.0964-0.16781-0.0266-0.56091-0.36035-1.1568l-0.32141-0.57266 0.28803-0.25032c0.15854-0.13784 0.46481-0.41196 0.68021-0.60975 0.61191-0.56215 0.61253-0.8715 0-0.73058-0.11836 0.0275-0.39867 0.0729-0.62211 0.10137-0.22374 0.0284-0.58409 0.10322-0.80104 0.16565l-0.39465 0.1128-0.18419-0.62551c-0.30564-1.0384-0.48118-1.561-0.53619-1.5953a0.068917 0.068917 0 0 0-0.0312-8e-3z" style="fill:#fff"/><path d="m445.31 528.56a0.27041 0.27041 0 0 0-0.11 0.0253c-0.1354 0.0597-0.2735 0.39496-0.4485 1.0906-0.1344 0.53403-0.1483 0.57049-0.2286 0.60171-0.047 0.0185-0.383 0.0918-0.7455 0.16317-0.3628 0.0711-0.6731 0.14216-0.6901 0.15792-0.017 0.0155 0 0.0791 0.029 0.14124 0.058 0.11125 0.069 0.11589 0.5087 0.2256 0.2473 0.0618 0.5378 0.13907 0.6453 0.17214l0.1956 0.06-0.1746 0.58533c-0.1489 0.49911-0.1703 0.60078-0.1412 0.69072 0.061 0.18728 0.1381 0.15946 0.4358-0.15947 0.1529-0.16379 0.3158-0.35633 0.3622-0.42741 0.1406-0.21571 0.5018-0.53743 0.5565-0.4954 0.1515 0.11589 0.4015 0.27474 0.6157 0.39094 0.1347 0.0733 0.3316 0.19903 0.4369 0.27969 0.2093 0.15978 0.2698 0.17275 0.3292 0.0692 0.067-0.1159-0.018-0.38755-0.2488-0.79919l-0.2222-0.39558 0.1993-0.17306a28.244 28.244 0 0 0 0.4698-0.42123c0.4227-0.38816 0.4231-0.60202 0-0.50467-0.082 0.0189-0.2754 0.0507-0.4299 0.0702s-0.4036 0.0711-0.5535 0.11435l-0.2729 0.0782-0.1273-0.43267c-0.2111-0.71791-0.3322-1.0786-0.3699-1.1024a0.04852 0.04852 0 0 0-0.022-5e-3z" style="fill:#fff"/><path d="m855.36 699.75c-0.2491 9e-3 -0.484 0.34242-0.6731 1.0168-0.09 0.3214-0.3483 1.056-0.5739 1.6318s-0.5211 1.5415-0.6561 2.1463l-0.2463 1.1002-1.7489-0.38012c-2.9029-0.62984-4.3925-0.89407-4.5467-0.8063-0.081 0.0457-0.1622 0.26949-0.1811 0.49756-0.049 0.58564 0.8579 1.7047 2.9499 3.6378 1.6058 1.484 1.7071 1.6018 1.6626 1.9423-0.026 0.19965-0.4088 1.5081-0.8508 2.9081-0.4419 1.4-0.785 2.6176-0.7624 2.7054 0.023 0.0878 0.2698 0.16349 0.5492 0.16781 0.4975 8e-3 0.5334-0.0195 1.7535-1.3434 0.6851-0.74356 1.5072-1.6083 1.8271-1.9213l0.581-0.56988 1.7077 1.7238c1.4557 1.4692 1.7712 1.7356 2.1399 1.8048 0.7695 0.14463 0.818-0.17801 0.272-1.8227-0.2797-0.84462-0.6398-1.7776-0.7995-2.074-0.4852-0.90086-0.9195-2.7724-0.6694-2.8834 0.6928-0.30781 1.722-0.87707 2.5357-1.4031 0.5114-0.33037 1.3245-0.77632 1.8067-0.99111 0.9549-0.42493 1.1131-0.60974 0.8662-1.0134-0.2772-0.45306-1.3848-0.67496-3.2589-0.65363l-1.8023 0.0204-0.2235-1.0223a111.98 111.98 0 0 0-0.5748-2.4399c-0.3251-1.3147-0.7198-1.9924-1.0838-1.9785z" style="fill:#fff"/><path d="m598.24 120.71c-0.3455-0.0201-0.8375 0.28586-1.4577 0.9466-0.3493 0.37178-1.2183 1.1843-1.9309 1.8054-0.7127 0.62087-1.7956 1.7208-2.4066 2.4452l-1.1107 1.3168-2.1015-1.7504c-3.4891-2.9056-5.3217-4.3167-5.5931-4.3072-0.1415 5e-3 -0.4101 0.25094-0.597 0.54608-0.4809 0.75963-0.042 2.918 1.4268 7.0165 1.128 3.1461 1.1809 3.3778 0.8802 3.808-0.1762 0.25186-1.6194 1.7554-3.2079 3.3401-1.5885 1.5854-2.9143 2.9925-2.9458 3.1275-0.031 0.13474 0.2497 0.41196 0.6252 0.61562 0.6688 0.36251 0.7371 0.35014 3.3265-0.58193 1.4544-0.52352 3.1795-1.1147 3.834-1.3128l1.1905-0.36097 1.0962 3.5432c0.9342 3.02 1.1743 3.605 1.6246 3.9595v-3.1e-4c0.9407 0.73985 1.2346 0.33624 1.6577-2.2786 0.217-1.3425 0.3885-2.8618 0.382-3.376-0.021-1.5638 0.7139-4.4079 1.1311-4.3816 1.1564 0.0729 2.9535 0.0287 4.428-0.10848 0.9268-0.0865 2.3438-0.1162 3.1492-0.0664 1.5946 0.0989 1.9398-0.0402 1.8904-0.76179-0.056-0.8097-1.3997-1.8938-3.9549-3.1893l-2.4572-1.2461 0.4203-1.544c0.2309-0.84926 0.6558-2.5203 0.9451-3.7132 0.5396-2.2239 0.415-3.4526-0.2445-3.4913z" style="fill:#fff"/><path d="m531.31 215.64c-0.14216 5e-3 -0.27597 0.19562-0.38383 0.58069-0.0513 0.18327-0.19902 0.60202-0.32759 0.93053a10.118 10.118 0 0 0-0.37487 1.2254l-0.13999 0.62736-0.99822-0.21634c-1.6571-0.35941-2.507-0.51054-2.595-0.46047-0.0464 0.0263-0.0924 0.15359-0.10322 0.2837-0.0281 0.33439 0.48952 0.97349 1.6834 2.0765 0.91663 0.84678 0.97411 0.91446 0.94877 1.1088-0.0148 0.11373-0.23302 0.86069-0.4852 1.6596-0.25218 0.79919-0.44812 1.4936-0.43514 1.5437 0.0127 0.0501 0.1536 0.0918 0.31307 0.0958 0.28432 5e-3 0.30471-0.0114 1.001-0.76705 0.39094-0.42432 0.86038-0.91755 1.043-1.0962l0.3313-0.32542 0.97473 0.98399c0.83071 0.83844 1.0106 0.9908 1.221 1.0304 0.43915 0.0825 0.46666-0.10199 0.15514-1.0406-0.15978-0.4821-0.36529-1.0146-0.45615-1.1836-0.2769-0.51425-0.52414-1.5823-0.38167-1.6454 0.39558-0.17553 0.98276-0.50065 1.447-0.80042 0.29173-0.18852 0.75592-0.44317 1.031-0.56555 0.54515-0.24291 0.63539-0.3486 0.49447-0.57884-0.15823-0.25867-0.79023-0.38538-1.8598-0.37302l-1.0285 0.0114-0.12794-0.58379a63.923 63.923 0 0 0-0.32759-1.3926c-0.18605-0.75036-0.41103-1.1367-0.61902-1.1286z" style="fill:#fff"/><path d="m621.58 447.46a0.43266 0.43266 0 0 0-0.17307 0.0457c-0.2256 0.10291-0.27659 0.21416-0.27659 0.60449 0 0.50745 0.31955 3.299 0.41319 3.6099 0.0337 0.11126-0.0482 0.23673-0.20737 0.3177-1.6534 0.83658-2.596 1.416-2.626 1.6132-0.0633 0.41876 0.3928 0.68206 1.1234 0.64776 0.36127-0.017 0.86934-2e-3 1.1296 0.0331l0.47253 0.0634 0.14433 1.0727c0.0791 0.59028 0.16904 1.2841 0.19964 1.5421 0.0309 0.25836 0.1607 0.64158 0.28865 0.85173 0.16935 0.27876 0.30224 0.37209 0.49138 0.3452 0.22962-0.0324 0.3044-0.21911 0.66877-1.6658 0.2256-0.89622 0.53464-1.926 0.68608-2.2875l0.27597-0.65827 0.48335 0.20706c0.26578 0.11435 0.95247 0.34768 1.5254 0.51858 0.57297 0.17121 1.2875 0.41288 1.5876 0.53774 0.77107 0.3214 1.2352 0.30348 1.3243-0.0513 0.0399-0.15854-9e-3 -0.43081-0.11342-0.63293-0.25466-0.492-1.6222-2.035-1.968-2.2202l-0.28463-0.15205 0.55628-0.84029c0.85605-1.2921 1.4142-2.4711 1.3728-2.8988-0.0325-0.33407-0.0711-0.36683-0.41165-0.35138-0.37487 0.0167-0.86687 0.23611-2.927 1.306l-1.0909 0.56617-0.42185-0.46604c-0.23178-0.25651-0.80784-0.75252-1.2807-1.102-0.56926-0.42092-0.78652-0.55968-0.96205-0.55597z" style="fill:#fff"/><path d="m243.22 249.61-0.14221 1.0906c-0.078 0.59954-0.2967 2.1448-0.4864 3.4332-0.1898 1.2887-0.3709 2.9069-0.4018 3.5964-0.031 0.68917-0.073 1.4068-0.093 1.5947-0.02 0.19161-1.1697 0.92713-2.6207 1.6769-2.871 1.4834-2.867 1.4606-0.3359 2.125 0.8672 0.22777 1.9154 0.67279 2.3296 0.98894 0.7355 0.56061 0.7571 0.62489 0.8962 2.6661 0.079 1.1503 0.2083 2.6896 0.2874 3.4205l0.1437 1.3286 0.50221-1.3351c0.2763-0.7346 0.7819-1.8892 1.124-2.5654 0.8665-1.713 2.2656-3.7308 2.7029-3.8986 0.2015-0.0773 0.5377-0.14092 0.7473-0.14092 0.40329 0 3.9171 1.4241 6.8305 2.7678 0.958 0.44193 1.742 0.76643 1.742 0.72223 0-0.33469-2.3648-3.9388-3.3151-5.0529-0.7333-0.85914-1.1799-1.5925-1.1799-1.9386 0-0.41072 0.82819-1.4133 3.164-3.829 1.7402-1.8002 3.1195-3.3173 3.0651-3.3717-0.162-0.16225-3.5398 1.2078-4.428 1.7956-0.7655 0.50683-4.8106 1.9396-5.4753 1.9396-0.57239 0-1.9411-1.65-2.4059-2.8998-0.59-1.5863-1.3571-2.905-2.0855-3.5855z" style="fill:#fff"/><path d="m982.16 692.43a0.65888 0.65888 0 0 0-0.14124 0.0278c-0.25959 0.0782-0.55319 0.21725-0.6527 0.30904-0.20458 0.18914-0.73552 3.3006-1.1286 6.6191l-0.26361 2.2285-2.3602 0.40021c-3.5605 0.60418-5.4117 1.0263-5.6806 1.2955-0.17306 0.17307-0.12052 0.37642 0.18543 0.71452 0.51734 0.57173 4.0377 2.7752 4.822 3.0181 0.30842 0.0955 1.0918 0.36993 1.7408 0.61006l1.1799 0.43698 0.0158 1.6135c0.0315 3.1717 0.33438 5.5124 0.77632 6.0023v9.3e-4c0.22869 0.25249 0.57358 0.42926 0.76643 0.39248 0.46974-0.0902 1.3567-1.7591 2.6052-4.9008 0.56617-1.4253 1.1064-2.715 1.1991-2.8661 0.17616-0.28493 2.1874 0.0952 5.7621 1.0885 2.069 0.57482 3.4075 0.58038 3.5868 0.0154 0.15668-0.49416-0.20304-1.5381-0.73707-2.1395-0.20768-0.23395-1.0477-1.0053-1.8676-1.7143l-1.4902-1.2887 2.4384-2.3027c1.3412-1.2665 2.502-2.5002 2.5787-2.7415 0.27381-0.86223-0.0825-1.4989-0.99049-1.7708-0.96762-0.2905-2.773 0.0933-6.3153 1.3422-1.044 0.36776-1.9717 0.62365-2.0619 0.56802-0.0902-0.0556-0.33748-0.63138-0.54948-1.2791-0.48922-1.4958-1.0461-2.6139-2.1831-4.3838-0.66043-1.0282-0.91786-1.3184-1.2356-1.2955z" style="fill:#fff"/><path d="m293.04 497.1a0.27041 0.27041 0 0 0-0.11002 0.0253c-0.13536 0.0597-0.27351 0.39496-0.44843 1.0906-0.13443 0.53403-0.14834 0.57049-0.22869 0.60171-0.0473 0.0185-0.38291 0.0918-0.74541 0.16317-0.36282 0.0711-0.6731 0.14216-0.6901 0.15792-0.0167 0.0155-4e-3 0.0791 0.029 0.14124 0.0581 0.11125 0.0689 0.11589 0.50869 0.2256 0.24723 0.0618 0.53773 0.13907 0.64528 0.17214l0.19563 0.06-0.17461 0.58533c-0.14896 0.49911-0.17029 0.60078-0.14124 0.69072 0.0609 0.18728 0.13815 0.15946 0.43576-0.15947 0.15297-0.16379 0.31584-0.35633 0.3622-0.42741 0.14061-0.21571 0.50188-0.53743 0.55658-0.4954 0.15144 0.11589 0.40145 0.27474 0.61562 0.39094 0.13474 0.0733 0.3316 0.19903 0.43699 0.27969 0.20922 0.15978 0.26979 0.17275 0.32913 0.0692 0.0667-0.1159-0.0176-0.38755-0.24878-0.79919l-0.2222-0.39558 0.19933-0.17306a28.244 28.244 0 0 0 0.46975-0.42123c0.42277-0.38816 0.42308-0.60202 0-0.50467-0.0822 0.0189-0.27536 0.0507-0.42988 0.0702s-0.40361 0.0711-0.5535 0.11435l-0.27289 0.0782-0.12732-0.43267c-0.21108-0.71791-0.33223-1.0786-0.36993-1.1024a0.04852 0.04852 0 0 0-0.0219-5e-3z" style="fill:#fff"/><path d="m794.27 550.05c-0.24909 9e-3 -0.48396 0.34242-0.6731 1.0168-0.0899 0.3214-0.34829 1.056-0.57389 1.6318-0.22561 0.57575-0.52105 1.5415-0.6561 2.1463l-0.24631 1.1002-1.7489-0.38012c-2.9029-0.62984-4.3924-0.89407-4.5467-0.8063-0.0807 0.0457-0.16225 0.26949-0.1811 0.49756-0.0494 0.58564 0.8579 1.7047 2.9498 3.6378 1.6058 1.484 1.7072 1.6018 1.6627 1.9423-0.026 0.19965-0.40886 1.5081-0.8508 2.9081-0.44193 1.4-0.78497 2.6176-0.76241 2.7054 0.0226 0.0878 0.2698 0.16349 0.54917 0.16781 0.49756 8e-3 0.53341-0.0195 1.7535-1.3434 0.68515-0.74356 1.5072-1.6083 1.8271-1.9213l0.581-0.56988 1.7078 1.7238c1.4556 1.4692 1.7711 1.7356 2.1398 1.8048 0.76952 0.14463 0.81804-0.17801 0.27196-1.8227-0.27968-0.84462-0.63972-1.7776-0.79949-2.074-0.4852-0.90086-0.91941-2.7724-0.66939-2.8834 0.69287-0.30781 1.722-0.87707 2.5357-1.4031 0.51147-0.33037 1.3246-0.77632 1.8066-0.99111 0.955-0.42493 1.1132-0.60974 0.8663-1.0134-0.2772-0.45306-1.3849-0.67496-3.2589-0.65363l-1.8024 0.0204-0.22344-1.0223a111.98 111.98 0 0 0-0.57482-2.4399c-0.32512-1.3147-0.71977-1.9924-1.0838-1.9785z" style="fill:#fff"/><path d="m651.5 343.02c-0.3455-0.0201-0.8375 0.28586-1.4577 0.9466-0.3492 0.37178-1.2183 1.1843-1.9309 1.8054-0.7127 0.62087-1.7956 1.7208-2.4066 2.4452l-1.1107 1.3168-2.1015-1.7504c-3.4891-2.9056-5.3217-4.3167-5.5931-4.3072-0.14154 5e-3 -0.4101 0.25094-0.59708 0.54608-0.48087 0.75963-0.0417 2.918 1.4269 7.0165 1.128 3.1461 1.1809 3.3778 0.88016 3.808-0.17616 0.25187-1.6194 1.7554-3.2079 3.3402-1.5885 1.5854-2.9143 2.9925-2.9458 3.1275-0.0312 0.13474 0.24971 0.41196 0.6252 0.61562 0.66877 0.36251 0.73707 0.35014 3.3266-0.58193 1.4544-0.52352 3.1794-1.1147 3.834-1.3128l1.1904-0.36097 1.0962 3.5432c0.93424 3.02 1.1744 3.605 1.6246 3.9595v-3.1e-4c0.94073 0.73985 1.2346 0.33624 1.6577-2.2786 0.21696-1.3425 0.38846-2.8618 0.38196-3.376-0.021-1.5638 0.7139-4.4079 1.1311-4.3816 1.1565 0.0729 2.9536 0.0287 4.428-0.10848 0.9268-0.0865 2.3438-0.1162 3.1492-0.0664 1.5946 0.0989 1.9398-0.0402 1.8904-0.76179-0.056-0.8097-1.3997-1.8938-3.9549-3.1893l-2.4572-1.2461 0.4203-1.544c0.2309-0.84926 0.6558-2.5203 0.9451-3.7132 0.5396-2.2239 0.415-3.4526-0.2445-3.4913z" style="fill:#fff"/><path d="m503.86 419.68c-0.3807 0.0145-0.7401 0.52445-1.0291 1.5557-0.1375 0.49138-0.5319 1.6132-0.8767 2.4934-0.3449 0.88015-0.7965 2.3565-1.0032 3.2811l-0.3761 1.6812-2.6732-0.58008c-4.4376-0.96329-6.7147-1.3672-6.9505-1.2331-0.1236 0.0698-0.2472 0.41195-0.2765 0.76025-0.075 0.89592 1.3118 2.6065 4.5092 5.5612 2.4551 2.2684 2.609 2.4489 2.5413 2.9696-0.04 0.30472-0.6246 2.3049-1.3002 4.445-0.6755 2.1398-1.2003 4.0009-1.1657 4.135 0.035 0.13443 0.4123 0.24971 0.8391 0.25651 0.7605 0.0124 0.8159-0.03 2.6806-2.0539 1.0477-1.1364 2.3043-2.4581 2.7929-2.9365l0.8885-0.87027 2.6102 2.6346c2.2248 2.2458 2.7078 2.6532 3.2715 2.7592 1.1759 0.22128 1.2498-0.27258 0.4157-2.787-0.4281-1.2906-0.9785-2.7174-1.2223-3.1708-0.7414-1.3765-1.4052-4.2376-1.0229-4.4073 1.059-0.47005 2.6318-1.3403 3.8754-2.1441 0.7819-0.50498 2.0245-1.1861 2.7616-1.5143 1.4599-0.64992 1.7013-0.93331 1.3236-1.5502-0.4234-0.69226-2.116-1.0322-4.9808-0.99945l-2.7549 0.0315-0.3415-1.5628c-0.1879-0.85976-0.5837-2.5382-0.8789-3.7296-0.4975-2.01-1.1002-3.0459-1.6568-3.0249z" style="fill:#fff"/><path d="m710.77 460.4-0.14216 1.0906c-0.0776 0.59954-0.29668 2.1448-0.48643 3.4332-0.18976 1.2887-0.37086 2.9069-0.40176 3.5964-0.0309 0.68917-0.0726 1.4068-0.0927 1.5947-0.0201 0.19161-1.1697 0.92713-2.6207 1.6769-2.871 1.4834-2.867 1.4606-0.33593 2.125 0.86718 0.22777 1.9155 0.67279 2.3296 0.98894 0.73552 0.56061 0.75715 0.62489 0.89622 2.6661 0.0788 1.1503 0.2083 2.6896 0.28742 3.4205l0.1437 1.3286 0.5022-1.3351c0.27628-0.7346 0.78188-1.8892 1.124-2.5654 0.86656-1.713 2.2656-3.7308 2.7029-3.8986 0.2015-0.0773 0.5377-0.14092 0.7473-0.14092 0.4033 0 3.9171 1.4241 6.8305 2.7678 0.958 0.44193 1.742 0.76643 1.742 0.72223 0-0.33469-2.3648-3.9388-3.3151-5.0529-0.7333-0.85914-1.1799-1.5925-1.1799-1.9386 0-0.41072 0.8282-1.4133 3.164-3.829 1.7402-1.8002 3.1195-3.3173 3.0651-3.3717-0.1619-0.16225-3.5398 1.2078-4.428 1.7956-0.7655 0.50683-4.8106 1.9396-5.4753 1.9396-0.5724 0-1.9411-1.65-2.4059-2.8998-0.58997-1.5863-1.357-2.905-2.0854-3.5855z" style="fill:#fff"/><path d="m804.2 257.94a0.38692 0.38692 0 0 0-0.15979 0.0371c-0.1959 0.0865-0.3956 0.57173-0.6484 1.5786-0.1944 0.77323-0.2144 0.82577-0.3313 0.8712-0.068 0.0266-0.5538 0.13288-1.0785 0.2358-0.5254 0.10322-0.9751 0.20551-0.9992 0.22838-0.024 0.0226-0.01 0.11465 0.042 0.2052 0.084 0.16071 0.1 0.16689 0.7365 0.32605a26.08 26.08 0 0 1 0.9336 0.24909l0.2837 0.0865-0.2534 0.8474c-0.2157 0.72193-0.2457 0.86934-0.2034 0.99945 0.088 0.27134 0.2 0.23054 0.6305-0.23117 0.2216-0.23703 0.4574-0.51517 0.5241-0.61809 0.2034-0.31244 0.72629-0.77817 0.80509-0.7176 0.2194 0.16781 0.5813 0.39743 0.8916 0.56617 0.195 0.1057 0.4796 0.28834 0.6326 0.40485 0.3029 0.23147 0.3897 0.24909 0.4759 0.0998 0.096-0.16781-0.026-0.56091-0.36-1.1568l-0.3214-0.57266 0.2883-0.25002c0.1583-0.13752 0.4639-0.41226 0.6796-0.61005 0.6119-0.56215 0.6125-0.87089 0-0.72996-0.1187 0.0275-0.398 0.0729-0.6218 0.10136-0.2234 0.0284-0.5844 0.10261-0.8016 0.16503l-0.3947 0.11342-0.1842-0.62612c-0.3053-1.0384-0.4809-1.561-0.5359-1.5953a0.066135 0.066135 0 0 0-0.031-8e-3z" style="fill:#fff"/><path d="m614.05 594.02c-0.2429 0.01-0.4725 0.33439-0.6567 0.99203-0.088 0.31337-0.3397 1.0285-0.5594 1.5897-0.22 0.56153-0.5074 1.5032-0.6394 2.0928l-0.2395 1.0721-1.7053-0.37024c-2.8296-0.61407-4.2815-0.8715-4.4323-0.7859-0.078 0.0448-0.1583 0.26269-0.1768 0.48489-0.048 0.57112 0.8372 1.6617 2.8763 3.546 1.5653 1.4466 1.6639 1.5622 1.6206 1.8944-0.026 0.19408-0.3987 1.4695-0.8295 2.8342-0.4305 1.3647-0.7652 2.5515-0.7429 2.6371 0.022 0.0856 0.2627 0.15916 0.5346 0.16379 0.4852 8e-3 0.5205-0.0192 1.7097-1.31 0.6678-0.7247 1.4695-1.5678 1.781-1.8728l0.5668-0.55474 1.6642 1.6797c1.4188 1.4324 1.7275 1.692 2.0866 1.7597v6.1e-4c0.7501 0.14093 0.7971-0.1743 0.2652-1.7776-0.2732-0.82329-0.6236-1.7325-0.7794-2.0215-0.4728-0.87799-0.8969-2.7029-0.653-2.8111 0.6752-0.29978 1.6784-0.85451 2.4717-1.3672 0.4985-0.32202 1.2912-0.75715 1.7616-0.96638 0.9308-0.41412 1.0847-0.5946 0.8443-0.98801-0.2704-0.44163-1.3499-0.65827-3.177-0.63725l-1.7569 0.0198-0.2179-0.99729a109.13 109.13 0 0 0-0.5603-2.3781c-0.3171-1.2816-0.7015-1.942-1.0563-1.9284z" style="fill:#fff"/><path d="m116.67 323.13c-0.1687 6e-3 -0.3275 0.23178-0.4555 0.68855-0.061 0.21756-0.2361 0.71482-0.3888 1.1045-0.1526 0.39002-0.3526 1.044-0.4444 1.4534l-0.1665 0.74479-1.1843-0.25712c-1.9655-0.42648-2.9742-0.60573-3.079-0.54608-0.054 0.0309-0.1091 0.18295-0.1224 0.33747-0.033 0.39651 0.581 1.1543 1.9974 2.4631 1.0875 1.005 1.1564 1.0847 1.1261 1.3153-0.018 0.13505-0.2772 1.0217-0.5763 1.9695-0.2992 0.94815-0.5316 1.7721-0.5162 1.8314 0.015 0.0593 0.1827 0.11002 0.3718 0.11435 0.3369 5e-3 0.3613-0.0139 1.1874-0.91044 0.4639-0.50375 1.0207-1.0888 1.2374-1.3011l0.3934-0.38538 1.1558 1.1673c0.9859 0.99512 1.1997 1.1753 1.4494 1.2223 0.5211 0.098 0.5535-0.12114 0.1842-1.2349-0.1897-0.57173-0.4336-1.2037-0.5414-1.4046-0.3285-0.60974-0.6227-1.8768-0.4534-1.9519 0.4692-0.20829 1.1664-0.59398 1.7174-0.95 0.3461-0.22375 0.8968-0.52599 1.2235-0.67124 0.6465-0.28803 0.7531-0.4132 0.5859-0.68608-0.1876-0.30719-0.937-0.45739-2.2062-0.44286l-1.2204 0.0139-0.1515-0.69226a76.173 76.173 0 0 0-0.3894-1.6522c-0.2203-0.89004-0.4873-1.3493-0.734-1.34z" style="fill:#fff"/><path d="m346.58 244.36a0.38291 0.38291 0 0 0-0.15946 0.0362c-0.19594 0.0865-0.39558 0.57296-0.649 1.5795-0.19408 0.77323-0.21385 0.82577-0.33067 0.8712-0.068 0.0266-0.55412 0.13227-1.0792 0.23549-0.52506 0.10291-0.9741 0.20582-0.99821 0.22869-0.0241 0.0226-5e-3 0.11435 0.042 0.20459 0.0844 0.1607 0.0998 0.1675 0.73645 0.32666 0.35757 0.0893 0.77725 0.20088 0.93332 0.24847l0.2837 0.0868-0.25311 0.84771c-0.21571 0.72193-0.24538 0.86934-0.20335 0.99945 0.0881 0.27134 0.19933 0.23055 0.63045-0.23117 0.22097-0.23703 0.45677-0.51517 0.52352-0.61808 0.20366-0.31245 0.72687-0.77818 0.80599-0.7176 0.21942 0.16781 0.581 0.39743 0.89159 0.56616 0.1947 0.1057 0.47964 0.28834 0.63262 0.40485 0.30286 0.23148 0.38939 0.24909 0.47562 0.0998 0.0964-0.16781-0.0266-0.56091-0.36035-1.1568l-0.32141-0.57266 0.28803-0.25032c0.15854-0.13784 0.46481-0.41196 0.68021-0.60975 0.61191-0.56215 0.61253-0.8715 0-0.73058-0.11836 0.0275-0.39867 0.0729-0.62211 0.10137-0.22374 0.0284-0.58409 0.10322-0.80104 0.16565l-0.39465 0.1128-0.18419-0.62551c-0.30564-1.0384-0.48118-1.561-0.53619-1.5953a0.068917 0.068917 0 0 0-0.0312-8e-3z" style="fill:#fff"/><path d="m963.49 306.11a0.27041 0.27041 0 0 0-0.11 0.0253c-0.1354 0.0597-0.2735 0.39496-0.4484 1.0906-0.1345 0.53403-0.1484 0.57049-0.2287 0.60171-0.047 0.0185-0.3829 0.0918-0.7454 0.16317-0.3628 0.0711-0.6731 0.14216-0.6901 0.15792-0.017 0.0155 0 0.0791 0.029 0.14124 0.058 0.11125 0.069 0.11589 0.5087 0.2256 0.2472 0.0618 0.5377 0.13907 0.6452 0.17214l0.1957 0.06-0.1746 0.58533c-0.149 0.49911-0.1703 0.60078-0.1413 0.69072 0.061 0.18728 0.1382 0.15946 0.4358-0.15947 0.153-0.16379 0.3158-0.35633 0.3622-0.42741 0.1406-0.21571 0.5019-0.53743 0.5566-0.4954 0.1514 0.11589 0.4014 0.27474 0.6156 0.39094 0.1347 0.0733 0.3316 0.19903 0.437 0.27969 0.2092 0.15978 0.2698 0.17275 0.3291 0.0692 0.067-0.1159-0.018-0.38755-0.2488-0.79919l-0.2222-0.39558 0.1994-0.17306a28.244 28.244 0 0 0 0.4697-0.42123c0.4228-0.38816 0.4231-0.60202 0-0.50467-0.082 0.0189-0.2754 0.0507-0.4299 0.0702s-0.4036 0.0711-0.5535 0.11435l-0.2729 0.0782-0.1273-0.43267c-0.2111-0.71791-0.3322-1.0786-0.3699-1.1024a0.04852 0.04852 0 0 0-0.022-5e-3z" style="fill:#fff"/><path d="m231.23 550.65c-0.34551-0.0201-0.83751 0.28586-1.4578 0.9466-0.34922 0.37178-1.2182 1.1843-1.9309 1.8054-0.71265 0.62087-1.7955 1.7208-2.4065 2.4452l-1.1107 1.3168-2.1015-1.7504c-3.4891-2.9056-5.3217-4.3167-5.5931-4.3072-0.14154 5e-3 -0.4101 0.25094-0.59708 0.54608-0.48087 0.75963-0.0417 2.918 1.4269 7.0165 1.128 3.1461 1.1809 3.3778 0.88016 3.808-0.17616 0.25187-1.6194 1.7554-3.2079 3.3402-1.5885 1.5854-2.9143 2.9925-2.9458 3.1275-0.0312 0.13474 0.24971 0.41196 0.6252 0.61562 0.66877 0.36251 0.73707 0.35014 3.3266-0.58193 1.4544-0.52352 3.1794-1.1147 3.834-1.3128l1.1904-0.36097 1.0962 3.5432c0.93424 3.02 1.1744 3.605 1.6246 3.9595v-3.1e-4c0.94073 0.73985 1.2346 0.33624 1.6577-2.2786 0.21695-1.3425 0.38847-2.8618 0.38198-3.376-0.0207-1.5638 0.71389-4.4079 1.1311-4.3816 1.1564 0.0729 2.9535 0.0287 4.428-0.10848 0.92682-0.0865 2.3438-0.1162 3.1492-0.0664 1.5947 0.0989 1.9399-0.0402 1.8904-0.76179-0.0556-0.8097-1.3997-1.8938-3.9548-3.1893l-2.4572-1.2461 0.4203-1.544c0.23086-0.84926 0.65579-2.5203 0.94506-3.7132 0.53959-2.2239 0.41505-3.4526-0.24446-3.4913z" style="fill:#fff"/><path d="m59.61 467.66c-0.38074 0.0145-0.74016 0.52445-1.0291 1.5557-0.13753 0.49138-0.53187 1.6132-0.87676 2.4934-0.3449 0.88015-0.79641 2.3565-1.0032 3.2811l-0.37611 1.6812-2.6732-0.58008c-4.4376-0.96329-6.7146-1.3672-6.9504-1.2331-0.12361 0.0698-0.24723 0.41195-0.27659 0.76025-0.0751 0.89592 1.3119 2.6065 4.5093 5.5612 2.455 2.2684 2.609 2.4489 2.5413 2.9696-0.0396 0.30472-0.62458 2.3049-1.3002 4.445-0.67557 2.1398-1.2003 4.0009-1.1657 4.135 0.0346 0.13443 0.41227 0.24971 0.83906 0.25651 0.76055 0.0124 0.81587-0.03 2.6806-2.0539 1.0477-1.1364 2.3042-2.4581 2.7928-2.9365l0.8885-0.87027 2.6102 2.6346c2.2248 2.2458 2.7078 2.6532 3.2715 2.7592 1.1759 0.22128 1.2498-0.27258 0.41567-2.787-0.42803-1.2906-0.97844-2.7174-1.2223-3.1708-0.7414-1.3765-1.4052-4.2376-1.0229-4.4073 1.0591-0.47005 2.6318-1.3403 3.8754-2.1441 0.78188-0.50498 2.0245-1.1861 2.7616-1.5143 1.4599-0.64992 1.7013-0.93331 1.3236-1.5502-0.42339-0.69226-2.116-1.0322-4.9809-0.99945l-2.7548 0.0315-0.34149-1.5628c-0.1879-0.85976-0.58378-2.5382-0.87892-3.7296-0.49756-2.01-1.1002-3.0459-1.6568-3.0249z" style="fill:#fff"/><path d="m605.86 236.24a0.43266 0.43266 0 0 0-0.173 0.0457c-0.2256 0.10291-0.2766 0.21416-0.2766 0.60449 0 0.50745 0.3195 3.299 0.4132 3.6099 0.034 0.11126-0.048 0.23673-0.2074 0.3177-1.6534 0.83658-2.596 1.416-2.626 1.6132-0.063 0.41876 0.3928 0.68206 1.1234 0.64776 0.3613-0.017 0.8694-2e-3 1.1296 0.0331l0.4725 0.0634 0.1443 1.0727c0.079 0.59028 0.1691 1.2841 0.1997 1.5421 0.031 0.25836 0.1607 0.64158 0.2886 0.85173 0.1694 0.27876 0.3023 0.37209 0.4914 0.3452 0.2296-0.0324 0.3044-0.21911 0.6688-1.6658 0.2256-0.89622 0.5346-1.926 0.6861-2.2875l0.2759-0.65827 0.4834 0.20706c0.2658 0.11435 0.9524 0.34768 1.5254 0.51858 0.573 0.17121 1.2875 0.41288 1.5876 0.53774 0.771 0.3214 1.2352 0.30348 1.3242-0.0513 0.04-0.15854-0.01-0.43081-0.1134-0.63293-0.2546-0.492-1.6222-2.035-1.968-2.2202l-0.2846-0.15205 0.5563-0.84029c0.856-1.2921 1.4142-2.4711 1.3727-2.8988-0.033-0.33407-0.071-0.36683-0.4116-0.35138-0.3749 0.0167-0.8669 0.23611-2.927 1.306l-1.0909 0.56617-0.4218-0.46604c-0.2318-0.25651-0.8079-0.75252-1.2807-1.102-0.5693-0.42092-0.7865-0.55968-0.9621-0.55597z" style="fill:#fff"/><path d="m978.95 491.2c-0.14216 6e-3 -0.27691 0.19624-0.38507 0.58193-0.0513 0.18388-0.19933 0.60387-0.32821 0.93331a10.126 10.126 0 0 0-0.37548 1.2275l-0.14062 0.62921-1.0001-0.21695c-1.6608-0.36034-2.5125-0.51178-2.6009-0.46171-0.0464 0.0263-0.0927 0.15452-0.10384 0.28494-0.0281 0.33531 0.49107 0.97565 1.6874 2.0814 0.91879 0.84864 0.97658 0.91632 0.95155 1.111-0.0148 0.11434-0.23426 0.86285-0.48706 1.6636s-0.44873 1.4973-0.43575 1.5477c0.0127 0.0501 0.1539 0.0918 0.31368 0.0958 0.28432 5e-3 0.30534-0.0114 1.0032-0.7689 0.39187-0.42525 0.86192-0.92003 1.0446-1.0993l0.33284-0.32512 0.9772 0.98585c0.83256 0.84029 1.0134 0.99296 1.2241 1.0325 0.44008 0.0828 0.46789-0.10168 0.15576-1.0424-0.16009-0.48303-0.36622-1.0171-0.45739-1.1867-0.27752-0.51517-0.52599-1.586-0.3829-1.6497 0.3965-0.17584 0.98492-0.50126 1.4506-0.80197 0.29236-0.18913 0.75716-0.44409 1.0331-0.56678 0.54639-0.24353 0.63694-0.34922 0.4957-0.58008-0.15854-0.25929-0.79239-0.38661-1.8645-0.37425l-1.031 0.0114-0.12795-0.58502a63.902 63.902 0 0 0-0.32851-1.3956c-0.18605-0.75191-0.41196-1.1394-0.62056-1.1317z" style="fill:#fff"/><path d="m585.47 760.31-0.1421 1.0906c-0.078 0.59954-0.2967 2.1448-0.4864 3.4332-0.1898 1.2887-0.3709 2.9069-0.4018 3.5964-0.031 0.68917-0.073 1.4068-0.093 1.5947-0.02 0.19161-1.1697 0.92713-2.6207 1.6769-2.871 1.4834-2.867 1.4606-0.3359 2.125 0.8671 0.22777 1.9154 0.67279 2.3295 0.98894 0.7356 0.56061 0.7572 0.62489 0.8963 2.6661 0.079 1.1503 0.2083 2.6896 0.2874 3.4205l0.1437 1.3286 0.5022-1.3351c0.2763-0.7346 0.7819-1.8892 1.124-2.5654 0.8665-1.713 2.2656-3.7308 2.7029-3.8986 0.2015-0.0773 0.5377-0.14092 0.7472-0.14092 0.4034 0 3.9172 1.4241 6.8305 2.7678 0.9581 0.44193 1.7421 0.76643 1.7421 0.72223 0-0.33469-2.3648-3.9388-3.3151-5.0529-0.7334-0.85914-1.1799-1.5925-1.1799-1.9386 0-0.41072 0.8282-1.4133 3.164-3.829 1.7402-1.8002 3.1195-3.3173 3.0651-3.3717-0.162-0.16225-3.5398 1.2078-4.428 1.7956-0.7655 0.50683-4.8106 1.9396-5.4753 1.9396-0.5724 0-1.9412-1.65-2.406-2.8998-0.5899-1.5863-1.357-2.905-2.0854-3.5855z" style="fill:#fff"/><path d="m675.82 727.29a0.65888 0.65888 0 0 0-0.1412 0.0278c-0.2596 0.0782-0.5532 0.21725-0.6527 0.30904-0.2046 0.18914-0.7355 3.3006-1.1287 6.6191l-0.2636 2.2285-2.3601 0.40021c-3.5605 0.60418-5.4117 1.0263-5.6806 1.2955-0.1731 0.17307-0.1205 0.37642 0.1854 0.71452 0.5174 0.57173 4.0377 2.7752 4.8221 3.0181 0.3084 0.0955 1.0918 0.36993 1.7408 0.61006l1.1799 0.43698 0.016 1.6135c0.032 3.1717 0.3344 5.5124 0.7764 6.0023v9.3e-4c0.2287 0.25249 0.5735 0.42926 0.7664 0.39248 0.4697-0.0902 1.3567-1.7591 2.6052-4.9008 0.5662-1.4253 1.1064-2.715 1.1991-2.8661 0.1762-0.28493 2.1874 0.0952 5.7622 1.0885 2.069 0.57482 3.4075 0.58038 3.5867 0.0154 0.1567-0.49416-0.203-1.5381-0.737-2.1395-0.2077-0.23395-1.0477-1.0053-1.8676-1.7143l-1.4902-1.2887 2.4383-2.3027c1.3413-1.2665 2.5021-2.5002 2.5787-2.7415 0.2738-0.86223-0.082-1.4989-0.9905-1.7708-0.9676-0.2905-2.773 0.0933-6.3153 1.3422-1.0439 0.36776-1.9717 0.62365-2.0619 0.56802-0.09-0.0556-0.3375-0.63138-0.5495-1.2791-0.4892-1.4958-1.0461-2.6139-2.1831-4.3838-0.6604-1.0282-0.9179-1.3184-1.2356-1.2955z" style="fill:#fff"/><path d="m592.67 515.21c-0.2151 8e-3 -0.4182 0.29668-0.5811 0.87892-0.078 0.27752-0.301 0.91106-0.4957 1.4083-0.1947 0.49694-0.4499 1.3314-0.5667 1.8536l-0.2127 0.94939-1.5094-0.32759c-2.5063-0.54392-3.7926-0.77261-3.9258-0.69689-0.07 0.0396-0.14 0.23301-0.1564 0.42988-0.042 0.5059 0.74113 1.4723 2.5471 3.1411 1.3863 1.2813 1.4735 1.3827 1.4351 1.6769-0.022 0.17213-0.3529 1.3023-0.7346 2.511-0.3813 1.2084-0.67762 2.26-0.65812 2.3358 0.019 0.076 0.23232 0.14092 0.47362 0.14525 0.4296 7e-3 0.4611-0.0179 1.5144-1.1611 0.5919-0.64189 1.3011-1.3882 1.5774-1.6586l0.5022-0.49138 1.4742 1.488c1.2565 1.2683 1.5297 1.4986 1.848 1.5585 0.6645 0.12485 0.7059-0.1536 0.2349-1.5737-0.242-0.72934-0.5529-1.535-0.6907-1.7909-0.4188-0.77755-0.7942-2.3939-0.5782-2.49 0.5983-0.26547 1.4865-0.75685 2.1893-1.2108 0.4416-0.28525 1.1434-0.67063 1.5597-0.85606 0.8245-0.36683 0.9611-0.52661 0.7479-0.8749-0.2395-0.39125-1.1954-0.58286-2.8136-0.56432l-1.556 0.0173-0.1931-0.88232a96.937 96.937 0 0 0-0.4961-2.1068c-0.2812-1.1351-0.62108-1.7208-0.93568-1.7087z" style="fill:#fff"/></svg>
