<svg viewBox="0 0 1123 889" xml:space="preserve" xmlns="http://www.w3.org/2000/svg" xmlns:xlink="http://www.w3.org/1999/xlink">
    <path d="M737 143c123 40 306-5.8 374 104 39 64-28 147-44 221-21 97 .26 220-70 290-76 76-208 54-313 76-83 18-169 73-249 47S329 748 262 697c-66-49-172-45-220-112-41-56-52-140-31-207 25-81 116-123 174-184 46-48 80-111 138-145 56-33 126-61 190-48 61 12 94 83 148 112 24 13 51 20 76 28z"/>
    <path id="star" d="M609 471c-.16.002-.44.13-.67.32-.69.55-.98 2.7-.93 7 .038 3.3.014 3.5-.4 3.8-.24.18-2.1 1.1-4.1 2.1s-3.7 1.8-3.7 2c-.072.12.1.46.38.77.51.55.57.56 3.3.53 1.5-.02 3.3-.015 4 .01l1.2.047-.12 3.6c-.1 3.1-.065 3.7.24 4.2.64.99 1 .71 2.3-1.6.63-1.2 1.3-2.5 1.4-3 .48-1.5 2.1-3.9 2.5-3.7 1.1.44 2.7.98 4.2 1.3.89.22 2.2.64 3 .95 1.5.6 1.8.59 2-.1.21-.77-.69-2.2-2.7-4.2l-1.9-2 .89-1.3c.49-.72 1.4-2.1 2.1-3.2 1.9-2.9 1.5-4.1-.77-2.9-.44.23-1.5.71-2.4 1.1a27 27 0 0 0-3 1.5l-1.5.87-1.4-2.3c-2.3-3.8-3.6-5.7-3.8-5.8a.19.19 0 0 0-.06-.007z" fill="#fff"/>
    <path d="M506 314c-.56.03-4.8 7.4-6 10-.76 1.9-2.6 8.1-3.3 11-1 4.5-.051 10 2.6 16 1.3 2.6 5.4 7.9 8.1 10 3.8 3.5 7.2 6 11 7.7 6.5 3.1 13 4 18 2.6 1.3-.36 3.2-1.1 4.2-1.6 2.3-1.2 4.5-2 5.7-2.2 1.7-.3 4.5-1.4 5.9-2.4 1.7-1.2 3.6-2.8 3.6-3.1 0-.12-2.4-.41-5.4-.63-4-.3-6.4-.66-9.4-1.4-8.6-2.2-14-4.3-18-6.6-2.1-1.4-6.3-5.5-8-7.9-1.9-2.6-4.9-8-5.7-10-1.6-4.4-2.2-8-2.4-15-.11-3.7-.28-6.8-.38-6.8z" fill="#fff"/>
    <use transform="matrix(.51 .56 -.56 .51 557 -309)" xlink:href="#star"/>
    <use transform="matrix(.92 .34 -.34 .92 368 -149)" xlink:href="#star"/>
    <use transform="matrix(.68 .36 -.36 .68 213 -400)" xlink:href="#star"/>
    <use transform="matrix(.63 .53 -.53 .63 351 77)" xlink:href="#star"/>
    <use transform="matrix(.94 0 0 .94 457 -195)" xlink:href="#star"/>
    <use transform="matrix(.77 .32 -.32 .77 17 -24)" xlink:href="#star"/>
    <use transform="matrix(.92 .23 -.23 .92 -28 113)" xlink:href="#star"/>
    <use transform="matrix(.94 .18 -.18 .94 488 7.1)" xlink:href="#star"/>
    <use transform="matrix(.96 .15 -.15 .96 63 -435)" xlink:href="#star"/>
    <use transform="matrix(.98 .087 -.087 .98 -224 -368)" xlink:href="#star"/>
    <use transform="matrix(.69 .38 -.38 .69 304 -91)" xlink:href="#star"/>
    <use transform="matrix(.69 .67 -.67 .69 898 -296)" xlink:href="#star"/>
    <use transform="matrix(.94 -.12 .12 .94 276 371)" xlink:href="#star"/>
    <use transform="matrix(.88 .21 -.21 .88 -6.4 54)" xlink:href="#star"/>
    <use transform="matrix(.99 0 0 .99 -503 51)" xlink:href="#star"/>
    <use transform="matrix(.67 .22 -.22 .67 173 -51)" xlink:href="#star"/>
    <use transform="matrix(.73 .48 -.48 .73 155 -273)" xlink:href="#star"/>
    <use transform="matrix(.81 .57 -.57 .81 713 -237)" xlink:href="#star"/>
    <use transform="matrix(.88 0 0 .88 405 -206)" xlink:href="#star"/>
    <use transform="matrix(.91 0 0 .91 484 -83)" xlink:href="#star"/>
    <use transform="matrix(.62 .65 -.65 .62 558 -507)" xlink:href="#star"/>
    <use transform="matrix(.67 .43 -.43 .67 445 -175)" xlink:href="#star"/>
    <use transform="matrix(.82 .052 -.052 .82 -106 -168)" xlink:href="#star"/>
    <use transform="matrix(.85 0 0 .85 -242 -185)" xlink:href="#star"/>
    <use transform="matrix(.81 .34 -.34 .81 314 -50)" xlink:href="#star"/>
    <use transform="translate(-249 247)" xlink:href="#star"/>
    <use transform="matrix(.81 .45 -.45 .81 307 55)" xlink:href="#star"/>
    <use transform="matrix(.24 .53 -.53 .24 617 -171)" xlink:href="#star"/>
    <use transform="matrix(1 .34 -.34 1 424 -187)" xlink:href="#star"/>
    <use transform="matrix(.73 .52 -.52 .73 525 -245)" xlink:href="#star"/>
    <use transform="matrix(.79 .47 -.47 .79 533 14)" xlink:href="#star"/>
    <use transform="matrix(1 .25 -.25 1 -197 -23)" xlink:href="#star"/>
    <use transform="matrix(.48 1.1 -1.1 .48 1078 -578)" xlink:href="#star"/>
    <use transform="matrix(.88 .086 -.086 .88 448 -152)" xlink:href="#star"/>
    <use transform="matrix(1 .065 -.065 1 -161 -212)" xlink:href="#star"/>
    <use transform="matrix(.87 .3 -.3 .87 513 5.9)" xlink:href="#star"/>
    <use transform="matrix(.89 .11 -.11 .89 259 -233)" xlink:href="#star"/>
    <use transform="matrix(.49 .84 -.84 .49 1000 -324)" xlink:href="#star"/>
    <use transform="matrix(.81 .17 -.17 .81 8 66)" xlink:href="#star"/>
    <use transform="matrix(.7 .47 -.47 .7 424 154)" xlink:href="#star"/>
    <use transform="matrix(.73 .25 -.25 .73 161 5.7)" xlink:href="#star"/>
    <use transform="matrix(.88 .33 -.33 .88 292 -380)" xlink:href="#star"/>
    <use transform="matrix(.79 .21 -.21 .79 451 -284)" xlink:href="#star"/>
    <use transform="matrix(.88 -.043 .043 .88 -411 41)" xlink:href="#star"/>
    <use transform="matrix(.52 .42 -.42 .52 579 -29)" xlink:href="#star"/>
    <use transform="matrix(-.098 .97 -.97 -.098 785 -131)" xlink:href="#star"/>
    <use transform="matrix(.79 .46 -.46 .79 407 59)" xlink:href="#star"/>
    <use transform="matrix(.91 0 0 .91 216 182)" xlink:href="#star"/>
    <use transform="matrix(.48 .41 -.41 .48 143 25)" xlink:href="#star"/>
    <use transform="matrix(.9 .28 -.28 .9 257 33)" xlink:href="#star"/>
    <use transform="matrix(.73 .3 -.3 .73 109 -89)" xlink:href="#star"/>
    <use transform="matrix(.98 .043 -.043 .98 -63 302)" xlink:href="#star"/>
    <use transform="matrix(.65 .5 -.5 .65 520 -290)" xlink:href="#star"/>
    <use transform="matrix(.91 0 0 .91 -344 -141)" xlink:href="#star"/>
    <use transform="matrix(.91 .036 -.036 .91 -423 -122)" xlink:href="#star"/>
    <use transform="matrix(-.19 .75 -.75 -.19 1000 -172)" xlink:href="#star"/>
    <use transform="matrix(.66 -.31 .31 .66 37 255)" xlink:href="#star"/>
    <use transform="matrix(.82 .42 -.42 .82 498 -234)" xlink:href="#star"/>
    <use transform="matrix(.68 .056 -.056 .68 -91 -49)" xlink:href="#star"/>
    <use transform="matrix(.83 .17 -.17 .83 328 -159)" xlink:href="#star"/>
    <use transform="matrix(.96 0 0 .96 -157 312)" xlink:href="#star"/>
    <use transform="matrix(.93 .14 -.14 .93 -126 119)" xlink:href="#star"/>
    <use transform="matrix(.82 .043 -.043 .82 -236 162)" xlink:href="#star"/>
    <use transform="matrix(.97 0 0 .97 -420 114)" xlink:href="#star"/>
    <use transform="matrix(.79 .41 -.41 .79 36 -170)" xlink:href="#star"/>
    <use transform="matrix(.84 .24 -.24 .84 35 -335)" xlink:href="#star"/>
    <use transform="matrix(.7 .15 -.15 .7 144 162)" xlink:href="#star"/>
    <use transform="matrix(.94 .08 -.08 .94 -30 -404)" xlink:href="#star"/>
    <use transform="matrix(.89 .38 -.38 .89 428 87)" xlink:href="#star"/>
    <use transform="matrix(.73 .22 -.22 .73 237 102)" xlink:href="#star"/>
</svg>
