<svg xml:space="preserve" width="1570.909" height="1178.182" xmlns="http://www.w3.org/2000/svg">
    <path d="M777.253 484.247c-3.485-.014-7.017-.42-10.26-1.755-4.921-1.104-9.954-2.55-13.924-5.808-4.243-3.328-7.753-7.665-9.727-12.714-2.133-5.06-4.247-10.144-5.7-15.451-1.343-4.84-2.552-9.715-3.78-14.584-.556-2.386-.983-4.95-1.122-7.222-.344-5.286-1.025-10.586-.686-15.888.424-3.66 1.603-7.207 1.693-10.911.525-6.2 1.888-12.317 3.772-18.239.741-2.22 2.136-4.289 4.248-5.398 2.55-1.694 6.005-2.946 8.906-1.366 3.482 1.717 6.169 4.639 8.75 7.463 2.06 2.46 3.98 5.197 6.884 6.735 1.427.884 2.6 1.824 3.91 2.768 4.195 2.347 6.832 6.851 11.387 8.662 4.917 1.995 10.267.398 15.368 1.063 4.048.47 8.151.257 12.139-.574 4.484-.83 8.755-1.923 13.31-2.34 4.891-.54 9.827-1.088 14.532-2.595 1.543-.43 3.402-.972 5.062-1.456 4.47-1.312 8.875-2.832 13.371-4.052 2.14-.568 4.156-1.475 6.058-2.597 1.082-.65 2.42-.552 3.434-1.348 3.847-2.332 6.554-6.105 8.532-10.069 1.849-2.612 4.978-3.845 7.848-4.985 2.944-1.006 6.238-1.816 9.297-.86 2.578 1.081 4.736 3.066 6.34 5.326 2.913 4.634 3.93 10.114 5.516 15.265 1.138 3.896 2.208 7.93 2.401 12.08.467 7.392-.45 14.77-.992 22.131-.719 6.473-.685 13.162-3.041 19.326-1.725 4.704-5.128 8.486-8.322 12.244-3.394 3.708-6.915 7.45-11.283 10.023-4.318 2.518-9.232 3.734-14.113 4.58-4.288 1.168-8.264 3.291-12.63 4.201-6.398 1.692-12.976 3.433-19.431 4.376-7.389 1.009-14.97 1.829-22.442 2.8-5.661.708-11.375 1.192-17.081.795-4.45-.236-8.9-.507-13.357-.511.29 1.052-.577.899-1.326.878-1.18.013-2.361.009-3.541.008z"/>
    <path d="M887.416 368.31c-2.789.051-5.507.84-8.129 1.885-2.943 1.26-6.464 2.988-7.969 6.004-3.461 7.126-8.304 9.174-8.304 9.174-1.951.225-3.63 1.6-5.418 2.37-3.49 1.282-6.394 1.86-9.918 3.046-3.525 1.186-7.72 2.37-11.31 3.393-4.937 1.581-10.113 2.065-15.237 2.636-5.378.563-10.757 2.179-16.068 2.827-2.928.371-5.638.194-8.717-.104-4.547-.533-10.154.972-14.373-1.027-3.92-1.732-6.944-6.426-10.776-8.38-6.667-5.164-4.268-1.67-10.699-9.603-2.758-2.887-5.756-6.076-9.504-7.674-3.502-1.62-7.651-.122-10.668 1.979-3.096 1.768-4.432 4.958-5.357 8.242-1.632 5.856-2.812 11.152-3.268 17.254-.152 4.257-1.672 7.68-1.75 12.076-.078 4.397.491 10.342.805 14.592.381 5.637 1.95 10.295 3.275 15.709s2.938 11.042 5.076 16.27c2.08 4.786 3.222 8.769 6.438 12.943 3.334 4.283 8.014 8.373 13.004 10.168 2.079.946 5.796 1.838 7.98 2.346 5.683 2.327 11.26 1.722 17.332 1.802l.164-.357.02-.488c6.42.006 13.26.896 19.588.537 6.328-.36 12.805-1.375 19.183-2.108 5.537-.711 11.129-1.218 16.567-2.254 5.438-1.036 11.056-2.536 16.46-3.97 4.246-.94 7.805-2.96 12.005-4.04 6.344-1.006 12.537-2.966 17.548-6.86 4.81-3.843 9.5-9.037 13.215-13.968 4.063-5.198 5.629-10.956 6.315-17.44.623-6.65 1.242-13.079 1.677-19.69.415-4.516.496-10.54-.006-14.797-.5-4.258-1.658-7.852-2.882-12.213-1.46-4.975-2.916-11.247-6.354-15.24-2-2.09-4.26-4.075-7.135-4.827a14.75 14.75 0 0 0-2.81-.212zm1.104 3.983c.293.015.57.047.824.096.953.182 3.064 1.695 4.69 3.363 5.293 5.432 9.575 22.962 8.693 35.584-.259 3.697-.67 10.978-.913 16.178-.709 15.163-3.21 20.797-13.59 30.619-7.002 6.627-14.07 10.793-19.843 11.697-1.562.245-4.64 1.239-6.84 2.21-6.06 2.672-19.584 5.447-37.818 7.759-14.061 1.783-36.911 2.723-46.182 1.9-3.2-.284-7.034-1.056-8.521-1.715-1.488-.659-3.755-1.199-5.038-1.199-1.283 0-4.746-1.192-7.697-2.65-6.09-3.01-7.982-5.258-11.844-14.076-7.184-16.408-9.618-28.999-9.7-50.182-.048-12.158.054-13.114 2.298-21.348 2.789-10.233 3.174-11.035 6.186-12.87 4.132-2.52 6.606-1.938 11.46 2.693 4.678 4.46 4.983 5.44 3.233 10.398-1.37 3.885-3.415 15.558-2.953 16.863.193.545 1.022 6.554 1.842 13.354 1.644 13.635 1.949 14.847 5.828 23.27 5.491 11.922 9.659 14.47 26.906 16.447 8.997 1.03 11.678 1.037 17.818.044 2.8-.452 7.872-.832 11.272-.843 8.513-.03 21.304-1.765 26.547-3.604 5.779-2.026 17.084-8.912 21.197-12.91 10.347-10.056 14.897-36.892 9.287-54.768-1.154-3.678-1.492-8.335-.767-10.603.806-2.525 9.222-5.932 13.625-5.707zm-.118 5.43c-.418.057-.9.424-1.144 1.062-.23.6-.875 1.092-1.432 1.092-.557 0-1.012.327-1.012.727 0 .4.327.726.727.726.4 0 .727.764.727 1.697 0 2.372.935 3.052 1.734 1.26.368-.826 1.092-1.502 1.607-1.502 1.562 0 2.05-1.619.77-2.555-.661-.483-1.201-1.25-1.201-1.707 0-.604-.357-.857-.776-.8zm-141.015 4.427c-.48.008-.657.954-1.026 3.364-.415 2.712-.305 3.09.9 3.09.756 0 1.782.491 2.28 1.091 1.392 1.678 2.182 1.305 2.182-1.03 0-1.168.198-2.642.441-3.274.3-.784.029-1.15-.851-1.15-.712 0-1.894-.544-2.627-1.208-.614-.555-1.011-.888-1.3-.883zm120.1 5.352c1.653-.148 3.51 1.373 4.872 4.187.85 1.756 1.545 3.704 1.545 4.329 0 .624.511 2.357 1.135 3.85 2.602 6.225-1.374 27.234-6.676 35.28-2.32 3.522-3.139 4.402-6.467 6.952-8.358 6.403-20.31 11.959-25.726 11.959-1.298 0-3.03.357-3.848.795-.893.477-5.59.769-11.77.73-5.782-.036-13.44.412-17.493 1.023-7.954 1.2-10.824 1.25-15.7.28-1.8-.359-4.96-.993-7.021-1.412-11.147-2.265-17.507-12.53-20.557-33.178-2.666-18.052-2.694-20.334-.302-24.926 2.954-5.674 3.503-5.832 9.416-2.732 14.652 7.68 14.299 7.553 23.271 8.52 8.561.921 10.986.767 23.557-1.493 2.2-.396 7.108-1.028 10.908-1.406 5.157-.513 10.044-1.729 19.273-4.795 6.8-2.26 13.248-4.564 14.328-5.121 1.08-.558 2.527-1.014 3.215-1.014.689 0 1.805-.5 2.48-1.111.48-.435 1.008-.668 1.56-.717zm26.417 4.738c-.6 0-1.09.333-1.09.74 0 .428-.77.549-1.818.286-2.008-.504-2.417.482-.767 1.851.753.625.87 1.35.41 2.559-.824 2.166-.107 2.879 1.465 1.457.674-.61 1.763-.904 2.417-.653 1.47.564 2.48-1.616 1.297-2.798-.453-.453-.822-1.413-.822-2.133s-.492-1.309-1.092-1.309zm-152.681 9.295c-.542.053-.68.422-.555 1.25.342 2.277.35 2.832.057 4-.2.794.243 1.038 1.627.897 1.045-.107 2.321.313 2.835.933 1.441 1.737 2.554.844 2.366-1.898a241.311 241.311 0 0 1-.23-3.717c-.042-.855-.666-1.228-2.012-1.203-1.074.02-2.607-.077-3.407-.215a2.64 2.64 0 0 0-.681-.047zm123.039 3.996c-.245-.066-.488.2-.89.75-.933 1.275-2.063 10.932-2.145 18.323-.079 7.036 1.502 9.118 3.175 4.181 1.354-3.993 1.905-19.889.764-22.021-.412-.77-.66-1.167-.904-1.233zm32.273 3.436c-.846 0-1.539.35-1.539.777 0 .462-.63.577-1.555.283-1.384-.44-1.5-.285-1.072 1.42.264 1.053.13 2.567-.299 3.367-1.113 2.081-.149 3.255 1.471 1.79.864-.782 1.473-.921 1.79-.41.953 1.544 1.889.72 1.808-1.59-.046-1.3.146-3.1.425-4 .418-1.342.233-1.637-1.029-1.637zm-45.726.728c-.958 0-1.047 1.385-.666 10.364.448 10.572.959 14.363 1.933 14.363.301 0 .75-1.227.998-2.727.732-4.426.53-15.283-.347-18.77-.516-2.048-1.218-3.23-1.918-3.23zm-15.102 3.227c-.2.025-.462.203-.834.512-2.236 1.855.027 15.856 3.834 23.714 2.265 4.675 3.502 4.991 2.861.729-.255-1.7-1.441-7.347-2.634-12.547a2092.18 2092.18 0 0 1-2.54-11.154c-.197-.913-.354-1.296-.687-1.254zm-16.396 4.408c-2.249 0-.247 16.2 2.873 23.252.801 1.812 1.748 3.295 2.103 3.295.356 0 .497-1.805.315-4.01-.62-7.473-4.157-22.537-5.291-22.537zm-32.778.897c-1.5-.229-1.274 11.92.51 19.285 1.04 4.29 3.785 10.41 4.396 9.799.189-.189-.697-6.684-1.968-14.434-1.272-7.75-2.449-14.245-2.616-14.434-.115-.13-.222-.201-.322-.216zm15.242.324c-3.107.01-1.595 17.299 2.315 24.605 1.38 2.58 2.49 1.301 2.258-2.601-.39-6.539-3.32-21.64-4.258-21.951a.98.98 0 0 0-.315-.053zm-28.78.812c-.72.18-1.566 2.76-1.891 6.52-.515 5.945.278 12.715 1.959 16.738 1.553 3.718 2.66 3.409 2.662-.744.003-3.719-1.306-18.364-1.89-21.156-.213-1.026-.514-1.44-.84-1.358zm-29.667 5.75c-2.216 0-2.288.1-2.336 3.262-.046 3.07.052 3.238 1.66 2.834.94-.236 1.923-.083 2.184.34.662 1.07 2.11.455 2.396-1.018.131-.673-.178-2.169-.689-3.322-.74-1.67-1.395-2.096-3.215-2.096zm152.076 1.309c-2.128 0-2.65.263-2.527 1.273.086.7-.182 2.09-.596 3.09-.413 1-.606 2.063-.43 2.363.46.782 1.525.673 2.07-.21.258-.417 1.096-.558 1.862-.315.934.296 1.395.095 1.395-.607 0-.577.203-2.07.453-3.32.443-2.217.39-2.274-2.227-2.274zm-7.744 16.724c-.707-.033-1.392.516-1.392 1.458 0 .8-.47 1.455-1.047 1.455s-1.26.34-1.518.757c-.657 1.064 1.017 2.88 2.654 2.88.751 0 1.366.326 1.366.726 0 1.067.543.908 2.94-.863 2.76-2.042 2.982-4.955.376-4.955-.976 0-1.977-.327-2.225-.727-.296-.48-.73-.71-1.154-.73zm-135.926 8.993c-.466-.046-1.148.008-2.011.164-3.371.61-3.35.592-2.467 2.23.398.74.902 1.915 1.119 2.615.436 1.408 1.24 1.622 2.293.608.38-.366 1.51-.774 2.51-.908 2.385-.32 3.092-3.518.777-3.518-.828 0-1.506-.342-1.506-.76 0-.24-.249-.386-.715-.431zm117.82 4.101c-.993 0-1.748.555-1.984 1.455-.21.805-.992 1.453-1.75 1.453-1.575 0-1.601.084-.703 2.33.368.92.849 2.244 1.069 2.944.49 1.56 1.599 1.653 2.164.182.23-.6 1.084-1.09 1.896-1.09 1.45 0 2.062-1.735.871-2.471-.333-.206-.46-1.372-.281-2.59.278-1.896.094-2.213-1.281-2.213zm-22.796 8c-.622 0-1.353.36-1.625.801-.281.455-1.4.619-2.59.38-2.318-.463-2.547-.022-1.03 1.981.56.74.85 1.787.641 2.328-.59 1.537.426 2.731 1.537 1.81.674-.56 1.186-.464 1.862.35 1.29 1.556 2.49.973 2.763-1.343.127-1.07-.062-1.943-.42-1.943-.357 0-.504-.982-.328-2.182.239-1.626.032-2.182-.81-2.182zm-81.307.727c-.905 0-.793 2.465.156 3.414.575.575.56 1.233-.054 2.383-1.276 2.384-.505 3.328 2.726 3.328h2.912v-3.47c0-3.121-.165-3.474-1.644-3.474-.905 0-2.053-.49-2.55-1.09-.499-.6-1.195-1.091-1.546-1.091zm52.488 3.637c-.771 0-1.598.314-1.835.699-.272.439-1.103.395-2.229-.117-2.48-1.13-3.084-.19-1.18 1.837.872.929 1.38 1.896 1.127 2.149-.253.253-.247 1.019.016 1.703.358.933.685 1.036 1.308.412.602-.601 1.096-.611 1.786-.039 1.56 1.294 3.404.15 2.81-1.744-.28-.895-.486-2.364-.455-3.264.04-1.15-.36-1.637-1.348-1.637zm-22.283.107c-.177.028-.415.12-.726.256-.764.334-2.452.553-3.752.486-2.378-.121-3.329 1.378-1.565 2.469.444.274.623 1.389.4 2.502-.48 2.399.108 3.207 1.497 2.055.781-.65 1.284-.57 2.2.347 1.391 1.39 3.104.44 3.104-1.722 0-.728-.318-1.52-.705-1.758-.387-.24-.498-1.46-.248-2.711.306-1.529.328-2.009-.205-1.924z" fill="#fff"/>
</svg>
