<svg viewBox="0 0 631 467" xmlns="http://www.w3.org/2000/svg" xml:space="preserve" fill-rule="evenodd" clip-rule="evenodd">
    <path d="M143.615 93.739c2.836 0 6.234-.438 9.022 0 1.348.212 2.339.756 3.936.45 3.718-.711 7.019-.247 10.967-.576 3.435-.286 6.327-.973 9.635-.715 3.044.238 6.098.467 9.151.704.662.051 6.359 1.504 6.953 1.009m158.652 104.573c2.773-.81 11.382.82 14.36.82 9.098 0 14.484-.41 23.488-.41m-127.383 66.07h4.876c2.819 0 4.877.591 7.647.591m-170.105 25.193c1.272.656 23.239-.497 23.239.874m204.771 105.012c12.61 0 25.806.294 38.198.294m102.65-274.853h16.983m-3.65 213.983c12.679 0 35.079 4.17 46.868-.718 1.099-.456 3.146.397 3.146-1.494" fill="none"/>
</svg>
