<svg xml:space="preserve" viewBox="0 0 215.998 219.53" version="1.1" id="svg544" xmlns="http://www.w3.org/2000/svg">
    <path d="M106.82 157.157c-.122-.13-3.034-.464-6.47-.744-3.437-.28-7.253-.707-8.48-.95-4.998-.985-15.722-6.067-18.206-8.627-2.186-2.252-6.132-7.869-7.551-10.747-2.851-5.782-6.554-20.254-8.166-31.91-.397-2.875 1.787-16.556 3.1-19.415 3.09-6.73 11.424-15.922 20.544-22.66l5.79-4.278 19.65.096 19.65.096 4.681 3.108c2.951 1.96 5.232 3.85 6.17 5.117.818 1.104 3.532 4.248 6.03 6.986 2.498 2.738 5.076 5.851 5.729 6.918 2.858 4.669 5.05 15.282 4.962 24.032-.055 5.538-.184 6.42-1.603 10.934-.85 2.7-1.992 6.512-2.54 8.47-.547 1.96-2.152 6.076-3.566 9.15-1.414 3.073-2.832 6.328-3.15 7.232-1.14 3.228-6.466 7.394-14.775 11.557-8.25 4.133-12.017 5.36-17.335 5.643-2.332.125-4.34.121-4.464-.008z" id="path360" fill="#000"/>
    <path d="M56.388 36.872c0-.703 1.153-1.79 4.26-4.017 4.405-3.159 8.68-5.356 16.94-8.707 13.483-5.47 22.436-7.604 35.927-8.564 1.841-.13 4.24-.415 5.333-.631 1.13-.224 3.053-.228 4.463-.009 1.363.212 3.883.607 5.601.877 1.719.27 3.561.729 4.095 1.02.928.508.836.642-2.154 3.142l-3.124 2.61-13.02.111c-17.176.146-20.218.643-37.476 6.12-5.754 1.827-10.44 3.656-14.255 5.565-5.638 2.82-6.59 3.179-6.59 2.482z" id="path404" fill="#000"/>
    <path d="M22.023 47.967c0-.747 2.971-8.61 4.571-12.097 2.934-6.395 14.36-18.082 22.43-22.941 3.009-1.812 3.34-1.869 4.664-.796 1.305 1.056.883 1.957-1.823 3.902C46.248 20.07 39.7 27.299 30.64 39.465c-4.665 6.265-8.617 10.164-8.617 8.502z" id="path402" fill="#000"/>
    <path d="M134.245 47.297c-4.538-2.344-5.863-2.825-8.48-3.075-1.705-.163-4.087-.597-5.292-.965-1.205-.367-2.942-.668-3.86-.668-1.456 0-1.8-.216-2.67-1.674-1.19-1.995-1.448-4.836-.428-4.724.368.04 3.28.61 6.471 1.267 7.32 1.506 17.231 4.706 19.985 6.452 2.261 1.434 3.888 3.635 3.89 5.262 0 .907-.201 1-2.117.954-1.668-.04-3.267-.642-7.499-2.829z" id="path400" fill="#000"/>
    <path d="M167.815 114.146c-.55-.55-.305-4.545.81-13.207.96-7.458 1.05-9.25.683-13.436-.403-4.585-1.682-13.113-2.062-13.744-.412-.684.446-1.714 1.426-1.714 1.472 0 2.44 2.08 4.26 9.149 1.37 5.323 1.492 6.354 1.49 12.496 0 6.455-.056 6.847-1.501 10.935-1.724 4.878-3.973 9.818-4.469 9.818-.187 0-.473-.133-.637-.297z" id="path386" fill="#000"/>
    <path d="M37.228 119.73c-1.145-1.23-1.642-3.017-2.216-7.964-1.326-11.429-1.041-17.232 1.286-26.193 1.814-6.986 3.457-10.668 8.583-19.236 4.8-8.024 7.44-11.252 9.202-11.252 1.02 0 1.069.117.874 2.141-.28 2.913-1.819 6.1-6.437 13.334-4.291 6.723-6.206 10.776-7.975 16.882-2.073 7.158-2.575 11.953-2.235 21.34.168 4.618.471 8.976.674 9.683.538 1.878-.493 2.62-1.756 1.264z" id="path378" fill="#000"/>
    <path d="M193.895 139.522c-.253-.473-.36-.96-.239-1.083.122-.121-.086-2.568-.462-5.437-.48-3.66-.686-9.169-.69-18.47-.014-25.083-1.937-40.687-5.907-47.912-1.344-2.445-1.363-2.558-.627-3.682.417-.637.952-1.158 1.189-1.158.704 0 2.629 3.23 4.431 7.437 4.355 10.164 6.595 24.78 7.036 45.913.21 10.038.128 12.796-.488 16.41-1.234 7.239-2.931 10.432-4.243 7.982z" id="path368" fill="#000"/>
    <path d="M31.944 155.703c-1.112-.779-3.933-4.783-5.393-7.653-1.358-2.672-5.244-14.193-6.775-20.091-1.415-5.447-4.98-26.117-4.962-28.769.014-2.127 1.035-4.054 2.9-5.477.82-.626 1.624-1.138 1.785-1.138.16 0 .292.976.292 2.17s.188 3.16.418 4.37c.229 1.21.935 6.409 1.569 11.553 1.42 11.534 2.462 17.234 4.731 25.91 2.751 10.516 3.163 11.539 6.77 16.826 1.446 2.12.568 3.632-1.335 2.3z" id="path364" fill="#000"/>
    <path d="M112.176 152.807c4.249-.67 6.637-1.53 13.8-4.97 5.68-2.727 12.086-6.92 12.086-7.912 0-.18.747-1.201 1.66-2.268 1.58-1.846 2.576-3.846 4.667-9.378.511-1.35 1.185-2.756 1.498-3.124.313-.368 1.105-2.477 1.76-4.686.655-2.21 1.499-4.72 1.876-5.58.376-.858.862-2.766 1.078-4.24.542-3.695-.289-13.086-1.44-16.257-.496-1.368-1.364-4.122-1.928-6.12-.995-3.521-1.646-4.893-6.276-13.227-2.043-3.679-2.396-4.06-5.772-6.23-4.828-3.107-8.688-5.015-12.488-6.174-2.939-.896-3.944-.954-14.538-.835-6.259.071-12.702.086-14.317.034-2.472-.08-3.513.148-6.575 1.44-6.314 2.663-8.992 4.946-16.566 14.12-4.336 5.252-5.612 7.834-6.972 14.112-2.966 13.684-1.349 25.478 5.554 40.486 4.378 9.52 6.168 11.838 10.188 13.187 1.527.512 3.837 1.466 5.133 2.12a861.6 861.6 0 0 0 4.364 2.186c1.105.548 3.712 1.239 5.794 1.535 2.082.297 4.146.733 4.587.969.704.376 5.619 1.054 8.81 1.214.614.03 2.422-.15 4.017-.402z" id="path362" fill="#fff"/>
    <path d="M189.922 172.374c-.97-.97-.573-1.997 2.841-7.343 3.253-5.094 7.53-10.553 10.417-13.293l1.38-1.311v1.154c0 2.704-5.993 12.702-11.297 18.846-2.286 2.648-2.51 2.778-3.341 1.947z" id="path348" fill="#000"/>
    <path d="M148.773 179.017c0-1.41 1.953-4.653 4.659-7.74 3.467-3.955 7.837-10.254 10.696-15.417.91-1.644 2.646-4.347 3.856-6.007 1.21-1.66 2.265-3.212 2.344-3.45.08-.238.483-.302.898-.143 1.043.4.95 1.884-.384 6.106-1.285 4.069-5.341 10.5-10.147 16.088-3.17 3.687-11.922 11.44-11.922 10.563z" id="path344" fill="#000"/>
    <path d="M98.787 182.274c-4.983-.601-18.788-4.795-21.972-6.675-1.656-.978-1.661-.99-.976-2.314.479-.926.85-1.204 1.219-.913.835.66 4.45 1.675 11.687 3.28 8.692 1.927 14.213 1.987 22.822.248 5.589-1.13 12.355-1.659 12.997-1.017.695.695-.846 1.948-4.857 3.949-6.08 3.034-13.79 4.303-20.92 3.442z" id="path342" fill="#000"/>
    <path d="M37.346 187.437c-6.145-.967-12.785-4.708-17.485-9.85-3.92-4.29-2.586-5.785 2.045-2.293 3.877 2.922 6.179 4.124 10.706 5.588 6.371 2.06 9.668 4.065 10.012 6.086.194 1.141-.574 1.21-5.278.469z" id="path340" fill="#000"/>
    <path d="M114.184 209.19c-2.055-.256-3.78-1.057-4.277-1.986-.678-1.266-.196-1.624 2.61-1.942 3.754-.426 7.93-1.297 18.058-3.771 8.448-2.063 9.523-2.446 16.19-5.76 8.344-4.147 9.387-4.524 12.536-4.524 2.73 0 3.146.39 2.253 2.107-3.02 5.807-13.736 10.884-29.071 13.772-4.419.832-9.339 1.624-10.935 1.76-1.595.137-3.603.308-4.463.38-.859.073-2.164.057-2.9-.035z" id="path328" fill="#000"/>
</svg>
