<?xml version="1.0" encoding="UTF-8" standalone="no"?>
<svg
   xml:space="preserve"
   viewBox="0 0 215.998 219.53"
   version="1.1"
   id="svg544"
   sodipodi:docname="sun.svg"
   inkscape:version="1.1 (c4e8f9e, 2021-05-24)"
   xmlns:inkscape="http://www.inkscape.org/namespaces/inkscape"
   xmlns:sodipodi="http://sodipodi.sourceforge.net/DTD/sodipodi-0.dtd"
   xmlns="http://www.w3.org/2000/svg"
   xmlns:svg="http://www.w3.org/2000/svg"><defs
   id="defs548" /><sodipodi:namedview
   id="namedview546"
   pagecolor="#505050"
   bordercolor="#ffffff"
   borderopacity="1"
   inkscape:pageshadow="0"
   inkscape:pageopacity="0"
   inkscape:pagecheckerboard="1"
   showgrid="false"
   inkscape:zoom="1.2743952"
   inkscape:cx="99.655117"
   inkscape:cy="171.06154"
   inkscape:window-width="1435"
   inkscape:window-height="982"
   inkscape:window-x="0"
   inkscape:window-y="25"
   inkscape:window-maximized="0"
   inkscape:current-layer="svg544" />
    
    
<path
   style="fill:#000000;stroke-width:0.446302"
   d="m 106.82045,157.15686 c -0.1228,-0.12909 -3.03486,-0.46386 -6.47138,-0.74391 -3.436533,-0.28006 -7.252418,-0.70726 -8.479759,-0.94933 -4.997602,-0.98572 -15.720902,-6.06741 -18.205206,-8.62731 -2.185804,-2.25232 -6.132506,-7.8693 -7.551435,-10.74719 -2.851016,-5.78261 -6.554075,-20.25455 -8.165233,-31.91061 -0.397295,-2.87447 1.786907,-16.555408 3.099567,-19.414152 3.090476,-6.73058 11.423648,-15.922349 20.54446,-22.661296 l 5.789071,-4.277246 19.650155,0.09634 19.65019,0.09632 4.68137,3.107992 c 2.95099,1.959197 5.23137,3.850337 6.16946,5.116353 0.81848,1.104598 3.5319,4.248493 6.0299,6.986437 2.498,2.737941 5.07607,5.850901 5.729,6.917688 2.85799,4.669101 5.04964,15.281917 4.96284,24.031574 -0.055,5.53871 -0.18445,6.42139 -1.60387,10.93441 -0.84928,2.70013 -1.99194,6.51184 -2.53929,8.47048 -0.54735,1.95864 -2.15208,6.07578 -3.56605,9.1492 -1.41396,3.07342 -2.83197,6.32795 -3.15112,7.2323 -1.13931,3.22835 -6.46503,7.39438 -14.77371,11.55663 -8.25038,4.13307 -12.0179,5.35962 -17.33515,5.64358 -2.33237,0.12455 -4.34108,0.12084 -4.46381,-0.008 z"
   id="path360" /><path
   style="fill:#000000;stroke-width:0.446302"
   d="m 56.388283,36.872167 c 0,-0.702995 1.15302,-1.790533 4.259285,-4.017446 4.405446,-3.158318 8.681211,-5.355865 16.940079,-8.706364 13.483498,-5.470078 22.436283,-7.604162 35.927333,-8.564095 1.84099,-0.131067 4.2409,-0.415259 5.33308,-0.631693 1.13062,-0.224062 3.05268,-0.227364 4.46304,-0.0085 1.36246,0.212217 3.88303,0.606628 5.6013,0.876467 1.71828,0.269839 3.56065,0.729276 4.09415,1.02098 0.92862,0.507695 0.83661,0.641898 -2.15389,3.141196 l -3.12397,2.610846 -13.02035,0.110487 c -17.175356,0.14574 -20.217538,0.64259 -37.475463,6.120733 -5.753598,1.826345 -10.439815,3.655492 -14.255249,5.564153 -5.637208,2.820057 -6.589345,3.178758 -6.589345,2.482459 z"
   id="path404" /><path
   style="fill:#000000;stroke-width:0.446302"
   d="m 22.022996,47.966567 c 0,-0.746617 2.971353,-8.60981 4.571177,-12.096838 2.934024,-6.395177 14.359999,-18.081645 22.42937,-22.94078 3.009054,-1.811956 3.340698,-1.868582 4.664794,-0.796377 1.304176,1.056063 0.882827,1.957732 -1.823409,3.901968 -5.616545,4.035073 -12.165323,11.26431 -21.224767,23.43014 -4.665639,6.26541 -8.617165,10.164088 -8.617165,8.501887 z"
   id="path402" /><path
   style="fill:#000000;stroke-width:0.446302"
   d="m 134.2451,47.297341 c -4.5381,-2.344484 -5.86321,-2.825039 -8.47975,-3.075244 -1.70563,-0.163114 -4.08706,-0.597334 -5.29203,-0.964942 -1.20498,-0.367589 -2.94247,-0.668364 -3.8611,-0.668364 -1.45489,0 -1.79892,-0.215727 -2.66897,-1.673638 -1.19083,-1.995415 -1.44835,-4.83609 -0.42827,-4.724524 0.3682,0.04031 3.28031,0.610457 6.47138,1.267115 7.31962,1.506222 17.23094,4.706426 19.98443,6.452663 2.26132,1.434078 3.88837,3.634102 3.89108,5.261336 0,0.907673 -0.20212,0.999385 -2.11828,0.954246 -1.66792,-0.0393 -3.26671,-0.642422 -7.49849,-2.828648 z"
   id="path400" /><path
   style="fill:#000000;stroke-width:0.446302"
   d="m 167.8151,114.14593 c -0.5497,-0.54971 -0.30469,-4.54537 0.8099,-13.20676 0.95979,-7.458131 1.05087,-9.250116 0.68312,-13.43605 -0.40283,-4.585245 -1.68255,-13.112667 -2.06262,-13.744465 -0.41109,-0.68333 0.44669,-1.713909 1.4265,-1.713909 1.472,0 2.44048,2.08034 4.25939,9.149197 1.36969,5.323164 1.49269,6.354351 1.4906,12.496465 0,6.454852 -0.0558,6.846332 -1.50096,10.934402 -1.72432,4.87827 -3.97285,9.81866 -4.46879,9.81866 -0.18676,0 -0.47352,-0.13388 -0.63714,-0.29754 z"
   id="path386" /><path
   style="fill:#000000;stroke-width:0.446302"
   d="m 37.228122,119.72937 c -1.14521,-1.22921 -1.642566,-3.01627 -2.216471,-7.96371 -1.325699,-11.42852 -1.040695,-17.231397 1.286549,-26.19295 1.814099,-6.985529 3.456935,-10.667639 8.582449,-19.236069 4.79989,-8.024122 7.43955,-11.251384 9.202655,-11.251384 1.020522,0 1.068361,0.117234 0.873904,2.140845 -0.279824,2.912464 -1.818771,6.100412 -6.436958,13.334331 -4.291605,6.722344 -6.206423,10.775742 -7.974759,16.881743 -2.073041,7.157908 -2.575255,11.953137 -2.234992,21.339444 0.167332,4.61817 0.470485,8.97589 0.67351,9.68382 0.538413,1.87737 -0.492802,2.61968 -1.755887,1.26393 z"
   id="path378" /><path
   style="fill:#000000;stroke-width:0.446302"
   d="m 193.89523,139.52201 c -0.2534,-0.47347 -0.36097,-0.96061 -0.23904,-1.08254 0.12195,-0.12192 -0.0861,-2.56865 -0.46201,-5.43717 -0.47978,-3.6598 -0.68575,-9.16909 -0.69062,-18.47012 -0.0134,-25.083589 -1.93655,-40.686867 -5.90632,-47.911743 -1.3439,-2.445876 -1.36313,-2.558911 -0.62727,-3.681995 0.41752,-0.637257 0.95249,-1.15865 1.18887,-1.15865 0.7039,0 2.62889,3.230692 4.4312,7.436986 4.35514,10.163974 6.59523,24.780775 7.03644,45.912802 0.20958,10.03884 0.12752,12.79677 -0.48844,16.41012 -1.23388,7.23884 -2.93149,10.4326 -4.24281,7.98231 z"
   id="path368" /><path
   style="fill:#000000;stroke-width:0.446302"
   d="m 31.943864,155.70315 c -1.111931,-0.77883 -3.933174,-4.78266 -5.392908,-7.65351 -1.358221,-2.67119 -5.24364,-14.19277 -6.775215,-20.09076 -1.41451,-5.44719 -4.979318,-26.11722 -4.961454,-28.768466 0.0135,-2.127594 1.034353,-4.054754 2.898904,-5.476942 0.821208,-0.626354 1.624772,-1.138824 1.78571,-1.138824 0.160922,0 0.292595,0.976769 0.292595,2.170595 0,1.193828 0.187708,3.160325 0.417115,4.369997 0.22939,1.20968 0.935624,6.40862 1.569409,11.5532 1.420904,11.53374 2.461818,17.23397 4.731357,25.90954 2.751038,10.51605 3.162536,11.53887 6.769732,16.82615 1.446155,2.1197 0.567832,3.632 -1.335245,2.29902 z"
   id="path364" /><path
   style="fill:#ffffff;stroke-width:0.446302"
   d="m 112.17607,152.80711 c 4.24861,-0.67062 6.63665,-1.53063 13.80047,-4.97006 5.67977,-2.7269 12.08507,-6.92064 12.08507,-7.91244 0,-0.18015 0.74729,-1.20058 1.66065,-2.26763 1.57995,-1.84582 2.57546,-3.84618 4.66724,-9.37815 0.51053,-1.35006 1.18431,-2.75591 1.49735,-3.12412 0.31306,-0.36819 1.10499,-2.47697 1.75985,-4.68617 0.65486,-2.20919 1.499,-4.71964 1.87585,-5.57878 0.37687,-0.85913 0.86208,-2.76707 1.07828,-4.23987 0.54248,-3.69614 -0.28872,-13.086578 -1.43911,-16.257501 -0.49629,-1.367958 -1.36434,-4.122366 -1.929,-6.120908 -0.99477,-3.520714 -1.64584,-4.892957 -6.27573,-13.226955 -2.04339,-3.678241 -2.39645,-4.059351 -5.77167,-6.230416 -4.82854,-3.105921 -8.68867,-5.013965 -12.48866,-6.17308 -2.93828,-0.896278 -3.9437,-0.953999 -14.5373,-0.834546 -6.25941,0.07058 -12.702166,0.08574 -14.317289,0.03371 -2.471803,-0.07967 -3.512583,0.148271 -6.575564,1.440071 -6.313248,2.662607 -8.991737,4.945618 -16.565979,14.120124 -4.335376,5.251355 -5.611264,7.833868 -6.971998,14.111852 -2.965956,13.684119 -1.34805,25.477309 5.554149,40.485999 4.377952,9.51982 6.168655,11.83736 10.188631,13.18632 1.52697,0.51239 3.836587,1.46678 5.13248,2.12087 1.295928,0.65409 3.259967,1.6376 4.364559,2.18558 1.104608,0.54799 3.711677,1.23893 5.793507,1.53544 2.081813,0.29651 4.145827,0.73217 4.586724,0.96811 0.70409,0.37683 5.61907,1.05431 8.81078,1.21448 0.61366,0.0308 2.42118,-0.15006 4.01671,-0.40192 z"
   id="path362" /><path
   style="fill:#000000;stroke-width:0.446302"
   d="m 189.92193,172.37351 c -0.96976,-0.96975 -0.5726,-1.99603 2.84125,-7.3422 3.25305,-5.09437 7.53046,-10.55298 10.41688,-13.29352 l 1.38058,-1.31083 v 1.15389 c 0,2.70446 -5.99325,12.70209 -11.29764,18.84616 -2.28627,2.6482 -2.50938,2.77818 -3.34107,1.9465 z"
   id="path348" /><path
   style="fill:#000000;stroke-width:0.446302"
   d="m 148.77287,179.01661 c 0,-1.40873 1.95265,-4.65272 4.6588,-7.7397 3.46733,-3.95533 7.83738,-10.25368 10.69649,-15.41645 0.91076,-1.64455 2.64581,-4.34791 3.85569,-6.00747 1.20988,-1.65956 2.26468,-3.21207 2.34399,-3.45001 0.0793,-0.23795 0.48364,-0.30238 0.89848,-0.14319 1.04312,0.40027 0.94978,1.88387 -0.38404,6.10615 -1.28534,4.069 -5.34174,10.50041 -10.14681,16.08789 -3.17053,3.68675 -11.9226,11.44063 -11.9226,10.56278 z"
   id="path344" /><path
   style="fill:#000000;stroke-width:0.446302"
   d="m 98.787011,182.2742 c -4.983112,-0.60135 -18.788488,-4.79528 -21.971687,-6.67479 -1.656585,-0.97809 -1.661494,-0.98975 -0.976429,-2.31457 0.478886,-0.92607 0.849985,-1.20399 1.218672,-0.91269 0.835831,0.66039 4.451108,1.67479 11.687633,3.27934 8.691519,1.92717 14.21285,1.98719 22.82197,0.24809 5.58879,-1.12898 12.35499,-1.65811 12.99674,-1.01637 0.69484,0.69485 -0.84584,1.94755 -4.85662,3.94883 -6.08017,3.03386 -13.79075,4.30253 -20.920279,3.44216 z"
   id="path342" /><path
   style="fill:#000000;stroke-width:0.446302"
   d="m 37.346031,187.43704 c -6.14531,-0.96724 -12.784585,-4.70766 -17.485055,-9.85072 -3.920219,-4.28936 -2.586221,-5.78441 2.045462,-2.29241 3.876125,2.92235 6.178286,4.12408 10.705133,5.58813 6.371544,2.06068 9.668823,4.06471 10.012613,6.08554 0.194185,1.14139 -0.574664,1.20977 -5.278153,0.46946 z"
   id="path340" /><path
   style="fill:#000000;stroke-width:0.446302"
   d="m 114.18443,209.19071 c -2.05536,-0.25672 -3.78051,-1.05799 -4.27759,-1.9868 -0.6775,-1.26595 -0.19584,-1.62424 2.611,-1.94226 3.75328,-0.42524 7.92839,-1.29713 18.05731,-3.77087 8.44748,-2.06309 9.52284,-2.44565 16.18934,-5.75924 8.34439,-4.14758 9.3877,-4.52408 12.53673,-4.52408 2.72985,0 3.1455,0.38879 2.25232,2.10684 -3.01879,5.80678 -13.73591,10.88363 -29.07071,13.77122 -4.4184,0.83199 -9.33888,1.62433 -10.93442,1.76073 -1.59552,0.1364 -3.6039,0.30734 -4.46302,0.37986 -0.85912,0.0725 -2.16457,0.0566 -2.90096,-0.0354 z"
   id="path328" /></svg>
