<svg xml:space="preserve" xmlns="http://www.w3.org/2000/svg" viewBox="0 0 215.998 219.53">
    <path d="M147.585 217.526c-.97.013-1.584-.748-2.393-1.151-5.515-4.419-10.302-9.71-14.305-15.529-.722-1.076-1.643-2.46-2.384-3.693-4.118-6.574-8.38-13.15-11.063-20.473-1.779-4.539-3.742-9-5.711-13.459-2.924 8.383-6.013 16.72-9.768 24.771-2.174 4.57-4.241 9.24-7.141 13.409-1.138 1.423-3.453 1.598-4.722.245-2.194-1.955-2.954-4.99-3.44-7.776-.364-2.939-.303-5.887-.817-8.87-.892-6.352-2.044-12.766-3.041-19.136-.224-.51-.067-2.192-.534-1.952-14.697 14.468-28.85 29.497-44.03 43.47-1.38 1.155-2.672 2.463-4.21 3.4-1.19.585-2.43-.135-3.211-1.035-1.575-1.497-2.764-3.776-1.978-5.968.988-2.949 2.632-5.627 3.97-8.424 4.98-9.785 10.31-19.388 15.778-28.957-6.594 2.798-13.06 5.915-19.784 8.398-1.16.548-2.57.826-3.69.013-2.572-1.595-2.815-5.283-1.414-7.741 1.474-2.392 3.193-4.634 4.806-6.938 3.547-4.901 7.323-9.63 11.017-14.421-8.316 2.616-16.513 5.542-24.886 7.978-2.66.649-5.288 1.713-8.06 1.704-2.852.132-5.304-2.945-4.373-5.678 1.586-3.317 4.963-5.173 7.831-7.241 9.053-6.154 17.63-12.966 26.662-19.15 5.71-4 11.513-7.863 17.31-11.733-4.806-2.35-9.4-5.096-14.112-7.62-7.443-3.972-15.11-7.506-22.843-10.87-4.046-2.001-8-5.086-9.39-9.552-.344-1.733.963-3.5 2.715-3.708 3.11-.787 6.354-.61 9.53-.842 4.976-.079 9.876.966 14.7 2.079.92.19 1.594-.435 2.317-.893.07-.895.27-1.873-.46-2.56-3.933-3.934-6.908-8.707-10.741-12.74-3.697-4.237-7.69-8.29-10.682-13.08-.965-1.488-1.57-3.662-.205-5.11 1.529-1.493 3.895-1.203 5.832-.948 5.75 1.127 11.389 2.787 16.96 4.591 4.482 1.443 8.817 3.287 13.15 5.117-1.05-6.198-2.325-12.356-3.454-18.538-.325-2.544-.508-5.605 1.442-7.575 1.488-1.235 3.58-.776 5.153.032 3.654 1.528 6.84 3.923 10.206 5.969-1.503-6.253-3.529-12.435-4.086-18.87-.069-2.082.04-4.717 2.034-5.92 2.014-.993 4.211.143 5.906 1.264 7.902 4.729 13.55 12.245 18.677 19.72 2.762 4.01 5.366 8.125 8.023 12.204 1.328-6.475 2.38-13.001 3.66-19.484.726-3.224 1.365-6.51 2.653-9.565.787-1.743 2.524-3.601 4.625-3.016 2.748.823 4.122 3.614 5.365 5.964 2.027 4.432 3.159 9.206 4.351 13.913l1.925 8.238c5.663-11.026 11.03-22.285 18.186-32.449 1.642-2.112 3.321-4.638 6.137-5.192 1.986-.554 4.499.363 5.019 2.517.957 3.59.71 7.367.596 11.043-.567 8.727-1.8 17.395-3.268 26.011-.22 1.363-.442 2.726-.663 4.088 6.91-5.419 13.505-11.327 21.107-15.783 1.844-1.059 4.504-1.867 6.258-.222 1.205 1.202 1.243 3.054.664 4.562-1.749 6.242-4.744 12.027-7.247 17.982 11.811-7.088 23.52-14.35 35.459-21.225 2.699-1.506 6.017-2.988 9.084-1.67 1.682.683 2.806 2.495 2.433 4.312-.508 3.321-2.95 5.845-4.814 8.49-9.87 13.032-21.188 24.896-32.749 36.484-4.198 4.175-8.417 8.33-12.627 12.495 8.236.2 16.538.556 24.706 1.226 6.109.556 12.255.86 18.312 1.862 1.43.212 3.01.69 3.657 2.123 1.205 2.575-.408 6.096-3.258 6.666-14.236 5.494-28.591 10.61-43.075 15.533-1.473.184.017.69.584 1.095 4.875 2.9 9.654 5.916 14.376 9.14 9.184 6.563 19.742 10.816 30.327 14.54 2.318.894 4.74 1.76 6.686 3.34 1.44 1.668 1.033 4.707-1.14 5.549-3.063 1.56-6.626 1.23-9.954 1.215-3.029-.123-6.34-.422-9.377-.805-10.97-1.428-21.78-3.84-32.523-6.438-.53 0-2.108-.744-1.965-.273 4.313 6.864 9.126 13.46 12.605 20.81 1.404 2.848 2.548 6.275 1.268 9.377-.787 2.306-3.858 2.552-5.716 1.461-3.752-1.693-7.388-3.631-11.08-5.449-4.114-2.32-7.722-5.3-11.728-7.798l-2.572-1.706c2.066 7.468 4.178 14.948 5.972 22.418 1.903 7.799 3.36 15.587 4.524 23.53.186 2.164.511 4.455-.21 6.55-.631 1.432-2.06 2.474-3.664 2.33z"/>
    <path d="M142.863 0c-2.1-.011-4.25.898-5.785 2.309-2.72 2.719-4.799 6.001-6.844 9.238-4.527 7.24-8.426 14.841-12.275 22.455a207.674 207.674 0 0 0-1.612-6.644c-1.364-4.763-2.582-9.733-5.457-13.854-1.469-2.288-4.003-4.295-6.873-3.887-3.038.532-4.796 3.504-5.617 6.233-2.308 7.373-3.21 15.083-4.744 22.635-2.286-3.546-4.6-7.076-7.049-10.512-5.006-7.16-10.808-14.099-18.535-18.426-2.283-1.52-5.628-2.072-7.848-.146-2.264 2.032-2.347 5.357-2.12 8.173.52 4.53 1.689 8.964 2.827 13.373-2.212-1.457-4.528-2.783-7.008-3.732-2.258-1.094-5.25-.856-6.97 1.096-2.166 2.612-2.024 6.28-1.535 9.445.9 4.811 1.918 9.604 2.74 14.432-6.964-3.025-14.247-5.265-21.588-7.172-3.153-.707-6.362-1.807-9.633-1.375-2.142.172-4.182 1.609-4.705 3.754-.754 2.403.59 4.728 1.854 6.681 3.196 4.587 7.076 8.64 10.76 12.832 3.458 3.724 6.215 8.03 9.742 11.694 1.06.829-.217.345-.842.23-4.91-1.146-9.926-2.038-14.989-1.806-3.172.272-6.449.048-9.51 1.062-2.678.674-4.232 3.742-3.429 6.334 1.718 5.043 6.197 8.522 10.863 10.72 7.298 3.123 14.498 6.481 21.516 10.196 3.956 2.01 7.848 4.459 11.873 6.47-6.952 4.612-13.844 9.319-20.627 14.177-6.702 4.778-13.17 9.847-19.95 14.417-3.038 2.183-6.477 4.129-8.53 7.366-1.727 2.452-1.005 5.958 1.164 7.892 2.126 2.118 5.423 1.97 8.117 1.264 8.038-1.954 15.878-4.809 23.715-7.313-3.738 4.755-7.365 9.6-10.776 14.594-1.748 2.174-2.815 5.07-2.144 7.858.518 3.095 3.562 5.838 6.799 5.187 5.494-1.829 10.736-4.335 16.052-6.617a604.18 604.18 0 0 0-14.576 27.176c-1.26 2.714-3.124 5.507-2.644 8.64.493 2.248 1.965 4.25 3.785 5.631 1.503 1.26 3.738 1.148 5.279.02 3.609-2.83 6.9-6.047 10.217-9.21 11.971-11.408 23.394-23.372 35.15-34.997.906 5.803 1.965 11.584 2.76 17.404.59 3.328.398 6.736 1.004 10.059.736 3.137 1.873 6.595 4.742 8.41 2.119 1.501 5.177.848 6.774-1.11 1.596-2.15 2.81-4.567 4.078-6.923a224.53 224.53 0 0 0 11.46-27.098c1.505 3.295 2.79 6.683 4.169 10.031 2.61 6.828 6.614 12.98 10.472 19.147 4.566 7.566 10.314 14.455 17.227 19.986.404.513 1.434.627 1.508 1.266.703.139 1.39.38 2.103.457v-.004c.18.026.364 0 .545 0 2.792.054 5.11-2.286 5.574-4.944.523-3.963-.312-7.948-.974-11.847-1.884-11.984-4.967-23.733-8.225-35.405.637.424 1.28.837 1.91 1.27 3.056 2.15 6.058 4.413 9.424 6.072 3.321 1.542 6.513 3.352 9.871 4.813 2.409 1.275 5.753 1.11 7.578-1.086 2.06-2.834 1.758-6.69.625-9.834-2.835-7.05-7.244-13.349-11.306-19.694 3.886.927 7.774 1.851 11.685 2.666 9.528 1.919 19.141 3.724 28.879 4.028 3.66-.004 7.682.163 10.836-2.014 2.816-1.889 2.845-6.327.412-8.541-3.22-2.301-7.076-3.426-10.746-4.787-8.037-2.894-16.032-6.353-23.303-10.998-4.937-3.402-9.931-6.728-15.084-9.799.704-.236 1.4-.475 2.102-.713 12.654-4.387 25.27-8.895 37.762-13.73 2.84-.699 4.86-3.463 4.91-6.348.277-2.458-1.25-4.925-3.57-5.775-2.772-.803-5.686-1.013-8.544-1.358-10.714-.97-21.446-1.874-32.205-2.123 4.56-4.524 9.156-9.006 13.664-13.58 10.374-10.61 20.52-21.51 29.405-33.418 2.094-2.883 4.654-5.985 4.425-9.771-.098-2.936-2.743-5.133-5.51-5.536-3.776-.68-7.298 1.317-10.454 3.118-9.634 5.601-19.126 11.442-28.676 17.185 1.92-4.361 3.91-8.733 5.043-13.38.725-2.254-.296-5.256-2.531-6.444-2.588-1.442-5.703-.4-8.057 1.027-5.99 3.571-11.362 8.064-16.793 12.412.652-3.94 1.302-7.882 1.807-11.843.793-6.974 1.757-13.993 1.316-21.026-.23-2.399-.488-5.448-2.748-7.01-1.08-.76-2.322-1.098-3.582-1.105zm.22 4.008c1.516.214 1.756.73 2.145 4.603.497 4.941-.804 18.501-2.969 30.91-2.067 11.856-2.232 11.529 3.44 6.901 17.81-14.53 22.767-17.54 23.922-14.531.498 1.298-3.056 10.489-7.57 19.58-2.864 5.767-3.034 6.37-1.516 5.379.94-.615 5.8-3.575 10.8-6.58 5-3.005 14.327-8.631 20.727-12.502 9.71-5.873 12.06-7.003 14.184-6.825 3.56.3 3.772 2.613.646 7.028-7.24 10.226-20.12 24.781-34.677 39.187L155.863 93.34h8.406c7.905 0 31.115 1.68 38.34 2.775 2.828.43 3.272.734 3.272 2.237 0 .956-.49 2.016-1.09 2.355-1.623.917-31.121 11.67-40.545 14.78-4.5 1.485-8.184 2.826-8.184 2.98 0 .154 3.147 2.131 6.992 4.394 3.846 2.264 9.44 5.872 12.432 8.018 6.628 4.755 16.804 9.713 27.473 13.38 4.393 1.511 8.301 3.244 8.685 3.852 3.725 5.906-19.994 4.093-51.484-3.933-3.147-.802-5.834-1.344-5.975-1.203-.14.14 2.526 4.494 5.926 9.674 7.447 11.345 10.498 17.242 10.498 20.298 0 3.68-1.146 4.182-5.004 2.192a346.317 346.317 0 0 0-7.36-3.653c-2.2-1.055-5.15-2.824-6.556-3.93-3.021-2.375-13.266-8.819-13.558-8.527-.112.112.112 1.332.496 2.711 6.506 23.366 7.65 28.156 10.115 42.387 1.527 8.816 1.293 11.395-1.033 11.395-.567 0-3.606-2.537-6.754-5.637-4.119-4.056-7.368-8.287-11.586-15.09-6.848-11.043-7.426-12.14-10.408-19.727-1.239-3.15-3.439-8.281-4.89-11.402l-2.636-5.674-4.457 12.582c-3.683 10.398-10.796 25.769-13.629 29.45-1.842 2.394-4.922-3.203-4.922-8.946 0-1.827-.636-7.138-1.412-11.802a2366.24 2366.24 0 0 1-2.248-13.754c-.46-2.9-1.089-5.274-1.398-5.274-.31 0-7.703 7.282-16.432 16.182-17.061 17.396-32.814 32.547-33.842 32.547-.349 0-1.196-.856-1.88-1.9-1.233-1.881-1.188-2.009 4.44-12.909 5.06-9.796 11.601-21.628 15.9-28.758l1.492-2.474-1.993.5c-1.095.275-6.76 2.617-12.586 5.203-5.826 2.586-11.03 4.701-11.564 4.701-1.585 0-2.57-2.573-1.78-4.652.805-2.116 13.557-19.11 17.374-23.153 1.409-1.492 2.373-2.904 2.142-3.134-.23-.231-6.754 1.682-14.498 4.25-19.483 6.46-23.574 7.499-24.97 6.34-2.602-2.16-1.17-4.135 6.89-9.497 2.6-1.73 7.837-5.489 11.637-8.353 7.289-5.495 18.155-13.104 28.23-19.772l6.047-4.002-4.957-2.529c-2.726-1.392-5.938-3.125-7.138-3.85-4.875-2.943-18.562-9.735-24.325-12.07-6.285-2.546-9.562-4.98-11.373-8.445-1.387-2.656-.66-2.998 7.235-3.375 6.537-.313 8.482-.032 22.28 3.199 4.2.983 8.056 1.784 8.567 1.78.511 0-1.617-2.062-4.728-4.571-3.111-2.509-7.247-6.682-9.192-9.273-1.944-2.592-4.726-6.025-6.181-7.63-12.761-14.069-14.473-17.085-9.694-17.08 3.914 0 21.178 5.113 28.03 8.294 6.56 3.044 7.003 3.154 6.699 1.664-.18-.878-.849-4.541-1.486-8.141-.638-3.6-1.475-7.919-1.86-9.596-1.196-5.211-.914-8.724.737-9.156 1.512-.395 7.19 2.694 12.607 6.86 5.415 4.163 5.198 4.047 4.582 2.437-1.96-5.124-5.58-19.547-5.725-22.809-.254-5.742 1.056-6.273 6.405-2.6 7.234 4.97 12.315 11.202 23.64 28.989l3.205 5.033.942-3.217c.517-1.768 1.763-7.96 2.77-13.76 2.95-17.011 4.633-20.44 8.07-16.445 2.628 3.056 4.917 10 7.877 23.9.66 3.1 1.426 5.635 1.705 5.635.278 0 3.239-5.481 6.58-12.181 6.244-12.524 13.246-24.08 16.361-27.006 1.07-1.005 2.44-1.562 3.475-1.416zm-1.747 6.422c-.671 0-8.915 13.106-12.352 19.637-1.79 3.4-6.964 13.193-11.5 21.763l-8.246 15.58 2.23 4.012c1.953 3.508 2.676 4.157 5.778 5.186 1.95.646 4.526 1.7 5.726 2.341 2.13 1.139 2.262 1.11 5.455-1.248 2.342-1.729 3.331-3.004 3.48-4.48.116-1.135 1.017-5.665 2-10.065 3.594-16.06 8.758-52.726 7.429-52.726zm-74.48 7.969.993 6.378c.547 3.51 2.125 9.581 3.506 13.493 1.381 3.91 3.322 10.293 4.313 14.181 1.626 6.385 5.861 18.2 7.681 21.424.392.695.715 1.817.715 2.494 0 1.724 1.634 6.06 2.283 6.06.296 0 .76-.357 1.03-.794.27-.437 3.154-2.096 6.408-3.688 5.266-2.576 6.326-2.848 9.662-2.48l3.746.414-2.252-4.16c-2.939-5.426-8.446-13.494-9.723-14.244-.552-.325-.832-.87-.62-1.211.21-.342-1.403-3.186-3.587-6.32a1242.345 1242.345 0 0 1-7.906-11.516c-2.165-3.2-5.697-7.79-7.851-10.197-2.155-2.409-4.927-5.606-6.159-7.106zm38.405 2.238c-.057-.014-.104.013-.142.082-.298.541-1.253 4.584-2.121 8.984-.869 4.4-2.423 11.195-3.453 15.1l-1.875 7.1 2.867 3.445c1.577 1.895 3.611 4.508 4.52 5.808.907 1.3 1.873 2.35 2.146 2.332.272-.017 1.897-3.044 3.61-6.726l3.11-6.695-1.957-8c-2.902-11.862-5.847-21.218-6.705-21.43zM53.353 35.91c-.29-.013-.187.866.227 1.955.414 1.09 1.245 5.59 1.845 10 .601 4.41 1.402 9.208 1.78 10.66.71 2.73.671 2.704 7.949 5.33 1.8.65 4.745 2.128 6.545 3.286 4.516 2.904 5.142 2.826 4.248-.53-2.418-9.07-5.909-19.091-6.652-19.101-.478-.013-4.141-2.613-8.141-5.793s-7.51-5.793-7.8-5.807zm150.358.108c-.56-.56-40.049 23.128-53.102 31.855-5.2 3.477-12.333 8.093-15.852 10.258-6.136 3.775-6.334 3.977-4.85 4.973 3.178 2.13 9.587 12.904 10.423 17.521l.465 2.56 22.369-22.195c14.884-14.768 25.454-25.964 31.588-33.455 5.07-6.192 9.102-11.374 8.959-11.517zm-40.772 3.004c-.134-.029-.467.204-1 .58-.786.555-5.647 3.854-10.8 7.33-5.154 3.475-9.833 6.878-10.4 7.56-1.007 1.215-5.141 17.756-4.437 17.756.197 0 3.005-1.908 6.24-4.242 3.236-2.334 6.949-4.859 8.249-5.611 1.3-.753 2.363-1.774 2.363-2.268 0-.494 1.663-4.058 3.695-7.92 2.032-3.861 4.33-8.503 5.108-10.316.877-2.047 1.206-2.822.982-2.87zM23.252 52.817c-.098.097 2.456 3.12 5.675 6.714 3.22 3.595 6.756 7.844 7.86 9.444 2.152 3.119 5.58 6.408 15.31 14.683 3.381 2.876 9.086 8.194 12.678 11.819 3.592 3.624 6.608 6.59 6.703 6.59.095 0 1.329-.553 2.742-1.227 1.462-.697 2.57-1.761 2.57-2.469 0-.684 1.235-3.698 2.743-6.699l2.742-5.457-1.922-5.314c-1.41-3.9-2.383-5.502-3.652-6.022-.951-.39-3.594-1.81-5.875-3.156s-6.452-3.232-9.27-4.19c-2.817-.958-7.006-2.73-9.308-3.937-8.006-4.2-15.663-7.352-22.221-9.149-3.629-.994-6.678-1.728-6.775-1.63zm84.767 26.757c-6.047.053-12.13 1.837-17.14 5.274-4.185 2.87-6.194 6.199-8.706 14.428-3.755 12.304-.56 21.136 10.442 28.869 2.87 2.017 11.922 3.634 17.63 3.15 2.2-.186 5.716-.97 7.811-1.742 2.096-.772 5.346-2.463 7.223-3.756 5.539-3.817 7.258-6.53 8.932-14.086 2.193-9.905 2.013-12.856-1.106-18.05-3.643-6.068-5.762-8.09-11.566-11.028-4.135-2.093-8.817-3.1-13.52-3.059zm-88.531 5.037c-4.16 0-4.68.14-3.762 1.018.586.56 3.452 1.868 6.37 2.906 2.917 1.038 11.099 4.894 18.181 8.57 16.246 8.434 20.75 10.697 21.375 10.743.273.02 2.186-1.015 4.252-2.299l3.758-2.334-1.71-1.371c-.939-.754-4.587-3.875-8.107-6.938l-6.398-5.568-5.238-.424c-2.88-.233-7.855-.971-11.055-1.64-3.2-.67-7.398-1.542-9.328-1.94-1.93-.397-5.683-.723-8.338-.723zm133.441 11.483-6.066 6.44c-5.128 5.444-5.884 6.554-4.89 7.17.646.4 3.017 1.936 5.269 3.415 2.252 1.48 4.585 2.563 5.185 2.407.6-.157 5.019-1.62 9.819-3.252 15.143-5.152 31.792-11.881 30.773-12.438-.526-.287-5.702-.894-11.502-1.348-5.8-.454-14.604-1.177-19.566-1.609zM75.7 104.19l-6.545 4.14c-3.6 2.278-6.654 4.42-6.787 4.758-.134.338-.645.615-1.137.615s-4.801 2.87-9.576 6.377c-4.775 3.508-11.463 8.318-14.863 10.688-3.4 2.37-9.298 6.617-13.106 9.44-3.807 2.821-7.734 5.696-8.726 6.388-2.143 1.493-3.19 1.779 14.922-4.08 8-2.588 18.669-5.567 23.709-6.62 16.863-3.522 17.113-3.637 21.417-9.86l3.752-5.425-1.052-2.908c-.58-1.6-1.27-5.295-1.532-8.21zm64.213 8.806c-.045 0-.078.01-.096.031-.146.172-1.082 2.111-2.08 4.311-.998 2.2-3.39 5.925-5.316 8.277-4.077 4.98-3.935 5.75 1.447 7.864 11.185 4.393 57.768 14.899 66.56 15.011l4 .051-5.818-2.017c-8.217-2.85-17.822-7.883-25.455-13.334-5.597-3.998-11.287-7.613-21.818-13.858a60.546 60.546 0 0 0-4.643-2.422c-1.354-.62-3.396-1.818-4.537-2.662-.999-.738-1.93-1.25-2.244-1.252zM81.41 125.281l-2.02 2.02c-1.11 1.11-2.654 3.267-3.431 4.79-.778 1.525-2.73 4.638-4.338 6.919-6.02 8.542-24.513 40.604-31.547 54.693l-3.45 6.908 5.72-5.56c3.145-3.059 14.902-14.84 26.124-26.182 11.223-11.34 22.781-23.123 25.686-26.181l5.281-5.56-1.666-1.167c-.916-.642-2.098-1.168-2.625-1.168-1.954 0-7.183-3.157-10.408-6.285zm42.224 7.955c-.713.004-1.46.19-2.478.561-1.401.51-5.739 1.136-9.639 1.393-3.9.256-7.09.764-7.09 1.127 0 .362.327.66.727.66.4 0 .727.539.727 1.199s.783 2.87 1.74 4.91 4.2 8.944 7.207 15.344c3.007 6.4 6.583 14.255 7.945 17.455 3.474 8.161 13.725 24.336 18.992 29.967 2.435 2.603 4.541 4.394 4.68 3.978.138-.415-.59-5.114-1.617-10.441-1.028-5.328-2.51-11.978-3.295-14.778-4.272-15.234-6.035-22.032-8.018-30.908-3.228-14.456-4.897-18.827-7.607-19.933-.881-.36-1.56-.538-2.274-.534zm-54.576 3.518-1.77.38c-.973.21-5.37 1.115-9.77 2.01-9.398 1.914-8.733 1.357-18.298 15.356a5174.24 5174.24 0 0 1-7.449 10.883c-.852 1.233-.08 1.042 4.729-1.176 3.16-1.457 7.217-3.3 9.017-4.094 1.8-.794 4.91-1.617 6.91-1.83l3.637-.386 4.445-7.006c2.446-3.854 5.37-8.61 6.498-10.57zm63.569.31c-.092.006-.128.029-.102.07.209.338 1.297 4.285 2.418 8.772l2.037 8.16 7.299 4.014c4.014 2.208 7.9 4.551 8.633 5.21 1.697 1.52 11.203 6.405 12.478 6.41.633 0 .145-1.43-1.422-4.178-1.31-2.3-5.097-8.192-8.416-13.092-3.318-4.9-6.035-9.324-6.035-9.83 0-.547-3.525-1.968-8.685-3.5-4.18-1.242-7.564-2.073-8.205-2.035zm-31.614 4.27-7.787 8.342c-6.473 6.933-7.667 8.563-7.08 9.66.809 1.511 5.611 23.483 6.305 28.842l.463 3.564 2.77-5.02c1.522-2.76 4.316-9.437 6.208-14.837 1.893-5.4 4.062-11.697 4.82-13.992l1.38-4.172-3.54-6.194z" fill="#fff"/>
</svg>
