<svg xml:space="preserve" width="139.62" height="354.343" xmlns="http://www.w3.org/2000/svg">
    <path d="M48.142 352.284c-2.497-.346-5.031-.954-7.246-2.184-1.984-1.17-2.932-3.436-3.085-5.652-.3-4.01.182-8.026.23-12.038.745-26.572.69-53.176 2.074-79.706.356-9.357.552-18.759-.35-28.091-.189-1.788-.566-3.548-1.003-5.29-7.44-4.584-15.988-7.21-22.98-12.542-3.2-2.54-5.172-6.439-6.312-10.182-2.674-8.013-4.446-16.298-5.978-24.595a122.704 122.704 0 0 1-1.152-7.845c-.056-.72-.192-1.887-.244-2.785-.355-5.504.73-10.964 1.256-16.424 1.385-11.407 3.063-22.783 5.325-34.05 1.479-8.023 2.625-16.113 3.677-24.185.704-4.623 1.468-9.343 3.493-13.6 1.275-2.666 3.556-4.9 6.453-5.69 3.794-1.22 8.201-.12 10.913 2.822 4.087 4.158 5.647 10.03 6.645 15.608.889 5.26 1.05 10.617.792 15.936-.078 1.308-.178 2.959-.317 4.401-.639 8.7-3.17 17.125-3.858 25.818-.808 8.079-1.054 16.199-1.727 24.22-.395 4.821-.364 9.719.764 14.447.919 4.195 2.133 8.37 4.005 12.242.837 1.808 3.402 2.13 4.823.841 1.028-1.252 2.98-1.181 3.852-2.625 3.563-4.729 4.785-10.716 5.357-16.49.98-10.802 1.409-21.67.87-32.51-.385-8.994-1.315-17.95-2.18-26.906-1.414-16.282-1.73-32.836-2.654-49.245-.213-3.122-.038-6.358.21-9.347.718-8.004 1.59-16.24 3.153-24.225 1.13-6.012 3.228-12.24 7.885-16.454 4.11-3.797 10.212-4.73 15.512-3.348 3.701.763 7.631 2.313 9.633 5.732 2.13 3.237 3.223 7.052 3.797 10.84.58 1.216 2.084 1.545 3.258 1.047 1.891-.065 3.703.66 5.552.969-.687-2.912-2.027-5.787-1.779-8.836.42-2.65 2.769-4.338 4.53-6.14 1.673-1.835 4.134-2.95 6.636-2.754 2.319-.166 4.905.503 6.244 2.553 2.175 2.932 2.737 6.665 3.368 10.168.117 1.118.21 2.239.319 3.358 3.947-.586 8.273-1.636 12.028.283 3.765 2.148 5.442 6.704 5.487 10.856.01 3.68-1.669 7.204-4.241 9.788-.983.686-.623 1.201.33 1.641 2.184 1.466 4.485 3.146 5.55 5.635.946 2.898.515 6.019.13 8.978-.439 2.61-1.44 5.687-4.183 6.66-1.671.577-3.443 1.024-5.208 1.087-2.625-.327-4.917-1.81-7.217-3.009-1.238-.731-2.373-1.62-3.562-2.427-1.872 4.166-3.347 8.894-7.123 11.78-3.074 2.2-7.312 2.736-10.84 1.392-2.352-1.138-4.175-3.295-5.16-5.688-.324-1.13-.457-2.306-.7-3.456-1.6.522-3.182 1.39-4.922 1.052-1.045-.29-1.444.086-1.18 1.143.217 4.83-.907 9.574-1.344 14.36-1.065 8.624-1.825 17.247-3.027 25.83-.7 4.887-.681 9.841-.949 14.764-.607 16.1-1.089 32.21-1.08 48.322.108 7.746.176 15.539 1.421 23.202.648 2.954 1.327 6.21 3.675 8.322.792.666 1.665 1.23 2.49 1.854 1.971-3.165 3.615-6.543 4.617-10.145 2.786-10.043 4.051-20.436 4.97-30.795.75-7.7.71-15.458 1.559-23.148.807-5.42 3.936-10.795 9.008-13.2 3.524-1.708 8.251-1.483 11.033 1.507 2.542 2.87 3.632 6.702 4.4 10.38 1.529 7.74 1.627 15.84 1.603 23.8.072 4.26-.295 8.529-1.294 12.677-1.456 6.31-3.043 12.593-4.698 18.854-.92 3.201-1.887 6.49-3.996 9.14-5.208 6.724-10.11 13.755-16.226 19.709-9.047 8.094-16.408 17.825-25.008 26.359-2.395 2.701-2.394 6.522-2.677 9.917-.578 9.628-.358 19.279-.411 28.918.056 17.399.028 34.803.561 52.194.13 2.372.943 5.1-.707 7.143-2.63 3.555-7.085 5.01-11.23 5.92-2.852.402-5.772.293-8.578 1.024-1.011.145-2.043.23-3.062.114z"/>
    <path d="M71.12.005c-3.728.08-7.431 1.21-10.426 3.474-4.972 3.743-7.642 9.725-9.088 15.623-1.533 6.725-2.382 13.586-3.149 20.434-.503 5.498-1.242 11.025-.869 16.555 1.067 18.785 1.295 37.631 3.348 56.35.823 8.479 1.515 17.119 1.682 25.64.075 3.276.048 6.703-.037 9.883-.239 6.076-.542 12.14-1.184 18.07-.64 4.802-1.714 9.807-4.717 13.734-.467.998-1.628.922-2.42 1.508-.74.243-1.098 1.207-1.885 1.244-1.02.226-1.226-.916-1.607-1.586a60.408 60.408 0 0 1-3.82-13.43c-.968-5.79-.055-11.701.25-17.458.453-6.55.694-12.928 1.435-19.422.67-7.213 2.659-14.218 3.408-21.418 1.095-9.722 1.189-19.748-1.441-29.244-1.382-4.904-3.764-9.877-8.041-12.877-3.743-2.61-8.868-2.82-12.896-.746-3.306 1.567-5.367 4.824-6.592 8.152-2.385 6.739-2.887 13.933-3.916 20.957-.251 1.85-.586 3.97-.856 5.781-.653 3.98-1.31 7.96-2.08 11.92-2.118 10.625-3.6 21.361-4.92 32.11-.508 4.92-1.35 9.831-1.297 14.79.303 5.812 1.337 11.563 2.446 17.268 1.526 7.15 3.099 14.325 5.584 21.213 1.266 3.865 3.5 7.45 6.715 9.988 6.78 5.14 15.013 7.763 22.267 12.104.777 2.964.974 6.037 1.145 9.021.432 8.109.251 16.276-.094 24.31-1.26 24.003-1.276 48.046-1.86 72.07-.108 3.706-.146 7.26-.344 10.917-.068 3.402-.521 6.91.448 10.229.728 2.642 2.891 4.665 5.437 5.564 2.26.819 4.629 1.478 7.037 1.608 1.122.02 2.241-.098 3.344-.295 3.194-.865 6.584-.34 9.756-1.342 4.314-1.1 8.85-3.083 11.24-7.047 1.522-2.47.714-5.438.555-8.135-.495-18.452-.49-36.915-.53-55.373.07-8.795-.136-17.607.499-26.387.273-2.575.324-5.51 2.205-7.507 7.885-7.772 14.645-16.617 22.718-24.207 5.71-5.014 10.301-11.106 14.895-17.116 2.21-3.044 4.897-5.84 6.268-9.402 1.92-5.084 2.98-10.437 4.375-15.678 1.423-6.035 3.244-12.062 3.32-18.314.126-7.33.076-14.685-.723-21.979-.697-5.14-1.562-10.474-4.347-14.95-1.675-2.71-4.543-4.661-7.743-4.952-4.562-.602-9.125 1.562-12.101 4.963-3.162 3.431-4.907 7.986-5.264 12.607-.576 6.303-.646 12.641-1.162 18.95-.619 8.076-1.545 16.345-3.086 24.425-1.167 5.621-2.322 11.42-5.342 16.389-.812-.55-1.447-1.329-1.916-2.184-1.887-4.076-2.148-8.654-2.552-13.064-.463-6.915-.54-13.998-.504-21.045.16-14.944.572-29.897 1.17-44.807.28-4.417.215-8.877 1.017-13.244 1.157-8.96 1.996-17.994 3.115-26.914.384-3.853 1.242-7.684 1.118-11.572.87.07 1.746-.102 2.55-.432.13.975.468 1.912.918 2.783 1.533 2.602 3.774 5.058 6.756 5.932 3.538.957 7.495.512 10.694-1.308 4.064-2.38 6.103-6.884 7.859-11.045.882.647 1.825 1.21 2.789 1.726 2.457 1.221 4.996 2.763 7.832 2.68 2.53-.462 5.283-.804 7.357-2.469 2.35-2.088 3.13-5.36 3.508-8.361.285-3.227.641-6.741-.927-9.713-1.272-2.004-3.078-3.675-5.057-4.973 3.043-3.308 4.515-7.964 3.9-12.42-.567-4.138-2.603-8.425-6.4-10.492-3.423-1.827-7.5-1.451-11.19-.828a27.545 27.545 0 0 0-.248-2.182c-.778-3.884-1.533-8.114-4.357-11.097-1.875-2.142-4.874-2.663-7.584-2.48-2.611-.119-5.121 1.003-7.01 2.763-1.96 1.967-4.3 3.78-5.351 6.437-.88 2.569-.108 5.335.609 7.848-.942-.226-1.924-.406-2.895-.293-.526-.03-1.412.657-1.248-.281-.8-4.545-2.387-9.121-5.43-12.668C83.247 2.184 78.915.977 74.83.27a20.07 20.07 0 0 0-3.71-.265zm.369 4.004c4.018 0 9.169 1.589 11.252 3.472 3.438 3.11 6.385 13.147 4.355 14.832-3.335 2.769-4.228 10.787-1.668 14.987 2.023 3.318 1.905 7.598-.273 9.949-3.687 3.978-4.295 12.341-1.203 16.523 1.522 2.06 1.527 2.196.431 10.615-.61 4.692-1.624 13.44-2.254 19.44-.63 6-1.3 11.368-1.49 11.93-.711 2.108-2.116 47.617-1.955 63.34.225 21.946 1.79 29.833 6.559 33.074 3.447 2.342 4.797 1.565 7.57-4.362 3.809-8.14 6.876-27.222 7.828-48.71.472-10.67.774-12.838 2.203-15.823 2.85-5.953 8.062-8.896 12.9-7.283 4.889 1.63 7.547 11.6 7.711 28.924.115 12.059.051 12.642-2.654 23.636-4.14 16.83-4.623 18.278-7.193 21.618-1.3 1.69-4.706 6.126-7.57 9.857-2.865 3.732-7.08 8.383-9.366 10.336-2.286 1.953-7.573 7.443-11.748 12.2-4.174 4.756-9.005 10.014-10.736 11.683-5.083 4.9-5.143 5.506-5.018 51.398.06 21.8.343 41.437.63 43.637.484 3.73.383 4.136-1.483 6.002-2.195 2.195-7.863 4.18-11.936 4.18-1.43 0-3.58.27-4.777.6-1.197.329-3.16.37-4.36.091-7.505-1.746-7.915-2.46-7.384-12.877.24-4.698.616-21.306.838-36.906.22-15.6.721-34.02 1.11-40.934 1.236-21.92.547-38.804-1.696-41.525-.477-.578-4.872-2.944-9.768-5.256-11.603-5.48-14.702-7.674-17.127-12.129-3.538-6.501-9.252-32.28-9.242-41.703.01-4.385 3.313-29.962 5.021-38.816 2.473-12.814 3.683-20.153 4.809-29.182 1.818-14.575 3.948-19.792 8.727-21.37 13.465-4.443 20.16 19.713 13.81 49.825-1.18 5.597-2.094 13.16-2.549 21.09-.39 6.8-.916 14.656-1.168 17.457-.252 2.8-.096 7.421.346 10.27.975 6.28 3.9 15.18 5.611 17.072 1.51 1.667 5.559 1.841 6.844.293.498-.6 1.34-1.092 1.871-1.092 1.379 0 4.45-4.273 5.785-8.049 1.997-5.644 2.48-8.946 3.239-22.223.78-13.64.268-26.35-1.885-46.818-.61-5.8-1.431-18.892-1.824-29.092s-.89-20.736-1.102-23.414c-.406-5.106 1.872-25.57 3.77-33.875C57.825 9.764 63.349 4.01 71.489 4.01zm36.615 1.455c2.765 0 3.47.322 4.885 2.236 1.719 2.326 3.532 11.471 2.43 12.256-.322.229-1.014 2.542-1.536 5.142-.522 2.6-1.001 4.768-1.066 4.815-.065.047-1.311.299-2.77.562-2.533.458-2.768.32-5.281-3.103-3.035-4.134-5.146-8.715-5.846-12.69-.456-2.589-.268-3 2.73-6 2.843-2.842 3.601-3.218 6.454-3.218zM74.469 18.78c-.211.002-.512.072-.922.197-2.081.64-2.193.776-1.693 2.078.553 1.441 2.412.718 2.894-1.127.215-.82.186-1.151-.279-1.148zm50.383 1.95c3.848-.002 5.843 1.379 7.389 4.636 1.812 3.82 1.532 8.246-.73 11.512-1.643 2.369-2.297 2.758-4.548 2.71-1.445-.03-3.774-.467-5.174-.972-1.526-.55-2.63-1.475-2.755-2.309-.546-3.607-.98-4.596-2.19-4.98-1.234-.392-1.243-.672-.18-5.072 1.082-4.476 1.227-4.677 3.672-5.082 1.747-.29 3.233-.443 4.516-.444zm-31.336 1.46c1.764 0 5.729 1.982 5.729 2.863 0 .354 1.232 2.227 2.74 4.163l2.742 3.52-1.285 2.546c-.707 1.4-1.287 3.555-1.287 4.791 0 2.78-2.029 3.831-6.184 3.21-4.53-.675-6.716-2.536-8.086-6.882-.748-2.363-1.026-4.772-.738-6.308.582-3.104 4.45-7.903 6.369-7.903zM62.04 28.247c-.993.013-2.07.885-2.07 2.021 0 1.705 2.756 1.897 3.393.237.24-.627.122-1.456-.264-1.842a1.437 1.437 0 0 0-1.059-.416zm50.436 4.924c.944.016 1.404.418 2.193 1.392 2.227 2.75.547 7.207-3.627 9.623-2.097 1.214-2.263 1.211-3.855-.078-1.555-1.259-1.62-1.628-.986-5.633l.68-4.285 3.198-.672c1.09-.228 1.83-.357 2.397-.347zm-35.043.746c-.417.008-1.032.487-1.885 1.43-1.347 1.488-1.348 1.542-.01 2.523 1.799 1.315 2.612.722 2.612-1.904 0-1.382-.216-2.06-.72-2.05zm-11 6.154a2.522 2.522 0 0 0-.645.09c-1.612.422-1.964 2.096-.544 2.588.968.335 1.97-.737 1.988-2.127 0-.348-.31-.548-.8-.55zm51.832 1.15 2.672 1.116c1.469.614 4.27 1.142 6.223 1.172 2.95.044 3.965.444 6 2.363 2.22 2.093 2.447 2.693 2.447 6.428 0 2.265-.47 5.242-1.043 6.615-1.01 2.418-1.393 2.634-6.348 3.597-.664.13-3.117-.817-5.453-2.105-4.554-2.51-5.48-3.814-7.041-9.912-.965-3.77-.935-4.018.772-6.596zm-18.867 4.43c2.399-.037 4.316.124 4.58.55.22.356-.42 1.561-1.42 2.68-1 1.12-3.335 4.092-5.19 6.604-2.952 4-6.25 6.73-8.09 6.695-.32-.005-1.398-.422-2.398-.925-1.389-.7-1.872-1.584-2.05-3.75-.302-3.664 1.7-8.87 3.988-10.37 1.245-.815 6.582-1.422 10.58-1.484zm12.697 2.315 1.352 5.11c1.584 5.99 1.574 6.106-.971 11.233-2.315 4.663-5.094 6.602-9.47 6.606-2.511.003-3.576-.427-5.272-2.123-1.17-1.17-2.127-2.818-2.127-3.664 0-1.612 7.55-13.347 9.908-15.4.751-.655 2.539-1.318 3.973-1.475zm-52.47 3.255c-.617.006-1.108.406-1.108 1.319 0 1.597 1.33 3.105 2.738 3.105.655 0 .916-.681.764-2-.17-1.477-1.433-2.432-2.395-2.424zm15.433 5.192c-.205.018-.473.35-.957 1.008-.571.776-1.04 1.84-1.04 2.363 0 1.314 2.133 1.202 2.647-.139.23-.6.196-1.663-.076-2.363-.23-.593-.37-.888-.574-.87zM63.598 68.16c-.273.006-.556.123-.814.38-.931.932-.354 3.104.824 3.104.425 0 .97-.513 1.21-1.14.465-1.21-.328-2.364-1.22-2.344zm10.533 10.756c-1.315 0-2.125 1.73-1.533 3.273.546 1.423 1.648 1.394 2.205-.058.752-1.96.49-3.215-.672-3.215zm-51.648 1.455c-1.218 0-2.014 1.221-1.42 2.181.497.804 2.06.972 2.738.293.694-.694-.254-2.474-1.318-2.474zm41.58.369c-.143-.005-.36.166-.678.488-1.292 1.307-2.057 3.486-1.527 4.344.63 1.021 2.428-1.626 2.455-3.617.01-.828-.042-1.208-.25-1.215zm-34.309 5.45c-1.455 0-2.11 1.527-.967 2.251 1.194.756 1.703.806 2.286.223.694-.694-.255-2.475-1.319-2.475zm40.955 8.421c-.146.005-.3.028-.46.07-1.833.48-2.56 2.293-1.454 3.625.99 1.194 2.057.982 3.059-.607.961-1.524.27-3.134-1.145-3.088zm-38.396 1.334c-.402.001-.88.131-1.4.41-1.267.678-1.41 1.051-.717 1.885 1.156 1.394 2.605 1.316 3.175-.172.497-1.294-.033-2.126-1.058-2.123zm-9.328 1.895a1.348 1.348 0 0 0-1.158.654c-.6.968 1.839 3.202 2.63 2.41.36-.359.444-1.198.188-1.865-.299-.778-1-1.207-1.66-1.2zm35.468 5.08c-.451.03-.611.741-.216 1.771.378.987.61 1.05 1.078.293.328-.53.289-1.272-.088-1.648-.301-.302-.568-.43-.774-.416zm9.42 3.814a.613.613 0 0 0-.173.03c-1.224.407-1.468 2.8-.356 3.488 1.207.746 2.265-.924 1.63-2.576-.218-.57-.686-.955-1.1-.942zm-37.632 3.299c-.137 0-.287.015-.452.043-1.895.327-2.082.555-1.566 1.9.237.618 1.119 1.121 1.959 1.121 1.169 0 1.473-.383 1.295-1.634-.142-.998-.498-1.429-1.236-1.43zm-13.555 4.035c-.21.006-.35.163-.35.442 0 .423.327.771.727.771.4 0 .726-.146.726-.322 0-.177-.326-.523-.726-.77a.7.7 0 0 0-.377-.12zm58.953 1.541a1.864 1.864 0 0 0-.396.035c-2.965.571-3.78 2.11-2.036 3.854 1.21 1.21 2.526 1.09 3.051-.278.832-2.166.565-3.581-.619-3.61zm-49.225 4.992c-.455.002-1.026.268-1.734.785-1.39 1.016-1.392 1.063-.041 2.555 2.083 2.302 3.469 1.961 3.197-.787-.17-1.726-.61-2.557-1.422-2.553zm36.082.496c-1.945 0-2.842 1.032-2.248 2.582.498 1.296 2.344 1.383 3.116.147 1.12-1.793.823-2.729-.868-2.729zm-46.16 2.184c-1.648 0-1.864.753-.582 2.035s2.035 1.067 2.035-.582c0-.97-.483-1.453-1.453-1.453zm52.258 6.803a1.356 1.356 0 0 0-.459.086c-1.158.448-1.145.566.158 1.525 1.556 1.145 2.12 1.265 2.795.59.738-.738-1.16-2.236-2.494-2.201zm42.615 4.832c-1.277 0-2.012 1.26-1.506 2.58.497 1.294 2.394 1.394 2.829.148.465-1.335-.21-2.728-1.323-2.728zm-86.908 4.39c-.265.016-.588.284-1.117.813-.662.661-.97 1.58-.686 2.04.6.97 2.698.739 3.038-.333.126-.4-.08-1.218-.46-1.818-.303-.48-.51-.717-.775-.702zm38.235 2.836c-.575.004-1.146.244-1.473.774-.672 1.086.263 2.181 1.861 2.181.927 0 1.412-.498 1.412-1.453 0-.94-.905-1.508-1.8-1.502zm-47.407.326a.51.51 0 0 0-.248.084c-.4.248-.728.759-.728 1.135 0 .377.328.684.728.684.4 0 .727-.51.727-1.133 0-.487-.2-.782-.479-.77zm96.098 3.672c-.9.01-1.94 1.05-1.486 1.786.721 1.167 2.595.995 2.595-.239 0-.576-.26-1.209-.58-1.406a.978.978 0 0 0-.53-.14zm-86.777 6.227c-.441.003-.897.23-1.205.73-.61.985.213 2.184 1.498 2.184.576 0 1.046-.655 1.046-1.455 0-.918-.651-1.463-1.34-1.46zm48.539 1.459c-1.554.043-1.826 1.446-.508 2.764 1.356 1.355 2.037 1.04 2.037-.946 0-1.333-.388-1.818-1.455-1.818h-.074zm42.904 3.127c-.377-.002-.829.149-1.328.465-.875.553-.889.85-.074 1.832 1.205 1.452 2.572 1.081 2.572-.698 0-1.035-.45-1.596-1.17-1.6zm-102.885 1.535c-.935.01-1.91 1.183-1.53 2.174.631 1.643 2.675 1.453 2.675-.248 0-.777-.261-1.573-.58-1.77a1.038 1.038 0 0 0-.565-.156zm92.43 4.461c-.413.011-.933.248-1.541.719-1.355 1.048-1.355 1.086 0 2.134 1.621 1.255 2.62.847 2.62-1.068 0-1.197-.39-1.804-1.08-1.785zm-39.738.332c-.91.03-1.364.514-1.364 1.453 0 .97.484 1.455 1.453 1.455.97 0 1.456-.485 1.456-1.455 0-.97-.486-1.453-1.456-1.453h-.09zm-40.442 6.15c-.306.004-.67.217-1.23.627-.853.624-1.207 1.47-.924 2.207.56 1.46 3.108 1.583 3.648.176.216-.561 0-1.554-.474-2.207-.4-.546-.673-.808-1.02-.803zm87.283 2.916c-.3-.005-.649.187-1.164.563-.823.602-1.126 1.415-.822 2.207.578 1.507 2.922 1.665 3.47.234.216-.56 0-1.554-.476-2.207-.388-.53-.667-.79-1.008-.797zm-98.177 4.123a1.59 1.59 0 0 0-1.082.483c-1.132 1.131-.14 3.055 1.576 3.055 1 0 1.478-.477 1.478-1.477 0-1.233-.993-2.094-1.972-2.06zm51.955.088a.903.903 0 0 0-.46.133c-.878.543-1.075 2.795-.312 3.559.872.871 2.46.51 2.91-.662.462-1.202-1.006-3.054-2.138-3.03zm35.463 8.192c-.394.005-.884.21-1.452.625-1.536 1.123-.883 2.633 1.14 2.633.912 0 1.411-.5 1.411-1.413 0-1.224-.398-1.854-1.1-1.845zm-46.653 1.761c-.32.01-.696.292-.867.805-.16.48.102.742.582.582.48-.16.849-.528.818-.818-.04-.394-.267-.576-.533-.569zm-22.11 1.497c-1.981 0-2.444 1.364-1.005 2.955 1.478 1.632 2.257 1.778 2.688.5.552-1.643-.33-3.455-1.682-3.455zm-16.374 2.48c-.935.01-1.91 1.183-1.53 2.174.631 1.643 2.674 1.453 2.674-.248 0-.777-.26-1.573-.58-1.77a1.038 1.038 0 0 0-.564-.156zm91.271.793c-.57.034-1.129.593-1.26 1.271-.171.893.22 1.274 1.315 1.274s1.488-.38 1.316-1.274c-.134-.7-.727-1.271-1.316-1.271h-.055zm-44.37 1.9c-.514.012-.79.585-.325 1.336.268.433.821.58 1.229.328.496-.307.483-.712-.04-1.234-.306-.306-.614-.435-.865-.43zm-16.555 3.696c-.445.005-.927.153-1.407.463-1.452.937-.216 3.03 1.79 3.03 1.439 0 1.745-.32 1.558-1.628-.17-1.194-.964-1.877-1.941-1.865zm-11.47 3.572c-.56.012-1.188.36-1.796 1.092-.825.994-.762 1.321.414 2.181 1.782 1.304 3.287 1.294 3.287-.02 0-2.076-.832-3.276-1.904-3.253zm36.92 1.164c-.348.002-.757.165-1.212.498-1.176.86-1.239 1.188-.414 2.182 1.286 1.55 2.979 1.49 2.965-.104-.015-1.68-.512-2.58-1.338-2.576zm26.915 1.303c-.28.01-.64.228-1.207.642-1.185.867-1.25 1.196-.424 2.19 1.203 1.449 2.168 1.491 2.693.12.221-.575.116-1.558-.236-2.187-.295-.526-.509-.778-.826-.765zm-8.533 9.13c-.446-.005-1.011.2-1.684.626-1.4.886-.449 2.972 1.356 2.972 1.09 0 1.476-.475 1.476-1.818 0-1.166-.406-1.769-1.148-1.78zm-37.11 3.174a1.483 1.483 0 0 0-.488.098c-1.632.627-1.618 3.033.02 3.461 2.116.553 2.194.537 2.6-.52.528-1.376-.798-3.08-2.131-3.039zm15.002 4.286c-.305-.006-.653.064-1.04.213-1.378.528-1.531 2.199-.249 2.716 1.847.746 2.727.446 2.727-.93 0-1.285-.522-1.983-1.438-2zm8.258 3.793c-.275.007-.603.131-1.031.36-1.767.946-1.837 2.582-.153 3.563 1.748 1.018 2.14.964 2.647-.359.241-.629.099-1.779-.316-2.555-.38-.708-.689-1.022-1.147-1.01zm-28.236 5.595c-.792.022-1.553.633-1.71 1.721-.286 1.995 2.89 3.627 3.58 1.84.25-.646.147-1.768-.23-2.492-.388-.747-1.024-1.086-1.64-1.069zm14.55 7.84c-1.215 0-2.036 1.038-1.357 1.717.87.87 2.406.47 2.406-.625 0-.6-.472-1.092-1.049-1.092zm-11.644 11.637c-2.525 0-3.37 2.744-1.438 4.676 1.52 1.519 2.3 1.44 2.848-.286.393-1.238-.619-4.39-1.41-4.39zm8.316 17.127a1.059 1.059 0 0 0-.363.068c-1.297.498-1.395 1.833-.223 3.006 1.332 1.332 2.96-.328 2.028-2.068-.34-.635-.907-1.014-1.442-1.006zM51.33 275.53c-.423.019-.913.278-1.427.8-1.12 1.138-1.105 1.294.209 2.268 1.992 1.477 2.588 1.31 2.588-.728 0-1.538-.562-2.376-1.37-2.34zm7.44 13.963c-.283.009-.6.132-1.004.348-1.773.948-1.86 3.3-.158 4.29 1.842 1.074 2.873.95 3.394-.408.252-.656-.053-1.97-.675-2.92-.61-.93-1.018-1.327-1.557-1.31zm2.654 16.334c-.952.04-1.61 1.337-1.088 2.182.76 1.23 1.817.807 1.817-.727 0-.8-.307-1.455-.684-1.455h-.045zm-7.789 2.281a1.59 1.59 0 0 0-1.082.483c-1.131 1.13-.137 3.054 1.578 3.054 1 0 1.477-.478 1.477-1.478 0-1.233-.994-2.093-1.973-2.059zm-4.605 10.895c-.234 0-.469.142-.743.412-.48.473-.676 1.373-.435 2 .468 1.219 2.329 1.545 2.963.52.21-.342-.075-1.242-.635-2-.467-.633-.809-.933-1.15-.932zm13.043 9.582c-.329.008-.717.161-1.25.447-1.969 1.053-1.984 1.844-.078 3.75 1.734 1.734 3.135 1.54 3.435-.473.115-.771-.236-2.014-.783-2.761-.491-.672-.844-.975-1.324-.963zm-11.914 5.644c-.952-.003-1.987.374-2.616 1.131-.824.994-.764 1.322.412 2.182 1.749 1.278 2.887 1.282 3.94.013.456-.549.625-1.53.375-2.181-.292-.76-1.16-1.142-2.111-1.145z" fill="#fff"/>
</svg>
