<svg xml:space="preserve" width="200.798" height="301.704" xmlns="http://www.w3.org/2000/svg">
    <path d="M90.442 299.683c-4.206-.111-8.302-1.81-11.536-4.464-1.543-1.19-2.315-3.038-2.632-4.912-1.426-7.253-1.466-14.68-1.715-22.042-.11-7.68-.32-15.38.209-23.048.09-.598.286-1.215-.508-.872-3.139.422-6.336 1.113-9.505.622-3.415-.744-6.502-2.485-9.652-3.934-9.763-4.724-18.736-11.067-26.39-18.756-3.574-3.491-7.24-7.058-9.482-11.596-6.668-12.762-11.302-26.525-14.419-40.562-2.355-10.868-3.678-22.115-2.2-33.203 1.176-9.226 3.083-18.341 5.011-27.433 1.264-5.298 2.408-10.756 5.122-15.538 2.186-3.928 6.443-6.554 10.935-6.734 6.375-.348 12.403 2.902 16.926 7.175 2.647 2.468 5.566 5.034 6.514 8.68 1.256 4.62 1.07 9.467 1.215 14.212.138 11.644-.124 23.298.417 34.934.239 5.514 1.206 10.989 2.98 16.219 1.482 4.942 3.65 9.906 6.216 14.485 1.932 3.338 3.887 6.785 6.75 9.423 2.024 1.642 3.866 3.597 6.195 4.805.564-.6.446-1.625.619-2.4.425-4.858.687-9.732 1.325-14.571.378-3.17.962-6.529 1.045-9.59.429-11.302-.055-22.626-.472-33.893-.745-19.016-2.377-38.04-1.496-57.08.335-7.438 1.981-14.736 3.588-21.98 1.431-5.877 2.828-11.807 5.13-17.416 2.192-4.69 5.052-9.339 9.407-12.305 2.888-1.956 6.515-1.922 9.86-2.189 4.502-.149 9.204-.272 13.412 1.596 3.267 1.197 6.404 3.178 8.136 6.288 2.008 3.457 3.189 7.318 4.367 11.116 1.217 4.74.982 9.685 1.123 14.536.13 12.648.181 25.297.29 37.945 5.287-.513 10.128-3.265 14.062-6.72 1.915-1.712 3.481-3.766 4.981-5.84.574-.826 1.338-1.99 1.888-3.01 3.796-6.744 4.34-14.668 4.654-22.237.279-7.982-.052-16.213.112-24.292.104-5.676.6-11.478 2.919-16.733 1.244-3.115 2.802-6.137 5.076-8.634 3.041-3.374 6.715-6.708 11.37-7.432 4.953-.791 10.432-.087 14.477 3.075 4.133 3.202 7.591 7.342 9.867 12.057 1.517 3.166 2.074 6.679 2.094 10.164.14 7.835.075 15.675-.063 23.51-.128 7.125-.79 14.265-2.507 21.196-1.472 6.081-3.014 12.152-4.83 18.14-1.036 3.54-2.946 6.746-5.308 9.557-5.295 6.679-10.815 13.366-17.893 18.242-5.533 3.877-11.408 7.244-17.326 10.492-4.314 2.393-9.144 3.547-13.933 4.548-4.741 1.107-9.51 2.553-13.656 5.167-.72.52-1.629 1.075-1.541 2.091-.76 7.846-.537 15.744-.753 23.615-.174 11.934-.634 23.861-.829 35.794-.139 7.568.657 15.112 1.48 22.575 1.37 11.992 2.112 24.053 2.147 36.124.038 7.593.218 15.188.165 22.78-.042 2.891-.948 5.896-3.16 7.871-2.71 2.483-5.962 4.285-9.157 6.061-3.037 1.692-6.526 2.105-9.92 2.497-1.952.266-3.895.656-5.719 1.405-1.787.45-3.65.48-5.482.419z"/>
    <path d="M175.505.006c-.697.015-1.394.062-2.082.138-4.737.295-8.91 3.012-12.155 6.315-2.939 2.793-5.228 6.214-6.779 9.955-2.074 4.454-3.091 9.362-3.385 14.265-.704 12.81.59 25.705-1.07 38.465-.193 1.268-.49 2.972-.857 4.381-1.176 5.112-3.961 9.692-7.389 13.606-3.355 3.66-7.717 6.55-12.578 7.718-.082-10.982-.15-21.963-.25-32.945-.158-5.565.17-11.203-.973-16.688-1.05-3.911-2.323-7.799-4.156-11.421-1.744-3.786-5.177-6.549-9.014-8.03-4.162-1.965-8.846-2.249-13.377-2.092-3.809.208-7.826.143-11.324 1.877-5.048 2.83-8.405 7.852-10.871 12.95-2.201 4.788-3.5 9.933-4.797 15.025-1.827 7.62-3.618 15.293-4.34 23.111-.78 11.702-.418 23.446.108 35.15.786 16.551 1.762 33.07 1.83 49.632-.062 4.61.03 9.138-.563 13.683-.92 6.227-1.433 12.513-1.906 18.772-2.045-1.785-4.282-3.408-5.883-5.635-3.087-4.248-5.574-8.922-7.642-13.742-2.346-5.755-4.238-11.754-4.94-17.95-.37-2.99-.404-5.77-.531-8.777-.27-9.197-.156-18.67-.227-27.974-.137-5.442.126-10.965-1.068-16.313-.723-3.915-3.444-7.017-6.299-9.611-4.62-4.579-10.585-8.265-17.22-8.64-5.153-.462-10.459 1.81-13.584 5.95-3.397 4.752-4.758 10.564-6.104 16.153-1.998 8.964-3.848 17.97-5.14 27.066-1.7 10.57-.937 21.38 1.05 31.852 2.99 15.32 7.81 30.348 14.916 44.27 2.11 4.627 5.55 8.459 9.166 11.966 7.133 7.298 15.327 13.566 24.328 18.387 3.715 1.917 7.422 3.823 11.334 5.302 3.492 1.416 7.33.983 10.951.416-.324 5.583-.282 11.18-.2 16.77.152 7.615.202 15.255 1.107 22.826.534 3.312.68 7.002 3.037 9.631 3.657 3.548 8.681 5.703 13.781 5.863 1.213.033 2.427.04 3.637-.078 1.746-.066 3.325-.811 4.99-1.238 3.995-.886 8.228-.824 12.02-2.533 3.531-1.758 6.995-3.742 10.064-6.237 2.828-2.081 4.44-5.478 4.697-8.935.168-5.842-.005-11.691-.043-17.535-.042-9.841-.192-19.69-.959-29.504-.736-10.92-2.57-21.656-2.73-32.576.047-10.793.502-21.58.71-32.372.22-8.054.18-16.194.466-24.168.102-1.812.213-3.96.41-5.894 3.34-2.42 7.349-3.715 11.29-4.791 5.076-1.253 10.308-2.144 15.054-4.44 6.063-3.184 12.017-6.607 17.7-10.435 7.16-4.61 12.924-10.997 18.196-17.606 2.627-3.172 5.222-6.475 6.672-10.378 1.914-5.638 3.32-11.435 4.783-17.204 1.62-6.048 2.67-12.246 3.041-18.5.43-7.562.36-15.142.39-22.714-.128-5.094.323-10.33-1.282-15.252-1.985-5.763-5.86-10.757-10.489-14.659-3.662-3.309-8.643-4.735-13.521-4.628zm1.064 4.007c2.382.086 4.769.584 6.606 1.473 4.302 2.083 9.985 8.523 11.986 13.586 1.47 3.717 1.65 5.424 1.64 15.451-.025 26.825-.252 28.92-5.105 47.24-3.007 11.351-3.39 12.21-8.07 18.041-10.004 12.465-13.832 15.715-28.56 24.258-8.01 4.646-9.893 5.388-18.24 7.18-8.078 1.734-15.482 5.063-16.821 7.564-.488.912-.856 7.158-.946 16.06-.08 8.012-.396 22.912-.703 33.112-.517 17.22-.423 19.768 1.317 35.637 1.347 12.295 1.916 21.681 2.027 33.453.085 9 .18 18.88.211 21.953.07 6.921-.864 8.377-8.244 12.852-4.377 2.654-6.156 3.289-10.633 3.79-2.957.332-6.02.947-6.807 1.368-1.622.868-6.803.915-9.529.086-3.332-1.014-6.513-2.967-7.644-4.694-.687-1.048-1.394-4.84-1.832-9.841-.877-9.988-1.086-34.302-.329-38.162l.555-2.833-2.1.512c-1.155.281-3.967.693-6.25.916-3.727.365-4.763.123-10.181-2.377-11.322-5.222-19.879-11.05-28.23-19.224-7.353-7.197-8.063-8.155-11.86-16-7.268-15.02-13.058-35.35-14.455-50.756-1.001-11.04-.26-18.177 4.139-39.746 2.844-13.95 4.86-19.604 8.078-22.662 5.46-5.191 14.954-3.686 22.648 3.591 7.308 6.911 7.096 5.886 7.149 34.319.05 26.674.362 29.695 4.3 41.517 2.696 8.093 8.708 18.688 12.461 21.963 6.28 5.48 7.361 6.109 8.873 5.164 1.158-.723 1.458-2.07 1.83-8.209.246-4.039.941-10.548 1.545-14.465 1.14-7.38.805-27.123-1.035-61.244-.94-17.425-.926-33.876.033-40.855 1.512-10.999 5.734-28.102 8.248-33.42 2.985-6.31 6.888-10.787 10.473-12.012 1.474-.503 5.625-.932 9.225-.951 5.391-.028 7.31.288 10.883 1.785 5.192 2.177 6.846 4.342 9.666 12.658 1.987 5.862 1.996 5.979 2.142 28.069.08 12.2.162 23.778.182 25.73l.035 3.55 3.092-.354c5.519-.634 12.595-4.703 16.718-9.616 8.366-9.965 10.117-17.508 9.854-42.453-.205-19.45.233-22.673 4.236-31.142 1.974-4.176 7.078-9.287 10.848-10.862 1.815-.758 4.192-1.085 6.574-1zm-2.187 7.965c-2.123 0-2.847.95-2.223 2.916.519 1.634 1.826 1.873 3.125.574 1.549-1.548 1.046-3.49-.902-3.49zm13.056 10.334c-.757-.008-1.528.683-1.709 1.955-.135.95.192 2 .727 2.33 1.443.892 3.046-1.04 2.441-2.943-.287-.907-.87-1.336-1.459-1.342zm-25.636.94a4.05 4.05 0 0 0-.91.15c-1.923.503-2.27 1.955-.928 3.871 1.102 1.573 1.192 1.585 2.127.307.537-.734.974-1.873.974-2.53 0-1.278-.346-1.822-1.263-1.798zM174.792 31a2.993 2.993 0 0 0-.358.03c-1.58.228-2.344 2.05-1.634 3.9.569 1.482 1.642 1.3 2.896-.49 1.286-1.836.801-3.477-.904-3.44zm10.742 10.148c-.57-.009-1.123.224-1.46.758-.91 1.434-.78 3.829.265 4.873.727.727 1.17.586 2.217-.705.719-.888 1.208-2.293 1.09-3.121-.159-1.101-1.161-1.79-2.112-1.805zm-23.242 1.758c-.497.017-1.036.377-1.453 1.156-1.022 1.91-.321 3.729 1.316 3.418.751-.142 1.366-1.023 1.496-2.142.179-1.533-.531-2.46-1.36-2.432zm-51.93 2.527c-1.444 0-1.842.367-1.842 1.698 0 2.794 1.927 3.635 3.63 1.583 1.293-1.558.355-3.28-1.788-3.28zM93.59 49.964c-.3 0-.632.057-.994.172-1.693.538-2.016 2.518-.635 3.899 1.34 1.34 3.074.699 3.35-1.238.254-1.79-.421-2.834-1.721-2.833zm81.187 5.65c-1.255 0-2.93 2.199-2.51 3.294.528 1.375 2.01 1.37 3.157-.012.95-1.145.53-3.281-.647-3.281zM162.42 62.23a12.68 12.68 0 0 0-.99.067c-2.768.266-3.569 2.554-1.588 4.535 1.136 1.136 1.305 1.133 2.584-.024.752-.68 1.369-2.025 1.369-2.988 0-1.25-.19-1.607-1.375-1.59zm-77.18 2.838c-1.823 0-2.987 2.12-2.088 3.8 1.029 1.923 3.437 1.627 3.967-.486.552-2.197-.08-3.314-1.879-3.314zm23.375 4.377c-.483-.005-1.098.14-1.853.43-1.506.577-1.47 2.772.072 4.314 1.146 1.147 1.284 1.14 2.182-.088.527-.72.959-2.066.959-2.99 0-1.109-.438-1.657-1.36-1.666zm57.723 8.715c-2.142 0-2.437 1.749-.631 3.744 1.53 1.692 2.45 1.09 2.45-1.606 0-1.796-.292-2.138-1.82-2.138zm17.181.726c-1.836 0-2.502 1.04-1.894 2.957.677 2.135 2.844 1.468 3.125-.962.183-1.588-.068-1.995-1.23-1.995zm-89.082 5.092c-2.263 0-3.04 1.995-1.459 3.742 1.569 1.733 2.21 1.7 3.207-.162 1.107-2.068.37-3.58-1.748-3.58zm18.125 7.274c-2.232 0-2.88 1.002-1.869 2.892.989 1.847 1.925 1.868 2.89.065v-.002c1.17-2.186.906-2.955-1.02-2.955zm44.278 2.908c-1.125 0-1.861 1.839-1.31 3.273.6 1.568 1.366 1.346 2.278-.656.831-1.824.537-2.617-.968-2.617zm16.043 4.185-1.729 1.407c-1.282 1.044-1.597 1.817-1.222 2.998.567 1.788 2.426 2.133 3.029.562.217-.566.288-1.915.158-2.998zm-31.782.967c-.192 0-.424.023-.705.063-1.925.274-2.601 2.346-1.283 3.935 1.335 1.608 2.467.858 2.729-1.808.168-1.712.095-2.186-.74-2.19zm-56.261.666c-1.225 0-1.776.406-1.776 1.309 0 2.83 3.202 4.117 3.998 1.607.624-1.966-.1-2.916-2.222-2.916zm-62.239 9.455c-1.588.049-2.457 1.608-1.812 3.29.354.922.671.952 1.896.187.81-.505 1.471-1.494 1.471-2.197 0-.802-.553-1.28-1.478-1.28h-.077zm80.805 2.182c-2.527 0-3.368 1.375-2.19 3.578.93 1.737 1.085 1.778 2.987.76.807-.432 1.408-1.517 1.408-2.545 0-1.511-.346-1.793-2.205-1.793zm-69.1 4.363c-1.074 0-1.423.5-1.423 2.037 0 1.964 1.338 4.14 2.086 3.393.2-.2.452-1.503.562-2.897.165-2.098-.045-2.533-1.224-2.533zm89.85.81a4.432 4.432 0 0 0-.539.048c-1.661.237-2.45 2.026-1.726 3.912.49 1.277 1.323 1.336 2.484.176.48-.48.871-1.648.871-2.596 0-1.155-.238-1.554-1.09-1.54zm22.53 1.079c-.37.009-.775.132-1.217.369-1.805.966-1.645 3.244.324 4.623 1.5 1.051 1.712 1.043 2.549-.102.502-.686.703-1.92.447-2.742-.453-1.454-1.159-2.172-2.104-2.148zm-61.45 6.99c-.273.006-.554.123-.812.38-.931.932-.356 3.104.822 3.104.425 0 .97-.511 1.21-1.138.465-1.21-.328-2.366-1.22-2.346zm-69.103 5.666c-1.831 0-2.626 1.835-1.424 3.283 1.154 1.391 1.909 1.369 2.46-.07.811-2.112.455-3.213-1.036-3.213zm83.244.994c-.243.005-.486.155-.69.485-.61.988.1 2.884 1.082 2.884.413 0 .75-.633.75-1.41 0-1.168-.567-1.97-1.142-1.959zm-14.383 9.973c-.633-.01-1.324.303-1.947 1.055-.706.85-.73 1.536-.104 2.91.967 2.122 2.69 2.336 3.696.459 1.216-2.274-.027-4.4-1.645-4.424zm22.691 3.943c-1.09.029-1.787.495-1.943 1.307-.252 1.307 1.015 3.42 2.05 3.42.303 0 .945-.476 1.427-1.057 1.394-1.68.62-3.67-1.426-3.67h-.108zm-73.418 4.223c-.32-.002-.725.152-1.29.455-1.709.914-2.027 2.917-.676 4.268 1.22 1.219 1.867 1.092 2.738-.536.906-1.693.924-2.287.107-3.576-.258-.408-.514-.61-.879-.611zm-18.664 8.88c-.764.006-1.63.718-1.63 1.762 0 2.267 1.9 3.081 2.646 1.135h.002c.23-.6.232-1.576.004-2.17-.195-.509-.593-.729-1.021-.726zm68.606 3.645a2.27 2.27 0 0 0-1.168.358c-.796.492-.815.98-.098 2.552.731 1.605 1.072 1.788 1.957 1.053.59-.49 1.075-1.47 1.075-2.178 0-1.098-.802-1.796-1.766-1.785zm16.371 9.07c-2.571 0-3.104 1.155-1.76 3.817 1.115 2.208 1.706 2.431 3.008 1.129.48-.48.873-1.79.873-2.91 0-1.765-.283-2.035-2.121-2.035zm-78.672 7.376c-.413.017-.957.471-1.736 1.332-1.235 1.364-1.236 1.531-.04 3.357 1.121 1.71 1.378 1.8 2.352.826.765-.764.945-1.777.598-3.357-.326-1.484-.642-2.181-1.174-2.158zm19.125 1.548c-.397-.006-.843.246-1.262.813-.74 1.004-.812 1.75-.265 2.771.95 1.776 2.394 1.333 2.71-.832.242-1.65-.369-2.739-1.183-2.752zm45.211 11.622c-.928.023-1.725.707-1.725 1.832 0 1.26 1.27 3.076 2.153 3.076.224 0 .842-.696 1.373-1.547.816-1.308.795-1.716-.133-2.645-.508-.508-1.111-.73-1.668-.716zm19.725 3.613a4.1 4.1 0 0 0-1.092.207c-1.763.56-1.84 1.631-.246 3.392 1.387 1.534 3.162.623 3.162-1.623 0-1.324-.661-2.015-1.824-1.976zm-53.645 8.678c-1.52.02-1.802 1.965-.36 3.408.715.714 1.091.637 1.829-.371.51-.699.816-1.61.68-2.026-.137-.416-.96-.862-1.829-.99a2.019 2.019 0 0 0-.32-.021zm-15.101 1.345c-.794.026-1.43.452-1.43.969 0 2.227 2.354 2.433 2.78.242.158-.817-.256-1.21-1.272-1.21-.026 0-.053-.002-.078 0zm28.128 8.096c-1.309-.002-1.551 1.038-.74 3.152.7 1.824 2.817 1.016 2.817-1.076 0-1.321-.44-1.871-1.635-2.04a3.216 3.216 0 0 0-.442-.036zm45.204 4.36a1.833 1.833 0 0 0-.319.034c-1.61.317-2.78 2.309-2.219 3.774.602 1.568 1.45 1.503 3.024-.236 1.394-1.54 1.031-3.609-.486-3.573zm-25.077 1.363c-1.33.023-1.685.409-1.685 1.755 0 .967.408 1.907.908 2.086 1.278.46 2.727-.856 2.727-2.476 0-.972-.523-1.365-1.817-1.365h-.133zm-29.03 8.726c-1.697 0-2.042 2.105-.606 3.692 1.154 1.275 1.395 1.313 1.95.32.35-.623.428-1.78.177-2.572-.252-.792-.936-1.44-1.522-1.44zm44.427 4.678c-1.2-.002-2.537 1.041-2.537 2.176 0 .896 1.43 2.601 2.181 2.601.24 0 .829-.393 1.309-.873 1.244-1.243 1.079-3.256-.31-3.789a1.794 1.794 0 0 0-.643-.115zm9.783 11.322c-.884 0-1.412.5-1.412 1.334 0 2.382 1.428 2.998 2.883 1.244 1.1-1.325.386-2.578-1.47-2.578zm-25.03 12.219c-.285.004-.63.265-1.19.746-1.365 1.168-1.84 3.782-.864 4.758.798.797 2.53.217 3.379-1.131.56-.89.51-1.716-.186-3.014-.503-.94-.771-1.364-1.138-1.36zm19.122 4.21a2.238 2.238 0 0 0-.549.075c-.945.247-1.5.99-1.5 2.006 0 2.78 1.693 3.317 3.154 1 .96-1.523.299-3.083-1.105-3.08zm-8.098 20.698c-.372.014-.87.154-1.527.406-1.356.52-1.524 3.257-.277 4.504 1.106 1.107 1.454 1.095 3.097-.107.929-.68 1.082-1.14.502-1.498-.46-.285-.836-1.153-.836-1.93 0-.971-.248-1.401-.959-1.375z" fill="#fff"/>
</svg>
