<svg version="1.1" id="svg2" xml:space="preserve" width="329.928" height="260.179" xmlns="http://www.w3.org/2000/svg">
    <g id="body">
        <path id="path1406" d="M210.283 25.965c-8.204-.726-16.302-.906-24.528-1.042-12.896-.116-25.9-.1-38.852.201-20.064.383-40.236 1.86-60.055 5.364-2.693.452-5.157.988-7.744 1.744-1.246.459-2.546.748-3.838 1.055 0 0-2.699 5.474-13.028 11.17-7.79 3.523-6.073 2.991-7.664 10.96-4.21 16.754-5.084 21.572-5.084 21.572l1.052 8.771c1.593 14.731 4.437 29.28 6.786 43.897a942.852 942.852 0 0 0 7.423 43.065c3.048 14.895 5.688 29.882 7.508 44.978 1.368 9.761 1.944 19.624 3.599 29.345.222 2.603 1.196 5.059 2.454 7.328l.893 1.609c5.378.224 10.793.872 16.16.132 2.9-.397 6.215-1.346 7.717-4.092 1.218-3.074.54-6.458.442-9.666-.598-10.943-.825-21.931-1.666-32.712-1.426-14.726-2.122-29.508-2.67-44.288l4.334.229c4.026.316 8.13.092 12.174-.247l.347 3.164c1.013 10.231 2.433 20.416 3.523 30.638 1.245 10.953 1.2 22.005.61 33-.12 4.298-.56 8.805-.325 13.204-.081 1.676.492 3.445 1.945 4.409 3.146 1.761 6.756 2.497 10.288 3.044 3.372.361 6.951 1.257 10.224-.075 2.934-1.272 3.984-4.65 4.398-7.568a447.409 447.409 0 0 0 2.485-23.561c.552-7.011.973-14.048.595-21.08-.416-8.657-1.488-17.455-2.522-26.116-.436-1.737-.25-3.745 1.04-5.093 1.124-1.328 2.98-1.531 4.595-1.24 12.012.682 23.943 1.636 35.98 1.569 1.945.12 4.061-.404 6.042.135 2.762.665 4.74 3.398 4.61 6.224-.171 10.137-.963 20.252-1.646 30.365-.78 10.801-1.505 21.568-1.868 32.372-.274 2.72.478 5.693 2.678 7.469 2.342 1.859 5.369 2.64 8.293 2.986 4.071.486 8.088-.551 11.993-1.564 2.582-.696 5.123 1.636 5.239 4.184-.159 2.086.279 4.573 2.239 5.722 2.745 1.294 5.853.374 8.658-.221 4.04-1.179 8.272-.716 12.414-.941 1.444-.03 3.174-.251 3.884-1.712.908-3.236 1.14-6.638 1.46-9.978 1.234-17.402 1.584-34.858 2.788-52.286.824-13.599 2.412-27.206 1.725-40.845-.676-11.446.195-22.92 1.717-34.267.108-.46.134-.947.176-1.428l-.454-.553s3.309-21.526 5.101-34.226c1.792-12.7.203-28.502-3.813-36.433-2.967-5.856-9.307-10.323-12.434-12.268l.024.09a3436.042 3436.042 0 0 0-22.808-3.957c-4.889-.744-9.697-1.984-14.614-2.536z" fill="#000"/>
        <path id="path1408" d="M212.365 24.198c-3.609-.487-7.261-.627-10.897-.83-5.165-.254-10.501-.373-15.684-.445-13.95-.14-27.826-.084-41.738.267-18.618.446-37.244 1.852-55.612 5.002-3.615.559-7.206 1.274-10.703 2.362-.2.07-4.117.82-4.32.882l-2.186 5.387c.1.713 4.434-1.619 4.478-1.613.544.06 1.166-.127 3.852-1.033 6.425-2.166 30.417-5.38 47.043-6.3 27.873-1.546 74.027-1.354 85.247.228.594.076 1.183.187 1.763.335 1.183.33 8.777 1.697 16.877 3.037 7.547 1.25 13.939 2.44 15.527 2.862l-2.941-4.726-2.55-.446c-8.181-1.496-16.412-2.704-24.564-4.35a47.743 47.743 0 0 0-3.592-.62zm-21.078 29.84c-.895-.113-2.039 2.371-2.7 6.093-1.093 6.144.235 5.717 2.107-.679.756-2.58 1.209-4.895 1.009-5.145-.129-.164-.269-.25-.416-.27zm-33.345-3.109c-.966-.137-2.448 3.112-2.763 6.383l-.389 4.025 1.909-4.888c1.051-2.686 1.759-5.076 1.572-5.309a.517.517 0 0 0-.329-.21zm-33.478-2.106c-.377-.02-.994.428-1.774 1.388-1.214 1.494-2.083 4.84-2.171 8.356-.037 1.442.307 1.097 1.637-1.646.927-1.908 2.01-4.502 2.408-5.765.474-1.501.386-2.307-.1-2.333zm-34.926.392c-2.067-.234-5.075 5.55-5.732 11.025-.402 3.347.706 2.227 2.896-2.93.978-2.305 2.088-4.469 2.465-4.809.89-.8 1.163-3.197.37-3.286zM50.625 69.184l-1.462-5.604-4.348 2.021c.279 2.33 3.668 19.788 3.947 22.118.32 2.674.66 5.478 1.01 8.065 1.669 11.901 3.958 23.832 5.834 35.768 2.185 14.836 4.803 29.605 7.721 44.314 3.008 14.628 5.463 29.371 7.208 44.204 1.283 9.263 1.787 18.627 3.443 27.838.31 3.534 2.136 6.644 3.827 9.674l.185.343c6.305.225 12.682 1.101 18.948-.036 3.365-.637 7.082-2.315 8.281-5.784 1.035-3.459.373-7.115.265-10.651-.598-10.946-.812-21.974-1.693-32.793-1.352-13.695-1.995-27.444-2.519-41.191 2.859.14 5.72.354 8.583.247 1.316-.041 2.643-.159 4.063-.251l.541 4.966c1.011 10.23 2.561 20.366 3.472 30.616.947 10.126.728 20.314.175 30.457-.11 4.249-.548 8.509-.206 12.757.003 2.34 1.434 4.495 3.476 5.579 4.648 2.255 9.86 2.977 14.951 3.475 3.331.357 7.18-.026 9.496-2.734 2.528-2.87 2.861-6.834 3.289-10.464a427.08 427.08 0 0 0 2.54-27.176c.451-6.494.319-12.858-.158-19.349-.535-7.333-1.444-14.723-2.322-22.087-.484-1.517.38-3.484 2.119-3.558 2.499.213 5.033.321 7.551.477 11.001.653 22.016 1.42 32.89 1.165 1.632-.25 3.476-.013 4.643 1.278 1.578 1.5 1.077 3.792 1.121 5.73-.649 18.971-2.668 37.868-3.351 56.84.016 2.802-.609 5.723.523 8.4.967 2.728 3.279 4.755 5.94 5.774 4.711 2.017 10.053 2.101 14.981.889 1.414-.249 2.776-.755 4.172-.997 1.566-.079 2.595 1.518 2.467 2.964-.199 2.852 1.141 6.025 3.927 7.133 3.318 1.24 6.89.207 10.201-.525 4.08-1.068 8.236-.338 12.343-.81 2.041-.013 4.001-1.278 4.726-3.209.887-3.64 1.202-7.409 1.524-11.139 1.14-16.846 1.507-33.733 2.654-50.578.653-10.716 1.741-21.378 1.933-32.076.181-5.428-.268-10.845-.385-16.268-.084-9.951.848-19.885 2.245-29.729.031-.26.073-.486.108-.731l-3.261-3.304-1.198 6.835c-1.366 7.794-2.314 24.296-1.786 31.094.644 8.292.434 15.543-.995 34.652-.807 10.777-1.708 26.321-2.003 34.54-.773 21.517-1.826 34.879-2.812 35.664-.452.361-2.902.539-5.445.393-2.563-.146-6.844.299-9.608.999-5.491 1.392-7.752.988-8.064-1.444-.113-.881.091-8.815.452-17.629.363-8.815.664-21.132.671-27.371.008-8.171.56-15.683 1.974-26.856 1.08-8.533 1.739-15.944 1.462-16.468-.391-.74-1.372-.779-4.4-.175-4.496.898-4.299.366-4.443 11.942-.183 14.733-.328 23.448-.516 30.888-.107 4.214-.135 10.305-.064 13.533.071 3.228-.053 9.571-.276 14.093-.469 9.528-.351 9.352-7.327 10.859-3.29.709-5.558.747-8.432.132-4.718-1.007-6.666-2.471-7.361-5.532-.285-1.259.323-14.096 1.353-28.527 2.123-29.722 2.39-35.392 1.946-41.484l-.315-4.314-2.292.206c-7.117.643-20.226.468-33.326-.444-8.188-.57-16.29-.966-18.006-.878-2.692.136-3.094.372-2.946 1.73.094.866.833 7.248 1.644 14.183 2.256 19.312 2.345 26.077.592 45.249-.866 9.456-1.922 18.33-2.348 19.719-1.324 4.315-3.076 5.119-9.5 4.356-6.675-.791-11.418-2.177-12.623-3.688-.628-.788-.656-5.044-.099-14.916.882-15.629.512-26.089-1.45-41.148a846.687 846.687 0 0 1-2.296-19.655c-.518-5.089-.999-9.336-1.07-9.434-.07-.1-1.893.272-4.049.824-2.792.714-5.695.804-10.088.308l-6.168-.696.135 2.393c.073 1.316.3 6.693.504 11.949.452 11.68.914 18.668 2.002 30.235.459 4.881.976 13.667 1.148 19.523.174 5.857.535 13.257.804 16.444.27 3.188.195 6.58-.164 7.537-1.001 2.676-6.236 3.979-14.282 3.553l-6.73-.357-1.334-2.407c-.863-1.557-1.772-6.537-2.578-14.114-2.928-27.582-4.834-40.478-9.053-61.282-2.463-12.14-5.4-28.437-6.532-36.213-1.132-7.776-2.975-19.181-4.095-25.345-3.122-17.18-4.945-31.847-4.762-38.337zm53.257 7.963c-.8-.162-1.744 2.273-2.15 5.769-.798 6.913.17 7.476 1.604.93.715-3.265 1.111-6.175.878-6.467a.59.59 0 0 0-.332-.232zm77.717 10.29c-.281.008-.651.484-1.053 1.508-.84 2.139-1.42 7.662-1.046 9.946.267 1.626.418 1.46 1.184-1.328.483-1.758 1.076-4.739 1.319-6.623.288-2.23.067-3.517-.401-3.503zm29.642 15.038c-1.916-.218-3 3.768-2.04 7.509.287 1.121.646 1.924.799 1.784.152-.139.729-2.26 1.281-4.713.818-3.636.81-4.484-.04-4.58zm-77.777-8.762c-.218-.02-.505.196-.86.639-1.074 1.339-1.904 9.035-1.173 10.872 1.085 2.723 1.62 1.647 2.26-4.548.485-4.696.429-6.9-.227-6.963zM74.052 91.38c-.84-.095-1.193.833-1.568 4.153-.675 5.992.029 8.07 1.182 3.487.492-1.957 1.025-4.448 1.182-5.537.191-1.308-.08-2.022-.796-2.103zm159.384 30.576a.474.474 0 0 0-.135.011c-1.05.22-2.808 9.441-2.39 12.545.49 3.653 1.444 1.463 2.384-5.471.728-5.364.772-7.03.141-7.085zm-75.797-.043c-.153-.009-.401.286-.757.772-.68.93-1.312 2.243-1.403 2.918-.217 1.624.495 8.69.88 8.734.165.019.628-2.974 1.029-6.653.463-4.239.588-5.747.251-5.771zm30.956 11.208a.627.627 0 0 0-.325.058c-1.094.517-1.707 6.989-.906 9.552.624 1.997.719 1.813 1.454-2.827.432-2.729.66-5.44.506-6.027-.113-.438-.408-.725-.729-.756zm-94.187-9.889a.13.13 0 0 0-.064.016c-.965.455-2.566 7.888-2.213 10.264.279 1.867.37 1.775 1.184-1.168.485-1.756 1.064-4.592 1.287-6.301.21-1.603.12-2.81-.194-2.811zm29.518 11.504c-.18-.013-.45.24-.863.676-1.221 1.287-1.82 8.725-.86 10.685.643 1.315 2.14-4.926 2.091-8.717-.026-1.865-.07-2.623-.368-2.644zm119.366 17.116a.23.23 0 0 0-.139.024c-.82.386-1.309 4.186-.978 7.609l.24 2.499.852-3.198c.47-1.757.789-4.105.709-5.214-.069-.971-.363-1.678-.684-1.72zM73.107 140.985a.33.33 0 0 0-.198.08c-.223.179.307 3.294 1.18 6.92 1.817 7.552 2.753 7.6 1.323.07-.904-4.764-1.658-7.084-2.305-7.07zm136.462 28.849a.323.323 0 0 0-.098.004c-1.02.238-1.396 5.763-.539 7.916.857 2.151 1.036 1.631 1.22-3.526.1-2.78-.105-4.318-.583-4.394zm35.298 9.087c-.172-.019-.311.212-.374.764-.15 1.333.782 4.212 1.386 4.28.193.023.24-.879.106-2-.208-1.743-.741-3-1.118-3.044zm-114.853-8.767c-.723-.081-.471 6.862.354 9.728.94 3.263 1.336 2.56 1.335-2.366-.001-4.588-.611-7.24-1.689-7.362zm-44.674 4.47c-.893-.1-.882 6.429.015 9.181.957 2.936 1.288 2.295 1.287-2.496-.002-5.152-.279-6.569-1.302-6.685zm153.005 23.861c-1.321-.149-1.981 4.248-1.174 7.808.826 3.643 2.05 3.097 1.956-.869-.044-1.874.005-4.172.11-5.11.118-1.034-.234-1.754-.892-1.829zm-29.508 4.72c-.74-.084-1.298 3.757-.916 6.3.454 3.016 1.164 1.863 1.37-2.224.11-2.201-.094-4.035-.454-4.076zm-68.599-1.157c-.798-.091-2.019 8.742-1.33 9.608.786.985.906.617 1.48-4.47.327-2.89.262-5.092-.15-5.138zm-55.602 7.816c-.653-.054-.218 4.138.85 7.96.645 2.308 1.005-.372.525-3.911-.272-2.013-.859-3.825-1.305-4.029a.241.241 0 0 0-.07-.02zm153.161 21.614c-.352-.036-.662.435-.786 1.535-.283 2.509 1.581 7.984 2.081 6.112.2-.747.241-2.665.092-4.263-.189-2.042-.837-3.329-1.387-3.384z" fill="#fff"/>
    </g>
    <g id="tail">
        <path id="path10439" d="M76.918 32.9c-1.123.238-2.239.507-3.303.954-4.233 2.562-8.293 5.423-12.58 7.907-6.375 3.432-11.53 8.607-16.568 13.711-1.691 1.69-3.362 3.4-5.01 5.13-3.902 4.13-7.638 8.446-10.724 13.227a153.551 153.551 0 0 0-3.554 5.556c-4.317 7.126-8.07 14.579-11.444 22.192-3.576 8.228-6.918 16.444-9.476 25.055-1.561 5.592-3.158 11.569-1.644 17.352 2.402 6.031 5.592 6.787 8.232 12.718 3.316-2.953 6.207-.802 9.536-3.74 1.575-1.246 2.91-2.855 3.41-4.841 1.36-5.6 1.917-11.366 2.3-17.108.369-9.396.976-18.933 4.028-27.904 1.61-4.97 4.204-9.566 7.38-13.701 4.103-5.479 8.525-10.712 12.673-16.157l.33 3.98 15.407-13.45 10.661-8.454s5.628-5.63 5.102-11.17c-.327-3.426-2.134-7.854-4.756-11.257z" fill="#000"/>
        <path id="path8954" d="M75.433 31.19c-1.125.262-2.231.578-3.26 1.146-4.405 2.834-8.757 5.767-13.303 8.377-4.47 2.551-8.19 5.838-11.855 9.383-6.047 6.039-12.226 12.043-17.388 18.916-8.714 12.155-15.373 25.659-20.992 39.481-2.406 5.902-4.697 12.022-6.5 18.263-1.61 5.847-3.097 12.137-1.352 18.129 2.828 6.84 2.503 4.179 5.524 10.928 2.182 1.973 7.463 5.731 9.475 3.931 2.343-2.186 4.824-4.218 7.16-6.41 1.665-1.505 2.592-3.602 3.063-5.762 1.114-5.188 1.684-10.556 2.054-15.773.335-7.886.676-15.843 2.643-23.526 1.292-5.3 3.328-10.454 6.463-14.948 3.529-5.17 7.625-9.868 11.44-14.818l.029.356 4.35-3.798c0-.034-.003-.101 0-.136l.378-5.865-4.377 4.015c-4.52 4.144-12.782 14.117-16.28 19.656-5.026 7.953-8.1 20.437-8.387 34.053-.081 3.916-.656 10.496-1.273 14.621-.96 6.404-1.367 7.719-2.791 8.987l-1.67 1.486.407-2.885c.686-4.846 1.046-21.59.495-22.969-.433-1.085-.565-1.004-.804.497-.33 2.088-1.29 16.783-1.463 22.396-.105 3.441-.258 3.82-1.476 3.637-1.208-.18-1.353-1.498-1.29-11.773.04-6.364.194-12.298.34-13.186.146-.888-.058-1.664-.454-1.723-.394-.06-.944 1.431-1.217 3.311-.505 3.462-.772 16.726-.412 20.416.187 1.913.099 1.969-1.804 1.177-3.632-1.512-3.69-1.869-2.088-12.584.925-6.175 1.219-10.021.773-10.088-.442-.067-1.27 3.556-2.156 9.421l-1.438 9.527-1.108-2.473c-1.652-3.687-1.02-10.479 1.781-19.148 6.501-20.116 16.596-40.955 26.333-54.358 3.792-5.218 17.37-19.24 22.724-23.464 1.444-1.138 4.613-3.194 7.043-4.569 2.43-1.373 6.186-3.756 8.345-5.294 2.159-1.54 4.367-2.733 4.91-2.651.273.041 1.094-.093 2.185-.339a21.497 21.497 0 0 0-2.777-3.57z" fill="#fff"/>
    </g>
    <g id="head">
        <path id="path1400" d="M325.452 2.064c-.883-.161-1.867-.001-2.657.37-5.962 3.114-10.466 8.266-15.074 13.037-3.002 3.401-6.472 6.33-9.613 9.508-.749 1.117-2.076 1.867-3.445 1.608-2.287-.812-4.747-.961-7.151-.737-5.931.775-11.889-.078-17.831-.2-4.954.002-9.172 2.977-13.256 5.414-2.368-2.157-4.738-4.313-7.108-6.47-3.878-3.402-7.496-7.1-11.525-10.334-2.483-1.825-5.216-3.745-8.392-3.937-1.74-.292-3.404 1.248-3.3 2.99 1.201 6.366 3.199 12.52 5.203 18.67l.168.172 8.406 18.044-8.964 6.298-21.938 22.164.202 4.79 10.952 19.505 2.872-.075 14.92-35.229 3.916-3.719 2.092 7.288-.141 17.079-1.875 9.81 8.4 18.163 2.848 1.924c.291.112.536.291.762.514l.645.434.009.116c3.711 3.039 7.156 6.458 11.308 8.91.999.776 1.392 2.129 2.096 3.166 2.828 3.819 5.906 7.478 9.298 10.811 1.93 1.912 4.122 3.893 6.953 4.183 2.396.03 4.952.242 7.192-.78 1.385-1.286 3.221-2.03 5.104-2.179 2.983-.789 5.731-2.329 8.395-3.865 2.16-1.395 4.506-2.542 6.441-4.255 1.969-1.663 2.636-4.252 3.02-6.692.187-1.18.279-2.075.373-3.207.282-3.069.235-5.945.199-8.994-.311-4.091.308-8.391-1.363-12.262.215-6.298.514-12.594.727-18.893.172-7.132.38-14.277-.011-21.405a67.308 67.308 0 0 0-.58-5.56 88.139 88.139 0 0 1-1.638-10.987c1.848-3.539 3.722-7.061 5.545-10.612 4.16-8.233 8.613-16.608 9.862-25.876.167-2.357.88-4.846.007-7.137-.387-.916-1.169-1.4-2.053-1.563z" fill="#000"/>
        <path id="path1402" d="M325.025.003c-1.298-.04-2.649.333-3.757.945-6.016 3.39-10.667 8.626-15.388 13.557-2.949 3.344-6.408 6.174-9.5 9.376-.477.82-1.169.903-1.993.535-2.595-.82-5.332-.74-8.007-.475-5.361.626-10.732-.158-16.097-.28-5.01-.266-9.507 2.383-13.616 4.916-3.047-2.786-6.116-5.545-9.16-8.332-3.314-2.966-6.339-6.102-9.963-8.664-2.683-1.749-5.733-3.526-9.053-3.235-2.599.134-4.584 2.66-4.384 5.197 1.47 8.05 4.324 15.75 6.734 23.545l-.141-.019.732.782 2.16 4.17c.96.854 2.197 2.734 3.584 5.504.448.895.88 1.68 1.309 2.4-2.101 1.064-5.337 3.871-9.152 7.144-6.204 5.327-13.742 11.846-16.929 15.384-3.916 4.347-4.677 5.619-4.812 8.02-.233 4.174 1.667 9.37 5.908 16.163 4.167 6.672 6.825 9.161 8.704 8.145 3.676-1.985 9.791-14.325 13.548-27.34 1.38-4.781 3.964-10.018 5.3-10.745 1.069-.581 1.519 1.665 1.817 9.08.212 5.25-.014 7.807-.962 10.873-2.711 8.779-2.762 10.436-.508 16.274 1.141 2.956 3.258 7.322 4.705 9.702l2.628 4.327-.027.233 3.404 3.418c.047-.542.164-.916.772-.127 3.964 3.131 7.53 6.809 11.915 9.373.72 1.04 1.228 2.294 2.015 3.327 3.236 4.119 6.573 8.215 10.485 11.719 1.977 1.942 4.559 3.34 7.367 3.482 2.724-.044 5.689.158 8.122-1.292 1.122-1.246 2.8-1.665 4.416-1.766 4.327-1.362 8.27-3.72 12.075-6.152 2.381-1.32 4.621-3.106 5.821-5.612 1.2-2.868 1.498-6.027 1.75-9.1.181-2.948.149-5.664.1-8.596-.291-4.035.25-8.262-1.34-12.09.246-7.766.686-15.526.844-23.296.046-7.752.382-15.568-.851-23.253-.736-3.148-1.173-6.353-1.46-9.572 2.98-5.699 6.056-11.405 8.793-17.146 3.285-6.716 6.108-13.816 6.755-21.331.264-2.417.702-5.592-1.211-7.64-.904-1.037-2.152-1.49-3.452-1.53zm-.15 3.965c.394.008.676.16.826.47.757 1.549-.548 10.073-2.289 14.926-1.396 3.896-5.387 12.435-8.797 18.823l-2 3.748-.67-2.324c-.752-2.62-5.901-8.293-9.869-10.876-1.451-.943-2.627-1.916-2.613-2.164.014-.247 1.261-1.51 2.772-2.807 1.512-1.296 5.561-5.386 9.001-9.09 6.089-6.554 11.512-10.743 13.639-10.706zm-95.435 8.313c2.044.132 6.043 2.272 9.212 5.252 2.161 2.034 6.895 6.363 10.519 9.623 3.624 3.26 7.882 7.307 9.464 8.994 2.817 3.007 2.849 3.103 1.6 4.897-3.576 5.136-11.456 10.366-15.292 10.153-.811-.045-2.524-1.207-3.806-2.58s-3.078-4.227-3.993-6.34c-2.851-6.588-9.165-26.954-9.043-29.161.036-.632.539-.89 1.339-.837zm61.656 15.494c1.123.133 2.109.48 3.501 1.103 5.788 2.589 16.171 17.013 15.888 22.075-.05.914.3 3.088.78 4.832 1.259 4.586 1.62 15.84 1.002 31.18l-.542 13.406-5.342.673c-2.939.372-7.186 1.371-9.439 2.22-7.751 2.924-24.079 14.529-28.428 20.207-1.051 1.372-2.168 2.482-2.483 2.469-.314-.016-2.65-1.812-5.192-3.995-2.541-2.182-5.341-4.289-6.222-4.682-2.378-1.059-6.82-7.792-9.34-14.155-2.478-6.256-2.551-7.68-.694-13.324 2.688-8.167 2.067-23.06-1.11-26.641-1.244-1.403-1.516-1.45-3.34-.552-2.684 1.32-5.566 6.261-7.195 12.34-2.272 8.478-7.105 20.561-9.492 23.73l-2.268 3.01-2.668-3.648c-3.932-5.379-6.911-11.056-7.856-14.975-.743-3.084-.695-3.66.453-5.27.708-.994 7.191-6.966 14.402-13.271 5.329-4.659 11.389-10.41 13.953-13.134 2.943 4.08 6.009 4.322 12.271 1.776 4.765-1.937 8.456-5.16 11.09-9.684 2.159-3.706 2.115-4.24-.649-7.86-1.307-1.71-2.356-3.462-2.332-3.89.024-.43 1.809-1.588 3.968-2.576 3.62-1.658 4.485-1.754 11.176-1.228 3.988.313 9.296.33 11.795.036 1.933-.227 3.19-.306 4.313-.172zm6.848 22.461a.74.74 0 0 0-.251.033c-.689.222-.674.94.059 3.022 1.423 4.04 3.584 4.997 3.769 1.672.096-1.7-2.252-4.69-3.577-4.727zm-20.772 1.693c-.264-.029-.564.052-.904.238-.856.464-.911 1.221-.332 4.504 1.289 7.306 3.493 7.477 2.937.228-.256-3.334-.753-4.863-1.701-4.97zm-17.888 10.268c-1.435-.08-2.24 2.396-1.823 5.599.328 2.517.416 2.597 1.452 1.335.606-.739 1.174-2.59 1.258-4.11.106-1.917-.166-2.784-.887-2.824zm-29.004 4.378c-1.341-.108-3.02 1.961-6.175 7.382-4.497 7.73-6.214 11.752-5.544 12.984.694 1.278 3.506-2.12 8.535-10.308 4.405-7.17 5.112-8.937 3.903-9.781a1.451 1.451 0 0 0-.719-.277zm70.881 8.156c-.314-.018-.794.664-1.069 1.514-.817 2.538 1.245 5.594 2.532 3.751.543-.779-.692-5.223-1.463-5.265zM282.2 82.503c-.429-.018-.212.441.277 1.49.411.883.507 3.019.215 4.746-.603 3.549.032 3.933 3.744 2.269 1.212-.544 2.224-1.323 2.247-1.73.108-1.94-2.082-5.082-4.128-5.926-1.295-.535-2.02-.836-2.355-.85zm-9.223 1.688c-.518-.03-1.486.433-3.032 1.365-5.289 3.185-4.916 5.337.99 5.688 2.916.173 3.065.09 2.393-1.355-.395-.846-.452-2.489-.129-3.649.374-1.345.365-2.015-.222-2.05zm38.686 21.832c.308.017.51.065.581.142.672.754 1.024 14.44.504 19.604-.427 4.232-.948 6.028-2.18 7.5-1.593 1.902-12.675 8.196-14.375 8.166-.477-.01-3.032-2.103-5.674-4.654-7.31-7.054-8.352-6.298-2.747 1.992 1.733 2.566 2.948 4.846 2.699 5.068-.25.223-2.02.464-3.936.536-2.987.112-3.88-.194-6.27-2.157-3.148-2.587-11.338-12.168-11.281-13.197.179-3.208 20.432-17.103 30.332-20.808 2.896-1.084 10.193-2.32 12.347-2.192zm-13.566 15.884c-4.613-.258-5.165 1.562-1.493 4.92 2.704 2.473 4.379 3.112 4.457 1.702.024-.453-.264-2.106-.64-3.676-.533-2.22-1.048-2.876-2.324-2.946z" fill="#fff"/>
    </g>
</svg>
