<?xml version="1.0" encoding="UTF-8" standalone="no"?>
<!-- Created with Inkscape (http://www.inkscape.org/) -->

<svg
   version="1.1"
   id="svg2"
   xml:space="preserve"
   width="139.61977"
   height="354.34302"
   viewBox="0 0 139.61977 354.34302"
   sodipodi:docname="cactus_3.svg"
   inkscape:version="1.1 (c68e22c387, 2021-05-23)"
   xmlns:inkscape="http://www.inkscape.org/namespaces/inkscape"
   xmlns:sodipodi="http://sodipodi.sourceforge.net/DTD/sodipodi-0.dtd"
   xmlns="http://www.w3.org/2000/svg"
   xmlns:svg="http://www.w3.org/2000/svg"><defs
     id="defs6" /><sodipodi:namedview
     id="namedview4"
     pagecolor="#505050"
     bordercolor="#eeeeee"
     borderopacity="1"
     inkscape:pageshadow="0"
     inkscape:pageopacity="0"
     inkscape:pagecheckerboard="0"
     showgrid="false"
     inkscape:zoom="0.52394645"
     inkscape:cx="-1303.646"
     inkscape:cy="864.85465"
     inkscape:window-width="3840"
     inkscape:window-height="2066"
     inkscape:window-x="-11"
     inkscape:window-y="-11"
     inkscape:window-maximized="1"
     inkscape:current-layer="g8"
     inkscape:snap-global="false"
     inkscape:rotation="2"
     fit-margin-top="0"
     fit-margin-left="0"
     fit-margin-right="0"
     fit-margin-bottom="0" /><g
     id="g8"
     inkscape:groupmode="layer"
     inkscape:label="base"
     transform="matrix(1.3333333,0,0,-1.3333333,-1162.5739,1144.3721)"><g
       id="g10264"
       inkscape:label="cactus_2"><path
         id="path9554"
         style="fill:#000000;stroke-width:0.999998"
         d="m 908.03711,594.06641 c -1.87264,0.25886 -3.77366,0.71496 -5.43468,1.63763 -1.48763,0.87706 -2.19905,2.57685 -2.31337,4.23932 -0.22486,3.00669 0.13591,6.01951 0.17188,9.02825 0.55911,19.92924 0.51725,39.88173 1.55611,59.77952 0.26677,7.01779 0.41376,14.06886 -0.26239,21.06844 -0.1419,1.34109 -0.42468,2.66102 -0.75271,3.96754 -5.58034,3.43801 -11.9909,5.4078 -17.23472,9.40612 -2.40073,1.90469 -3.87894,4.82936 -4.73403,7.63685 -2.00557,6.00978 -3.33458,12.22304 -4.48367,18.4458 -0.34056,1.91494 -0.64265,3.89926 -0.86398,5.88428 -0.0418,0.54015 -0.14443,1.41523 -0.18289,2.08865 -0.26679,4.12808 0.54694,8.22291 0.94184,12.31798 1.03866,8.55487 2.29712,17.08739 3.99389,25.53735 1.10907,6.01728 1.96849,12.08465 2.75728,18.13864 0.52831,3.467 1.10147,7.00732 2.62013,10.19938 0.95637,1.99998 2.66707,3.67514 4.83954,4.26888 2.84547,0.91386 6.15085,0.0887 8.18467,-2.11709 3.06552,-3.11872 4.23562,-7.52314 4.98404,-11.70642 0.66634,-3.94409 0.78723,-7.96212 0.59392,-11.95198 -0.0586,-0.98098 -0.13383,-2.21881 -0.238,-3.30066 -0.47867,-6.52446 -2.37694,-12.84371 -2.89335,-19.36347 -0.60586,-6.05892 -0.79025,-12.14892 -1.29524,-18.16551 -0.29612,-3.61543 -0.2732,-7.28832 0.57313,-10.83461 0.6889,-3.14637 1.59965,-6.27679 3.00366,-9.18178 0.62794,-1.35586 2.55182,-1.59675 3.61738,-0.63054 0.77077,0.93897 2.23523,0.88615 2.88867,1.96875 2.67275,3.5466 3.58934,8.0373 4.01782,12.36768 0.73574,8.10119 1.05694,16.25291 0.65303,24.38263 -0.28926,6.74499 -0.98637,13.46203 -1.63569,20.17938 -1.06048,12.21164 -1.29788,24.6271 -1.99024,36.9336 -0.15961,2.34152 -0.0286,4.76841 0.15766,7.01034 0.53827,6.00283 1.19307,12.17968 2.36464,18.16839 0.8471,4.50945 2.42068,9.18089 5.91408,12.3412 3.08267,2.84722 7.65836,3.54747 11.63333,2.51049 2.77628,-0.57243 5.72392,-1.73478 7.22539,-4.29854 1.59774,-2.42787 2.41706,-5.28918 2.84748,-8.13032 0.43516,-0.91169 1.56261,-1.15839 2.44336,-0.78516 1.41843,0.0486 2.77718,-0.49544 4.16406,-0.72656 -0.51543,2.18361 -1.52013,4.33997 -1.33398,6.62695 0.31479,1.98764 2.07626,3.25334 3.3971,4.60447 1.25513,1.37692 3.10097,2.21289 4.97694,2.06595 1.73946,0.12415 3.67917,-0.37722 4.68336,-1.91494 1.63141,-2.19913 2.05271,-4.99854 2.5258,-7.6256 0.0876,-0.83854 0.15789,-1.67922 0.23906,-2.51855 2.9602,0.43948 6.20492,1.22688 9.02149,-0.21289 2.82326,-1.6106 4.08119,-5.02797 4.11496,-8.14179 0.008,-2.76017 -1.25165,-5.4032 -3.18074,-7.34096 -0.73685,-0.51422 -0.46695,-0.90064 0.24693,-1.23071 1.63834,-1.09967 3.36431,-2.3591 4.1626,-4.22599 0.71014,-2.1734 0.38711,-4.51434 0.0979,-6.73368 -0.32902,-1.95745 -1.0803,-4.26521 -3.13694,-4.99484 -1.25372,-0.43284 -2.58238,-0.76841 -3.90651,-0.81564 -1.96831,0.24536 -3.68727,1.35702 -5.41256,2.25691 -0.9287,0.54833 -1.77963,1.21549 -2.67116,1.82045 -1.40413,-3.12491 -2.51038,-6.67054 -5.34273,-8.83469 -2.30514,-1.65045 -5.48352,-2.05219 -8.12993,-1.04422 -1.76415,0.85325 -3.13113,2.47092 -3.86914,4.26563 -0.24365,0.84773 -0.34327,1.72954 -0.52539,2.5918 -1.2001,-0.39082 -2.38697,-1.0424 -3.6914,-0.78901 -0.78442,0.21799 -1.08319,-0.0641 -0.88589,-0.85694 0.16334,-3.62252 -0.67953,-7.18025 -1.00734,-10.77061 -0.7985,-6.46741 -1.36904,-12.93453 -2.27074,-19.37137 -0.5247,-3.66593 -0.51036,-7.38126 -0.71119,-11.07334 -0.45567,-12.07461 -0.81691,-24.15716 -0.81075,-36.24184 0.0817,-5.80927 0.13272,-11.65373 1.06655,-17.40126 0.4861,-2.21524 0.99533,-4.65811 2.75607,-6.24173 0.59423,-0.49938 1.24834,-0.92259 1.86719,-1.39062 1.47881,2.37386 2.71172,4.90736 3.46297,7.60871 2.08919,7.53238 3.03847,15.32735 3.72741,23.09655 0.56234,5.77471 0.53256,11.5938 1.169,17.36114 0.60538,4.06457 2.95248,8.09619 6.75664,9.89942 2.64299,1.28139 6.18813,1.1129 8.27461,-1.12989 1.9065,-2.15229 2.72405,-5.02642 3.30021,-7.78494 1.14633,-5.80442 1.22013,-11.88021 1.20172,-17.85057 0.054,-3.19492 -0.22139,-6.39578 -0.97001,-9.50682 -1.09206,-4.73325 -2.28248,-9.44499 -3.52369,-14.14091 -0.6904,-2.40066 -1.41542,-4.86689 -2.99681,-6.85479 -3.90607,-5.04312 -7.58302,-10.31603 -12.16963,-14.78189 -6.78527,-6.07041 -12.30594,-13.36853 -18.75652,-19.76925 -1.79597,-2.02596 -1.79519,-4.89153 -2.00736,-7.43788 -0.43346,-7.22059 -0.26878,-14.45909 -0.30845,-21.68856 0.0424,-13.0488 0.0214,-26.10233 0.4209,-39.14551 0.0973,-1.77862 0.70719,-3.82442 -0.53021,-5.35723 -1.97317,-2.6661 -5.31394,-3.75669 -8.42187,-4.43946 -2.13996,-0.30175 -4.32957,-0.22018 -6.43399,-0.76857 -0.75859,-0.10872 -1.53244,-0.1724 -2.29648,-0.0849 z"
         inkscape:label="bg" /><path
         id="path9417"
         style="fill:#ffffff;stroke-width:1.33333"
         d="m 1233.6934,33.814453 c -3.7279,0.08071 -7.4309,1.20944 -10.4258,3.474609 -4.9717,3.742441 -7.6413,9.724594 -9.0879,15.623047 -1.5325,6.724694 -2.3822,13.585914 -3.1485,20.433594 -0.503,5.498293 -1.2428,11.025154 -0.8691,16.554688 1.0668,18.785149 1.2948,37.631739 3.3477,56.349609 0.8228,8.47952 1.5153,17.11973 1.6816,25.64062 0.075,3.27592 0.048,6.7031 -0.037,9.88282 -0.2381,6.07668 -0.5412,12.13974 -1.1836,18.07031 -0.6395,4.80244 -1.7142,9.80747 -4.7168,13.73437 -0.4674,0.99724 -1.6279,0.9212 -2.4199,1.50782 -0.7411,0.24316 -1.0987,1.20667 -1.8848,1.24414 -1.0201,0.22544 -1.2265,-0.91643 -1.6074,-1.58594 -1.785,-4.30479 -3.0733,-8.82894 -3.8203,-13.42969 -0.9679,-5.78997 -0.055,-11.70171 0.25,-17.45898 0.4533,-6.54893 0.6946,-12.92776 1.4355,-19.42188 0.6689,-7.21301 2.6586,-14.2178 3.4082,-21.41797 1.0942,-9.72215 1.1883,-19.74756 -1.4414,-29.24414 -1.3825,-4.90392 -3.7636,-9.87679 -8.041,-12.87695 -3.7426,-2.610331 -8.8676,-2.818829 -12.8965,-0.74609 -3.3055,1.56708 -5.3661,4.82479 -6.5918,8.15234 -2.3849,6.73856 -2.8867,13.93275 -3.916,20.95703 -0.2509,1.85042 -0.5853,3.96952 -0.8555,5.78125 -0.6535,3.98047 -1.3104,7.95987 -2.08,11.91992 -2.1183,10.62446 -3.6002,21.36095 -4.92,32.10938 -0.5085,4.91997 -1.3496,9.83181 -1.2968,14.79102 0.3027,5.81173 1.3361,11.56233 2.4453,17.26757 1.5266,7.14911 3.0988,14.32521 5.584,21.21289 1.266,3.86492 3.5009,7.45078 6.7148,9.98828 6.7798,5.13928 15.0134,7.76275 22.2676,12.10352 0.7764,2.9646 0.9734,6.03751 1.1445,9.02148 0.4328,8.1086 0.2514,16.2761 -0.094,24.31055 -1.2594,24.00195 -1.2758,48.04539 -1.8594,72.06836 -0.1079,3.70633 -0.1462,7.2599 -0.3438,10.91797 -0.068,3.40204 -0.5214,6.91008 0.4473,10.22852 0.7284,2.64233 2.8916,4.66557 5.4375,5.56445 2.2599,0.81843 4.6285,1.47769 7.0371,1.60742 1.1214,0.0211 2.2408,-0.0975 3.3438,-0.29492 3.1937,-0.86476 6.5843,-0.34 9.7558,-1.3418 4.3143,-1.0996 8.8495,-3.08247 11.2403,-7.04687 1.5222,-2.46952 0.714,-5.43822 0.5547,-8.13477 -0.4945,-18.45237 -0.4896,-36.91478 -0.5293,-55.37305 0.069,-8.79548 -0.1366,-17.60733 0.498,-26.38671 0.273,-2.57544 0.3242,-5.51058 2.2051,-7.50782 7.8848,-7.77129 14.6454,-16.61659 22.7187,-24.20703 5.7101,-5.01401 10.301,-11.10598 14.8946,-17.11523 2.2095,-3.04444 4.8966,-5.83961 6.2675,-9.40235 1.9205,-5.08362 2.9796,-10.43673 4.375,-15.67773 1.4238,-6.03505 3.2445,-12.06267 3.3204,-18.31445 0.1258,-7.3291 0.076,-14.68453 -0.7227,-21.97852 -0.6976,-5.14007 -1.5624,-10.47434 -4.3477,-14.95117 -1.6743,-2.70824 -4.5424,-4.66023 -7.7421,-4.95117 -4.5623,-0.6024 -9.1259,1.56215 -12.1016,4.96289 -3.1619,3.43108 -4.9065,7.98657 -5.2637,12.60742 -0.5761,6.30247 -0.6465,12.6409 -1.1621,18.94922 -0.6187,8.07637 -1.5451,16.34563 -3.0859,24.42578 -1.1668,5.62103 -2.3217,11.42034 -5.3418,16.38867 -0.8123,-0.54916 -1.4474,-1.32854 -1.916,-2.18359 -1.8877,-4.07599 -2.1485,-8.65404 -2.5528,-13.06446 -0.463,-6.91529 -0.5387,-13.9976 -0.5039,-21.04492 0.1601,-14.944 0.5725,-29.89684 1.1699,-44.80664 0.2813,-4.417 0.2158,-8.87782 1.0176,-13.24414 1.1568,-8.96052 1.9963,-17.99398 3.1153,-26.91406 0.3834,-3.85355 1.2418,-7.68463 1.1171,-11.572267 0.8703,0.07055 1.7461,-0.101933 2.5508,-0.431641 0.1299,0.975078 0.4676,1.912048 0.918,2.783208 1.533,2.60104 3.7735,5.05713 6.7558,5.93164 3.538,0.9573 7.4952,0.51207 10.6934,-1.3086 4.0642,-2.37908 6.1036,-6.88373 7.8594,-11.044919 0.8822,0.647733 1.825,1.210175 2.789,1.726562 2.4572,1.22116 4.9962,2.762617 7.8321,2.679687 2.5299,-0.461865 5.2825,-0.803509 7.3574,-2.468749 2.3501,-2.087614 3.1302,-5.360394 3.5078,-8.361329 0.2843,-3.226826 0.6411,-6.741184 -0.9277,-9.71289 -1.2718,-2.004293 -3.0773,-3.67463 -5.0567,-4.972656 3.0435,-3.30812 4.5147,-7.964096 3.9004,-12.419922 -0.5674,-4.13788 -2.6036,-8.425548 -6.4004,-10.492188 -3.4224,-1.826706 -7.4993,-1.451338 -11.1894,-0.828125 -0.052,-0.730826 -0.1381,-1.457334 -0.2481,-2.18164 -0.7784,-3.88472 -1.5334,-8.113883 -4.3574,-11.097657 -1.8746,-2.141786 -4.8744,-2.662322 -7.584,-2.480468 -2.6112,-0.11788 -5.1213,1.003337 -7.0097,2.763672 -1.9607,1.967453 -4.301,3.780805 -5.3516,6.4375 -0.8796,2.568226 -0.1078,5.334282 0.6094,7.847656 -0.9422,-0.225734 -1.9242,-0.406169 -2.8946,-0.292969 -0.5267,-0.03003 -1.4126,0.657377 -1.248,-0.28125 -0.8001,-4.545053 -2.3872,-9.121276 -5.4297,-12.667969 -2.9377,-3.10356 -7.2693,-4.311258 -11.3535,-5.017578 -1.2229,-0.202663 -2.4683,-0.292528 -3.7109,-0.265625 z m 0.3691,4.003906 c 4.0185,0 9.1692,1.58919 11.252,3.472657 3.4382,3.109293 6.3857,13.147084 4.3554,14.832031 -3.3355,2.768293 -4.2283,10.786888 -1.6679,14.986328 2.0229,3.31796 1.9053,7.598272 -0.2735,9.949219 -3.687,3.978333 -4.2951,12.341224 -1.2031,16.523437 1.5222,2.05888 1.5271,2.195827 0.4316,10.615239 -0.6104,4.69136 -1.6243,13.43945 -2.2539,19.43945 -0.6294,6 -1.3008,11.36839 -1.4902,11.92969 -0.7114,2.10842 -2.116,47.61692 -1.9551,63.33984 0.2247,21.94669 1.7893,29.83343 6.5586,33.07422 3.4476,2.34277 4.797,1.56512 7.5703,-4.36133 3.809,-8.13959 6.8766,-27.22282 7.8281,-48.71094 0.4725,-10.66921 0.7741,-12.83724 2.2032,-15.82226 2.8502,-5.95354 8.0621,-8.89595 12.9004,-7.28321 4.8884,1.6295 7.5461,11.59993 7.7109,28.92383 0.1147,12.05899 0.051,12.64176 -2.6543,23.63672 -4.1399,16.82904 -4.6234,18.27794 -7.1934,21.61719 -1.3003,1.68952 -4.7059,6.12597 -7.5703,9.85742 -2.8644,3.73144 -7.0787,8.38256 -9.3652,10.33594 -2.2865,1.95336 -7.5737,7.44271 -11.7481,12.19922 -4.1743,4.75652 -9.0051,10.01444 -10.7363,11.68359 -5.0826,4.90057 -5.1431,5.50611 -5.0176,51.39844 0.06,21.8 0.343,41.43672 0.6289,43.63672 0.4847,3.72932 0.3842,4.13559 -1.4824,6.00195 -2.1951,2.19488 -7.8627,4.17969 -11.9355,4.17969 -1.43,0 -3.58,0.26997 -4.7774,0.59961 -1.1973,0.32965 -3.1593,0.37092 -4.3593,0.0918 -7.5059,-1.74568 -7.9156,-2.45954 -7.3848,-12.87695 0.2394,-4.69843 0.6166,-21.30625 0.8379,-36.90625 0.2211,-15.6 0.7217,-34.02014 1.1113,-40.93359 1.2355,-21.91943 0.5456,-38.80446 -1.6973,-41.52539 -0.4765,-0.5782 -4.872,-2.94353 -9.7675,-5.25586 -11.603,-5.48042 -14.7026,-7.67432 -17.127,-12.12891 -3.5385,-6.50144 -9.2522,-32.27922 -9.2422,-41.70312 0.01,-4.38532 3.3126,-29.96154 5.0215,-38.81641 2.4728,-12.81351 3.6824,-20.15296 4.8086,-29.18164 1.818,-14.57477 3.9484,-19.7922 8.7266,-21.36914 13.4657,-4.444099 20.161,19.71175 13.8105,49.82422 -1.1803,5.59709 -2.0938,13.16063 -2.5488,21.08984 -0.3902,6.8 -0.9161,14.65617 -1.168,17.45703 -0.2519,2.80086 -0.096,7.42137 0.3457,10.26953 0.9746,6.28138 3.8999,15.18108 5.6113,17.07227 1.5096,1.66773 5.5587,1.84141 6.8438,0.29297 0.498,-0.6 1.3404,-1.0918 1.8711,-1.0918 1.3786,0 4.4494,-4.27277 5.7851,-8.04883 1.9969,-5.64413 2.4789,-8.94624 3.2383,-22.22265 0.7804,-13.64018 0.2683,-26.35024 -1.8847,-46.81836 -0.6101,-5.8 -1.4312,-18.8918 -1.8243,-29.0918 -0.393,-10.2 -0.8889,-20.736543 -1.1015,-23.414062 -0.4057,-5.106269 1.8719,-25.570907 3.7695,-33.875 2.545,-11.136776 8.0689,-16.892579 16.209,-16.892579 z m 36.6152,1.455079 c 2.7652,-10e-7 3.4696,0.322088 4.8848,2.236328 1.7194,2.325573 3.5327,11.471392 2.4297,12.255859 -0.3218,0.22884 -1.0131,2.542578 -1.5352,5.142578 -0.522,2.6 -1.0014,4.767523 -1.0664,4.814453 -0.065,0.04693 -1.3112,0.299127 -2.7695,0.5625 -2.5335,0.457547 -2.7682,0.319885 -5.2813,-3.103515 -3.0348,-4.134307 -5.1455,-8.71476 -5.8457,-12.689453 -0.456,-2.589096 -0.2682,-3.001321 2.7305,-6 2.8422,-2.842176 3.6005,-3.21875 6.4531,-3.21875 z m -33.6347,13.316406 c -0.2113,0.0015 -0.5123,0.07152 -0.9219,0.197265 -2.0816,0.639067 -2.1929,0.776179 -1.6934,2.078125 0.5529,1.440827 2.4123,0.717074 2.8946,-1.126953 0.2144,-0.819903 0.1854,-1.151843 -0.2793,-1.148437 z m 50.3828,1.949218 c 3.8477,-0.0014 5.843,1.379479 7.3887,4.636719 1.8128,3.820107 1.5324,8.246372 -0.7305,11.511719 -1.6418,2.369147 -2.2959,2.758338 -4.5469,2.710938 -1.4456,-0.0304 -3.7738,-0.467683 -5.1738,-0.972657 -1.526,-0.550413 -2.6299,-1.47522 -2.7559,-2.308593 -0.5453,-3.607176 -0.9795,-4.596443 -2.1894,-4.980469 -1.2337,-0.39156 -1.2433,-0.671706 -0.1797,-5.072266 1.0816,-4.47524 1.2267,-4.677031 3.6719,-5.082031 1.7464,-0.289277 3.233,-0.442875 4.5156,-0.44336 z M 1256.0898,56 c 1.7645,0 5.7286,1.981681 5.7286,2.863281 0,0.3538 1.2327,2.22619 2.7402,4.16211 l 2.7422,3.519531 -1.2852,2.546875 c -0.7069,1.4 -1.2865,3.555216 -1.2871,4.791015 0,2.779069 -2.0285,3.831271 -6.1836,3.210938 -4.5298,-0.676267 -6.7159,-2.536519 -8.0859,-6.882812 -0.7483,-2.362869 -1.0266,-4.771808 -0.7383,-6.308594 C 1250.303,60.79893 1254.1709,56 1256.0898,56 Z m -31.4746,6.056641 c -0.993,0.01276 -2.0703,0.885658 -2.0703,2.021484 0,1.7044 2.7556,1.896235 3.3926,0.236328 0.2405,-0.626893 0.1225,-1.45557 -0.2637,-1.841797 -0.2937,-0.293707 -0.67,-0.421008 -1.0586,-0.416015 z m 50.4356,4.923828 c 0.9439,0.01616 1.4042,0.418045 2.1933,1.392578 2.2265,2.749506 0.5472,7.206647 -3.6269,9.623047 -2.0972,1.214048 -2.2637,1.210813 -3.8555,-0.07813 -1.5548,-1.259014 -1.6206,-1.628226 -0.9863,-5.632813 L 1269.4551,68 l 3.1992,-0.671875 c 1.0899,-0.22882 1.8301,-0.357356 2.3965,-0.347656 z m -35.043,0.746093 c -0.4174,0.0082 -1.032,0.487327 -1.8848,1.429688 -1.3472,1.48872 -1.3485,1.542278 -0.01,2.523438 1.7988,1.315253 2.6114,0.722556 2.6114,-1.904297 0,-1.381786 -0.2151,-2.058734 -0.7188,-2.048829 z m -11,6.154297 c -0.1912,-0.0011 -0.4089,0.02822 -0.6445,0.08984 -1.6125,0.42168 -1.9647,2.095651 -0.5449,2.587891 0.968,0.335613 1.9698,-0.73702 1.9882,-2.126953 0,-0.348201 -0.3102,-0.547844 -0.7988,-0.550782 z m 51.832,1.150391 2.6719,1.115234 c 1.469,0.614067 4.2693,1.142145 6.2227,1.171875 2.9506,0.04493 3.9659,0.444842 6,2.363282 2.2197,2.093466 2.4472,2.693174 2.4472,6.427734 0,2.265613 -0.4693,5.242314 -1.0429,6.615234 -1.0104,2.41796 -1.3931,2.634497 -6.3477,3.597657 -0.6645,0.1292 -3.1176,-0.817882 -5.4531,-2.105469 -4.5543,-2.510853 -5.4803,-3.81379 -7.041,-9.912109 -0.9648,-3.769802 -0.9346,-4.017637 0.7715,-6.595704 z m -18.8671,4.429688 c 2.3989,-0.03691 4.316,0.123571 4.58,0.550781 0.2194,0.355053 -0.4196,1.560287 -1.4199,2.679687 -1.0002,1.1194 -3.3353,4.091636 -5.1894,6.603516 -2.9525,3.999746 -6.251,6.729222 -8.0899,6.695312 -0.3199,-0.0053 -1.3984,-0.422488 -2.3984,-0.925781 -1.3892,-0.6992 -1.8726,-1.583947 -2.0508,-3.75 -0.3013,-3.663986 1.7,-8.869765 3.9883,-10.369141 1.2451,-0.815824 6.5819,-1.422854 10.5801,-1.484374 z m 12.6972,2.314453 1.3516,5.111328 c 1.5843,5.988893 1.5748,6.105515 -0.9707,11.232422 -2.3153,4.663029 -5.0943,6.601469 -9.4707,6.605469 -2.5105,0.003 -3.5756,-0.42707 -5.2715,-2.12305 -1.1692,-1.16922 -2.127,-2.81794 -2.127,-3.66406 0,-1.611213 7.5502,-13.346297 9.9082,-15.400391 0.7511,-0.654213 2.5386,-1.316836 3.9727,-1.474609 z m -52.4707,3.255859 c -0.6161,0.0052 -1.1074,0.405917 -1.1074,1.318359 0,1.59692 1.3296,3.105469 2.7383,3.105469 0.655,0 0.9154,-0.68168 0.7637,-2 -0.17,-1.477019 -1.4334,-2.431937 -2.3946,-2.423828 z m 15.4336,5.191406 c -0.2046,0.01856 -0.4729,0.349986 -0.957,1.007813 -0.5714,0.776453 -1.0391,1.839721 -1.0391,2.363281 0,1.313733 2.132,1.202101 2.6465,-0.138672 0.2303,-0.6 0.1952,-1.663281 -0.076,-2.363281 -0.2299,-0.593053 -0.3696,-0.887697 -0.5742,-0.869141 z m -11.4609,11.748044 c -0.273,0.006 -0.5563,0.12271 -0.8145,0.38086 -0.9309,0.93094 -0.3538,3.10352 0.8242,3.10352 0.4251,0 0.9704,-0.51375 1.211,-1.14063 0.464,-1.20939 -0.3291,-2.36347 -1.2207,-2.34375 z m 10.5332,10.75586 c -1.3148,0 -2.1255,1.73016 -1.5332,3.27344 0.5461,1.42303 1.6476,1.39419 2.2051,-0.0586 0.7522,-1.96028 0.4905,-3.21485 -0.6719,-3.21485 z m -51.6485,1.45508 c -1.2182,0 -2.0133,1.22137 -1.4199,2.18164 0.4968,0.80372 2.0601,0.97116 2.7383,0.29297 0.694,-0.69404 -0.2546,-2.47461 -1.3184,-2.47461 z m 41.5801,0.36914 c -0.1426,-0.005 -0.3589,0.16571 -0.6777,0.48828 -1.2918,1.30715 -2.0575,3.48609 -1.5274,4.34375 0.6311,1.02108 2.4279,-1.62648 2.4551,-3.61719 0.011,-0.82822 -0.042,-1.20815 -0.25,-1.21484 z M 1192.3281,120 c -1.4553,0 -2.1108,1.52731 -0.9668,2.25195 1.1936,0.75599 1.7021,0.80579 2.2852,0.22266 0.694,-0.69405 -0.2546,-2.47461 -1.3184,-2.47461 z m 40.9551,8.42188 c -0.1464,0.005 -0.3,0.0282 -0.4609,0.0703 -1.832,0.47909 -2.559,2.29241 -1.4532,3.625 0.9907,1.1937 2.0564,0.9814 3.0586,-0.60742 0.9613,-1.52385 0.2707,-3.13357 -1.1445,-3.08789 z m -38.3965,1.33398 c -0.4015,10e-4 -0.8791,0.13121 -1.4004,0.41016 -1.2663,0.67772 -1.4088,1.05084 -0.7168,1.88476 1.1567,1.39373 2.605,1.31559 3.1758,-0.17187 0.4968,-1.29447 -0.033,-2.12622 -1.0586,-2.12305 z m -9.3281,1.89453 c -0.4523,0.005 -0.8861,0.21406 -1.1582,0.6543 -0.5986,0.96849 1.8391,3.20187 2.6308,2.41015 0.3589,-0.35882 0.4435,-1.19834 0.1876,-1.86523 -0.2985,-0.77773 -0.9991,-1.2067 -1.6602,-1.19922 z m 35.4687,5.08008 c -0.4517,0.0304 -0.6119,0.74168 -0.2168,1.77148 0.3788,0.98695 0.61,1.05045 1.0782,0.29297 0.3277,-0.5302 0.2888,-1.27176 -0.088,-1.64844 -0.3012,-0.30121 -0.5681,-0.42984 -0.7735,-0.41601 z m 9.42,3.81445 c -0.059,0.002 -0.1175,0.0105 -0.1739,0.0293 -1.2235,0.40732 -1.4672,2.80119 -0.3554,3.48828 1.2072,0.74613 2.2648,-0.92415 1.6308,-2.57617 -0.2187,-0.56988 -0.6865,-0.95453 -1.1015,-0.94141 z m -37.6328,3.29883 c -0.1369,-1.8e-4 -0.287,0.0146 -0.4512,0.043 -1.8957,0.32707 -2.0826,0.5554 -1.5664,1.90039 0.2368,0.61724 1.1186,1.12109 1.959,1.12109 1.1685,0 1.4726,-0.3833 1.2949,-1.63476 -0.1417,-0.99748 -0.4975,-1.4287 -1.2363,-1.42969 z m -13.5547,4.03516 c -0.21,0.006 -0.3496,0.16339 -0.3496,0.4414 0,0.42362 0.3265,0.77149 0.7265,0.77149 0.4,0 0.7266,-0.14587 0.7266,-0.32227 0,-0.17639 -0.3266,-0.52232 -0.7266,-0.76953 -0.1375,-0.085 -0.267,-0.12408 -0.3769,-0.12109 z m 58.9531,1.54101 c -0.1225,-0.003 -0.2546,0.008 -0.3965,0.0352 -2.9646,0.57093 -3.7786,2.11009 -2.0352,3.85351 1.21,1.20999 2.5259,1.09061 3.0508,-0.27734 0.8315,-2.16669 0.5649,-3.58181 -0.6191,-3.61133 z m -49.2246,4.99219 c -0.4553,0.002 -1.026,0.26721 -1.7344,0.78516 -1.3892,1.01586 -1.3916,1.0626 -0.041,2.55468 2.083,2.30176 3.4686,1.96095 3.1973,-0.78711 -0.1705,-1.72589 -0.6104,-2.55683 -1.4219,-2.55273 z m 36.082,0.49609 c -1.9451,0 -2.8429,1.03191 -2.248,2.58203 0.4971,1.29554 2.3433,1.38213 3.1152,0.14649 1.1201,-1.79305 0.8231,-2.72852 -0.8672,-2.72852 z m -46.1601,2.1836 c -1.6486,0 -1.8643,0.75298 -0.5821,2.03515 1.2822,1.28218 2.0352,1.06648 2.0352,-0.58203 0,-0.96969 -0.4835,-1.45312 -1.4531,-1.45312 z m 52.2578,6.80273 c -0.1639,0.004 -0.3181,0.0313 -0.459,0.0859 -1.1577,0.44887 -1.1451,0.56626 0.1582,1.52539 1.5552,1.14451 2.12,1.26479 2.7949,0.58984 0.7382,-0.73815 -1.1598,-2.23563 -2.4941,-2.20117 z m 42.6152,4.83203 c -1.2777,0 -2.0125,1.25983 -1.5059,2.58008 0.4967,1.2942 2.3936,1.39422 2.8282,0.14844 0.4656,-1.3348 -0.2098,-2.72852 -1.3223,-2.72852 z m -86.9082,4.39063 c -0.2651,0.0157 -0.588,0.28349 -1.1172,0.8125 -0.6617,0.66161 -0.9701,1.58048 -0.6855,2.04101 0.5987,0.96882 2.6976,0.73805 3.0371,-0.33398 0.1266,-0.4 -0.08,-1.21836 -0.459,-1.81836 -0.3031,-0.47975 -0.5103,-0.71686 -0.7754,-0.70117 z m 38.2344,2.83593 c -0.5743,0.004 -1.1452,0.24364 -1.4727,0.77344 -0.6715,1.08651 0.2631,2.18164 1.8613,2.18164 0.9268,0 1.4122,-0.49818 1.4122,-1.45312 0,-0.94002 -0.9049,-1.50849 -1.8008,-1.50196 z m -47.4063,0.32618 c -0.078,0.003 -0.1605,0.0299 -0.248,0.084 -0.4,0.24723 -0.7285,0.75837 -0.7285,1.13477 0,0.37638 0.3285,0.68359 0.7285,0.68359 0.4,0 0.7265,-0.50921 0.7265,-1.13281 0,-0.4872 -0.2004,-0.78187 -0.4785,-0.76953 z m 96.0977,3.67187 c -0.9001,0.01 -1.9403,1.05053 -1.4863,1.78516 0.7216,1.16757 2.5957,0.99584 2.5957,-0.23828 0,-0.5764 -0.2611,-1.20904 -0.5801,-1.40625 -0.1599,-0.0988 -0.3425,-0.14262 -0.5293,-0.14063 z m -86.7774,6.22656 c -0.441,0.003 -0.8961,0.23058 -1.205,0.73047 -0.6088,0.98499 0.2132,2.1836 1.498,2.1836 0.5764,0 1.0469,-0.65508 1.0469,-1.45508 0,-0.91752 -0.6519,-1.46313 -1.3399,-1.45899 z m 48.5391,1.45899 c -1.5541,0.0435 -1.8252,1.44626 -0.5078,2.76367 1.3557,1.35572 2.0371,1.03985 2.0371,-0.94531 0,-1.33334 -0.3884,-1.81836 -1.4551,-1.81836 -0.025,0 -0.05,-6.9e-4 -0.074,0 z m 42.9043,3.12695 c -0.3773,-0.002 -0.8285,0.14904 -1.3281,0.46485 -0.8751,0.55317 -0.8885,0.85096 -0.074,1.83203 1.2053,1.45232 2.5722,1.08133 2.5722,-0.69727 0,-1.03595 -0.4496,-1.59632 -1.1699,-1.59961 z m -102.8848,1.53516 c -0.9349,0.0101 -1.9095,1.18297 -1.5293,2.17383 0.6306,1.64334 2.6739,1.45362 2.6739,-0.24805 0,-0.77639 -0.2611,-1.57232 -0.5801,-1.76953 -0.1781,-0.11008 -0.3704,-0.15834 -0.5645,-0.15625 z m 92.4297,4.46094 c -0.4131,0.0112 -0.9331,0.24838 -1.541,0.71875 -1.355,1.04836 -1.355,1.0864 0,2.13476 1.6212,1.25431 2.6211,0.84654 2.6211,-1.06836 0,-1.19681 -0.3916,-1.80383 -1.0801,-1.78515 z m -39.7383,0.33203 c -0.91,0.0293 -1.3632,0.51373 -1.3632,1.45312 0,0.9697 0.4834,1.45508 1.4531,1.45508 0.9696,0 1.4551,-0.48538 1.4551,-1.45508 0,-0.96969 -0.4855,-1.45312 -1.4551,-1.45312 -0.03,0 -0.061,-9.5e-4 -0.09,0 z m -40.4414,6.15039 c -0.3061,0.004 -0.6692,0.21658 -1.2304,0.62695 -0.8523,0.62319 -1.2069,1.46961 -0.9239,2.20703 0.5605,1.46034 3.1085,1.58309 3.6485,0.17578 0.2153,-0.56112 0,-1.55437 -0.4746,-2.20703 -0.3993,-0.546 -0.6726,-0.80779 -1.0196,-0.80273 z m 87.2832,2.91601 c -0.3005,-0.005 -0.6493,0.18612 -1.164,0.5625 -0.8233,0.602 -1.1261,1.41545 -0.8223,2.20703 0.5781,1.50667 2.9216,1.66526 3.4707,0.23438 0.2154,-0.56112 -3e-4,-1.55438 -0.4766,-2.20703 -0.3882,-0.53097 -0.6672,-0.79086 -1.0078,-0.79688 z m -98.1777,4.12305 c -0.3831,0.0133 -0.7639,0.16426 -1.082,0.48242 -1.1313,1.13123 -0.1392,3.05469 1.5761,3.05469 1.0002,0 1.4786,-0.47644 1.4786,-1.47656 0,-1.23291 -0.9938,-2.09449 -1.9727,-2.06055 z m 51.9551,0.0879 c -0.1618,0.004 -0.3176,0.0454 -0.459,0.13281 -0.8783,0.54279 -1.0761,2.795 -0.3125,3.5586 0.8714,0.87141 2.4604,0.51006 2.9101,-0.66211 0.4612,-1.20167 -1.0062,-3.05378 -2.1386,-3.0293 z m 35.4629,8.19141 c -0.3935,0.005 -0.8837,0.21004 -1.4512,0.625 -1.5361,1.12329 -0.883,2.63281 1.1387,2.63281 0.9125,0 1.4121,-0.49964 1.4121,-1.41211 0,-1.22416 -0.3982,-1.85412 -1.0996,-1.8457 z m -46.6524,1.76172 c -0.3201,0.009 -0.6963,0.29196 -0.8672,0.80468 -0.16,0.48 0.1021,0.74203 0.5821,0.58203 0.48,-0.16 0.8484,-0.52836 0.8183,-0.81836 -0.041,-0.39403 -0.2679,-0.57556 -0.5332,-0.56835 z m -22.1093,1.49609 c -1.9819,0 -2.4454,1.36449 -1.0059,2.95508 1.4777,1.63278 2.2574,1.77826 2.6875,0.5 0.5526,-1.64238 -0.3298,-3.45508 -1.6816,-3.45508 z m -16.375,2.48047 c -0.9349,0.0101 -1.9096,1.18297 -1.5293,2.17383 0.6306,1.64334 2.6738,1.4536 2.6738,-0.24805 0,-0.7764 -0.261,-1.57232 -0.5801,-1.76953 -0.1781,-0.11008 -0.3704,-0.15834 -0.5644,-0.15625 z m 91.2714,0.79297 c -0.5703,0.0342 -1.1292,0.59336 -1.2597,1.27148 -0.172,0.89297 0.2191,1.27344 1.3144,1.27344 1.0954,0 1.4884,-0.38047 1.3164,-1.27344 -0.1347,-0.7 -0.7274,-1.27148 -1.3164,-1.27148 -0.018,0 -0.036,-0.001 -0.055,0 z m -44.3711,1.90039 c -0.5135,0.0115 -0.7885,0.58467 -0.3242,1.33593 0.2677,0.43314 0.8213,0.57981 1.2285,0.32813 0.4968,-0.30699 0.4831,-0.71207 -0.039,-1.23437 -0.3063,-0.30629 -0.6145,-0.43531 -0.8653,-0.42969 z m -16.5546,3.69531 c -0.4445,0.005 -0.9268,0.1534 -1.4063,0.46289 -1.4521,0.93729 -0.2162,3.03125 1.7891,3.03125 1.4392,0 1.7453,-0.31991 1.5586,-1.62891 -0.1704,-1.1943 -0.9637,-1.8766 -1.9414,-1.86523 z m -11.4688,3.57227 c -0.5616,0.0118 -1.1888,0.35917 -1.7969,1.09179 -0.8247,0.99375 -0.7621,1.32163 0.4141,2.18164 1.7821,1.30311 3.2871,1.29398 3.2871,-0.0195 0,-2.07678 -0.8321,-3.2765 -1.9043,-3.2539 z m 36.9199,1.16406 c -0.349,0.002 -0.7573,0.16488 -1.2129,0.49805 -1.176,0.85997 -1.2388,1.18789 -0.414,2.18164 1.2864,1.55002 2.9788,1.49073 2.9648,-0.10352 -0.015,-1.68079 -0.5113,-2.58024 -1.3379,-2.57617 z m 26.9141,1.30273 c -0.28,0.0111 -0.6401,0.22807 -1.207,0.64258 -1.1849,0.86641 -1.2489,1.19539 -0.4239,2.18945 1.2026,1.44903 2.1676,1.49124 2.6934,0.1211 0.2209,-0.57571 0.1153,-1.55925 -0.2363,-2.1875 -0.2946,-0.52643 -0.5088,-0.77823 -0.8262,-0.76563 z m -8.5332,9.13086 c -0.4455,-0.006 -1.0111,0.1992 -1.6836,0.625 -1.3999,0.88644 -0.449,2.97266 1.3555,2.97266 1.091,0 1.4765,-0.47565 1.4765,-1.81836 0,-1.16586 -0.4059,-1.76856 -1.1484,-1.7793 z m -37.1094,3.17383 c -0.1637,0.005 -0.3278,0.0361 -0.4883,0.0977 -1.6324,0.62642 -1.6184,3.03281 0.02,3.46093 2.116,0.55298 2.1943,0.53673 2.5996,-0.51953 0.5281,-1.37629 -0.7979,-3.08042 -2.1309,-3.03906 z m 15.002,4.28516 c -0.3053,-0.006 -0.6529,0.064 -1.0411,0.21289 -1.3776,0.52866 -1.5303,2.19937 -0.248,2.71679 1.8471,0.74532 2.7266,0.44548 2.7266,-0.92968 0,-1.28519 -0.5218,-1.98318 -1.4375,-2 z m 8.2578,3.79297 c -0.275,0.007 -0.6026,0.13187 -1.0313,0.36132 -1.7665,0.94542 -1.8371,2.58125 -0.1523,3.5625 1.7474,1.01779 2.1388,0.96348 2.6465,-0.35937 0.2413,-0.62898 0.099,-1.7786 -0.3164,-2.55469 -0.379,-0.70807 -0.6883,-1.02209 -1.1465,-1.00976 z m -28.2364,5.5957 c -0.792,0.0221 -1.5526,0.63227 -1.7089,1.7207 -0.2866,1.99468 2.8888,3.62668 3.58,1.83984 0.2498,-0.64565 0.1463,-1.76805 -0.2304,-2.49218 -0.3887,-0.74714 -1.0246,-1.08552 -1.6407,-1.06836 z m 14.5508,7.83984 c -1.215,0 -2.0362,1.03808 -1.3574,1.7168 0.8692,0.8692 2.4063,0.47044 2.4063,-0.625 0,-0.6 -0.4724,-1.0918 -1.0489,-1.0918 z m -11.6445,11.63672 c -2.5251,0 -3.3691,2.74418 -1.4375,4.67578 1.519,1.51898 2.3001,1.44003 2.8477,-0.28515 0.393,-1.23824 -0.6191,-4.39063 -1.4102,-4.39063 z m 8.3164,17.12695 c -0.1235,0.002 -0.2463,0.0235 -0.3633,0.0684 -1.2974,0.49788 -1.3954,1.83314 -0.2226,3.00586 1.3318,1.33186 2.9587,-0.32796 2.0273,-2.06836 -0.3395,-0.63449 -0.9063,-1.01415 -1.4414,-1.00586 z m -8.6289,10.03125 c -0.4233,0.0189 -0.9132,0.27833 -1.4277,0.80078 -1.1197,1.1369 -1.1051,1.29353 0.2089,2.26758 1.9923,1.47672 2.5879,1.30915 2.5879,-0.72851 0,-1.53795 -0.5611,-2.37585 -1.3691,-2.33985 z m 7.4395,13.96289 c -0.2827,0.009 -0.6004,0.13167 -1.004,0.34766 -1.7728,0.94876 -1.86,3.29982 -0.1582,4.29102 1.8426,1.07321 2.8737,0.94907 3.3946,-0.40821 0.2518,-0.65636 -0.053,-1.96951 -0.6758,-2.91992 -0.6102,-0.93122 -1.0171,-1.32711 -1.5566,-1.31055 z m 2.6542,16.33399 c -0.9518,0.0403 -1.6099,1.33695 -1.0878,2.18164 0.76,1.22985 1.8164,0.8073 1.8164,-0.72656 0,-0.8 -0.3072,-1.45508 -0.6836,-1.45508 -0.015,0 -0.03,-6.4e-4 -0.045,0 z m -7.789,2.28125 c -0.3831,0.0133 -0.7639,0.16426 -1.082,0.48242 -1.1313,1.13124 -0.1373,3.05469 1.5781,3.05469 1.0001,0 1.4765,-0.4784 1.4765,-1.47852 0,-1.2329 -0.9937,-2.09253 -1.9726,-2.05859 z m -4.6055,10.89453 c -0.2338,3.9e-4 -0.4686,0.14252 -0.7422,0.41211 -0.48,0.47312 -0.676,1.37312 -0.4355,2 0.4678,1.21888 2.329,1.54516 2.9629,0.51953 0.2107,-0.34107 -0.075,-1.24107 -0.6348,-2 -0.4666,-0.63205 -0.8086,-0.93221 -1.1504,-0.93164 z m 13.043,9.58203 c -0.3283,0.008 -0.7163,0.16166 -1.25,0.44727 -1.9682,1.05337 -1.9841,1.84396 -0.078,3.75 1.7339,1.73396 3.1353,1.54031 3.4355,-0.47266 0.1152,-0.77159 -0.2364,-2.01397 -0.7832,-2.76172 -0.4911,-0.67166 -0.8444,-0.97445 -1.3242,-0.96289 z m -11.9141,5.64453 c -0.9517,-0.003 -1.9866,0.37336 -2.6152,1.13086 -0.8247,0.99375 -0.764,1.32162 0.4121,2.18164 1.7481,1.27823 2.8866,1.28233 3.9395,0.0137 0.4558,-0.5493 0.6246,-1.53093 0.375,-2.18164 -0.2918,-0.76012 -1.1596,-1.14182 -2.1114,-1.14453 z"
         transform="matrix(0.75000002,0,0,-0.75000002,0,883.63645)"
         inkscape:label="mask" /></g></g></svg>
