<?xml version="1.0" encoding="UTF-8" standalone="no"?>
<!-- Created with Inkscape (http://www.inkscape.org/) -->

<svg
   version="1.1"
   id="svg2"
   xml:space="preserve"
   width="200.79773"
   height="301.70386"
   viewBox="0 0 200.79773 301.70386"
   sodipodi:docname="cactus_2.svg"
   inkscape:version="1.1 (c68e22c387, 2021-05-23)"
   xmlns:inkscape="http://www.inkscape.org/namespaces/inkscape"
   xmlns:sodipodi="http://sodipodi.sourceforge.net/DTD/sodipodi-0.dtd"
   xmlns="http://www.w3.org/2000/svg"
   xmlns:svg="http://www.w3.org/2000/svg"><defs
     id="defs6" /><sodipodi:namedview
     id="namedview4"
     pagecolor="#505050"
     bordercolor="#eeeeee"
     borderopacity="1"
     inkscape:pageshadow="0"
     inkscape:pageopacity="0"
     inkscape:pagecheckerboard="0"
     showgrid="false"
     inkscape:zoom="1.0478929"
     inkscape:cx="569.63821"
     inkscape:cy="405.82716"
     inkscape:window-width="3840"
     inkscape:window-height="2066"
     inkscape:window-x="-11"
     inkscape:window-y="-11"
     inkscape:window-maximized="1"
     inkscape:current-layer="g8"
     inkscape:snap-global="false"
     inkscape:rotation="2"
     fit-margin-top="0"
     fit-margin-left="0"
     fit-margin-right="0"
     fit-margin-bottom="0" /><g
     id="g8"
     inkscape:groupmode="layer"
     inkscape:label="base"
     transform="matrix(1.3333333,0,0,-1.3333333,-97.185283,1057.6313)"><g
       id="g7911"
       transform="translate(-163.72073,-65.032808)"
       inkscape:label="cactus_2"><path
         id="path3161"
         style="fill:#000000;stroke-width:0.999998"
         d="m 304.44141,633.49414 c -3.15453,0.0833 -6.22701,1.3572 -8.65235,3.34766 -1.15737,0.89227 -1.73628,2.27845 -1.97373,3.68421 -1.06984,5.43949 -1.09967,11.0107 -1.28621,16.5318 -0.0824,5.76039 -0.24072,11.53406 0.15643,17.28594 0.0683,0.4485 0.21494,0.91114 -0.38108,0.6539 -2.35385,-0.31681 -4.75213,-0.83467 -7.12869,-0.4664 -2.56114,0.55811 -4.87638,1.86318 -7.23903,2.95045 -7.32231,3.5425 -14.05156,8.29997 -19.79167,14.06657 -2.68095,2.61858 -5.43039,5.29398 -7.11219,8.69747 -5.00059,9.57102 -8.47675,19.89382 -10.81417,30.42114 -1.76603,8.15139 -2.75868,16.58647 -1.65005,24.90222 0.88209,6.91982 2.31238,13.75607 3.75827,20.57527 0.94783,3.97355 1.80586,8.06659 3.84125,11.65335 1.63973,2.94563 4.83255,4.9151 8.20148,5.05007 4.78132,0.26142 9.30233,-2.17642 12.69478,-5.38099 1.98503,-1.85134 4.17428,-3.77575 4.8849,-6.51022 0.94245,-3.46528 0.80225,-7.10032 0.91154,-10.65853 0.10349,-8.73325 -0.0931,-17.47379 0.3126,-26.20095 0.17911,-4.13526 0.90493,-8.24148 2.235,-12.1639 1.11151,-3.70684 2.73747,-7.42947 4.66215,-10.86381 1.44936,-2.50377 2.91568,-5.08887 5.06319,-7.06726 1.51735,-1.23179 2.89919,-2.69775 4.64547,-3.60369 0.42349,0.45016 0.33437,1.21842 0.46414,1.79937 0.31924,3.64372 0.51547,7.29977 0.99429,10.92896 0.2835,2.37678 0.72151,4.89646 0.78375,7.19159 0.32117,8.47744 -0.0413,16.97041 -0.35454,25.42068 -0.55835,14.26206 -1.78269,28.52965 -1.12153,42.8102 0.25109,5.57824 1.48572,11.05121 2.69079,16.48495 1.07361,4.40773 2.12083,8.85462 3.848,13.0613 1.64337,3.51754 3.78875,7.00419 7.05447,9.22873 2.16597,1.46727 4.88681,1.44162 7.39542,1.64189 3.37672,0.11163 6.90272,0.20437 10.05912,-1.19656 2.44989,-0.89766 4.80289,-2.38358 6.10196,-4.71617 1.5055,-2.59278 2.39124,-5.4885 3.27528,-8.33674 0.91269,-3.55493 0.7362,-7.26383 0.84199,-10.90208 0.0969,-9.48614 0.13594,-18.97281 0.21686,-28.45909 3.96615,0.38454 7.59633,2.4489 10.54696,5.04037 1.43632,1.28392 2.61122,2.82457 3.73624,4.37955 0.43021,0.61964 1.00292,1.49328 1.41546,2.25759 2.84731,5.05813 3.25495,11.00134 3.49094,16.67782 0.20902,5.9863 -0.0393,12.15992 0.0838,18.21889 0.0777,4.25743 0.44961,8.60853 2.18913,12.54993 0.93339,2.33581 2.10181,4.60251 3.80697,6.47546 2.28093,2.53046 5.03626,5.03086 8.52785,5.57367 3.71455,0.59362 7.82376,0.0652 10.85747,-2.30573 3.09959,-2.40142 5.69352,-5.50697 7.40046,-9.04332 1.13786,-2.37384 1.5557,-5.0088 1.57045,-7.62266 0.10516,-5.87613 0.056,-11.75607 -0.0471,-17.63229 -0.0964,-5.34428 -0.59262,-10.6987 -1.8804,-15.89703 -1.10412,-4.56122 -2.26058,-9.11396 -3.62204,-13.60584 -0.77746,-2.65375 -2.21022,-5.05918 -3.98175,-7.16715 -3.97102,-5.00892 -8.11138,-10.02464 -13.41986,-13.68112 -4.14923,-2.90781 -8.5557,-5.43326 -12.99412,-7.86904 -3.23524,-1.79469 -6.85802,-2.66061 -10.44965,-3.41122 -3.55618,-0.83067 -7.132,-1.91467 -10.24251,-3.87538 -0.53914,-0.38958 -1.22139,-0.80648 -1.15552,-1.5685 -0.56977,-5.88402 -0.40286,-11.80777 -0.56488,-17.71089 -0.13062,-8.95028 -0.47511,-17.89592 -0.62118,-26.84558 -0.10438,-5.6759 0.49265,-11.3342 1.10929,-16.93154 1.02719,-8.99374 1.58448,-18.03961 1.61101,-27.09265 0.0281,-5.69498 0.16324,-11.39065 0.12323,-17.08522 -0.0317,-2.1684 -0.71088,-4.42173 -2.3699,-5.90306 -2.03196,-1.86257 -4.47174,-3.2135 -6.86798,-4.54595 -2.27773,-1.26849 -4.89445,-1.57866 -7.43939,-1.87289 -1.46413,-0.19946 -2.92163,-0.49129 -4.28953,-1.0531 -1.34015,-0.33711 -2.73756,-0.36051 -4.11132,-0.31445 z"
         inkscape:label="bg" /><path
         id="path7695"
         style="fill:#ffffff;stroke-width:1.33333"
         d="m 490.98438,33.845703 c -0.69691,0.01517 -1.39351,0.06201 -2.08204,0.138672 -4.73714,0.29436 -8.90883,3.011507 -12.15429,6.314453 -2.93924,2.792987 -5.22882,6.213918 -6.7793,9.955078 -2.07369,4.454587 -3.09157,9.362679 -3.38477,14.265625 -0.70452,12.809253 0.58941,25.704853 -1.07031,38.464849 -0.19321,1.2681 -0.49009,2.97171 -0.85742,4.38085 -1.17519,5.11168 -3.96069,9.69217 -7.38867,13.60547 -3.35498,3.66082 -7.71666,6.55094 -12.57813,7.71875 -0.082,-10.98181 -0.15,-21.96364 -0.25,-32.945309 -0.15821,-5.5646 0.17065,-11.203421 -0.97265,-16.6875 -1.05004,-3.91152 -2.32297,-7.799169 -4.15625,-11.421875 -1.74427,-3.785854 -5.17697,-6.548364 -9.01367,-8.029297 -4.16255,-1.965 -8.84629,-2.248904 -13.37696,-2.091797 -3.80894,0.207027 -7.82594,0.142446 -11.32422,1.876953 -5.0485,2.829053 -8.40493,7.851152 -10.87109,12.949219 -2.20129,4.78872 -3.50029,9.933284 -4.79688,15.02539 -1.82688,7.620787 -3.61796,15.292946 -4.33984,23.111326 -0.78087,11.70142 -0.41848,23.44551 0.10742,35.15039 0.7858,16.55055 1.76275,33.07018 1.83008,49.63086 -0.0622,4.61008 0.0311,9.13837 -0.5625,13.6836 -0.92089,6.22681 -1.43326,12.51281 -1.90625,18.77148 -2.04531,-1.78456 -4.28199,-3.40818 -5.88281,-5.63477 -3.08731,-4.24755 -5.57402,-8.9223 -7.64258,-13.74218 -2.34536,-5.75435 -4.23755,-11.75353 -4.93945,-17.94922 -0.36928,-2.99127 -0.40445,-5.77064 -0.53125,-8.77734 -0.26942,-9.19765 -0.15563,-18.67032 -0.22657,-27.97461 -0.13769,-5.44151 0.12529,-10.96436 -1.06836,-16.3125 -0.72261,-3.91467 -3.4442,-7.01667 -6.29882,-9.61133 -4.62058,-4.57844 -10.58476,-8.26476 -17.22071,-8.64063 -5.1529,-0.46132 -10.45825,1.81053 -13.58398,5.95117 -3.39701,4.75176 -4.75794,10.56335 -6.10352,16.15235 -1.99804,8.96389 -3.84827,17.9698 -5.14062,27.0664 -1.69875,10.56916 -0.93679,21.37957 1.05078,31.85157 2.98965,15.32046 7.81046,30.34809 14.91602,44.26953 2.1093,4.62834 5.55002,8.45945 9.16601,11.96679 7.13233,7.29856 15.32697,13.56651 24.32813,18.38672 3.71468,1.91768 7.42199,3.82383 11.33398,5.30274 3.49181,1.41529 7.33032,0.98267 10.95117,0.41601 -0.32478,5.58263 -0.2821,11.18023 -0.20117,16.76953 0.15309,7.61492 0.203,15.25463 1.10742,22.82618 0.53443,3.31161 0.68042,7.00172 3.03711,9.63086 3.6574,3.54766 8.68153,5.70344 13.78125,5.86328 1.21335,0.0324 2.42735,0.0399 3.63672,-0.0781 1.74611,-0.0665 3.3256,-0.81147 4.99023,-1.23828 3.99456,-0.88577 8.22838,-0.82372 12.01954,-2.5332 3.53145,-1.75776 6.99506,-3.74137 10.06445,-6.23633 2.82759,-2.08137 4.44004,-5.47821 4.69727,-8.93555 0.16727,-5.84178 -0.005,-11.69078 -0.043,-17.53515 -0.0419,-9.84098 -0.19185,-19.68888 -0.95899,-29.50391 -0.73632,-10.91905 -2.56976,-21.65574 -2.73047,-32.57617 0.0474,-10.79301 0.50178,-21.58031 0.71094,-32.3711 0.21917,-8.05493 0.17886,-16.1946 0.46484,-24.16796 0.10271,-1.81268 0.21337,-3.95966 0.41016,-5.89454 3.3394,-2.42063 7.34894,-3.7145 11.29102,-4.79101 5.07536,-1.25277 10.30677,-2.14363 15.05273,-4.43945 6.06381,-3.18444 12.01741,-6.60796 17.70117,-10.43555 7.1601,-4.60983 12.92372,-10.99676 18.19531,-17.60547 2.62693,-3.17291 5.22159,-6.47559 6.67188,-10.37891 1.91373,-5.63769 3.32015,-11.43488 4.7832,-17.20312 1.61954,-6.04888 2.67062,-12.246374 3.04102,-18.500001 0.43069,-7.562066 0.36022,-15.14291 0.39062,-22.714843 -0.12922,-5.093427 0.32203,-10.329379 -1.2832,-15.251954 -1.98479,-5.762413 -5.85888,-10.756509 -10.48828,-14.658203 -3.6626,-3.309063 -8.64325,-4.735077 -13.52148,-4.628906 z m 1.06445,4.007813 c 2.38187,0.08532 4.76843,0.583356 6.60547,1.472656 4.30252,2.0828 9.98479,8.523018 11.98632,13.585937 1.46961,3.7174 1.65043,5.424533 1.64063,15.451172 -0.0261,26.825413 -0.25243,28.919911 -5.10547,47.240239 -3.0068,11.35073 -3.39088,12.21033 -8.07031,18.04101 -10.00364,12.46477 -13.83144,15.71499 -28.56055,24.25781 -8.0097,4.64562 -9.89213,5.38781 -18.24023,7.17969 -8.07742,1.73376 -15.48157,5.06299 -16.82031,7.56445 -0.48819,0.91219 -0.85554,7.15818 -0.94532,16.06055 -0.0808,8.01161 -0.3968,22.91132 -0.70312,33.11133 -0.51715,17.21992 -0.42296,19.76737 1.3164,35.63672 1.34758,12.29478 1.91653,21.68151 2.02735,33.45312 0.0847,9 0.17942,18.87983 0.21093,21.95313 0.0709,6.92084 -0.86395,8.37653 -8.24414,12.85156 -4.37706,2.65408 -6.15582,3.28895 -10.63281,3.79102 -2.95716,0.33164 -6.02028,0.94633 -6.80664,1.36718 -1.62232,0.86824 -6.80346,0.91519 -9.5293,0.0859 -3.3323,-1.01365 -6.51337,-2.967 -7.64453,-4.69336 -0.68698,-1.04846 -1.39321,-4.84113 -1.83203,-9.84179 -0.87644,-9.9874 -1.08551,-34.30123 -0.32812,-38.16211 l 0.55468,-2.83204 -2.09961,0.51172 c -1.15523,0.28079 -3.96749,0.69281 -6.25,0.91602 -3.72779,0.36459 -4.76341,0.12251 -10.18164,-2.37695 -11.32165,-5.22275 -19.87877,-11.05001 -28.23046,-19.22461 -7.35212,-7.19626 -8.0627,-8.15432 -11.85938,-16 -7.26811,-15.01919 -13.05782,-35.35018 -14.45508,-50.75586 -1.00118,-11.03888 -0.25927,-18.17676 4.13867,-39.7461 2.84452,-13.95066 4.8612,-19.60404 8.07813,-22.66211 5.46023,-5.1906 14.95398,-3.68529 22.64844,3.5918 7.30734,6.91099 7.09545,5.88585 7.14843,34.31836 0.0497,26.67408 0.36245,29.69569 4.30079,41.51758 2.69593,8.0925 8.70717,18.6879 12.46093,21.96289 6.28011,5.47909 7.36082,6.10847 8.87305,5.16406 1.15785,-0.72308 1.45768,-2.06964 1.83008,-8.20898 0.24501,-4.03928 0.94048,-10.54878 1.54492,-14.46485 1.13909,-7.37984 0.8048,-27.12334 -1.03516,-61.24414 -0.93964,-17.42497 -0.92621,-33.87608 0.0332,-40.85547 1.51185,-10.998859 5.73314,-28.101785 8.24804,-33.419918 2.98408,-6.310267 6.88778,-10.787346 10.47266,-12.011719 1.47361,-0.50328 5.62461,-0.932145 9.22461,-0.951172 5.39149,-0.02853 7.30977,0.287516 10.88281,1.785157 5.19238,2.176373 6.84644,4.342016 9.66602,12.658203 1.98736,5.861599 1.9966,5.97824 2.14258,28.068359 0.0807,12.2 0.16225,23.77846 0.18164,25.73047 l 0.0351,3.54883 3.0918,-0.35352 c 5.51928,-0.63313 12.59488,-4.70277 16.71875,-9.61523 8.36593,-9.96575 10.11654,-17.50828 9.85351,-42.453128 -0.20506,-19.449613 0.23271,-22.673672 4.23633,-31.142578 1.97391,-4.175427 7.07785,-9.286195 10.84766,-10.861328 1.81528,-0.758474 4.19234,-1.08532 6.57422,-1 z m -2.1875,7.964843 c -2.1226,0 -2.8466,0.950149 -2.22266,2.916016 0.51846,1.633507 1.82606,1.873179 3.125,0.574219 1.54842,-1.5484 1.04638,-3.490235 -0.90234,-3.490235 z m 13.05664,10.333985 c -0.75749,-0.0081 -1.52836,0.683093 -1.70899,1.955078 -0.135,0.95068 0.19157,1.999305 0.72657,2.330078 1.44274,0.892013 3.04554,-1.039919 2.4414,-2.943359 -0.2877,-0.906483 -0.86982,-1.335509 -1.45898,-1.341797 z m -25.63672,0.939453 c -0.25674,0.0065 -0.55932,0.05864 -0.91016,0.150391 -1.92294,0.502853 -2.26982,1.954987 -0.92773,3.871093 1.10175,1.57296 1.19247,1.584614 2.12695,0.306641 0.53687,-0.734213 0.97461,-1.872417 0.97461,-2.529297 0,-1.278604 -0.34675,-1.822166 -1.26367,-1.798828 z m 12.99023,7.748047 c -0.11368,0.0025 -0.23304,0.01342 -0.35742,0.03125 -1.58092,0.226653 -2.34462,2.048557 -1.63476,3.898437 0.56892,1.48256 1.64225,1.300419 2.89648,-0.490234 1.28546,-1.835263 0.80104,-3.476515 -0.9043,-3.439453 z m 10.74219,10.148437 c -0.57043,-0.009 -1.12274,0.224148 -1.46094,0.757813 -0.90888,1.434173 -0.77822,3.829047 0.26563,4.873047 0.72733,0.727413 1.17098,0.586321 2.2168,-0.705079 0.71894,-0.887773 1.20879,-2.292893 1.08984,-3.121093 -0.15812,-1.100934 -1.16061,-1.789768 -2.11133,-1.804688 z m -23.24219,1.757813 c -0.49674,0.01667 -1.03623,0.377285 -1.45312,1.15625 -1.02197,1.909573 -0.32094,3.728488 1.31641,3.417968 0.75084,-0.142399 1.36584,-1.023098 1.49609,-2.142578 0.17831,-1.532608 -0.53146,-2.459416 -1.35938,-2.43164 z m -51.92968,2.527344 c -1.44383,0 -1.8418,0.366412 -1.8418,1.697265 0,2.794533 1.92672,3.634998 3.62891,1.583985 1.29352,-1.558587 0.35537,-3.28125 -1.78711,-3.28125 z m -16.77344,4.53125 c -0.29994,3.4e-4 -0.63129,0.05671 -0.99414,0.171874 -1.69283,0.53728 -2.01578,2.517438 -0.63477,3.898438 1.3396,1.3396 3.07431,0.699079 3.34961,-1.238281 0.25433,-1.78971 -0.42094,-2.833506 -1.7207,-2.832031 z m 81.1875,5.65039 c -1.25505,0 -2.92993,2.198049 -2.50977,3.292969 0.5277,1.375147 2.0098,1.369894 3.15625,-0.01172 0.95078,-1.145613 0.52939,-3.28125 -0.64648,-3.281249 z m -12.35742,6.615234 c -0.27337,0.004 -0.60108,0.02889 -0.99024,0.06641 -2.76781,0.266866 -3.56847,2.554569 -1.58789,4.535158 1.13656,1.13654 1.30532,1.13366 2.58399,-0.0234 0.75245,-0.680999 1.36914,-2.024934 1.36914,-2.988281 0,-1.249614 -0.19043,-1.607258 -1.375,-1.589844 z m -77.17774,2.837891 c -1.82281,0 -2.98727,2.120287 -2.08789,3.800777 1.02864,1.92204 3.43653,1.62641 3.9668,-0.48632 0.55163,-2.1979 -0.0808,-3.314457 -1.87891,-3.314457 z m 23.375,4.376957 c -0.48285,-0.005 -1.09826,0.13987 -1.85351,0.42968 -1.50571,0.5778 -1.46931,2.77284 0.0723,4.31446 1.1465,1.14649 1.28364,1.1402 2.18164,-0.0879 0.52707,-0.72082 0.95899,-2.06668 0.95899,-2.99024 0,-1.10868 -0.43757,-1.6574 -1.35938,-1.66601 z M 481.81836,112 c -2.14132,0 -2.43641,1.74903 -0.63086,3.74414 1.53085,1.69157 2.44922,1.0896 2.44922,-1.60547 0,-1.79664 -0.29111,-2.13867 -1.81836,-2.13867 z M 499,112.72656 c -1.83627,0 -2.50289,1.04023 -1.89453,2.95703 0.67759,2.13487 2.84449,1.46737 3.125,-0.96289 0.18328,-1.58781 -0.0679,-1.99414 -1.23047,-1.99414 z m -89.08203,5.0918 c -2.26313,0 -3.04028,1.99485 -1.45899,3.74219 1.56816,1.73278 2.21036,1.70021 3.20704,-0.16211 1.10696,-2.06836 0.36892,-3.58008 -1.74805,-3.58008 z m 18.125,7.27344 c -2.23253,0 -2.88081,1.00227 -1.86914,2.89258 0.9883,1.84664 1.92508,1.86763 2.89062,0.0645 0,0 0,-0.002 0,-0.002 1.16951,-2.18585 0.90474,-2.95508 -1.02148,-2.95508 z M 472.32031,128 c -1.12469,0 -1.86093,1.83917 -1.31054,3.27344 0.60148,1.56742 1.36703,1.34595 2.27929,-0.65625 C 474.1199,128.79367 473.82603,128 472.32031,128 Z m 16.04297,4.18555 -1.72851,1.40625 c -1.28264,1.04402 -1.59737,1.81746 -1.22266,2.99804 0.56755,1.78816 2.42639,2.13364 3.0293,0.5625 0.21726,-0.56621 0.28804,-1.91516 0.1582,-2.99804 z m -31.78125,0.96679 c -0.19284,-7.7e-4 -0.42454,0.0226 -0.70508,0.0625 -1.92534,0.27402 -2.60184,2.3467 -1.2832,3.93555 1.33468,1.6082 2.46674,0.85787 2.72852,-1.80859 0.16806,-1.71184 0.0954,-2.18609 -0.74024,-2.18946 z m -56.26172,0.66602 c -1.22466,0 -1.77539,0.40551 -1.77539,1.30859 0,2.82999 3.20144,4.11732 3.99805,1.60743 0.62393,-1.96587 -0.10011,-2.91602 -2.22266,-2.91602 z m -62.23828,9.45508 c -1.58808,0.0483 -2.4575,1.60822 -1.8125,3.28906 0.35389,0.92224 0.67138,0.95259 1.89649,0.1875 0.80906,-0.50528 1.4707,-1.49348 1.4707,-2.19727 0,-0.80133 -0.55333,-1.27929 -1.47852,-1.27929 -0.0256,0 -0.051,-7.7e-4 -0.0762,0 z m 80.80469,2.18164 c -2.52675,0 -3.36859,1.37488 -2.18945,3.57812 0.9298,1.73735 1.08382,1.77797 2.98632,0.75977 0.80668,-0.43172 1.40821,-1.51698 1.40821,-2.54492 0,-1.51104 -0.34671,-1.79297 -2.20508,-1.79297 z m -69.09961,4.36328 c -1.0746,0 -1.42383,0.50023 -1.42383,2.03711 0,1.96392 1.33857,4.13995 2.08594,3.39258 0.20007,-0.20006 0.45277,-1.50321 0.5625,-2.89649 0.16523,-2.0981 -0.0453,-2.5332 -1.22461,-2.5332 z m 89.84961,0.81055 c -0.15775,0.003 -0.33685,0.018 -0.53906,0.0469 -1.66134,0.23703 -2.4501,2.02663 -1.72657,3.91211 0.49011,1.27719 1.32393,1.33625 2.48438,0.17578 0.48,-0.48 0.87109,-1.64789 0.87109,-2.5957 0,-1.15521 -0.238,-1.5536 -1.08984,-1.53906 z m 22.5293,1.07812 c -0.36964,0.009 -0.7744,0.13237 -1.2168,0.36914 -1.80483,0.96591 -1.64502,3.24373 0.32422,4.62305 1.50042,1.05093 1.71167,1.04328 2.54883,-0.10156 0.50205,-0.6866 0.70305,-1.92122 0.44726,-2.74219 -0.45297,-1.45389 -1.15888,-2.17194 -2.10351,-2.14844 z m -61.44922,6.99024 c -0.27296,0.006 -0.55435,0.1227 -0.8125,0.38085 -0.93094,0.93094 -0.35579,3.10352 0.82226,3.10352 0.42511,0 0.97038,-0.51178 1.21094,-1.13867 0.46408,-1.20938 -0.32904,-2.36543 -1.2207,-2.3457 z m -69.10352,5.66601 c -1.83088,0 -2.62613,1.83452 -1.42383,3.2832 1.15456,1.39119 1.90881,1.36849 2.46094,-0.0703 0.8104,-2.11186 0.45414,-3.21289 -1.03711,-3.21289 z m 83.24414,0.99414 c -0.24276,0.005 -0.48587,0.15498 -0.68945,0.48438 -0.61093,0.98849 0.10042,2.88476 1.08203,2.88476 0.41255,0 0.75,-0.63375 0.75,-1.41015 0,-1.16815 -0.56762,-1.97088 -1.14258,-1.95899 z m -14.38281,9.97266 c -0.63325,-0.009 -1.32365,0.30327 -1.94727,1.05469 -0.70594,0.85061 -0.72943,1.53638 -0.10351,2.91015 0.967,2.12235 2.6907,2.33612 3.69531,0.45899 1.21687,-2.27375 -0.0262,-4.39998 -1.64453,-4.42383 z m 22.69141,3.94336 c -1.09131,0.0283 -1.78698,0.49461 -1.94336,1.30664 -0.25182,1.30758 1.01506,3.41992 2.05078,3.41992 0.30205,0 0.94377,-0.47585 1.42578,-1.05664 1.39429,-1.68003 0.62086,-3.66992 -1.42578,-3.66992 -0.036,0 -0.0722,-9.2e-4 -0.10742,0 z m -73.41797,4.22265 c -0.32123,-0.002 -0.72538,0.15237 -1.29102,0.45508 -1.70833,0.91428 -2.02627,2.91709 -0.67578,4.26758 1.21949,1.21949 1.86745,1.09202 2.73828,-0.53516 0.90609,-1.69305 0.92438,-2.28694 0.10742,-3.57617 -0.25843,-0.40781 -0.51484,-0.60945 -0.8789,-0.61133 z m -18.66407,8.88086 c -0.76448,0.005 -1.63086,0.71773 -1.63086,1.76172 0,2.2664 1.89964,3.08101 2.64649,1.13477 h 0.002 c 0.23026,-0.6 0.23228,-1.57667 0.004,-2.16992 -0.19545,-0.50933 -0.59263,-0.72934 -1.02149,-0.72657 z m 68.60547,3.64453 c -0.37726,0.004 -0.77906,0.11707 -1.16797,0.35743 -0.79585,0.49186 -0.81443,0.97958 -0.0976,2.55273 0.73101,1.6044 1.07178,1.78744 1.95703,1.05274 0.59003,-0.48968 1.07422,-1.4695 1.07422,-2.17774 0,-1.09805 -0.80151,-1.79623 -1.76563,-1.78516 z m 16.3711,9.07032 c -2.57116,0 -3.10373,1.15456 -1.75977,3.8164 1.11469,2.20775 1.70557,2.43115 3.00781,1.12891 0.48,-0.48 0.87305,-1.79016 0.87305,-2.91016 0,-1.76485 -0.28271,-2.03515 -2.12109,-2.03515 z m -78.67188,7.375 c -0.41345,0.0178 -0.95743,0.47135 -1.73633,1.33203 -1.23518,1.36486 -1.23534,1.53162 -0.0391,3.35742 1.12059,1.71024 1.37703,1.80071 2.35156,0.82617 0.76447,-0.76446 0.94469,-1.77738 0.59766,-3.35742 -0.32582,-1.48348 -0.64225,-2.18112 -1.17383,-2.1582 z m 19.125,1.54882 c -0.39756,-0.006 -0.84303,0.24538 -1.26172,0.8125 -0.74121,1.004 -0.81276,1.74916 -0.26562,2.77149 0.95045,1.77592 2.39424,1.33223 2.71094,-0.83203 0.24143,-1.64986 -0.36954,-2.7391 -1.1836,-2.75196 z m 45.21094,11.6211 c -0.92783,0.0234 -1.72461,0.70705 -1.72461,1.83203 0,1.261 1.27041,3.07617 2.15234,3.07617 0.22379,0 0.8418,-0.69621 1.37305,-1.54687 0.81655,-1.30751 0.79555,-1.71615 -0.13281,-2.64453 -0.50812,-0.50812 -1.11127,-0.73087 -1.66797,-0.7168 z m 19.72461,3.61328 c -0.3257,0.0108 -0.69074,0.0797 -1.0918,0.20703 -1.76278,0.55949 -1.84009,1.63123 -0.24609,3.39258 1.38774,1.53344 3.16211,0.62247 3.16211,-1.62305 0,-1.32415 -0.66101,-2.01524 -1.82422,-1.97656 z m -53.64453,8.67773 c -1.52001,0.02 -1.8022,1.96538 -0.35938,3.40821 0.71431,0.7143 1.09058,0.63754 1.82813,-0.3711 0.51073,-0.69848 0.8164,-1.60921 0.67968,-2.02539 -0.13671,-0.41618 -0.95945,-0.8624 -1.82812,-0.99023 -0.11219,-0.0165 -0.21898,-0.0228 -0.32031,-0.0215 z m -15.10157,1.34571 c -0.79377,0.0261 -1.42968,0.45208 -1.42968,0.96875 0,2.22745 2.35451,2.43254 2.77929,0.24219 0.15856,-0.81752 -0.25477,-1.21094 -1.27148,-1.21094 -0.0259,0 -0.0525,-8.4e-4 -0.0781,0 z m 28.12891,8.0957 c -1.30918,-0.002 -1.55152,1.0382 -0.74023,3.15234 0.69993,1.82403 2.8164,1.01542 2.8164,-1.07617 0,-1.32149 -0.43887,-1.87117 -1.63476,-2.04101 -0.15827,-0.0225 -0.30598,-0.0349 -0.44141,-0.0352 z m 45.20313,4.35938 c -0.10119,0.002 -0.20707,0.0132 -0.31836,0.0351 -1.60984,0.31683 -2.78089,2.30857 -2.21875,3.77344 0.6018,1.56831 1.44933,1.50304 3.02343,-0.23633 1.39372,-1.54001 1.03151,-3.60856 -0.48632,-3.57226 z m -25.07618,1.36328 c -1.3295,0.0229 -1.68554,0.40938 -1.68554,1.75586 0,0.96665 0.4082,1.90631 0.9082,2.08593 1.27841,0.45926 2.72656,-0.85656 2.72656,-2.47656 0,-0.97168 -0.52259,-1.36523 -1.8164,-1.36523 -0.0449,0 -0.0899,-7.4e-4 -0.13282,0 z m -29.03125,8.72656 c -1.69654,0 -2.04145,2.10466 -0.60546,3.69141 1.15464,1.27585 1.39513,1.31391 1.95117,0.32031 0.34874,-0.62316 0.42713,-1.78035 0.17578,-2.57227 -0.25135,-0.79193 -0.93589,-1.43945 -1.52149,-1.43945 z m 44.42774,4.67773 c -1.20057,-0.002 -2.53711,1.04136 -2.53711,2.17579 0,0.89611 1.43019,2.60156 2.18164,2.60156 0.24,0 0.82859,-0.39305 1.30859,-0.87305 1.24362,-1.24363 1.07862,-3.256 -0.31054,-3.78906 -0.20367,-0.0782 -0.42025,-0.11482 -0.64258,-0.11524 z m 9.7832,11.32227 c -0.884,0 -1.41211,0.49901 -1.41211,1.33398 0,2.38147 1.42756,2.99762 2.88282,1.24414 1.09995,-1.32536 0.38572,-2.57812 -1.47071,-2.57812 z m -25.02929,12.21875 c -0.2853,0.004 -0.62994,0.26534 -1.19141,0.74609 -1.36433,1.16819 -1.83871,3.78239 -0.86328,4.75782 0.79753,0.79753 2.53014,0.21696 3.3789,-1.13086 0.55999,-0.88928 0.50908,-1.71574 -0.18554,-3.01368 -0.50331,-0.94044 -0.77187,-1.36387 -1.13867,-1.35937 z m 19.12109,4.21094 c -0.17243,3.8e-4 -0.35568,0.0237 -0.54883,0.0742 -0.94513,0.24716 -1.5,0.98942 -1.5,2.00585 0,2.78064 1.69284,3.3169 3.1543,1 0.96049,-1.52269 0.29858,-3.08318 -1.10547,-3.08007 z m -8.09766,20.69726 c -0.37207,0.0138 -0.87011,0.15405 -1.52734,0.40625 -1.3558,0.52027 -1.52421,3.25704 -0.27735,4.50391 1.10652,1.10652 1.45433,1.09424 3.09766,-0.10742 0.92853,-0.67896 1.08222,-1.13944 0.50195,-1.49805 -0.4606,-0.28467 -0.83593,-1.1533 -0.83593,-1.92969 0,-0.97115 -0.24867,-1.40127 -0.95899,-1.375 z"
         transform="matrix(0.75000002,0,0,-0.75000002,0,883.63645)"
         inkscape:label="mask" /></g></g></svg>
