<?xml version="1.0" encoding="UTF-8" standalone="no"?>
<!-- Created with Inkscape (http://www.inkscape.org/) -->

<svg
   version="1.1"
   id="svg2"
   xml:space="preserve"
   width="266.43475"
   height="535.5675"
   viewBox="0 0 266.43475 535.56751"
   sodipodi:docname="cactus_1.svg"
   inkscape:version="1.1 (c68e22c387, 2021-05-23)"
   xmlns:inkscape="http://www.inkscape.org/namespaces/inkscape"
   xmlns:sodipodi="http://sodipodi.sourceforge.net/DTD/sodipodi-0.dtd"
   xmlns="http://www.w3.org/2000/svg"
   xmlns:svg="http://www.w3.org/2000/svg"><defs
     id="defs6" /><sodipodi:namedview
     id="namedview4"
     pagecolor="#505050"
     bordercolor="#eeeeee"
     borderopacity="1"
     inkscape:pageshadow="0"
     inkscape:pageopacity="0"
     inkscape:pagecheckerboard="0"
     showgrid="false"
     inkscape:zoom="1.0478929"
     inkscape:cx="510.46329"
     inkscape:cy="180.04007"
     inkscape:window-width="3840"
     inkscape:window-height="2066"
     inkscape:window-x="-11"
     inkscape:window-y="-11"
     inkscape:window-maximized="1"
     inkscape:current-layer="g8"
     inkscape:snap-global="false"
     inkscape:rotation="2"
     fit-margin-top="0"
     fit-margin-left="0"
     fit-margin-right="0"
     fit-margin-bottom="0" /><g
     id="g8"
     inkscape:groupmode="layer"
     inkscape:label="base"
     transform="matrix(1.3333333,0,0,-1.3333333,-49.306359,797.65018)"><g
       id="g6378"
       inkscape:label="cactus_1"
       transform="translate(320.64346,-247.63982)"><path
         id="path2799"
         style="fill:#000000;stroke-width:0.999998"
         d="m -191.37695,445.70508 c -4.08232,0.13947 -8.22074,0.3433 -12.173,1.4535 -1.3095,0.40409 -2.48173,1.14767 -3.55747,1.98204 -0.30969,-1.28286 -1.88851,-2.0762 -3.04917,-1.34942 -1.70163,1.04584 -2.34965,3.08861 -3.06463,4.84523 -1.50573,3.79244 -2.44934,7.83037 -2.45355,11.9247 -0.0322,4.82832 0.30497,9.65046 0.43926,14.47603 0.67092,17.22798 1.23479,34.46701 1.81616,51.70752 0.29554,7.53946 0.61384,15.10547 1.92039,22.55101 0.44843,3.08222 1.02287,6.1525 1.32545,9.25215 0.36636,9.48142 0.40889,18.97237 0.51782,28.45948 0.1291,16.70758 0.27101,33.41699 0.0816,50.12456 -0.0419,2.70292 -0.0862,5.41445 -0.45133,8.09664 -7.82288,-0.31385 -15.65224,-0.46063 -23.47852,-0.67774 -2.92324,1.43536 -5.94291,2.74424 -8.52976,4.76023 -5.09483,3.7766 -9.66218,8.26617 -13.59764,13.236 -2.62579,3.27874 -4.48389,7.07245 -6.5006,10.73472 -1.76603,3.37697 -3.60766,6.7149 -5.4345,10.05811 -2.28757,4.78257 -4.22467,9.73807 -5.80668,14.79735 -0.90663,3.42768 -2.14842,6.75172 -3.49179,10.02789 -0.99009,2.7895 -1.83721,5.67385 -1.89916,8.65526 -0.83245,13.99843 -0.85516,28.0282 -1.39026,42.03904 -0.1668,3.97056 -0.24322,8.0202 -0.77181,11.99068 -0.72749,7.52065 -1.15518,15.07395 -1.25358,22.62963 -0.0736,9.08308 2.1385,17.98688 4.70961,26.63676 1.58526,5.05942 3.36546,10.23889 6.78023,14.38836 2.10825,2.40455 4.74259,4.50986 7.84415,5.4405 3.82252,1.10843 7.82042,-0.10588 11.3827,-1.53713 2.94553,-1.17018 5.63164,-3.23799 7.014,-6.14821 1.53259,-3.14953 2.09855,-6.6655 2.50716,-10.11353 0.52802,-5.95862 -0.48402,-11.9059 -1.33988,-17.78476 -0.62161,-4.06296 -1.36923,-8.16247 -1.85706,-12.17486 -0.17434,-1.48037 -0.27686,-2.82259 -0.36317,-4.32744 -0.10358,-1.99737 -0.13751,-4.25953 -0.14992,-6.39289 -0.10181,-12.3878 0.16346,-24.75994 1.08818,-37.07597 0.3497,-4.11738 0.64533,-8.35441 1.80953,-12.38813 0.44281,-1.65638 0.89885,-3.12288 1.44681,-4.75866 2.80053,-8.20856 6.37709,-16.13408 10.26176,-23.88107 2.29556,-4.36001 4.7173,-8.74896 8.11477,-12.36109 0.55076,-0.59298 1.38852,-1.27961 1.91129,-1.6461 1.91586,-1.31829 4.0719,-2.43691 6.11914,-3.33203 0.78445,-0.33855 1.83864,-0.76389 2.77205,-1.00985 0.79543,-0.19859 1.60954,-0.31242 2.4135,-0.47062 -0.73341,5.29047 -0.48898,10.64659 -0.14527,15.95717 0.42592,7.26082 0.63023,14.54396 1.57979,21.76251 0.92749,7.28578 2.03392,14.57502 3.93266,21.67876 0.71201,2.88804 2.17306,5.5217 3.95267,7.88377 2.75491,3.65982 5.99881,7.0328 9.87351,9.51271 2.16498,1.32646 4.71771,2.11011 7.26562,2.04883 3.25516,-0.15251 5.84932,-2.43007 8.06514,-4.59614 2.60943,-2.50365 5.08684,-5.31158 6.30132,-8.77886 1.73899,-4.80394 2.02096,-9.97006 2.31044,-15.02533 0.45426,-10.7325 0.1863,-21.4791 -0.003,-32.21501 -0.32345,-16.08183 -0.87423,-32.15818 -1.2075,-48.23964 -0.0862,-4.98645 -0.0832,-10.01801 0.16016,-14.93799 0.33305,-6.64616 1.07041,-13.20853 1.77735,-19.83984 0.3534,-2.91792 0.56005,-5.87221 1.19531,-8.79102 0.2737,-1.36032 1.54225,-2.41982 2.9375,-2.41016 3.02331,-0.14157 6.05082,-0.26639 9.05502,-0.6579 4.45655,-0.38999 8.85883,1.28271 12.39953,3.91252 2.7593,1.85064 4.80276,4.55328 6.34538,7.45987 2.8429,5.01501 4.77628,10.53975 5.59912,16.24858 0.29773,1.94139 0.49553,3.91052 0.61456,5.73518 0.56234,8.71901 -0.15026,17.37273 -0.80289,26.07344 -0.88247,13.72221 -0.80606,27.48174 -0.7675,41.22549 0.0942,3.08194 -0.10269,6.2449 0.76674,9.23805 1.15001,3.396 2.88766,6.81741 5.95899,8.85429 3.91729,2.63224 8.76364,4.12979 13.49411,3.52078 2.76233,-0.38317 5.20893,-1.93496 7.31936,-3.68061 3.320901,-2.98481 5.595734,-6.89471 7.928554,-10.64952 1.731431,-2.85734 3.272975,-5.93571 3.619648,-9.30599 0.472683,-4.28913 1.000014,-8.57854 1.920325,-12.79906 1.522307,-6.0549 1.959889,-12.31507 2.027476,-18.53914 0.04046,-1.97761 0.190238,-3.97466 0.332933,-6.01019 0.353375,-3.94895 0.645821,-7.90822 0.539789,-11.87689 -0.198317,-9.78752 -1.240063,-19.56308 -3.117623,-29.17101 -1.111039,-5.78941 -3.077057,-11.35968 -4.714684,-17.01047 -2.405523,-7.83413 -4.595734,-15.74308 -7.421178,-23.44046 -1.3868,-3.66778 -3.11688,-7.42973 -6.2994,-9.88858 -2.45308,-1.87434 -5.07288,-3.52183 -7.62163,-5.26162 -3.17336,-1.78822 -6.65872,-2.93523 -10.08528,-4.13325 -4.31644,-1.43348 -8.69901,-2.75053 -13.22754,-3.30822 -4.77678,-0.76303 -9.67307,-0.69012 -14.3897,-1.82765 -2.14668,-0.76399 -4.4021,-1.11753 -6.62379,-1.57263 -4.09013,-1.09915 -7.03216,-4.64487 -8.55608,-8.45326 -0.65084,-1.57001 -1.00088,-3.05683 -1.49562,-4.69861 -1.56023,-5.50446 -2.72562,-11.33814 -3.14465,-17.12609 -0.74726,-10.13274 0.0105,-20.29424 0.68704,-30.40869 0.73376,-10.75708 1.57404,-21.51376 1.81915,-32.29601 0.16634,-4.99863 -0.6653,-10.0928 -2.93719,-14.58264 -2.53723,-5.11445 -6.81846,-9.42065 -12.05884,-11.73555 -2.16559,-0.83177 -4.54822,-0.66615 -6.82233,-0.68181 z"
         inkscape:label="bg" /><path
         id="path6020"
         style="fill:#ffffff;stroke-width:1.33333"
         d="m -345.92969,50.355469 c -5.64089,-0.207734 -10.85902,2.792963 -14.75781,6.658203 -5.368,5.310186 -8.19826,12.525612 -10.49023,19.576172 -3.60898,11.626279 -6.70939,23.576556 -7.03907,35.810546 -0.0368,10.96225 0.63331,21.92059 1.65625,32.83203 0.34164,2.60276 0.55338,5.38189 0.69141,7.89844 0.90872,19.08055 0.95558,38.24655 1.83203,57.35937 0.30099,4.0803 0.14535,8.22302 1.05859,12.23438 1.14098,5.57247 3.82168,10.64646 5.45899,16.06641 1.84377,6.52981 4.11985,12.93791 6.83789,19.15625 1.66444,4.06454 3.88543,7.85517 5.97656,11.70703 3.4434,6.23729 6.50605,12.70671 10.49805,18.62304 5.37816,7.39202 11.88749,13.95274 19.11914,19.53711 3.97788,3.27926 8.70405,5.42299 13.31445,7.64649 9.98738,-0.26895 19.97671,-0.47817 29.96094,-0.85156 0.17007,1.66042 0.25273,3.32797 0.29688,4.99609 0.31474,16.96721 0.20136,33.93902 0.11523,50.9082 -0.14675,17.91264 -0.17565,35.8296 -0.69922,53.73633 0.022,4.90447 -0.96031,9.72409 -1.66797,14.55664 -1.63228,9.15349 -2.25715,18.44533 -2.63086,27.72461 -0.84133,22.68889 -1.51248,45.38985 -2.40039,68.0625 -0.22754,7.32168 -0.64145,14.56893 -0.76172,21.90234 -0.20506,5.65299 0.67814,11.32483 2.57032,16.6543 1.27608,3.17623 2.16245,6.8085 4.9082,9.08789 1.76397,1.69664 4.75295,1.63263 6.48633,-0.0723 0.88368,0.55844 1.80923,1.05228 2.78515,1.42968 5.67719,1.8485 11.71572,2.0838 17.63672,2.3125 3.04886,-0.009 6.18386,0.14773 9.12695,-0.79882 5.65851,-2.21312 10.53656,-6.21966 14.21094,-11.0254 5.17408,-6.70697 7.67033,-15.19978 7.77539,-23.61132 -0.14085,-12.7899 -1.06324,-25.55367 -1.93164,-38.31055 -0.88873,-13.66159 -2.12248,-27.18126 -1.77148,-40.86523 0.0717,-2.74751 0.23979,-5.70297 0.44922,-8.25 0.7579,-8.46537 2.64921,-16.79489 5.15625,-24.9043 1.53404,-5.08574 4.82065,-10.11451 9.99609,-12.01367 2.75948,-0.77939 5.64521,-1.06864 8.38672,-1.94141 1.47416,-0.53559 3.21273,-0.84857 4.63672,-1.07422 4.00836,-0.62496 8.06513,-0.83024 12.09375,-1.2793 6.08802,-0.60832 12.09101,-1.91484 17.91211,-3.79101 5.74301,-1.87656 11.55331,-3.70751 16.90429,-6.55664 3.32864,-2.10516 6.59129,-4.33248 9.79688,-6.625 4.46824,-3.01928 7.32255,-7.80564 9.28516,-12.72071 3.81742,-9.74303 6.61143,-19.84417 9.67578,-29.83984 2.24088,-7.74741 4.86729,-15.37247 6.73828,-23.22656 2.96167,-13.67912 4.52436,-27.65273 4.88476,-41.64063 0.31981,-7.43869 -0.63953,-14.83776 -1.03906,-22.25195 -0.19332,-6.17111 -0.25854,-12.36371 -1.10937,-18.49023 -0.48674,-4.30014 -1.6447,-8.47508 -2.42969,-12.72071 -0.72341,-3.954 -1.23043,-7.99411 -1.6875,-12.0625 -0.29839,-4.5467 -1.96024,-8.88235 -4.23438,-12.79297 -3.03667,-5.04224 -6.01453,-10.20628 -10.05664,-14.52929 -3.04006,-3.17739 -6.82324,-5.81771 -11.11328,-6.95508 -6.73292,-1.46089 -13.85387,0.35553 -19.67383,3.86133 -4.36424,2.41206 -7.34851,6.68582 -9.14648,11.24414 -2.06945,4.50684 -1.9471,9.55554 -2.00977,14.40234 -0.073,19.92623 -0.22413,39.8864 1.28516,59.76953 0.7846,10.63439 1.50409,21.2434 0.7168,31.8125 -0.52707,7.6287 -2.12239,15.23155 -5.30664,22.21094 -2.10495,4.44123 -4.31903,9.0055 -7.92383,12.44531 -4.56623,4.12728 -10.50698,7.1786 -16.78906,7.00977 -3.62739,-0.3462 -7.25709,-0.70377 -10.90235,-0.83203 -1.3618,-0.1928 -3.1903,0.31929 -4.05469,-1.08594 -0.571,-1.36649 -0.64699,-2.90173 -0.91211,-4.35352 -1.0027,-8.14421 -1.84582,-16.4057 -2.60156,-24.51562 -0.73658,-8.16612 -1.01171,-16.23811 -0.94531,-24.4375 0.29052,-19.66535 0.99066,-39.32238 1.44141,-58.98438 0.33246,-16.67014 0.84834,-33.34929 0.35742,-50.02148 -0.30855,-7.22165 -0.54923,-14.55162 -2.5293,-21.55078 -1.14289,-4.40565 -3.5211,-8.40292 -6.5918,-11.73633 -3.03868,-3.16957 -6.09867,-6.51762 -10.07617,-8.51758 -4.1372,-2.15284 -9.11637,-1.4782 -13.2539,0.30078 -4.15871,1.8831 -7.65495,4.95289 -10.8711,8.13868 -4.31169,4.54805 -8.42484,9.56573 -10.48828,15.57031 -2.39279,8.09133 -3.81209,16.43834 -5.03125,24.77734 -1.3054,8.63893 -2.07161,17.34855 -2.47656,26.07422 -0.37444,9.46863 -1.49976,18.96094 -0.61914,28.43359 -0.92403,-0.17537 -1.85373,-0.54413 -2.74805,-0.88867 -3.62833,-1.53578 -7.25783,-3.27544 -10.29101,-5.82617 -4.85012,-4.71535 -8.09148,-10.76179 -11.2461,-16.67187 -5.75866,-11.54006 -11.11864,-23.34242 -14.90234,-35.69336 -1.75459,-5.42832 -2.41247,-11.12025 -2.8457,-16.78516 -1.09873,-13.71252 -1.52797,-27.33061 -1.59571,-41.08789 0.001,-6.2198 -0.0653,-12.5127 0.23828,-18.64844 0.10778,-1.70674 0.24934,-3.62187 0.44336,-5.1914 0.51718,-4.24264 1.2614,-8.58724 1.94727,-12.88282 1.25637,-8.49094 2.87126,-17.02848 2.44726,-25.650388 -0.35241,-4.844906 -1.11062,-9.727744 -2.88476,-14.273437 -1.59895,-4.400053 -5.03863,-7.976863 -9.21094,-10.035156 -4.19341,-1.946307 -8.69489,-3.535317 -13.36133,-3.65625 z m -0.125,3.986328 c 2.33684,0.03081 4.91568,0.607914 7.97852,1.693359 8.50672,3.014707 11.34783,6.881397 13.11719,17.84961 1.15096,7.134746 0.67767,13.729304 -2.28125,31.757814 -2.20491,13.43436 -2.3273,15.19619 -2.32227,33.45312 0.005,18.9768 1.01789,40.10374 2.44531,51.02539 1.19571,9.1488 6.74708,24.27025 15.57617,42.42969 5.45595,11.22168 10.68796,18.99184 15.00391,22.2832 3.63455,2.77172 10.87,6.25778 14.14063,6.8125 1.57529,0.26718 3.37962,0.62373 4.00781,0.79297 1.00466,0.27067 1.06228,-0.32606 0.48047,-4.9707 -0.36379,-2.90416 -0.46241,-8.71797 -0.21875,-12.91797 0.24364,-4.2 0.73185,-13.2 1.08593,-20 0.85316,-16.38489 4.99729,-40.98276 7.96094,-47.25976 3.55808,-7.53603 13.22094,-17.32722 19.04492,-19.29883 6.19872,-2.09847 9.32611,-1.11851 15.2793,4.78906 12.12571,12.03277 12.3577,15.0048 9.41797,121.04297 -0.86183,31.08646 -0.67665,36.3846 2.21094,62.89844 1.30886,12.01809 1.57298,13.22727 3.24609,14.90039 1.53287,1.53286 2.56662,1.84046 6.5293,1.9414 2.5891,0.066 6.27002,0.33501 8.17968,0.59766 6.00052,0.82528 11.9305,-0.59528 17.48047,-4.18555 5.82552,-3.76852 8.36583,-6.78461 12.40625,-14.73242 7.0209,-13.81061 8.62252,-28.56304 6.26954,-57.7832 -0.92263,-11.45756 -1.33389,-24.2148 -1.3711,-42.54688 -0.0524,-25.78572 -0.0286,-26.24528 1.63867,-30.375 2.25155,-5.57698 4.57948,-8.19091 9.50586,-10.67773 5.88056,-2.9685 12.77911,-3.61608 16.94922,-1.5918 5.38889,2.61592 8.33417,5.69378 13.85938,14.48438 8.73646,13.89966 4.52992,11.48655 8.92578,32.20898 1.95142,7.83277 2.4088,15.72258 2.51758,23.40625 -0.003,2.1 0.37387,7.99989 0.83789,13.11133 1.39812,15.40128 -1.57034,43.93924 -6.14454,59.07031 -0.96738,3.2 -3.62943,12.03672 -5.91406,19.63672 -9.22279,30.68036 -10.56156,33.49144 -18.49804,38.81445 -2.25202,1.51043 -5.28154,3.56444 -6.73047,4.5625 -3.00018,2.06663 -14.86623,6.37034 -23.67383,8.58594 -3.2704,0.82268 -9.98056,1.79106 -14.91016,2.15234 -4.9296,0.36128 -10.27109,1.13203 -11.87109,1.71289 -1.6,0.58087 -4.54688,1.29393 -6.54688,1.58594 -7.2132,1.05315 -13.00305,6.86657 -15.66211,15.72266 -6.05669,20.17213 -6.90149,32.86289 -4.45117,66.86328 1.9544,27.11888 2.71452,42.17471 2.42383,48 -0.61651,12.35431 -6.98424,22.81728 -17.20703,28.27148 -2.4232,1.29287 -4.03287,1.5313 -9.81836,1.44922 -3.80592,-0.054 -9.11545,-0.49626 -11.79883,-0.98242 -5.01876,-0.90931 -5.63383,-1.21722 -10.69531,-5.3457 -1.635,-1.33362 -2.97266,-2.28134 -2.97266,-2.10742 0,0.17392 0.37165,1.37754 0.82422,2.67578 0.61704,1.77005 0.98918,2.1171 1.49219,1.38281 0.49728,-0.72591 0.61255,-0.60371 0.44141,0.47461 -0.44275,2.78932 -2.36607,1.50239 -4.03321,-2.69922 -3.24646,-8.18193 -3.95165,-12.46836 -3.60547,-21.9082 0.17844,-4.86578 0.684,-18.3375 1.125,-29.9375 0.44099,-11.6 1.14448,-32.05508 1.5625,-45.45508 0.56163,-18.00356 1.15305,-26.83191 2.26368,-33.81836 0.82662,-5.2 1.82156,-11.74492 2.21093,-14.54492 0.80531,-5.791 1.43013,-102.7395 0.72657,-112.72852 -0.4209,-5.9759 -0.58803,-6.53143 -1.91602,-6.39648 -0.8,0.0813 -8.1856,0.31983 -16.41211,0.53125 l -14.95703,0.38476 -5.04297,-2.46093 c -7.49732,-3.65828 -19.49778,-14.84668 -25.61914,-23.88672 -1.14696,-1.69384 -4.06311,-6.84336 -6.48047,-11.44336 -2.41736,-4.6 -5.07462,-9.51016 -5.9043,-10.91016 -2.41368,-4.07281 -7.27758,-16.24783 -8.93554,-22.36719 -0.83924,-3.09753 -2.45512,-7.77215 -3.5918,-10.38867 -1.13668,-2.6165 -2.43826,-6.87158 -2.89258,-9.45508 -0.45432,-2.58348 -1.13007,-18.77069 -1.50195,-35.9707 -0.37189,-17.2 -0.97221,-33.56328 -1.33203,-36.36328 -1.29908,-10.10891 -2.38616,-31.41716 -1.93945,-37.99609 0.58099,-8.55694 1.94968,-15.730512 5.17187,-27.117191 3.66827,-12.963067 7.16514,-19.94647 12.09961,-24.16211 3.69447,-3.156283 6.91973,-4.621669 10.81445,-4.570312 z m -1.68164,16.492187 c -0.9642,-0.02875 -1.97656,0.779858 -1.97656,1.91211 0,0.732546 0.39703,1.729057 0.88281,2.214844 0.69283,0.692826 1.09828,0.471956 1.88281,-1.025391 0.68147,-1.300613 0.76448,-2.145677 0.25782,-2.652344 -0.29857,-0.298564 -0.66958,-0.437969 -1.04688,-0.449219 z m 1.76367,18.808594 c -0.36824,0 -1.43139,0.616127 -2.36132,1.369141 -1.50886,1.221786 -1.59412,1.580305 -0.79688,3.330078 1.06148,2.32968 2.32902,2.116432 3.66016,-0.615235 0.98098,-2.013133 0.72694,-4.083984 -0.50196,-4.083984 z m -15.41211,21.156252 c -0.31905,0.0206 -0.7557,0.22726 -1.34375,0.59961 -1.2543,0.79422 -0.52733,2.9707 0.99219,2.9707 0.70314,0 1.11328,-0.67048 1.11328,-1.81836 0,-1.23774 -0.19297,-1.78864 -0.76172,-1.75195 z m 17.61719,15.93359 c -1.4948,0 -2.62472,1.81204 -1.88086,3.01563 0.76278,1.2342 2.83559,0.29961 3.07617,-1.38672 0.17302,-1.21267 -0.13265,-1.62891 -1.19531,-1.62891 z m -18.26953,8.14649 c -0.29233,-10e-4 -0.60608,0.12951 -0.89844,0.42187 -0.49018,0.49019 -0.4491,1.25707 0.12305,2.32617 0.93019,1.73808 1.6234,1.49276 1.95703,-0.69336 0.18179,-1.19115 -0.43457,-2.05153 -1.18164,-2.05468 z m 19.62695,17.45898 c -1.14126,-0.0195 -2.36826,1.84809 -1.86132,3.44531 0.65538,2.06495 2.84645,1.65314 3.16601,-0.5957 0.13387,-0.94205 -0.11401,-2.07108 -0.55078,-2.50781 -0.23202,-0.23202 -0.49054,-0.3373 -0.75391,-0.3418 z m -11.86718,4.25391 c -0.3716,-8e-4 -0.87836,0.13935 -1.5586,0.40039 -1.35321,0.51926 -1.51189,2.54279 -0.29492,3.75976 1.18591,1.18591 2.78125,-0.23268 2.78125,-2.47265 0,-1.171 -0.21832,-1.68598 -0.92773,-1.6875 z m 111.16211,23.23242 c -2.03895,0 -2.36237,0.67084 -0.98829,2.04492 1.11764,1.11764 2.32078,0.73664 2.625,-0.83203 0.1704,-0.87857 -0.28058,-1.21289 -1.63671,-1.21289 z m -96.7793,4.36328 c -1.54927,0 -1.81836,0.33434 -1.81836,2.25977 0,1.70976 0.2644,2.15855 1.08984,1.84179 0.6,-0.23024 1.11447,-0.0206 1.14258,0.4668 0.0712,1.23431 1.28888,-1.73439 1.35156,-3.29492 0.0356,-0.88635 -0.49939,-1.27344 -1.76562,-1.27344 z m -19.00195,5.0918 c -1.91385,0.0587 -2.39517,1.94858 -0.85352,3.49023 1.17301,1.17301 1.79408,1.09908 2.32227,-0.27734 0.86546,-2.25536 0.45483,-3.21289 -1.37696,-3.21289 -0.0311,0 -0.0614,-9.3e-4 -0.0918,0 z m 98.35351,5.45312 c -2.75949,0 -3.92443,1.80388 -2.7832,4.3086 1.03425,2.26993 3.42515,2.46949 4.54297,0.38086 0.43918,-0.82064 0.69543,-2.21049 0.57031,-3.08985 -0.1744,-1.22581 -0.71811,-1.59961 -2.33008,-1.59961 z m 22.08008,6.18164 c -1.83088,0 -2.62614,1.83453 -1.42383,3.28321 1.15456,1.39118 1.90685,1.37042 2.45899,-0.0684 0.8104,-2.11187 0.45609,-3.21485 -1.03516,-3.21485 z m -93.08789,12.36524 c -1.42625,0.0713 -2.58476,2.36356 -1.80274,3.6289 0.59904,0.96926 1.33883,0.9268 2.4043,-0.13867 1.38217,-1.38217 1.05993,-3.49023 -0.5332,-3.49023 -0.0228,0 -0.0457,-0.001 -0.0684,0 z m 176.20117,2.18164 c -1.77688,-5.6e-4 -2.15592,1.3714 -0.76367,2.76367 1.43685,1.43685 2.6176,0.99141 2.50586,-0.94531 -0.0789,-1.3689 -0.50984,-1.81798 -1.74219,-1.81836 z m -100.44141,1.45703 c -0.44446,0.0143 -0.90388,0.25271 -1.21484,0.75586 -0.58035,0.93902 1.0342,3.01029 1.91992,2.46289 0.35468,-0.2192 0.64453,-1.03416 0.64453,-1.81055 0,-0.90831 -0.65624,-1.43052 -1.34961,-1.4082 z m -98.22656,0.72461 c -1.74381,0 -2.96875,1.03216 -2.96875,2.50195 0,2.72875 1.12479,3.29269 2.625,1.31641 1.11458,-1.46827 1.32582,-3.81836 0.34375,-3.81836 z m 215.26953,3.63672 c -2.03316,0 -2.37455,0.98944 -0.94922,2.74609 0.67828,0.83595 1.27392,1.45997 1.32422,1.38672 0.0503,-0.0732 0.30838,-1.03281 0.57227,-2.13281 0.39937,-1.66476 0.23927,-2 -0.94727,-2 z m -97.95898,4.36328 c -1.27461,0.0527 -2.05351,1.75116 -1.47461,3.25976 0.62739,1.63491 2.65039,0.47515 2.65039,-1.51953 0,-1.078 -0.42343,-1.74023 -1.11328,-1.74023 -0.0205,0 -0.0423,-8.4e-4 -0.0625,0 z m 80.35156,4.39844 c -0.76577,-0.021 -1.55659,0.36092 -1.86328,1.16015 -0.63037,1.6427 1.75992,3.41297 3.01953,2.23633 0.49645,-0.46376 0.7506,-1.42491 0.56445,-2.13672 -0.21272,-0.81347 -0.95493,-1.23879 -1.7207,-1.25976 z m -110.4375,6.00976 c -0.30469,-0.005 -0.65201,0.0651 -1.03711,0.21289 -1.52666,0.58584 -1.47272,2.2186 0.10156,3.09961 1.56867,0.87787 2.37891,0.41619 2.37891,-1.35742 0,-1.25524 -0.52929,-1.94032 -1.44336,-1.95508 z m 137.48633,3.41016 c -1.77852,0 -2.45034,1.05209 -1.85938,2.91406 0.37298,1.17512 0.72404,1.30607 1.86524,0.69531 0.77315,-0.41376 1.40625,-1.3957 1.40625,-2.18164 0,-0.92962 -0.49376,-1.42773 -1.41211,-1.42773 z m -206.45508,0.74414 c -0.67598,0.004 -1.38421,0.23761 -1.99219,0.74219 -1.46052,1.21212 -1.31265,2.61509 0.46289,4.39062 1.4552,1.4552 1.56884,1.46267 2.94336,0.21875 0.87527,-0.79212 1.34722,-2.01218 1.21485,-3.14844 -0.16085,-1.3807 -1.33841,-2.21109 -2.62891,-2.20312 z m 92.93555,1.4375 c -2.03556,0 -2.728,2.14851 -1.08008,3.35351 1.67356,1.22374 2.55664,0.67951 2.55664,-1.57812 0,-1.29955 -0.39508,-1.77539 -1.47656,-1.77539 z m 96.33398,3.63672 c -1.06754,0.0468 -1.42662,1.55191 -0.55469,2.42382 0.92203,0.92203 1.69727,0.47821 1.69727,-0.9707 0,-0.80808 -0.48573,-1.45312 -1.0918,-1.45312 -0.0173,0 -0.0338,-7.5e-4 -0.0508,0 z m -175.55859,5.08984 c -1.88487,0 -2.68566,1.82153 -1.45313,3.30664 1.27667,1.53828 2.47498,0.94333 2.74805,-1.36328 0.18496,-1.56241 -0.0687,-1.94336 -1.29492,-1.94336 z m 161.48242,4.36328 c -0.82932,0 -1.50781,0.43737 -1.50781,0.9707 0,2.22746 2.35451,2.43257 2.77929,0.24219 0.15856,-0.8175 -0.25477,-1.21289 -1.27148,-1.21289 z m -185.45508,2.18164 c -1.66177,0 -1.70999,0.0833 -1.05468,1.79102 0.55381,1.44318 2.00612,1.08218 2.32812,-0.57813 0.15856,-0.81752 -0.25674,-1.21289 -1.27344,-1.21289 z m 82.44922,4.36524 c -1.89728,0 -2.33256,1.33346 -0.90234,2.76367 1.13685,1.13684 1.66826,1.09945 2.73633,-0.1875 1.17446,-1.41513 0.34786,-2.57617 -1.83399,-2.57617 z m 133.84375,0 c -1.93681,0 -2.62024,1.25732 -1.67773,3.08984 0.80502,1.56524 1.61926,1.6073 3.0664,0.16016 1.4724,-1.4724 0.71265,-3.25 -1.38867,-3.25 z m -177.14258,2.2832 c -0.61245,-0.002 -1.21946,0.16673 -1.59179,0.53906 -0.55287,0.55287 -0.37947,1.21912 0.59765,2.29883 1.3049,1.44188 1.42442,1.45372 2.32031,0.22852 0.5194,-0.71034 0.82996,-1.63266 0.69141,-2.04883 -0.21462,-0.64476 -1.12245,-1.01449 -2.01758,-1.01758 z m 160.12305,1.35156 c -0.82933,0 -1.50781,0.43737 -1.50781,0.97071 0,2.22745 2.35451,2.43254 2.77929,0.24218 0.15856,-0.81752 -0.25477,-1.21289 -1.27148,-1.21289 z m -92.75195,4.44336 c -0.16361,0.002 -0.35308,0.022 -0.56836,0.0527 -2.01979,0.28816 -2.47151,2.20817 -0.89258,3.78711 1.56483,1.56484 2.52148,0.86976 2.52148,-1.83008 0,-1.56257 -0.17705,-2.02257 -1.06054,-2.00977 z m -53.45508,0.9043 c -0.34747,0.007 -0.72843,0.14669 -1.09766,0.45312 -0.8614,0.7149 -0.93536,1.17602 -0.30664,1.9336 1.08908,1.31225 2.04725,1.25733 2.58594,-0.14649 0.48603,-1.26656 -0.22099,-2.25927 -1.18164,-2.24023 z m 14.80273,5.16211 c -0.19197,2e-5 -0.53615,0.14575 -1.07031,0.43164 -1.73772,0.93 -2.4471,2.44227 -1.86133,3.96875 0.66496,1.73289 1.85073,1.26858 2.32813,-0.91016 0.24104,-1.1 0.56702,-2.41653 0.72461,-2.92578 0.11726,-0.37894 0.0965,-0.56447 -0.1211,-0.56445 z m -50.91992,2.58203 c -1.40405,0.0218 -1.73047,0.39472 -1.73047,1.86914 0,1.52199 0.30401,1.826 1.63672,1.63672 1.05161,-0.14935 1.71978,-0.81753 1.86914,-1.86914 0.18927,-1.33271 -0.11474,-1.63672 -1.63672,-1.63672 -0.0476,0 -0.0934,-7e-4 -0.13867,0 z m 170.45899,2.28906 c -1.33098,0.0151 -1.82532,1.28602 -0.76954,2.3418 0.8473,0.84729 2.76172,0.15155 2.76172,-1.00391 0,-0.59452 -0.73476,-1.18664 -1.63476,-1.31445 -0.12437,-0.0177 -0.24463,-0.0247 -0.35742,-0.0234 z m -147.09766,2.07422 c -1.11365,0 -1.49062,1.54061 -0.5957,2.43555 0.48834,0.48834 1.65404,-0.82681 1.67578,-1.89063 0.007,-0.3 -0.48008,-0.54492 -1.08008,-0.54492 z m 177.91211,2.18164 c -1.77323,0 -2.43821,0.9156 -1.82422,2.51563 0.64564,1.68249 2.7744,1.06414 3.05273,-0.88672 0.17463,-1.22399 -0.12976,-1.62891 -1.22851,-1.62891 z m -127.80274,2.91016 c -1.23845,0.0236 -1.74609,0.41464 -1.74609,1.33203 0,2.81893 3.10846,3.08229 3.50586,0.29687 0.189,-1.32473 -0.11688,-1.6289 -1.63672,-1.6289 -0.0415,0 -0.0831,-7.6e-4 -0.12305,0 z m 110.25391,3.63476 c -1.41497,0 -2.05644,2.06659 -0.97656,3.14649 0.65545,0.65545 2.43164,-0.91107 2.43164,-2.14453 0,-0.55103 -0.65508,-1.00196 -1.45508,-1.00196 z m -143.00195,2.26563 c -0.77703,0.0159 -0.99805,0.42661 -0.99805,1.53906 0,2.58668 1.5541,3.85581 2.73828,2.23633 0.51691,-0.70692 0.84611,-1.78288 0.73047,-2.39063 -0.1156,-0.60773 -0.94392,-1.20812 -1.83984,-1.33593 -0.24266,-0.0346 -0.45155,-0.0525 -0.63086,-0.0488 z m -19.08008,4.24219 c -0.42455,-10e-4 -0.87142,0.24827 -1.21289,0.80078 -0.70052,1.13346 0.17951,2.875 1.45312,2.875 0.70314,0 1.11524,-0.6705 1.11524,-1.81836 0,-1.15499 -0.64789,-1.85507 -1.35547,-1.85742 z m 175.04297,2.96484 c -0.95643,-0.0139 -2.04526,0.37064 -2.33399,1.12305 -0.24076,0.62744 0.12517,1.88765 0.8125,2.79882 l 1.25,1.65625 0.92774,-1.79101 c 0.51069,-0.98433 0.92773,-2.2426 0.92773,-2.79688 0,-0.65521 -0.74007,-0.97793 -1.58398,-0.99023 z m -110.65821,1.07617 c -0.26169,0.007 -0.52401,0.10995 -0.75585,0.3418 -0.75471,0.75469 -0.088,2.92773 0.89843,2.92773 0.36975,0 0.88233,-0.54681 1.13868,-1.21484 0.40448,-1.05407 -0.42637,-2.07651 -1.28126,-2.05469 z m 88.24219,3.26953 c -1.40158,0 -1.96988,1.42465 -0.96875,2.42578 1.00114,1.00114 2.42383,0.43089 2.42383,-0.9707 0,-0.96971 -0.48538,-1.45508 -1.45508,-1.45508 z m -108.36328,1.45508 c -0.92563,0 -1.45508,0.48551 -1.45508,1.33398 0,2.3514 1.70359,3.14634 2.46875,1.15235 0.73762,-1.92216 0.50726,-2.48633 -1.01367,-2.48633 z m 104.24219,10.18164 c -0.53333,0 -0.96875,0.65508 -0.96875,1.45508 0,1.65371 1.82435,1.98054 2.41797,0.43359 0.45642,-1.18941 -0.0812,-1.88867 -1.44922,-1.88867 z m -84.72266,2.83984 c -0.94806,-0.005 -2.02579,0.57163 -2.3125,1.66797 -0.2299,0.87918 -0.0577,2.03355 0.38282,2.56446 0.65833,0.79324 1.04076,0.74637 2.15039,-0.25782 0.74264,-0.67209 1.35156,-1.8245 1.35156,-2.5625 0,-0.95064 -0.73574,-1.40796 -1.57227,-1.41211 z m 112.76953,4.4336 c -1.54095,0.0434 -1.82719,1.44234 -0.53515,2.73437 1.09182,1.09183 2.06445,0.46892 2.06445,-1.32226 0,-0.92678 -0.50013,-1.41211 -1.45508,-1.41211 -0.0251,0 -0.0498,-6.9e-4 -0.0742,0 z m -8.81836,2.4375 c -0.24966,4.8e-4 -0.51847,0.053 -0.80273,0.16211 -1.42783,0.5479 -1.56842,1.84563 -0.33203,3.08203 1.137,1.137 2.32301,0.7282 2.64062,-0.91016 0.26742,-1.37945 -0.42399,-2.33608 -1.50586,-2.33398 z m -119.56835,3.49414 c -1.04537,0.0214 -1.41329,1.40507 -0.49219,2.32617 0.76233,0.76232 2.04492,0.11314 2.04492,-1.03515 0,-0.56119 -0.57344,-1.13082 -1.27344,-1.26563 -0.0979,-0.0189 -0.1907,-0.0272 -0.27929,-0.0254 z m 98.00585,12.22852 c -0.35324,0.015 -0.72603,0.17329 -1.05273,0.5 -0.55057,0.55057 0.8256,2.42968 1.7793,2.42968 0.35102,0 0.63867,-0.65312 0.63867,-1.45312 0,-0.939 -0.64192,-1.50737 -1.36524,-1.47656 z m -75.38476,2.92968 c -2.14247,0 -3.08258,1.72462 -1.78906,3.28321 1.08698,1.30974 1.61499,1.34983 2.75586,0.20898 1.57541,-1.57541 1.0456,-3.49219 -0.9668,-3.49219 z m 99.38867,2.91016 c -1.77323,0 -2.43625,0.9156 -1.82226,2.51562 0.64563,1.6825 2.7744,1.06416 3.05273,-0.88672 0.17463,-1.22397 -0.13172,-1.6289 -1.23047,-1.6289 z m -117.18555,2.9082 c -1.60573,0 -1.92192,1.42183 -0.60937,2.73438 1.09183,1.09182 2.06445,0.46892 2.06445,-1.32227 0,-0.92677 -0.50013,-1.41211 -1.45508,-1.41211 z m 85.48438,7.35352 c -0.16361,0.002 -0.35113,0.0201 -0.56641,0.0508 -2.01978,0.28816 -2.47346,2.20817 -0.89453,3.78711 1.56483,1.56482 2.52344,0.86977 2.52344,-1.83008 0,-1.56257 -0.17902,-2.02062 -1.0625,-2.00781 z m -99.19727,0.24218 c -0.43258,0.005 -0.83004,0.1113 -1.06836,0.34961 -1.1563,1.15631 0.88872,3.20496 2.15235,2.15625 0.54693,-0.45392 0.99414,-1.07653 0.99414,-1.38476 0,-0.65276 -1.12644,-1.13269 -2.07813,-1.1211 z m 34.80469,6.22266 c -1.41497,0 -2.05644,2.06659 -0.97656,3.14649 0.65545,0.65545 2.43164,-0.91107 2.43164,-2.14454 0,-0.55102 -0.65508,-1.00195 -1.45508,-1.00195 z m 83.6543,5.0918 c -1.63911,0 -2.23454,1.36546 -1.34766,3.08984 0.87841,1.70791 2.57885,1.6127 3.14649,-0.17578 0.5849,-1.84287 -0.0772,-2.91406 -1.79883,-2.91406 z m -101.06641,2.18164 c -1.67361,0 -2.51118,1.11049 -1.94726,2.58008 0.49289,1.28445 1.3239,1.34602 2.48632,0.18359 1.32483,-1.32483 1.04411,-2.76367 -0.53906,-2.76367 z m 58.82422,0.72656 c -0.884,0 -1.41211,0.49901 -1.41211,1.33399 0,2.42189 2.38031,3.27541 3.19727,1.14648 0.59572,-1.55243 -0.0716,-2.48047 -1.78516,-2.48047 z m -23.62891,1.45508 c -1.27769,0 -2.01248,1.25982 -1.50586,2.58008 0.49663,1.2942 2.39357,1.39227 2.82813,0.14648 0.4656,-1.3348 -0.2098,-2.72656 -1.32227,-2.72656 z m 34.03907,1.80273 c -0.10574,7.9e-4 -0.20029,0.0254 -0.2793,0.0742 -0.92835,0.57375 -0.0413,1.75977 1.31641,1.75977 0.9245,0 0.96901,-0.20351 0.23828,-1.08399 -0.38618,-0.46531 -0.89777,-0.75282 -1.27539,-0.75 z m -83.37891,2.98243 c -0.20129,0.008 -0.46218,0.21999 -0.85742,0.61523 -0.57266,0.57267 -1.04102,1.55503 -1.04102,2.18359 0,1.26666 1.83858,1.56253 2.55078,0.41016 0.24942,-0.40357 0.24522,-1.38789 -0.008,-2.18555 -0.22466,-0.70782 -0.38573,-1.03375 -0.64453,-1.02343 z m 97.76172,0.4375 c -0.27498,9.5e-4 -0.56953,0.12226 -0.84766,0.40039 -0.89037,0.89037 -0.37325,3.10351 0.72461,3.10351 0.36975,0 0.88081,-0.546 1.13672,-1.21289 0.46444,-1.21032 -0.18874,-2.29387 -1.01367,-2.29101 z m -40.89844,10.08203 c -0.3809,-0.002 -0.90701,0.13988 -1.61133,0.41015 -1.34954,0.51787 -1.51272,2.54002 -0.30273,3.75 0.99972,0.99972 2.72754,-0.82448 2.76562,-2.91992 0.0152,-0.84151 -0.21673,-1.23762 -0.85156,-1.24023 z m -32.39648,0.6914 c -0.39968,0.006 -0.822,0.15794 -1.14649,0.48243 -0.65769,0.65769 0.9726,2.51057 1.77344,2.01562 0.35467,-0.2192 0.64453,-0.87087 0.64453,-1.44727 0,-0.66816 -0.60535,-1.06094 -1.27148,-1.05078 z m 13.63476,2.91211 c -1.63792,0 -1.98824,2.08598 -0.58593,3.48828 1.01145,1.01146 2.0106,-0.0794 2.02929,-2.21484 0.007,-0.7916 -0.53868,-1.27344 -1.44336,-1.27344 z m 73.50781,0 c -0.82933,0 -1.50781,0.43737 -1.50781,0.97071 0,2.22745 2.35647,2.43256 2.78125,0.24218 0.15856,-0.8175 -0.25674,-1.21289 -1.27344,-1.21289 z m -32.14257,0.49805 c -0.77815,0.0402 -1.52897,0.93206 -1.12891,1.97461 0.50305,1.31096 1.63569,1.52897 2.30664,0.44336 0.24525,-0.39683 0.17701,-1.20013 -0.15039,-1.78516 -0.2618,-0.46782 -0.64732,-0.65244 -1.02734,-0.63281 z m -80.77539,2.83984 c -0.0955,0.003 -0.20861,0.0297 -0.33985,0.0801 -1.03569,0.39743 -1.30281,1.83195 -0.49219,2.64258 0.71211,0.71211 0.76856,0.65013 1.13477,-1.26563 0.19489,-1.01946 0.111,-1.46857 -0.30273,-1.45703 z m 92.41406,0.70703 c -0.17628,0.005 -0.38918,0.0436 -0.64063,0.10938 -1.62622,0.42527 -1.8832,1.67149 -0.60937,2.94531 1.15289,1.1529 2.06445,0.43721 2.06445,-1.61914 0,-1.05399 -0.18487,-1.45414 -0.81445,-1.43555 z m -81.23047,3.23633 c -0.24249,0.002 -0.46056,0.0738 -0.62109,0.23438 -0.23216,0.23217 -0.22851,0.92767 0.008,1.54492 0.55775,1.45347 2.6582,1.46001 2.6582,0.008 0,-0.90721 -1.17887,-1.79306 -2.04492,-1.78711 z m 51.42187,5.81055 c -1.57923,0 -1.86709,2.12704 -0.47656,3.51758 0.71431,0.71432 1.0775,0.65468 1.76758,-0.28906 0.47788,-0.65354 0.69188,-1.64787 0.47656,-2.20899 -0.21532,-0.56112 -1.01036,-1.01953 -1.76758,-1.01953 z m -21.74023,6.54492 c -1.40159,0 -1.96988,1.4227 -0.96875,2.42383 1.00113,1.00115 2.42383,0.43285 2.42383,-0.96875 0,-0.96969 -0.48537,-1.45508 -1.45508,-1.45508 z m -41.11914,4.05078 c -0.20293,0.0164 -0.3712,0.37392 -0.5625,1.10547 -0.2362,0.90323 -0.26289,1.9116 -0.0586,2.24219 0.65654,1.06231 1.73999,0.64297 1.72851,-0.66992 -0.005,-0.7 -0.28661,-1.71033 -0.625,-2.24414 -0.18751,-0.29582 -0.34358,-0.44479 -0.48242,-0.4336 z m 22.01367,1.7793 c -0.65943,0.006 -1.25781,0.48359 -1.25781,1.32226 0,0.73334 0.22575,1.55976 0.50195,1.83594 0.74214,0.74215 2.66157,-1.44164 2.08594,-2.37304 -0.33531,-0.54255 -0.84887,-0.78923 -1.33008,-0.78516 z m -11.75976,10.89844 c -1.42799,0 -2.04674,1.17898 -1.50782,2.87695 0.61274,1.93056 2.55469,1.06675 2.55469,-1.13672 0,-1.03047 -0.42637,-1.74023 -1.04687,-1.74023 z m 20.92382,8.31445 c -0.14353,-8.3e-4 -0.32644,0.0428 -0.55078,0.12891 -1.34448,0.51592 -1.57159,2.72844 -0.23437,2.2832 0.5,-0.16648 1.01351,-0.84627 1.14258,-1.51172 0.1176,-0.60643 0.009,-0.89826 -0.35743,-0.90039 z m -29.98046,2.59375 c -1.04751,0 -1.53321,0.46076 -1.53321,1.45508 0,0.80808 0.48575,1.45312 1.0918,1.45312 0.6,0 1.08984,-0.13545 1.08984,-0.30273 0,-0.16728 0.19861,-0.82236 0.44141,-1.45508 0.31647,-0.82469 0.009,-1.15039 -1.08984,-1.15039 z m 19.35156,2.89453 c -0.87888,-0.008 -1.85276,0.94205 -1.5,1.86133 0.40766,1.06235 0.55828,1.06664 1.58008,0.0449 0.62149,-0.62149 0.9191,-1.34067 0.66015,-1.59961 v -0.002 c -0.21032,-0.21033 -0.47119,-0.30222 -0.74023,-0.30469 z m -14.90235,13.93164 c -0.62088,0.007 -0.89062,0.43125 -0.89062,1.35547 0,1.09539 0.3785,1.48838 1.27148,1.31641 0.7,-0.1348 1.27344,-0.72736 1.27344,-1.31641 0,-0.58904 -0.57344,-1.18159 -1.27344,-1.31641 -0.13953,-0.0269 -0.26588,-0.0403 -0.38086,-0.0391 z m 19.53321,3.94922 c -0.55575,-0.002 -0.78711,0.30988 -0.78711,0.99023 0,2.29192 1.71424,3.04515 2.46679,1.08399 0.60456,-1.57543 0.62124,-1.5412 -1.01367,-1.96875 -0.26073,-0.0682 -0.48076,-0.10477 -0.66601,-0.10547 z m -31.3418,6.30664 c -0.28476,0.004 -0.56845,0.11337 -0.80664,0.35156 -0.98511,0.98511 0.0106,3.09606 1.23828,2.625 0.56689,-0.21753 1.03125,-0.83163 1.03125,-1.36523 0,-0.94667 -0.73518,-1.62148 -1.46289,-1.61133 z m 26.49805,4.19141 c -0.57429,0.0294 -1.03516,0.50859 -1.03516,1.08984 0,0.6 0.4918,1.0918 1.0918,1.0918 0.6,0 1.08984,-0.4918 1.08984,-1.0918 0,-0.6 -0.48984,-1.08984 -1.08984,-1.08984 -0.0188,0 -0.0381,-9.5e-4 -0.0566,0 z m -13.35547,5.08984 c -1.67361,0 -2.51314,1.11049 -1.94922,2.58008 0.53963,1.40621 2.36675,1.34774 2.91992,-0.0937 0.7337,-1.91195 0.50914,-2.48633 -0.9707,-2.48633 z m 14.27344,10.23828 c -0.2328,0.009 -0.5071,0.07 -0.81836,0.18946 -0.6392,0.24528 -0.92879,0.90088 -0.68164,1.54492 0.55133,1.43674 1.65301,1.43492 2.20507,-0.004 0.42872,-1.11721 0.12633,-1.76206 -0.70507,-1.73047 z m -26.31641,5.03516 c -1.12465,0 -1.44599,0.85869 -0.62695,1.67773 0.58104,0.58104 1.71679,-0.077 1.71679,-0.99414 0,-0.37638 -0.48984,-0.68359 -1.08984,-0.68359 z m 16.63086,0.7793 c -1.90781,0.005 -2.45616,0.53525 -1.95703,1.83593 0.51061,1.33063 2.41601,1.32325 2.41601,-0.01 0,-0.56667 0.41016,-1.19474 0.91016,-1.39649 0.5,-0.20174 0.0626,-0.39225 -0.9707,-0.42382 -0.13937,-0.004 -0.27125,-0.006 -0.39844,-0.006 z m 14.64258,7.94726 c -1.09544,0 -1.49617,1.5351 -0.62696,2.4043 0.67872,0.67872 1.7168,-0.14046 1.7168,-1.35547 0,-0.5764 -0.48984,-1.04883 -1.08984,-1.04883 z m -34.1836,12.36328 c -1.98154,0 -1.29321,2.15577 0.91016,2.85156 0.1,0.0316 0.18164,-0.59648 0.18164,-1.39648 0,-0.80808 -0.48573,-1.45508 -1.0918,-1.45508 z m 35.31641,0 c -0.91708,0 -1.57323,1.13576 -0.99219,1.7168 0.81906,0.81904 1.67578,0.49965 1.67578,-0.625 0,-0.6 -0.3072,-1.0918 -0.68359,-1.0918 z m -19.31641,1.45508 c -1.13569,0 -1.44229,0.86044 -0.60547,1.69727 0.83683,0.83682 1.69727,0.53021 1.69727,-0.60547 0,-0.6 -0.4918,-1.0918 -1.0918,-1.0918 z m 6.91407,17.45508 c -0.40546,0.0196 -0.73047,0.33906 -0.73047,0.72656 0,0.4 0.14391,0.72852 0.32031,0.72852 0.17639,0 0.52232,-0.32852 0.76953,-0.72852 0.24723,-0.4 0.10333,-0.72656 -0.32031,-0.72656 -0.0132,0 -0.026,-6.3e-4 -0.0391,0 z m 9.81445,0 c -2.02953,0 -2.13931,0.22395 -1.08008,2.20312 0.89996,1.68159 2.89844,1.11187 2.89844,-0.82617 0,-0.98365 -0.51927,-1.37695 -1.81836,-1.37695 z m -34.18164,0.72656 c -1.09544,0 -1.49617,1.5351 -0.62695,2.4043 0.67872,0.67872 1.71679,-0.14046 1.71679,-1.35547 0,-0.5764 -0.48984,-1.04883 -1.08984,-1.04883 z m 12.01172,10.35156 c -1.31227,-0.0184 -1.75667,1.61834 -0.27344,3.10157 1.19303,1.19302 1.29001,1.17179 1.87305,-0.4043 0.41928,-1.13343 0.31888,-1.84929 -0.31641,-2.25195 -0.48027,-0.3044 -0.91577,-0.44016 -1.2832,-0.44532 z m -12.01172,1.28516 c -0.6,0 -1.0918,0.4918 -1.0918,1.0918 0,0.6 0.4918,1.08984 1.0918,1.08984 0.6,0 1.08984,-0.48984 1.08984,-1.08984 0,-0.6 -0.48984,-1.0918 -1.08984,-1.0918 z m 31.92578,10.21289 c -0.95824,0.0186 -1.18607,0.66117 -0.69141,1.9375 0.47543,1.22669 0.56851,1.21782 1.58008,-0.15039 0.95912,-1.29724 0.94873,-1.48168 -0.10742,-1.70117 -0.29896,-0.0621 -0.56012,-0.0902 -0.78125,-0.0859 z m -31.43555,0.79297 c -1.24373,0.0362 -1.0802,1.8813 0.41797,2.75391 1.69991,0.99009 1.6626,1.01282 1.37891,-0.85157 -0.13695,-0.9 -0.79063,-1.74177 -1.45117,-1.87109 -0.12567,-0.0246 -0.24031,-0.0343 -0.34571,-0.0312 z m 18.74219,12.26758 c -0.91723,0.0284 -1.41406,0.49558 -1.41406,1.33203 0,2.76481 2.37574,2.97533 2.77734,0.24609 0.17467,-1.1871 -0.14214,-1.57812 -1.27344,-1.57812 -0.0304,0 -0.0602,-9.2e-4 -0.0898,0 z"
         transform="matrix(0.75000002,0,0,-0.75000002,0,883.63645)"
         inkscape:label="mask" /></g></g></svg>
