<?xml version="1.0" encoding="UTF-8" standalone="no"?>
<!-- Created with Inkscape (http://www.inkscape.org/) -->

<svg
   version="1.1"
   id="svg2"
   xml:space="preserve"
   width="172.7197"
   height="203.21037"
   viewBox="0 0 172.7197 203.21038"
   sodipodi:docname="chicken.svg"
   inkscape:version="1.1 (c68e22c387, 2021-05-23)"
   xmlns:inkscape="http://www.inkscape.org/namespaces/inkscape"
   xmlns:sodipodi="http://sodipodi.sourceforge.net/DTD/sodipodi-0.dtd"
   xmlns="http://www.w3.org/2000/svg"
   xmlns:svg="http://www.w3.org/2000/svg"><defs
     id="defs6" /><sodipodi:namedview
     id="namedview4"
     pagecolor="#505050"
     bordercolor="#eeeeee"
     borderopacity="1"
     inkscape:pageshadow="0"
     inkscape:pageopacity="0"
     inkscape:pagecheckerboard="0"
     showgrid="false"
     inkscape:zoom="4.1915716"
     inkscape:cx="67.692737"
     inkscape:cy="100.24125"
     inkscape:window-width="3840"
     inkscape:window-height="2066"
     inkscape:window-x="-11"
     inkscape:window-y="-11"
     inkscape:window-maximized="1"
     inkscape:current-layer="g8"
     inkscape:snap-global="false"
     inkscape:rotation="1"
     fit-margin-top="0"
     fit-margin-left="0"
     fit-margin-right="0"
     fit-margin-bottom="0" /><g
     id="g8"
     inkscape:groupmode="layer"
     inkscape:label="base"
     transform="matrix(1.3333333,0,0,-1.3333333,-1346.2041,996.02749)"><path
       id="path10013"
       style="fill:#000000;stroke-width:0.999998"
       d="m 1062.375,596.125 c -1.4942,0.26667 -2.0689,2.16168 -1.4759,3.43362 0.7858,2.19617 2.4093,3.77159 3.4597,5.84341 1.1069,2.37353 2.4207,4.69831 3.0605,7.25244 0.4099,2.52362 0.054,5.04411 0.062,7.57458 -0.1969,5.61372 -0.3293,11.25176 0.2964,16.84517 -4.1564,1.06107 -8.6291,2.0174 -11.8606,5.04894 -2.5563,2.15423 -4.6918,4.79683 -6.2124,7.77687 -0.2704,0.67482 -0.9808,-0.36381 -1.4532,-0.47538 -2.8986,-1.73273 -5.7596,-3.86603 -9.2155,-4.37122 -3.9702,-0.5949 -8.3918,0.39179 -11.2535,3.3334 -1.7338,1.8423 -2.7151,4.65139 -1.6591,7.07801 0.3187,0.79509 0.638,1.58988 0.9571,2.38477 -2.3961,0.55497 -4.8336,1.29838 -6.7405,2.92379 -2.3559,1.83619 -3.9015,4.82261 -3.5222,7.84796 0.4218,3.39165 2.6964,6.13759 4.8911,8.60154 0.6759,0.54258 0.6258,0.8714 -0.2611,0.95391 -3.0326,0.78757 -6.1472,1.96677 -8.2379,4.41402 -1.7476,1.94766 -2.521,4.75783 -1.7779,7.29589 0.4349,2.24573 1.1872,4.5116 2.7129,6.26367 0.4148,1.73965 1.8999,2.92988 3.1364,4.11197 0.8471,0.75096 1.6692,1.41073 2.5285,2.0294 0.5961,0.42396 1.1909,0.84977 1.7863,1.27465 -1.737,1.77626 -3.4294,3.71532 -4.1835,6.13376 -0.7164,2.03658 -0.7555,4.37771 0.3487,6.28794 1.7239,3.25497 5.2038,5.03006 8.5575,6.16619 2.1918,0.72134 4.5865,1.136 6.7793,1.32812 1.2907,0.10765 2.8244,0.08 4.2086,0.0159 3.2199,-0.18501 6.4457,-0.49522 9.6133,-1.11088 3.5541,-0.75316 6.937,-2.45519 9.4491,-5.11091 3.3007,-3.29291 5.7448,-7.35058 7.7135,-11.54832 0.9762,-2.43116 1.8065,-4.92191 2.741,-7.36657 1.3489,-4.65233 1.5326,-9.52852 1.628,-14.34013 2.2248,0.37896 4.4105,0.95894 6.5387,1.69761 0.9375,0.12646 2.0584,0.20316 2.8851,0.25161 3.9198,0.14654 7.8455,0.0672 11.7613,0.33385 4.3328,0.19315 8.6621,0.46639 12.9809,0.86537 0.5262,3.62697 0.8311,7.28701 1.2903,10.86927 0.3687,3.35101 1.4306,6.57706 1.7668,9.93287 0.2531,2.13656 0.5125,4.19851 0.8491,6.33263 -1.8256,0.67104 -3.5762,1.64874 -4.8246,3.17446 -1.8129,2.18134 -3.2285,4.84328 -3.4818,7.70467 -0.1892,1.94847 0.3392,3.91621 1.3768,5.56032 0.3437,0.8569 -0.1809,1.65211 -0.4958,2.41084 -0.9392,2.3915 0.2863,5.16501 2.3774,6.50843 1.7597,1.24086 3.9709,1.58545 6.0812,1.49675 1.0042,2.01216 2.6885,4.02677 5.0721,4.25772 2.6372,0.43517 5.723,-0.44856 7.089,-2.9012 1.8005,-2.93907 1.5857,-6.55952 1.1514,-9.8409 0.085,-0.98616 0.9866,-1.59842 1.9024,-1.71094 2.8508,-1.15191 4.2693,-4.20038 4.902,-7.02924 0.401,-1.86276 0.6416,-3.75515 0.9847,-5.62896 2.2649,-0.71137 4.6748,-0.66049 6.9566,-1.27463 1.1582,-0.19614 2.0202,-1.22258 2.0613,-2.38949 0.1728,-1.40705 -0.6536,-2.92483 -2.0914,-3.26082 -1.4239,-0.4507 -2.8475,-1.1751 -4.0827,-2.08733 -1.0811,-0.742 -2.1528,-1.63655 -2.7807,-2.78653 -0.5966,-6.73797 -0.7685,-13.50512 -1.1067,-20.25936 -0.1426,-3.27676 -0.2797,-6.55378 -0.4232,-9.83051 2.0409,-2.25674 3.117,-5.19672 3.5858,-8.16562 0.4685,-2.60106 0.267,-5.33223 -0.7678,-7.77786 -1.7199,-4.9829 -4.7057,-9.59548 -8.9103,-12.83106 -4.8105,-3.85157 -10.5321,-6.29802 -16.1356,-8.74495 -0.8536,-0.33195 -1.6925,-0.70054 -2.5397,-1.04887 0.126,-4.33964 0.924,-8.62386 1.1211,-12.95899 4.1775,-1.24811 8.3604,-2.53376 12.3164,-4.38867 1.125,-0.4772 2.4496,-0.30989 3.5113,-0.91593 0.9757,-0.71877 1.1086,-2.28845 0.1549,-3.09075 -1.5842,-1.69805 -4.1695,-1.83243 -6.3009,-1.3566 -1.2032,0.1582 -2.1639,-1.18359 -1.709,-2.28515 0.6375,-1.67241 1.2287,-3.50112 0.9297,-5.31055 -0.3117,-1.12662 -1.7549,-1.87032 -2.7546,-1.08668 -1.5463,1.02872 -2.5449,2.66089 -3.7604,4.03128 -1.0329,1.25671 -2.0794,2.50243 -3.1178,3.75462 -0.7776,-3.34604 -1.1333,-7.05773 -3.5098,-9.73828 -1.0514,-1.37634 -3.4264,-1.43296 -4.3771,0.0901 -1.1409,1.82447 -0.4733,4.05482 -0.3513,6.05184 0.5245,4.47274 1.3156,8.98427 0.7429,13.49469 -0.3471,4.00619 -1.0323,7.97414 -1.8524,11.90827 -5.3901,-0.66467 -10.8275,-0.62104 -16.248,-0.59571 -0.1496,-5.70438 -0.2982,-11.40879 -0.4434,-17.11328 1.7973,-1.61257 3.2646,-3.72429 5.5195,-4.73046 2.4983,-0.72941 5.2849,-0.59382 7.5593,-1.99954 1.2978,-0.71404 1.8775,-2.43247 1.1596,-3.75237 -0.4273,-1.02897 -1.5595,-1.74442 -2.6756,-1.43998 -3.6879,0.43463 -7.2305,1.61086 -10.8558,2.36962 0.4662,-2.46537 1.4144,-4.90443 1.2227,-7.44727 0.056,-1.25461 -1.4282,-2.21925 -2.5254,-1.55078 -2.0042,0.9485 -3.0175,3.06603 -4.3111,4.74742 -0.3464,0.97466 -0.7274,-5.8e-4 -1.0987,-0.42733 -2.0227,-2.71544 -4.2064,-5.35365 -6.799,-7.54258 -0.4665,-0.31597 -1.0272,-0.51095 -1.5959,-0.44157 z"
       inkscape:label="bg" /><path
       id="path844"
       style="fill:#ffffff;stroke-width:1.33333"
       d="M 138.90625 0.001953125 C 138.39878 0.011286455 137.89604 0.050073965 137.39844 0.11914062 C 133.89097 0.31707396 130.99935 2.8502924 129.37695 5.8222656 C 125.71202 5.7658656 121.85423 7.0750147 119.35156 9.8632812 C 117.01903 12.326041 116.15535 16.088151 117.41602 19.271484 C 117.51202 19.976084 118.43802 20.63761 117.87695 21.28125 C 115.49202 25.18117 115.56747 30.165489 117.32227 34.292969 C 119.196 38.742049 122.30521 43.056596 126.95508 44.853516 C 126.23988 49.242996 126.02267 53.720148 124.96094 58.048828 C 123.36014 64.569841 123.13613 71.322386 122.17773 77.947266 C 116.13253 78.500119 110.1375 78.811899 104.01562 79.074219 C 98.192563 79.463699 92.325163 79.005159 86.529297 79.792969 C 84.510097 80.505662 82.449458 81.184172 80.328125 81.572266 C 80.217458 75.562719 79.71857 69.485058 77.970703 63.707031 C 76.513903 60.249911 75.491313 56.617807 73.945312 53.195312 C 70.968113 47.289486 67.417438 41.512267 62.451172 37.060547 C 58.504105 33.341107 53.268963 31.323429 47.976562 30.480469 C 42.733763 29.755002 37.440405 29.15166 32.138672 29.3125 C 26.432005 29.695473 20.654275 30.984619 15.671875 33.884766 C 11.514275 36.191672 7.9954647 40.280174 7.6445312 45.177734 C 7.5125313 49.829721 9.7238432 54.334059 12.912109 57.630859 C 10.805843 59.098299 8.8326916 60.759812 7.015625 62.572266 C 5.867225 63.844852 4.5729489 65.203417 4.1660156 66.904297 C 2.0932157 69.41143 1.0281489 72.597305 0.41601562 75.761719 C -0.33265102 78.578972 -0.078500987 81.640674 1.2597656 84.244141 C 3.5561656 88.977114 8.4250436 91.822521 13.339844 93.173828 C 11.375444 95.396988 9.5994843 97.845009 8.5214844 100.62891 C 6.9437511 104.31568 7.1792261 108.68708 9.1933594 112.16016 C 11.590026 116.30358 15.92889 119.14831 20.535156 120.25195 C 20.22049 120.97761 19.93883 121.71816 19.726562 122.48047 C 18.517763 126.51815 20.486967 130.85607 23.4375 133.61914 C 28.064567 137.72322 34.771355 138.98486 40.732422 137.70703 C 45.044555 136.74087 48.723313 134.12559 52.445312 131.87109 C 54.499713 135.64152 57.415547 138.88851 60.685547 141.64648 C 64.748347 145.32444 70.161429 146.8173 75.351562 148.11133 C 74.597963 155.6679 74.913717 163.27442 75.15625 170.84961 C 75.14292 173.67818 75.562422 176.37133 74.982422 179.18945 C 74.138555 181.86225 72.862758 184.3925 71.640625 186.91406 C 70.095425 190.56574 66.766925 193.34063 66.078125 197.36523 C 65.604125 200.10886 67.669447 203.29005 70.623047 203.20898 C 71.888914 203.23218 73.083574 202.66735 74.056641 201.89258 C 77.137974 199.11155 79.92697 195.9931 82.398438 192.6582 C 83.985104 194.89904 85.682095 197.44677 88.423828 198.33789 C 90.643961 199.24028 93.265032 197.75887 93.884766 195.50586 C 94.522232 192.67666 93.746935 189.75794 93.105469 186.99414 C 97.322669 187.94626 101.49967 189.28792 105.83594 189.55664 C 109.26754 189.48234 111.54583 185.60894 110.74023 182.44922 C 110.02263 179.58847 107.15612 178.02238 104.47852 177.40234 C 102.17052 176.64105 99.694766 176.67277 97.384766 175.95117 C 95.060766 174.70591 93.424778 172.52133 91.517578 170.74805 C 91.690378 164.08485 91.862356 157.42295 92.035156 150.75977 C 98.075156 150.78227 104.13466 150.81397 110.14453 150.13086 C 111.31266 155.76979 112.12803 161.48658 112.47656 167.23633 C 112.64456 172.85645 111.482 178.40687 111 183.98828 C 110.6392 186.75729 110.65716 190.06562 112.95703 192.04297 C 115.01476 194.02769 118.45955 193.78653 120.50195 191.91016 C 123.29355 189.15132 124.56957 185.24752 125.30664 181.47852 C 126.21357 182.54144 127.07563 183.62128 127.94336 184.68945 C 129.55856 186.51856 131.01104 188.77843 133.41211 189.63477 C 135.89331 190.57413 138.63647 188.58128 139.08594 186.08984 C 139.43794 183.67192 138.75546 181.21815 138.00586 178.93164 C 137.56346 178.10412 137.46226 177.58356 138.50586 177.95508 C 142.09533 178.61054 146.38027 177.82307 148.56641 174.64258 C 150.35707 172.3199 149.05464 168.61788 146.33984 167.68555 C 144.82744 167.25727 143.19263 167.28145 141.74609 166.57812 C 137.03796 164.37041 132.06535 162.82019 127.09375 161.33203 C 127.01645 159.82926 126.85867 158.33126 126.71094 156.83398 C 126.37294 153.44485 125.88172 150.24527 125.76172 146.86523 C 126.69412 146.44931 127.65316 146.09046 128.60156 145.71289 C 136.60796 142.14474 144.84755 138.58983 151.46875 132.69727 C 156.78355 128.12759 160.43349 121.90039 162.62695 115.29688 C 164.23269 111.25419 164.05866 106.74689 163.03906 102.58398 C 162.34973 99.257828 160.93267 96.084223 158.75 93.466797 C 159.09253 85.531317 159.4187 77.596189 159.79297 69.662109 C 160.07924 64.651176 160.218 59.625379 160.71094 54.630859 C 161.72587 53.140766 163.34559 52.085874 164.86719 51.119141 C 166.26465 50.082661 167.97134 49.718512 169.52734 49.013672 C 173.45601 47.254072 173.86919 40.896972 170.15039 38.701172 C 167.13399 37.202412 163.62667 37.51271 160.42773 36.654297 C 159.91307 33.929764 159.65203 31.026577 158.76562 28.335938 C 157.65083 24.70991 155.40624 21.147065 151.77344 19.644531 C 151.4037 19.313531 150.37641 19.468615 150.31641 18.988281 C 150.98507 14.096361 151.04137 8.6495949 148.11523 4.421875 C 146.1287 1.3723551 142.45932 -0.058406875 138.90625 0.001953125 z M 139.36133 4.0273438 L 139.36328 4.0273438 C 145.00549 4.0285738 147.60348 9.1908741 146.41016 18.027344 L 145.75 22.9375 L 148.13477 22.9375 C 152.2689 22.9375 155.07436 27.087519 156.03516 34.632812 C 156.76236 40.3456 156.78835 40.365775 165.25195 41.480469 C 168.25475 41.875962 168.70703 42.155786 168.70703 43.628906 C 168.70703 44.842613 168.17682 45.456902 166.83789 45.792969 C 163.36762 46.663929 157.24718 51.273942 156.80078 53.353516 C 156.57078 54.424116 156.004 64.182823 155.53906 75.039062 L 154.69336 94.777344 L 156.61133 97.296875 C 158.83666 100.21443 160.32824 106.99175 159.66211 111.1582 C 159.41544 112.70091 158.08654 116.34463 156.70508 119.25586 C 152.99268 127.07914 146.72709 132.71679 135.94336 137.94141 C 131.36269 140.16071 126.41597 142.37223 124.95117 142.85547 C 123.48651 143.33871 122.0889 144.25295 121.8457 144.88672 C 121.6025 145.52048 121.73503 148.69648 122.14062 151.94336 C 122.54637 155.19025 122.96441 159.30688 123.06641 161.0918 L 123.25195 164.33594 L 128.70703 166.00977 C 131.70703 166.93039 134.81523 167.96178 135.61523 168.30078 C 136.41523 168.63978 138.30867 169.45393 139.82227 170.10938 C 141.33587 170.76481 143.21555 171.30078 144.00195 171.30078 C 145.83169 171.30078 145.8465 172.48338 144.02539 173.45703 C 142.09912 174.48792 139.93421 174.4035 134.93555 173.10156 C 132.59461 172.49182 130.54903 172.12281 130.39062 172.28125 C 130.23223 172.4397 131.08666 174.16395 132.28906 176.11523 C 134.58533 179.84131 136.04714 185.8457 134.6582 185.8457 C 134.23034 185.8457 132.42019 183.96406 130.63672 181.66406 C 128.85339 179.36406 126.26326 176.40081 124.88086 175.07812 L 122.36719 172.67188 L 121.86328 177.60156 C 121.06701 185.37291 117.79881 191.23042 115.52734 188.95898 C 114.58801 188.01974 114.59741 186.74534 115.60938 178.9375 C 116.07577 175.3375 116.49582 170.91914 116.54102 169.11914 C 116.63432 165.43302 115.39815 155.45036 114.12695 149.60156 L 113.2832 145.7207 L 108.8125 146.26172 C 106.35303 146.55947 100.69583 146.7894 96.240234 146.77344 L 88.138672 146.74414 L 87.802734 159.56836 L 87.46875 172.39062 L 91.220703 176.10547 C 94.38537 179.23928 95.53272 179.89915 98.564453 180.32617 C 104.45725 181.15619 106.88672 182.15479 106.88672 183.74414 C 106.88672 184.52567 106.45923 185.32717 105.9375 185.52734 C 105.4159 185.72752 101.24233 184.92443 96.664062 183.74219 C 92.085663 182.55993 88.241894 181.86358 88.121094 182.19531 C 87.99976 182.52706 88.40863 184.75878 89.029297 187.1543 C 90.155297 191.49952 90.475934 194.57227 89.802734 194.57227 C 88.744334 194.57227 86.182326 191.59999 84.630859 188.57227 C 83.657259 186.67227 82.710591 185.11914 82.525391 185.11914 C 82.340191 185.11914 81.562608 186.3457 80.796875 187.8457 C 80.031008 189.3457 77.43441 192.70078 75.027344 195.30078 C 71.380544 199.23967 70.565605 199.81181 70.138672 198.73633 C 69.799472 197.88218 70.331337 196.43939 71.710938 194.46875 C 74.264137 190.82168 74.924123 189.60928 77.472656 183.88672 C 79.470656 179.40047 79.476216 179.33242 79.041016 167.52344 C 78.800616 161.00124 78.845024 153.28608 79.140625 150.37891 L 79.673828 145.0918 L 76.736328 144.34375 C 68.184462 142.16671 66.089913 141.19314 61.998047 137.49023 C 59.655247 135.37015 57.020828 132.10995 56.048828 130.12891 C 55.089228 128.17307 54.22668 126.47286 54.132812 126.35156 C 54.039482 126.23023 51.716036 127.57207 48.970703 129.33203 C 46.22537 131.09199 42.867413 132.90976 41.507812 133.37109 C 35.341546 135.46324 27.412743 133.38759 24.724609 128.97852 C 22.808743 125.8363 22.871113 124.2338 25.070312 120.09766 C 26.070313 118.21692 26.888672 116.58808 26.888672 116.47852 C 26.888672 116.36892 25.892715 116.42482 24.675781 116.60352 C 21.394715 117.08508 16.303934 114.83723 13.802734 111.80273 C 9.7575349 106.89536 10.98108 101.2655 17.560547 94.501953 L 21.166016 90.792969 L 17.082031 89.972656 C 9.5749106 88.464976 5.2511375 85.249027 4.0859375 80.306641 C 3.5611375 78.080961 5.35425 71.483667 6.90625 69.931641 C 7.49625 69.341614 7.9785156 68.49964 7.9785156 68.060547 C 7.9785156 66.63756 14.075543 61.154667 17.224609 59.746094 L 20.289062 58.376953 L 17.351562 56.248047 C 14.219696 53.979327 11.657526 49.387121 11.630859 45.992188 C 11.588189 40.575533 17.405292 35.953906 26.640625 34.068359 C 31.471158 33.082079 33.720096 33.027605 41.351562 33.703125 C 51.814097 34.629245 56.154068 36.318104 61.302734 41.466797 C 65.112734 45.276757 70.081153 53.3074 71.679688 58.242188 C 72.321821 60.224214 73.301422 62.866714 73.857422 64.115234 C 75.159155 67.038634 76.309858 75.045715 76.328125 81.300781 C 76.341455 84.760874 76.611153 86.195003 77.251953 86.162109 C 79.26582 86.058643 86.46147 84.333291 86.960938 83.833984 C 87.254671 83.540224 91.284769 83.296929 95.917969 83.292969 C 104.38757 83.286269 125.13086 82.027388 125.66992 81.488281 C 125.82899 81.329321 126.42849 76.682529 127.00195 71.160156 C 127.57529 65.637783 128.33377 60.464063 128.6875 59.664062 C 129.04137 58.864063 129.71045 54.967373 130.17578 51.003906 C 130.64098 47.040453 131.17648 43.397356 131.36328 42.910156 C 131.55648 42.406983 130.86617 41.815263 129.76562 41.539062 C 126.50189 40.719943 124.3323 38.865427 122.11523 35 C 119.56897 30.560693 119.34322 26.532165 121.44922 23.078125 C 122.78162 20.892605 122.81468 20.533409 121.81055 19.099609 C 118.88988 14.929943 122.84306 9.8457031 129.00586 9.8457031 C 131.03146 9.8457031 131.84658 9.4180631 132.82031 7.8457031 C 134.72685 4.7672651 135.99424 4.027652 139.36133 4.0273438 z M 42.087891 48.914062 C 39.694157 48.934329 36.641228 49.372691 34.798828 50.144531 C 33.447895 50.710465 31.560402 52.006257 30.605469 53.025391 C 29.188669 54.537537 28.950641 55.373126 29.306641 57.566406 C 29.546374 59.044633 30.638289 61.188158 31.732422 62.330078 L 33.720703 64.40625 L 30.765625 67.490234 C 29.140692 69.185888 27.27718 71.687361 26.623047 73.048828 C 23.80798 78.907108 26.207711 85.604507 32.339844 88.996094 C 34.196244 90.022907 39.120913 90.068571 41.945312 89.083984 C 44.653712 88.139838 46.487169 85.155111 45.167969 83.835938 C 44.466769 83.134684 43.809959 83.215337 42.068359 84.214844 C 39.352226 85.77371 36.223169 85.833519 33.417969 84.382812 C 30.656369 82.954719 29.794922 81.23953 29.794922 77.15625 C 29.794922 72.76105 32.866371 69.310802 38.523438 67.351562 C 41.369171 66.365923 42.58636 65.546719 42.746094 64.511719 C 42.936094 63.280079 42.343101 62.927038 38.865234 62.205078 C 29.748435 60.312398 29.616262 54.806492 38.611328 51.632812 C 40.263995 51.049733 42.584378 50.572266 43.767578 50.572266 C 45.173978 50.572266 45.805036 50.258556 45.595703 49.664062 C 45.409703 49.135769 43.949624 48.898329 42.087891 48.914062 z M 61.111328 63.671875 C 58.869328 63.685208 55.970601 64.818788 54.052734 66.677734 C 49.038068 71.537948 49.211226 77.629265 54.443359 80.394531 C 56.971759 81.730785 61.794922 82.362462 61.794922 81.357422 C 61.794922 80.315942 59.323296 78.208984 58.101562 78.208984 C 57.394229 78.208984 55.842791 77.388086 54.650391 76.384766 C 52.062657 74.207352 52.231977 72.876534 55.589844 68.992188 C 57.683177 66.570401 58.343105 66.252142 61.326172 66.232422 C 64.915238 66.208689 65.363469 65.843819 63.605469 64.384766 C 63.011069 63.891419 62.130395 63.665955 61.111328 63.671875 z M 45.285156 98.572266 C 43.355156 98.572266 42.488962 99.68493 41.476562 103.4707 C 40.464429 107.2573 41.624523 109.98688 45.222656 112.29102 C 47.949323 114.03692 49.486634 114.22616 50.740234 112.97266 C 52.184101 111.52872 51.734168 110.26147 49.615234 109.81445 C 48.515234 109.5824 46.509756 108.90915 45.160156 108.31641 C 42.878156 107.31411 42.737613 107.05454 43.132812 104.61914 C 43.366546 103.17891 44.282369 101.22976 45.167969 100.28711 C 46.755569 98.597069 46.757023 98.572266 45.285156 98.572266 z "
       transform="matrix(0.75000002,0,0,-0.75000002,1009.6531,747.02064)" /><path
       id="path842"
       style="fill:#ffffff;stroke-width:0.999998"
       d="m 1103.5565,679.67372 c -1.0573,-0.0149 -0.9208,-0.56783 0.509,-2.04093 0.685,-0.70553 1.6387,-2.42688 2.1168,-3.82448 0.8338,-2.43846 0.8185,-2.6434 -0.378,-5.07859 -3.0692,-6.2464 -10.9675,-11.19437 -19.9262,-12.48509 -3.0445,-0.43869 -5.73,0.45406 -6.6897,2.2245 -0.5464,1.00768 -0.032,3.05834 0.9194,3.66522 0.8968,0.57189 0.6622,1.94315 -0.3304,1.92912 -0.4887,-0.007 -1.827,-0.88461 -2.9743,-1.95093 -2.3543,-2.18825 -4.1715,-2.47951 -5.6407,-0.90162 -0.9709,1.04285 -0.9569,1.11552 0.4676,2.47368 0.8072,0.76958 1.3628,1.69904 1.2351,2.06551 -0.3699,1.06004 -2.0472,1.09374 -3.1551,0.0623 -1.2828,-1.19427 -2.55,-0.74897 -3.3082,1.16332 -0.8775,2.21345 -0.2901,3.64661 2.2319,5.44028 l 2.2685,1.61427 -1.8643,0.15383 c -1.556,0.12852 -2.1533,-0.17238 -3.6177,-1.81645 -2.6576,-2.98367 -2.3127,-5.83081 1.1264,-9.3102 0.8773,-0.88769 2.2589,-2.41868 3.0704,-3.40226 1.356,-1.64366 1.6931,-1.77265 4.1847,-1.60506 2.4304,0.16348 2.7896,0.0372 3.4687,-1.21525 1.808,-3.33524 5.8387,-4.31195 12.3305,-2.98713 6.8919,1.40649 16.0379,7.7161 18.5868,12.82068 1.1771,2.35734 1.1515,6.8321 -0.051,9.07929 -1.0015,1.87125 -3.4174,3.94232 -4.5808,3.92586 z m -17.8311,-4.20166 c -0.9019,-0.004 -2.3939,-0.69624 -3.4803,-1.79546 -1.8338,-1.85544 -1.1579,-4.49157 1.4171,-5.52496 1.0259,-0.41173 1.8708,-1.13829 1.8775,-1.61424 0.017,-1.2212 3.5604,-4.52483 4.8337,-4.50683 0.5834,0.009 1.4933,0.50702 2.0222,1.10828 0.7696,0.87497 0.8102,1.14008 0.2025,1.3243 -0.4176,0.12659 -1.4972,0.44634 -2.401,0.71025 -1.3081,0.38193 -1.6606,0.80197 -1.7285,2.06319 -0.046,0.87155 -0.1222,1.87751 -0.1678,2.23467 -0.046,0.35705 -1.1021,0.70962 -2.3478,0.78426 -3.0448,0.18246 -4.0412,1.63577 -2.1928,3.19638 0.7159,0.60452 1.6307,0.97666 2.0334,0.82863 0.4197,-0.15437 0.7266,0.0984 0.7197,0.59178 -0.01,0.41469 -0.3155,0.60185 -0.7879,0.59975 z"
       inkscape:transform-center-x="19.471569"
       inkscape:transform-center-y="8.2767325"
       inkscape:label="wing" /><path
       style="fill:#ffffff;stroke-width:0.999998"
       d="m 1128.4044,715.04611 c -0.7493,10e-4 -0.9493,-0.39348 -0.9493,-1.31835 0,-1.62803 0.3325,-1.6766 2.3555,-0.34278 l 1.538,1.01367 -1.2656,0.33838 c -0.7429,0.19898 -1.2862,0.30848 -1.6786,0.30908 z"
       id="path834"
       inkscape:label="beak" /><path
       style="fill:#ffffff;stroke-width:0.999998"
       d="m 1119.4614,721.62912 c -0.728,0.002 -1.488,-0.10703 -2.0946,-0.33984 -1.5138,-0.58089 -2.0973,-2.90843 -1.0254,-4.09277 1.0977,-1.21314 4.371,-1.33641 5.8446,-0.21973 1.0263,0.77769 0.891,2.4658 -0.3192,3.97852 -0.3456,0.43191 -1.3412,0.67083 -2.4054,0.67382 z"
       id="path830"
       inkscape:label="eye" /><path
       style="fill:#000000;stroke-width:0.999998"
       d="m 1118.4463,720.44846 c 0.9288,2e-5 1.5027,-1.36004 1.0752,-2.70703 -0.3813,-1.20162 -1.7914,-1.347 -2.2207,-0.22852 -0.4823,1.25706 -4e-4,2.7327 0.9551,2.9165 0.064,0.0125 0.1285,0.019 0.1904,0.019 z"
       id="path832"
       inkscape:label="iris" /></g></svg>
