<?xml version="1.0" encoding="UTF-8" standalone="no"?>
<!-- Created with Inkscape (http://www.inkscape.org/) -->

<svg
   version="1.1"
   id="svg2"
   xml:space="preserve"
   width="329.92834"
   height="260.17938"
   viewBox="0 0 329.92835 260.17938"
   sodipodi:docname="cow.svg"
   inkscape:version="1.1 (c68e22c387, 2021-05-23)"
   xmlns:inkscape="http://www.inkscape.org/namespaces/inkscape"
   xmlns:sodipodi="http://sodipodi.sourceforge.net/DTD/sodipodi-0.dtd"
   xmlns="http://www.w3.org/2000/svg"
   xmlns:svg="http://www.w3.org/2000/svg"><defs
     id="defs6" /><sodipodi:namedview
     id="namedview4"
     pagecolor="#505050"
     bordercolor="#eeeeee"
     borderopacity="1"
     inkscape:pageshadow="0"
     inkscape:pageopacity="0"
     inkscape:pagecheckerboard="0"
     showgrid="false"
     inkscape:zoom="2.0957858"
     inkscape:cx="-76.194888"
     inkscape:cy="61.440917"
     inkscape:window-width="3840"
     inkscape:window-height="2066"
     inkscape:window-x="-11"
     inkscape:window-y="-11"
     inkscape:window-maximized="1"
     inkscape:current-layer="g8"
     inkscape:snap-global="false"
     fit-margin-top="0"
     fit-margin-left="0"
     fit-margin-right="0"
     fit-margin-bottom="0" /><g
     id="g8"
     inkscape:groupmode="layer"
     inkscape:label="base"
     transform="matrix(1.3333333,0,0,-1.3333333,-540.56637,1151.8635)"><g
       id="g4308"
       transform="rotate(-6.44075,2397.8323,4528.7983)"><path
         id="path1406"
         style="fill:#000000;stroke-width:1.33333"
         inkscape:label="bg"
         d="m 780.80078,293.08789 c -8.23343,0.19799 -16.29991,0.92738 -24.49023,1.71484 -12.82816,1.33164 -25.74813,2.80664 -38.58399,4.5586 -19.8952,2.63136 -39.77427,6.36182 -59.07422,12.0664 -2.62504,0.7512 -5.0141,1.56073 -7.5,2.60157 -1.18617,0.59653 -2.44552,1.02962 -3.69531,1.47851 0,0 -2.06757,5.74309 -11.69328,12.56128 -7.34473,4.37541 -5.69972,3.65467 -6.38633,11.75115 -2.30241,17.11943 -2.63133,22.00593 -2.63133,22.00593 0.67555,2.86561 1.35293,5.73224 2.0293,8.59766 3.23552,14.45857 7.69362,28.59772 11.66797,42.85937 3.75184,14.07184 7.81684,28.11395 12.20703,41.96094 4.69916,14.45833 9.00409,29.05386 12.50586,43.85156 2.45403,9.54595 4.13301,19.28104 6.86719,28.75586 0.51286,2.5619 1.75594,4.89314 3.26172,7.00586 0.35589,0.49999 0.7105,1 1.0664,1.5 5.37006,-0.38116 10.82338,-0.34469 16.07422,-1.68164 2.83624,-0.72055 6.02392,-2.03619 7.20899,-4.93164 0.86616,-3.19197 -0.18828,-6.47909 -0.64454,-9.65625 -1.82254,-10.80604 -3.28055,-21.6998 -5.32617,-32.31836 -3.06889,-14.47277 -5.41741,-29.08329 -7.62109,-43.70898 1.44444,-0.0858 2.88759,-0.17182 4.33203,-0.25782 4.03748,-0.13758 8.09003,-0.82042 12.07031,-1.61132 0.23288,1.03504 0.46633,2.07042 0.69922,3.10547 2.15528,10.05245 4.70803,20.01346 6.9375,30.04882 2.46621,10.74455 3.66104,21.73158 4.30859,32.72266 0.36269,4.28576 0.43181,8.81296 1.15821,13.1582 0.10685,1.67339 0.87491,3.36801 2.42773,4.16211 3.32326,1.39831 6.99332,1.72479 10.56446,1.8711 3.39097,-0.0191 7.04779,0.46929 10.15039,-1.22071 2.77298,-1.59262 3.43681,-5.0688 3.52148,-8.01367 0.15935,-7.88292 0.0857,-15.88079 -0.17383,-23.69141 -0.2379,-7.02812 -0.60888,-14.06847 -1.77344,-21.01367 -1.38431,-8.55654 -3.43709,-17.17757 -5.43554,-25.66797 -0.62747,-1.67782 -0.66892,-3.69416 0.46289,-5.17773 0.96709,-1.44653 2.78826,-1.85631 4.42578,-1.74805 12.01313,-0.66977 23.97473,-1.05973 35.92969,-2.47656 1.94657,-0.0989 3.99029,-0.85748 6.01953,-0.54492 2.81848,0.35156 5.09078,2.84659 5.27734,5.66797 0.96798,10.09236 1.31638,20.23279 1.77149,30.35937 0.437,10.81981 0.92471,21.60021 1.77539,32.37696 0.0329,2.73259 1.11354,5.60344 3.49804,7.12109 2.53699,1.58435 5.63244,2.02111 8.57618,2.03711 4.09973,0.0261 7.97472,-1.45551 11.74218,-2.90039 2.48707,-0.9811 5.27378,1.052 5.67579,3.57031 0.0757,2.09189 0.7891,4.51332 2.86523,5.43555 2.87347,0.9773 5.85874,-0.28597 8.58008,-1.19141 3.88253,-1.62433 8.13931,-1.63928 12.22851,-2.32812 1.43214,-0.19028 3.12664,-0.6053 3.66797,-2.13672 0.5388,-3.31792 0.38803,-6.72269 0.33203,-10.07813 -0.72626,-17.43112 -2.33663,-34.81629 -3.0957,-52.26953 -0.7068,-13.60473 -0.65465,-27.30382 -2.86719,-40.78125 -1.95546,-11.29711 -2.37712,-22.79724 -2.13672,-34.24219 0.0554,-0.46916 0.0252,-0.95642 0.0137,-1.43945 l -0.51368,-0.49805 c 0,0 0.87434,-21.76154 1.23047,-34.58203 0.35614,-12.82049 -2.99562,-28.34558 -7.87695,-35.77539 -3.60438,-5.48603 -10.40556,-9.21377 -13.73047,-10.79687 0.0107,0.0294 0.0225,0.0585 0.0332,0.0879 -7.72053,-0.48536 -15.37923,-0.94068 -23.10742,-1.37305 -4.94149,-0.19139 -9.85824,-0.88486 -14.80664,-0.88086 z"
         transform="matrix(0.75000002,0,0,-0.75000002,402.41531,881.68525)"
         sodipodi:nodetypes="sccccccccccccccccccccccccccccccccccccccccccccccccccccccsscccss" /><path
         id="path1408"
         style="fill:#ffffff;stroke-width:1.33333"
         inkscape:label="mask"
         d="m 782.67188,291.09766 c -3.64078,-0.079 -7.2861,0.19113 -10.92188,0.39843 -5.16051,0.32543 -10.47727,0.80594 -15.63477,1.31641 -13.87816,1.425 -27.66004,3.03767 -41.44531,4.94727 -18.45016,2.5318 -36.80158,6.01763 -54.69922,11.20898 -3.52984,0.96024 -7.01764,2.0739 -10.37109,3.54687 -0.19011,0.0926 -3.99926,1.27715 -4.19307,1.36188 l -1.56945,5.59832 c 0.17974,0.69729 4.22593,-2.10596 4.26964,-2.10596 0.54807,0 1.144,-0.25624 3.71163,-1.45777 6.14167,-2.87404 29.62197,-8.75878 46.03906,-11.53906 27.52449,-4.66136 73.4088,-9.64801 84.73633,-9.33399 0.75517,0.0209 1.35676,0.0651 1.78906,0.13477 1.21144,0.19537 8.91182,0.70148 17.11133,1.125 7.63955,0.39457 14.12468,0.85912 15.75,1.10156 l -3.45312,-4.36523 c -0.86134,-0.053 -1.72273,-0.10515 -2.58399,-0.15821 -8.29667,-0.56868 -16.6108,-0.84686 -24.89648,-1.56836 -1.2121,-0.11906 -2.42508,-0.18459 -3.63867,-0.21093 z m -17.59766,32.01562 c -0.90273,-0.0107 -1.75985,2.5861 -2,6.35742 -0.39661,6.22859 0.87426,5.65523 2.01758,-0.91015 0.46124,-2.6488 0.65231,-5.00005 0.42578,-5.22657 -0.14766,-0.14766 -0.29564,-0.21901 -0.44336,-0.2207 z m -33.48438,0.65234 c -0.97436,-0.0279 -2.08265,3.36706 -2.02929,6.65235 l 0.0644,4.04297 1.34961,-5.07032 c 0.74212,-2.78842 1.17772,-5.24219 0.9668,-5.45312 -0.1132,-0.1132 -0.23191,-0.16845 -0.35157,-0.17188 z m -33.50195,1.66211 c -0.37761,0.0216 -0.94062,0.5365 -1.60742,1.57813 -1.03817,1.62176 -1.52685,5.04287 -1.2207,8.54687 0.1256,1.43723 0.4281,1.0561 1.44335,-1.81835 0.7064,-2.00001 1.49173,-4.70001 1.7461,-6 0.30217,-1.54423 0.12414,-2.33435 -0.36133,-2.30665 z m -34.66211,4.30665 c -2.08071,0 -4.4199,6.0845 -4.45898,11.5996 -0.0239,3.37042 0.95117,2.13286 2.54882,-3.23632 0.71416,-2.4 1.57289,-4.67469 1.91016,-5.05469 0.79564,-0.89645 0.796,-3.30859 0,-3.30859 z m -36.42792,24.20947 -2.08086,-5.40551 -4.0941,2.49676 c 0.5386,2.28377 5.86432,19.25178 6.40362,21.53523 0.61715,2.62219 1.26982,5.37027 1.90821,7.90039 2.99292,11.63943 6.60667,23.23815 9.80859,34.88868 3.83644,14.49671 8.0933,28.87966 12.64453,43.16796 4.62913,14.19868 8.72189,28.57307 12.12109,43.11719 2.31388,9.05945 3.86429,18.3089 6.54297,27.27539 0.70358,3.47691 2.86838,6.36193 4.88867,9.1836 0.0745,0.1068 0.14799,0.21351 0.22266,0.32031 6.29025,-0.48288 12.72542,-0.32879 18.82422,-2.16211 3.27224,-1.0098 6.77734,-3.09442 7.58008,-6.67578 0.63974,-3.55324 -0.42687,-7.11143 -0.93164,-10.61328 -1.82276,-10.80967 -3.27165,-21.74498 -5.36133,-32.39649 -2.88001,-13.45674 -5.05998,-27.04629 -7.12305,-40.64844 2.8566,-0.18072 5.72291,-0.28995 8.55664,-0.71679 1.30299,-0.1892 2.60714,-0.45509 4.00782,-0.70508 0.36557,1.62448 0.73034,3.24853 1.0957,4.87305 2.15165,10.05288 4.82995,19.95144 6.88476,30.0332 2.07684,9.95692 3.00133,20.10552 3.58985,30.24609 0.36732,4.23507 0.40928,8.5165 1.22656,12.69922 0.2654,2.32508 1.92876,4.3053 4.08008,5.1543 4.872,1.7178 10.13141,1.85234 15.24609,1.77539 3.34936,-0.0184 7.13148,-0.83029 9.12891,-3.78125 2.19016,-3.13691 2.0765,-7.11327 2.0957,-10.76758 0.10894,-9.12132 -0.0541,-18.22982 -0.52539,-27.28906 -0.28035,-6.50468 -1.12468,-12.81333 -2.32812,-19.20899 -1.35384,-7.22734 -3.08574,-14.46892 -4.78321,-21.6875 -0.65205,-1.45312 -0.0133,-3.50495 1.70508,-3.77343 2.50743,-0.0681 5.0383,-0.24572 7.55664,-0.37305 11.00505,-0.58515 22.03734,-1.05832 32.81445,-2.53125 1.5936,-0.43277 3.45222,-0.40399 4.75586,0.74805 1.73766,1.31332 1.49634,3.64669 1.75782,5.56836 1.48204,18.92477 1.59598,37.9291 3.04687,56.85742 0.32962,2.78245 0.0359,5.75527 1.46094,8.28906 1.26676,2.60209 3.79151,4.35694 6.55078,5.07031 4.90616,1.47587 10.22473,0.96065 14.98633,-0.79687 1.3756,-0.40694 2.67294,-1.06147 4.0332,-1.45899 1.54734,-0.25434 2.74867,1.21793 2.7832,2.66797 0.12268,2.85692 1.81006,5.85948 4.70313,6.64844 3.43693,0.85912 6.86972,-0.56788 10.07813,-1.66602 3.93399,-1.51932 8.14542,-1.25961 12.17382,-2.18945 2.02614,-0.24152 3.83221,-1.71962 4.33594,-3.71875 0.4732,-3.71644 0.36349,-7.49766 0.26563,-11.24023 -0.75707,-16.86727 -2.28698,-33.68944 -3.03711,-50.55664 -0.5536,-10.72096 -0.6684,-21.43806 -1.67774,-32.08985 -0.42866,-5.41417 -1.48276,-10.74764 -2.20703,-16.12304 -1.19987,-9.87759 -1.38846,-19.85413 -1.10351,-29.79297 2.9e-4,-0.26217 0.0176,-0.49111 0.0254,-0.73828 l -3.61133,-2.91797 -0.42383,6.92578 c -0.48413,7.89884 0.42529,24.40333 1.71289,31.09961 1.5704,8.16772 2.1759,15.39527 2.89844,34.54492 0.40746,10.8 1.25623,26.34687 1.88476,34.54687 1.64574,21.46812 2.09743,34.86342 1.20703,35.75391 -0.40973,0.40971 -2.82478,0.86143 -5.36718,1.00195 -2.56307,0.14168 -6.76742,1.0638 -9.43555,2.07032 -5.29933,1.99913 -7.59231,1.85031 -8.17578,-0.53125 -0.2112,-0.86223 -0.89841,-8.76836 -1.52734,-17.56836 -0.62895,-8.80003 -1.71057,-21.07344 -2.4043,-27.27344 -0.90854,-8.11904 -1.20332,-15.64628 -1.05078,-26.9082 0.116,-8.6 -0.06,-16.03764 -0.39453,-16.52735 -0.4712,-0.69153 -1.45125,-0.62026 -4.39258,0.32031 -4.36587,1.39617 -4.22969,0.84461 -3.07422,12.36329 1.4708,14.66152 2.3033,23.33703 2.95117,30.75195 0.36693,4.2 1.02241,10.25508 1.45508,13.45508 0.43267,3.2 1.02064,9.51567 1.30664,14.03515 0.6024,9.52052 0.70003,9.33164 -6.0625,11.61133 -3.18987,1.07515 -5.43928,1.36557 -8.36328,1.07813 -4.80231,-0.47208 -6.90246,-1.70837 -7.93555,-4.67188 -0.42465,-1.21828 -1.26048,-14.04269 -1.85547,-28.49805 -1.22552,-29.77287 -1.5967,-35.43705 -2.7207,-41.4414 l -0.79688,-4.25195 -2.2539,0.46289 c -7.00044,1.43724 -20.04643,2.73443 -33.16602,3.29687 -8.2,0.35152 -16.29523,0.86761 -17.99023,1.14649 -2.66038,0.43772 -3.034,0.71718 -2.73438,2.05078 0.19092,0.84968 1.64153,7.1082 3.22461,13.9082 4.40871,18.93735 5.25555,25.65086 5.66406,44.89844 0.20151,9.49321 0.14691,18.42834 -0.12109,19.85742 -0.83216,4.43584 -2.48285,5.43093 -8.95117,5.39453 -6.72188,-0.0377 -11.59003,-0.883 -12.95703,-2.25 -0.71224,-0.71224 -1.21729,-4.93772 -1.77149,-14.81055 -0.87728,-15.62937 -2.41714,-25.98153 -6.05664,-40.72461 -1.38242,-5.6 -3.40139,-14.27343 -4.48632,-19.27343 -1.08493,-5 -2.0395,-9.16537 -2.1211,-9.25586 -0.0816,-0.0905 -1.85117,0.48292 -3.93164,1.27344 -2.69437,1.02377 -5.56898,1.43748 -9.99023,1.4375 h -6.20703 l 0.40234,2.36328 c 0.221,1.3 1.04984,6.61836 1.8418,11.81836 1.75977,11.55504 3.00342,18.44727 5.38086,29.81836 1.00355,4.79999 2.5034,13.47148 3.33203,19.27148 0.82861,5.8 2.01761,13.11256 2.64257,16.25 0.625,3.13743 0.93249,6.51612 0.6836,7.50781 -0.69552,2.77115 -5.7504,4.65288 -13.79492,5.13281 l -6.72657,0.4004 -1.5957,-2.24219 c -1.03295,-1.45064 -2.49525,-6.29781 -4.14453,-13.73633 -6.00412,-27.07957 -9.34509,-39.67969 -15.87109,-59.87891 -3.80832,-11.78753 -8.55603,-27.65195 -10.55274,-35.25195 -1.99669,-7.6 -5.10712,-18.72656 -6.91211,-24.72656 -5.03036,-16.72148 -8.48679,-31.09127 -9.0332,-37.56055 z m 53.81464,1.93701 c -0.81269,-0.0697 -1.47876,2.45568 -1.48828,5.97461 -0.0188,6.95949 1.0058,7.40942 1.69726,0.74414 0.34486,-3.3242 0.41066,-6.26119 0.14649,-6.52539 -0.12053,-0.12053 -0.23936,-0.1834 -0.35547,-0.19336 z m 78.38086,1.50781 c -0.27816,0.0401 -0.59231,0.55503 -0.87695,1.61719 -0.59484,2.2196 -0.55172,7.77264 0.0762,10 0.44717,1.58692 0.57808,1.40331 1.02734,-1.45313 0.2831,-1.8 0.53872,-4.82851 0.56836,-6.72851 0.0351,-2.24875 -0.32941,-3.50244 -0.79297,-3.43555 z m 31.14258,11.61719 c -1.92866,0 -2.5582,4.08117 -1.18555,7.69141 0.4112,1.08152 0.85834,1.83907 0.99414,1.68359 0.13584,-0.15544 0.47126,-2.32813 0.74414,-4.82813 0.40436,-3.70453 0.30239,-4.54687 -0.55273,-4.54687 z m -78.26953,0.0195 c -0.21978,0.004 -0.48043,0.25171 -0.78321,0.73047 -0.91774,1.45116 -0.8788,9.19127 0.0547,10.93555 1.38288,2.58392 1.79324,1.45432 1.73438,-4.77344 -0.0445,-4.72064 -0.34657,-6.90371 -1.00586,-6.89258 z m -59.29883,4.3457 c -0.84682,0 -1.0918,0.96167 -1.0918,4.30274 0,6.03005 0.93265,8.0159 1.56445,3.33203 0.26978,-2 0.51965,-4.53477 0.55469,-5.63477 0.0421,-1.32124 -0.30668,-2 -1.02734,-2 z M 814.57617,385.875 c -0.0427,10e-4 -0.0861,0.0106 -0.13281,0.0254 -1.0196,0.33724 -1.73102,9.69712 -0.96875,12.73438 0.89733,3.57534 1.59973,1.29215 1.75586,-5.70313 0.12133,-5.41244 -0.0214,-7.07335 -0.6543,-7.05664 z m -75.32422,8.46094 c -0.15341,0.007 -0.36661,0.3278 -0.66601,0.85156 -0.57166,1 -1.05225,2.37632 -1.06641,3.05664 -0.0341,1.63716 1.46596,8.58008 1.85352,8.58008 0.16685,0 0.29151,-3.02656 0.27734,-6.72656 -0.0163,-4.26344 -0.0609,-5.77663 -0.39844,-5.76172 z M 771.26953,402 c -0.1076,0.003 -0.21569,0.0315 -0.31641,0.0937 -1.02903,0.636 -0.91225,7.13622 0.17188,9.59375 0.84461,1.91464 0.91798,1.72074 1.12695,-2.97266 0.12294,-2.76032 0.0451,-5.47988 -0.17187,-6.04492 -0.16264,-0.42377 -0.48784,-0.67573 -0.81055,-0.66992 z m -94.70117,0.73828 c -0.0208,0.001 -0.041,0.0106 -0.0625,0.0234 -0.90708,0.56061 -1.665,8.12577 -1.04688,10.44726 0.4856,1.82375 0.56711,1.72202 1.04493,-1.29296 0.28524,-1.8 0.54261,-4.68265 0.57226,-6.40625 0.0277,-1.61588 -0.19657,-2.80432 -0.50781,-2.77149 z m 30.62109,8.1211 c -0.17965,0.007 -0.41975,0.28844 -0.78125,0.76757 -1.06852,1.41616 -0.82926,8.87429 0.34375,10.71485 0.78668,1.23433 1.57388,-5.13622 1.09961,-8.89649 -0.23345,-1.851 -0.36268,-2.59824 -0.66211,-2.58593 z m 120.53321,3.61718 c -0.0467,-9.6e-4 -0.0906,0.012 -0.13477,0.0391 -0.7716,0.47691 -0.83141,4.3076 -0.11914,7.67188 l 0.51953,2.45508 0.48828,-3.27149 c 0.2692,-1.8 0.32328,-4.16824 0.11914,-5.26171 -0.17813,-0.95684 -0.54798,-1.62607 -0.87304,-1.63282 z m -170.33008,8.29297 c -0.0663,0.009 -0.12906,0.0432 -0.1875,0.10156 -0.20244,0.20243 0.67534,3.23772 1.94922,6.74414 2.65226,7.30051 3.58692,7.24361 1.32226,-0.0801 -1.43236,-4.63206 -2.44341,-6.85328 -3.08398,-6.76563 z m 138.83789,13.35938 c -0.0323,-0.001 -0.0645,0.004 -0.0977,0.0156 -0.98689,0.35035 -0.74031,5.882 0.35352,7.92578 1.09249,2.04126 1.21187,1.50491 0.8164,-3.64062 -0.21306,-2.774 -0.58939,-4.27857 -1.07226,-4.30078 z m 36.09375,5.07031 c -0.17267,-8e-5 -0.28516,0.24541 -0.28516,0.80078 0,1.34164 1.24916,4.09766 1.85742,4.09766 0.1936,0 0.13966,-0.9 -0.11914,-2 -0.4024,-1.7075 -1.07325,-2.8982 -1.45312,-2.89844 z m -115.11133,4.17187 c -0.72829,0 0.30199,6.87144 1.44336,9.62696 1.29943,3.13708 1.61443,2.39379 1.06055,-2.50196 -0.51572,-4.55825 -1.4182,-7.125 -2.50391,-7.125 z m -43.89062,9.45313 c -0.89855,0 -0.15531,6.48689 1.04492,9.12109 1.28042,2.81024 1.53672,2.13632 0.99804,-2.625 -0.57909,-5.11852 -1.01319,-6.49609 -2.04296,-6.49609 z m 154.71679,6.54687 c -1.32973,0 -1.49301,4.44262 -0.29101,7.89063 1.2292,3.52616 2.38463,2.84756 1.8457,-1.08399 -0.25427,-1.85584 -0.46289,-4.14568 -0.46289,-5.08984 0,-1.04108 -0.4302,-1.7168 -1.0918,-1.7168 z m -28.79297,8 c -0.74426,0 -0.86872,3.87964 -0.20312,6.36329 0.7892,2.94511 1.36546,1.71994 1.11133,-2.36329 -0.1372,-2.20054 -0.54527,-4 -0.90821,-4 z m -68.29687,6.54493 c -0.80227,0 -1.02488,8.91457 -0.24219,9.69726 0.89025,0.89025 0.96875,0.51158 0.96875,-4.60742 0,-2.90908 -0.31097,-5.08984 -0.72656,-5.08984 z m -54.37305,14.0039 c -0.65524,0.0208 0.24642,4.1371 1.73633,7.81446 0.90013,2.22158 0.95739,-0.48248 0.084,-3.94532 -0.49668,-1.96921 -1.28236,-3.70407 -1.75,-3.85742 -0.0244,-0.008 -0.0491,-0.0117 -0.0703,-0.0117 z m 154.61914,4.29688 c -0.354,0.004 -0.60937,0.50632 -0.60937,1.61328 0,2.52616 2.46657,7.75663 2.7539,5.83984 0.11467,-0.76445 -0.06,-2.67548 -0.38672,-4.24609 -0.41719,-2.00748 -1.20554,-3.21335 -1.75781,-3.20703 z"
         transform="matrix(0.75000002,0,0,-0.75000002,402.41531,881.68525)"
         sodipodi:nodetypes="scccccccssssssccccsscssscscccssssssssssssssccccccccccccccccccccccccccccccccccccccccccccccccccccsscssssssccsssssssssccsssssscssssssssccssssscccssssccssssscscssccssssssssssssssssscscsscsssscscsssssscssssscssscscccccssscssssscssssssscsssssssssssssssscsssssssssssssscs" /></g><g
       id="g2714"
       inkscape:label="tail"
       transform="rotate(-8.5132941,497.29141,733.98419)"
       inkscape:transform-center-x="36.701274"
       inkscape:transform-center-y="53.009288"><path
         id="path10439"
         style="fill:#000000;stroke-width:1.33333"
         inkscape:label="bg"
         d="m 60.662109,64.910156 c -1.076226,0.401001 -2.139669,0.832098 -3.125,1.431641 -3.807413,3.16044 -7.400097,6.591647 -11.271484,9.683594 -5.79644,4.337306 -10.129802,10.217785 -14.355469,16.011718 -1.41192,1.903054 -2.897512,3.96738 -4.195312,5.816407 -3.24752,4.660294 -6.303718,9.482104 -8.648438,14.667964 -0.939626,1.96416 -1.886393,4.12469 -2.691406,6.02149 -3.21468,7.68519 -5.823483,15.61201 -8.0332031,23.64062 -2.3186533,8.66664 -4.4082961,17.28746 -5.6621094,26.18164 -0.71608,5.76204 -1.4110406,11.90894 0.9433594,17.4043 3.2668666,5.60889 6.5340641,5.88368 10.0234371,11.35938 2.842147,-3.41108 6.0195,-1.71151 8.876954,-5.10938 1.372493,-1.46667 2.456476,-3.25574 2.65625,-5.29297 0.515706,-5.73989 0.212,-11.52607 -0.257813,-17.25976 -1.026747,-9.34791 -1.838131,-18.86975 -0.148437,-28.19336 0.857693,-5.15383 2.741937,-10.08407 5.271484,-14.64258 3.246666,-6.02577 6.844238,-11.85606 10.140625,-17.85547 0.305295,1.29566 0.610485,2.59112 0.916015,3.88672 l 13.246094,-15.582032 9.292969,-9.939453 c 0,0 4.732318,-6.402455 3.390625,-11.802734 -0.829544,-3.33886 -3.271621,-7.451673 -6.369141,-10.427735 z"
         transform="matrix(0.75000002,0,0,-0.75000002,402.41531,881.68525)" /><path
         id="path8954"
         style="fill:#ffffff;stroke-width:1.33333"
         inkscape:label="mask"
         d="m 58.939453,63.439453 c -1.073107,0.4241 -2.12072,0.900437 -3.052734,1.615235 -3.937587,3.453946 -7.807636,6.999092 -11.917969,10.253906 -4.041733,3.184573 -7.235731,6.985703 -10.333984,11.035156 -5.086667,6.866826 -10.309605,13.71912 -14.396485,21.28125 -6.820013,13.31035 -11.4056288,27.65124 -14.9160154,42.1543 -1.5060799,6.19189 -2.8666494,12.58401 -3.72460935,19.02343 -0.72757332,6.01994 -1.26669684,12.4619 1.34570315,18.12891 3.8095332,6.34675 3.0938313,3.7632 7.0820312,9.99024 2.4493604,1.62889 8.2289984,4.56292 9.9511714,2.48437 1.994415,-2.50829 4.147706,-4.88422 6.132813,-7.39844 1.424413,-1.7345 2.029621,-3.94674 2.175781,-6.15234 0.334467,-5.29616 0.102533,-10.68931 -0.302734,-15.9043 -0.837187,-7.84752 -1.676807,-15.76758 -0.869141,-23.65625 0.49272,-5.4336 1.743441,-10.83306 4.177735,-15.74023 2.725146,-5.63614 6.08124,-10.88853 9.121093,-16.34961 0.02733,0.11587 0.0547,0.23178 0.08203,0.34765 l 3.738281,-4.39843 c -0.0031,-0.0353 -0.01659,-0.0999 -0.01953,-0.13477 l -0.494141,-5.85742 -3.734375,4.61914 c -3.855573,4.76776 -10.550313,15.8543 -13.191406,21.84961 -3.79276,8.60955 -4.983687,21.41028 -3.251953,34.91992 0.497906,3.88424 0.904296,10.47699 0.904296,14.64844 0,6.47485 -0.20858,7.83505 -1.429687,9.30078 l -1.431641,1.7168 -0.02344,-2.91407 c -0.04067,-4.89398 -2.16343,-21.50647 -2.912109,-22.78906 -0.588908,-1.00892 -0.70741,-0.90932 -0.720704,0.61133 -0.01853,2.11367 1.208101,16.78826 1.869141,22.36523 0.405307,3.41939 0.309618,3.81641 -0.921875,3.81641 -1.220987,0 -1.560605,-1.28254 -3.017578,-11.45312 -0.90248,-6.3 -1.629881,-12.1918 -1.617188,-13.0918 0.01333,-0.9 -0.303125,-1.63672 -0.703125,-1.63672 -0.4,0 -0.721843,1.55508 -0.714843,3.45508 0.0136,3.49932 1.712714,16.65603 2.615234,20.25195 0.4678,1.86391 0.389078,1.93323 -1.609375,1.43164 -3.8160532,-0.95777 -3.9277344,-1.30306 -3.9277344,-12.13672 0,-6.24366 -0.2786089,-10.09179 -0.7285156,-10.09179 -0.44764,0 -0.7302813,3.70548 -0.7382812,9.63672 l -0.011719,9.63476 -1.4628906,-2.28125 C 3.7794943,182.62352 3.3994387,175.8125 4.8867188,166.82422 8.3377853,145.96802 15.236826,123.86454 22.882812,109.16797 c 2.977668,-5.72345 14.329961,-21.600101 19,-26.570314 1.258988,-1.339906 4.089063,-3.842093 6.289063,-5.560547 2.2,-1.71844 5.561723,-4.631029 7.46875,-6.472656 1.907,-1.84164 3.914824,-3.347656 4.462891,-3.347656 0.276731,0 1.069179,-0.25513 2.111328,-0.658203 -1.002718,-1.170409 -2.109432,-2.233893 -3.275391,-3.119141 z"
         transform="matrix(0.75000002,0,0,-0.75000002,402.41531,881.68525)" /></g><g
       id="g3194"
       transform="rotate(-3.1927206,-1539.6329,7446.8281)"
       inkscape:transform-center-x="-2.7157299"
       inkscape:transform-center-y="15.787092"><path
         id="path1400"
         style="fill:#000000;stroke-width:1.33333"
         inkscape:label="bg"
         d="m 813.89648,-150.41016 c -0.89106,-0.11262 -1.86474,0.10205 -2.63281,0.51758 -5.7792,3.44051 -9.98942,8.83631 -14.32422,13.85547 -2.80822,3.56277 -6.1088,6.68098 -9.06836,10.0293 -0.68694,1.15634 -1.96907,1.9789 -3.35156,1.79687 -2.32735,-0.6828 -4.79177,-0.6949 -7.17969,-0.33789 -5.87872,1.10524 -11.87584,0.58423 -17.81445,0.79492 -4.94619,0.27692 -8.99189,3.48253 -12.93359,6.14258 -2.48499,-2.02145 -4.97137,-4.04188 -7.45703,-6.0625 -4.06238,-3.18162 -7.88086,-6.6714 -12.08399,-9.67773 -2.57948,-1.68343 -5.41608,-3.44809 -8.59766,-3.46289 -1.75355,-0.19562 -3.32931,1.43548 -3.1289,3.16992 1.55434,6.28763 3.89131,12.32034 6.23437,18.34961 l 0.17774,0.16211 9.39844,17.548826 -8.59961,6.787109 -20.66993,23.351563 0.46875,4.771484 12.02149,18.865234 2.86328,-0.234375 12.93555,-36.005859 3.70312,-3.931641 2.49414,7.160157 0.81055,17.060546 -1.32617,9.898438 9.39844,17.667969 2.95117,1.761718 c 0.29642,0.09601 0.55105,0.260713 0.78906,0.470703 l 0.66797,0.398438 0.0156,0.115234 c 3.87432,2.826347 7.50532,6.048679 11.78711,8.265625 1.04031,0.719174 1.50789,2.047722 2.26953,3.044922 3.03627,3.654427 6.31153,7.136244 9.88477,10.2753909 2.03425,1.8014133 4.33282,3.6578625 7.17578,3.7890625 2.39369,-0.1024534 4.95717,-0.032554 7.13672,-1.1796875 1.31147,-1.3596 3.10312,-2.2049844 4.97461,-2.4589844 2.93415,-0.9540666 5.59161,-2.6447585 8.16601,-4.3261715 2.07934,-1.51328 4.35905,-2.788982 6.19532,-4.607422 1.87386,-1.769187 2.39498,-4.39249 2.64257,-6.84961 0.12014,-1.188333 0.1627,-2.087656 0.19336,-3.222656 0.11067,-3.079706 -0.0967,-5.948614 -0.30273,-8.992187 -0.53747,-4.066494 -0.15857,-8.394763 -2.04297,-12.166016 -0.13667,-6.301093 -0.18817,-12.603257 -0.32617,-18.904297 -0.22613,-7.13016 -0.41659,-14.27616 -1.20313,-21.371094 -0.21666,-1.772426 -0.49453,-3.613704 -0.88867,-5.519531 -0.9684,-3.5764 -1.73618,-7.206238 -2.24804,-10.878908 1.64786,-3.6355 3.32371,-7.25699 4.94531,-10.90429 3.6952,-8.45242 7.67558,-17.06202 8.40625,-26.38477 0.0347,-2.36275 0.60924,-4.88789 -0.39063,-7.12695 -0.43726,-0.89233 -1.24565,-1.33269 -2.13672,-1.44532 z"
         transform="matrix(0.75000002,0,0,-0.75000002,402.41531,881.68525)" /><path
         id="path1402"
         style="fill:#ffffff;stroke-width:1.33333"
         inkscape:label="mask"
         d="m 813.35547,-152.44531 c -1.29987,0.0331 -2.62749,0.48151 -3.69922,1.15429 -5.81813,3.71822 -10.16947,9.20528 -14.60937,14.39258 -2.75783,3.5033 -6.05446,6.52127 -8.9629,9.89063 -0.43037,0.84382 -1.11721,0.96678 -1.96093,0.64453 -2.6358,-0.67319 -5.36473,-0.44174 -8.01953,-0.0273 -5.31931,0.92295 -10.72476,0.43899 -16.0879,0.61523 -5.01709,0.0143 -9.36001,2.90958 -13.32226,5.66797 -3.19589,-2.61196 -6.4141,-5.1962 -9.60938,-7.8086 -3.4726,-2.77753 -6.66884,-5.74043 -10.42968,-8.0957 -2.77524,-1.59676 -5.92023,-3.20165 -9.21875,-2.72656 -2.5882,0.27861 -4.42953,2.91206 -4.08789,5.43359 1.91577,7.9555 5.19453,15.48318 8.03515,23.13281 -0.0475,-0.003 -0.095,-0.007 -0.14258,-0.01 l 0.77539,0.73828 2.38868,4.04297 c 1.0063,0.79971 2.3461,2.60765 3.88476,5.29687 0.49687,0.868418 0.97266,1.628743 1.44141,2.324223 -2.03943,1.179613 -5.11458,4.161072 -8.74024,7.642578 -5.89816,5.66364 -13.06222,12.592561 -16.04687,16.302735 -3.66693,4.558306 -4.35742,5.87011 -4.35742,8.27539 0,4.17996 2.18531,9.261967 6.79883,15.808594 4.53141,6.430093 7.32505,8.766437 9.14453,7.648438 3.55977,-2.187267 8.9775,-14.848762 12.0039,-28.052735 1.11192,-4.85116 3.39971,-10.223877 4.69336,-11.023437 1.03491,-0.639587 1.60876,1.577684 2.32032,8.964843 0.50377,5.229534 0.4195,7.794783 -0.35547,10.910157 -2.21788,8.915653 -2.17597,10.57355 0.39843,16.27539 1.30431,2.88876 3.66149,7.130155 5.23828,9.425782 l 2.86524,4.173828 -0.0137,0.234375 3.58984,3.222656 c 0.0164,-0.542543 0.1128,-0.924352 0.76367,-0.169922 4.13182,2.90608 7.89705,6.379606 12.41797,8.695313 0.7774,0.998986 1.35385,2.221477 2.19727,3.208984 3.46045,3.93296 7.01944,7.8359875 11.12109,11.1171874 2.08247,1.8296799 4.73776,3.0806862 7.54883,3.0664062 2.71751,-0.19548 5.68994,-0.1597208 8.03906,-1.7421875 1.04947,-1.3069199 2.7021,-1.8184056 4.31055,-2.0097656 4.24428,-1.6002666 8.04956,-4.1749332 11.71289,-6.8144535 2.30467,-1.450306 4.44173,-3.357894 5.5,-5.927734 1.03853,-2.93048 1.1597,-6.100474 1.24023,-9.183594 0.016,-2.952733 -0.16717,-5.66381 -0.3789,-8.58789 -0.51587,-4.0122 -0.21105,-8.262028 -2.01172,-11.996094 -0.18587,-7.768133 -0.17895,-15.540708 -0.45508,-23.306641 -0.38467,-7.74264 -0.48506,-15.565148 -2.14453,-23.169922 -0.91053,-3.1016 -1.5253,-6.278324 -1.99024,-9.476564 2.6576,-5.85556 5.41142,-11.72449 7.82422,-17.60937 2.90614,-6.88838 5.32958,-14.1344 5.55664,-21.67383 0.128,-2.42856 0.39044,-5.6222 -1.63476,-7.56055 -0.95987,-0.98485 -2.23138,-1.36704 -3.53125,-1.33398 z m 0.0703,3.96875 c 0.3936,-0.0148 0.6837,0.12186 0.85156,0.42187 0.84187,1.5044 0.0133,10.08816 -1.45507,15.03125 -1.17667,3.96804 -4.68518,12.71573 -7.73438,19.28321 l -1.78906,3.85351 -0.79688,-2.2832 c -0.89733,-2.57386 -6.35477,-7.95204 -10.46093,-10.3086 -1.50004,-0.86085 -2.72852,-1.76774 -2.72852,-2.01562 0,-0.24788 1.17473,-1.57857 2.61133,-2.95703 1.43652,-1.37847 5.25273,-5.68787 8.48047,-9.57617 5.7144,-6.8838 10.89628,-11.36924 13.02148,-11.44922 z m -94.82422,13.61523 c 2.04911,0.0181 6.16,1.93156 9.49024,4.73047 2.27192,1.9094 7.23906,5.96846 11.03906,9.02148 3.8,3.05302 8.27684,6.85682 9.94922,8.45313 2.9816,2.84599 3.01881,2.93985 1.87109,4.80078 -3.28522,5.32669 -10.86108,10.988282 -14.70312,10.988282 -0.81236,0 -2.58695,-1.063281 -3.94336,-2.363281 -1.35644,-1.300001 -3.3093,-4.048331 -4.33985,-6.107421 -3.21249,-6.41909 -10.65234,-26.4025 -10.65234,-28.61328 0,-0.63338 0.48725,-0.91726 1.28906,-0.91016 z m 62.42383,12.03516 c 1.128,0.0708 2.13203,0.36218 3.55664,0.90625 5.92408,2.26241 17.09375,16.08641 17.09375,21.15625 0,0.914985 0.47181,3.067275 1.04688,4.781248 1.51253,4.50816 2.49979,15.724892 2.73632,31.076172 l 0.20704,13.414062 -5.29688,0.970704 c -2.91347,0.534106 -7.09838,1.76816 -9.30078,2.742187 -7.57571,3.350347 -23.23229,15.847506 -27.25781,21.757813 -0.97332,1.429 -2.02724,2.600515 -2.3418,2.603515 -0.31445,0.0027 -2.74769,-1.661539 -5.40625,-3.699219 -2.6586,-2.037679 -5.57213,-3.985018 -6.47461,-4.328124 -2.4314,-0.92444 -7.24293,-7.400882 -10.11328,-13.613282 -2.82173,-6.107293 -2.97375,-7.525765 -1.43359,-13.263672 2.2288,-8.303786 0.77839,-23.139582 -2.59375,-26.539062 -1.32043,-1.331227 -1.59468,-1.362541 -3.36524,-0.365234 -2.60653,1.468213 -5.20745,6.561736 -6.49609,12.722656 -1.79696,8.591226 -5.94972,20.925096 -8.15625,24.222656 l -2.09571,3.130859 -2.86718,-3.49414 c -4.22626,-5.151653 -7.51628,-10.654446 -8.67774,-14.513672 -0.9144,-3.038467 -0.89822,-3.615483 0.15821,-5.287109 0.65214,-1.031894 6.79146,-7.356095 13.64062,-14.052735 5.06099,-4.94824 10.79107,-11.029652 13.19922,-13.890625 3.16621,3.910027 6.24091,3.980697 12.35156,1.089844 4.64895,-2.19936 8.15437,-5.624212 10.53321,-10.287112 1.94893,-3.82033 1.87559,-4.35068 -1.08594,-7.81054 -1.4,-1.63559 -2.54492,-3.32618 -2.54492,-3.75586 0,-0.42967 1.71836,-1.68623 3.81836,-2.79297 3.52189,-1.85616 4.3814,-2.00003 11.08984,-1.84766 4,0.0908 9.30066,-0.18896 11.7793,-0.62109 1.91769,-0.33432 3.16887,-0.48289 4.29687,-0.41211 z m 8.08789,22.04492 c -0.0883,0.003 -0.17133,0.0175 -0.24805,0.0469 -0.676,0.25942 -0.6215,0.97677 0.22657,3.013677 1.64618,3.95408 3.85742,4.790398 3.85742,1.458984 0,-1.701853 -2.51065,-4.557371 -3.83594,-4.519531 z m -20.64453,2.847656 c -0.26641,-0.01493 -0.56103,0.08334 -0.89063,0.28711 -0.82791,0.511706 -0.8409,1.270985 -0.0801,4.515625 1.6941,7.223386 3.90387,7.271773 2.94531,0.06445 -0.4408,-3.314294 -1.02306,-4.813854 -1.97461,-4.867188 z m -17.28906,11.248047 c -1.43654,0 -2.10337,2.516766 -1.50781,5.691406 0.46813,2.4954 0.55951,2.57026 1.52343,1.251953 0.56408,-0.771399 1.02735,-2.650281 1.02735,-4.173828 0,-1.919546 -0.32101,-2.769531 -1.04297,-2.769531 z m -28.71485,5.986328 c -1.34521,-0.03373 -2.90682,2.126804 -5.7539,7.714844 -4.0598,7.96812 -5.5504,12.079544 -4.8125,13.273437 0.76362,1.2356 3.38116,-2.312271 7.94726,-10.767578 3.99928,-7.405546 4.60589,-9.209175 3.35157,-9.984375 -0.24104,-0.14896 -0.48331,-0.230074 -0.73243,-0.236328 z m 71.22461,4.195313 c -0.31417,0 -0.7563,0.707585 -0.98242,1.572265 -0.67445,2.579174 1.55494,5.515063 2.73633,3.603516 0.49912,-0.8076 -0.98117,-5.175781 -1.75391,-5.175781 z M 775.1914,-67.6875 c -0.42966,0.0067 -0.18688,0.452016 0.35937,1.472656 0.45948,0.85856 0.6748,2.985136 0.47852,4.726563 -0.40323,3.577253 0.2517,3.925267 3.86523,2.05664 1.18007,-0.610266 2.14649,-1.443929 2.14649,-1.853515 0,-1.94172 -2.36064,-4.956787 -4.45118,-5.685547 -1.323,-0.461213 -2.06427,-0.721664 -2.39843,-0.716797 z m -9.11524,2.199219 c -0.5193,-0.0013 -1.45966,0.515543 -2.95117,1.53125 -5.10379,3.475586 -4.60995,5.603866 1.30469,5.625 2.92196,0.01067 3.06573,-0.08253 2.31445,-1.486328 -0.44072,-0.823467 -0.59043,-2.460186 -0.33203,-3.636719 0.29956,-1.3638 0.25262,-2.03131 -0.33594,-2.033203 z m 39.8418,19.642578 c 0.30827,10e-4 0.51376,0.03706 0.58789,0.111328 0.71347,0.713453 1.82744,14.359269 1.5957,19.544922 -0.18986,4.24948 -0.6115,6.071348 -1.75976,7.609375 -1.48374,1.98732 -12.19721,8.8899115 -13.89649,8.9531249 -0.47722,0.017733 -3.14418,-1.9300779 -5.92578,-4.3300779 -7.6912,-6.636053 -8.68916,-5.823595 -2.63086,2.142578 1.87388,2.4639465 3.21286,4.6739028 2.97656,4.9101561 -0.23626,0.23624 -1.99159,0.5753996 -3.90039,0.7539063 -2.9752,0.2782133 -3.88502,0.021206 -6.3789,-1.8046875 -3.28779,-2.4071999 -12,-11.5177879 -12,-12.5488279 0,-3.21304 19.44876,-18.213551 29.12695,-22.464844 2.83143,-1.24376 10.04748,-2.883953 12.20508,-2.876953 z m -12.66016,16.615234 c -4.62042,0 -5.07034,1.848041 -1.21679,4.996094 2.83845,2.318813 4.54492,2.863252 4.54492,1.451172 0,-0.453587 -0.38041,-2.088366 -0.84375,-3.634766 -0.65499,-2.186106 -1.20648,-2.8125 -2.48438,-2.8125 z"
         transform="matrix(0.75000002,0,0,-0.75000002,402.41531,881.68525)" /></g></g></svg>
