<?xml version="1.0" encoding="UTF-8" standalone="no"?>
<!-- Created with Inkscape (http://www.inkscape.org/) -->

<svg
   version="1.1"
   id="svg2"
   xml:space="preserve"
   width="194.94531"
   height="176.73563"
   viewBox="0 0 194.94531 176.73563"
   sodipodi:docname="grass.svg"
   inkscape:version="1.1 (c68e22c387, 2021-05-23)"
   xmlns:inkscape="http://www.inkscape.org/namespaces/inkscape"
   xmlns:sodipodi="http://sodipodi.sourceforge.net/DTD/sodipodi-0.dtd"
   xmlns="http://www.w3.org/2000/svg"
   xmlns:svg="http://www.w3.org/2000/svg"><defs
     id="defs6" /><sodipodi:namedview
     id="namedview4"
     pagecolor="#505050"
     bordercolor="#eeeeee"
     borderopacity="1"
     inkscape:pageshadow="0"
     inkscape:pageopacity="0"
     inkscape:pagecheckerboard="0"
     showgrid="false"
     inkscape:zoom="1.0478929"
     inkscape:cx="456.28526"
     inkscape:cy="-426.10382"
     inkscape:window-width="3840"
     inkscape:window-height="2066"
     inkscape:window-x="-11"
     inkscape:window-y="-11"
     inkscape:window-maximized="1"
     inkscape:current-layer="g8"
     inkscape:snap-global="false"
     inkscape:rotation="2"
     fit-margin-top="0"
     fit-margin-left="0"
     fit-margin-right="0"
     fit-margin-bottom="0" /><g
     id="g8"
     inkscape:groupmode="layer"
     inkscape:label="base"
     transform="matrix(1.3333333,0,0,-1.3333333,-52.734375,236.78524)"><g
       id="g7108"
       inkscape:label="grass"><path
         id="path854"
         style="fill:#000000;stroke-width:0.999998"
         d="m 96.083984,46.539062 c -3.886674,0.08282 -7.833375,0.132299 -11.619681,1.105008 -3.67042,1.132023 -7.27301,2.570224 -10.601629,4.497168 -2.885776,1.808146 -4.812806,4.703911 -6.956411,7.273607 -6.40223,8.15206 -12.239872,16.759306 -17.330546,25.79099 -2.267637,4.019672 -4.245124,8.21481 -5.621859,12.626674 -1.24051,3.993741 -2.549324,8.028551 -2.887452,12.220221 -0.152882,1.04404 0.267998,2.34012 1.427735,2.55274 1.321137,0.0945 2.293825,-0.99684 3.356315,-1.6156 3.991999,-2.75846 7.797129,-5.78317 11.401497,-9.03089 3.931931,-3.380153 8.350929,-6.121175 12.39007,-9.364573 0.454439,-0.308951 -0.283247,0.528679 -0.290218,0.791518 -1.732755,4.674948 -2.859363,9.544505 -4.275633,14.319155 -0.43593,1.57755 -1.077509,3.22593 -1.324633,4.90107 -1.026148,5.03699 -1.826562,10.11886 -2.323855,15.23587 -0.554096,5.63624 -1.135135,11.28214 -1.229809,16.9486 -0.01062,0.84292 0.04853,1.82133 0.621067,2.45155 0.580669,0.26044 1.228801,0.45246 1.808011,0.0821 1.572529,-1.00926 2.761434,-2.51008 4.055817,-3.83927 2.647382,-2.92953 5.076069,-6.04002 7.740495,-8.9583 3.71661,-4.19733 6.944553,-8.80208 10.044676,-13.46441 1.02289,-1.53371 1.937182,-3.13638 2.720568,-4.80229 0.337523,-0.57354 0.738689,-1.22986 1.082975,-1.72675 -0.369817,7.94733 -0.167632,15.90877 0.02613,23.85855 0.164688,6.83471 0.604518,13.67261 1.680378,20.42954 0.776647,4.99217 1.409822,10.01311 2.461084,14.95717 0.196942,1.01215 0.707785,2.24133 1.898361,2.29595 1.227798,-0.0154 1.794725,-1.33006 2.306507,-2.27029 1.2893,-2.68527 2.477912,-5.42308 3.606906,-8.17921 1.71636,-4.70787 3.03692,-9.54781 4.89993,-14.20323 1.37002,-4.13809 2.32614,-8.39992 3.53503,-12.53129 0.58162,-1.96728 1.32165,-3.8821 1.79872,-5.88169 0.8544,-3.13993 1.5738,-6.31458 2.42953,-9.45401 0.94599,5.82263 1.55703,11.70439 2.77734,17.47954 1.17203,3.40679 1.49464,7.0387 2.6624,10.45025 1.50688,5.1037 4.06664,9.79578 6.43463,14.53361 1.63703,3.12063 3.18452,6.30264 5.08071,9.27683 0.39919,0.49881 1.00819,1.0015 1.67383,0.71875 1.40801,-0.29909 1.75586,-1.93037 2.04276,-3.1344 1.00921,-5.09189 1.29289,-10.29358 1.65192,-15.46243 0.5812,-9.20133 0.67808,-18.42171 0.87446,-27.63664 0.16096,-5.3381 0.2804,-10.64992 0.83203,-15.97832 -0.0437,-0.95085 0.22849,-0.24585 0.47876,0.28729 2.57176,5.18687 5.19132,10.35864 8.11593,15.35695 3.58862,5.91951 7.49166,11.67066 11.9398,16.98127 2.74293,3.07847 5.6757,5.98303 8.49598,8.99058 -0.4292,-5.82734 -0.735,-11.67388 -1.6974,-17.44541 -0.5819,-3.68624 -0.9187,-7.31086 -1.21048,-11.06385 -0.3568,-5.61912 -0.84806,-11.36549 -1.66243,-16.99074 -0.14912,-1.11142 -0.26124,-2.22716 -0.38282,-3.3418 3.70996,4.51663 7.94252,8.5745 12.22223,12.54395 3.44263,3.23486 7.2634,6.01882 10.98285,8.91894 -0.0583,-2.89499 0.13102,-5.8015 -0.12544,-8.6885 -0.0973,-0.76755 -0.23369,-1.61473 -0.84721,-2.14939 -0.44585,-1.89312 -0.58826,-3.84744 -0.96587,-5.75682 -1.0234,-5.90964 -2.03022,-11.826454 -3.29195,-17.690444 -1.73671,-5.234072 -2.76683,-10.700962 -4.91211,-15.796875 -1.67924,-3.812037 -4.59577,-6.946837 -7.79278,-9.551631 -4.96998,-3.879417 -10.81552,-6.388786 -16.52948,-8.950322 -2.62144,-1.083988 -5.51832,-1.114519 -8.1782,-2.073317 -1.98099,-0.660457 -4.02977,-1.243211 -5.8511,-2.276292 -1.46828,-1.050369 -3.19368,-1.687331 -4.81118,-2.475525 C 129.31106,51.928869 127.713,51.145838 126,50.744141 c -1.8589,-0.894152 -3.73834,-1.794314 -5.77774,-2.200381 -4.21971,-0.889681 -8.53231,-1.240919 -12.82234,-1.611195 -3.76503,-0.276003 -7.540358,-0.420126 -11.315936,-0.393503 z" /><path
         id="path6627"
         style="fill:#ffffff;stroke-width:1.33333"
         d="m 125.77734,941.41016 c -1.97414,0.0103 -3.70118,1.68757 -4.19726,3.57812 -1.39911,5.78088 -2.14,11.70565 -3.04883,17.57422 -1.30229,7.95052 -2.19638,15.96832 -2.55078,24.01953 -0.39489,10.2966 -0.62949,20.60517 -0.52539,30.91017 -4.26195,-6.6205 -8.78161,-13.1025 -13.92578,-19.07423 -3.229665,-3.60777 -6.2724,-7.28172 -9.445316,-10.98047 -2.229122,-2.43259 -4.323859,-5.0527 -6.998046,-7.01953 -1.386028,-1.23259 -3.428172,-1.12453 -4.996094,-0.31445 -1.185351,0.83249 -1.689216,2.42699 -1.791016,3.8457 -0.06213,5.63153 0.439216,11.25653 0.927734,16.86328 0.734999,8.3539 1.658995,16.7047 3.285157,24.9395 0.38358,1.7667 0.575972,3.2912 1.039062,5.0312 1.892575,6.1006 3.453861,12.2984 5.302735,18.4121 -3.410922,-2.4753 -6.863925,-4.8863 -10.132813,-7.5664 -4.889176,-4.3026 -9.886333,-8.4993 -15.236328,-12.2246 -1.938545,-1.1911 -3.657117,-3.0059 -6.001953,-3.332 -2.557853,-0.44 -4.746447,2.0005 -4.748047,4.4472 0.136152,4.8177 1.461534,9.5159 2.820313,14.1133 1.694903,5.9399 3.915988,11.7303 6.792968,17.2012 6.996916,13.0928 15.28841,25.4735 24.382813,37.1972 3.061173,3.7189 5.802615,7.8352 9.753906,10.6934 3.837235,2.4897 8.096525,4.2712 12.394535,5.8027 6.1111,2.3854 12.76402,2.4636 19.23047,2.6016 7.62755,0.048 15.24716,-0.4161 22.82812,-1.2344 4.23447,-0.5138 8.52887,-0.9566 12.60547,-2.2675 2.35003,-0.7237 4.43097,-2.1228 6.82226,-2.709 3.45627,-1.2962 6.8166,-2.8559 10.10352,-4.5313 2.31668,-1.6134 4.99218,-2.5537 7.66406,-3.3984 3.72868,-1.4698 7.80377,-1.6208 11.57227,-2.9453 6.3783,-2.7671 12.78307,-5.5798 18.68164,-9.293 6.08908,-3.8468 11.61394,-8.9503 14.9414,-15.416 3.34105,-7.0905 4.70462,-14.8841 7.1543,-22.2891 1.47346,-6.4032 2.55881,-12.895 3.71485,-19.3633 0.71934,-3.8762 1.29308,-7.7763 1.94921,-11.6621 1.03296,-1.44 1.35199,-3.258 1.4004,-5.0097 0.22786,-4.88 -0.0155,-9.7673 0.13281,-14.6504 -4.82636,3.7685 -9.75165,7.4134 -14.45508,11.3359 -5.48937,4.8041 -10.77832,9.8492 -15.75781,15.1817 0.14761,-1.0411 0.26213,-2.0858 0.39453,-3.129 1.30524,-10.1384 1.42986,-20.3926 2.89453,-30.51362 1.73295,-10.14605 2.15135,-20.44489 2.93359,-30.69141 -3.65473,3.8572 -7.3301,7.6949 -11.0039,11.5332 -5.76811,5.83996 -10.60264,12.51357 -15.16797,19.3125 -4.94276,7.30843 -9.18095,15.05993 -13.14844,22.93163 -0.492,1.3144 -0.30287,-0.6703 -0.4082,-1.1992 -0.74328,-14.8376 -0.59324,-29.76942 -1.35547,-44.6504 -0.50512,-8.4798 -0.86205,-17.00624 -2.37695,-25.38086 -0.43455,-2.41154 -1.16098,-5.32825 -3.68946,-6.32812 -1.62337,-0.80584 -3.62404,-0.21875 -4.71875,1.18359 -2.19662,3.14044 -3.88236,6.6201 -5.67773,10.00196 -3.57202,7.07413 -7.47346,14.04942 -9.92383,21.61718 -1.68696,4.73852 -2.23019,9.77862 -3.73633,14.56641 -1.12737,4.65873 -1.75366,9.43254 -2.45312,14.17384 -0.54943,-1.9931 -0.99394,-4.01566 -1.63477,-5.98243 -2.40144,-6.939 -3.86901,-14.15198 -6.125,-21.13477 -1.72281,-4.52368 -3.25249,-9.11112 -4.73242,-13.71289 -1.65307,-5.39392 -3.91876,-10.5685 -6.30078,-15.67383 -0.99844,-2.09465 -2.07764,-4.73495 -4.60156,-5.28906 -0.28922,-0.0707 -0.57541,-0.10304 -0.85743,-0.10156 z m 0.0586,4.04492 c 0.28131,0 1.40264,2.04492 2.49218,4.54492 1.08955,2.5 2.41485,5.52656 2.94532,6.72656 0.53046,1.2 2.00033,5.45508 3.26758,9.45508 1.26725,4 2.75598,8.27484 3.30664,9.5 0.55065,1.22524 2.00794,6.1354 3.24023,10.91016 1.23228,4.77484 2.5486,9.33476 2.92383,10.13476 0.37524,0.8 1.88173,6.36524 3.34766,12.36524 1.46591,6 3.01969,11.1367 3.45312,11.416 0.53551,0.3451 1.43836,-4.1995 2.81836,-14.1816 1.11693,-8.0794 2.33317,-15.34456 2.70117,-16.14456 0.368,-0.8 1.19636,-4.1882 1.8418,-7.5293 0.64542,-3.34116 2.39503,-8.90444 3.88867,-12.36328 2.86189,-6.62741 12.3224,-24.83398 12.9043,-24.83398 2.00002,0 3.93531,22.60511 4.33008,50.60351 0.16399,11.63191 0.63276,24.11141 1.04296,27.73241 0.50138,4.426 0.50711,7.8425 0.0176,10.4238 -0.40049,2.1118 -0.56326,4.0032 -0.36133,4.2051 0.20192,0.202 0.36719,-0.081 0.36719,-0.6289 0,-1.5945 6.11365,-14.2904 12.94531,-26.8828 5.13458,-9.4642 14.60679,-23.04445 20.03516,-28.72656 l 5.55859,-5.81836 -0.42382,5.81836 c -0.23284,3.2 -0.91409,8.76328 -1.51368,12.36328 -0.59958,3.6 -1.36718,11.12848 -1.70507,16.72848 -0.3379,5.6 -1.14795,13.8732 -1.80079,18.3868 -0.65282,4.5135 -1.08425,9.0859 -0.95898,10.1601 0.21507,1.8443 0.43532,1.6911 3.9668,-2.7519 4.45138,-5.6005 16.295,-17.1242 22.63672,-22.0254 l 4.5332,-3.5039 v 4.4121 c 0,2.4265 -0.28483,4.4121 -0.63281,4.4121 -0.34798,0 -0.80557,1.3918 -1.01758,3.0918 -0.62027,4.9732 -4.88163,28.4432 -5.38086,29.6367 -0.25097,0.6 -1.35539,4.3633 -2.45313,8.3633 -3.11309,11.3437 -4.42785,14.3144 -8.33398,18.8261 -5.36799,6.2003 -11.66284,10.126 -26.91016,16.7813 -1.2,0.5238 -3.8164,1.1812 -5.8164,1.4609 -3.42774,0.4795 -12.66377,3.7035 -13.45508,4.6973 -0.48037,0.6033 -10.47146,5.1426 -11.33203,5.1484 -0.3681,0 -1.49443,0.4341 -2.50391,0.961 -3.82607,1.9969 -7.11768,2.7259 -17.03516,3.7715 -14.06034,1.4822 -29.23082,1.3578 -35.33007,-0.2891 -2.61004,-0.7047 -7.25867,-2.4895 -10.33008,-3.9668 -5.192541,-2.4975 -6.02107,-3.2329 -11.828126,-10.4922 -11.089056,-13.8622 -23.105502,-32.6449 -27.958985,-43.7031 -2.617845,-5.9645 -5.795205,-16.6617 -6.384765,-21.4922 -0.360027,-2.9498 -0.2585,-3.4591 0.58789,-2.9453 3.775951,2.2919 11.877084,8.4451 15.453125,11.7383 2.335528,2.1508 6.588652,5.5434 9.453125,7.541 2.864466,1.9976 6.624371,4.7715 8.355469,6.1621 1.731099,1.3906 3.449458,2.5273 3.818359,2.5273 0.885413,0 0.866427,-3.8776 -0.02344,-4.7675 -0.382029,-0.3821 -2.040631,-5.5867 -3.685547,-11.5664 -1.644909,-5.9798 -3.126562,-11.0921 -3.292969,-11.3614 -0.166408,-0.2692 -1.1307,-5.1944 -2.142578,-10.9433 -1.667592,-9.4744 -3.829878,-35.23068 -3.02539,-36.03519 0.347352,-0.34734 5.402978,4.88938 8.90039,9.21875 1.130967,1.4 4.390034,5.16524 7.242188,8.36524 4.742624,5.321 14.300244,18.9912 15.390624,22.0137 0.50906,1.411 6.17098,9.747 6.41797,9.4492 0.0872,-0.1051 -0.15952,-2.6465 -0.54883,-5.6465 -0.41054,-3.1636 -0.52793,-14.1599 -0.27734,-26.1816 0.34783,-16.68713 0.78831,-23.1362 2.25586,-33.08988 2.55721,-17.34429 3.43485,-22.18164 4.02344,-22.18164 z m 7.9414,56.17582 c -0.0672,-0.01 -0.1363,0 -0.20703,0.025 -2.12689,0.7024 -1.02116,16.9179 1.41211,20.7071 1.2526,1.9505 2.89589,2.2399 2.0625,0.3633 -0.31086,-0.7 -0.79239,-4.7082 -1.07031,-8.9082 -0.56864,-8.5933 -1.18945,-12.0916 -2.19727,-12.1875 z m 34.15625,2.6132 c -1.19681,0.1989 -2.08229,13.4661 -0.94726,16.4239 0.93481,2.4361 1.74023,0.9691 1.74023,-3.17 0,-2.3763 0.32852,-4.5242 0.72852,-4.7714 1.2874,-0.7957 0.49535,-5.969 -1.27735,-8.3418 -0.0821,-0.1099 -0.16435,-0.1539 -0.24414,-0.1407 z m 36.76953,16.8477 c -1.49434,0 -5.37755,5.1352 -6.32421,8.3633 -0.46923,1.6 -1.09935,3.0827 -1.40039,3.2949 -1.38362,0.9754 -0.77607,7.256 0.70117,7.248 0.27638,0 1.89349,-2.9558 3.59375,-6.5644 3.60201,-7.645 4.90732,-12.3418 3.42968,-12.3418 z m -102.99023,1.4531 c -0.3042,0 -1.4122,0.3913 -2.460937,0.8692 -1.693701,0.7717 -1.852978,1.1551 -1.427734,3.4218 0.263309,1.4036 1.065414,3.7123 1.783203,5.1309 0.717788,1.4186 1.543978,3.725 1.833988,5.125 0.70522,3.4045 3.95761,11.6035 5.40039,13.6133 1.85396,2.5825 2.97512,2.0432 2.97851,-1.4317 0.004,-4.7663 -6.65671,-26.7285 -8.10742,-26.7285 z m 41.51758,8.4785 c -0.73889,0.045 -1.38668,0.3262 -1.92188,0.8614 -0.98761,0.9875 -1.0845,2.5159 -0.67578,10.5918 0.26267,5.1899 0.69075,11.2542 0.95117,13.4785 l 0.47266,4.0449 -2.48242,-1.998 c -4.79367,-3.8555 -14.99046,-10.5093 -17.37891,-11.3418 -1.32712,-0.4627 -3.38263,-0.8418 -4.56836,-0.8418 h -2.15625 l 0.51368,3.455 c 0.2824,1.9 1.25616,5.0899 2.16406,7.0899 0.9079,2 1.90042,4.4551 2.20508,5.4551 0.30466,1 2.32372,5.7064 4.48828,10.4589 2.16455,4.7526 3.84262,8.7275 3.72851,8.8321 -0.1141,0.1045 -4.2594,-1.787 -9.21289,-4.2012 -7.5577,-3.6835 -9.66421,-4.4013 -13.0918,-4.4668 l -4.08398,-0.078 0.0937,2.8555 c 0.0519,1.5701 0.54365,3.2069 1.0918,3.6367 0.54815,0.4298 2.26165,2.7445 3.80859,5.1445 2.95797,4.5891 17.26916,19.1821 21.11719,21.5332 2.10532,1.2863 2.31257,1.2958 3.16211,0.1465 0.5,-0.6764 0.9082,-1.8101 0.9082,-2.5195 0,-0.7096 -0.73672,-1.6766 -1.63672,-2.1485 -3.29314,-1.7269 -7.38791,-5.4096 -11.91797,-10.7187 -4.16425,-4.8805 -7.57823,-10.0463 -6.23242,-9.4297 0.28317,0.1297 5.07501,2.4854 10.64844,5.2363 l 10.13281,5.002 1.32227,-1.6309 c 0.72656,-0.8972 1.32031,-2.5384 1.32031,-3.6465 0,-2.5077 -2.93222,-10.3966 -5.74609,-15.4609 -1.16689,-2.1001 -3.00908,-6.1082 -4.09571,-8.9082 -1.08662,-2.8 -2.26331,-5.4032 -2.61328,-5.7832 -0.34996,-0.38 -0.63672,-1.1261 -0.63672,-1.6602 0,-1.0535 1.89578,-0.3286 3.76172,1.4395 0.53119,0.5033 2.275,1.7827 3.875,2.8437 1.6,1.061 5.61758,4.4149 8.92774,7.4531 7.08252,6.5009 8.43468,6.9206 7.84765,2.4336 -0.22241,-1.7 -0.58066,-5.8236 -0.79687,-9.164 -0.21622,-3.3404 -0.70061,-9.2322 -1.07617,-13.0918 -0.37558,-3.8596 -0.67559,-7.5074 -0.66797,-8.1074 0.0216,-1.7021 6.10173,5.5062 8.18164,9.6992 1.02452,2.0654 3.18882,6.6191 4.80859,10.1191 1.61977,3.5 3.2169,6.3633 3.55078,6.3633 0.33387,0 1.31659,-0.753 2.18164,-1.6738 1.81708,-1.9343 3.04078,-7.499 3.05274,-13.8809 l 0.008,-4.4453 2.51953,4.5273 c 1.39044,2.4979 3.35428,7.8215 4.38281,11.8789 2.27259,8.9654 5.54551,15.2576 7.65039,14.7071 0.81023,-0.2119 4.12132,-4.4177 7.66797,-9.7422 3.43278,-5.1536 6.542,-9.3711 6.91016,-9.3711 0.88603,0 0.84894,2.881 -0.17969,13.9102 -0.6947,7.4488 -0.67472,9.6182 0.10156,11.4921 0.7763,1.8742 1.31349,2.2684 2.85157,2.0899 1.8362,-0.2132 1.92424,-0.4486 2.74414,-7.4922 0.46561,-4 0.87381,-12.0849 0.9082,-17.9668 l 0.0625,-10.6953 -2.53906,-0.4766 c -3.26391,-0.6123 -4.33033,-0.1663 -5.63672,2.3575 -0.58463,1.1294 -2.91252,4.9682 -5.17188,8.5292 -2.25933,3.5611 -4.11842,6.8325 -4.13281,7.2715 -0.0144,0.439 -0.81202,1.7598 -1.77148,2.9336 l -1.74414,2.1328 -0.33008,-1.7695 c -2.02988,-10.87 -3.67285,-15.7234 -8.39063,-24.7949 -2.76609,-5.3188 -5.50683,-9.9722 -6.08984,-10.3399 -1.66357,-1.0493 -4.6938,0.063 -5.18555,1.9024 -0.24178,0.9043 -0.65326,4.1533 -0.91406,7.2207 l -0.47461,5.5762 -3.44531,-5.2129 c -4.99865,-7.5636 -9.92316,-11.8383 -13.125,-11.6446 z m 85.44922,17.7774 c -0.23582,0.01 -0.48615,0.025 -0.75,0.057 -2.30278,0.273 -5.00435,4.7149 -8.32422,13.6875 -1.10999,3 -2.86611,7.1715 -3.90235,9.2696 -1.88954,3.8256 -2.32657,6.0464 -1.375,6.998 1.02478,1.0248 2.67326,0.036 4.08204,-2.4492 0.79362,-1.4 3.24423,-6.1449 5.44531,-10.5449 2.20107,-4.4 4.73201,-8.9817 5.625,-10.1817 3.10924,-4.1782 2.73653,-6.9217 -0.80078,-6.8359 z m -149.513674,13.7285 c -0.390792,-0.017 -0.621094,0.2281 -0.621094,0.7676 0,1.3753 3.810238,8.2986 6.189453,11.248 1.290676,1.6 2.728359,3.6469 3.195313,4.5469 0.969621,1.8689 2.822566,2.1607 3.443359,0.543 0.938137,-2.4448 -0.249808,-4.4144 -8.667969,-14.3614 -1.457615,-1.7223 -2.793006,-2.7115 -3.539062,-2.7441 z m 74.041014,22.9297 c -1.08419,0.028 -1.51,0.34 -2.12695,0.957 -1.25992,1.2599 -1.20318,1.5471 1.55078,7.7324 3.54013,7.951 4.70086,9.4357 6.58789,8.4258 0.75956,-0.4065 1.52478,-1.1516 1.69922,-1.6562 0.17444,-0.5046 -0.67171,-2.6824 -1.88086,-4.8379 l -2.19922,-3.918 2.49023,0.4941 c 1.36958,0.2727 4.46802,0.6801 6.88477,0.9043 3.51373,0.3261 4.59018,0.1718 5.37305,-0.7714 0.82965,-0.9997 0.78848,-1.3899 -0.26563,-2.5547 -1.78718,-1.9749 -4.23899,-2.7963 -12.03515,-4.0332 -3.25166,-0.516 -4.99394,-0.7705 -6.07813,-0.7422 z"
         transform="matrix(0.75000002,0,0,-0.75000002,0,883.63645)" /></g></g></svg>
