<?xml version="1.0" encoding="UTF-8" standalone="no"?>
<!-- Created with Inkscape (http://www.inkscape.org/) -->

<svg
   version="1.1"
   id="svg2"
   xml:space="preserve"
   width="309.90109"
   height="518.31958"
   viewBox="0 0 309.90109 518.31959"
   sodipodi:docname="man.svg"
   inkscape:version="1.1 (c68e22c387, 2021-05-23)"
   xmlns:inkscape="http://www.inkscape.org/namespaces/inkscape"
   xmlns:sodipodi="http://sodipodi.sourceforge.net/DTD/sodipodi-0.dtd"
   xmlns="http://www.w3.org/2000/svg"
   xmlns:svg="http://www.w3.org/2000/svg"><defs
     id="defs6"><inkscape:path-effect
       effect="roughen"
       id="path-effect8410"
       is_visible="true"
       lpeversion="1.1"
       method="size"
       max_segment_size="10"
       segments="2"
       displace_x="1;1"
       displace_y="1;1"
       global_randomize="0.9;1"
       handles="smooth"
       shift_nodes="true"
       fixed_displacement="false"
       spray_tool_friendly="false" /><inkscape:path-effect
       effect="lattice2"
       gridpoint0="519.51114,805.80367"
       gridpoint1="646.90039,805.80367"
       gridpoint2="519.51114,1036.2196"
       gridpoint3="646.90039,1036.2196"
       gridpoint4="551.35845,805.80367"
       gridpoint5="615.05308,805.80367"
       gridpoint6="551.35845,1036.2196"
       gridpoint7="615.05308,1036.2196"
       gridpoint8x9="583.20576,805.80367"
       gridpoint10x11="583.20576,1036.2196"
       gridpoint12="519.51114,863.40767"
       gridpoint13="646.90039,863.40767"
       gridpoint14="519.51114,978.61565"
       gridpoint15="646.90039,978.61565"
       gridpoint16="551.35845,863.40767"
       gridpoint17="615.05308,863.40767"
       gridpoint18="551.35845,978.61565"
       gridpoint19="615.05308,978.61565"
       gridpoint20x21="583.20576,863.40767"
       gridpoint22x23="583.20576,978.61565"
       gridpoint24x26="519.51114,921.01166"
       gridpoint25x27="646.90039,921.01166"
       gridpoint28x30="551.35845,921.01166"
       gridpoint29x31="615.05308,921.01166"
       gridpoint32x33x34x35="583.20576,921.01166"
       id="path-effect8408"
       is_visible="true"
       lpeversion="1"
       horizontal_mirror="false"
       vertical_mirror="false"
       perimetral="false"
       live_update="true" /><inkscape:path-effect
       effect="lattice2"
       gridpoint0="588.16666,365.86133"
       gridpoint1="757.22466,365.86133"
       gridpoint2="588.16666,444.32781"
       gridpoint3="757.22466,444.32781"
       gridpoint4="630.43116,365.86133"
       gridpoint5="714.96016,365.86133"
       gridpoint6="630.43116,444.32781"
       gridpoint7="714.96016,444.32781"
       gridpoint8x9="672.69566,365.86133"
       gridpoint10x11="672.69566,444.32781"
       gridpoint12="588.16666,385.47795"
       gridpoint13="757.22466,385.47795"
       gridpoint14="588.16666,424.71119"
       gridpoint15="757.22466,424.71119"
       gridpoint16="630.43116,385.47795"
       gridpoint17="714.96016,385.47795"
       gridpoint18="630.43116,424.71119"
       gridpoint19="714.96016,424.71119"
       gridpoint20x21="672.69566,385.47795"
       gridpoint22x23="672.69566,424.71119"
       gridpoint24x26="588.16666,405.09457"
       gridpoint25x27="757.22466,405.09457"
       gridpoint28x30="630.43116,405.09457"
       gridpoint29x31="714.78404,407.06306"
       gridpoint32x33x34x35="671.89494,408.227"
       id="path-effect6231"
       is_visible="true"
       lpeversion="1"
       horizontal_mirror="false"
       vertical_mirror="false"
       perimetral="false"
       live_update="true" /><inkscape:path-effect
       effect="roughen"
       id="path-effect4725"
       is_visible="true"
       lpeversion="1.1"
       method="size"
       max_segment_size="10.692"
       segments="2"
       displace_x="0.86;1"
       displace_y="1.56;1"
       global_randomize="0.3;1"
       handles="along"
       shift_nodes="true"
       fixed_displacement="false"
       spray_tool_friendly="false" /><inkscape:path-effect
       effect="roughen"
       id="path-effect4287"
       is_visible="true"
       lpeversion="1.1"
       method="size"
       max_segment_size="24.692"
       segments="2"
       displace_x="0.86;1"
       displace_y="1.56;1"
       global_randomize="1;1"
       handles="along"
       shift_nodes="true"
       fixed_displacement="false"
       spray_tool_friendly="false" /><inkscape:path-effect
       effect="roughen"
       id="path-effect4029"
       is_visible="true"
       lpeversion="1.1"
       method="size"
       max_segment_size="10.692"
       segments="2"
       displace_x="0.86;1"
       displace_y="1.56;1"
       global_randomize="1;1"
       handles="along"
       shift_nodes="true"
       fixed_displacement="false"
       spray_tool_friendly="false" /></defs><sodipodi:namedview
     id="namedview4"
     pagecolor="#505050"
     bordercolor="#eeeeee"
     borderopacity="1"
     inkscape:pageshadow="0"
     inkscape:pageopacity="0"
     inkscape:pagecheckerboard="0"
     showgrid="false"
     inkscape:zoom="1.0478929"
     inkscape:cx="163.38649"
     inkscape:cy="193.00116"
     inkscape:window-width="3840"
     inkscape:window-height="2066"
     inkscape:window-x="-11"
     inkscape:window-y="-11"
     inkscape:window-maximized="1"
     inkscape:current-layer="g8"
     inkscape:snap-global="false"
     fit-margin-top="0"
     fit-margin-left="0"
     fit-margin-right="0"
     fit-margin-bottom="0" /><g
     id="g8"
     inkscape:groupmode="layer"
     inkscape:label="man"
     transform="matrix(1.3333333,0,0,-1.3333333,-204.52705,714.67048)"><g
       id="g4717"
       inkscape:label="arm_l"
       transform="translate(-372.68935,-32.571726)"><path
         id="path4710"
         style="fill:#000000;stroke-width:0.999998"
         d="m 661.30032,368.71178 c -3.63069,1.17339 -2.8882,1.25 -6.33433,2.90631 -9.15185,4.21145 -17.19958,8.90712 -25.88715,13.98437 -1.6707,2.45448 -6.0261,1.62469 -8.66478,2.52254 -1.37517,-0.32088 -2.0985,-1.30913 -3.11552,-0.7073 -2.7025,1.40796 -5.06428,3.37402 -7.50709,5.17721 -3.12467,2.40169 -4.80507,5.4004 -7.84062,7.91694 -1.99235,1.6517 -5.40924,2.74042 -7.2528,4.56226 -0.56573,0.56516 -1.29179,0.93658 -1.97646,1.29799 -1.66727,2.10075 -3.3548,4.30405 -4.17079,6.89352 -1.03205,3.46963 0.14944,7.14885 1.953,10.14515 1.764,3.12303 4.44902,6.07629 8.09393,6.85082 2.26836,0.45834 4.68193,0.35995 6.89057,-0.32995 1.63682,-0.72955 3.39821,-1.13647 5.05,-1.83745 5.76136,-2.23621 11.50044,-4.55236 17.08447,-7.20482 2.999,-1.58718 6.15381,-3.05766 8.64092,-5.41671 0.74967,-0.72292 1.2262,-1.69508 1.31836,-2.72266 1.67585,-0.16069 3.2503,-0.8096 4.88986,-1.31292 5.21715,-2.28536 9.74656,-5.01231 14.86028,-7.50795 1.06729,-0.54389 2.4978,-1.15173 3.58981,-1.66205 2.49891,-1.10355 4.0193,-1.10954 6.74343,-1.52898 1.63723,-0.009 4.00857,1.17878 5.50644,1.72183 6.28995,2.69175 12.22919,4.32025 18.51468,7.02113 5.33363,2.24465 10.28043,4.54254 14.8789,8.0159 3.3455,2.52203 6.27316,4.36901 8.49309,7.91309 2.85443,4.38116 5.70808,9.01605 10.14803,11.97621 3.86623,2.54412 7.87447,5.03546 12.34228,6.3696 2.9611,0.88941 6.389,0.86345 9.00808,-0.95488 2.37444,-1.71208 4.23622,-4.02332 6.07981,-6.27168 1.57663,-2.03723 3.16798,-4.15383 3.87221,-6.67339 0.65393,-1.84333 1.21571,-4.06887 -0.003,-5.81477 -0.62657,-0.83643 -1.26417,-1.75925 -1.21966,-2.85271 -0.46768,-2.7467 -1.69611,-7.49317 -3.76126,-9.2116 -1.84126,-1.52611 -4.37369,-2.42408 -6.59747,-3.27007 -6.52842,-3.58375 -13.04303,-5.50431 -19.3474,-9.45494 -4.87425,-3.13816 -10.52634,-4.15335 -15.30049,-7.44698 -6.26559,-4.2273 -13.10753,-8.45145 -19.48735,-12.57267 -4.57915,-2.94467 -8.56415,-5.21132 -13.61099,-7.30093 -1.50267,-0.62448 -3.63187,-1.29234 -5.24744,-1.44159 -2.55482,-0.61984 -3.73185,-1.51981 -6.27961,-2.16819 -1.56821,1.83755 -4.86031,2.49214 -2.34166,0.007 z"
         inkscape:label="bg"
         sodipodi:nodetypes="ccccccsccccccccccccccccccccccccccccccccccc" /><path
         id="path4265"
         style="fill:#ffffff;stroke-width:1.33333"
         d="m 987.22167,583.63039 c -0.54905,0.006 -1.02419,-0.18718 -1.57087,-0.0958 -3.37967,0.62871 -6.80025,1.87662 -9.92845,3.50735 -3.12549,1.62933 -6.08144,3.95442 -9.04461,5.7727 -2.98699,1.70922 -5.50962,3.89676 -7.83633,6.25706 -2.32484,2.3584 -4.43611,4.97522 -6.50857,7.6921 -1.74351,2.36196 -3.73838,4.58973 -5.78297,6.77005 -2.04724,2.18315 -4.27832,4.63849 -6.64372,6.29233 -2.04739,1.38252 -3.92127,2.80579 -5.99632,4.01998 -1.91193,1.35272 -4.24426,2.3345 -6.42823,3.36666 -2.15591,1.01891 -4.39684,1.91892 -6.6023,2.83722 -3.02776,1.18076 -6.50298,2.52508 -9.51162,3.69101 -3.1446,1.22445 -6.28318,2.44509 -9.35798,3.67183 -3.113,1.24197 -6.17331,2.7438 -9.24177,4.04757 -1.62889,0.59769 -2.86297,0.51601 -4.66533,0.0584 -2.0219,-0.5434 -4.01564,-1.20453 -6.0642,-1.94413 -2.0455,-0.73852 -4.18936,-1.6275 -6.0471,-2.51672 -2.20377,-1.05357 -4.37214,-2.17124 -6.52686,-3.32753 -2.15382,-1.15581 -4.29772,-2.34112 -6.46195,-3.50917 -2.9422,-1.48972 -5.851,-2.82623 -9.06669,-3.70823 -1.1015,-0.39593 -2.05725,-1.14179 -2.64834,-2.21802 -0.48034,-3.07044 -3.98139,-3.33033 -6.34988,-4.92434 -2.04768,-1.28489 -4.56458,-2.64351 -7.26281,-3.95257 -2.70852,-1.33091 -5.52472,-2.54637 -8.30681,-3.70779 -2.79172,-1.16544 -5.50932,-2.24459 -7.81607,-3.1175 -2.58556,-0.92879 -4.34613,-0.0493 -6.1202,0.85728 2.29108,0.78243 4.8291,1.47992 7.39665,2.42152 2.54344,0.73167 5.2243,2.11662 7.45834,3.05372 2.1893,0.91833 4.01084,1.36564 5.21723,1.93352 4.01385,1.88941 6.82885,3.38099 8.70532,4.79341 1.87961,1.41477 2.83541,2.75489 2.81787,3.6979 -0.0349,1.87811 2.87083,3.8138 6.43662,4.55878 0.54133,0.11309 1.8234,0.84936 3.65203,1.78945 1.83755,0.94467 4.13275,2.18211 6.36769,3.42522 3.20075,1.78032 6.2754,3.35097 9.16932,4.77548 2.86371,1.37091 5.52778,2.68497 7.85158,3.65627 2.29919,0.96102 4.27276,1.54173 5.67502,1.89386 2.80541,0.70448 3.37079,0.80395 7.79186,-1.09247 1.34261,-0.57592 3.99152,-1.63799 7.22367,-2.89186 3.29972,-1.28009 6.88829,-2.70525 10.50797,-3.96807 3.53628,-1.23371 6.0394,-2.15768 8.51221,-3.09624 2.28415,-0.91999 4.44056,-1.94864 6.47636,-2.89888 1.99905,-0.93306 4.0626,-1.72655 6.26969,-2.98134 3.52026,-2.00137 6.09765,-3.33826 8.50789,-5.01541 2.2485,-1.36283 4.67074,-3.13524 6.63266,-5.13441 1.86947,-1.90497 3.45326,-4.79564 5.36115,-7.30602 3.46173,-4.5549 5.90212,-7.66032 8.221,-9.90472 2.32793,-2.25317 4.48246,-3.61603 7.289,-5.34014 4.6994,-2.88694 8.54424,-5.07805 11.89198,-6.41423 3.32593,-1.42646 6.10794,-1.8609 8.50837,-1.62744 2.38989,0.23242 4.4167,1.167 6.19933,2.92661 1.91955,1.89476 4.12786,4.72405 6.1057,7.74167 1.9463,2.96924 3.7326,5.97048 4.2353,7.64583 1.8945,6.31467 1.7471,8.02628 0.069,10.19394 -0.8595,1.11062 -1.5299,3.24643 -1.5513,4.21507 -0.052,2.36042 -1.7008,4.90944 -4.2418,7.0001 -2.53863,2.08877 -6.10126,3.45809 -9.59963,4.19793 -0.80469,0.17017 -2.97498,1.02949 -5.99606,2.44785 -3.01594,1.41595 -7.01051,3.4256 -10.77713,5.24761 -2.48385,1.20148 -5.2366,2.53077 -7.84051,3.77507 -2.62178,1.26851 -5.2717,2.50294 -7.50418,3.57328 -2.23137,1.0698 -4.04739,1.98892 -5.39404,2.61929 -1.34698,0.63054 -3.24138,1.80559 -5.24963,2.88652 -2.09779,1.35001 -3.93781,2.34583 -6.09982,3.57822 -2.20498,1.25687 -4.44341,2.49878 -6.37941,3.78587 -4.29416,2.85486 -7.96533,5.20271 -11.45508,7.56121 -3.40567,2.13423 -6.57787,4.83802 -9.46676,6.6917 -2.60976,2.07758 -5.55743,3.14689 -7.81831,4.32233 -2.4167,0.9998 -4.08989,2.29916 -5.68833,2.88702 -1.64603,0.60535 -2.86719,0.42436 -3.99016,0.41279 -0.0898,-8.8e-4 -2.47937,0.73298 -5.17607,1.43532 -1.57993,0.45601 -4.7851,1.34542 -4.7851,1.34542 -2.01783,-0.65985 -6.07041,-1.9727 -6.07041,-1.9727 -1.95575,-0.67674 -4.35422,-1.80067 -7.04451,-2.97656 -2.69519,-1.33237 -5.6634,-2.63371 -8.91602,-4.17493 -3.24619,-1.63639 -6.77835,-3.25982 -10.48259,-5.10195 -3.69002,-1.83505 -7.66756,-3.9866 -11.62141,-6.114 -6.43837,-3.46422 -10.91966,-5.96866 -13.71932,-6.94241 -2.82279,-0.9818 -3.95005,-0.57425 -3.94502,0.53567 0.003,0.70568 -0.24783,0.88251 -1.31512,0.51962 -0.96493,-0.46755 -2.88359,-1.34449 -5.77568,-3.20107 -2.93541,-1.88438 -6.74125,-4.80675 -12.20918,-8.71238 -1.0017,-0.71549 -2.34732,-1.43636 -3.39265,-2.22563 1.20103,2.89513 2.79953,5.60737 5.74046,7.65107 2.06542,1.39462 4.10904,3.47833 6.29449,5.25061 2.18451,1.77151 4.55092,3.15204 6.78216,4.26338 1.84625,1.14998 4.483,1.34374 6.26515,-0.2982 2.42281,0.81465 4.0001,1.02093 6.2846,2.14189 2.80417,1.44105 5.51533,3.78181 8.3176,5.77805 2.80918,2.00117 5.74294,3.5981 8.68993,5.23006 2.92925,1.62214 6.41252,3.34648 9.62815,4.85007 3.23501,1.51266 6.262,2.98865 9.31762,4.3907 2.75558,1.33936 5.38648,2.46547 8.05064,3.38668 2.76317,0.95544 5.49842,1.63845 8.26159,2.59389 -0.0261,-0.31357 -0.11068,-0.96888 -0.11068,-0.96888 -0.0188,0.23528 0.70201,0.57929 0.89316,0.64735 2.64301,-0.68661 5.55037,-1.87382 8.18193,-2.54048 2.24094,-0.72663 3.82276,-1.10395 6.04353,-1.85859 2.5693,-0.88428 5.09119,-2.15443 7.58572,-3.15756 2.50114,-1.00579 4.95331,-1.75044 7.18903,-3.17556 2.30639,-1.48808 4.38065,-3.16649 6.54618,-4.80603 2.18298,-1.65276 4.33262,-3.30759 6.54088,-4.81596 2.21191,-1.51086 4.52813,-3.02181 6.86715,-4.46609 2.32066,-1.43294 4.74098,-2.85463 7.02134,-4.27678 2.69816,-1.70819 5.45172,-3.384 8.28022,-4.9748 2.80002,-1.61365 5.58369,-2.9345 8.428,-4.37814 2.94939,-1.49697 5.91147,-3.0736 8.94684,-4.52457 2.41801,-1.14034 4.68505,-2.24723 7.10306,-3.38757 2.34809,-1.12937 4.61326,-2.26686 7.04524,-3.34122 2.45775,-1.08575 5.1746,-2.08179 7.73066,-3.07749 2.57295,-0.79237 5.60515,0.10815 7.99798,-1.12762 2.0081,-1.05614 4.2055,-2.80141 5.9512,-4.71186 1.7371,-1.90105 2.8299,-4.2532 3.6463,-6.67353 0.5766,-1.36878 -0.04,-2.07644 0.9424,-3.24536 1.7346,-2.01363 2.7383,-4.24954 2.3082,-7.19858 -0.3272,-2.21135 -0.6476,-4.77842 -1.2651,-7.42627 -0.6188,-2.65278 -1.5095,-5.23941 -2.5854,-7.00856 -1.3624,-2.24766 -2.9052,-3.9612 -4.5395,-5.54241 -1.6373,-1.58395 -3.37195,-3.05136 -5.126,-4.69088 -1.42842,-1.41963 -3.17545,-2.37662 -4.96691,-3.2095 -1.79916,-0.83648 -3.63429,-1.58454 -5.55856,-1.56266 3e-5,4e-5 0.0148,-0.0105 0.0148,-0.0105 m 2.62181,9.32489 c -0.99514,-0.0396 -2.30392,0.28082 -4.11588,0.96139 -1.81744,0.68262 -3.99043,1.70205 -6.61113,3.06849 -3.70889,1.93385 -6.44826,3.28259 -9.13987,5.0247 -2.46791,1.45189 -5.27437,3.81414 -7.52988,5.93416 -2.1959,2.06399 -4.13447,4.08867 -6.34852,6.80868 -1.77715,2.18325 -3.54634,4.32008 -5.63555,6.28911 -1.92614,2.04146 -4.48347,3.69038 -6.85169,5.43322 -2.44624,1.55078 -4.65364,3.62019 -7.14883,5.11652 -2.36947,1.77142 -5.16327,2.94775 -7.79075,4.11326 -2.64733,1.17431 -5.28372,2.12296 -7.98089,3.06267 -3.72069,1.29632 -7.19154,2.34261 -7.63733,2.68632 -0.42891,0.33072 -3.62032,2.07905 -7.25426,3.43206 -3.65648,1.36143 -7.19325,2.85476 -7.86091,3.52822 -1.66968,1.68411 -3.26776,2.387 -6.38672,2.94138 -1.53604,0.27303 -3.09883,0.3045 -4.97258,-0.0401 -1.83311,-0.31335 -3.88612,-0.78113 -6.48491,-1.89011 -2.5822,-1.10192 -5.77473,-2.72967 -9.38799,-4.6884 -4.91835,-2.66618 -9.23264,-5.15704 -12.84654,-7.177 -3.63022,-2.14646 -6.26993,-3.64026 -8.36052,-4.84917 -2.13976,-1.23735 -3.61129,-1.87244 -4.06441,-2.25792 -0.52878,-0.44984 -0.92263,-0.56937 -1.84943,0.47825 -0.92462,1.04516 -2.48835,3.64418 -4.99827,7.72519 -1.52162,2.47408 -2.95014,4.83965 -4.20243,6.83126 -1.2508,1.98923 -2.32131,3.59774 -2.74374,4.28083 -0.5021,0.84014 -1.53588,2.49479 -1.53588,2.49479 0.77106,0.42523 2.28386,1.2485 2.28386,1.2485 1.21244,0.70719 4.13756,1.84933 6.4675,2.58709 2.33604,0.7397 5.9758,2.66005 7.93503,3.98239 1.86548,1.25904 4.37623,2.72448 7.23213,4.29108 2.85551,1.55288 6.06399,3.31546 9.30957,4.92657 3.23585,1.69513 6.56446,3.19027 9.57014,4.52796 3.02188,1.34489 5.76534,2.44901 7.9005,3.22133 2.02732,0.73328 4.39615,0.79953 6.82602,0.72911 2.43183,-0.0704 4.83685,-0.35026 7.69875,-1.23506 1.78117,-0.55061 4.14477,-1.03657 5.11485,-1.02561 0.56196,0.006 1.9043,-0.79373 3.79829,-1.93934 1.88983,-1.28572 4.2909,-2.84192 7.0697,-4.7562 2.7888,-2.03005 6.00454,-4.09381 9.34703,-6.46244 3.34559,-2.37082 6.74971,-4.91406 10.26625,-7.46482 2.53619,-1.83963 5.72568,-3.89971 9.30564,-6.0046 3.58716,-2.10934 7.5283,-3.9528 11.2481,-5.8168 3.7997,-1.62694 7.30607,-3.35623 9.97026,-4.53249 2.66981,-1.17874 4.2869,-1.88289 4.90436,-1.81518 0.60833,0.0667 1.59862,-0.41191 2.13985,-0.94673 0.3061,-0.30247 2.54664,-1.29756 5.47212,-2.58625 3.36255,-1.41699 6.26662,-2.70587 9.62917,-4.12286 3.1675,-1.32829 5.86485,-2.55662 6.89391,-2.83433 0.77406,-0.20886 2.56805,-1.10737 3.73458,-2.05021 1.16105,-0.93844 2.74405,-2.16607 3.52206,-2.82297 1.3158,-1.11098 1.6798,-3.64 0.56666,-3.87987 -0.27161,-0.0585 -3.37343,1.46919 -6.86273,3.24461 -3.4893,1.77539 -6.77061,2.86427 -7.17751,2.55383 -1.66275,-1.26847 0.0928,-5.1293 2.35259,-4.9188 0.51847,0.0483 3.93481,-1.54848 7.49534,-3.51358 3.55661,-1.96294 6.85405,-3.46739 7.33735,-3.43164 0.6461,0.0481 0.6084,-0.57373 0.084,-2.33332 -0.2402,-0.75171 -0.7448,-2.27751 -0.7448,-2.27751 -1.84947,0.94206 -5.59506,2.73264 -5.59506,2.73264 -1.38643,0.49685 -3.19095,1.16439 -5.0022,2.04428 -1.77536,0.86245 -3.66633,1.98138 -4.92556,2.68794 -2.61106,1.4651 -5.26242,3.12889 -6.19594,3.33498 -2.51191,0.55458 -2.96761,-1.53695 -0.77562,-3.51746 1.36208,-1.2307 4.34287,-3.26629 7.45011,-5.38134 3.07109,-2.09045 6.44847,-4.34553 8.34539,-5.34748 3.38924,-1.79022 3.75275,-2.69633 1.80882,-4.16007 -0.73264,-0.55167 -2.49312,-0.33127 -5.3141,0.94165 -2.79036,1.25913 -6.804,3.60444 -10.9631,6.20014 -6.92656,4.32289 -8.08889,4.7028 -7.92626,2.61852 0.0831,-1.06572 1.60676,-2.66124 4.37329,-4.76579 2.76462,-2.10311 6.5179,-4.3958 11.18762,-7.06295 2.39431,-1.36753 4.44784,-3.14588 4.23176,-3.55031 -0.26052,-0.48758 -1.0075,-0.942 -1.78552,-0.97226 3.1e-4,8.1e-4 0.1345,0.34699 0.13481,0.3478 z m -175.7973,25.96405 c -0.44633,0.0356 -1.29168,0.86803 -1.29097,1.10189 5.7e-4,0.34904 1.54463,0.9001 3.41603,1.55149 1.88404,0.65584 5.45812,2.81852 8.17812,4.59524 4.94474,3.22995 6.35507,3.69954 6.36248,2.51556 0.004,-0.6229 -1.39794,-1.92699 -3.36101,-3.36329 -1.96588,-1.43834 -4.48613,-3.03832 -6.31049,-3.7825 -3.17049,-1.29329 -5.65287,-2.72481 -6.99416,-2.61839 z m -6.63433,12.36748 c -0.002,-0.0145 -0.0652,0.0561 -0.0719,0.0642 -0.35682,0.39031 0.0697,1.51301 3.50125,4.5842 3.432,3.07161 9.87969,7.96188 11.39311,8.62007 3.06261,1.33192 3.37097,0.52355 2.20141,-0.83335 -0.70018,-0.81231 -2.79657,-1.86532 -5.28415,-3.83253 -2.45792,-2.04935 -5.03732,-4.49319 -7.42866,-6.16382 -2.38539,-1.66648 -4.08669,-2.49412 -4.39045,-2.4447 l 0.0794,0.006 z"
         inkscape:label="mask"
         transform="matrix(0.75000002,0,0,-0.75000002,0,883.63645)"
         sodipodi:nodetypes="ccscscsccsccsccscscccccscccssssssscssssscsscsssscsssccssssscsscsscccsscccccsssccssccscccssscscccccscsssccsccsccscccscscsscssscsscccsssssscsscssssscccssccsssscccssscsssccssssssssccccssssssssssssscssscssssssscssscsccs" /></g><g
       id="g9670"
       inkscape:label="leg_l"
       transform="rotate(-6.6140869,695.56615,1979.2562)"
       inkscape:transform-center-x="-21.12847"
       inkscape:transform-center-y="82.017038"><path
         id="path9666"
         style="fill:#000000;stroke-width:0.999998"
         d="m 447.64844,107.97461 c -5.4032,0.12684 -10.53563,2.19079 -15.26237,4.665 -3.67145,1.9122 -6.9147,4.50155 -10.14837,7.05783 -3.17795,2.57821 -6.87933,4.78334 -9.4119,8.13764 -1.26251,1.62378 -1.83928,3.78807 -1.28153,5.79832 0.8388,3.64739 2.60762,7.0887 5.04098,9.9285 1.03094,1.1884 2.32629,2.20209 2.94422,3.68226 1.03626,1.94186 2.28748,3.76055 3.32405,5.70115 -0.81925,0.69939 -1.88068,1.58722 -1.79001,2.75341 0.52492,1.55587 1.56279,2.88029 2.38297,4.29032 2.3658,3.81012 4.93113,7.49062 7.39904,11.23298 3.43642,5.77125 6.39249,11.81824 9.15279,17.93757 0.62806,1.46371 1.28464,2.92276 1.75169,4.44783 -4.94418,5.22897 -10.10818,10.1854 -15.2759,15.18709 -5.41732,5.14715 -10.73109,10.4013 -16.01183,15.68774 -4.06101,3.98956 -8.34496,7.73973 -12.58161,11.53853 -1.28867,1.21809 -2.63557,2.39425 -3.73418,3.79367 -0.82141,4.15781 -1.56228,8.33616 -2.4375,12.48047 -1.06096,3.84107 -0.76734,8.35551 1.89253,11.50254 1.35959,1.52885 3.01907,2.75787 4.46818,4.2007 3.9517,3.70275 8.27666,7.35819 13.60179,8.83372 5.65371,1.47711 11.91776,1.37109 17.22283,-1.26875 5.82525,-2.86347 10.09658,-8.09238 13.22803,-13.65399 0.96789,-1.78243 1.97085,-3.59265 2.58763,-5.52056 0.066,-1.34094 0.91442,-2.4718 1.46296,-3.65542 1.99664,-3.66477 4.66343,-6.89555 7.33094,-10.021 4.79142,-5.40666 9.52084,-10.86874 14.02933,-16.51489 5.14672,-6.4139 10.22839,-12.88038 15.39649,-19.27735 0.24672,-3.92614 0.48611,-7.85276 0.72656,-11.7793 -3.36596,-7.63343 -6.41124,-15.4552 -10.72855,-22.6208 -5.59865,-8.22415 -11.51864,-16.23359 -17.75745,-23.98398 -1.96882,-2.4727 -4.10692,-4.85058 -5.69161,-7.59786 -0.4859,-0.94994 -0.97162,-1.89996 -1.45716,-2.85009 -2.21233,1.19634 -4.28465,2.72362 -6.70507,3.48242 -0.38039,-0.44874 -0.96568,-0.673 -1.51758,-0.7832 -0.81404,-1.35474 -1.12695,-2.93764 -1.58789,-4.43359 2.99946,-1.47815 6.00735,-2.97729 8.69726,-4.98438 3.08812,-2.29875 6.16112,-4.7573 8.41972,-7.91003 2.05826,-3.28127 2.81643,-7.60196 1.26855,-11.24063 -0.82392,-1.99562 -2.68542,-3.43364 -4.78788,-3.85715 -1.36085,-0.32389 -2.76483,-0.41537 -4.16015,-0.38672 z" /><path
         id="path9668"
         style="fill:#ffffff;stroke-width:1.33333"
         d="m 592.92387,838.05087 c 1.2261,2.13697 4.82642,11.54512 6.31832,13.50577 1.8186,2.38999 4.93838,5.26172 7.75195,7.5 1.9418,1.54476 2.76741,4.19763 4.30078,6.14844 1.58638,2.01826 3.49399,4.57224 5.13672,6.54492 1.73608,2.08478 3.76306,4.34221 5.52148,6.4082 2.00357,2.354 4.36401,5.36336 6.34766,8.19141 1.57456,2.24481 3.84218,4.09504 5.57422,6.2207 1.76282,2.16345 2.68424,3.95425 4.5293,5.41407 1.61579,1.27841 2.93094,3.66022 4.15429,5.43359 1.31092,1.90029 0.12103,4.55916 0.21875,6.58789 0.1224,2.54112 -0.14315,5.11036 -0.0273,7.83398 0.0931,2.19111 -2.1556,4.0121 -2.83984,6.09571 -0.64221,1.95566 -1.65337,4.37359 -2.40821,6.58593 -1.16703,3.42043 -2.86454,6.36449 -4.52929,9.57227 -1.62029,3.12211 -2.5795,5.2965 -4.76954,7.13867 -2.08049,1.75003 -3.20299,4.81868 -4.72656,7.07031 -1.57996,2.33495 -2.65535,4.11445 -4.28906,6.41211 -1.86229,2.61914 -4.01281,5.08361 -5.94922,7.64844 -1.67997,2.22517 -3.32803,4.46219 -5,6.69336 -1.60796,2.14575 -2.91504,3.91851 -4.625,5.65039 -1.43751,1.45594 -2.23058,3.21969 -3.42773,4.87891 -1.07533,1.49039 -1.97254,2.16124 -2.37305,3.51758 -0.23786,0.80552 -0.44798,0.96394 -0.85547,1.68554 -0.61559,1.09012 -2.57926,-1.16751 -3.75586,-1.46484 -2.05088,-0.51826 -6.68708,-2.78756 -6.63281,-1.83203 -0.19488,0.31616 -0.18582,1.13452 -0.79102,1.17969 -2.11026,0.60916 -1.64591,1.43884 -2.87695,5.80468 -0.24632,1.00531 -0.91506,1.6806 -1.13281,2.75782 -0.4693,2.32153 4.37896,2.27852 6.29687,3.26562 2.47646,1.2745 4.69096,2.5861 6.9375,4.2324 2.37143,1.7378 4.99824,3.6704 7.09961,5.7266 1.88641,1.8458 2.94756,3.1675 3.28516,5.1855 0.50242,3.0032 2.51152,5.6098 2.26367,8.6446 -0.22941,2.809 -1.13327,5.2885 -3.24805,6.4218 -2.24976,1.2057 -4.88157,1.4622 -7.43359,1.4141 -3.06361,-0.058 -6.64355,-0.6051 -9.81445,-1.5625 -2.36542,-0.7143 -4.88071,-1.6673 -7.10742,-2.7383 -2.1306,-1.0248 -3.82393,-2.2784 -5.79493,-3.584 -2.01162,-1.3326 -4.28079,-2.7006 -6.29883,-4.2226 -1.49446,-1.1272 -2.94247,-2.3467 -4.41992,-3.4961 -1.59087,-1.2376 -2.67419,-2.1898 -4.17382,-3.0313 -2.83159,-1.5889 -4.91856,-3.7617 -6.86915,-6.3574 -1.42744,-1.8995 -2.25193,-3.6279 -1.89257,-5.5488 0.47237,-2.52499 0.79929,-4.79876 1.92968,-7.10548 1.24585,-2.54233 2.96037,-4.90453 4.89844,-6.98633 1.08308,-1.1634 3.1539,-3.04683 2.9375,-3.03321 -1.37137,1.7091 2.10916,-3.04296 3.77344,-5.58007 1.45863,-1.51198 2.30822,-4.98642 0.87305,-6.26563 -0.5778,-0.53427 -1.49414,-1.26058 -1.51758,-1.57031 0.39646,-1.22802 1.09725,-2.29223 1.76172,-3.39844 1.42902,-2.37905 2.95725,-4.69515 4.47656,-7.01758 1.72305,-2.63387 3.62589,-5.51206 5.61523,-8.14062 1.82579,-2.41246 2.92419,-5.206 4.33789,-7.88086 1.88546,-3.56746 3.92111,-7.37904 5.68164,-11.00977 1.50808,-3.1101 2.95506,-6.27075 4.26172,-9.4707 1.07664,-2.63663 1.49559,-3.14201 1.72461,-4.83984 0.17401,-1.28999 -2.48964,-1.67929 -3.41211,-2.59766 -1.79519,-1.78722 -3.19284,-3.35047 -4.94726,-5.17773 -2.45906,-2.56113 -5.70908,-4.41823 -8.20508,-6.94336 -2.53848,-2.5681 -4.59833,-6.05751 -7.4043,-8.5918 -1.88818,-1.70536 -3.64222,-3.80462 -5.45508,-5.58984 -1.88464,-1.85589 -3.98059,-3.33025 -5.88671,-5.16407 -1.8442,-1.77426 -3.09958,-3.66262 -5.26172,-4.41406 -2.01684,-0.70093 -3.0785,-2.98758 -4.53711,-4.54687 -1.71776,-1.83633 -3.49401,-3.5626 -5.22266,-5.38868 -1.74317,-1.84142 -3.27838,-3.57983 -4.7207,-5.52734 -1.51596,-2.04695 -4.46322,-3.57851 -6.35938,-5.2793 -1.56743,-1.40592 -1.77191,-1.56088 -2.57812,-2.42187 -0.75101,-0.80205 -0.85834,-1.80603 -0.68555,-2.89844 l -2.79101,-4.06641 c -0.0606,0.61365 -0.15108,1.23444 -0.3125,1.88868 -0.36468,1.47808 -0.26759,4.64505 0.25781,6.8789 0.53286,2.26552 2.52315,3.52171 4.36719,5.19141 1.98013,2.59373 4.88802,3.97727 7.35156,6.11719 2.49245,2.16504 4.4337,4.39922 6.83398,6.66601 2.34939,2.21873 4.8389,4.14689 7.08789,6.40039 2.05786,2.06199 3.97126,3.86609 6.04883,5.90821 2.131,2.09464 4.26663,4.06857 6.41016,6.15039 2.08349,2.02352 4.10325,4.68804 6.18164,6.71679 1.95643,1.9097 3.46168,3.92971 5.45508,5.80078 2.14698,2.01524 4.03756,4.49672 6.23828,6.45313 2.13726,1.89999 4.87284,3.53561 7.08593,5.56641 0.50864,0.46673 -0.82063,1.73667 -1.03515,2.42382 -0.95529,2.87743 -1.6935,5.85216 -2.99219,8.5918 -1.35048,2.84889 -3.11758,5.24966 -4.75586,7.94336 -1.63643,2.69067 -2.87285,5.34208 -4.76758,7.6875 -1.80678,2.23655 -3.70223,4.65677 -5.26172,7.07227 -1.50443,2.33023 -1.99311,4.65116 -3.3789,6.75195 -1.73977,2.6374 -3.87982,6.25697 -5.14453,8.875 -0.74071,1.56712 0.27463,3.72048 1.74804,5.12695 0.80424,0.87627 -0.73523,1.6061 -1.36914,2.68555 -0.17428,2.23117 -2.68828,3.89514 -4.24804,5.48633 -2.30492,1.76849 -3.53572,4.38019 -4.98438,6.89843 -1.47461,2.56333 -2.91135,5.70172 -3.98633,8.70704 -0.91824,2.56708 -0.78714,5.62298 0.55274,8.33398 0.72013,1.9303 1.99854,3.6705 3.48633,5.0957 1.49994,1.4369 3.79567,2.5474 5.59765,3.9512 1.81393,1.4131 3.74337,2.6976 5.55078,4.1191 1.85976,1.4627 4.37286,2.4097 6.26368,3.832 1.91058,1.4371 3.15363,3.2978 4.72656,4.9512 1.95415,2.054 4.85942,2.7109 7.49023,3.7676 2.64514,1.0625 5.41315,1.8007 8.20117,2.3945 2.71743,0.5787 5.49142,1.0216 8.25782,0.9004 1.49996,-0.066 3.41013,0.337 5.03906,-0.1445 1.52501,-0.3942 3.44886,-0.8662 4.79297,-1.6875 1.4298,-0.8736 2.46901,-2.117 3.27734,-3.4942 1.50196,-2.5589 2.09581,-5.7524 1.92969,-8.7148 -0.16876,-3.0096 -1.04998,-5.8983 -2.56445,-8.4062 -1.21612,-2.0139 -2.49005,-4.1126 -4.15039,-5.7793 -1.64975,-1.6561 -3.70661,-2.9676 -5.38282,-4.6426 -1.79272,-1.7915 -3.67662,-2.5044 -5.85547,-3.79885 -2.19478,-1.30399 -4.3279,-2.53031 -6.48046,-3.81641 -0.75724,-0.45243 -0.87452,-1.91579 -0.59375,-2.68945 -0.27348,-0.70511 1.46102,-0.91757 1.95703,-1.15234 1.62173,-0.73791 3.48743,1.55863 5.02148,2.46484 1.53777,0.90841 2.85639,1.89549 4.37891,2.67578 0.83923,0.4301 1.49145,-1.02712 1.98047,-1.91797 3.1137,-0.74497 2.0988,-5.87453 4.14257,-8.45898 1.90265,-2.43482 3.62562,-4.60327 5.54688,-7.02344 1.97953,-2.49356 3.8539,-4.70245 5.79687,-7.22461 1.93189,-2.50777 4.31743,-5.23915 6.19336,-7.78906 1.72796,-2.34879 3.39367,-4.71354 5.02149,-7.13281 1.70554,-2.53477 3.2651,-5.00631 5.32617,-7.14649 2.04967,-2.12832 2.67788,-5.27269 3.9707,-7.92969 1.27799,-2.62652 2.67588,-5.38039 3.87696,-8.04296 1.17213,-2.59837 2.28555,-5.21052 3.40039,-7.83399 1.1275,-2.65328 2.20675,-5.24873 3.87109,-7.52734 1.73969,-2.38175 -0.41254,-5.51297 -0.64648,-8.45313 -0.22751,-2.8594 -0.6564,-5.72467 -0.625,-8.59765 0.0356,-3.26103 -4.55175,-5.00485 -6.58985,-7.55078 -1.96506,-2.45469 -3.16858,-5.20047 -5.04883,-7.72071 -1.90363,-2.55157 -4.47198,-4.85947 -6.47851,-7.47656 -1.7344,-2.26216 -3.74983,-4.27858 -5.5625,-6.47852 -1.81929,-2.20799 -3.35222,-4.25061 -5.17578,-6.45507 -1.8886,-2.28307 -3.96805,-4.59313 -5.9043,-6.83594 -1.88721,-2.18601 -3.50551,-4.07472 -4.76758,-6.42383 -1.14171,-2.12509 -3.48169,-3.60402 -5.00976,-5.4707 -1.48852,-1.81838 -2.81742,-3.57986 -4.14844,-5.42774 -1.58497,-2.81247 -4.03082,-6.50612 -4.45703,-3.85733 z m -23.03325,138.87296 c -0.0899,6e-5 -0.1779,0.004 -0.26367,0.0137 -1.37232,0.15356 -2.24943,1.53235 -3.62304,4.24609 -0.91132,1.80048 -2.14039,3.72879 -2.73047,4.28321 -0.5901,0.55442 -1.05596,1.28369 -1.03516,1.62109 0.0782,1.27039 12.41372,8.54479 14.36719,8.47266 0.20004,-0.006 1.04492,-1.11451 1.875,-2.45703 3.56829,-5.77144 4.80091,-8.34061 4.21875,-8.78516 -0.34185,-0.261 -3.25446,-2.18478 -6.47266,-4.27734 -3.14918,-2.04775 -4.98764,-3.11805 -6.33594,-3.11719 z"
         transform="matrix(0.75000002,0,0,-0.75000002,0,883.63645)"
         sodipodi:nodetypes="csssssssssssssssssssssssscccssssssscssssssssssccccsssssssssssssssssssccsscssssssssscsssssccccsscsssssssccssssssssccssccssssssssssssssssssscccssscsssssc" /></g><g
       id="g4093"
       inkscape:label="torso"><path
         id="path4086"
         style="fill:#000000;stroke-width:0.999998"
         d="m 225.86719,418.15011 c -1.11668,-0.0762 -2.22867,-0.25337 -3.33447,-0.40239 -1.32992,-0.36926 -2.65977,-0.7388 -3.98975,-1.10786 -0.23728,-0.54942 -0.91289,-0.53022 -1.29784,-0.94336 -2.21067,-1.93971 -3.49578,-4.64819 -5.29673,-6.92993 -1.49716,-2.0564 -3.28951,-3.88313 -4.67008,-6.02662 -3.15913,-4.74927 -5.78944,-9.85131 -7.87764,-15.15801 -1.53448,-3.89771 -2.35281,-8.02203 -3.26577,-12.09633 -0.89758,-4.343 -1.79895,-8.69693 -2.28017,-13.10913 -0.11531,-2.22981 -0.17544,-4.47573 -0.62242,-6.67222 -1.00222,-5.27098 -1.90248,-10.59251 -1.92597,-15.97319 -0.24156,-9.24216 -1.18341,-18.43833 -1.76796,-27.69571 -0.29779,-4.27266 -0.48828,-8.55125 -0.69366,-12.8291 0.6612,-2.29451 1.2951,-4.59724 1.97461,-6.88624 2.49352,-3.40117 5.41223,-6.48729 8.58545,-9.26073 4.10371,-3.51305 8.85903,-6.56273 14.24692,-7.56222 4.84037,-0.91684 9.81085,0.36258 14.18997,2.42727 5.65766,2.70203 10.69791,6.56891 15.1729,10.932 0.48228,0.43878 0.91606,0.91143 1.11766,1.54518 1.61364,3.48746 3.2636,6.96086 4.85458,10.45708 1.55797,5.16598 2.58011,10.47578 3.5412,15.77943 1.08872,6.23176 1.94415,12.52728 2.05576,18.86032 -0.0295,2.56565 0.005,5.13004 0.14743,7.69222 0.39706,9.15137 0.73717,18.35175 -0.29931,27.47512 -0.35328,3.3769 -0.90762,6.72996 -1.49786,10.07104 -0.37765,3.13518 -1.03388,6.23123 -1.67232,9.32207 -1.42817,6.3537 -3.72569,12.60348 -7.50586,17.95166 -1.12623,1.69722 -1.34914,3.85415 -2.62596,5.45886 -1.50964,1.59326 -3.47138,2.67504 -5.41896,3.64222 -0.96873,0.44917 -2.06759,0.3232 -3.10135,0.51144 -2.24138,0.21949 -4.48624,0.54886 -6.7424,0.52713 z" /><path
         id="path4007"
         style="fill:#ffffff;stroke-width:1.33333"
         d="m 302.59375,618.55469 c -1.09855,-0.0303 -2.20375,0.007 -3.32031,0.15234 -2.42996,0.16929 -4.99068,1.16424 -7.32227,1.81445 -0.78457,0.35919 -2.00714,0.13168 -2.3125,1.11524 -1.65762,0.72108 -2.64724,2.78225 -3.79101,4.12109 -2.34396,3.12894 -3.73222,5.85078 -6.30469,8.81055 -1.66835,1.9073 -3.85913,3.95725 -5.26563,6.05469 -1.40649,2.09743 -2.67641,4.3048 -3.91601,6.50781 -1.78762,3.28425 -3.5437,7.01193 -4.92578,10.46094 -1.38208,3.449 -2.36032,6.65638 -3.29297,10.29101 -0.94671,3.7921 -2.61833,8.82767 -3.35547,12.38477 -0.73714,3.55709 -0.96537,5.59653 -1.56836,9.45898 -0.64887,3.53956 -0.71904,8.24866 -1.14258,11.8125 -0.62126,3.55542 -1.52965,7.07047 -2.11914,10.69532 -0.58949,3.62483 -0.92837,7.34637 -1.04101,10.96484 -0.0543,3.19375 0.19793,6.0132 0.22851,9.07226 0.0306,3.05907 0.0455,6.15202 -0.18164,9.3379 -0.30866,4.02943 -2.05113,7.17781 -2.44922,11.29492 -0.41696,4.31229 -0.81577,10.7044 -0.51367,14.34179 -0.2246,4.08242 0.10858,7.63937 -0.0606,11.77344 0.84114,3.34584 1.8859,6.64564 2.82813,9.97461 2.017,2.74461 3.3331,4.40062 5.46094,6.94141 2.12783,2.54079 4.91014,6.30591 7.56836,8.43554 3.11325,2.4714 7.93852,5.65772 11.5957,7.30469 3.65717,1.64698 6.87608,2.0339 10.92578,2.16992 3.82957,0.0933 7.45183,0.65974 11.07031,-0.56836 4.10798,-1.43028 8.93022,-7.12676 12.40235,-9.85156 3.47212,-2.7248 5.97117,-4.35699 9.2246,-7.20508 1.70595,-1.60848 4.57595,-1.7131 5.98829,-3.5957 1.17216,-2.44548 1.61201,-3.89464 2.59375,-6.36719 0.98173,-2.47255 2.30604,-5.71613 3.44531,-8.17969 1.15212,-3.36011 2.42866,-6.55467 3.22461,-10.01757 0.82174,-3.89662 1.59501,-8.26002 2.10547,-12.26563 0.53177,-4.17286 0.28529,-8.83903 1.39257,-12.29883 0.4393,-3.97241 1.39431,-7.3841 1.50586,-11.45703 -0.0493,-3.6706 -0.16707,-7.80351 -0.0742,-11.39844 0.0928,-3.59491 0.55343,-7.12295 0.63281,-10.79101 0.11901,-3.7424 -0.0762,-8.20269 -0.3086,-11.88867 -0.24016,-3.80902 -0.89523,-7.4604 -0.6621,-10.83399 -0.3462,-3.64734 -0.24307,-6.98566 -0.87891,-10.74414 -0.76116,-4.19992 -1.12254,-9.4018 -1.96875,-13.58593 -0.62898,-3.50229 -1.74104,-6.01588 -2.67383,-9.25977 -0.83343,-2.89834 -1.38217,-5.45303 -2.68945,-9.5625 -1.30586,-3.18855 -2.93439,-7.34982 -4.80274,-10.18359 -1.47996,-1.78455 -2.60808,-2.39343 -3.48437,-4.49219 -0.91694,-2.5416 -2.82506,-5.45455 -5.01758,-6.88281 -2.1526,-1.25006 -4.31601,-2.65514 -6.87891,-2.82813 -3.33582,-0.24035 -6.57544,-0.94234 -9.87109,-1.0332 z m -0.85547,4.08398 c 1.58419,0.002 4.2922,0.2494 11.12891,1.02735 h 0.002 c 0.13033,-0.1995 5.88431,2.76852 7.34375,4.80664 1.11314,1.62361 1.57054,4.60569 3.43359,7.26172 4.48552,6.39453 7.78188,14.6825 9.81836,24.68164 0.99416,4.88136 1.8086,9.63912 1.8086,10.57421 3.91667,20.71179 2.99521,34.0305 2.16406,54.46485 l 0.008,5.59765 c 0.004,3.0795 -0.49303,9.46309 -1.10547,14.1836 -1.48447,11.4417 -4.35348,25.24056 -6.26953,31.21679 l -6.71093,14.40821 c -1e-5,0 -1.1642,1.23524 -3.18165,3.0664 -1.00872,0.91558 -2.23093,1.98019 -3.62695,3.11329 -1.39602,1.1331 -2.96661,2.33495 -4.67187,3.52539 -1.70527,1.19043 -3.544,2.36943 -5.48047,3.45703 -0.96824,0.5438 -1.96125,1.06468 -2.97266,1.55273 -1.0114,0.48806 -2.04112,0.94318 -3.08594,1.35547 -1.04481,0.41229 -2.10535,0.78116 -3.17382,1.09766 -1.06848,0.31649 -2.14615,0.58056 -3.22852,0.78125 -1.08237,0.20068 -2.16934,0.33949 -3.25586,0.40429 -1.08652,0.0649 -2.173,0.0557 -3.25391,-0.0351 -1.08091,-0.091 -2.15193,-0.26064 -3.21093,-0.49805 -1.05901,-0.23741 -2.10571,-0.54272 -3.13672,-0.90625 -1.03101,-0.36353 -2.04604,-0.78454 -3.04297,-1.25391 -0.99693,-0.46936 -1.97487,-0.98608 -2.93164,-1.54101 -0.95677,-0.55493 -1.89222,-1.14931 -2.80274,-1.76953 -0.91051,-0.62022 -1.79612,-1.26642 -2.65429,-1.93164 -1.71635,-1.33045 -3.3225,-2.73229 -4.79297,-4.1211 -1.47047,-1.38881 -2.80458,-2.76583 -3.98047,-4.05078 -1.17589,-1.28494 -2.19277,-2.47724 -3.02539,-3.49609 -1.03233,-1.26323 -1.18856,-1.52078 -1.60938,-2.09571 -0.0412,-0.13866 -0.0928,-0.29295 -0.1289,-0.42382 l -2.30469,-8.08399 0.41406,-8.5957 c 0.22808,-4.72692 0.94042,-15.13866 1.58203,-23.13867 0.64163,-8 1.21208,-17.81836 1.26758,-21.81836 0.0913,-6.5849 0.66765,-11.33422 2.63086,-21.67188 0.36456,-1.91969 0.67124,-5.19311 0.68164,-7.27343 0.0195,-3.89282 3.15983,-20.21955 5.625,-29.24219 2.4104,-8.82224 9.82271,-23.02008 15.25,-29.21289 1.69147,-1.93004 4.36382,-5.52373 5.93946,-7.98633 1.57562,-2.46261 3.49158,-4.67674 4.25781,-4.91992 0.51939,-0.16485 0.88755,-0.34258 1.14648,-0.7461 l 4.74024,-1.3164 c 2.35111,-0.20445 2.81208,-0.44927 4.39648,-0.44727 z m 11.10742,23.90625 c -0.54913,0 1.074,6.27303 3.15235,12.18164 0.74536,2.119 1.14556,0.65089 0.69336,-2.54492 -0.56088,-3.96404 -2.82456,-9.63672 -3.84571,-9.63672 z m -36.09961,58.92969 c -0.14493,0.0646 -0.2746,2.46802 -0.56445,7.98047 -0.51137,9.7253 -1.3398,17.19225 -4.2168,38.04883 -1.45392,10.54008 -1.36442,16.284 0.1875,12.12109 0.37034,-0.99345 1.4788,-8.66915 2.46289,-17.05664 2.44972,-20.87868 3.14612,-31.04223 2.57032,-37.47656 -0.18145,-2.02757 -0.29513,-3.29042 -0.39453,-3.5625 -0.0155,-0.0425 -0.0299,-0.0617 -0.0449,-0.0547 z m 20.63477,12.26172 c -0.0729,0.012 -0.15414,0.0663 -0.24414,0.15625 -0.17467,0.17466 -0.84576,6.36582 -1.49219,13.75781 -0.64644,7.392 -1.44938,16.53755 -1.7832,20.32227 -0.33383,3.78473 -0.41252,7.38473 -0.17578,8 1.02524,2.66452 2.31264,-6.2777 3.37109,-23.40039 h 0.002 c 0.89865,-14.53751 1.01958,-18.67126 0.39258,-18.83399 -0.0224,-0.006 -0.046,-0.006 -0.0703,-0.002 z m 21.38672,12.17187 c -0.30867,0.0184 -0.87736,3.2921 -1.64649,9.72852 -0.45409,3.8 -1.62788,10.40269 -2.60937,14.67383 -0.98147,4.27105 -1.77186,9.18121 -1.75586,10.91015 0.0284,3.06255 0.055,3.09614 1.01953,1.32422 0.54451,-1.00029 1.8724,-6.07372 2.95117,-11.27344 1.3175,-6.35025 2.05144,-12.43852 2.23633,-18.54492 0.1333,-4.40278 0.0683,-6.65658 -0.16601,-6.81054 -0.009,-0.006 -0.0193,-0.008 -0.0293,-0.008 z"
         transform="matrix(0.75000002,0,0,-0.75000002,0,883.63645)" /></g><g
       id="g4723"
       inkscape:label="arm_r"
       transform="translate(-386.49367,-41.445358)"><path
         id="path4719"
         style="fill:#000000;stroke-width:0.999998"
         d="m 665.12109,366 c -3.63069,1.17339 -7.27043,2.35221 -10.71656,4.00852 -9.15185,4.21145 -17.82519,9.35533 -26.51276,14.43258 -2.43275,1.33726 -4.83903,2.78605 -7.47771,3.6839 -0.50416,-1.21678 -2.0985,-1.30913 -3.11552,-0.7073 -2.7025,1.40796 -5.06428,3.37402 -7.50709,5.17721 -5.17552,3.97801 -10.44101,7.88159 -15.09342,12.4792 -0.56573,0.56516 -1.29179,0.93658 -1.97646,1.29799 -1.66727,2.10075 -3.3548,4.30405 -4.17079,6.89352 -1.03205,3.46963 0.14944,7.14885 1.953,10.14515 1.764,3.12303 4.44902,6.07629 8.09393,6.85082 2.26836,0.45834 4.68193,0.35995 6.89057,-0.32995 1.63682,-0.72955 3.39821,-1.13647 5.05,-1.83745 5.76136,-2.23621 11.50044,-4.55236 17.08447,-7.20482 2.999,-1.58718 6.15381,-3.05766 8.64092,-5.41671 0.74967,-0.72292 1.2262,-1.69508 1.31836,-2.72266 1.04771,-1.47941 2.91318,-1.9498 4.55274,-2.45312 5.21715,-2.28536 9.99198,-5.43762 15.1057,-7.93326 1.06729,-0.54389 2.31887,-1.15148 3.41088,-1.6618 2.49891,-1.10355 5.00163,-2.36345 7.72576,-2.78289 1.63723,-0.009 3.06887,0.95645 4.56674,1.4995 6.28995,2.69175 12.72227,5.03527 19.00776,7.73615 5.33363,2.24465 10.14763,5.52685 14.7461,9.00021 3.3455,2.52203 6.14088,5.71118 8.36081,9.25526 2.85443,4.38116 5.70808,9.01605 10.14803,11.97621 3.86623,2.54412 7.87447,5.03546 12.34228,6.3696 2.9611,0.88941 6.389,0.86345 9.00808,-0.95488 2.37444,-1.71208 4.23622,-4.02332 6.07981,-6.27168 1.57663,-2.03723 3.16798,-4.15383 3.87221,-6.67339 0.65393,-1.84333 1.21571,-4.06887 -0.003,-5.81477 -0.62657,-0.83643 -1.26417,-1.75925 -1.21966,-2.85271 -0.46768,-2.7467 -2.51481,-4.89828 -4.57996,-6.61671 -1.84126,-1.52611 -3.99439,-2.6144 -6.21817,-3.46039 -6.52842,-3.58375 -12.60363,-7.90888 -18.908,-11.85951 -4.87425,-3.13816 -9.90277,-6.03301 -14.67692,-9.32664 -6.26559,-4.2273 -12.39231,-8.81033 -18.77213,-12.93155 -4.57915,-2.94467 -9.19143,-5.92615 -14.23827,-8.01576 -1.50267,-0.62448 -3.0947,-1.02471 -4.71027,-1.17396 -2.55482,-0.61984 -5.09587,-1.2942 -7.64363,-1.94258 -0.13932,0.0462 -0.27864,0.0924 -0.41797,0.13867 z"
         inkscape:label="bg" /><path
         id="path4721"
         style="fill:#ffffff;stroke-width:1.33333"
         d="m 987.1875,583.67773 c -0.54903,0.006 -1.09988,0.0521 -1.64648,0.14454 -6.75254,1.27133 -12.75617,5.04956 -18.4629,8.71093 -5.77157,3.45184 -9.69786,8.7957 -13.29687,14.34766 -3.00764,4.81189 -6.52956,9.81652 -10.94336,13.45898 -5.73657,4.57503 -11.82133,8.77848 -18.4375,11.98633 -9.4432,4.31166 -19.13458,8.26846 -28.6543,12.40039 -1.68585,0.63387 -2.82542,1.14628 -4.69336,0.67774 -4.19413,-1.11428 -8.77835,-3.05772 -12.67187,-4.9375 -4.61123,-2.22364 -9.12454,-4.84924 -13.67578,-7.34961 -3.09411,-1.59995 -6.29239,-3.05094 -9.64649,-4.05078 -1.15036,-0.43846 -2.02207,-1.08059 -2.6582,-2.20118 -0.56697,-3.15476 -4.16663,-3.6603 -6.63281,-5.36718 -6.39748,-4.14623 -17.04358,-8.97201 -24.04297,-11.92969 -2.62295,-1.05809 -4.39848,-0.28197 -6.1875,0.54687 6.95727,2.71245 16.70139,6.80471 20.46875,8.70313 8.28627,4.17552 12.02148,6.92625 12.02148,8.85352 0,1.91534 3.06456,4.21715 6.78125,5.09374 1.12884,0.26625 5.87377,2.6559 10.54493,5.31055 10.07604,5.72632 19.2392,10.05581 23.61718,11.15821 2.8787,0.72487 3.62339,0.59699 8.20313,-1.4043 2.77018,-1.21054 10.92695,-4.51736 18.12695,-7.34766 10.57997,-4.15894 14.62626,-6.17612 21.0918,-10.51953 10.15578,-6.82244 13.95399,-10.49747 19.02539,-18.41211 5.96924,-9.3158 8.68197,-12.37968 14.01172,-15.81445 13.41122,-8.64296 20.7698,-10.11198 26.23437,-5.23828 3.8528,3.4362 9.38314,10.46136 10.42384,13.24218 1.9482,5.20582 2.0273,6.60327 0.4785,8.57227 -0.7955,1.01133 -1.4473,2.53013 -1.4473,3.375 0,4.05529 -6.02434,9.91517 -12.5234,12.17969 -1.48838,0.5186 -8.50859,4.75777 -15.59961,9.41992 -7.09102,4.66212 -16.18252,10.44114 -20.20312,12.8418 -4.0206,2.40068 -12.21875,7.86775 -18.21875,12.15039 -22.65509,16.17062 -35.24974,23.38126 -40.89258,23.41406 -0.0904,5.7e-4 -2.42791,0.58502 -5.19531,1.29687 l -5.03125,1.29297 -6.07813,-2.00781 c -7.5152,-2.4832 -21.58676,-9.65841 -37.68945,-19.2168 -13.1568,-7.80977 -18.20508,-9.93946 -18.20508,-7.68164 0,2.15344 -3.15724,0.10496 -19.65234,-12.7539 -1.01381,-0.79032 -2.05299,-1.67694 -3.10742,-2.54297 1.21056,2.98103 2.51603,5.8691 5.49609,8.14258 4.18868,3.11382 8.7784,7.85969 13.33008,10.44726 1.88221,1.30468 4.65155,1.60801 6.49023,0.0547 2.47847,0.99535 4.14952,1.28254 6.48242,2.57227 5.74242,3.30902 11.15848,8.6958 17.06055,12.26367 5.90207,3.56788 12.78544,6.69422 18.78906,9.51953 5.40378,2.69465 10.29227,4.12012 16.03321,5.95117 l -0.29492,-0.80273 c 0.18662,0.0617 0.86806,0.41886 1.05468,0.48046 2.68763,-0.69092 5.53674,-1.74798 8.22656,-2.42968 2.30265,-0.7313 4.0765,-1.26268 6.3711,-2.02735 5.31131,-1.79065 10.69883,-3.56134 15.48047,-6.44336 4.95972,-3.02196 9.55303,-6.71263 14.27734,-9.9375 4.72431,-3.22486 9.73534,-6.45637 14.50195,-9.76757 8.40767,-5.91663 17.26641,-11.75193 25.87305,-17.36329 6.8462,-4.41534 13.40632,-8.98405 20.45117,-12.90234 2.37916,-1.11585 5.33611,-0.75572 7.52344,-2.25 3.65006,-2.53003 7.31486,-6.70884 8.77146,-11.03125 0.5202,-1.23709 -0.1896,-1.94642 0.7188,-3.02734 1.6018,-1.86323 2.6536,-4.10128 2.2207,-6.50196 -0.66,-3.6094 -1.8922,-8.82413 -4.0586,-11.79882 -2.7522,-3.79144 -6.1991,-5.86747 -9.75002,-8.94727 -2.90475,-2.67735 -6.74079,-4.64805 -10.58398,-4.60352 z m 2.86328,8.76954 c -1.97915,-0.043 -5.56128,1.30174 -10.59375,3.99023 -10.58868,5.65677 -15.25394,9.68008 -21.14844,18.23828 -7.76244,11.27031 -20.19959,21.05783 -33.83007,26.62305 -3.75216,1.53198 -7.18888,3.0863 -7.63672,3.45508 -0.44784,0.36878 -3.89797,1.90325 -7.66797,3.41015 -3.77,1.50692 -7.42724,3.31199 -8.12695,4.01172 -1.76228,1.76227 -3.46486,2.56385 -6.70118,3.14844 -4.79056,0.86536 -10.17968,-0.9518 -21.46484,-7.23828 -15.23891,-8.48892 -25.02667,-14.19818 -26.43555,-15.41797 -1.10768,-0.95899 -1.73692,-0.24593 -6.9082,7.81445 -3.12964,4.87811 -6.40728,9.96534 -7.2832,11.30469 l -1.5918,2.43555 2.31836,1.42968 c 1.27591,0.78712 4.28358,2.15566 6.68359,3.04102 2.4,0.88536 5.99264,2.79301 7.98242,4.23828 7.59363,5.51549 25.74977,15.25546 34.19922,18.3457 4.00611,1.4651 8.89183,1.29988 14.82813,-0.50195 1.84518,-0.56 4.1551,-1.02334 5.13281,-1.02734 2.27041,-0.0107 18.05985,-10.65585 32.76758,-22.09375 10.56005,-8.21234 32.72973,-22.27735 35.11523,-22.27735 0.58802,0 1.47985,-0.49249 1.98047,-1.0957 0.8428,-1.01552 17.7162,-10.5788 20.65625,-11.70703 0.71622,-0.27481 2.16846,-1.29195 3.22852,-2.26172 1.06006,-0.96979 2.51143,-2.30106 3.22461,-2.95703 1.21122,-1.11407 1.4734,-3.26486 0.41211,-3.38086 -0.26012,-0.0284 -3.12053,1.52376 -6.35743,3.44922 -3.2369,1.92544 -6.21616,3.29594 -6.61914,3.04687 -1.7002,-1.05077 -0.20941,-4.73047 1.91602,-4.73047 0.49592,0 3.62123,-1.63555 6.94531,-3.63476 3.3241,-1.99924 6.42343,-3.63596 6.88863,-3.63672 0.6213,-7.2e-4 0.6457,-0.5316 0.09,-2.00391 l -0.7559,-2.00586 -5.15427,2.45508 c -2.83476,1.35022 -7.13053,3.68808 -9.54492,5.19532 -2.41441,1.50727 -5.09851,2.95566 -5.96484,3.21679 -2.36103,0.71168 -2.79153,-0.8706 -0.78321,-2.8789 2.51307,-2.51308 11.07535,-8.66945 14.82422,-10.65821 3.24048,-1.71908 3.57408,-2.49652 1.60547,-3.73828 -1.48107,-0.93424 -7.7366,1.94129 -15.58594,7.16406 -6.4696,4.30472 -7.57617,4.69143 -7.57617,2.65235 0,-2.00704 5.73722,-6.55182 14.73438,-11.67383 2.30404,-1.31168 4.00303,-2.68635 3.77539,-3.05469 -0.27435,-0.4439 -0.80368,-0.6746 -1.57813,-0.6914 z m -180.58594,27.02734 c -0.45142,0.009 -0.70803,0.12287 -0.70703,0.35742 0.001,0.35 1.55656,1.26101 3.45508,2.02539 1.89849,0.7644 5.72451,2.97456 8.50195,4.91016 5.07179,3.53456 6.22266,4.06696 6.22266,2.87695 0,-1.25883 -6.07,-6.09959 -9.77734,-7.79687 -3.22686,-1.47731 -6.34104,-2.39958 -7.69532,-2.37305 z m -4.8789,11.85937 c -0.0145,0.002 -0.0265,0.006 -0.0332,0.0137 -0.72125,0.73376 12.04948,12.87036 15.14844,14.39648 3.13844,1.54556 4.04674,1.59324 2.84766,0.14844 -2.16032,-2.603 -17.04344,-14.64553 -17.96289,-14.5586 z"
         transform="matrix(0.75000002,0,0,-0.75000002,0,883.63645)"
         inkscape:label="mask" /></g><g
       id="g8868"
       inkscape:label="leg_r"
       transform="rotate(13.421194,136.89618,-563.342)"
       inkscape:transform-center-x="-32.722295"
       inkscape:transform-center-y="73.892406"><path
         id="path8404"
         style="fill:#000000;stroke-width:0.999998"
         d="m 447.64844,107.97461 c -5.4032,0.12684 -10.53563,2.19079 -15.26237,4.665 -3.67145,1.9122 -6.9147,4.50155 -10.14837,7.05783 -3.17795,2.57821 -6.87933,4.78334 -9.4119,8.13764 -1.26251,1.62378 -1.83928,3.78807 -1.28153,5.79832 0.8388,3.64739 2.60762,7.0887 5.04098,9.9285 1.03094,1.1884 2.32629,2.20209 2.94422,3.68226 1.03626,1.94186 2.28748,3.76055 3.32405,5.70115 -0.81925,0.69939 -1.88068,1.58722 -1.79001,2.75341 0.52492,1.55587 1.56279,2.88029 2.38297,4.29032 2.3658,3.81012 4.93113,7.49062 7.39904,11.23298 3.43642,5.77125 6.39249,11.81824 9.15279,17.93757 0.62806,1.46371 1.28464,2.92276 1.75169,4.44783 -4.94418,5.22897 -10.10818,10.1854 -15.2759,15.18709 -5.41732,5.14715 -10.73109,10.4013 -16.01183,15.68774 -4.06101,3.98956 -8.34496,7.73973 -12.58161,11.53853 -1.28867,1.21809 -2.63557,2.39425 -3.73418,3.79367 -0.82141,4.15781 -1.56228,8.33616 -2.4375,12.48047 -1.06096,3.84107 -0.76734,8.35551 1.89253,11.50254 1.35959,1.52885 3.01907,2.75787 4.46818,4.2007 3.9517,3.70275 8.27666,7.35819 13.60179,8.83372 5.65371,1.47711 11.91776,1.37109 17.22283,-1.26875 5.82525,-2.86347 10.09658,-8.09238 13.22803,-13.65399 0.96789,-1.78243 1.97085,-3.59265 2.58763,-5.52056 0.066,-1.34094 0.91442,-2.4718 1.46296,-3.65542 1.99664,-3.66477 4.66343,-6.89555 7.33094,-10.021 4.79142,-5.40666 9.52084,-10.86874 14.02933,-16.51489 5.14672,-6.4139 10.22839,-12.88038 15.39649,-19.27735 0.24672,-3.92614 0.48611,-7.85276 0.72656,-11.7793 -3.36596,-7.63343 -6.41124,-15.4552 -10.72855,-22.6208 -5.59865,-8.22415 -11.51864,-16.23359 -17.75745,-23.98398 -1.96882,-2.4727 -4.10692,-4.85058 -5.69161,-7.59786 -0.4859,-0.94994 -0.97162,-1.89996 -1.45716,-2.85009 -2.21233,1.19634 -4.28465,2.72362 -6.70507,3.48242 -0.38039,-0.44874 -0.96568,-0.673 -1.51758,-0.7832 -0.81404,-1.35474 -1.12695,-2.93764 -1.58789,-4.43359 2.99946,-1.47815 6.00735,-2.97729 8.69726,-4.98438 3.08812,-2.29875 6.16112,-4.7573 8.41972,-7.91003 2.05826,-3.28127 2.81643,-7.60196 1.26855,-11.24063 -0.82392,-1.99562 -2.68542,-3.43364 -4.78788,-3.85715 -1.36085,-0.32389 -2.76483,-0.41537 -4.16015,-0.38672 z" /><path
         id="path8382"
         style="fill:#ffffff;stroke-width:1.33333"
         d="m 592.92387,838.05087 c 1.2261,2.13697 4.82642,11.54512 6.31832,13.50577 1.8186,2.38999 4.93838,5.26172 7.75195,7.5 1.9418,1.54476 2.76741,4.19763 4.30078,6.14844 1.58638,2.01826 3.49399,4.57224 5.13672,6.54492 1.73608,2.08478 3.76306,4.34221 5.52148,6.4082 2.00357,2.354 4.36401,5.36336 6.34766,8.19141 1.57456,2.24481 3.84218,4.09504 5.57422,6.2207 1.76282,2.16345 2.68424,3.95425 4.5293,5.41407 1.61579,1.27841 2.93094,3.66022 4.15429,5.43359 1.31092,1.90029 0.12103,4.55916 0.21875,6.58789 0.1224,2.54112 -0.14315,5.11036 -0.0273,7.83398 0.0931,2.19111 -2.1556,4.0121 -2.83984,6.09571 -0.64221,1.95566 -1.65337,4.37359 -2.40821,6.58593 -1.16703,3.42043 -2.86454,6.36449 -4.52929,9.57227 -1.62029,3.12211 -2.5795,5.2965 -4.76954,7.13867 -2.08049,1.75003 -3.20299,4.81868 -4.72656,7.07031 -1.57996,2.33495 -2.65535,4.11445 -4.28906,6.41211 -1.86229,2.61914 -4.01281,5.08361 -5.94922,7.64844 -1.67997,2.22517 -3.32803,4.46219 -5,6.69336 -1.60796,2.14575 -2.91504,3.91851 -4.625,5.65039 -1.43751,1.45594 -2.23058,3.21969 -3.42773,4.87891 -1.07533,1.49039 -1.97254,2.16124 -2.37305,3.51758 -0.23786,0.80552 -0.44798,0.96394 -0.85547,1.68554 -0.61559,1.09012 -2.57926,-1.16751 -3.75586,-1.46484 -2.05088,-0.51826 -6.68708,-2.78756 -6.63281,-1.83203 -0.19488,0.31616 -0.18582,1.13452 -0.79102,1.17969 -2.11026,0.60916 -1.64591,1.43884 -2.87695,5.80468 -0.24632,1.00531 -0.91506,1.6806 -1.13281,2.75782 -0.4693,2.32153 4.37896,2.27852 6.29687,3.26562 2.47646,1.2745 4.69096,2.5861 6.9375,4.2324 2.37143,1.7378 4.99824,3.6704 7.09961,5.7266 1.88641,1.8458 2.94756,3.1675 3.28516,5.1855 0.50242,3.0032 2.51152,5.6098 2.26367,8.6446 -0.22941,2.809 -1.13327,5.2885 -3.24805,6.4218 -2.24976,1.2057 -4.88157,1.4622 -7.43359,1.4141 -3.06361,-0.058 -6.64355,-0.6051 -9.81445,-1.5625 -2.36542,-0.7143 -4.88071,-1.6673 -7.10742,-2.7383 -2.1306,-1.0248 -3.82393,-2.2784 -5.79493,-3.584 -2.01162,-1.3326 -4.28079,-2.7006 -6.29883,-4.2226 -1.49446,-1.1272 -2.94247,-2.3467 -4.41992,-3.4961 -1.59087,-1.2376 -2.67419,-2.1898 -4.17382,-3.0313 -2.83159,-1.5889 -4.91856,-3.7617 -6.86915,-6.3574 -1.42744,-1.8995 -2.25193,-3.6279 -1.89257,-5.5488 0.47237,-2.52499 0.79929,-4.79876 1.92968,-7.10548 1.24585,-2.54233 2.96037,-4.90453 4.89844,-6.98633 1.08308,-1.1634 3.1539,-3.04683 2.9375,-3.03321 -1.37137,1.7091 2.10916,-3.04296 3.77344,-5.58007 1.45863,-1.51198 2.30822,-4.98642 0.87305,-6.26563 -0.5778,-0.53427 -1.49414,-1.26058 -1.51758,-1.57031 0.39646,-1.22802 1.09725,-2.29223 1.76172,-3.39844 1.42902,-2.37905 2.95725,-4.69515 4.47656,-7.01758 1.72305,-2.63387 3.62589,-5.51206 5.61523,-8.14062 1.82579,-2.41246 2.92419,-5.206 4.33789,-7.88086 1.88546,-3.56746 3.92111,-7.37904 5.68164,-11.00977 1.50808,-3.1101 2.95506,-6.27075 4.26172,-9.4707 1.07664,-2.63663 1.49559,-3.14201 1.72461,-4.83984 0.17401,-1.28999 -2.48964,-1.67929 -3.41211,-2.59766 -1.79519,-1.78722 -3.19284,-3.35047 -4.94726,-5.17773 -2.45906,-2.56113 -5.70908,-4.41823 -8.20508,-6.94336 -2.53848,-2.5681 -4.59833,-6.05751 -7.4043,-8.5918 -1.88818,-1.70536 -3.64222,-3.80462 -5.45508,-5.58984 -1.88464,-1.85589 -3.98059,-3.33025 -5.88671,-5.16407 -1.8442,-1.77426 -3.09958,-3.66262 -5.26172,-4.41406 -2.01684,-0.70093 -3.0785,-2.98758 -4.53711,-4.54687 -1.71776,-1.83633 -3.49401,-3.5626 -5.22266,-5.38868 -1.74317,-1.84142 -3.27838,-3.57983 -4.7207,-5.52734 -1.51596,-2.04695 -4.46322,-3.57851 -6.35938,-5.2793 -1.56743,-1.40592 -1.77191,-1.56088 -2.57812,-2.42187 -0.75101,-0.80205 -0.85834,-1.80603 -0.68555,-2.89844 l -2.79101,-4.06641 c -0.0606,0.61365 -0.15108,1.23444 -0.3125,1.88868 -0.36468,1.47808 -0.26759,4.64505 0.25781,6.8789 0.53286,2.26552 2.52315,3.52171 4.36719,5.19141 1.98013,2.59373 4.88802,3.97727 7.35156,6.11719 2.49245,2.16504 4.4337,4.39922 6.83398,6.66601 2.34939,2.21873 4.8389,4.14689 7.08789,6.40039 2.05786,2.06199 3.97126,3.86609 6.04883,5.90821 2.131,2.09464 4.26663,4.06857 6.41016,6.15039 2.08349,2.02352 4.10325,4.68804 6.18164,6.71679 1.95643,1.9097 3.46168,3.92971 5.45508,5.80078 2.14698,2.01524 4.03756,4.49672 6.23828,6.45313 2.13726,1.89999 4.87284,3.53561 7.08593,5.56641 0.50864,0.46673 -0.82063,1.73667 -1.03515,2.42382 -0.95529,2.87743 -1.6935,5.85216 -2.99219,8.5918 -1.35048,2.84889 -3.11758,5.24966 -4.75586,7.94336 -1.63643,2.69067 -2.87285,5.34208 -4.76758,7.6875 -1.80678,2.23655 -3.70223,4.65677 -5.26172,7.07227 -1.50443,2.33023 -1.99311,4.65116 -3.3789,6.75195 -1.73977,2.6374 -3.87982,6.25697 -5.14453,8.875 -0.74071,1.56712 0.27463,3.72048 1.74804,5.12695 0.80424,0.87627 -0.73523,1.6061 -1.36914,2.68555 -0.17428,2.23117 -2.68828,3.89514 -4.24804,5.48633 -2.30492,1.76849 -3.53572,4.38019 -4.98438,6.89843 -1.47461,2.56333 -2.91135,5.70172 -3.98633,8.70704 -0.91824,2.56708 -0.78714,5.62298 0.55274,8.33398 0.72013,1.9303 1.99854,3.6705 3.48633,5.0957 1.49994,1.4369 3.79567,2.5474 5.59765,3.9512 1.81393,1.4131 3.74337,2.6976 5.55078,4.1191 1.85976,1.4627 4.37286,2.4097 6.26368,3.832 1.91058,1.4371 3.15363,3.2978 4.72656,4.9512 1.95415,2.054 4.85942,2.7109 7.49023,3.7676 2.64514,1.0625 5.41315,1.8007 8.20117,2.3945 2.71743,0.5787 5.49142,1.0216 8.25782,0.9004 1.49996,-0.066 3.41013,0.337 5.03906,-0.1445 1.52501,-0.3942 3.44886,-0.8662 4.79297,-1.6875 1.4298,-0.8736 2.46901,-2.117 3.27734,-3.4942 1.50196,-2.5589 2.09581,-5.7524 1.92969,-8.7148 -0.16876,-3.0096 -1.04998,-5.8983 -2.56445,-8.4062 -1.21612,-2.0139 -2.49005,-4.1126 -4.15039,-5.7793 -1.64975,-1.6561 -3.70661,-2.9676 -5.38282,-4.6426 -1.79272,-1.7915 -3.67662,-2.5044 -5.85547,-3.79885 -2.19478,-1.30399 -4.3279,-2.53031 -6.48046,-3.81641 -0.75724,-0.45243 -0.87452,-1.91579 -0.59375,-2.68945 -0.27348,-0.70511 1.46102,-0.91757 1.95703,-1.15234 1.62173,-0.73791 3.48743,1.55863 5.02148,2.46484 1.53777,0.90841 2.85639,1.89549 4.37891,2.67578 0.83923,0.4301 1.49145,-1.02712 1.98047,-1.91797 3.1137,-0.74497 2.0988,-5.87453 4.14257,-8.45898 1.90265,-2.43482 3.62562,-4.60327 5.54688,-7.02344 1.97953,-2.49356 3.8539,-4.70245 5.79687,-7.22461 1.93189,-2.50777 4.31743,-5.23915 6.19336,-7.78906 1.72796,-2.34879 3.39367,-4.71354 5.02149,-7.13281 1.70554,-2.53477 3.2651,-5.00631 5.32617,-7.14649 2.04967,-2.12832 2.67788,-5.27269 3.9707,-7.92969 1.27799,-2.62652 2.67588,-5.38039 3.87696,-8.04296 1.17213,-2.59837 2.28555,-5.21052 3.40039,-7.83399 1.1275,-2.65328 2.20675,-5.24873 3.87109,-7.52734 1.73969,-2.38175 -0.41254,-5.51297 -0.64648,-8.45313 -0.22751,-2.8594 -0.6564,-5.72467 -0.625,-8.59765 0.0356,-3.26103 -4.55175,-5.00485 -6.58985,-7.55078 -1.96506,-2.45469 -3.16858,-5.20047 -5.04883,-7.72071 -1.90363,-2.55157 -4.47198,-4.85947 -6.47851,-7.47656 -1.7344,-2.26216 -3.74983,-4.27858 -5.5625,-6.47852 -1.81929,-2.20799 -3.35222,-4.25061 -5.17578,-6.45507 -1.8886,-2.28307 -3.96805,-4.59313 -5.9043,-6.83594 -1.88721,-2.18601 -3.50551,-4.07472 -4.76758,-6.42383 -1.14171,-2.12509 -3.48169,-3.60402 -5.00976,-5.4707 -1.48852,-1.81838 -2.81742,-3.57986 -4.14844,-5.42774 -1.58497,-2.81247 -4.03082,-6.50612 -4.45703,-3.85733 z m -23.03325,138.87296 c -0.0899,6e-5 -0.1779,0.004 -0.26367,0.0137 -1.37232,0.15356 -2.24943,1.53235 -3.62304,4.24609 -0.91132,1.80048 -2.14039,3.72879 -2.73047,4.28321 -0.5901,0.55442 -1.05596,1.28369 -1.03516,1.62109 0.0782,1.27039 12.41372,8.54479 14.36719,8.47266 0.20004,-0.006 1.04492,-1.11451 1.875,-2.45703 3.56829,-5.77144 4.80091,-8.34061 4.21875,-8.78516 -0.34185,-0.261 -3.25446,-2.18478 -6.47266,-4.27734 -3.14918,-2.04775 -4.98764,-3.11805 -6.33594,-3.11719 z"
         transform="matrix(0.75000002,0,0,-0.75000002,0,883.63645)"
         sodipodi:nodetypes="csssssssssssssssssssssssscccssssssscssssssssssccccsssssssssssssssssssccsscssssssssscsssssccccsscsssssssccssssssssccssccssssssssssssssssssscccssscsssssc" /></g><path
       id="path9255"
       style="color:#000000;fill:#ffffff;stroke-width:3;-inkscape-stroke:none"
       d="m 327.72461,764.53125 c -1.99699,0.0133 -3.98903,0.17659 -5.98047,0.31055 -0.75391,0.0308 -1.50547,0.0892 -2.25586,0.1582 -0.35064,-0.0278 -0.70227,-0.0517 -1.05273,-0.082 -1.14402,-0.0917 -1.74433,-0.16467 -2.85157,-0.16992 -0.43157,-0.003 -0.86354,0.0182 -1.29492,0.0312 -1.70544,0.0513 -3.4093,0.13133 -5.11523,0.16797 -2.44303,0.0577 -4.88746,0.0673 -7.33008,0.14062 -0.9557,-0.11806 -1.91654,-0.15929 -2.88281,-0.19727 -2.03459,0.005 -4.08236,0.053 -6.09961,0.34571 -0.28767,0.0417 -0.57278,0.0979 -0.85938,0.14648 -1.47392,0.26471 -2.91011,0.69645 -4.34961,1.10157 -1.08265,0.30943 -2.18319,0.54653 -3.27539,0.81835 -0.21395,0.0571 -0.42831,0.11028 -0.64257,0.16602 -1.72665,0.29935 -3.46304,0.52152 -5.20118,0.74219 -0.46542,0.0731 -0.593,0.0836 -1.04492,0.1875 -0.14292,0.0329 -0.29731,0.0407 -0.42578,0.11133 -0.0267,0.0147 -0.042,0.0207 -0.0684,0.0352 -0.56062,0.0503 -1.12129,0.10577 -1.68164,0.1543 -2.72045,0.20421 -5.43728,0.46408 -8.14648,0.78516 -1.31455,0.0924 -2.4008,0.69147 -3.56446,1.24414 -1.15016,0.53035 -2.33716,0.97352 -3.54297,1.35937 -0.72289,0.005 -1.44528,0.0192 -2.16797,0.0195 -1.18091,-0.0354 -2.36792,0.0102 -3.54882,-0.0508 -0.10043,-0.0142 -0.19352,-0.0163 -0.27539,-0.0137 -0.0409,-0.003 -0.0821,-0.003 -0.12305,-0.006 -0.007,0.005 -0.0106,0.009 -0.0176,0.0137 -0.42013,0.0715 -0.73749,0.43601 -1.66601,1.17969 -2.46978,1.67687 -1.73231,0.76762 -0.48438,0.9707 0.22891,0.0372 0.45867,0.0983 0.68359,0.15235 0.17929,0.0418 0.35574,0.0958 0.53321,0.14453 -0.48623,0.30524 -0.97738,0.62353 -1.33789,0.83398 -0.30756,0.17956 -0.60434,0.38071 -0.89649,0.58399 0.0397,0.18304 -0.45198,0.12725 -0.44336,0.30664 0.0107,0.22188 0.11055,0.32533 0.2461,0.37109 l -0.10547,0.0762 c 1.07809,0.0107 2.15153,-0.0368 3.20898,-0.26758 0.38163,-0.0833 0.75651,-0.1955 1.13477,-0.29296 0.63093,-0.18798 1.24814,-0.4094 1.85937,-0.64844 2.38678,-0.46981 4.77787,-0.91519 7.17969,-1.30078 1.44714,-0.21508 2.90325,-0.36311 4.35938,-0.50391 0.25523,0.004 0.51139,-0.0101 0.76757,-0.0742 0.002,-5e-4 0.004,-10e-4 0.006,-0.002 0.48061,-0.046 0.96114,-0.0924 1.44141,-0.14063 0.96936,-0.1064 1.93718,-0.25887 2.87695,-0.52343 -0.83628,-0.26339 -0.27009,-0.47603 0.61328,-0.74414 0.2311,-0.0626 0.46612,-0.11812 0.89063,-0.23438 0.31372,-0.0859 0.62749,-0.1707 0.94141,-0.25586 0.48645,-0.127 0.97518,-0.24495 1.46289,-0.36719 0.23688,-0.0253 0.47404,-0.049 0.71093,-0.0742 1.16342,-0.13 2.32529,-0.26815 3.48633,-0.41796 1.35136,-0.13855 2.69196,-0.34851 4.0332,-0.56055 0.952,-0.14243 1.90361,-0.29982 2.84571,-0.49805 0.85746,-0.2061 1.72433,-0.36517 2.58984,-0.5332 0.92367,-0.17852 1.85344,-0.32788 2.7832,-0.4707 1.11232,-0.15399 2.22273,-0.31535 3.33594,-0.46289 1.10061,-0.13415 2.20176,-0.25937 3.30469,-0.37305 0.75587,-0.0126 1.51167,-0.0252 2.26758,-0.0352 1.06218,0.14206 2.14647,0.12777 3.21289,0.15235 1.1812,-0.0229 2.36003,-0.079 3.53711,-0.16797 1.86106,0.004 3.72096,0.0128 5.58203,0.002 2.37897,-0.009 4.757,-0.0885 7.13281,-0.21289 1.18002,-0.0582 2.361,-0.10931 3.54102,-0.16602 1.13817,0.0488 2.27727,0.0726 3.41601,0.10352 1.04039,0.0432 2.07999,0.0752 3.1211,0.0937 0.44522,0.007 0.89071,0.013 1.33593,0.0195 0.10907,0.003 0.21905,0.005 0.32813,0.006 0.0699,5.5e-4 0.15234,0.0409 0.20898,0 0.83538,-0.60399 1.63561,-1.25627 2.44532,-1.89453 0.15363,-0.0931 0.3073,-0.18617 0.46093,-0.2793 -0.0545,0.0151 -0.10888,0.0336 -0.16406,0.0449 0.0249,-0.0194 0.0493,-0.0393 0.0742,-0.0586 -0.14639,-0.0621 -0.28908,-0.13389 -0.43945,-0.18555 -0.32638,-0.11213 -0.92233,-0.2469 -1.24414,-0.31054 -0.80196,-0.15863 -1.60726,-0.24606 -2.41993,-0.32618 -1.64953,-0.13146 -3.30502,-0.16157 -4.95898,-0.17773 z"
       transform="matrix(0.75000002,0,0,-0.75000002,0,883.63645)"
       inkscape:label="division" /><g
       id="g11326"
       inkscape:label="head"
       transform="translate(-57.48242,-157.37697)"><path
         id="path10833"
         style="fill:#000000;stroke-width:0.999998"
         d="m 289.5198,565.33052 c -1.07981,-0.25389 -3.15672,-0.42381 -4.86359,0.145 -2.64413,0.61058 -1.22295,0.0624 -5.89088,2.08295 -1.72657,0.48662 -1.69118,5.65335 -3.20645,5.00674 -0.44403,-0.30653 -0.40074,0.82562 -0.21352,1.09144 0.5671,1.41405 0.23834,2.9737 0.31969,4.4539 0.0736,1.85528 8.2e-4,3.71814 -0.45462,5.52633 0.0908,0.95598 -0.82548,0.24327 -1.35074,0.17845 -2.01125,-0.58759 -4.09186,-1.37048 -6.21651,-1.1252 -2.15883,0.58775 -3.57463,2.49486 -4.93603,4.13951 -3.57828,4.62322 -6.60309,9.6444 -9.55153,14.68335 -1.93553,3.34197 -3.69809,6.79251 -5.83531,10.0124 -1.20032,1.71166 -2.48648,3.36071 -3.74023,5.0332 -4.08948,-2.37064 -8.67635,-3.9923 -13.42508,-4.20999 -3.36952,-0.13712 -6.77241,0.0471 -10.08524,0.68707 -3.65486,0.87912 -6.95011,3.81473 -7.54152,7.63324 -0.44519,2.10398 0.0197,4.61492 1.91707,5.87601 2.05809,1.41599 4.54014,1.99189 6.75436,3.10823 4.18271,1.90648 8.50862,3.46184 12.82538,5.02778 3.10905,1.1528 6.18013,2.41922 9.13511,3.92845 1.44904,2.41138 3.19093,4.73006 4.08467,7.41029 -0.19592,4.88496 -1.97037,9.52775 -2.42153,14.37536 -0.19841,2.74747 0.59202,5.53285 1.97345,7.84682 2.31094,4.26046 5.09171,8.32041 8.56554,11.72036 1.29361,1.24971 2.69182,2.38927 4.16505,3.4206 0.28939,0.17905 0.92807,0.63308 1.37304,0.89106 4.6165,2.87946 9.98066,4.35296 15.34078,5.03525 3.69537,0.46099 7.52087,0.37013 11.06216,-0.88331 4.22975,-1.35768 7.72585,-4.21767 10.97415,-7.14735 1.83047,-1.61762 3.69206,-3.20916 5.72839,-4.56557 4.96107,0.52676 9.92212,1.05373 14.88281,1.58399 6.41192,3.7526 13.24278,6.71165 20.02149,9.7246 3.30968,1.3946 6.64325,2.80772 10.1398,3.65811 2.63348,0.42963 5.3932,0.14756 7.897,-0.75341 1.69211,-0.83675 3.10738,-2.43004 3.49965,-4.29375 -0.17909,-1.3829 -1.35447,-2.34095 -2.13144,-3.42091 -4.44518,-5.39808 -8.99914,-10.72339 -13.9225,-15.69239 -3.69883,-3.3699 -8.06345,-5.88417 -12.34304,-8.42997 -2.60157,-1.49985 -5.27427,-2.87292 -7.98908,-4.15557 1.65986,-5.14752 2.6453,-10.47132 3.69143,-15.76716 1.21692,-5.58237 3.09744,-11.01167 5.54573,-16.17231 1.18559,-2.70872 2.37244,-5.66889 1.88198,-8.67967 -0.63036,-3.32764 -3.39184,-6.08182 -6.69642,-6.77899 -1.61218,-0.43969 -3.28655,-0.55132 -4.93835,-0.75812 0.0327,-2.28322 0.0678,-4.5664 0.10156,-6.84961 -3.50518,0.0626 -6.93742,0.20932 -10.45703,0.33985 1.62458,-1.40474 3.4299,-2.61458 4.91797,-4.16797 1.22577,-1.32344 0.69673,-3.29409 0.0137,-4.74851 -1.94662,-3.84712 -4.99914,-7.12222 -8.6172,-9.45266 -1.9763,-1.22497 -4.36473,-1.19883 -6.52279,-1.90261 -0.79665,-0.21336 -1.5681,-0.50559 -2.34245,-0.78685 -1.00734,-2.7107 -1.6416,-5.59185 -1.68086,-8.48431 0.22282,-0.66392 -0.27772,-1.19376 -0.4832,-1.78912 -1.45172,0.39348 -0.62017,-1.50658 -2.07078,-2.04231 -1.82091,-0.40733 -2.14956,-0.44953 -3.95305,-0.87357 z"
         sodipodi:nodetypes="scccccccccccccccccccccccccccccccccccccccccccccccccccccss"
         inkscape:label="bg" /><path
         id="path10325"
         style="fill:#ffffff;stroke-width:1.33333"
         d="m 468.67969,253.67578 c -1.5031,-0.008 -3.00393,0.13582 -4.47461,0.46094 -5.99351,1.68809 -11.71318,4.21537 -17.40039,6.72461 -7.52499,3.43132 -15.11744,6.78018 -22.25391,10.98242 -6.22483,0.66233 -12.45095,1.32399 -18.67578,1.98633 -5.02489,-3.3961 -9.08327,-8.00753 -14.11133,-11.40039 -5.06261,-3.49991 -11.1178,-5.55574 -17.2832,-5.67188 -6.20447,-0.0399 -12.4014,1.07624 -18.28906,3.00586 -8.07846,2.5831 -15.23099,7.67813 -20.64649,14.16797 -3.42326,4.16711 -6.43027,8.69799 -8.87304,13.50781 -1.88108,3.46695 -2.58311,7.49357 -2.15235,11.40235 0.73849,5.97516 2.80682,11.73762 3.12109,17.77734 -1.17961,3.06488 -3.12756,5.75084 -4.82031,8.53906 -5.46505,2.79547 -11.29664,4.85166 -17.0664,6.95313 -4.87079,1.70832 -9.6344,3.80632 -14.31446,5.89062 -3.24621,1.31948 -7.02188,2.4388 -8.98047,5.5918 -1.83449,3.02217 -1.49267,6.85205 -0.32812,10.04687 1.9958,5.19559 7.1534,8.69787 12.56836,9.44727 3.95411,0.53679 7.9622,0.82495 11.95312,0.64453 6.15306,-0.26156 12.17724,-2.08646 17.55664,-5.05859 2.10083,2.81402 4.31916,5.55619 6.01368,8.64648 2.47337,4.206 4.91439,8.77572 7.45703,13.07617 3.75134,6.12004 7.48379,12.29741 12.04492,17.85938 1.9692,2.26063 4.29374,4.73785 7.44531,5.08789 2.75699,0.0908 5.51865,-0.70935 8.0918,-1.52539 0.52416,2.21849 0.21135,4.57865 0.31055,6.85742 -0.14748,1.49141 0.35843,3.20245 -0.6543,4.47852 -0.0179,1.27229 0.34847,2.6232 0.47461,3.92578 0.20843,0.88242 2.12775,-0.13491 4.05469,-1.08008 l -0.20313,-1.43359 c 0.56329,-0.8778 0.60863,-2.82507 0.5625,-8.03907 -0.0473,-5.33352 -0.20942,-5.95652 -1.95312,-7.48242 -1.24674,-1.09098 -2.19053,-1.43229 -2.73829,-0.99219 -0.45968,0.36932 -2.41832,1.00147 -4.35156,1.40625 -3.37306,0.70626 -3.6199,0.64326 -6.13086,-1.55273 -3.11412,-2.72349 -11.32564,-15.1637 -17.61914,-26.69531 -2.48896,-4.56056 -5.28685,-9.19754 -6.21679,-10.30274 -1.60576,-1.90832 -2.93732,-4.80947 -2.40235,-5.23242 1.96383,-1.55253 10.27277,-6.67589 14.79297,-9.12109 3.2,-1.731 7.12852,-4.02192 8.72852,-5.0918 9.72069,-6.50005 27.39456,-15.42689 36.84765,-18.61133 l 7.0293,-2.36718 0.42383,1.6914 c 0.23357,0.93035 0.24124,2.16708 0.0176,2.75 -0.2237,0.58292 -0.46893,5.98297 -0.54493,12 -0.13241,10.48451 -0.21067,11.01847 -1.90039,12.81641 -3.39301,3.61032 -6.37495,2.04382 -8.07422,-4.24414 -1.30612,-4.83322 -4.51077,-8.42526 -7.51172,-8.41993 -4.29227,0.008 -7.54284,1.41668 -10.29492,4.4629 -2.46121,2.7243 -2.65461,3.24377 -2.23047,5.98437 0.71012,4.58828 3.59914,9.88669 8.11329,14.875 4.68096,5.17263 6.60965,6.47824 7.80273,5.28516 0.43708,-0.43706 1.5468,-0.79493 2.4668,-0.79493 2.32737,10e-6 2.19144,2.39667 -0.24414,4.3125 -2.47084,1.94356 -3.67599,1.898 -7.79297,-0.29101 l -3.38086,-1.79883 -0.006,1.61719 c -0.004,0.88873 -1.82509,5.37714 -4.04688,9.97461 l -4.03906,8.35937 4.71875,4.36719 c 5.77316,5.3442 7.06488,9.03927 5.78516,16.55274 -0.87824,5.15639 -0.42297,6.14222 3.76367,8.1289 2.95764,1.40348 10.4998,1.50682 12.32812,0.16992 1.02855,-0.75208 1.35315,-2.04315 1.43555,-5.73242 0.0595,-2.65972 0.51826,-5.26073 1.04102,-5.89062 0.80768,-0.97316 0.55591,-1.23316 -1.83985,-1.89844 -1.52714,-0.42405 -3.13622,-0.77439 -3.57422,-0.77539 -1.10953,-0.005 -3.20312,-2.4443 -3.20312,-3.73047 0,-0.87239 1.56726,-1.07805 8.63672,-1.13672 12.40737,-0.10307 15.85281,-1.25006 21.70898,-7.22266 l 4.59375,-4.68554 -4.92383,-3.71289 c -6.05197,-4.56356 -12.61692,-10.83798 -12.14257,-11.60547 0.40222,-0.65084 15.01375,-0.3025 20.24804,0.48242 l 3.49024,0.52344 -0.41602,-2.09375 c -1.77572,-8.91263 -1.59011,-9.27855 4.38086,-8.57031 6.28811,0.74585 10.42383,-1.3893 10.42383,-5.38282 0,-0.77488 -1.63097,-4.82568 -3.625,-9 -3.47031,-7.26476 -4.88446,-12.20577 -7.61914,-26.61718 -0.55244,-2.91132 -1.841,-6.72045 -2.86328,-8.46485 l -1.85938,-3.17187 1.6211,-0.4336 c 0.8909,-0.23884 2.02179,-0.43998 2.51367,-0.44531 1.56932,-0.0174 3.7812,5.51267 4.97656,12.43945 1.66052,9.62218 4.26569,18.15513 7.98242,26.14258 3.62716,7.79495 4.05514,11.33173 1.8125,15.00977 -1.83896,3.016 -4.78737,4.49215 -10.07617,5.04492 l -4.26562,0.44531 0.0645,4.45508 0.0664,4.45312 -3.27344,-0.0781 c -1.8,-0.0429 -6.15233,-0.23896 -9.67188,-0.43555 -3.51956,-0.1966 -6.13789,-0.13235 -5.81836,0.14258 0.31956,0.27492 3.31336,2.3991 6.65235,4.71875 5.55493,3.85908 6.03635,4.38659 5.67187,6.20898 -1.04257,5.21288 -9.58802,14.19488 -14.18945,14.91407 -3.55007,0.55492 -8.26902,1.92026 -9.30078,2.6914 -1.32723,0.99198 -3.33593,10.31269 -2.96094,13.65039 -0.19368,0.71694 -0.18954,0.87302 -0.54297,1.87891 -0.095,0.27052 -0.21024,0.54984 -0.3164,0.82617 1.74231,0.3622 3.03871,1.03083 3.89257,-0.97656 0.85492,-2.18405 0.94919,-1.07062 0.70117,-3.48047 0.21799,-3.1568 0.74681,-6.33563 1.85547,-9.31055 1.70814,-0.65441 3.49297,-1.07044 5.27539,-1.46484 2.39739,-0.29692 4.7459,-1.07363 6.75391,-2.44141 3.52269,-2.37725 6.57704,-5.44882 9.07227,-8.88281 1.80244,-2.6987 3.72819,-5.70618 3.58007,-9.08203 -0.045,-2.39939 -1.87475,-4.15998 -3.63281,-5.54101 3.35747,0.14107 6.71838,0.20391 10.07813,0.28124 -0.0472,-3.13453 -0.0937,-6.26975 -0.14063,-9.40429 2.00052,-0.21004 4.00994,-0.48556 5.92969,-1.10938 5.87168,-1.58786 10.29181,-7.58841 9.67383,-13.70703 -0.4741,-5.8268 -3.76467,-10.85285 -5.7461,-16.22461 -1.8786,-4.86998 -3.3024,-9.63447 -4.41211,-14.75586 -1.26214,-6.41706 -2.42689,-12.87344 -4.38281,-19.12695 3.80632,-1.80884 7.51183,-3.82398 11.14063,-5.96484 5.42457,-3.30966 10.96446,-6.58938 15.57226,-11.01563 6.50027,-6.72771 12.63108,-13.80982 18.54688,-21.05469 1.33418,-1.73966 3.21622,-3.59322 2.80078,-5.99609 -0.90349,-3.17475 -3.36799,-5.94079 -6.46094,-7.13672 -2.38607,-0.71201 -4.89718,-1.14363 -7.40234,-1.15625 z m -0.13672,4.46484 c 0.75293,0.004 1.5571,0.0625 2.50976,0.16211 3.4114,0.35656 4.80725,0.87522 6.09766,2.26758 0.92039,0.99312 1.67383,2.1752 1.67383,2.62696 0,0.94281 -15.36759,18.75086 -20.5293,23.78906 -4.97774,4.85861 -20.38455,14.13792 -29.4707,17.75 -14.99952,5.96285 -24.57351,9.61887 -28.54492,10.90039 -16.35075,5.27616 -29.67888,11.39047 -44.36328,20.35156 -3.8,2.31896 -10.01836,5.91396 -13.81836,7.98828 -3.79999,2.07432 -10.18164,5.89684 -14.18164,8.4961 -8.94838,5.8148 -15.43188,7.91906 -24,7.78906 -3.2,-0.0485 -7.39093,-0.41453 -9.3125,-0.81445 -4.5103,-0.93872 -8.18868,-4.30276 -8.91016,-8.14844 -0.86424,-4.60684 0.18257,-6.27448 5.13281,-8.17969 2.39892,-0.92327 5.6715,-2.32166 7.27149,-3.10742 1.6,-0.78576 7.16328,-2.9448 12.36328,-4.79883 5.2,-1.85404 10.76328,-4.11722 12.36328,-5.0293 1.6,-0.91208 6.34492,-2.88791 10.54492,-4.39062 12.57703,-4.49988 19.42447,-7.80817 34.25195,-16.54297 7.76164,-4.57232 21.80313,-12.50793 31.20313,-17.63477 9.4,-5.12684 18.31262,-10.08564 19.80469,-11.02148 1.49205,-0.93584 2.88519,-1.70313 3.09765,-1.70313 0.21248,0 2.26507,-1.26266 4.56055,-2.80664 4.65333,-3.12992 25.01112,-12.6491 34.31055,-16.04296 3.8969,-1.4222 5.68647,-1.91106 7.94531,-1.9004 z m -95.08594,3.0879 c 8.47167,-0.0758 14.90573,2.98295 22.54688,10.02148 3.35154,3.08727 7.48132,6.32075 9.17773,7.18359 l 3.08398,1.56836 -7.44726,4.44336 c -4.09643,2.444 -12.68399,7.31392 -19.08398,10.82227 -6.4,3.50833 -15.7375,8.76291 -20.75,11.67773 -8.95474,5.20728 -24.21648,12.86635 -27.4336,13.76758 -1.54731,0.43345 -1.63476,0.25101 -1.63476,-3.35742 0,-2.09884 -0.86199,-7.41637 -1.91407,-11.81641 -2.4022,-10.04629 -1.9603,-12.51359 3.87891,-21.72461 7.60157,-11.99098 16.39651,-18.43129 28.97266,-21.21289 3.60086,-0.79645 6.81597,-1.26013 9.77734,-1.35547 0.27763,-0.01 0.55289,-0.0149 0.82617,-0.0176 z m 50.37891,54.06445 c 0.25048,4e-4 0.48698,0.0108 0.70898,0.0293 1.77596,0.14828 2.64258,0.87944 2.64258,2.19335 0,1.10784 -0.53528,1.375 -2.74609,1.375 -3.28044,0 -13.12183,3.07916 -17.4043,5.44532 -2.54279,1.4049 -3.19698,1.52323 -3.88086,0.69922 -0.63756,-0.76823 -0.39729,-1.41717 1.06641,-2.88086 2.18805,-2.18807 5.36806,-3.62861 12.22851,-5.53711 3.17859,-0.88424 5.63139,-1.32689 7.38477,-1.32422 z m -3.5586,10.21875 c 0.19395,0 0.38742,0.005 0.58008,0.0117 2.05524,0.0776 4.03237,0.57127 5.75781,1.54101 3.39328,1.90714 5.32557,5.02671 4.28907,6.92383 -1.4353,2.62704 -6.37816,6.70048 -9.44336,7.78125 -3.58506,1.26408 -6.62012,1.32848 -10.0918,0.21485 -1.30044,-0.41716 -3.55389,-1.78617 -5.00781,-3.04297 -2.60076,-2.24816 -2.62616,-2.32126 -1.51953,-4.44141 2.87785,-5.51364 9.4237,-8.98824 15.43554,-8.98828 z m 1.50782,3.56055 c -1.90207,0 -1.90381,0.007 -0.72852,2.27929 0.64791,1.25292 1.03997,3.20831 0.87305,4.34571 -0.33552,2.2861 -0.0189,2.17118 3.98633,-1.45118 1.1,-0.99484 2,-2.00326 2,-2.24218 0,-0.88204 -4.28514,-2.93164 -6.13086,-2.93164 z m -10.16602,3.89648 c -0.0279,0.003 -0.0582,0.0119 -0.0918,0.0254 -0.26876,0.10816 -0.71937,0.55854 -1.45312,1.39258 -2.38248,2.70812 -2.28205,3.14059 0.93164,3.99414 1.5,0.3984 2.81747,0.75749 2.92773,0.79883 0.11027,0.0414 -0.29792,-0.89018 -0.9082,-2.07031 -0.61027,-1.18015 -1.12081,-2.73522 -1.13281,-3.45508 -0.008,-0.4681 -0.0766,-0.70608 -0.27344,-0.68555 z m -36.69336,10.89258 c 0.60591,0.0231 1.32233,0.33875 2.58789,0.96094 3.26231,1.60384 3.85646,3.30698 3.32031,9.52343 -0.41436,4.80448 -0.076,5.25689 2.56055,3.41016 1.47548,-1.03355 1.66276,-1.03006 2.07227,0.0371 0.54073,1.40919 -2.34704,4.73437 -4.11133,4.73437 -0.66828,0 -1.73303,-0.57271 -2.36719,-1.27343 -1.97213,-2.17852 -2.6455,-4.87933 -1.9668,-7.88868 0.50047,-2.21898 0.38449,-3.08524 -0.55468,-4.12304 -1.66843,-1.84358 -3.37852,-1.26812 -3.84961,1.29492 l -0.39844,2.17187 -0.94141,-1.70312 c -1.23105,-2.22999 -0.5103,-4.89686 1.71875,-6.35742 0.82752,-0.5422 1.3238,-0.81031 1.92969,-0.78711 z m -18.82031,2.98047 c -0.0629,-0.006 -0.11926,0.006 -0.16992,0.0371 -0.45987,0.2842 -0.14756,1.60228 0.82812,3.50586 1.83984,3.58964 2.64096,2.57439 1.02344,-1.29688 -0.53596,-1.28277 -1.24212,-2.20369 -1.68164,-2.24609 z m -8.61914,2.5957 c -1.20768,0 -0.83542,2.43097 0.97851,6.38867 1.53911,3.35811 1.90609,2.42761 0.91797,-2.33203 -0.5542,-2.66963 -1.20356,-4.05664 -1.89648,-4.05664 z m -10.03321,3.21484 c -0.57327,0.10768 -0.0845,5.8967 0.74805,8.06641 0.86312,2.24917 1.13609,0.93516 0.64453,-3.09961 -0.28017,-2.3 -0.84808,-4.51016 -1.26367,-4.91016 -0.048,-0.0459 -0.0906,-0.0633 -0.12891,-0.0566 z m 19.12696,9.875 c -0.41931,0 -0.59271,0.57344 -0.38477,1.27344 0.20798,0.7 0.59311,2.17149 0.85547,3.27149 0.26236,1.1 0.79024,2 1.17383,2 0.38365,0 0.5433,-0.57149 0.35351,-1.27149 -0.18977,-0.7 -0.54621,-2.17344 -0.79101,-3.27344 -0.2448,-1.1 -0.78771,-2 -1.20703,-2 z m -11.62305,5.0918 c -1.00049,0 -0.8278,1.77717 0.49219,5.07617 1.46361,3.65784 1.93944,3.72633 1.34375,0.19531 -0.69796,-4.13726 -1.09278,-5.27148 -1.83594,-5.27148 z m 7.6875,8.72656 c -0.7316,0 -0.77564,0.6392 -0.19922,2.91016 0.40612,1.6 0.95294,2.9082 1.21485,2.9082 0.26193,0 0.34985,-1.3082 0.19726,-2.9082 -0.16645,-1.74543 -0.65057,-2.91016 -1.21289,-2.91016 z"
         transform="matrix(0.75000002,0,0,-0.75000002,0,883.63645)"
         inkscape:label="mask" /></g></g></svg>
