<?xml version="1.0" encoding="UTF-8" standalone="no"?>
<!-- Created with Inkscape (http://www.inkscape.org/) -->

<svg
   version="1.1"
   id="svg2"
   xml:space="preserve"
   width="1122.9974"
   height="888.73956"
   viewBox="0 0 1122.9974 888.73957"
   sodipodi:docname="night.svg"
   inkscape:version="1.1 (c68e22c387, 2021-05-23)"
   xmlns:inkscape="http://www.inkscape.org/namespaces/inkscape"
   xmlns:sodipodi="http://sodipodi.sourceforge.net/DTD/sodipodi-0.dtd"
   xmlns="http://www.w3.org/2000/svg"
   xmlns:svg="http://www.w3.org/2000/svg"><defs
     id="defs6" /><sodipodi:namedview
     id="namedview4"
     pagecolor="#505050"
     bordercolor="#eeeeee"
     borderopacity="1"
     inkscape:pageshadow="0"
     inkscape:pageopacity="0"
     inkscape:pagecheckerboard="0"
     showgrid="false"
     inkscape:zoom="1.0478929"
     inkscape:cx="203.00089"
     inkscape:cy="341.03379"
     inkscape:window-width="3840"
     inkscape:window-height="2066"
     inkscape:window-x="-11"
     inkscape:window-y="-11"
     inkscape:window-maximized="1"
     inkscape:current-layer="g8"
     inkscape:snap-global="false"
     inkscape:rotation="2"
     fit-margin-top="0"
     fit-margin-left="0"
     fit-margin-right="0"
     fit-margin-bottom="0" /><g
     id="g8"
     inkscape:groupmode="layer"
     inkscape:label="base"
     transform="matrix(1.3333333,0,0,-1.3333333,-588.31588,708.02611)"><g
       id="g11057"
       inkscape:label="night"><path
         style="fill:#000000;stroke:none;stroke-width:0.75px;stroke-linecap:butt;stroke-linejoin:miter;stroke-opacity:1"
         d="m 994.0441,423.5087 c 92.3796,-29.7014 229.6356,4.3597 280.366,-78.3602 29.4263,-47.9819 -21.0792,-110.5978 -33.217,-165.56 -16.0931,-72.8724 0.1962,-164.797496 -52.4991,-217.642396 -56.8538,-57.01531 -155.9478,-40.33647 -234.6566,-57.3079 C 892.1296,-108.71056 827.52326,-149.92799 767.29492,-130.3497 707.27202,-110.83821 687.78465,-30.546396 637.26453,7.2843036 587.88318,44.262304 508.48927,41.348604 472.39963,91.382904 441.84847,133.7387 433.24091,196.455 448.88465,246.2813 c 18.97525,60.4374 87.14927,91.9563 130.79723,137.8648 34.38628,36.1672 60.18079,83.2235 103.27427,108.3916 42.33331,24.7241 94.54222,45.799 142.58701,36.0478 45.54754,-9.2443 70.34444,-61.9342 111.15644,-84.1695 17.8661,-9.7338 37.9754,-14.6798 57.3445,-20.9073 z"
         id="path8414"
         sodipodi:nodetypes="aaaaaaaaaaaaaa"
         inkscape:label="bg" /><path
         id="path3011"
         style="fill:#ffffff;stroke-width:0.999998"
         inkscape:label="mask"
         d="m 806.6779,399.15208 c -0.38453,-0.0102 -1.0749,-0.34202 -1.6509,-0.81006 -1.69298,-1.3754 -2.35103,-6.68064 -2.14013,-17.24414 0.16193,-8.1099 0.10628,-8.68362 -0.91845,-9.44092 -0.6,-0.4434 -5.08425,-2.78453 -9.9639,-5.20313 -4.87935,-2.4185 -9.0165,-4.63138 -9.19335,-4.91748 -0.17677,-0.2861 0.25748,-1.1413 0.9639,-1.8999 1.2579,-1.3508 1.42463,-1.3763 8.10203,-1.2334 3.75,0.08 8.17567,0.10567 9.83497,0.0557 l 3.01755,-0.0894 -0.21825,-8.99853 c -0.18517,-7.6696 -0.0844,-9.19987 0.67823,-10.36377 1.5918,-2.4294 2.57932,-1.72756 5.57377,3.96094 1.53728,2.9204 3.1071,6.28327 3.48923,7.47217 1.161,3.613 5.04825,9.58828 5.9883,9.20507 2.60385,-1.06159 6.77197,-2.34915 10.26997,-3.17285 2.19855,-0.5176 5.4825,-1.54523 7.29638,-2.28222 3.59295,-1.46 4.49242,-1.4066 4.93657,0.2915 0.49838,1.9061 -1.7547,5.43873 -6.63135,10.39453 l -4.69042,4.76514 2.1606,3.22705 c 1.1877,1.775 3.45765,5.28975 5.04495,7.81055 4.51117,7.15999 3.68767,10.19641 -1.94828,7.1704 -1.09087,-0.5856 -3.71775,-1.78275 -5.8374,-2.66015 -2.11957,-0.8774 -5.46165,-2.57231 -7.42672,-3.76612 l -3.57278,-2.16943 -3.48337,5.65137 c -5.78048,9.3816 -8.90445,14.04346 -9.53618,14.23096 -0.0412,0.0122 -0.0901,0.0176 -0.14497,0.0161 z m 163.94678,-22.19385 c -0.52208,-0.0199 -1.01468,-0.71939 -1.41068,-2.13281 -0.18877,-0.67341 -0.72982,-2.21099 -1.20262,-3.41748 -0.47273,-1.2063 -1.092,-3.23114 -1.3755,-4.49854 l -0.51563,-2.3042 -3.66352,0.79541 c -6.0825,1.3201 -9.2037,1.87413 -9.5274,1.69043 -0.1689,-0.0959 -0.33938,-0.56547 -0.37935,-1.04297 -0.1029,-1.2277 1.79872,-3.57284 6.18165,-7.62305 3.36487,-3.1095 3.57637,-3.35563 3.48337,-4.06933 -0.054,-0.4179 -0.85672,-3.16025 -1.78275,-6.09375 -0.92587,-2.9333 -1.64512,-5.48485 -1.5981,-5.66894 0.0472,-0.1839 0.56453,-0.34157 1.1499,-0.35157 1.04243,-0.0168 1.119,0.0426 3.6753,2.8169 1.4358,1.55789 3.15765,3.36949 3.82763,4.02538 l 1.21875,1.19239 3.57712,-3.61084 c 3.04973,-3.0785 3.71295,-3.63693 4.48538,-3.78223 1.61227,-0.3032 1.71315,0.37255 0.56985,3.81885 -0.58703,1.7693 -1.34138,3.72509 -1.6758,4.34619 -1.01618,1.8873 -1.92735,5.80978 -1.40333,6.04248 1.4517,0.6443 3.60788,1.83698 5.313,2.93848 1.07138,0.6923 2.77485,1.62735 3.78518,2.07714 2.00107,0.891 2.33227,1.27833 1.81492,2.12403 -0.5808,0.9492 -2.90077,1.41463 -6.82762,1.36963 l -3.7764,-0.0424 -0.46875,2.1416 c -0.25763,1.1785 -0.79943,3.4791 -1.20413,5.1123 -0.6819,2.75495 -1.50742,4.17615 -2.27047,4.14698 z M 639.26822,343.43675 c -0.1101,-0.008 -0.2235,-0.0315 -0.34275,-0.0674 -0.62955,-0.1895 -1.34205,-0.5272 -1.58355,-0.75 -0.4971,-0.4586 -1.78515,-8.00928 -2.73923,-16.06348 l -0.64012,-5.4082 -5.72753,-0.9712 c -8.64075,-1.46599 -13.1331,-2.49095 -13.78567,-3.14355 -0.42023,-0.4203 -0.29258,-0.91408 0.4497,-1.73437 1.25587,-1.3878 9.79897,-6.73473 11.70262,-7.32423 0.74873,-0.2319 2.6496,-0.89765 4.2246,-1.48095 l 2.8638,-1.06055 0.0382,-3.91552 c 0.0761,-7.69701 0.81135,-13.37777 1.88378,-14.56641 0,0 0,-0.002 0,-0.002 0.55545,-0.61299 1.39222,-1.04208 1.8603,-0.95215 1.13955,0.21859 3.29265,4.26817 6.32227,11.89306 1.3743,3.45891 2.68433,6.58878 2.91068,6.95508 0.42735,0.6914 5.3082,-0.23071 13.98337,-2.64111 5.0211,-1.3955 8.26898,-1.40898 8.70413,-0.0381 0.38055,1.1993 -0.4926,3.73347 -1.7886,5.19287 -0.50408,0.5677 -2.54303,2.43976 -4.53225,4.16015 l -3.61665,3.12745 5.91795,5.58838 c 3.2553,3.0732 6.07192,6.06752 6.25777,6.65331 0.66413,2.09231 -0.20055,3.63776 -2.40375,4.29786 -2.3487,0.7037 -6.72952,-0.22742 -15.3267,-3.25782 -2.53342,-0.893 -4.78522,-1.51351 -5.00392,-1.37841 -0.2187,0.1352 -0.819,1.5325 -1.33298,3.104 -1.18747,3.6299 -2.53882,6.34376 -5.29837,10.63916 -1.60268,2.4948 -2.22788,3.19915 -2.9985,3.14356 z M 1021.0007,314.6716 c -0.055,0.007 -0.1523,-0.11662 -0.2183,-0.27392 -0.1168,-0.2808 -0.1089,-0.30762 0.3677,-1.29932 0.2677,-0.5569 0.5727,-1.2184 0.6782,-1.4707 l 0.1919,-0.45996 -1.3638,-0.58008 c -1.1627,-0.4954 -1.3863,-0.61469 -1.5087,-0.8086 v 0 c -0.2559,-0.40429 -0.084,-0.50589 0.9726,-0.56689 0.543,-0.031 1.155,-0.0372 1.3594,-0.0132 0.621,0.0722 1.7786,-0.1038 1.7886,-0.271 0.018,-0.4628 0.1093,-1.17555 0.2241,-1.75635 0.072,-0.365 0.1423,-0.92731 0.1553,-1.24951 0.026,-0.6387 0.096,-0.76971 0.3808,-0.7207 0.32,0.0552 0.6951,0.63431 1.106,1.70361 l 0.3955,1.02832 0.6314,-0.10401 c 0.3471,-0.0571 1.0283,-0.15812 1.5146,-0.22411 1.3805,-0.1875 1.78,0.14185 0.9419,0.78076 -0.1622,0.12369 -0.5212,0.43584 -0.7969,0.69433 -0.2761,0.258 -0.7577,0.64364 -1.0708,0.85694 l -0.5698,0.38818 0.6108,0.90821 c 1.0129,1.50649 1.4989,2.29221 1.4839,2.3994 -0.01,0.0562 -0.1169,0.15234 -0.2417,0.21534 -0.3217,0.1601 -1.162,-0.1023 -2.7319,-0.85401 -1.2053,-0.5769 -1.2947,-0.60737 -1.478,-0.50537 -0.1074,0.0598 -0.7636,0.57275 -1.459,1.13965 -0.6954,0.567 -1.3103,1.03297 -1.3652,1.04297 z m 59.0507,-4.83691 -0.3442,-2.64698 c -0.1889,-1.45569 -0.7199,-5.20512 -1.1807,-8.33202 -0.4608,-3.1269 -0.9001,-7.05444 -0.9755,-8.72754 -0.075,-1.6731 -0.176,-3.41462 -0.2242,-3.87012 -0.049,-0.4649 -2.8396,-2.25024 -6.3603,-4.06934 -6.9674,-3.5998 -6.958,-3.54511 -0.8159,-5.15771 2.1045,-0.5525 4.6486,-1.63232 5.6542,-2.39942 1.7844,-1.361 1.8367,-1.51671 2.1753,-6.47021 0.1909,-2.7915 0.5052,-6.52727 0.6973,-8.30127 l 0.3486,-3.22412 1.2188,3.24023 c 0.6701,1.7826 1.8973,4.58429 2.7276,6.22559 2.1027,4.157 5.4981,9.05412 6.5595,9.46143 0.4889,0.18759 1.3049,0.34131 1.8135,0.34131 0.9789,0 9.5063,-3.45561 16.5762,-6.71631 2.325,-1.0723 4.2275,-1.86082 4.2275,-1.75342 0,0.8127 -5.7383,9.55921 -8.045,12.26221 -1.7799,2.08549 -2.8637,3.86568 -2.8637,4.70508 0,0.99679 2.0101,3.43006 7.6787,9.29296 4.2235,4.3682 7.5706,8.05062 7.4385,8.18262 -0.3932,0.3932 -8.5901,-2.93111 -10.7461,-4.35791 -1.8578,-1.2294 -11.6744,-4.70654 -13.2876,-4.70654 -1.3892,0 -4.711,4.0038 -5.8388,7.0371 -1.4316,3.8497 -3.2935,7.05027 -5.0611,8.70117 z M 769.6525,276.96652 c -0.3459,-0.0133 -0.67215,-0.47562 -0.93458,-1.4121 -0.1251,-0.4461 -0.48367,-1.46535 -0.79687,-2.26465 -0.3132,-0.7993 -0.72338,-2.1398 -0.9111,-2.9795 l -0.34133,-1.52636 -2.42722,0.52588 c -4.03013,0.87469 -6.09758,1.2424 -6.31208,1.1206 -0.11182,-0.0635 -0.2253,-0.3751 -0.25192,-0.69141 -0.0683,-0.81339 1.19175,-2.36727 4.09567,-5.05077 2.22945,-2.0602 2.37023,-2.22388 2.30865,-2.69678 -0.036,-0.2769 -0.56865,-2.09351 -1.18215,-4.03711 -0.6135,-1.9435 -1.089,-3.63396 -1.05765,-3.75586 0.0315,-0.1219 0.37388,-0.22291 0.76178,-0.23291 0.6906,-0.0112 0.74085,0.0281 2.43457,1.86621 0.95123,1.0323 2.09168,2.23298 2.5356,2.66748 l 0.80715,0.78955 2.37158,-2.39209 c 2.02057,-2.0396 2.45895,-2.41035 2.97067,-2.50635 1.06823,-0.2009 1.1355,0.24649 0.37793,2.52979 -0.38888,1.1723 -0.88875,2.46838 -1.1103,2.87988 -0.67335,1.2505 -1.27598,3.84922 -0.92873,4.00342 0.96188,0.4269 2.39033,1.21698 3.52005,1.94677 0.70988,0.4587 1.8384,1.07739 2.50778,1.3755 1.32585,0.5903 1.54545,0.84741 1.20262,1.40771 -0.38482,0.6289 -1.92307,0.9382 -4.5249,0.9082 l -2.50192,-0.0278 -0.31058,1.41943 c -0.17062,0.7808 -0.52875,2.30462 -0.79687,3.38672 -0.4518,1.82536 -1.00028,2.76593 -1.50585,2.74658 z m 151.05615,-11.41845 c -0.1422,-0.003 -0.27247,-0.0439 -0.42037,-0.11133 -0.54683,-0.2491 -0.67095,-0.51931 -0.67095,-1.46631 0,-1.2316 0.77595,-8.00623 1.00342,-8.76123 0.0814,-0.2703 -0.1173,-0.57471 -0.50392,-0.77051 -4.0116,-2.0307 -6.29903,-3.43672 -6.37208,-3.91552 -0.1542,-1.0159 0.9531,-1.65478 2.7261,-1.57178 0.8766,0.0409 2.1099,0.005 2.74073,-0.0806 l 1.14697,-0.15381 0.3501,-2.60304 c 0.1926,-1.4319 0.41085,-3.11617 0.48488,-3.74267 0.0743,-0.6265 0.39,-1.5568 0.7002,-2.0669 0.41145,-0.67659 0.73395,-0.90288 1.19235,-0.83789 0.55785,0.0792 0.73897,0.53197 1.62307,4.04297 0.54773,2.1751 1.29765,4.67356 1.66553,5.55176 l 0.66945,1.59668 1.1733,-0.50244 c 0.64545,-0.2767 2.3109,-0.8433 3.7017,-1.2583 1.3908,-0.415 3.1245,-1.00208 3.85252,-1.30517 1.87133,-0.77921 2.99798,-0.73579 3.21383,0.1245 0.0966,0.3849 -0.0217,1.04622 -0.27533,1.53663 -0.6174,1.1939 -3.93645,4.93869 -4.7754,5.38769 l -0.69142,0.36914 1.3506,2.03906 c 2.07667,3.1359 3.43185,5.99705 3.33105,7.03565 -0.0786,0.8103 -0.17205,0.88954 -0.999,0.85254 -0.90975,-0.0408 -2.1036,-0.57372 -7.1031,-3.16992 l -2.6469,-1.37402 -1.02398,1.13085 c -0.5625,0.6226 -1.96095,1.82631 -3.10837,2.67481 -1.38165,1.02172 -1.90845,1.35826 -2.33498,1.34912 z m 266.28075,-9.33105 c -0.9243,-0.0353 -1.7964,-1.27253 -2.4976,-3.77491 -0.3342,-1.1922 -1.2914,-3.91537 -2.1283,-6.05127 -0.8369,-2.1358 -1.9328,-5.71909 -2.4346,-7.96289 l -0.9126,-4.07959 -6.4878,1.40772 c -10.7688,2.33719 -16.2946,3.31797 -16.8677,2.99267 -0.299,-0.1697 -0.5999,-1.0004 -0.6709,-1.84571 -0.1823,-2.17359 3.1841,-6.3249 10.9439,-13.4956 5.9573,-5.5052 6.3315,-5.94353 6.167,-7.20703 -0.096,-0.7399 -1.5159,-5.59361 -3.1553,-10.78711 -1.6393,-5.1933 -2.9127,-9.70984 -2.8287,-10.03564 0.084,-0.3257 0.9998,-0.60557 2.0362,-0.62256 1.8455,-0.0298 1.9796,0.0732 6.5054,4.98486 2.5419,2.7582 5.5916,5.96527 6.7778,7.12647 l 2.1562,2.1123 6.334,-6.39404 c 5.3993,-5.4502 6.572,-6.4386 7.9395,-6.6958 2.8544,-0.53681 3.0335,0.66178 1.0093,6.76318 -1.0392,3.1325 -2.3744,6.59523 -2.9663,7.69482 -1.7992,3.34131 -3.4107,10.28439 -2.4829,10.69629 2.5702,1.14081 6.3871,3.25293 9.4057,5.20313 1.897,1.2257 4.9131,2.87879 6.7017,3.67529 3.5429,1.5774 4.1285,2.26452 3.2124,3.76172 -1.0284,1.6806 -5.1355,2.50478 -12.0879,2.42578 l -6.6855,-0.0762 -0.8292,3.79248 c -0.456,2.0864 -1.4163,6.15977 -2.1328,9.05127 -1.2072,4.87748 -2.6701,7.39199 -4.021,7.34034 z m -614.20898,-4.58204 c -0.3451,-0.0132 -0.66986,-0.47488 -0.93164,-1.40917 -0.12478,-0.44511 -0.48291,-1.46139 -0.79541,-2.25879 -0.31247,-0.79751 -0.72232,-2.13594 -0.90967,-2.97364 l -0.33984,-1.52197 -2.42285,0.52442 c -4.02062,0.87259 -6.08339,1.23917 -6.29737,1.11767 -0.11163,-0.0634 -0.22399,-0.37288 -0.25048,-0.68848 -0.068,-0.8115 1.1883,-2.36177 4.08544,-5.03906 2.22422,-2.0554 2.36414,-2.21922 2.30274,-2.69092 -0.0359,-0.2763 -0.56566,-2.08922 -1.17774,-4.02832 -0.61204,-1.9389 -1.08755,-3.62401 -1.05615,-3.7456 0.0312,-0.12161 0.37331,-0.22292 0.76025,-0.23292 0.68904,-0.0112 0.73898,0.0281 2.42871,1.86182 0.94905,1.0298 2.08839,2.22666 2.53125,2.66016 l 0.80421,0.78955 2.36572,-2.3877 c 2.01588,-2.0349 2.45281,-2.40449 2.96338,-2.50049 1.06571,-0.2004 1.13221,0.2474 0.37646,2.52539 -0.388,1.16961 -0.88639,2.46196 -1.10742,2.87256 -0.67174,1.2475 -1.27218,3.83937 -0.92578,3.99317 0.95961,0.42589 2.38421,1.21418 3.51123,1.94238 0.70827,0.4576 1.83417,1.07515 2.50195,1.37256 1.32278,0.5889 1.54174,0.84578 1.19971,1.40478 -0.38393,0.6275 -1.91744,0.93528 -4.51319,0.90528 l -2.49609,-0.0278 -0.31054,1.4165 c -0.17025,0.7789 -0.5279,2.29979 -0.79541,3.37939 -0.45075,1.82103 -0.99709,2.75856 -1.50147,2.73926 z m 201.70605,-57.82031 c -1.98315,-0.0608 -2.80957,-2.38748 -2.03467,-5.72607 0.38302,-1.6506 0.74437,-4.00463 0.80272,-5.23243 l 0.10553,-2.23242 -4.82228,-1.57178 c -2.65275,-0.8644 -5.77635,-1.86579 -6.94042,-2.2251 -1.16415,-0.3594 -2.82038,-1.28105 -3.68115,-2.04785 -1.14188,-1.0171 -1.45965,-1.70835 -1.1763,-2.55615 0.34485,-1.0319 1.26922,-1.22065 8.24557,-1.67725 4.32195,-0.28299 9.32798,-0.8361 11.12408,-1.229 l 3.26512,-0.71485 -0.54637,-2.4038 c -0.30075,-1.3222 -0.79478,-4.68324 -1.09868,-7.46924 -0.30382,-2.7861 -0.81742,-6.2828 -1.13962,-7.771 -0.82845,-3.8255 -0.35258,-5.95102 1.35645,-6.06152 0.76462,-0.0494 1.97977,0.40678 2.82277,1.05908 2.05268,1.5884 8.00865,9.19541 8.56928,10.94531 l 0.46147,1.43994 4.34175,-1.85448 c 6.6792,-2.85231 12.58635,-4.42761 14.52398,-3.87452 1.51177,0.43151 1.63027,0.63518 1.27147,2.19287 -0.39435,1.71351 -1.82287,3.79503 -8.49465,12.38672 l -3.53317,4.54981 1.79445,2.33643 c 0.98662,1.2852 2.7855,4.36172 3.9975,6.83642 1.94602,3.9732 2.1081,4.63475 1.3902,5.66455 -0.66353,0.9517 -1.21755,1.09299 -3.01613,0.76318 -2.33925,-0.4288 -14.93722,-4.26203 -16.29202,-4.95703 -0.48503,-0.2488 -1.13423,0.0239 -1.64063,0.68994 -5.25382,6.9121 -8.72152,10.76924 -9.65625,10.74024 z m 328.83983,-11.07276 c -0.8383,0.0493 -2.0324,-0.69379 -3.5376,-2.29687 -0.8475,-0.9025 -2.9562,-2.87455 -4.686,-4.38135 -1.7297,-1.5068 -4.3578,-4.17648 -5.8403,-5.93408 l -2.6954,-3.19629 -5.1005,4.24805 c -8.4676,7.0518 -12.9147,10.47612 -13.5733,10.45312 -0.3435,-0.0122 -0.9951,-0.60898 -1.4487,-1.32568 -1.1668,-1.843 -0.1016,-7.08115 3.4629,-17.02735 2.7366,-7.6359 2.8659,-8.19739 2.1357,-9.24169 -0.4275,-0.6114 -3.9305,-4.25956 -7.7856,-8.10645 -3.855,-3.8467 -7.0725,-7.26186 -7.1484,-7.58936 -0.076,-0.3275 0.6063,-1.00004 1.5175,-1.49414 1.6227,-0.8798 1.7887,-0.85019 8.0728,1.41211 3.5292,1.2703 7.7159,2.70494 9.3046,3.18604 l 2.8887,0.87598 2.6602,-8.59864 c 2.2673,-7.3292 2.8498,-8.74898 3.9434,-9.60938 v 10e-4 c 2.2827,-1.79589 2.9958,-0.81611 4.0224,5.52979 0.5271,3.258 0.9432,6.94418 0.9273,8.19287 -0.05,3.79461 1.732,10.69731 2.7451,10.6333 2.8064,-0.177 7.1679,-0.0696 10.7461,0.26368 2.2489,0.20929 5.6878,0.28193 7.642,0.16113 3.8709,-0.2396 4.7079,0.0975 4.5879,1.84863 -0.1347,1.9655 -3.3964,4.59584 -9.5976,7.74024 l -5.9634,3.02344 1.0196,3.74707 c 0.5605,2.0609 1.5921,6.11661 2.2939,9.01171 1.3097,5.39694 1.0071,8.37858 -0.5933,8.47266 z m -152.68357,-8.5122 c -0.60465,-0.0231 -1.17458,-0.83124 -1.63328,-2.46826 -0.21862,-0.7799 -0.84555,-2.56218 -1.39305,-3.95948 -0.5475,-1.3972 -1.26405,-3.74108 -1.59232,-5.20898 l -0.59768,-2.66895 -4.24365,0.92139 c -7.04475,1.5289 -10.65975,2.16983 -11.03467,1.95703 -0.1956,-0.111 -0.39345,-0.65403 -0.43943,-1.20703 -0.11932,-1.4219 2.08238,-4.13771 7.15868,-8.82862 3.89722,-3.60139 4.1433,-3.88726 4.03567,-4.71386 -0.063,-0.48401 -0.99292,-3.66012 -2.06542,-7.05762 -1.07243,-3.3974 -1.90515,-6.35233 -1.8501,-6.56543 0.0548,-0.2131 0.65497,-0.39623 1.33297,-0.40722 1.20735,-0.0195 1.29473,0.0476 4.25543,3.26073 1.66275,1.80431 3.65805,3.903 4.43407,4.6626 l 1.4106,1.38282 4.14405,-4.1836 c 3.5322,-3.5655 4.29825,-4.21158 5.19285,-4.37988 1.86735,-0.3512 1.98488,0.43233 0.66068,4.42383 -0.6798,2.04919 -1.55363,4.3139 -1.94093,5.0332 -1.17697,2.1858 -2.2314,6.72816 -1.6245,6.99756 1.68143,0.7463 4.17908,2.1285 6.15383,3.4043 1.24095,0.8018 3.21412,1.88427 4.38427,2.40527 2.31765,1.0319 2.70135,1.47997 2.10203,2.45947 -0.67268,1.0994 -3.3606,1.63843 -7.90868,1.58643 l -4.374,-0.0498 -0.54202,2.48145 c -0.29828,1.3649 -0.9258,4.02929 -1.39455,5.9209 -0.78975,3.19075 -1.74713,4.83554 -2.63085,4.80175 z m -309.87159,-11.3584 c -0.97822,-0.052 -8.4006,-12.91016 -10.4736,-18.14356 -1.33155,-3.3616 -4.51387,-14.21323 -5.7027,-19.44873 -1.77825,-7.8317 -0.0907,-18.26231 4.46633,-27.607906 2.20965,-4.531201 9.41445,-13.782908 14.2017,-18.237308 6.5718,-6.114998 12.68032,-10.416451 19.08105,-13.435546 11.31067,-5.3352 22.08157,-6.913605 30.70313,-4.5 2.26905,0.635198 5.53867,1.865558 7.26412,2.73486 4.035,2.032898 7.95413,3.573218 9.98438,3.924315 3.0345,0.524805 7.86405,2.48589 10.37407,4.212893 3.0519,2.099797 6.23138,4.851023 6.23138,5.390625 0,0.2175 -4.23368,0.7122 -9.40868,1.1001 -7.00747,0.5253 -11.21895,1.158705 -16.5,2.482905 -15.09645,3.7854 -25.03073,7.46919 -31.30958,11.60889 -3.7308,2.459903 -11.10472,9.683222 -14.03902,13.753422 -3.25433,4.514 -8.61915,14.03144 -9.99315,17.72754 -2.8365,7.63029 -3.8532,14.0421 -4.2144,26.59131 -0.18788,6.525 -0.48653,11.85559 -0.66503,11.84619 z M 1013.4567,81.535853 c -0.067,0.0037 -0.1707,-0.0195 -0.2666,-0.0615 -0.3287,-0.1452 -0.6639,-0.958972 -1.0884,-2.646967 -0.3259,-1.296 -0.3595,-1.384455 -0.5551,-1.460453 -0.1146,-0.0444 -0.9288,-0.222607 -1.8091,-0.395505 -0.8804,-0.1728 -1.6334,-0.345795 -1.6743,-0.38379 -0.041,-0.0378 -0.01,-0.191572 0.07,-0.342772 0.1414,-0.269205 0.1675,-0.281055 1.2349,-0.547853 0.5994,-0.149805 1.3044,-0.337485 1.5659,-0.41748 l 0.4746,-0.14502 -0.4234,-1.420898 c -0.3616,-1.211002 -0.4138,-1.457782 -0.3427,-1.675785 v 0 c 0.1476,-0.4551 0.3351,-0.38748 1.0575,0.386723 0.3711,0.3975 0.7665,0.86481 0.879,1.037107 0.3411,0.523898 1.2177,1.304333 1.3506,1.202633 0.3678,-0.281595 0.9739,-0.666615 1.4941,-0.949215 0.327,-0.1776 0.8042,-0.48252 1.0605,-0.678225 0.5078,-0.387795 0.6542,-0.419153 0.7984,-0.168458 0.1618,0.281303 -0.043,0.940358 -0.6035,1.939455 l -0.5391,0.960938 0.4834,0.418943 c 0.2657,0.230602 0.7781,0.690667 1.1396,1.022467 1.0263,0.942398 1.0269,1.461203 0,1.224608 -0.1988,-0.04582 -0.6681,-0.122925 -1.0429,-0.16992 -0.3749,-0.04763 -0.9792,-0.17226 -1.3433,-0.276863 l -0.6621,-0.190425 -0.3091,1.050293 c -0.5119,1.741702 -0.806,2.617807 -0.8979,2.674807 -0.012,0.0075 -0.031,0.01192 -0.053,0.0132 z M 831.61097,76.920136 c -0.0966,0.006 -0.2478,-0.0264 -0.3867,-0.08789 -0.47565,-0.210202 -0.9606,-1.390297 -1.5747,-3.833498 -0.47145,-1.875802 -0.51945,-2.003865 -0.80272,-2.11377 -0.16583,-0.06427 -1.34498,-0.320985 -2.61915,-0.57129 -1.27418,-0.250297 -2.36423,-0.500175 -2.42288,-0.555172 -0.0585,-0.05482 -0.0112,-0.27708 0.10253,-0.496583 0.20467,-0.389602 0.2421,-0.406582 1.78717,-0.79248 0.8676,-0.216802 1.8861,-0.48792 2.26463,-0.603517 l 0.6885,-0.210938 -0.6138,-2.056642 c -0.52365,-1.7526 -0.59603,-2.110178 -0.49365,-2.425778 v 0 c 0.21382,-0.658702 0.48375,-0.559665 1.52932,0.561038 0.53685,0.5754 1.10903,1.250497 1.27148,1.5 0.49372,0.758197 1.76332,1.888792 1.95555,1.741695 0.53242,-0.407498 1.4106,-0.965025 2.1636,-1.374023 0.47325,-0.256897 1.16407,-0.699607 1.53517,-0.982912 0.73493,-0.561195 0.94568,-0.6045 1.15425,-0.241695 0.2343,0.407197 -0.0638,1.360642 -0.8745,2.806642 l -0.77925,1.390133 0.6987,0.607912 c 0.38453,0.333795 1.12763,0.99909 1.6509,1.479488 1.48545,1.364002 1.48628,2.11506 0,1.772467 -0.2877,-0.0663 -0.96757,-0.177097 -1.51027,-0.246097 -0.54255,-0.06893 -1.41698,-0.250065 -1.94385,-0.40137 l -0.95798,-0.273923 -0.44677,1.51758 c -0.7413,2.520796 -1.1673,3.788581 -1.3008,3.871583 -0.0172,0.01087 -0.0443,0.01717 -0.0762,0.01905 z M 917.1271,33.625207 c -0.40942,-0.01568 -0.7953,-0.562853 -1.10595,-1.671383 -0.14797,-0.528097 -0.57255,-1.734465 -0.94335,-2.680665 -0.37072,-0.946102 -0.85582,-2.533342 -1.07812,-3.52734 l -0.40433,-1.80762 -2.874,0.624023 c -4.77052,1.035397 -7.21837,1.469782 -7.47217,1.325685 -0.13253,-0.0751 -0.26535,-0.444353 -0.29738,-0.81885 -0.0807,-0.962798 1.40978,-2.801528 4.84718,-5.978025 2.63917,-2.438806 2.80642,-2.632096 2.73337,-3.191896 -0.0427,-0.327697 -0.67267,-2.479185 -1.3989,-4.779787 -0.72622,-2.3005953 -1.2894,-4.3000353 -1.25242,-4.4443353 0.0375,-0.1443 0.44325,-0.2668575 0.90232,-0.276855 0.8175,-0.0132 0.87645,0.033075 2.88135,2.2089825 1.12598,1.2218026 2.47755,2.6423398 3.00293,3.1567428 l 0.95512,0.93603 2.80515,-2.8330052 c 2.39183,-2.4143026 2.91128,-2.8523101 3.51705,-2.9663101 1.26443,-0.237795 1.34348,0.29427 0.44678,2.9970751 -0.46028,1.3876952 -1.05173,2.9215872 -1.31393,3.4086902 -0.79702,1.480095 -1.5111,4.554802 -1.1001,4.7373 1.1385,0.505402 2.83028,1.44177 4.16745,2.305665 0.8403,0.543 2.17695,1.276005 2.96925,1.62891 1.56953,0.6987 1.82828,1.002323 1.42238,1.665525 -0.45548,0.744503 -2.27423,1.108733 -5.35403,1.07373 l -2.9619,-0.03367 -0.36765,1.680173 c -0.20205,0.924202 -0.62745,2.72838 -0.94485,4.009282 -0.53475,2.160653 -1.18282,3.274845 -1.78125,3.251948 z m 184.2832,-4.64355 c -0.5894,-0.02257 -1.1465,-0.810953 -1.5938,-2.406743 -0.213,-0.760297 -0.8241,-2.496397 -1.3578,-3.858397 -0.5338,-1.362098 -1.2313,-3.647715 -1.5513,-5.078611 l -0.5815,-2.601562 -4.1382,0.897945 c -6.8675,1.490505 -10.391,2.114632 -10.7564,1.907227 -0.1907,-0.108195 -0.3842,-0.63717 -0.4292,-1.17627 -0.1162,-1.386097 2.0315,-4.033155 6.98,-8.6059573 3.799,-3.5107951 4.038,-3.7908751 3.9331,-4.5966751 -0.062,-0.4718025 -0.9673,-3.56691011 -2.0127,-6.8789102 -1.0454,-3.3117976 -1.8572,-6.1922027 -1.8032,-6.3999002 0.053,-0.2076972 0.637,-0.3859722 1.2979,-0.3969752 1.1769,-0.01897 1.2623,0.0465 4.1484,3.1787103 1.621,1.7590051 3.5662,3.8049151 4.3227,4.5454126 l 1.3755,1.3461901 4.0386,-4.0766551 c 3.4432,-3.4757026 4.1919,-4.1060252 5.064,-4.2700202 v -0.0015 c 1.8203,-0.3423975 1.9339,0.4229701 0.643,4.3139702 -0.6627,1.997595 -1.5135,4.20456007 -1.8911,4.90575759 -1.1473,2.13080251 -2.1765,6.55908021 -1.5849,6.82177521 1.639,0.7275 4.0735,2.0741775 5.9985,3.3178726 1.2098,0.7816047 3.1338,1.8372147 4.2744,2.3452197 2.2593,1.0059 2.6335,1.44315 2.0493,2.397945 -0.6558,1.071705 -3.2758,1.596878 -7.7095,1.546875 l -4.2641,-0.0483 -0.5288,2.41992 c -0.2908,1.330501 -0.9024,3.927488 -1.3594,5.771483 -0.7699,3.110423 -1.702,4.713113 -2.5635,4.68018 z m -292.06638,-92.24854 c -0.0967,0.006 -0.2493,-0.02782 -0.3882,-0.08935 -0.47565,-0.210203 -0.95917,-1.388783 -1.57327,-3.832028 -0.47145,-1.875802 -0.52088,-2.003872 -0.80415,-2.11377 -0.16583,-0.06427 -1.34355,-0.322455 -2.61773,-0.57276 -1.27417,-0.250297 -2.36565,-0.498705 -2.4243,-0.55371 -0.0585,-0.05483 -0.0112,-0.278542 0.10253,-0.498045 0.20467,-0.389602 0.2421,-0.405112 1.78717,-0.791017 0.8676,-0.216795 1.88753,-0.489375 2.26605,-0.60498 l 0.6885,-0.209468 -0.61522,-2.056642 c -0.52365,-1.752601 -0.59603,-2.110186 -0.49365,-2.425786 v 0 c 0.21382,-0.658695 0.48517,-0.559665 1.53082,0.561038 0.53685,0.5754 1.10895,1.250497 1.27148,1.5 0.49365,0.758198 1.76182,1.8888 1.95405,1.741703 0.53242,-0.407505 1.4106,-0.965025 2.1636,-1.37403 0.47325,-0.256898 1.16407,-0.699608 1.53517,-0.982906 0.73493,-0.561202 0.94568,-0.6045 1.15425,-0.241702 0.2343,0.407205 -0.0623,1.360643 -0.873,2.806643 l -0.78075,1.39014 0.7002,0.606442 c 0.38445,0.333803 1.12613,1.000553 1.6494,1.480958 1.48545,1.363995 1.48628,2.113597 0,1.770997 -0.2877,-0.0663 -0.96615,-0.177097 -1.50877,-0.246097 -0.54255,-0.06892 -1.41848,-0.248603 -1.94535,-0.3999 l -0.95798,-0.275393 -0.44677,1.519043 c -0.7413,2.52075 -1.1673,3.78858 -1.3008,3.871582 -0.0172,0.01088 -0.0427,0.01718 -0.075,0.01905 z" /></g></g></svg>
