<?xml version="1.0" encoding="UTF-8" standalone="no"?>
<!-- Created with Inkscape (http://www.inkscape.org/) -->

<svg
   version="1.1"
   id="svg2"
   xml:space="preserve"
   width="1570.9093"
   height="1178.1819"
   viewBox="0 0 1570.9093 1178.1819"
   sodipodi:docname="saddle.svg"
   inkscape:version="1.1 (c68e22c387, 2021-05-23)"
   xmlns:inkscape="http://www.inkscape.org/namespaces/inkscape"
   xmlns:sodipodi="http://sodipodi.sourceforge.net/DTD/sodipodi-0.dtd"
   xmlns="http://www.w3.org/2000/svg"
   xmlns:svg="http://www.w3.org/2000/svg"><defs
     id="defs6"><inkscape:path-effect
       effect="roughen"
       id="path-effect1713"
       is_visible="true"
       lpeversion="1.1"
       method="size"
       max_segment_size="15.692"
       segments="2"
       displace_x="0.86;1"
       displace_y="1.56;1"
       global_randomize="1;1"
       handles="along"
       shift_nodes="true"
       fixed_displacement="false"
       spray_tool_friendly="false" /><inkscape:path-effect
       effect="roughen"
       id="path-effect1707"
       is_visible="true"
       lpeversion="1.1"
       method="size"
       max_segment_size="15.692"
       segments="2"
       displace_x="0.86;1"
       displace_y="1.56;1"
       global_randomize="1;1"
       handles="along"
       shift_nodes="true"
       fixed_displacement="false"
       spray_tool_friendly="false" /></defs><sodipodi:namedview
     id="namedview4"
     pagecolor="#505050"
     bordercolor="#eeeeee"
     borderopacity="1"
     inkscape:pageshadow="0"
     inkscape:pageopacity="0"
     inkscape:pagecheckerboard="0"
     showgrid="false"
     inkscape:snap-global="false"
     inkscape:zoom="5.9277774"
     inkscape:cx="788.0694"
     inkscape:cy="415.50143"
     inkscape:window-width="3840"
     inkscape:window-height="2066"
     inkscape:window-x="-11"
     inkscape:window-y="-11"
     inkscape:window-maximized="1"
     inkscape:current-layer="g8" /><g
     id="g8"
     inkscape:groupmode="layer"
     inkscape:label="saddle"
     transform="matrix(1.3333333,0,0,-1.3333333,0,1178.1819)"><path
       id="path1709"
       style="fill:#000000;stroke-width:0.999998"
       inkscape:label="bg"
       d="m 582.93945,520.45117 c -2.6134,0.0106 -5.2626,0.31445 -7.69531,1.31641 -3.69049,0.82776 -7.46522,1.9125 -10.44216,4.35563 -3.18266,2.49593 -5.81502,5.74934 -7.29532,9.53547 -1.59953,3.7952 -3.1851,7.60845 -4.27522,11.58859 -1.00712,3.62929 -1.9136,7.28624 -2.83437,10.93801 -0.41779,1.78965 -0.73767,3.71237 -0.84232,5.41637 -0.25786,3.96453 -0.76813,7.93926 -0.51437,11.9157 0.31844,2.74466 1.20262,5.40587 1.26966,8.18371 0.39416,4.64998 1.41603,9.23785 2.82954,13.67903 0.55549,1.66479 1.60184,3.21669 3.18582,4.04862 1.91204,1.27084 4.50357,2.20944 6.67916,1.02445 2.61163,-1.28802 4.62662,-3.47916 6.56274,-5.59739 1.54485,-1.8443 2.98533,-3.89769 5.16276,-5.0514 1.07068,-0.66246 1.95006,-1.36747 2.93205,-2.07585 3.14678,-1.76005 5.12457,-5.13832 8.54101,-6.4961 3.68772,-1.49637 7.69982,-0.29862 11.52555,-0.79729 3.03632,-0.35224 6.11356,-0.19268 9.10443,0.43056 3.36311,0.62283 6.56629,1.44196 9.98337,1.75503 3.66773,0.40528 7.36919,0.81539 10.89837,1.94569 1.15749,0.32234 2.55163,0.72965 3.7968,1.09235 3.35202,0.98411 6.65561,2.12403 10.02821,3.03916 1.60491,0.42569 3.11634,1.1059 4.54351,1.94781 0.81152,0.48722 1.81487,0.41387 2.57484,1.01052 2.88532,1.74908 4.91618,4.57869 6.39936,7.55187 1.38662,1.9592 3.7337,2.88356 5.8858,3.73915 2.20846,0.75413 4.67837,1.36138 6.97266,0.64453 1.93359,-0.81096 3.55251,-2.29924 4.75586,-3.99414 2.18438,-3.47564 2.94685,-7.58544 4.13623,-11.44925 0.85348,-2.922 1.65653,-5.94752 1.80091,-9.05978 0.35053,-5.54402 -0.33723,-11.07703 -0.74435,-16.59835 -0.53894,-4.85433 -0.51332,-9.87155 -2.28069,-14.49419 -1.29366,-3.52797 -3.84583,-6.36457 -6.241,-9.18345 -2.54566,-2.78106 -5.1866,-5.58789 -8.46225,-7.51679 -3.2385,-1.88838 -6.92404,-2.8009 -10.58533,-3.43468 -3.21549,-0.8768 -6.19726,-2.46873 -9.47217,-3.15133 -4.79882,-1.26877 -9.732,-2.57463 -14.57323,-3.28211 -5.54147,-0.75625 -11.22808,-1.37126 -16.83114,-2.0996 -4.24643,-0.53129 -8.53151,-0.89388 -12.81137,-0.59636 -3.33737,0.1768 -6.67423,0.38025 -10.01765,0.38346 0.2179,-0.7894 -0.43249,-0.67419 -0.99451,-0.65855 -0.88528,-0.01 -1.77056,-0.007 -2.65588,-0.006 z" /><path
       id="path1304"
       style="fill:#ffffff;stroke-width:1.33333"
       inkscape:label="mask"
       d="m 887.41602,368.31055 c -2.78884,0.0506 -5.50697,0.83898 -8.12891,1.88476 -2.94293,1.25908 -6.46376,2.98811 -7.96875,6.00391 -3.46132,7.12569 -8.30469,9.17383 -8.30469,9.17383 -1.95066,0.22478 -3.63047,1.60058 -5.41797,2.36914 -3.48898,1.28325 -6.39371,1.86059 -9.91797,3.04687 -3.52426,1.18627 -7.72034,2.3701 -11.31054,3.39258 -4.93583,1.58171 -10.11229,2.06493 -15.23633,2.63672 -5.37776,0.56273 -10.75719,2.17825 -16.06836,2.82617 -2.92701,0.37157 -5.63706,0.19447 -8.7168,-0.10351 -4.54642,-0.53284 -10.15383,0.97151 -14.37304,-1.02735 -3.91988,-1.73166 -6.94398,-6.42526 -10.77539,-8.3789 -6.6669,-5.16431 -4.26793,-1.6712 -10.69922,-9.60352 -2.75808,-2.88688 -5.7559,-6.07637 -9.50391,-7.67383 -3.50243,-1.62046 -7.65139,-0.12244 -10.66797,1.97852 -3.09584,1.76833 -4.43249,4.95848 -5.35742,8.24218 -1.63127,5.85627 -2.81156,11.15218 -3.26758,17.25391 -0.15224,4.25724 -1.67213,7.67941 -1.75,12.07617 -0.0779,4.39676 0.49118,10.34189 0.80469,14.5918 0.38151,5.63688 1.95048,10.29533 3.27539,15.70898 1.32491,5.41364 2.93731,11.04191 5.07617,16.26954 2.07928,4.78609 3.22113,8.76925 6.4375,12.94336 3.33438,4.28334 8.01369,8.37318 13.00391,10.16796 2.07878,0.94584 5.79639,1.83847 7.98047,2.34571 5.6831,2.3275 11.25908,1.72206 17.33203,1.80273 l 0.16406,-0.35742 0.0195,-0.48828 c 6.42002,0.006 13.25968,0.89628 19.58789,0.53711 6.32822,-0.35918 12.80473,-1.37425 19.1836,-2.10742 5.53704,-0.71143 11.12855,-1.21788 16.5664,-2.25391 5.43786,-1.03601 11.0567,-2.53617 16.46094,-3.9707 4.24508,-0.9393 7.80476,-2.95989 12.00391,-4.03907 6.34466,-1.0069 12.53718,-2.96688 17.54882,-6.86132 4.80991,-3.84234 9.50023,-9.03657 13.21485,-13.9668 4.06244,-5.19815 5.62856,-10.95693 6.31445,-17.44141 0.62323,-6.64858 1.24207,-13.07792 1.67774,-19.68945 0.41472,-4.51607 0.49523,-10.53878 -0.006,-14.79688 -0.5011,-4.2581 -1.65822,-7.85126 -2.88282,-12.21289 -1.45965,-4.97504 -2.91543,-11.24714 -6.35351,-15.24023 -1.99934,-2.08976 -4.2593,-4.07507 -7.13477,-4.82617 -0.94471,-0.16473 -1.88093,-0.22976 -2.81054,-0.21289 z m 1.10351,3.98242 c 0.29349,0.015 0.56985,0.0471 0.82422,0.0957 0.95345,0.18227 3.06377,1.69507 4.68945,3.36328 5.29339,5.43176 9.57555,22.96211 8.69336,35.58399 -0.25846,3.69725 -0.66884,10.97773 -0.91211,16.17773 -0.70924,15.16289 -3.21085,20.79761 -13.58984,30.61914 -7.00291,6.6268 -14.07044,10.79335 -19.84375,11.69727 -1.5616,0.2445 -4.63984,1.23869 -6.83984,2.20898 -6.05986,2.67266 -19.58424,5.44777 -37.81836,7.75977 -14.06066,1.78284 -36.91116,2.72359 -46.18164,1.90039 -3.2,-0.28416 -7.03434,-1.05587 -8.52149,-1.71484 -1.48716,-0.65898 -3.75409,-1.19922 -5.03711,-1.19922 -1.283,0 -4.74686,-1.19257 -7.69726,-2.65039 -6.09007,-3.00915 -7.98194,-5.2573 -11.84375,-14.07618 -7.18479,-16.4072 -9.61842,-28.99809 -9.70118,-50.18164 -0.0475,-12.15772 0.0551,-13.11367 2.29883,-21.34765 2.78856,-10.23324 3.17418,-11.03492 6.18555,-12.8711 4.13195,-2.51942 6.60663,-1.93685 11.46094,2.69336 4.677,4.46111 4.98199,5.43964 3.23242,10.39844 -1.37075,3.88513 -3.41541,15.55764 -2.95313,16.86328 0.19283,0.5446 1.02169,6.55352 1.8418,13.35352 1.6444,13.63484 1.94894,14.84732 5.82813,23.26953 5.49168,11.92314 9.65907,14.47086 26.90625,16.44726 8.99688,1.03098 11.67752,1.03761 17.81836,0.0449 2.79999,-0.45266 7.87148,-0.83221 11.27148,-0.84375 8.51295,-0.0289 21.30418,-1.76503 26.54687,-3.60352 5.77899,-2.02656 17.08382,-8.91233 21.19727,-12.91016 10.34692,-10.05606 14.89707,-36.89181 9.28711,-54.76757 -1.15455,-3.67891 -1.49181,-8.33501 -0.76758,-10.60352 0.80604,-2.52479 9.2227,-5.932 13.625,-5.70703 z m -0.11719,5.42969 c -0.41849,0.0571 -0.89965,0.42442 -1.14453,1.0625 -0.23025,0.6 -0.8744,1.09179 -1.43164,1.09179 -0.55716,0 -1.01172,0.32657 -1.01172,0.72657 0,0.4 0.32657,0.72656 0.72657,0.72656 0.4,0 0.72656,0.76393 0.72656,1.69726 0,2.3719 0.93503,3.05117 1.73437,1.25977 0.36851,-0.82592 1.09215,-1.50195 1.60743,-1.50195 1.56195,0 2.04923,-1.6189 0.76953,-2.55469 -0.66118,-0.48341 -1.20118,-1.25114 -1.20118,-1.70703 0,-0.60464 -0.35689,-0.85792 -0.77539,-0.80078 z m -141.01562,4.42773 c -0.47987,0.008 -0.65632,0.95369 -1.02539,3.36328 -0.41552,2.71279 -0.3056,3.08985 0.90039,3.08985 0.75575,0 1.78134,0.49179 2.2793,1.09179 1.39221,1.67752 2.18164,1.30442 2.18164,-1.03125 0,-1.16728 0.1986,-2.64073 0.4414,-3.27344 0.30055,-0.78322 0.0289,-1.15039 -0.85156,-1.15039 -0.71131,0 -1.89301,-0.5428 -2.62695,-1.20703 -0.61317,-0.5549 -1.01091,-0.88778 -1.29883,-0.88281 z m 120.09961,5.35156 c 1.65322,-0.14772 3.51045,1.37281 4.87305,4.1875 0.84961,1.75506 1.54492,3.70327 1.54492,4.32813 0,0.62486 0.51106,2.35695 1.13476,3.84961 2.60146,6.22625 -1.37403,27.23463 -6.67578,35.28125 -2.32,3.52118 -3.13901,4.40198 -6.4668,6.95117 -8.35897,6.40317 -20.30997,11.95898 -25.72656,11.95898 -1.2981,0 -3.03027,0.35746 -3.84765,0.79493 -0.8931,0.47794 -5.58983,0.7691 -11.76954,0.73046 -5.78268,-0.0361 -13.44038,0.41218 -17.49414,1.02344 -7.95373,1.19932 -10.82366,1.25009 -15.69921,0.2793 -1.8,-0.35841 -4.95966,-0.9932 -7.02149,-1.41211 -11.14696,-2.26472 -17.50705,-12.5301 -20.55664,-33.17773 -2.66612,-18.05146 -2.69409,-20.33419 -0.30273,-24.92579 2.95497,-5.67378 3.50362,-5.83188 9.41601,-2.73242 14.65207,7.68111 14.29926,7.55305 23.27149,8.51953 8.56118,0.92219 10.9863,0.76772 23.55664,-1.49218 2.2,-0.39552 7.1082,-1.02829 10.9082,-1.40625 5.15739,-0.51298 10.04441,-1.72873 19.27344,-4.79493 6.8,-2.2592 13.24804,-4.56369 14.32812,-5.12109 1.08015,-0.55741 2.52647,-1.01367 3.21485,-1.01367 0.68836,0 1.80489,-0.49996 2.48046,-1.11133 0.47986,-0.43426 1.00752,-0.66756 1.5586,-0.7168 z m 26.41797,4.73828 c -0.6,0 -1.08985,0.33261 -1.08985,0.74024 0,0.42737 -0.76992,0.5483 -1.81836,0.28515 -2.00813,-0.50399 -2.41725,0.48243 -0.76757,1.85157 0.75322,0.62509 0.86965,1.3501 0.41015,2.55859 -0.82348,2.16607 -0.10659,2.87925 1.46485,1.45703 0.67461,-0.61052 1.76342,-0.90349 2.41796,-0.65234 1.46932,0.56384 2.47913,-1.61658 1.29688,-2.79883 -0.45309,-0.45312 -0.82227,-1.41281 -0.82227,-2.13281 0,-0.72 -0.49179,-1.3086 -1.09179,-1.3086 z m -152.68164,9.29493 c -0.54187,0.0528 -0.67904,0.42159 -0.55469,1.25 0.34184,2.27725 0.35025,2.83226 0.0566,4 -0.19964,0.79392 0.24349,1.03753 1.62695,0.89648 1.04555,-0.10667 2.32145,0.31367 2.83594,0.93359 1.44103,1.73632 2.55375,0.84389 2.36523,-1.89843 -0.0936,-1.36194 -0.19786,-3.03496 -0.23046,-3.7168 -0.0409,-0.85516 -0.66499,-1.22802 -2.01172,-1.20312 -1.07378,0.0199 -2.60625,-0.0768 -3.40625,-0.21485 -0.27613,-0.0476 -0.50102,-0.0645 -0.68164,-0.0469 z m 123.03906,3.99609 c -0.24456,-0.0658 -0.48761,0.19886 -0.89063,0.75 -0.93237,1.27516 -2.06213,10.93205 -2.14453,18.32227 -0.0785,7.0362 1.50262,9.11858 3.17578,4.18164 1.35346,-3.99352 1.90492,-19.88903 0.76368,-22.02149 -0.4124,-0.77058 -0.65974,-1.1666 -0.9043,-1.23242 z m 32.27344,3.43555 c -0.84662,0 -1.53907,0.35038 -1.53907,0.77734 0,0.46181 -0.63046,0.57655 -1.55468,0.2832 -1.38487,-0.43953 -1.50034,-0.28583 -1.07227,1.41993 0.26415,1.05245 0.12935,2.56713 -0.29883,3.36718 -1.11374,2.08096 -0.14893,3.25481 1.47071,1.78907 0.86385,-0.78175 1.47342,-0.92092 1.78906,-0.41016 0.9544,1.54421 1.8899,0.7209 1.80859,-1.58984 -0.0459,-1.3 0.14593,-3.1 0.42578,-4 0.41716,-1.34183 0.23304,-1.63672 -1.02929,-1.63672 z m -45.72657,0.72851 c -0.95717,0 -1.04668,1.38508 -0.66601,10.36328 0.44821,10.57235 0.95934,14.36329 1.93359,14.36329 0.3011,0 0.75005,-1.22657 0.99805,-2.72657 0.73164,-4.42676 0.53024,-15.283 -0.34766,-18.76953 -0.51578,-2.04835 -1.21754,-3.23047 -1.91797,-3.23047 z m -15.10156,3.22657 c -0.19961,0.025 -0.46244,0.20336 -0.83398,0.51171 -2.23607,1.85578 0.0269,15.85605 3.83398,23.71485 2.26451,4.67489 3.50205,4.99053 2.86133,0.72851 -0.25557,-1.7 -1.44154,-7.34687 -2.63477,-12.54687 -1.19324,-5.2 -2.33622,-10.21901 -2.53906,-11.1543 -0.19791,-0.91279 -0.35482,-1.29555 -0.6875,-1.2539 z m -16.39648,4.4082 c -2.24815,0 -0.24653,16.19954 2.87304,23.25195 0.80152,1.81199 1.74817,3.29492 2.10352,3.29492 0.35543,0 0.49728,-1.80514 0.31445,-4.00976 -0.6197,-7.47275 -4.15653,-22.53711 -5.29101,-22.53711 z m -32.77735,0.89648 c -1.49986,-0.22807 -1.27402,11.9207 0.50977,19.28516 1.0394,4.29121 3.78499,10.41031 4.39648,9.79883 0.18843,-0.18843 -0.69751,-6.68325 -1.96875,-14.4336 -1.27122,-7.75033 -2.44838,-14.24518 -2.61523,-14.43359 -0.11538,-0.1303 -0.22228,-0.20159 -0.32227,-0.2168 z m 15.24219,0.32422 c -3.10706,0.0108 -1.59571,17.29927 2.31445,24.60547 1.38032,2.57915 2.4903,1.30114 2.25782,-2.60156 -0.38946,-6.53826 -3.31912,-21.63923 -4.25782,-21.95117 -0.10991,-0.0365 -0.21422,-0.0531 -0.31445,-0.0527 z m -28.78125,0.8125 c -0.71968,0.1793 -1.56529,2.75938 -1.89062,6.51953 -0.51438,5.94491 0.27818,12.71556 1.95898,16.73828 1.55332,3.71762 2.65972,3.40845 2.66211,-0.74414 0.003,-3.71846 -1.30534,-18.36403 -1.88867,-21.15625 -0.21423,-1.0254 -0.51467,-1.43892 -0.8418,-1.35742 z m -29.66602,5.75 c -2.21613,0 -2.28812,0.0989 -2.33593,3.26172 -0.0464,3.0704 0.052,3.23761 1.66015,2.83398 0.93986,-0.23589 1.92244,-0.0828 2.1836,0.33985 0.66158,1.07045 2.11096,0.45471 2.39648,-1.01758 0.13054,-0.67345 -0.1789,-2.16888 -0.68945,-3.32227 -0.73904,-1.6696 -1.39482,-2.0957 -3.21485,-2.0957 z m 152.07618,1.3086 c -2.1288,0 -2.65091,0.26323 -2.52735,1.27343 0.0856,0.7 -0.18217,2.08985 -0.5957,3.08985 -0.41353,1 -0.60634,2.06328 -0.42969,2.36328 0.46007,0.7813 1.524,0.67305 2.07032,-0.21094 0.25731,-0.41627 1.09492,-0.55768 1.86132,-0.31445 0.93331,0.29622 1.39453,0.0952 1.39453,-0.60743 0,-0.57695 0.20317,-2.07031 0.45313,-3.32031 0.44335,-2.21677 0.38952,-2.27343 -2.22656,-2.27343 z m -7.74414,16.7246 c -0.70712,-0.0332 -1.39258,0.51599 -1.39258,1.45704 0,0.8 -0.47044,1.45507 -1.04688,1.45507 -0.57636,0 -1.25955,0.3403 -1.51758,0.75782 -0.65709,1.06321 1.01641,2.8789 2.6543,2.8789 0.75106,0 1.36524,0.32657 1.36524,0.72657 0,1.06703 0.54316,0.90835 2.93945,-0.86329 2.76101,-2.04132 2.98262,-4.95507 0.37695,-4.95507 -0.97637,0 -1.97741,-0.32657 -2.22461,-0.72657 -0.29659,-0.47989 -0.73002,-0.71053 -1.15429,-0.73047 z m -135.92578,8.99219 c -0.466,-0.0456 -1.14842,0.008 -2.01172,0.16406 -3.37062,0.60939 -3.3502,0.59242 -2.4668,2.23047 0.39852,0.73896 0.9025,1.91524 1.11914,2.61524 0.43565,1.4076 1.24069,1.6213 2.29297,0.60742 0.38,-0.36613 1.50976,-0.77432 2.50976,-0.9082 2.38572,-0.31938 3.09241,-3.51758 0.77735,-3.51758 -0.82782,0 -1.50586,-0.34165 -1.50586,-0.75977 0,-0.24064 -0.24885,-0.38599 -0.71484,-0.43164 z m 117.82031,4.10156 c -0.99354,0 -1.74888,0.55478 -1.98438,1.45508 -0.21048,0.80504 -0.99196,1.45313 -1.75,1.45313 -1.57534,0 -1.60167,0.0832 -0.70312,2.33008 0.36748,0.91881 0.84836,2.24336 1.06836,2.94336 0.4904,1.56045 1.59933,1.65341 2.16406,0.18164 0.23025,-0.6 1.08398,-1.08985 1.89648,-1.08985 1.4504,0 2.06194,-1.73475 0.8711,-2.4707 -0.33331,-0.206 -0.45995,-1.37223 -0.28125,-2.58985 0.27833,-1.89637 0.0938,-2.21289 -1.28125,-2.21289 z m -22.79688,8 c -0.62174,0 -1.35285,0.36049 -1.625,0.80079 -0.2813,0.45521 -1.39937,0.61896 -2.58984,0.38086 -2.31825,-0.46364 -2.54682,-0.0225 -1.0293,1.98046 0.55986,0.73888 0.84863,1.78617 0.64063,2.32813 -0.5896,1.53647 0.42568,2.73103 1.53711,1.80859 0.67381,-0.5592 1.18518,-0.46315 1.86132,0.35156 1.29055,1.55504 2.4895,0.97249 2.76368,-1.34374 0.12666,-1.06915 -0.0623,-1.94336 -0.41993,-1.94336 -0.3573,0 -0.50427,-0.98165 -0.32812,-2.18164 0.23861,-1.62587 0.0318,-2.18165 -0.81055,-2.18165 z m -81.30664,0.72657 c -0.90554,0 -0.79277,2.46503 0.15625,3.41406 0.57468,0.57468 0.5605,1.23333 -0.0547,2.38281 -1.27613,2.38447 -0.50438,3.32813 2.72657,3.32813 h 2.91211 v -3.47071 c 0,-3.12032 -0.16556,-3.47265 -1.64453,-3.47265 -0.90487,0 -2.05283,-0.48985 -2.55079,-1.08985 -0.49796,-0.6 -1.1939,-1.09179 -1.54492,-1.09179 z m 52.48828,3.63672 c -0.77193,0 -1.59805,0.31429 -1.83593,0.69921 -0.2712,0.43878 -1.10296,0.39564 -2.22852,-0.11718 -2.48031,-1.1301 -3.08443,-0.18963 -1.17969,1.83789 0.87191,0.92809 1.38002,1.89537 1.12696,2.14844 -0.25308,0.25307 -0.24691,1.01899 0.0156,1.70312 0.35813,0.93328 0.68463,1.03604 1.30859,0.41211 0.60152,-0.60156 1.09541,-0.61149 1.78516,-0.0391 1.55949,1.29428 3.40415,0.14982 2.81055,-1.74414 -0.28051,-0.89514 -0.48577,-2.36368 -0.45508,-3.26368 0.0392,-1.15093 -0.36054,-1.63671 -1.34766,-1.63671 z m -22.2832,0.10742 c -0.17759,0.0283 -0.41574,0.11996 -0.72656,0.25586 -0.76343,0.33378 -2.45196,0.55274 -3.75196,0.48632 -2.37772,-0.12146 -3.32877,1.37834 -1.56445,2.46876 0.4438,0.27426 0.62299,1.38893 0.40039,2.50195 -0.47981,2.39906 0.10744,3.20715 1.4961,2.05469 0.7817,-0.64875 1.28379,-0.56972 2.20117,0.34765 1.39014,1.39015 3.10351,0.43953 3.10351,-1.72265 0,-0.7274 -0.31817,-1.5187 -0.70507,-1.75782 -0.3869,-0.23912 -0.49837,-1.45931 -0.24805,-2.71093 0.30576,-1.52878 0.32769,-2.00867 -0.20508,-1.92383 z"
       transform="matrix(0.75000002,0,0,-0.75000002,0,883.63645)" /></g></svg>
