<?xml version="1.0" encoding="UTF-8" standalone="no"?>
<!-- Created with Inkscape (http://www.inkscape.org/) -->

<svg
   version="1.1"
   id="svg2"
   xml:space="preserve"
   width="215.99817"
   height="219.52963"
   viewBox="0 0 215.99817 219.52964"
   sodipodi:docname="sun.svg"
   inkscape:version="1.1 (c68e22c387, 2021-05-23)"
   xmlns:inkscape="http://www.inkscape.org/namespaces/inkscape"
   xmlns:sodipodi="http://sodipodi.sourceforge.net/DTD/sodipodi-0.dtd"
   xmlns="http://www.w3.org/2000/svg"
   xmlns:svg="http://www.w3.org/2000/svg"><defs
     id="defs6" /><sodipodi:namedview
     id="namedview4"
     pagecolor="#505050"
     bordercolor="#eeeeee"
     borderopacity="1"
     inkscape:pageshadow="0"
     inkscape:pageopacity="0"
     inkscape:pagecheckerboard="0"
     showgrid="false"
     inkscape:zoom="1.0478929"
     inkscape:cx="400.47559"
     inkscape:cy="312.66046"
     inkscape:window-width="3840"
     inkscape:window-height="2066"
     inkscape:window-x="-11"
     inkscape:window-y="-11"
     inkscape:window-maximized="1"
     inkscape:current-layer="g8"
     inkscape:snap-global="false"
     inkscape:rotation="2"
     fit-margin-top="0"
     fit-margin-left="0"
     fit-margin-right="0"
     fit-margin-bottom="0" /><g
     id="g8"
     inkscape:groupmode="layer"
     inkscape:label="base"
     transform="matrix(1.3333333,0,0,-1.3333333,-396.31207,829.64307)"><g
       id="g5672"
       inkscape:label="sun"
       transform="translate(-378.53983,-607.4258)"><path
         id="path10352"
         style="fill:#000000;stroke-width:0.999998"
         inkscape:label="bg"
         d="m 786.46289,1066.5137 c -0.72729,-0.01 -1.18812,0.5607 -1.79492,0.8633 -4.13658,3.3141 -7.72691,7.2829 -10.72852,11.6464 -0.54186,0.8073 -1.2326,1.8459 -1.78856,2.7701 -3.08824,4.93 -6.28518,9.862 -8.29723,15.3543 -1.33369,3.4045 -2.80624,6.7504 -4.28335,10.0944 -2.19233,-6.2874 -4.50967,-12.5394 -7.32562,-18.5784 -1.63075,-3.4272 -3.18098,-6.93 -5.35602,-10.0564 -0.85299,-1.067 -2.58951,-1.1987 -3.54126,-0.1836 -1.6457,1.466 -2.21556,3.7424 -2.57983,5.8321 -0.27302,2.2037 -0.22754,4.4151 -0.61328,6.6523 -0.6688,4.764 -1.53264,9.5743 -2.28076,14.3519 -0.16747,0.3831 -0.0496,1.6439 -0.40013,1.4641 -11.02289,-10.8508 -21.63811,-22.1226 -33.02309,-32.6028 -1.03469,-0.866 -2.00327,-1.8471 -3.15735,-2.5491 -0.89161,-0.4391 -1.82155,0.1007 -2.40812,0.7758 -1.18094,1.1228 -2.07283,2.8314 -1.48303,4.4758 0.74103,2.2116 1.97379,4.2201 2.97734,6.3181 3.73427,7.3383 7.73301,14.5409 11.83373,21.7174 -4.94597,-2.0981 -9.7953,-4.4361 -14.83796,-6.298 -0.87037,-0.411 -1.92825,-0.6199 -2.76738,-0.01 -1.92927,1.1959 -2.11183,3.9622 -1.06125,5.8059 1.10573,1.7937 2.39546,3.4753 3.60481,5.203 2.66031,3.6763 5.49252,7.2233 8.26295,10.8163 -6.23745,-1.9623 -12.38528,-4.1564 -18.66475,-5.9838 -1.99497,-0.4867 -3.96577,-1.2849 -6.04423,-1.2779 -2.13953,-0.099 -3.97863,2.209 -3.28053,4.2581 1.18969,2.488 3.72206,3.8804 5.87356,5.4312 6.78924,4.6153 13.22186,9.7241 19.99608,14.3627 4.28284,2.9991 8.63465,5.8971 12.98315,8.7996 -3.60506,1.7625 -7.04987,3.8219 -10.58482,5.7147 -5.58218,2.9793 -11.33224,5.6295 -17.13179,8.1527 -3.03457,1.5007 -6.00075,3.8143 -7.04315,7.1638 -0.25736,1.3002 0.72258,2.6245 2.03711,2.7812 2.33159,0.5902 4.76509,0.4568 7.14687,0.6315 3.73265,0.059 7.40743,-0.7247 11.025,-1.5592 0.68974,-0.1429 1.19555,0.3264 1.73828,0.6699 0.0527,0.6713 0.20177,1.4046 -0.3457,1.92 -2.94931,2.9506 -5.18038,6.5303 -8.05528,9.5541 -2.77277,3.1784 -5.76752,6.218 -8.01117,9.8111 -0.72372,1.1155 -1.17782,2.7463 -0.15425,3.832 1.14676,1.1197 2.92164,0.902 4.37415,0.7111 4.3124,-0.8454 8.54144,-2.0905 12.71994,-3.4433 3.36176,-1.0819 6.61261,-2.4655 9.86294,-3.8381 -0.78725,4.649 -1.74444,9.2672 -2.5907,13.9042 -0.24424,1.9076 -0.38083,4.2033 1.08167,5.6812 1.11574,0.9258 2.68531,0.5815 3.86439,-0.024 2.74021,-1.1464 5.12955,-2.9428 7.6544,-4.477 -1.12677,4.6895 -2.64628,9.326 -3.06445,14.1523 -0.0516,1.5616 0.0295,3.5379 1.52539,4.4395 1.51086,0.7455 3.15876,-0.1065 4.42956,-0.947 5.92694,-3.547 10.16303,-9.1844 14.00808,-14.7901 2.071,-3.0079 4.0241,-6.0941 6.01744,-9.1535 0.99556,4.8564 1.78459,9.751 2.74527,14.6135 0.544,2.4176 1.02302,4.8822 1.9891,7.1736 0.58994,1.3073 1.89337,2.701 3.46876,2.2617 2.06136,-0.6173 3.0916,-2.7105 4.02343,-4.4727 1.52073,-3.3241 2.36924,-6.9045 3.26356,-10.4347 0.48115,-2.0595 0.96231,-4.119 1.44347,-6.1785 4.24772,8.269 8.27336,16.7136 13.63995,24.3364 1.23131,1.5843 2.4909,3.4789 4.60264,3.8941 1.48931,0.4156 3.37416,-0.2721 3.7639,-1.8878 0.71789,-2.6924 0.53317,-5.5249 0.44709,-8.2824 -0.42518,-6.5451 -1.35023,-13.0458 -2.45073,-19.5082 -0.16566,-1.022 -0.33133,-2.0439 -0.49699,-3.0658 5.18151,4.0641 10.12807,8.4955 15.82972,11.8376 1.38287,0.794 3.37827,1.3996 4.69372,0.1663 0.90367,-0.9019 0.93199,-2.2909 0.49805,-3.4219 -1.31147,-4.6815 -3.55811,-9.0202 -5.43555,-13.4863 8.85863,5.3164 17.64056,10.7631 26.5942,15.9188 2.02442,1.1298 4.51304,2.2411 6.81347,1.2526 1.2612,-0.5121 2.1045,-1.8714 1.82475,-3.2339 -0.38095,-2.4912 -2.2123,-4.3842 -3.61101,-6.3679 -7.4027,-9.774 -15.89036,-18.6716 -24.56115,-27.3624 -3.14881,-3.1318 -6.31332,-6.2478 -9.47042,-9.3713 6.17655,-0.1503 12.40367,-0.4174 18.5293,-0.9199 4.58179,-0.4167 9.19103,-0.6447 13.73438,-1.3965 1.07262,-0.159 2.25697,-0.5168 2.74218,-1.5918 0.90371,-1.9313 -0.3059,-4.5721 -2.44336,-5 -10.6769,-4.1203 -21.44337,-7.9575 -32.30587,-11.6498 -1.10516,-0.1375 0.0124,-0.5168 0.43815,-0.8208 3.65554,-2.1751 7.23999,-4.4376 10.78193,-6.8555 6.88789,-4.9222 14.80599,-8.1118 22.74504,-10.9049 1.73824,-0.67 3.5556,-1.3202 5.01458,-2.5053 1.08008,-1.2503 0.77456,-3.5295 -0.85578,-4.1612 -2.29676,-1.1704 -4.96913,-0.9223 -7.4647,-0.9111 -2.27178,0.092 -4.75568,0.3161 -7.03323,0.6032 -8.22703,1.0712 -16.33436,2.88 -24.39162,4.829 -0.39748,0 -1.58116,0.5581 -1.47419,0.2046 3.23516,-5.1477 6.84447,-10.0953 9.4539,-15.6075 1.0528,-2.136 1.91132,-4.7066 0.95114,-7.0328 -0.59046,-1.7294 -2.89341,-1.9137 -4.28708,-1.0961 -2.81399,1.27 -5.54087,2.7239 -8.30946,4.0868 -3.08593,1.7406 -5.79234,3.9749 -8.79676,5.8489 -0.64298,0.4264 -1.28596,0.8528 -1.92894,1.2792 1.54957,-5.601 3.13363,-11.2111 4.47929,-16.8135 1.42676,-5.8487 2.51986,-11.6898 3.39283,-17.6474 0.13959,-1.6226 0.38327,-3.3414 -0.15727,-4.9122 -0.47361,-1.0745 -1.54507,-1.8555 -2.74805,-1.748 z" /><path
         id="path10330"
         style="fill:#ffffff;stroke-width:1.33333"
         inkscape:label="mask"
         d="m 130.73633,-600.03125 c -2.09959,-0.0113 -4.24942,0.89793 -5.78516,2.30859 -2.71906,2.7192 -4.79869,6.00175 -6.84375,9.23828 -4.52688,7.24041 -8.42608,14.84108 -12.27539,22.45508 -0.50099,-2.2236 -1.03746,-4.43879 -1.61133,-6.64453 -1.36384,-4.7628 -2.58197,-9.73245 -5.457028,-13.85351 -1.469107,-2.2884 -4.003687,-4.29499 -6.873047,-3.88672 -3.03844,0.53133 -4.796254,3.50375 -5.617187,6.23242 -2.307775,7.37307 -3.210048,15.08357 -4.744141,22.63476 -2.285987,-3.54586 -4.600842,-7.07505 -7.048828,-10.51171 -5.006093,-7.16 -10.808556,-14.09871 -18.535157,-18.42579 -2.282839,-1.51906 -5.627722,-2.07168 -7.847656,-0.14648 -2.264373,2.0328 -2.34748,5.35716 -2.121094,8.17383 0.520801,4.5296 1.689711,8.96345 2.828126,13.37305 -2.212788,-1.45694 -4.528213,-2.78336 -7.007813,-3.73243 -2.25888,-1.09413 -5.249917,-0.85589 -6.970703,1.09571 -2.165893,2.61253 -2.02401,6.27984 -1.535156,9.44531 0.899866,4.81107 1.918461,9.60431 2.740234,14.43164 -6.964266,-3.0248 -14.246544,-5.26414 -21.587891,-7.17187 -3.153,-0.70668 -6.3620655,-1.80635 -9.6328121,-1.375 -2.1421733,0.17239 -4.18214483,1.6091 -4.70507815,3.7539 -0.75454665,2.40347 0.59064896,4.72844 1.85351565,6.68164 3.1959732,4.58667 7.0764724,8.6403 10.7597656,12.83203 3.458613,3.72374 6.21528,8.03043 9.742188,11.69336 1.060973,0.82907 -0.216504,0.34514 -0.841797,0.23047 -4.909627,-1.146 -9.925522,-2.03851 -14.9882816,-1.80664 -3.1720266,0.27253 -6.44924577,0.0484 -9.5097656,1.0625 -2.6784401,0.67413 -4.2330342,3.74239 -3.4296876,6.33398 1.7175601,5.04255 6.19666807,8.52231 10.8632813,10.72071 7.2979995,3.1224 14.4980785,6.48064 21.5156245,10.19531 3.955815,2.00933 7.848434,4.45897 11.873047,6.4707 -6.952186,4.6116 -13.843793,9.31832 -20.626953,14.17578 -6.702093,4.77815 -13.1704053,9.84771 -19.9492185,14.41797 -3.0391733,2.1828 -6.4780239,4.12844 -8.5312495,7.36524 -1.726735,2.452 -1.004165,5.95804 1.164062,7.89258 2.1265333,2.11746 5.4230276,1.97033 8.1171875,1.26367 8.0384531,-1.95427 15.8783635,-4.80864 23.7148435,-7.3125 -3.737826,4.7544 -7.364484,9.59881 -10.77539,14.59375 -1.7483741,2.17386 -2.8151449,5.06915 -2.1445316,7.85742 0.5183466,3.09573 3.5618276,5.83843 6.7988286,5.1875 5.494839,-1.8288 10.736147,-4.33532 16.052734,-6.61719 -5.094507,8.9292 -9.944052,17.99845 -14.576172,27.17578 -1.260187,2.71454 -3.124011,5.50703 -2.644531,8.64063 0.493626,2.24733 1.965196,4.24992 3.785156,5.63086 1.503373,1.25986 3.738204,1.14753 5.279297,0.0195 3.608613,-2.83 6.899383,-6.04672 10.216797,-9.20898 11.971333,-11.40828 23.393871,-23.37245 35.15039,-34.99805 0.90572,5.80373 1.964526,11.5839 2.759766,17.40429 0.589787,3.32788 0.397573,6.73607 1.003906,10.0586 0.736587,3.13733 1.873494,6.59508 4.742188,8.41016 2.11892,1.50146 5.176637,0.84835 6.773437,-1.10938 1.596214,-2.1508 2.810965,-4.56743 4.078125,-6.92383 4.407933,-8.76786 8.238018,-17.82899 11.460938,-27.09765 1.504041,3.2952 2.789451,6.68298 4.167971,10.03125 2.60985,6.82826 6.61399,12.97941 10.47265,19.14648 4.56546,7.56653 10.31375,14.45579 17.22657,19.98633 0.40404,0.5132 1.43408,0.62736 1.50781,1.26562 0.70347,0.13934 1.38993,0.38103 2.10351,0.45703 v -0.004 c 0.18071,0.0267 0.36373,8e-4 0.54493,0 2.79228,0.0549 5.11074,-2.28576 5.57421,-4.94336 0.52317,-3.96347 -0.31248,-7.94846 -0.9746,-11.84766 -1.8841,-11.98386 -4.96652,-23.73269 -8.22461,-35.40429 0.63652,0.42373 1.27965,0.83673 1.91015,1.26953 3.05594,2.15053 6.0576,4.41293 9.42383,6.07226 3.32137,1.5416 6.51304,3.35144 9.87109,4.8125 2.40854,1.2752 5.75256,1.10966 7.57813,-1.08593 2.06049,-2.83388 1.75763,-6.68879 0.625,-9.83399 -2.83527,-7.04947 -7.24416,-13.34869 -11.30664,-19.69336 3.88605,0.9272 7.77436,1.85068 11.68555,2.66602 9.52762,1.9184 19.14121,3.72374 28.8789,4.02734 3.66027,-0.004 7.68225,0.16313 10.83594,-2.01367 2.8164,-1.88867 2.84547,-6.32688 0.41211,-8.54102 -3.22081,-2.30133 -7.07584,-3.42617 -10.74609,-4.78711 -8.03675,-2.89386 -16.03186,-6.35324 -23.30274,-10.99804 -4.93733,-3.40187 -9.93164,-6.7275 -15.08398,-9.79883 0.70344,-0.236 1.39932,-0.47516 2.10156,-0.71289 12.65395,-4.38747 25.27049,-8.89487 37.76172,-13.73047 2.84012,-0.69813 4.86095,-3.46286 4.91015,-6.34766 0.27703,-2.4576 -1.24891,-4.92512 -3.57031,-5.77539 -2.77155,-0.80226 -5.68502,-1.01302 -8.54297,-1.35742 -10.71424,-0.9696 -21.44606,-1.87451 -32.20508,-2.12305 4.55958,-4.524 9.15549,-9.00567 13.66407,-13.58007 10.37364,-10.61027 20.52053,-21.51037 29.40429,-33.41797 2.09459,-2.88267 4.6539,-5.98495 4.42579,-9.77149 -0.0984,-2.9352 -2.74373,-5.13222 -5.50977,-5.53515 -3.77628,-0.6796 -7.29849,1.31665 -10.45508,3.11718 -9.63391,5.60187 -19.12589,11.44235 -28.67578,17.18555 1.92056,-4.3612 3.91022,-8.73353 5.04297,-13.38086 0.72495,-2.25333 -0.29549,-5.25576 -2.53125,-6.44336 -2.58744,-1.44146 -5.70307,-0.40025 -8.05664,1.02735 -5.98995,3.57106 -11.36193,8.06411 -16.79297,12.4121 0.65185,-3.93959 1.30161,-7.88201 1.80664,-11.84374 0.79321,-6.97361 1.75753,-13.99313 1.31641,-21.0254 -0.22948,-2.39893 -0.48849,-5.44803 -2.74805,-7.00976 -1.08009,-0.76045 -2.32228,-1.09868 -3.58203,-1.10547 z m 0.2207,4.00781 c 1.51571,0.21454 1.75493,0.73018 2.14453,4.60352 0.49695,4.9408 -0.80437,18.50095 -2.96875,30.91015 -2.06777,11.8556 -2.23284,11.528 3.43946,6.90039 17.80997,-14.52999 22.76696,-17.54085 23.92187,-14.53124 0.49811,1.29813 -3.05591,10.48874 -7.57031,19.58007 -2.86379,5.7672 -3.03375,6.37064 -1.51563,5.37891 0.94043,-0.61427 5.80078,-3.57515 10.80078,-6.58008 5,-3.00493 14.32657,-8.63075 20.72657,-12.50195 9.70946,-5.8732 12.05966,-7.00315 14.18359,-6.82422 3.55992,0.30013 3.77224,2.61294 0.64648,7.02734 -7.24079,10.22614 -20.12064,24.78164 -34.67773,39.1875 l -16.35156,16.18164 h 8.40625 c 7.90509,0 31.11431,1.67966 38.33984,2.77539 2.82792,0.42894 3.27149,0.7338 3.27149,2.23633 0,0.9564 -0.48985,2.01654 -1.08985,2.35547 -1.62225,0.9164 -31.12063,11.6689 -40.54492,14.7793 -4.5,1.48533 -8.18359,2.8266 -8.18359,2.98047 0,0.15386 3.14644,2.13119 6.99218,4.39453 3.84575,2.26333 9.44008,5.87118 12.43165,8.01758 6.62799,4.75533 16.80385,9.71246 27.47265,13.38086 4.39309,1.51053 8.30184,3.24316 8.68555,3.85156 3.72488,5.90506 -19.99383,4.09267 -51.48438,-3.9336 -3.14633,-0.802 -5.83417,-1.34352 -5.97461,-1.20312 -0.14042,0.1404 2.52548,4.49396 5.92579,9.67383 7.44734,11.34506 10.49804,17.24269 10.49804,20.29883 0,3.68 -1.14558,4.18127 -5.0039,2.1914 -1.84874,-0.95346 -5.15938,-2.59701 -7.35938,-3.65234 -2.2,-1.05534 -5.15111,-2.82436 -6.55664,-3.92969 -3.02116,-2.37613 -13.26651,-8.81934 -13.55859,-8.52734 -0.1116,0.112 0.11198,1.3312 0.49609,2.71093 6.50655,23.3652 7.64978,28.15592 10.11523,42.38672 1.52727,8.81547 1.29364,11.39453 -1.0332,11.39453 -0.56691,0 -3.6059,-2.53671 -6.75391,-5.63671 -4.11847,-4.0556 -7.36775,-8.28691 -11.58593,-15.08985 -6.84742,-11.04333 -7.42617,-12.13936 -10.40821,-19.72656 -1.23854,-3.1512 -3.43833,-8.28181 -4.88867,-11.40234 l -2.636716,-5.67383 -4.457032,12.58203 c -3.683053,10.39813 -10.796612,25.76868 -13.628906,29.44922 -1.842693,2.39466 -4.921875,-3.20278 -4.921875,-8.94531 0,-1.82761 -0.636109,-7.13834 -1.412109,-11.80274 -0.776,-4.6644 -1.7879,-10.85391 -2.248047,-13.75391 -0.460147,-2.9 -1.089064,-5.27343 -1.398437,-5.27343 -0.309388,0 -7.702988,7.28164 -16.431641,16.18164 -17.061173,17.396 -32.814157,32.54687 -33.841797,32.54687 -0.349013,0 -1.196286,-0.85559 -1.880859,-1.90039 -1.232294,-1.88066 -1.187754,-2.00833 4.441406,-12.9082 5.059346,-9.79613 11.600251,-21.62768 15.898437,-28.75781 l 1.492188,-2.47461 -1.992188,0.5 c -1.09564,0.27493 -6.759604,2.61712 -12.585937,5.20312 -5.82632,2.586 -11.030053,4.70117 -11.564453,4.70117 -1.585094,0 -2.569764,-2.57341 -1.779297,-4.65234 0.804373,-2.11573 13.555887,-19.10874 17.373047,-23.15234 1.409093,-1.49267 2.373338,-2.90397 2.142578,-3.13477 -0.23084,-0.2308 -6.754767,1.68227 -14.498047,4.25 -19.4828395,6.46067 -23.5739032,7.49904 -24.9707031,6.33984 -2.60168,-2.15933 -1.1692948,-4.13449 6.89062498,-9.49609 2.59999992,-1.7296 7.83671842,-5.48912 11.63671912,-8.35351 7.288866,-5.49455 18.154682,-13.10402 28.230468,-19.77149 l 6.046875,-4.00195 -4.957031,-2.5293 c -2.726186,-1.39187 -5.938672,-3.12494 -7.138672,-3.84961 -4.874906,-2.94387 -18.561965,-9.73578 -24.3242185,-12.07031 -6.2853865,-2.54653 -9.56264689,-4.97985 -11.3730469,-8.44531 -1.3877199,-2.65614 -0.6598781,-2.99767 7.234375,-3.375 6.5378264,-0.31267 8.4826234,-0.0318 22.2812504,3.19921 4.2,0.98348 8.055499,1.7841 8.566406,1.7793 0.510987,0 -1.617542,-2.06138 -4.728516,-4.57031 -3.11092,-2.5088 -7.246753,-6.68237 -9.191406,-9.27344 -1.944733,-2.59106 -4.726361,-6.02437 -6.181641,-7.6289 -12.7611589,-14.0692 -14.4727055,-17.08568 -9.693359,-17.08008 3.913173,0 21.17759,5.11283 28.029297,8.29297 6.559706,3.04453 7.003579,3.15419 6.699219,1.66406 -0.17928,-0.87773 -0.848582,-4.54063 -1.486328,-8.14063 -0.637748,-3.6 -1.474361,-7.9185 -1.859376,-9.5957 -1.196439,-5.21173 -0.913925,-8.72465 0.736329,-9.15625 1.512066,-0.39533 7.190475,2.69391 12.607421,6.85938 5.414695,4.1636 5.198178,4.04803 4.582032,2.4375 -1.960294,-5.12374 -5.58009,-19.5466 -5.72461,-22.8086 -0.2544,-5.74186 1.055271,-6.27374 6.404297,-2.59961 7.234467,4.9692 12.315092,11.20108 23.640625,28.98828 l 3.205078,5.03321 0.941407,-3.2168 c 0.517226,-1.7684 1.763344,-7.95977 2.769531,-13.75977 2.95112,-17.01173 4.633659,-20.44064 8.070312,-16.44531 2.628654,3.056 4.917671,9.99986 7.876956,23.90039 0.66,3.1 1.42674,5.63477 1.70508,5.63477 0.27832,0 3.23927,-5.48164 6.58007,-12.18164 6.24466,-12.5236 13.24584,-24.07906 16.36133,-27.00586 1.06982,-1.00507 2.44013,-1.56242 3.47461,-1.41602 z m -1.74805,6.42188 c -0.6709,0 -8.91496,13.10658 -12.35156,19.63672 -1.7893,3.4 -6.9642,13.19394 -11.5,21.76367 l -8.246092,15.58008 2.230469,4.01171 c 1.952103,3.50841 2.676043,4.15702 5.777343,5.18555 1.9498,0.64667 4.52656,1.69993 5.72656,2.3418 2.129,1.13853 2.26158,1.10969 5.45508,-1.24805 2.3418,-1.72906 3.33087,-3.00394 3.48047,-4.48047 0.1149,-1.1348 1.0157,-5.66445 2,-10.06445 3.5927,-16.06053 8.75763,-52.72656 7.42773,-52.72656 z m -74.480464,7.96875 0.99414,6.3789 c 0.54676,3.50866 2.12477,9.58086 3.50586,13.49219 1.38109,3.9112 3.32231,10.29298 4.3125,14.18164 1.62589,6.38507 5.86149,18.19997 7.68164,21.42383 0.39215,0.69454 0.714844,1.81721 0.714844,2.49414 0,1.72347 1.633533,6.06055 2.283203,6.06055 0.296,0 0.759337,-0.35812 1.029297,-0.79492 0.26998,-0.4368 3.154533,-2.0959 6.408203,-3.6875 5.26649,-2.57614 6.326209,-2.84834 9.662109,-2.48047 l 3.746094,0.41406 -2.251953,-4.16016 c -2.9388,-5.426 -8.446146,-13.49387 -9.722656,-14.24414 -0.55229,-0.32453 -0.832084,-0.86947 -0.621094,-1.21093 0.2109,-0.34135 -1.402737,-3.18618 -3.585937,-6.32032 -2.18328,-3.134 -5.74116,-8.31562 -7.90625,-11.51562 -2.16509,-3.2 -5.697313,-7.789 -7.851563,-10.19727 -2.15427,-2.40826 -4.926133,-5.60507 -6.158203,-7.10547 z m 38.40625,2.23828 c -0.057,-0.0141 -0.104578,0.0129 -0.142578,0.082 -0.297801,0.54134 -1.252394,4.58437 -2.121094,8.98438 -0.8687,4.4 -2.422225,11.19453 -3.453125,15.0996 l -1.875,7.09961 2.867187,3.44532 c 1.5776,1.89493 3.611631,4.50859 4.519532,5.80859 0.9079,1.3 1.873684,2.3499 2.146484,2.33203 0.2727,-0.0173 1.897575,-3.04443 3.609375,-6.72656 l 3.111333,-6.69531 -1.957036,-8 c -2.9021,-11.8615 -5.847078,-21.21774 -6.705078,-21.42969 z m -51.908204,15.27344 c -0.29011,-0.0133 -0.187627,0.8656 0.226563,1.95507 0.41418,1.08946 1.245053,5.58946 1.845703,10 0.60059,4.41053 1.401397,9.2075 1.779297,10.66016 0.71032,2.73 0.671259,2.70395 7.949219,5.33008 1.8,0.6496 4.744922,2.12781 6.544922,3.28516 4.51637,2.90386 5.142527,2.8263 4.248046,-0.5293 -2.4179,-9.07093 -5.908633,-19.09183 -6.652343,-19.10156 -0.47774,-0.0133 -4.140625,-2.6131 -8.140625,-5.79297 -4,-3.18 -7.510741,-5.79278 -7.800782,-5.80664 z m 150.357418,0.10742 c -0.5604,-0.56027 -40.04856,23.12827 -53.10156,31.85547 -5.2,3.4768 -12.33316,8.09328 -15.85156,10.25781 -6.1368,3.77547 -6.33491,3.97692 -4.84961,4.97266 3.1769,2.1296 9.58587,12.90402 10.42187,17.52148 l 0.46485,2.56055 22.36914,-22.19532 c 14.884,-14.7684 25.45389,-25.96441 31.58789,-33.45507 5.0705,-6.19187 9.10238,-11.37411 8.95898,-11.51758 z m -40.77148,3.0039 c -0.1342,-0.0285 -0.467,0.20408 -1,0.58008 -0.7866,0.55507 -5.64718,3.85448 -10.80078,7.33008 -5.1534,3.47547 -9.83184,6.87775 -10.39844,7.56055 -1.0082,1.2148 -5.1422,17.75586 -4.4375,17.75586 0.1964,0 3.00444,-1.90859 6.24024,-4.24219 3.2358,-2.3336 6.94804,-4.85879 8.24804,-5.61133 1.3,-0.75266 2.36328,-1.77331 2.36328,-2.26758 0,-0.49439 1.66312,-4.05858 3.69532,-7.91992 2.0321,-3.8612 4.33022,-8.50334 5.10742,-10.3164 0.8775,-2.04718 1.20602,-2.82173 0.98242,-2.86915 z M 11.125,-547.21484 c -0.0977,0.0973 2.456881,3.12018 5.675781,6.71484 3.21891,3.59467 6.755375,7.84336 7.859375,9.44336 2.15229,3.1192 5.580427,6.40785 15.310547,14.68359 3.38109,2.87559 9.086024,8.1941 12.677735,11.81836 3.59164,3.62427 6.608344,6.58985 6.703124,6.58985 0.0948,0 1.328588,-0.55244 2.742188,-1.22657 1.46198,-0.69707 2.570312,-1.76142 2.570312,-2.46875 0,-0.68387 1.233908,-3.69801 2.742188,-6.69922 l 2.742188,-5.45703 -1.921876,-5.31445 c -1.41084,-3.8992 -2.383323,-5.50122 -3.652343,-6.02148 -0.95105,-0.38974 -3.5942,-1.81012 -5.875,-3.15625 -2.2808,-1.34614 -6.452221,-3.23133 -9.269531,-4.18946 -2.817241,-0.95827 -7.006634,-2.73017 -9.308594,-3.9375 -8.00575,-4.1992 -15.663183,-7.3515 -22.220703,-9.14843 -3.62873,-0.9944 -6.677651,-1.7286 -6.775391,-1.63086 z m 84.767578,26.75781 c -6.0468,0.0524 -12.129995,1.83709 -17.140625,5.27344 -4.18459,2.86986 -6.193818,6.1988 -8.705078,14.42773 -3.75499,12.30414 -0.559684,21.13608 10.441406,28.86914 2.87003,2.01734 11.92186,3.63466 17.63086,3.15039 2.199999,-0.18653 5.714849,-0.97046 7.810549,-1.74219 2.0957,-0.77187 5.34585,-2.46252 7.22265,-3.75586 5.5387,-3.81694 7.25824,-6.52966 8.93164,-14.08593 2.1937,-9.90533 2.01354,-12.85598 -1.10546,-18.05078 -3.643,-6.06734 -5.76211,-8.08948 -11.56641,-11.02735 -4.1344,-2.09265 -8.81653,-3.09934 -13.519532,-3.05859 z m -88.5312499,5.03711 c -4.15993,0 -4.6793187,0.14038 -3.7617187,1.01758 0.58575,0.56 3.4514006,1.86838 6.3691406,2.90625 2.91767,1.038 11.099321,4.89404 18.181641,8.57031 16.24583,8.43307 20.75086,10.69672 21.375,10.74219 0.27339,0.02 2.185843,-1.01443 4.251953,-2.29883 l 3.757812,-2.33399 -1.708984,-1.37109 c -0.9395,-0.75346 -4.587862,-3.87523 -8.107422,-6.9375 l -6.398438,-5.56836 -5.238281,-0.42383 c -2.88044,-0.23346 -7.854687,-0.97155 -11.054687,-1.64062 -3.2,-0.66893 -7.397575,-1.54186 -9.328125,-1.93946 -1.93046,-0.3976 -5.682691,-0.72265 -8.3378909,-0.72265 z m 133.4414019,11.48242 -6.0664,6.43945 c -5.1276,5.44479 -5.88403,6.55512 -4.89063,7.16993 0.6463,0.4 3.01763,1.93668 5.26953,3.41601 2.2519,1.47947 4.58555,2.56239 5.18555,2.40625 0.6,-0.15613 5.01836,-1.61915 9.81836,-3.25195 15.1436,-5.15133 31.79244,-11.88097 30.77344,-12.4375 -0.5261,-0.28733 -5.70195,-0.89379 -11.50196,-1.34766 -5.8,-0.454 -14.6045,-1.17751 -19.5664,-1.60937 z m -77.230464,8.0957 -6.544922,4.14063 c -3.6,2.27747 -6.65381,4.41941 -6.78711,4.75781 -0.13339,0.3384 -0.644868,0.61524 -1.136718,0.61524 -0.49185,0 -4.801352,2.86895 -9.576172,6.37695 -4.77478,3.50787 -11.463281,8.31777 -14.863282,10.6875 -3.4,2.36973 -9.298048,6.61719 -13.105468,9.43945 -3.8074203,2.82227 -7.7339827,5.69693 -8.7265628,6.38867 -2.14247995,1.49306 -3.18925498,1.77913 14.9218748,-4.08007 8,-2.58801 18.669345,-5.56635 23.708985,-6.61915 16.86314,-3.52307 17.113678,-3.63786 21.417968,-9.86132 l 3.751953,-5.42383 -1.052734,-2.9082 c -0.57897,-1.60001 -1.26906,-5.29521 -1.53125,-8.21094 z m 64.212894,8.80664 c -0.045,-2.7e-4 -0.0777,0.0101 -0.0957,0.0312 -0.1456,0.1716 -1.08177,2.11055 -2.08007,4.31055 -0.99841,2.2 -3.39061,5.9248 -5.31641,8.27734 -4.0769,4.9804 -3.93474,5.74915 1.44726,7.86329 11.1851,4.39346 57.76775,14.89944 66.56055,15.01171 l 4,0.0508 -5.81836,-2.01758 c -8.2166,-2.84987 -17.82208,-7.88212 -25.45508,-13.33399 -5.5966,-3.99759 -11.28746,-7.61222 -21.81836,-13.85742 -1.2,-0.7116 -3.28857,-1.80134 -4.64257,-2.42187 -1.3539,-0.6204 -3.39591,-1.81838 -4.53711,-2.66211 -0.9985,-0.73827 -1.92954,-1.25014 -2.24414,-1.25196 z m -58.501957,12.28516 -2.019531,2.01953 c -1.11055,1.11054 -2.654041,3.26689 -3.431641,4.79102 -0.77753,1.52413 -2.73033,4.63677 -4.33789,6.91797 -6.01949,8.54186 -24.512835,40.60441 -31.546875,54.69336 l -3.449219,6.9082 5.71875,-5.56055 c 3.14567,-3.0588 14.90245,-14.84044 26.125,-26.18164 11.22255,-11.3412 22.780967,-23.12337 25.685547,-26.18164 l 5.28125,-5.56055 -1.666016,-1.16601 c -0.91615,-0.64173 -2.09808,-1.16797 -2.625,-1.16797 -1.95425,0 -7.182823,-3.15729 -10.408203,-6.28516 z m 42.224607,7.95508 c -0.7136,0.004 -1.46101,0.19034 -2.47851,0.56054 -1.4009,0.50947 -5.73867,1.13579 -9.638675,1.39258 -3.9,0.2568 -7.089844,0.76429 -7.089844,1.12696 0,0.36266 0.326563,0.66015 0.726563,0.66015 0.4,0 0.726562,0.53909 0.726562,1.19922 0,0.66014 0.783635,2.87029 1.740235,4.91016 0.9568,2.03987 4.199631,8.94375 7.207029,15.34375 3.0074,6.4 6.58311,14.25508 7.94531,17.45508 3.474,8.16146 13.72529,24.33639 18.99219,29.96679 2.4352,2.6032 4.54119,4.39385 4.67969,3.97852 0.1384,-0.41533 -0.58969,-5.11407 -1.61719,-10.44141 -1.0276,-5.32733 -2.50992,-11.97734 -3.29492,-14.77734 -4.2715,-15.2348 -6.03528,-22.03234 -8.01758,-30.9082 -3.2285,-14.45588 -4.89682,-18.82746 -7.60742,-19.9336 -0.881,-0.35946 -1.55984,-0.53718 -2.27344,-0.5332 z m -54.576169,3.51758 -1.769532,0.38086 c -0.97353,0.2092 -5.371484,1.1139 -9.771484,2.00976 -9.3968,1.9136 -8.732205,1.35667 -18.296875,15.35547 -3.53642,5.176 -6.888859,10.07268 -7.449219,10.88281 -0.85244,1.23267 -0.0794,1.04169 4.728516,-1.17578 3.16036,-1.45746 7.217578,-3.29961 9.017578,-4.09375 1.8,-0.79426 4.910156,-1.61782 6.910156,-1.83008 l 3.636719,-0.38672 4.445312,-7.00585 c 2.445971,-3.85335 5.370407,-8.60965 6.498047,-10.57032 z M 120.5,-462.9668 c -0.092,0.005 -0.12756,0.0281 -0.10156,0.0703 0.2086,0.3376 1.29707,4.28415 2.41797,8.77148 l 2.03711,8.16016 7.29882,4.01367 c 4.0143,2.20773 7.89922,4.55125 8.63282,5.20898 1.697,1.52174 11.20361,6.40536 12.47851,6.41016 0.6327,0 0.14493,-1.42854 -1.42187,-4.17774 -1.3108,-2.3 -5.09742,-8.19179 -8.41602,-13.09179 -3.3186,-4.90013 -6.03516,-9.32408 -6.03516,-9.83008 0,-0.54667 -3.52554,-1.96747 -8.68554,-3.5 -4.1801,-1.24145 -7.56408,-2.0725 -8.20508,-2.03516 z m -31.613281,4.26953 -7.78711,8.3418 c -6.47345,6.93347 -7.667198,8.56323 -7.080078,9.66016 0.80867,1.51107 5.611238,23.48245 6.304688,28.84179 l 0.46289,3.56446 2.769532,-5.01953 c 1.5232,-2.7612 4.316484,-9.43789 6.208984,-14.83789 1.8926,-5.4 4.061912,-11.69712 4.820313,-13.99219 l 1.378906,-4.17188 -3.539063,-6.19336 z"
         transform="matrix(0.75000002,0,0,-0.75000002,684.86885,779.63457)" /></g></g></svg>
